<?xml version="1.0" encoding="utf-8"?>
<svg width="344px" height="206px" viewBox="0 0 344 206" version="1.1" xmlns:xlink="http://www.w3.org/1999/xlink" xmlns="http://www.w3.org/2000/svg">
  <desc>Created with Lunacy</desc>
  <path d="M17.5956 0L265 0L246.605 33L0 34L18.1284 0" transform="translate(78 171)" id="New-shape" fill="#D3D3D3" fill-opacity="0" stroke="#000000" stroke-width="2" stroke-dasharray="2 3" />
  <path d="M1 0L0 36" transform="translate(210 135)" id="New-shape-4" fill="none" stroke="#808080" stroke-width="1" stroke-dasharray="6 2" />
  <path d="M1 0L0 36" transform="translate(209 75)" id="New-shape-5" fill="none" stroke="#808080" stroke-width="1" stroke-dasharray="6 2" />
  <path d="M17.2636 0L260 0L241.952 33L0 34L17.7864 0" transform="translate(83 106)" id="New-shape-2" fill="#D3D3D3" fill-opacity="0" stroke="#000000" stroke-width="2" stroke-dasharray="2 3" />
  <path d="M17.2636 0L260 0L241.952 33L0 34L17.7864 0" transform="translate(83 41)" id="New-shape-3" fill="#D3D3D3" fill-opacity="0" stroke="#000000" stroke-width="2" stroke-dasharray="2 3" />
  <g id="Machine-Code" transform="translate(153 176)">
    <path d="M95.976 6.92Q95.904 6.488 96.036 6.128Q96.168 5.768 96.576 5.72Q96.936 5.672 97.212 5.912Q97.488 6.152 97.56 6.536Q98.04 9.296 98.46 12.02Q98.88 14.744 99.216 17.36Q99.312 18.056 99.12 18.308Q98.928 18.56 98.664 18.68Q98.376 18.8 98.124 18.68Q97.872 18.56 97.8 18.248L97.776 18.104L97.68 18.128Q96.888 18.416 96.024 18.452Q95.16 18.488 94.368 18.248Q93.576 18.008 92.964 17.468Q92.352 16.928 92.088 16.088Q91.512 14.24 92.808 12.728Q93.36 12.104 94.176 11.6Q94.992 11.096 96.144 10.808L96.576 10.712L95.976 6.92ZM34.608 8.456Q34.608 9.032 34.596 9.752Q34.584 10.472 34.596 11.24Q34.608 12.008 34.62 12.824Q34.632 13.64 34.656 14.384Q34.896 13.904 35.232 13.436Q35.568 12.968 35.988 12.608Q36.408 12.248 36.876 12.032Q37.344 11.816 37.896 11.816Q38.496 11.816 38.964 12.2Q39.432 12.584 39.78 13.22Q40.128 13.856 40.368 14.636Q40.608 15.416 40.764 16.22Q40.92 17.024 40.992 17.756Q41.064 18.488 41.112 19.016Q41.112 19.4 40.92 19.64Q40.728 19.88 40.464 19.88Q40.272 19.88 39.996 19.628Q39.72 19.376 39.6 19.016Q39.528 18.728 39.456 18.176Q39.384 17.624 39.288 16.988Q39.192 16.352 39.048 15.704Q38.904 15.056 38.7 14.54Q38.496 14.024 38.208 13.736Q37.92 13.448 37.536 13.52Q36.936 13.64 36.492 14.36Q36.048 15.08 35.724 15.992Q35.4 16.904 35.196 17.84Q34.992 18.776 34.896 19.352Q34.8 19.784 34.644 19.94Q34.488 20.096 34.296 20.096Q34.104 20.096 33.948 19.904Q33.792 19.712 33.66 19.436Q33.528 19.16 33.432 18.86Q33.336 18.56 33.312 18.344Q33.192 17.048 33.12 15.86Q33.048 14.672 33.012 13.472Q32.976 12.272 32.976 11.012Q32.976 9.752 33.024 8.312Q33.024 7.54829 33.374 7.31923Q33.5739 7.18837 33.888 7.232Q34.176 7.28 34.392 7.652Q34.608 8.024 34.608 8.456ZM13.032 19.976Q12.768 19.976 12.492 19.568Q12.216 19.16 12.192 18.776Q12 17.384 11.724 15.524Q11.448 13.664 10.992 11.12Q10.272 12.488 9.576 13.832L8.184 16.52Q7.752 17.36 7.296 17.36Q6.624 17.36 6.24 16.664Q5.4 15.44 4.5 14.372Q3.6 13.304 2.64 12.248Q2.592 13.856 2.676 15.404Q2.76 16.952 2.976 18.416Q3.024 18.68 2.916 18.884Q2.808 19.088 2.688 19.136Q2.352 19.256 2.016 18.992Q1.68 18.728 1.608 18.416Q1.392 17.552 1.296 16.496Q1.2 15.44 1.164 14.36Q1.128 13.28 1.128 12.224Q1.128 11.168 1.152 10.304Q1.152 9.344 1.776 9.344Q2.16 9.344 2.424 9.62Q2.688 9.896 2.712 10.4Q3.912 11.6 4.98 12.86Q6.048 14.12 7.056 15.416Q7.896 13.904 8.76 12.308Q9.624 10.712 10.704 9.2Q10.752 8.936 10.968 8.66Q11.184 8.384 11.448 8.288Q11.712 8.192 12 8.504Q12.288 8.816 12.384 9.224Q12.792 11.648 13.092 14.072Q13.392 16.496 13.68 18.92Q13.728 19.376 13.512 19.676Q13.296 19.976 13.032 19.976ZM46.536 9.56Q46.824 9.536 46.872 9.296Q46.92 8.96 46.692 8.72Q46.464 8.48 46.08 8.36Q45.816 8.288 45.408 8.276Q45 8.264 44.556 8.312Q44.112 8.36 43.68 8.468Q43.248 8.576 42.936 8.72Q42.744 8.816 42.6 8.936Q42.456 9.056 42.456 9.248Q42.528 9.752 42.864 9.92Q43.2 10.088 43.488 9.992Q44.184 9.8 44.82 9.704Q45.456 9.608 46.056 9.584Q46.248 9.584 46.536 9.56ZM21.624 10.208Q21.72 10.88 21.78 11.636Q21.84 12.392 21.876 13.16Q21.912 13.928 21.912 14.648Q21.912 15.368 21.888 15.944Q22.656 16.472 22.812 16.88Q22.968 17.288 22.848 17.6Q22.704 18.032 22.332 18.044Q21.96 18.056 21.48 17.792Q21.144 18.032 20.712 18.308Q20.28 18.584 19.8 18.836Q19.32 19.088 18.84 19.28Q18.36 19.472 17.952 19.544Q17.184 19.664 16.572 19.256Q15.96 18.848 15.744 18.032Q15.6 17.48 15.672 16.892Q15.744 16.304 16.032 15.764Q16.32 15.224 16.812 14.792Q17.304 14.36 17.976 14.12Q18.144 14.048 18.444 14Q18.744 13.952 19.068 13.964Q19.392 13.976 19.728 14.096Q20.064 14.216 20.352 14.504Q20.352 14.096 20.34 13.604Q20.328 13.112 20.304 12.608Q20.28 12.104 20.244 11.66Q20.208 11.216 20.16 10.904Q20.112 10.544 19.884 10.46Q19.656 10.376 19.32 10.496Q18.744 10.688 17.976 11.24Q17.208 11.792 16.512 12.416Q16.296 12.632 16.02 12.608Q15.744 12.584 15.552 12.392Q15.36 12.2 15.336 11.948Q15.312 11.696 15.528 11.408Q15.936 10.976 16.44 10.52Q16.944 10.064 17.496 9.692Q18.048 9.32 18.624 9.08Q19.2 8.84 19.776 8.816Q20.616 8.792 21.072 9.188Q21.528 9.584 21.624 10.208ZM78.936 10.304Q79.032 10.424 79.044 10.604Q79.056 10.784 78.984 10.904Q78.864 11.168 78.576 11.096Q78.072 10.976 77.52 11Q76.968 11.024 76.416 11.432Q75.864 11.84 75.552 12.62Q75.24 13.4 75.24 14.24Q75.24 15.056 75.636 15.644Q76.032 16.232 76.656 16.496Q77.04 16.664 77.52 16.688Q78 16.712 78.492 16.652Q78.984 16.592 79.464 16.46Q79.944 16.328 80.376 16.16Q80.52 16.112 80.652 16.184Q80.784 16.256 80.832 16.376Q80.952 16.688 80.712 17Q80.424 17.312 79.944 17.552Q79.464 17.792 78.888 17.936Q78.312 18.08 77.712 18.092Q77.112 18.104 76.584 17.96Q75.84 17.768 75.324 17.396Q74.808 17.024 74.472 16.532Q74.136 16.04 73.968 15.476Q73.8 14.912 73.776 14.312Q73.728 12.872 74.34 11.72Q74.952 10.568 76.056 10.016Q76.872 9.608 77.7 9.692Q78.528 9.776 78.936 10.304ZM50.184 11.168Q50.256 11.528 50.34 11.972Q50.424 12.416 50.52 12.884Q50.616 13.352 50.688 13.832Q50.76 14.312 50.808 14.744Q51.096 14.12 51.432 13.424Q51.768 12.728 52.164 12.14Q52.56 11.552 53.004 11.168Q53.448 10.784 53.976 10.784Q54.768 10.784 55.308 11.36Q55.848 11.936 56.22 12.788Q56.592 13.64 56.808 14.576Q57.024 15.512 57.168 16.232Q57.312 16.88 56.592 17.192Q56.256 17.36 56.088 17.24Q55.92 17.12 55.896 17Q55.776 16.712 55.596 15.992Q55.416 15.272 55.188 14.528Q54.96 13.784 54.672 13.232Q54.384 12.68 54.024 12.728Q53.592 12.752 53.256 13.376Q52.968 13.88 52.668 14.492Q52.368 15.104 52.08 15.74Q51.792 16.376 51.516 17.012Q51.24 17.648 51 18.176Q50.832 18.344 50.58 18.404Q50.328 18.464 50.064 18.368Q49.824 18.296 49.68 18.128Q49.536 17.96 49.536 17.792Q49.32 15.92 49.092 14.384Q48.864 12.848 48.504 11.24Q48.336 10.688 48.444 10.364Q48.552 10.04 49.152 10.112Q49.992 10.256 50.184 11.168ZM88.956 11.504Q88.464 10.976 87.744 10.712Q87.288 10.52 86.976 10.808Q86.544 10.568 86.04 10.436Q85.536 10.304 85.2 10.304Q84.6 10.304 84.132 10.616Q83.664 10.928 83.304 11.42Q82.944 11.912 82.716 12.548Q82.488 13.184 82.392 13.856Q82.248 14.768 82.356 15.68Q82.464 16.592 82.848 17.312Q83.232 18.032 83.904 18.488Q84.576 18.944 85.56 18.944Q86.376 18.944 87.048 18.632Q87.72 18.32 88.248 17.816Q88.776 17.312 89.184 16.664Q89.592 16.016 89.856 15.344Q90.048 14.744 90.012 14.048Q89.976 13.352 89.712 12.692Q89.448 12.032 88.956 11.504ZM62.616 14.3Q63.696 14 64.632 13.448Q65.04 13.184 65.124 12.848Q65.208 12.512 65.016 12.056Q64.68 11.24 63.84 10.784Q63 10.328 61.968 10.4Q61.104 10.448 60.456 10.784Q59.808 11.12 59.376 11.636Q58.944 12.152 58.74 12.824Q58.536 13.496 58.608 14.24Q58.68 15.032 58.968 15.776Q59.256 16.52 59.808 17.072Q60.456 17.696 61.272 17.912Q62.088 18.128 62.856 17.984Q63.744 17.84 64.464 17.3Q65.184 16.76 65.568 15.992Q65.664 15.392 65.328 15.272Q65.208 15.224 64.968 15.284Q64.728 15.344 64.512 15.536Q64.296 15.728 64.008 15.92Q63.72 16.112 63.372 16.268Q63.024 16.424 62.628 16.496Q62.232 16.568 61.848 16.52Q61.2 16.424 60.768 15.932Q60.336 15.44 60.288 14.6Q61.536 14.6 62.616 14.3ZM104.28 14.3Q105.36 14 106.296 13.448Q106.704 13.184 106.788 12.848Q106.872 12.512 106.68 12.056Q106.344 11.24 105.504 10.784Q104.664 10.328 103.632 10.4Q102.768 10.448 102.12 10.784Q101.472 11.12 101.04 11.636Q100.608 12.152 100.404 12.824Q100.2 13.496 100.272 14.24Q100.344 15.032 100.632 15.776Q100.92 16.52 101.472 17.072Q102.12 17.696 102.936 17.912Q103.752 18.128 104.52 17.984Q105.408 17.84 106.128 17.3Q106.848 16.76 107.232 15.992Q107.328 15.392 106.992 15.272Q106.872 15.224 106.632 15.284Q106.392 15.344 106.176 15.536Q105.96 15.728 105.672 15.92Q105.384 16.112 105.036 16.268Q104.688 16.424 104.292 16.496Q103.896 16.568 103.512 16.52Q102.864 16.424 102.432 15.932Q102 15.44 101.952 14.6Q103.2 14.6 104.28 14.3ZM29.352 12.98Q29.592 13.016 29.76 12.92Q29.976 12.8 30.024 12.596Q30.072 12.392 30.024 12.2Q29.76 11.336 28.944 11.012Q28.128 10.688 27.24 10.832Q26.688 10.928 26.232 11.204Q25.776 11.48 25.404 11.864Q25.032 12.248 24.768 12.716Q24.504 13.184 24.36 13.64Q24 14.864 24.192 16.016Q24.384 17.168 25.296 17.792Q25.872 18.152 26.532 18.248Q27.192 18.344 27.864 18.236Q28.536 18.128 29.196 17.876Q29.856 17.624 30.456 17.288Q31.056 16.976 31.416 16.58Q31.776 16.184 31.536 15.8Q31.344 15.488 31.056 15.512Q30.768 15.536 30.432 15.68Q29.664 16.16 28.788 16.46Q27.912 16.76 27.216 16.736Q26.352 16.736 25.944 16.16Q25.536 15.584 25.656 14.744Q25.728 14.288 25.92 13.832Q26.112 13.376 26.412 13.004Q26.712 12.632 27.108 12.404Q27.504 12.176 28.008 12.176Q28.56 12.176 28.944 12.68Q29.112 12.944 29.352 12.98ZM86.22 12.02Q86.568 12.296 86.832 12.464Q86.928 12.512 87.096 12.512Q87.264 12.512 87.432 12.392Q88.128 12.728 88.356 13.484Q88.584 14.24 88.344 14.936Q88.128 15.56 87.732 16.04Q87.336 16.52 86.892 16.808Q86.448 17.096 85.992 17.204Q85.536 17.312 85.2 17.216Q84.648 17.048 84.372 16.652Q84.096 16.256 84 15.764Q83.904 15.272 83.928 14.768Q83.952 14.264 84.024 13.904Q84.072 13.688 84.216 13.328Q84.36 12.968 84.564 12.62Q84.768 12.272 85.044 12.008Q85.32 11.744 85.608 11.744Q85.872 11.744 86.22 12.02ZM61.356 11.984Q61.632 11.864 61.872 11.816Q62.4 11.72 62.916 11.828Q63.432 11.936 63.624 12.392Q63.36 12.56 62.964 12.704Q62.568 12.848 62.1 12.956Q61.632 13.064 61.14 13.136Q60.648 13.208 60.24 13.208Q60.264 12.92 60.444 12.692Q60.624 12.464 60.852 12.284Q61.08 12.104 61.356 11.984ZM103.02 11.984Q103.296 11.864 103.536 11.816Q104.064 11.72 104.58 11.828Q105.096 11.936 105.288 12.392Q105.024 12.56 104.628 12.704Q104.232 12.848 103.764 12.956Q103.296 13.064 102.804 13.136Q102.312 13.208 101.904 13.208Q101.928 12.92 102.108 12.692Q102.288 12.464 102.516 12.284Q102.744 12.104 103.02 11.984ZM46.5 18.116Q46.488 17.672 46.32 17.288Q46.176 16.976 46.08 16.484Q45.984 15.992 45.912 15.464Q45.84 14.936 45.816 14.408Q45.792 13.88 45.792 13.448Q45.816 12.896 45.552 12.524Q45.288 12.152 44.856 12.128Q44.592 12.176 44.424 12.464Q44.256 12.752 44.232 13.088Q44.232 13.4 44.244 14.024Q44.256 14.648 44.328 15.368Q44.4 16.088 44.544 16.82Q44.688 17.552 44.952 18.056Q45.144 18.464 45.528 18.704Q45.912 18.944 46.248 18.728Q46.512 18.56 46.5 18.116ZM93.552 15.488Q93.696 16.064 94.08 16.376Q94.464 16.688 94.992 16.796Q95.52 16.904 96.12 16.832Q96.72 16.76 97.296 16.568L97.512 16.496L96.84 12.272L96.36 12.392Q95.856 12.536 95.292 12.836Q94.728 13.136 94.296 13.544Q93.864 13.952 93.636 14.456Q93.408 14.96 93.552 15.488ZM18.84 15.368Q18.528 15.44 18.18 15.668Q17.832 15.896 17.556 16.22Q17.28 16.544 17.148 16.94Q17.016 17.336 17.136 17.72Q17.184 17.864 17.34 17.936Q17.496 18.008 17.688 17.96Q18.264 17.84 18.996 17.492Q19.728 17.144 20.16 16.736Q20.16 16.592 20.016 16.364Q19.872 16.136 19.68 15.908Q19.488 15.68 19.26 15.512Q19.032 15.344 18.84 15.368Z" />
  </g>
  <g id="Abstraction">
    <path d="M13.464 6.896Q13.488 7.28 13.5 7.832Q13.512 8.384 13.536 9.032Q13.56 9.68 13.608 10.34Q13.656 11 13.752 11.6Q14.112 11 14.58 10.688Q15.048 10.376 15.528 10.304Q16.272 10.208 16.824 10.472Q17.376 10.736 17.736 11.204Q18.096 11.672 18.264 12.236Q18.432 12.8 18.432 13.328Q18.432 14.456 17.844 15.416Q17.256 16.376 16.476 17.12Q15.696 17.864 14.94 18.368Q14.184 18.872 13.848 19.088Q13.368 19.28 12.912 19.184Q12.456 19.088 12.312 18.896Q12.192 18.608 12.24 18.404Q12.288 18.2 12.432 18.032Q12.576 17.864 12.78 17.732Q12.984 17.6 13.128 17.48Q12.552 14.84 12.24 12.14Q11.928 9.44 11.976 6.656Q11.976 6.176 12.18 6.104Q12.384 6.032 12.528 6.032Q12.864 6.08 13.128 6.296Q13.392 6.512 13.464 6.896ZM2.04 19.112Q1.92 19.52 1.728 19.844Q1.536 20.168 1.32 20.216Q0.864 20.336 0.624 20.072Q0.384 19.808 0.432 19.4Q0.624 17.96 1.056 16.364Q1.488 14.768 2.064 13.172Q2.64 11.576 3.324 10.076Q4.008 8.576 4.728 7.352Q4.848 7.16 5.004 7.124Q5.16 7.088 5.28 7.136Q5.4 7.04 5.568 6.968Q5.736 6.896 5.904 6.896Q5.976 6.896 6.06 6.92Q6.144 6.944 6.24 7.064Q6.336 7.184 6.468 7.412Q6.6 7.64 6.792 8.072Q7.128 9.296 7.572 10.592Q8.016 11.888 8.496 13.184Q8.568 13.16 8.628 13.148Q8.688 13.136 8.76 13.112Q9.024 13.088 9.36 13.136Q9.696 13.184 9.816 13.472Q9.96 13.832 9.768 14.096Q9.576 14.36 9.072 14.624Q9.384 15.392 9.696 16.124Q10.008 16.856 10.344 17.552Q10.368 17.672 10.416 17.924Q10.464 18.176 10.476 18.428Q10.488 18.68 10.44 18.896Q10.392 19.112 10.248 19.184Q10.08 19.256 9.9 19.16Q9.72 19.064 9.552 18.908Q9.384 18.752 9.252 18.572Q9.12 18.392 9.048 18.248Q8.64 17.456 8.268 16.652Q7.896 15.848 7.56 15.032Q6.552 15.224 5.364 15.368Q4.176 15.512 3.024 15.56Q2.76 16.472 2.508 17.348Q2.256 18.224 2.04 19.112ZM33.696 12.656Q34.152 12.632 34.608 12.872Q35.064 13.112 35.064 13.616Q35.016 14.024 34.62 14.132Q34.224 14.24 33.984 14.24Q33.504 14.24 32.952 14.264Q32.4 14.288 31.824 14.336Q31.776 15.128 31.74 15.824Q31.704 16.52 31.68 17.06Q31.656 17.6 31.656 17.936Q31.656 18.272 31.68 18.296Q32.208 18.2 32.82 17.972Q33.432 17.744 34.044 17.468Q34.656 17.192 35.244 16.892Q35.832 16.592 36.36 16.328Q36.6 16.208 36.804 16.256Q37.008 16.304 37.056 16.472Q37.104 16.736 36.984 17.12Q36.864 17.504 36.552 17.816Q36.192 18.104 35.604 18.476Q35.016 18.848 34.344 19.184Q33.672 19.52 32.988 19.772Q32.304 20.024 31.776 20.072Q30.984 20.144 30.576 19.64Q30.168 19.136 30.12 18.368Q30.072 17.6 30.108 16.592Q30.144 15.584 30.192 14.456Q29.736 14.504 29.316 14.54Q28.896 14.576 28.512 14.624Q28.2 14.624 27.828 14.48Q27.456 14.336 27.456 13.928Q27.456 13.784 27.576 13.544Q27.696 13.304 28.104 13.184Q29.088 13.016 30.288 12.896Q30.36 11.768 30.456 10.712Q30.552 9.656 30.624 8.792Q30.648 8.504 30.792 8.288Q30.936 8.072 31.104 8.072Q31.512 8.048 31.884 8.276Q32.256 8.504 32.256 8.792Q32.16 9.608 32.076 10.64Q31.992 11.672 31.92 12.752Q32.4 12.704 32.844 12.692Q33.288 12.68 33.696 12.656ZM69.408 12.656Q69.864 12.632 70.32 12.872Q70.776 13.112 70.776 13.616Q70.728 14.024 70.332 14.132Q69.936 14.24 69.696 14.24Q69.216 14.24 68.664 14.264Q68.112 14.288 67.536 14.336Q67.488 15.128 67.452 15.824Q67.416 16.52 67.392 17.06Q67.368 17.6 67.368 17.936Q67.368 18.272 67.392 18.296Q67.92 18.2 68.532 17.972Q69.144 17.744 69.756 17.468Q70.368 17.192 70.956 16.892Q71.544 16.592 72.072 16.328Q72.312 16.208 72.516 16.256Q72.72 16.304 72.768 16.472Q72.816 16.736 72.696 17.12Q72.576 17.504 72.264 17.816Q71.904 18.104 71.316 18.476Q70.728 18.848 70.056 19.184Q69.384 19.52 68.7 19.772Q68.016 20.024 67.488 20.072Q66.696 20.144 66.288 19.64Q65.88 19.136 65.832 18.368Q65.784 17.6 65.82 16.592Q65.856 15.584 65.904 14.456Q65.448 14.504 65.028 14.54Q64.608 14.576 64.224 14.624Q63.912 14.624 63.54 14.48Q63.168 14.336 63.168 13.928Q63.168 13.784 63.288 13.544Q63.408 13.304 63.816 13.184Q64.8 13.016 66 12.896Q66.072 11.768 66.168 10.712Q66.264 9.656 66.336 8.792Q66.36 8.504 66.504 8.288Q66.648 8.072 66.816 8.072Q67.224 8.048 67.596 8.276Q67.968 8.504 67.968 8.792Q67.872 9.608 67.788 10.64Q67.704 11.672 67.632 12.752Q68.112 12.704 68.556 12.692Q69 12.68 69.408 12.656ZM77.448 9.56Q77.736 9.536 77.784 9.296Q77.832 8.96 77.604 8.72Q77.376 8.48 76.992 8.36Q76.728 8.288 76.32 8.276Q75.912 8.264 75.468 8.312Q75.024 8.36 74.592 8.468Q74.16 8.576 73.848 8.72Q73.656 8.816 73.512 8.936Q73.368 9.056 73.368 9.248Q73.44 9.752 73.776 9.92Q74.112 10.088 74.4 9.992Q75.096 9.8 75.732 9.704Q76.368 9.608 76.968 9.584Q77.16 9.584 77.448 9.56ZM52.656 10.208Q52.752 10.88 52.812 11.636Q52.872 12.392 52.908 13.16Q52.944 13.928 52.944 14.648Q52.944 15.368 52.92 15.944Q53.688 16.472 53.844 16.88Q54 17.288 53.88 17.6Q53.736 18.032 53.364 18.044Q52.992 18.056 52.512 17.792Q52.176 18.032 51.744 18.308Q51.312 18.584 50.832 18.836Q50.352 19.088 49.872 19.28Q49.392 19.472 48.984 19.544Q48.216 19.664 47.604 19.256Q46.992 18.848 46.776 18.032Q46.632 17.48 46.704 16.892Q46.776 16.304 47.064 15.764Q47.352 15.224 47.844 14.792Q48.336 14.36 49.008 14.12Q49.176 14.048 49.476 14Q49.776 13.952 50.1 13.964Q50.424 13.976 50.76 14.096Q51.096 14.216 51.384 14.504Q51.384 14.096 51.372 13.604Q51.36 13.112 51.336 12.608Q51.312 12.104 51.276 11.66Q51.24 11.216 51.192 10.904Q51.144 10.544 50.916 10.46Q50.688 10.376 50.352 10.496Q49.776 10.688 49.008 11.24Q48.24 11.792 47.544 12.416Q47.328 12.632 47.052 12.608Q46.776 12.584 46.584 12.392Q46.392 12.2 46.368 11.948Q46.344 11.696 46.56 11.408Q46.968 10.976 47.472 10.52Q47.976 10.064 48.528 9.692Q49.08 9.32 49.656 9.08Q50.232 8.84 50.808 8.816Q51.648 8.792 52.104 9.188Q52.56 9.584 52.656 10.208ZM5.448 9.032Q4.344 11.504 3.528 13.976Q5.136 13.928 6.96 13.568Q6.096 11.384 5.448 9.032ZM24.504 11.408Q24.552 11.648 24.6 11.912Q24.624 12.128 24.828 12.26Q25.032 12.392 25.368 12.344Q25.632 12.296 25.74 12.08Q25.848 11.864 25.848 11.528Q25.728 10.52 25.056 10.004Q24.384 9.488 23.352 9.44Q22.752 9.44 22.152 9.704Q21.552 9.968 21.084 10.412Q20.616 10.856 20.328 11.432Q20.04 12.008 20.064 12.632Q20.16 13.328 20.52 13.796Q20.88 14.264 21.384 14.6Q21.888 14.936 22.596 15.344Q23.304 15.752 23.916 16.184Q24.528 16.616 24.9 17.012Q25.272 17.408 25.104 17.696Q24.912 18.032 24.432 18.248Q23.952 18.464 23.352 18.596Q22.752 18.728 22.092 18.788Q21.432 18.848 20.856 18.848Q20.448 18.848 20.064 19.016Q19.68 19.184 19.68 19.616Q19.68 19.736 19.812 19.892Q19.944 20.048 20.124 20.192Q20.304 20.336 20.508 20.444Q20.712 20.552 20.856 20.552Q21.456 20.552 22.32 20.468Q23.184 20.384 24.048 20.156Q24.912 19.928 25.632 19.52Q26.352 19.112 26.616 18.464Q26.952 17.624 26.724 16.964Q26.496 16.304 25.872 15.752Q25.248 15.2 24.336 14.672Q23.424 14.144 22.584 13.64Q22.08 13.304 21.816 12.968Q21.552 12.632 21.624 12.272Q21.648 12.08 21.912 11.828Q22.176 11.576 22.56 11.372Q22.944 11.168 23.4 11.072Q23.856 10.976 24.264 11.096Q24.456 11.168 24.504 11.408ZM44.316 11.312Q44.784 11.048 45.216 10.808Q45.528 10.592 45.588 10.328Q45.648 10.064 45.552 9.944Q45.456 9.824 45.216 9.776Q44.976 9.728 44.616 9.776Q43.776 9.92 42.972 10.352Q42.168 10.784 41.532 11.408Q40.896 12.032 40.464 12.8Q40.032 13.568 39.936 14.384Q39.792 13.688 39.648 12.716Q39.504 11.744 39.408 10.856Q39.36 10.592 39.096 10.472Q38.832 10.352 38.544 10.328Q38.28 10.304 38.076 10.4Q37.872 10.496 37.872 10.832Q38.064 12.488 38.328 14.156Q38.592 15.824 39 17.528Q39.096 17.96 39.372 18.428Q39.648 18.896 40.104 18.896Q40.464 18.896 40.668 18.452Q40.872 18.008 40.872 17.576Q40.92 16.664 41.088 15.716Q41.256 14.768 41.736 13.856Q42.072 13.208 42.492 12.74Q42.912 12.272 43.38 11.924Q43.848 11.576 44.316 11.312ZM90.948 11.972Q90.864 11.528 90.792 11.168Q90.6 10.256 89.76 10.112Q89.16 10.04 89.052 10.364Q88.944 10.688 89.112 11.24Q89.472 12.848 89.7 14.384Q89.928 15.92 90.144 17.792Q90.144 17.96 90.288 18.128Q90.432 18.296 90.672 18.368Q90.936 18.464 91.188 18.404Q91.44 18.344 91.608 18.176Q91.848 17.648 92.124 17.012Q92.4 16.376 92.688 15.74Q92.976 15.104 93.276 14.492Q93.576 13.88 93.864 13.376Q94.2 12.752 94.632 12.728Q94.992 12.68 95.28 13.232Q95.568 13.784 95.796 14.528Q96.024 15.272 96.204 15.992Q96.384 16.712 96.504 17Q96.528 17.12 96.696 17.24Q96.864 17.36 97.2 17.192Q97.92 16.88 97.776 16.232Q97.632 15.512 97.416 14.576Q97.2 13.64 96.828 12.788Q96.456 11.936 95.916 11.36Q95.376 10.784 94.584 10.784Q94.056 10.784 93.612 11.168Q93.168 11.552 92.772 12.14Q92.376 12.728 92.04 13.424Q91.704 14.12 91.416 14.744Q91.368 14.312 91.296 13.832Q91.224 13.352 91.128 12.884Q91.032 12.416 90.948 11.972ZM85.08 10.712Q85.8 10.976 86.292 11.504Q86.784 12.032 87.048 12.692Q87.312 13.352 87.348 14.048Q87.384 14.744 87.192 15.344Q86.928 16.016 86.52 16.664Q86.112 17.312 85.584 17.816Q85.056 18.32 84.384 18.632Q83.712 18.944 82.896 18.944Q81.912 18.944 81.24 18.488Q80.568 18.032 80.184 17.312Q79.8 16.592 79.692 15.68Q79.584 14.768 79.728 13.856Q79.824 13.184 80.052 12.548Q80.28 11.912 80.64 11.42Q81 10.928 81.468 10.616Q81.936 10.304 82.536 10.304Q82.872 10.304 83.376 10.436Q83.88 10.568 84.312 10.808Q84.624 10.52 85.08 10.712ZM60.384 12.98Q60.624 13.016 60.792 12.92Q61.008 12.8 61.056 12.596Q61.104 12.392 61.056 12.2Q60.792 11.336 59.976 11.012Q59.16 10.688 58.272 10.832Q57.72 10.928 57.264 11.204Q56.808 11.48 56.436 11.864Q56.064 12.248 55.8 12.716Q55.536 13.184 55.392 13.64Q55.032 14.864 55.224 16.016Q55.416 17.168 56.328 17.792Q56.904 18.152 57.564 18.248Q58.224 18.344 58.896 18.236Q59.568 18.128 60.228 17.876Q60.888 17.624 61.488 17.288Q62.088 16.976 62.448 16.58Q62.808 16.184 62.568 15.8Q62.376 15.488 62.088 15.512Q61.8 15.536 61.464 15.68Q60.696 16.16 59.82 16.46Q58.944 16.76 58.248 16.736Q57.384 16.736 56.976 16.16Q56.568 15.584 56.688 14.744Q56.76 14.288 56.952 13.832Q57.144 13.376 57.444 13.004Q57.744 12.632 58.14 12.404Q58.536 12.176 59.04 12.176Q59.592 12.176 59.976 12.68Q60.144 12.944 60.384 12.98ZM84.168 12.464Q83.904 12.296 83.556 12.02Q83.208 11.744 82.944 11.744Q82.656 11.744 82.38 12.008Q82.104 12.272 81.9 12.62Q81.696 12.968 81.552 13.328Q81.408 13.688 81.36 13.904Q81.288 14.264 81.264 14.768Q81.24 15.272 81.336 15.764Q81.432 16.256 81.708 16.652Q81.984 17.048 82.536 17.216Q82.872 17.312 83.328 17.204Q83.784 17.096 84.228 16.808Q84.672 16.52 85.068 16.04Q85.464 15.56 85.68 14.936Q85.92 14.24 85.692 13.484Q85.464 12.728 84.768 12.392Q84.6 12.512 84.432 12.512Q84.264 12.512 84.168 12.464ZM16.968 13.256Q16.968 12.44 16.56 12.116Q16.152 11.792 15.72 11.84Q15.36 11.888 15.072 12.104Q14.784 12.32 14.568 12.632Q14.352 12.944 14.244 13.328Q14.136 13.712 14.16 14.072Q14.208 14.672 14.292 15.368Q14.376 16.064 14.496 16.616Q14.88 16.352 15.312 16.004Q15.744 15.656 16.116 15.224Q16.488 14.792 16.728 14.3Q16.968 13.808 16.968 13.256ZM77.412 18.116Q77.4 17.672 77.232 17.288Q77.088 16.976 76.992 16.484Q76.896 15.992 76.824 15.464Q76.752 14.936 76.728 14.408Q76.704 13.88 76.704 13.448Q76.728 12.896 76.464 12.524Q76.2 12.152 75.768 12.128Q75.504 12.176 75.336 12.464Q75.168 12.752 75.144 13.088Q75.144 13.4 75.156 14.024Q75.168 14.648 75.24 15.368Q75.312 16.088 75.456 16.82Q75.6 17.552 75.864 18.056Q76.056 18.464 76.44 18.704Q76.824 18.944 77.16 18.728Q77.424 18.56 77.412 18.116ZM49.872 15.368Q49.56 15.44 49.212 15.668Q48.864 15.896 48.588 16.22Q48.312 16.544 48.18 16.94Q48.048 17.336 48.168 17.72Q48.216 17.864 48.372 17.936Q48.528 18.008 48.72 17.96Q49.296 17.84 50.028 17.492Q50.76 17.144 51.192 16.736Q51.192 16.592 51.048 16.364Q50.904 16.136 50.712 15.908Q50.52 15.68 50.292 15.512Q50.064 15.344 49.872 15.368Z" />
  </g>
  <g id="Programming-Languages" transform="translate(116 111)">
    <path d="M4.788 19.628Q4.92 19.4 4.944 19.136Q4.968 18.272 4.956 17.264Q4.944 16.256 4.896 15.2Q5.688 14.648 6.576 13.988Q7.464 13.328 8.112 12.536Q8.76 11.744 9.012 10.784Q9.264 9.824 8.808 8.624Q8.304 7.616 7.368 7.16Q6.432 6.704 5.364 6.644Q4.296 6.584 3.24 6.824Q2.184 7.064 1.464 7.424Q0.912 7.736 0.42 8.18Q-0.072 8.624 -0.12 9.176Q-0.12 9.32 -0.024 9.464Q0.072 9.608 0.264 9.68Q0.456 9.752 0.72 9.704Q0.984 9.656 1.296 9.416Q2.376 8.72 3.552 8.42Q4.728 8.12 6.216 8.456Q6.864 8.624 7.176 8.96Q7.488 9.296 7.536 9.704Q7.608 10.232 7.392 10.724Q7.176 11.216 6.78 11.672Q6.384 12.128 5.856 12.512Q5.328 12.896 4.752 13.208Q4.704 12.584 4.632 12.008Q4.56 11.432 4.488 10.952Q4.416 10.736 4.272 10.496Q4.128 10.256 3.936 10.064Q3.744 9.872 3.54 9.776Q3.336 9.68 3.168 9.752Q3 9.872 2.928 10.004Q2.856 10.136 2.808 10.232Q2.76 10.352 2.76 10.448Q3.096 12.608 3.252 14.78Q3.408 16.952 3.384 19.04Q3.384 19.232 3.684 19.52Q3.984 19.808 4.392 19.832Q4.656 19.856 4.788 19.628ZM88.248 9.296Q88.2 9.536 87.912 9.56Q87.624 9.584 87.432 9.584Q86.832 9.608 86.196 9.704Q85.56 9.8 84.864 9.992Q84.576 10.088 84.24 9.92Q83.904 9.752 83.832 9.248Q83.832 9.056 83.976 8.936Q84.12 8.816 84.312 8.72Q84.624 8.576 85.056 8.468Q85.488 8.36 85.932 8.312Q86.376 8.264 86.784 8.276Q87.192 8.288 87.456 8.36Q87.84 8.48 88.068 8.72Q88.296 8.96 88.248 9.296ZM117.12 11.3Q117.216 10.28 117.336 9.44Q117.36 9.032 117.252 8.684Q117.144 8.336 116.592 8.408Q116.256 8.456 116.028 8.72Q115.8 8.984 115.752 9.392Q115.512 11.336 115.344 13.292Q115.176 15.248 115.056 17.192Q114.984 18.224 115.368 18.68Q115.752 19.136 116.496 18.944Q117.312 18.728 118.248 18.512L120.12 18.08Q121.056 17.864 121.944 17.648Q122.832 17.432 123.576 17.24Q123.72 17.096 123.9 17.024Q124.08 16.952 124.248 16.868Q124.416 16.784 124.536 16.628Q124.656 16.472 124.656 16.16Q124.656 15.944 124.464 15.848Q124.368 15.8 124.296 15.8Q123.48 15.872 122.484 16.028Q121.488 16.184 120.456 16.388Q119.424 16.592 118.428 16.784Q117.432 16.976 116.616 17.12Q116.664 16.376 116.748 15.392Q116.832 14.408 116.928 13.364Q117.024 12.32 117.12 11.3ZM51.948 11.636Q51.888 10.88 51.792 10.208Q51.696 9.584 51.24 9.188Q50.784 8.792 49.944 8.816Q49.368 8.84 48.792 9.08Q48.216 9.32 47.664 9.692Q47.112 10.064 46.608 10.52Q46.104 10.976 45.696 11.408Q45.48 11.696 45.504 11.948Q45.528 12.2 45.72 12.392Q45.912 12.584 46.188 12.608Q46.464 12.632 46.68 12.416Q47.376 11.792 48.144 11.24Q48.912 10.688 49.488 10.496Q49.824 10.376 50.052 10.46Q50.28 10.544 50.328 10.904Q50.376 11.216 50.412 11.66Q50.448 12.104 50.472 12.608Q50.496 13.112 50.508 13.604Q50.52 14.096 50.52 14.504Q50.232 14.216 49.896 14.096Q49.56 13.976 49.236 13.964Q48.912 13.952 48.612 14Q48.312 14.048 48.144 14.12Q47.472 14.36 46.98 14.792Q46.488 15.224 46.2 15.764Q45.912 16.304 45.84 16.892Q45.768 17.48 45.912 18.032Q46.128 18.848 46.74 19.256Q47.352 19.664 48.12 19.544Q48.528 19.472 49.008 19.28Q49.488 19.088 49.968 18.836Q50.448 18.584 50.88 18.308Q51.312 18.032 51.648 17.792Q52.128 18.056 52.5 18.044Q52.872 18.032 53.016 17.6Q53.136 17.288 52.98 16.88Q52.824 16.472 52.056 15.944Q52.08 15.368 52.08 14.648Q52.08 13.928 52.044 13.16Q52.008 12.392 51.948 11.636ZM131.568 10.208Q131.664 10.88 131.724 11.636Q131.784 12.392 131.82 13.16Q131.856 13.928 131.856 14.648Q131.856 15.368 131.832 15.944Q132.6 16.472 132.756 16.88Q132.912 17.288 132.792 17.6Q132.648 18.032 132.276 18.044Q131.904 18.056 131.424 17.792Q131.088 18.032 130.656 18.308Q130.224 18.584 129.744 18.836Q129.264 19.088 128.784 19.28Q128.304 19.472 127.896 19.544Q127.128 19.664 126.516 19.256Q125.904 18.848 125.688 18.032Q125.544 17.48 125.616 16.892Q125.688 16.304 125.976 15.764Q126.264 15.224 126.756 14.792Q127.248 14.36 127.92 14.12Q128.088 14.048 128.388 14Q128.688 13.952 129.012 13.964Q129.336 13.976 129.672 14.096Q130.008 14.216 130.296 14.504Q130.296 14.096 130.284 13.604Q130.272 13.112 130.248 12.608Q130.224 12.104 130.188 11.66Q130.152 11.216 130.104 10.904Q130.056 10.544 129.828 10.46Q129.6 10.376 129.264 10.496Q128.688 10.688 127.92 11.24Q127.152 11.792 126.456 12.416Q126.24 12.632 125.964 12.608Q125.688 12.584 125.496 12.392Q125.304 12.2 125.28 11.948Q125.256 11.696 125.472 11.408Q125.88 10.976 126.384 10.52Q126.888 10.064 127.44 9.692Q127.992 9.32 128.568 9.08Q129.144 8.84 129.72 8.816Q130.56 8.792 131.016 9.188Q131.472 9.584 131.568 10.208ZM168.336 10.208Q168.432 10.88 168.492 11.636Q168.552 12.392 168.588 13.16Q168.624 13.928 168.624 14.648Q168.624 15.368 168.6 15.944Q169.368 16.472 169.524 16.88Q169.68 17.288 169.56 17.6Q169.416 18.032 169.044 18.044Q168.672 18.056 168.192 17.792Q167.856 18.032 167.424 18.308Q166.992 18.584 166.512 18.836Q166.032 19.088 165.552 19.28Q165.072 19.472 164.664 19.544Q163.896 19.664 163.284 19.256Q162.672 18.848 162.456 18.032Q162.312 17.48 162.384 16.892Q162.456 16.304 162.744 15.764Q163.032 15.224 163.524 14.792Q164.016 14.36 164.688 14.12Q164.856 14.048 165.156 14Q165.456 13.952 165.78 13.964Q166.104 13.976 166.44 14.096Q166.776 14.216 167.064 14.504Q167.064 14.096 167.052 13.604Q167.04 13.112 167.016 12.608Q166.992 12.104 166.956 11.66Q166.92 11.216 166.872 10.904Q166.824 10.544 166.596 10.46Q166.368 10.376 166.032 10.496Q165.456 10.688 164.688 11.24Q163.92 11.792 163.224 12.416Q163.008 12.632 162.732 12.608Q162.456 12.584 162.264 12.392Q162.072 12.2 162.048 11.948Q162.024 11.696 162.24 11.408Q162.648 10.976 163.152 10.52Q163.656 10.064 164.208 9.692Q164.76 9.32 165.336 9.08Q165.912 8.84 166.488 8.816Q167.328 8.792 167.784 9.188Q168.24 9.584 168.336 10.208ZM191.904 11.408Q191.952 11.648 192 11.912Q192.024 12.128 192.228 12.26Q192.432 12.392 192.768 12.344Q193.032 12.296 193.14 12.08Q193.248 11.864 193.248 11.528Q193.128 10.52 192.456 10.004Q191.784 9.488 190.752 9.44Q190.152 9.44 189.552 9.704Q188.952 9.968 188.484 10.412Q188.016 10.856 187.728 11.432Q187.44 12.008 187.464 12.632Q187.56 13.328 187.92 13.796Q188.28 14.264 188.784 14.6Q189.288 14.936 189.996 15.344Q190.704 15.752 191.316 16.184Q191.928 16.616 192.3 17.012Q192.672 17.408 192.504 17.696Q192.312 18.032 191.832 18.248Q191.352 18.464 190.752 18.596Q190.152 18.728 189.492 18.788Q188.832 18.848 188.256 18.848Q187.848 18.848 187.464 19.016Q187.08 19.184 187.08 19.616Q187.08 19.736 187.212 19.892Q187.344 20.048 187.524 20.192Q187.704 20.336 187.908 20.444Q188.112 20.552 188.256 20.552Q188.856 20.552 189.72 20.468Q190.584 20.384 191.448 20.156Q192.312 19.928 193.032 19.52Q193.752 19.112 194.016 18.464Q194.352 17.624 194.124 16.964Q193.896 16.304 193.272 15.752Q192.648 15.2 191.736 14.672Q190.824 14.144 189.984 13.64Q189.48 13.304 189.216 12.968Q188.952 12.632 189.024 12.272Q189.048 12.08 189.312 11.828Q189.576 11.576 189.96 11.372Q190.344 11.168 190.8 11.072Q191.256 10.976 191.664 11.096Q191.856 11.168 191.904 11.408ZM17.004 11.312Q17.472 11.048 17.904 10.808Q18.216 10.592 18.276 10.328Q18.336 10.064 18.24 9.944Q18.144 9.824 17.904 9.776Q17.664 9.728 17.304 9.776Q16.464 9.92 15.66 10.352Q14.856 10.784 14.22 11.408Q13.584 12.032 13.152 12.8Q12.72 13.568 12.624 14.384Q12.48 13.688 12.336 12.716Q12.192 11.744 12.096 10.856Q12.048 10.592 11.784 10.472Q11.52 10.352 11.232 10.328Q10.968 10.304 10.764 10.4Q10.56 10.496 10.56 10.832Q10.752 12.488 11.016 14.156Q11.28 15.824 11.688 17.528Q11.784 17.96 12.06 18.428Q12.336 18.896 12.792 18.896Q13.152 18.896 13.356 18.452Q13.56 18.008 13.56 17.576Q13.608 16.664 13.776 15.716Q13.944 14.768 14.424 13.856Q14.76 13.208 15.18 12.74Q15.6 12.272 16.068 11.924Q16.536 11.576 17.004 11.312ZM44.352 10.808Q43.92 11.048 43.452 11.312Q42.984 11.576 42.516 11.924Q42.048 12.272 41.628 12.74Q41.208 13.208 40.872 13.856Q40.392 14.768 40.224 15.716Q40.056 16.664 40.008 17.576Q40.008 18.008 39.804 18.452Q39.6 18.896 39.24 18.896Q38.784 18.896 38.508 18.428Q38.232 17.96 38.136 17.528Q37.728 15.824 37.464 14.156Q37.2 12.488 37.008 10.832Q37.008 10.496 37.212 10.4Q37.416 10.304 37.68 10.328Q37.968 10.352 38.232 10.472Q38.496 10.592 38.544 10.856Q38.64 11.744 38.784 12.716Q38.928 13.688 39.072 14.384Q39.168 13.568 39.6 12.8Q40.032 12.032 40.668 11.408Q41.304 10.784 42.108 10.352Q42.912 9.92 43.752 9.776Q44.112 9.728 44.352 9.776Q44.592 9.824 44.688 9.944Q44.784 10.064 44.724 10.328Q44.664 10.592 44.352 10.808ZM91.716 11.972Q91.632 11.528 91.56 11.168Q91.368 10.256 90.528 10.112Q89.928 10.04 89.82 10.364Q89.712 10.688 89.88 11.24Q90.24 12.848 90.468 14.384Q90.696 15.92 90.912 17.792Q90.912 17.96 91.056 18.128Q91.2 18.296 91.44 18.368Q91.704 18.464 91.956 18.404Q92.208 18.344 92.376 18.176Q92.616 17.648 92.892 17.012Q93.168 16.376 93.456 15.74Q93.744 15.104 94.044 14.492Q94.344 13.88 94.632 13.376Q94.968 12.752 95.4 12.728Q95.76 12.68 96.048 13.232Q96.336 13.784 96.564 14.528Q96.792 15.272 96.972 15.992Q97.152 16.712 97.272 17Q97.296 17.12 97.464 17.24Q97.632 17.36 97.968 17.192Q98.688 16.88 98.544 16.232Q98.4 15.512 98.184 14.576Q97.968 13.64 97.596 12.788Q97.224 11.936 96.684 11.36Q96.144 10.784 95.352 10.784Q94.824 10.784 94.38 11.168Q93.936 11.552 93.54 12.14Q93.144 12.728 92.808 13.424Q92.472 14.12 92.184 14.744Q92.136 14.312 92.064 13.832Q91.992 13.352 91.896 12.884Q91.8 12.416 91.716 11.972ZM135.876 11.972Q135.792 11.528 135.72 11.168Q135.528 10.256 134.688 10.112Q134.088 10.04 133.98 10.364Q133.872 10.688 134.04 11.24Q134.4 12.848 134.628 14.384Q134.856 15.92 135.072 17.792Q135.072 17.96 135.216 18.128Q135.36 18.296 135.6 18.368Q135.864 18.464 136.116 18.404Q136.368 18.344 136.536 18.176Q136.776 17.648 137.052 17.012Q137.328 16.376 137.616 15.74Q137.904 15.104 138.204 14.492Q138.504 13.88 138.792 13.376Q139.128 12.752 139.56 12.728Q139.92 12.68 140.208 13.232Q140.496 13.784 140.724 14.528Q140.952 15.272 141.132 15.992Q141.312 16.712 141.432 17Q141.456 17.12 141.624 17.24Q141.792 17.36 142.128 17.192Q142.848 16.88 142.704 16.232Q142.56 15.512 142.344 14.576Q142.128 13.64 141.756 12.788Q141.384 11.936 140.844 11.36Q140.304 10.784 139.512 10.784Q138.984 10.784 138.54 11.168Q138.096 11.552 137.7 12.14Q137.304 12.728 136.968 13.424Q136.632 14.12 136.344 14.744Q136.296 14.312 136.224 13.832Q136.152 13.352 136.056 12.884Q135.96 12.416 135.876 11.972ZM24.864 10.712Q25.584 10.976 26.076 11.504Q26.568 12.032 26.832 12.692Q27.096 13.352 27.132 14.048Q27.168 14.744 26.976 15.344Q26.712 16.016 26.304 16.664Q25.896 17.312 25.368 17.816Q24.84 18.32 24.168 18.632Q23.496 18.944 22.68 18.944Q21.696 18.944 21.024 18.488Q20.352 18.032 19.968 17.312Q19.584 16.592 19.476 15.68Q19.368 14.768 19.512 13.856Q19.608 13.184 19.836 12.548Q20.064 11.912 20.424 11.42Q20.784 10.928 21.252 10.616Q21.72 10.304 22.32 10.304Q22.656 10.304 23.16 10.436Q23.664 10.568 24.096 10.808Q24.408 10.52 24.864 10.712ZM184.896 13.448Q183.96 14 182.88 14.3Q181.8 14.6 180.552 14.6Q180.6 15.44 181.032 15.932Q181.464 16.424 182.112 16.52Q182.496 16.568 182.892 16.496Q183.288 16.424 183.636 16.268Q183.984 16.112 184.272 15.92Q184.56 15.728 184.776 15.536Q184.992 15.344 185.232 15.284Q185.472 15.224 185.592 15.272Q185.928 15.392 185.832 15.992Q185.448 16.76 184.728 17.3Q184.008 17.84 183.12 17.984Q182.352 18.128 181.536 17.912Q180.72 17.696 180.072 17.072Q179.52 16.52 179.232 15.776Q178.944 15.032 178.872 14.24Q178.8 13.496 179.004 12.824Q179.208 12.152 179.64 11.636Q180.072 11.12 180.72 10.784Q181.368 10.448 182.232 10.4Q183.264 10.328 184.104 10.784Q184.944 11.24 185.28 12.056Q185.472 12.512 185.388 12.848Q185.304 13.184 184.896 13.448ZM55.848 11.336Q55.872 11.72 55.932 12.284Q55.992 12.848 56.064 13.46Q56.136 14.072 56.22 14.672Q56.304 15.272 56.376 15.776L57.024 14.48Q57.408 13.712 57.828 13.004Q58.248 12.296 58.692 11.804Q59.136 11.312 59.496 11.312Q59.88 11.312 60.204 11.684Q60.528 12.056 60.768 12.584Q61.008 13.112 61.188 13.712Q61.368 14.312 61.488 14.768Q61.584 14.456 61.74 14.06Q61.896 13.664 62.076 13.244Q62.256 12.824 62.484 12.416Q62.712 12.008 62.976 11.696Q63.288 11.36 63.648 11.204Q64.008 11.048 64.176 11.048Q64.392 11.048 64.692 11.18Q64.992 11.312 65.304 11.528Q65.616 11.744 65.892 12.044Q66.168 12.344 66.336 12.656Q66.672 13.304 66.876 14.072Q67.08 14.84 67.176 15.536Q67.272 16.232 67.308 16.772Q67.344 17.312 67.368 17.528Q67.368 17.84 67.296 17.996Q67.224 18.152 67.032 18.248Q66.768 18.368 66.576 18.332Q66.384 18.296 66.264 18.176Q66.144 18.056 66.072 17.9Q66 17.744 65.976 17.624Q65.904 17.072 65.82 16.496Q65.736 15.92 65.64 15.38Q65.544 14.84 65.412 14.372Q65.28 13.904 65.136 13.544Q65.088 13.448 64.98 13.292Q64.872 13.136 64.74 12.992Q64.608 12.848 64.488 12.752Q64.368 12.656 64.32 12.632Q64.08 12.632 63.816 13.076Q63.552 13.52 63.312 14.144Q63.072 14.768 62.868 15.452Q62.664 16.136 62.568 16.616Q62.568 17.24 62.328 17.54Q62.088 17.84 61.824 17.84Q61.56 17.84 61.26 17.636Q60.96 17.432 60.864 17.168Q60.72 16.784 60.552 16.304Q60.384 15.824 60.204 15.32Q60.024 14.816 59.844 14.336Q59.664 13.856 59.496 13.472Q59.16 13.928 58.836 14.48Q58.512 15.032 58.212 15.608Q57.912 16.184 57.636 16.748Q57.36 17.312 57.12 17.744Q56.952 18.008 56.76 18.212Q56.568 18.416 56.304 18.416Q56.112 18.416 55.896 18.236Q55.68 18.056 55.488 17.792Q55.296 17.528 55.14 17.192Q54.984 16.856 54.912 16.52Q54.72 15.488 54.588 14.252Q54.456 13.016 54.336 11.84Q54.312 11.432 54.444 11.084Q54.576 10.736 54.96 10.616Q55.368 10.544 55.584 10.736Q55.8 10.928 55.848 11.336ZM70.836 12.284Q70.776 11.72 70.752 11.336Q70.704 10.928 70.488 10.736Q70.272 10.544 69.864 10.616Q69.48 10.736 69.348 11.084Q69.216 11.432 69.24 11.84Q69.36 13.016 69.492 14.252Q69.624 15.488 69.816 16.52Q69.888 16.856 70.044 17.192Q70.2 17.528 70.392 17.792Q70.584 18.056 70.8 18.236Q71.016 18.416 71.208 18.416Q71.472 18.416 71.664 18.212Q71.856 18.008 72.024 17.744Q72.264 17.312 72.54 16.748Q72.816 16.184 73.116 15.608Q73.416 15.032 73.74 14.48Q74.064 13.928 74.4 13.472Q74.568 13.856 74.748 14.336Q74.928 14.816 75.108 15.32Q75.288 15.824 75.456 16.304Q75.624 16.784 75.768 17.168Q75.864 17.432 76.164 17.636Q76.464 17.84 76.728 17.84Q76.992 17.84 77.232 17.54Q77.472 17.24 77.472 16.616Q77.568 16.136 77.772 15.452Q77.976 14.768 78.216 14.144Q78.456 13.52 78.72 13.076Q78.984 12.632 79.224 12.632Q79.272 12.656 79.392 12.752Q79.512 12.848 79.644 12.992Q79.776 13.136 79.884 13.292Q79.992 13.448 80.04 13.544Q80.184 13.904 80.316 14.372Q80.448 14.84 80.544 15.38Q80.64 15.92 80.724 16.496Q80.808 17.072 80.88 17.624Q80.904 17.744 80.976 17.9Q81.048 18.056 81.168 18.176Q81.288 18.296 81.48 18.332Q81.672 18.368 81.936 18.248Q82.128 18.152 82.2 17.996Q82.272 17.84 82.272 17.528Q82.248 17.312 82.212 16.772Q82.176 16.232 82.08 15.536Q81.984 14.84 81.78 14.072Q81.576 13.304 81.24 12.656Q81.072 12.344 80.796 12.044Q80.52 11.744 80.208 11.528Q79.896 11.312 79.596 11.18Q79.296 11.048 79.08 11.048Q78.912 11.048 78.552 11.204Q78.192 11.36 77.88 11.696Q77.616 12.008 77.388 12.416Q77.16 12.824 76.98 13.244Q76.8 13.664 76.644 14.06Q76.488 14.456 76.392 14.768Q76.272 14.312 76.092 13.712Q75.912 13.112 75.672 12.584Q75.432 12.056 75.108 11.684Q74.784 11.312 74.4 11.312Q74.04 11.312 73.596 11.804Q73.152 12.296 72.732 13.004Q72.312 13.712 71.928 14.48L71.28 15.776Q71.208 15.272 71.124 14.672Q71.04 14.072 70.968 13.46Q70.896 12.848 70.836 12.284ZM154.272 13.412Q154.416 12.632 154.56 11.984Q154.656 11.6 154.356 11.24Q154.056 10.88 153.696 10.808Q153.504 10.76 153.36 10.916Q153.216 11.072 153.168 11.264Q153.048 11.72 152.892 12.44Q152.736 13.16 152.628 13.964Q152.52 14.768 152.508 15.584Q152.496 16.4 152.688 17.072Q153.192 18.752 154.152 18.872Q154.8 18.944 155.412 18.644Q156.024 18.344 156.588 17.804Q157.152 17.264 157.644 16.604Q158.136 15.944 158.496 15.296Q158.52 15.632 158.592 16.124Q158.664 16.616 158.748 17.156Q158.832 17.696 158.94 18.188Q159.048 18.68 159.168 19.016Q159.288 19.304 159.516 19.4Q159.744 19.496 159.96 19.448Q160.224 19.376 160.44 19.04Q160.656 18.704 160.584 18.44Q160.44 17.792 160.296 16.976Q160.152 16.16 160.02 15.296Q159.888 14.432 159.792 13.568Q159.696 12.704 159.648 11.984Q159.648 11.792 159.54 11.612Q159.432 11.432 159.3 11.3Q159.168 11.168 159.012 11.096Q158.856 11.024 158.736 11.048Q158.568 11.072 158.316 11.252Q158.064 11.432 158.064 11.624Q158.064 11.96 157.992 12.272Q157.92 12.584 157.824 12.872Q157.656 13.448 157.248 14.204Q156.84 14.96 156.336 15.608Q155.832 16.256 155.304 16.676Q154.776 17.096 154.368 17.024Q154.128 16.784 154.068 16.208Q154.008 15.632 154.068 14.912Q154.128 14.192 154.272 13.412ZM33.78 13.124Q33.6 12.728 33.408 12.464Q33.576 12.296 33.576 11.936Q33.576 11.576 33.312 11.384Q33.168 11.288 32.964 11.24Q32.76 11.192 32.544 11.18Q32.328 11.168 32.124 11.192Q31.92 11.216 31.8 11.24Q30.288 11.864 29.604 12.98Q28.92 14.096 28.872 15.536Q28.872 16.136 29.028 16.688Q29.184 17.24 29.448 17.66Q29.712 18.08 30.06 18.344Q30.408 18.608 30.816 18.632Q31.2 18.656 31.572 18.56Q31.944 18.464 32.256 18.296Q32.568 18.128 32.82 17.936Q33.072 17.744 33.24 17.576Q33.336 17.864 33.468 18.428Q33.6 18.992 33.684 19.616Q33.768 20.24 33.768 20.876Q33.768 21.512 33.6 21.944Q33.384 22.496 32.988 22.904Q32.592 23.312 32.112 23.6Q31.632 23.888 31.092 24.044Q30.552 24.2 30.048 24.248Q29.76 24.296 29.484 24.452Q29.208 24.608 29.232 24.872Q29.232 25.136 29.544 25.388Q29.856 25.64 30.144 25.664Q31.44 25.616 32.472 25.16Q33.504 24.704 34.2 23.936Q34.896 23.168 35.196 22.196Q35.496 21.224 35.352 20.168Q35.232 19.4 35.076 18.56Q34.92 17.72 34.74 16.904Q34.56 16.088 34.38 15.332Q34.2 14.576 34.056 13.928Q33.96 13.52 33.78 13.124ZM104.568 12.464Q104.76 12.728 104.94 13.124Q105.12 13.52 105.216 13.928Q105.36 14.576 105.54 15.332Q105.72 16.088 105.9 16.904Q106.08 17.72 106.236 18.56Q106.392 19.4 106.512 20.168Q106.656 21.224 106.356 22.196Q106.056 23.168 105.36 23.936Q104.664 24.704 103.632 25.16Q102.6 25.616 101.304 25.664Q101.016 25.64 100.704 25.388Q100.392 25.136 100.392 24.872Q100.368 24.608 100.644 24.452Q100.92 24.296 101.208 24.248Q101.712 24.2 102.252 24.044Q102.792 23.888 103.272 23.6Q103.752 23.312 104.148 22.904Q104.544 22.496 104.76 21.944Q104.928 21.512 104.928 20.876Q104.928 20.24 104.844 19.616Q104.76 18.992 104.628 18.428Q104.496 17.864 104.4 17.576Q104.232 17.744 103.98 17.936Q103.728 18.128 103.416 18.296Q103.104 18.464 102.732 18.56Q102.36 18.656 101.976 18.632Q101.568 18.608 101.22 18.344Q100.872 18.08 100.608 17.66Q100.344 17.24 100.188 16.688Q100.032 16.136 100.032 15.536Q100.08 14.096 100.764 12.98Q101.448 11.864 102.96 11.24Q103.08 11.216 103.284 11.192Q103.488 11.168 103.704 11.18Q103.92 11.192 104.124 11.24Q104.328 11.288 104.472 11.384Q104.736 11.576 104.736 11.936Q104.736 12.296 104.568 12.464ZM148.728 12.464Q148.92 12.728 149.1 13.124Q149.28 13.52 149.376 13.928Q149.52 14.576 149.7 15.332Q149.88 16.088 150.06 16.904Q150.24 17.72 150.396 18.56Q150.552 19.4 150.672 20.168Q150.816 21.224 150.516 22.196Q150.216 23.168 149.52 23.936Q148.824 24.704 147.792 25.16Q146.76 25.616 145.464 25.664Q145.176 25.64 144.864 25.388Q144.552 25.136 144.552 24.872Q144.528 24.608 144.804 24.452Q145.08 24.296 145.368 24.248Q145.872 24.2 146.412 24.044Q146.952 23.888 147.432 23.6Q147.912 23.312 148.308 22.904Q148.704 22.496 148.92 21.944Q149.088 21.512 149.088 20.876Q149.088 20.24 149.004 19.616Q148.92 18.992 148.788 18.428Q148.656 17.864 148.56 17.576Q148.392 17.744 148.14 17.936Q147.888 18.128 147.576 18.296Q147.264 18.464 146.892 18.56Q146.52 18.656 146.136 18.632Q145.728 18.608 145.38 18.344Q145.032 18.08 144.768 17.66Q144.504 17.24 144.348 16.688Q144.192 16.136 144.192 15.536Q144.24 14.096 144.924 12.98Q145.608 11.864 147.12 11.24Q147.24 11.216 147.444 11.192Q147.648 11.168 147.864 11.18Q148.08 11.192 148.284 11.24Q148.488 11.288 148.632 11.384Q148.896 11.576 148.896 11.936Q148.896 12.296 148.728 12.464ZM175.692 13.124Q175.512 12.728 175.32 12.464Q175.488 12.296 175.488 11.936Q175.488 11.576 175.224 11.384Q175.08 11.288 174.876 11.24Q174.672 11.192 174.456 11.18Q174.24 11.168 174.036 11.192Q173.832 11.216 173.712 11.24Q172.2 11.864 171.516 12.98Q170.832 14.096 170.784 15.536Q170.784 16.136 170.94 16.688Q171.096 17.24 171.36 17.66Q171.624 18.08 171.972 18.344Q172.32 18.608 172.728 18.632Q173.112 18.656 173.484 18.56Q173.856 18.464 174.168 18.296Q174.48 18.128 174.732 17.936Q174.984 17.744 175.152 17.576Q175.248 17.864 175.38 18.428Q175.512 18.992 175.596 19.616Q175.68 20.24 175.68 20.876Q175.68 21.512 175.512 21.944Q175.296 22.496 174.9 22.904Q174.504 23.312 174.024 23.6Q173.544 23.888 173.004 24.044Q172.464 24.2 171.96 24.248Q171.672 24.296 171.396 24.452Q171.12 24.608 171.144 24.872Q171.144 25.136 171.456 25.388Q171.768 25.64 172.056 25.664Q173.352 25.616 174.384 25.16Q175.416 24.704 176.112 23.936Q176.808 23.168 177.108 22.196Q177.408 21.224 177.264 20.168Q177.144 19.4 176.988 18.56Q176.832 17.72 176.652 16.904Q176.472 16.088 176.292 15.332Q176.112 14.576 175.968 13.928Q175.872 13.52 175.692 13.124ZM23.952 12.464Q23.688 12.296 23.34 12.02Q22.992 11.744 22.728 11.744Q22.44 11.744 22.164 12.008Q21.888 12.272 21.684 12.62Q21.48 12.968 21.336 13.328Q21.192 13.688 21.144 13.904Q21.072 14.264 21.048 14.768Q21.024 15.272 21.12 15.764Q21.216 16.256 21.492 16.652Q21.768 17.048 22.32 17.216Q22.656 17.312 23.112 17.204Q23.568 17.096 24.012 16.808Q24.456 16.52 24.852 16.04Q25.248 15.56 25.464 14.936Q25.704 14.24 25.476 13.484Q25.248 12.728 24.552 12.392Q24.384 12.512 24.216 12.512Q24.048 12.512 23.952 12.464ZM182.136 11.816Q181.896 11.864 181.62 11.984Q181.344 12.104 181.116 12.284Q180.888 12.464 180.708 12.692Q180.528 12.92 180.504 13.208Q180.912 13.208 181.404 13.136Q181.896 13.064 182.364 12.956Q182.832 12.848 183.228 12.704Q183.624 12.56 183.888 12.392Q183.696 11.936 183.18 11.828Q182.664 11.72 182.136 11.816ZM87.696 17.288Q87.864 17.672 87.876 18.116Q87.888 18.56 87.624 18.728Q87.288 18.944 86.904 18.704Q86.52 18.464 86.328 18.056Q86.064 17.552 85.92 16.82Q85.776 16.088 85.704 15.368Q85.632 14.648 85.62 14.024Q85.608 13.4 85.608 13.088Q85.632 12.752 85.8 12.464Q85.968 12.176 86.232 12.128Q86.664 12.152 86.928 12.524Q87.192 12.896 87.168 13.448Q87.168 13.88 87.192 14.408Q87.216 14.936 87.288 15.464Q87.36 15.992 87.456 16.484Q87.552 16.976 87.696 17.288ZM30.432 16.34Q30.384 16.016 30.384 15.752Q30.384 15.176 30.564 14.696Q30.744 14.216 31.008 13.82Q31.272 13.424 31.596 13.16Q31.92 12.896 32.208 12.752Q32.256 13.232 32.4 13.832Q32.544 14.432 32.664 14.984Q32.784 15.536 32.676 15.86Q32.568 16.184 32.232 16.448Q31.872 16.736 31.452 16.856Q31.032 16.976 30.744 16.808Q30.48 16.664 30.432 16.34ZM101.544 15.752Q101.544 16.016 101.592 16.34Q101.64 16.664 101.904 16.808Q102.192 16.976 102.612 16.856Q103.032 16.736 103.392 16.448Q103.728 16.184 103.836 15.86Q103.944 15.536 103.824 14.984Q103.704 14.432 103.56 13.832Q103.416 13.232 103.368 12.752Q103.08 12.896 102.756 13.16Q102.432 13.424 102.168 13.82Q101.904 14.216 101.724 14.696Q101.544 15.176 101.544 15.752ZM145.704 15.752Q145.704 16.016 145.752 16.34Q145.8 16.664 146.064 16.808Q146.352 16.976 146.772 16.856Q147.192 16.736 147.552 16.448Q147.888 16.184 147.996 15.86Q148.104 15.536 147.984 14.984Q147.864 14.432 147.72 13.832Q147.576 13.232 147.528 12.752Q147.24 12.896 146.916 13.16Q146.592 13.424 146.328 13.82Q146.064 14.216 145.884 14.696Q145.704 15.176 145.704 15.752ZM172.344 16.34Q172.296 16.016 172.296 15.752Q172.296 15.176 172.476 14.696Q172.656 14.216 172.92 13.82Q173.184 13.424 173.508 13.16Q173.832 12.896 174.12 12.752Q174.168 13.232 174.312 13.832Q174.456 14.432 174.576 14.984Q174.696 15.536 174.588 15.86Q174.48 16.184 174.144 16.448Q173.784 16.736 173.364 16.856Q172.944 16.976 172.656 16.808Q172.392 16.664 172.344 16.34ZM48.348 15.668Q48.696 15.44 49.008 15.368Q49.2 15.344 49.428 15.512Q49.656 15.68 49.848 15.908Q50.04 16.136 50.184 16.364Q50.328 16.592 50.328 16.736Q49.896 17.144 49.164 17.492Q48.432 17.84 47.856 17.96Q47.664 18.008 47.508 17.936Q47.352 17.864 47.304 17.72Q47.184 17.336 47.316 16.94Q47.448 16.544 47.724 16.22Q48 15.896 48.348 15.668ZM128.784 15.368Q128.472 15.44 128.124 15.668Q127.776 15.896 127.5 16.22Q127.224 16.544 127.092 16.94Q126.96 17.336 127.08 17.72Q127.128 17.864 127.284 17.936Q127.44 18.008 127.632 17.96Q128.208 17.84 128.94 17.492Q129.672 17.144 130.104 16.736Q130.104 16.592 129.96 16.364Q129.816 16.136 129.624 15.908Q129.432 15.68 129.204 15.512Q128.976 15.344 128.784 15.368ZM165.552 15.368Q165.24 15.44 164.892 15.668Q164.544 15.896 164.268 16.22Q163.992 16.544 163.86 16.94Q163.728 17.336 163.848 17.72Q163.896 17.864 164.052 17.936Q164.208 18.008 164.4 17.96Q164.976 17.84 165.708 17.492Q166.44 17.144 166.872 16.736Q166.872 16.592 166.728 16.364Q166.584 16.136 166.392 15.908Q166.2 15.68 165.972 15.512Q165.744 15.344 165.552 15.368Z" />
  </g>
  <g id="Frameworks" transform="translate(163 46)">
    <path d="M89.448 11.24Q89.544 11.216 89.736 11.204Q89.928 11.192 90.108 11.228Q90.288 11.264 90.42 11.348Q90.552 11.432 90.576 11.552Q90.624 11.84 90.492 12.068Q90.36 12.296 90.024 12.464Q89.112 12.896 88.128 13.436Q87.144 13.976 86.448 14.408Q86.88 14.696 87.444 15.056Q88.008 15.416 88.608 15.812Q89.208 16.208 89.808 16.652Q90.408 17.096 90.936 17.528Q91.2468 17.7922 91.2255 18.0262Q91.214 18.1536 91.104 18.272Q90.96 18.44 90.636 18.512Q90.312 18.584 90.024 18.44Q89.496 18.176 88.872 17.804Q88.248 17.432 87.6 17.036Q86.952 16.64 86.34 16.244Q85.728 15.848 85.224 15.512Q85.32 16.352 85.404 17.192Q85.488 18.032 85.56 18.872Q85.704 19.328 85.536 19.616Q85.368 19.904 84.984 19.88Q84.576 19.808 84.384 19.556Q84.192 19.304 84.096 18.896Q83.952 17.912 83.772 16.568Q83.592 15.224 83.4 13.784Q83.208 12.344 83.028 10.976Q82.848 9.608 82.704 8.552Q82.656 8.216 82.644 7.82Q82.632 7.424 82.896 7.304Q83.256 7.16 83.64 7.46Q84.024 7.76 84.216 8.36Q84.408 9.464 84.6 10.76Q84.792 12.056 84.984 13.496Q85.464 13.208 86.1 12.86Q86.736 12.512 87.372 12.188Q88.008 11.864 88.56 11.6Q89.112 11.336 89.448 11.24ZM8.112 9.08Q8.4 8.888 8.448 8.744Q8.4 8.432 7.992 8.192Q7.344 7.976 6.444 7.784Q5.544 7.592 4.524 7.484Q3.504 7.376 2.436 7.352Q1.368 7.328 0.432 7.472Q0.264 7.52 0.168 7.664Q0.072 7.808 0.036 7.976C0.012 8.088 0.004 8.2 0.012 8.312Q0.024 8.48 0.072 8.552Q0.216 8.84 0.504 8.912Q0.792 8.984 1.128 8.984L1.92 8.984Q2.256 11.048 2.532 13.088Q2.808 15.128 3.048 17.192Q3.072 17.336 3.168 17.528Q3.264 17.72 3.42 17.876Q3.576 18.032 3.768 18.152Q3.96 18.272 4.176 18.272Q4.416 18.272 4.524 17.9Q4.632 17.528 4.584 17.192Q4.512 16.376 4.428 15.548Q4.344 14.72 4.224 13.88Q5.28 13.832 6.3 13.748Q7.32 13.664 8.328 13.496Q8.64 13.448 8.856 13.244Q9.072 13.04 9.072 12.776Q9.072 12.584 8.736 12.368Q8.4 12.152 8.064 12.152Q6.072 12.296 4.032 12.368Q3.912 11.528 3.78 10.688Q3.648 9.848 3.504 9.008Q4.56 9.032 5.58 9.104Q6.6 9.176 7.632 9.272Q7.824 9.272 8.112 9.08ZM24.96 10.208Q25.056 10.88 25.116 11.636Q25.176 12.392 25.212 13.16Q25.248 13.928 25.248 14.648Q25.248 15.368 25.224 15.944Q25.992 16.472 26.148 16.88Q26.304 17.288 26.184 17.6Q26.04 18.032 25.668 18.044Q25.296 18.056 24.816 17.792Q24.48 18.032 24.048 18.308Q23.616 18.584 23.136 18.836Q22.656 19.088 22.176 19.28Q21.696 19.472 21.288 19.544Q20.52 19.664 19.908 19.256Q19.296 18.848 19.08 18.032Q18.936 17.48 19.008 16.892Q19.08 16.304 19.368 15.764Q19.656 15.224 20.148 14.792Q20.64 14.36 21.312 14.12Q21.48 14.048 21.78 14Q22.08 13.952 22.404 13.964Q22.728 13.976 23.064 14.096Q23.4 14.216 23.688 14.504Q23.688 14.096 23.676 13.604Q23.664 13.112 23.64 12.608Q23.616 12.104 23.58 11.66Q23.544 11.216 23.496 10.904Q23.448 10.544 23.22 10.46Q22.992 10.376 22.656 10.496Q22.08 10.688 21.312 11.24Q20.544 11.792 19.848 12.416Q19.632 12.632 19.356 12.608Q19.08 12.584 18.888 12.392Q18.696 12.2 18.672 11.948Q18.648 11.696 18.864 11.408Q19.272 10.976 19.776 10.52Q20.28 10.064 20.832 9.692Q21.384 9.32 21.96 9.08Q22.536 8.84 23.112 8.816Q23.952 8.792 24.408 9.188Q24.864 9.584 24.96 10.208ZM96.984 11.408Q97.032 11.648 97.08 11.912Q97.104 12.128 97.308 12.26Q97.512 12.392 97.848 12.344Q98.112 12.296 98.22 12.08Q98.328 11.864 98.328 11.528Q98.208 10.52 97.536 10.004Q96.864 9.488 95.832 9.44Q95.232 9.44 94.632 9.704Q94.032 9.968 93.564 10.412Q93.096 10.856 92.808 11.432Q92.52 12.008 92.544 12.632Q92.64 13.328 93 13.796Q93.36 14.264 93.864 14.6Q94.368 14.936 95.076 15.344Q95.784 15.752 96.396 16.184Q97.008 16.616 97.38 17.012Q97.752 17.408 97.584 17.696Q97.392 18.032 96.912 18.248Q96.432 18.464 95.832 18.596Q95.232 18.728 94.572 18.788Q93.912 18.848 93.336 18.848Q92.928 18.848 92.544 19.016Q92.16 19.184 92.16 19.616Q92.16 19.736 92.292 19.892Q92.424 20.048 92.604 20.192Q92.784 20.336 92.988 20.444Q93.192 20.552 93.336 20.552Q93.936 20.552 94.8 20.468Q95.664 20.384 96.528 20.156Q97.392 19.928 98.112 19.52Q98.832 19.112 99.096 18.464Q99.432 17.624 99.204 16.964Q98.976 16.304 98.352 15.752Q97.728 15.2 96.816 14.672Q95.904 14.144 95.064 13.64Q94.56 13.304 94.296 12.968Q94.032 12.632 94.104 12.272Q94.128 12.08 94.392 11.828Q94.656 11.576 95.04 11.372Q95.424 11.168 95.88 11.072Q96.336 10.976 96.744 11.096Q96.936 11.168 96.984 11.408ZM16.62 11.312Q17.088 11.048 17.52 10.808Q17.832 10.592 17.892 10.328Q17.952 10.064 17.856 9.944Q17.76 9.824 17.52 9.776Q17.28 9.728 16.92 9.776Q16.08 9.92 15.276 10.352Q14.472 10.784 13.836 11.408Q13.2 12.032 12.768 12.8Q12.336 13.568 12.24 14.384Q12.096 13.688 11.952 12.716Q11.808 11.744 11.712 10.856Q11.664 10.592 11.4 10.472Q11.136 10.352 10.848 10.328Q10.584 10.304 10.38 10.4Q10.176 10.496 10.176 10.832Q10.368 12.488 10.632 14.156Q10.896 15.824 11.304 17.528Q11.4 17.96 11.676 18.428Q11.952 18.896 12.408 18.896Q12.768 18.896 12.972 18.452Q13.176 18.008 13.176 17.576Q13.224 16.664 13.392 15.716Q13.56 14.768 14.04 13.856Q14.376 13.208 14.796 12.74Q15.216 12.272 15.684 11.924Q16.152 11.576 16.62 11.312ZM80.508 11.312Q80.976 11.048 81.408 10.808Q81.72 10.592 81.78 10.328Q81.84 10.064 81.744 9.944Q81.648 9.824 81.408 9.776Q81.168 9.728 80.808 9.776Q79.968 9.92 79.164 10.352Q78.36 10.784 77.724 11.408Q77.088 12.032 76.656 12.8Q76.224 13.568 76.128 14.384Q75.984 13.688 75.84 12.716Q75.696 11.744 75.6 10.856Q75.552 10.592 75.288 10.472Q75.024 10.352 74.736 10.328Q74.472 10.304 74.268 10.4Q74.064 10.496 74.064 10.832Q74.256 12.488 74.52 14.156Q74.784 15.824 75.192 17.528Q75.288 17.96 75.564 18.428Q75.84 18.896 76.296 18.896Q76.656 18.896 76.86 18.452Q77.064 18.008 77.064 17.576Q77.112 16.664 77.28 15.716Q77.448 14.768 77.928 13.856Q78.264 13.208 78.684 12.74Q79.104 12.272 79.572 11.924Q80.04 11.576 80.508 11.312ZM70.056 10.712Q70.776 10.976 71.268 11.504Q71.76 12.032 72.024 12.692Q72.288 13.352 72.324 14.048Q72.36 14.744 72.168 15.344Q71.904 16.016 71.496 16.664Q71.088 17.312 70.56 17.816Q70.032 18.32 69.36 18.632Q68.688 18.944 67.872 18.944Q66.888 18.944 66.216 18.488Q65.544 18.032 65.16 17.312Q64.776 16.592 64.668 15.68Q64.56 14.768 64.704 13.856Q64.8 13.184 65.028 12.548Q65.256 11.912 65.616 11.42Q65.976 10.928 66.444 10.616Q66.912 10.304 67.512 10.304Q67.848 10.304 68.352 10.436Q68.856 10.568 69.288 10.808Q69.6 10.52 70.056 10.712ZM48.288 13.448Q47.352 14 46.272 14.3Q45.192 14.6 43.944 14.6Q43.992 15.44 44.424 15.932Q44.856 16.424 45.504 16.52Q45.888 16.568 46.284 16.496Q46.68 16.424 47.028 16.268Q47.376 16.112 47.664 15.92Q47.952 15.728 48.168 15.536Q48.384 15.344 48.624 15.284Q48.864 15.224 48.984 15.272Q49.32 15.392 49.224 15.992Q48.84 16.76 48.12 17.3Q47.4 17.84 46.512 17.984Q45.744 18.128 44.928 17.912Q44.112 17.696 43.464 17.072Q42.912 16.52 42.624 15.776Q42.336 15.032 42.264 14.24Q42.192 13.496 42.396 12.824Q42.6 12.152 43.032 11.636Q43.464 11.12 44.112 10.784Q44.76 10.448 45.624 10.4Q46.656 10.328 47.496 10.784Q48.336 11.24 48.672 12.056Q48.864 12.512 48.78 12.848Q48.696 13.184 48.288 13.448ZM59.016 18.884Q59.256 18.8 59.448 18.536Q60.6 16.904 61.44 15.14Q62.28 13.376 62.808 11.264Q62.88 11 62.568 10.76Q62.256 10.52 61.824 10.472Q61.488 10.448 61.296 11.096Q61.104 11.72 60.792 12.512Q60.48 13.304 60.12 14.096Q59.76 14.888 59.376 15.596Q58.992 16.304 58.656 16.736Q58.32 15.656 57.972 14.396Q57.624 13.136 57.096 12.08Q56.976 11.888 56.712 11.78Q56.448 11.672 56.304 11.768Q56.112 11.888 55.776 12.416Q55.44 12.944 55.032 13.652Q54.624 14.36 54.18 15.116Q53.736 15.872 53.376 16.448Q53.208 16.016 53.052 15.464Q52.896 14.912 52.74 14.336Q52.584 13.76 52.452 13.196Q52.32 12.632 52.224 12.152Q52.176 11.864 51.84 11.564Q51.504 11.264 51.096 11.288Q50.76 11.336 50.676 11.696Q50.592 12.056 50.664 12.464Q50.784 13.064 50.976 13.82Q51.168 14.576 51.396 15.332Q51.624 16.088 51.888 16.772Q52.152 17.456 52.416 17.888Q52.56 18.08 52.812 18.296Q53.064 18.512 53.376 18.536Q53.592 18.56 53.904 18.428Q54.216 18.296 54.456 17.936Q54.984 17.024 55.416 16.172Q55.848 15.32 56.328 14.48Q56.472 14.888 56.64 15.38Q56.808 15.872 56.964 16.388Q57.12 16.904 57.288 17.408Q57.456 17.912 57.6 18.32Q57.672 18.536 57.96 18.74Q58.248 18.944 58.584 18.968Q58.776 18.968 59.016 18.884ZM29.1 12.284Q29.04 11.72 29.016 11.336Q28.968 10.928 28.752 10.736Q28.536 10.544 28.128 10.616Q27.744 10.736 27.612 11.084Q27.48 11.432 27.504 11.84Q27.624 13.016 27.756 14.252Q27.888 15.488 28.08 16.52Q28.152 16.856 28.308 17.192Q28.464 17.528 28.656 17.792Q28.848 18.056 29.064 18.236Q29.28 18.416 29.472 18.416Q29.736 18.416 29.928 18.212Q30.12 18.008 30.288 17.744Q30.528 17.312 30.804 16.748Q31.08 16.184 31.38 15.608Q31.68 15.032 32.004 14.48Q32.328 13.928 32.664 13.472Q32.832 13.856 33.012 14.336Q33.192 14.816 33.372 15.32Q33.552 15.824 33.72 16.304Q33.888 16.784 34.032 17.168Q34.128 17.432 34.428 17.636Q34.728 17.84 34.992 17.84Q35.256 17.84 35.496 17.54Q35.736 17.24 35.736 16.616Q35.832 16.136 36.036 15.452Q36.24 14.768 36.48 14.144Q36.72 13.52 36.984 13.076Q37.248 12.632 37.488 12.632Q37.536 12.656 37.656 12.752Q37.776 12.848 37.908 12.992Q38.04 13.136 38.148 13.292Q38.256 13.448 38.304 13.544Q38.448 13.904 38.58 14.372Q38.712 14.84 38.808 15.38Q38.904 15.92 38.988 16.496Q39.072 17.072 39.144 17.624Q39.168 17.744 39.24 17.9Q39.312 18.056 39.432 18.176Q39.552 18.296 39.744 18.332Q39.936 18.368 40.2 18.248Q40.392 18.152 40.464 17.996Q40.536 17.84 40.536 17.528Q40.512 17.312 40.476 16.772Q40.44 16.232 40.344 15.536Q40.248 14.84 40.044 14.072Q39.84 13.304 39.504 12.656Q39.336 12.344 39.06 12.044Q38.784 11.744 38.472 11.528Q38.16 11.312 37.86 11.18Q37.56 11.048 37.344 11.048Q37.176 11.048 36.816 11.204Q36.456 11.36 36.144 11.696Q35.88 12.008 35.652 12.416Q35.424 12.824 35.244 13.244Q35.064 13.664 34.908 14.06Q34.752 14.456 34.656 14.768Q34.536 14.312 34.356 13.712Q34.176 13.112 33.936 12.584Q33.696 12.056 33.372 11.684Q33.048 11.312 32.664 11.312Q32.304 11.312 31.86 11.804Q31.416 12.296 30.996 13.004Q30.576 13.712 30.192 14.48L29.544 15.776Q29.472 15.272 29.388 14.672Q29.304 14.072 29.232 13.46Q29.16 12.848 29.1 12.284ZM69.144 12.464Q68.88 12.296 68.532 12.02Q68.184 11.744 67.92 11.744Q67.632 11.744 67.356 12.008Q67.08 12.272 66.876 12.62Q66.672 12.968 66.528 13.328Q66.384 13.688 66.336 13.904Q66.264 14.264 66.24 14.768Q66.216 15.272 66.312 15.764Q66.408 16.256 66.684 16.652Q66.96 17.048 67.512 17.216Q67.848 17.312 68.304 17.204Q68.76 17.096 69.204 16.808Q69.648 16.52 70.044 16.04Q70.44 15.56 70.656 14.936Q70.896 14.24 70.668 13.484Q70.44 12.728 69.744 12.392Q69.576 12.512 69.408 12.512Q69.24 12.512 69.144 12.464ZM45.528 11.816Q45.288 11.864 45.012 11.984Q44.736 12.104 44.508 12.284Q44.28 12.464 44.1 12.692Q43.92 12.92 43.896 13.208Q44.304 13.208 44.796 13.136Q45.288 13.064 45.756 12.956Q46.224 12.848 46.62 12.704Q47.016 12.56 47.28 12.392Q47.088 11.936 46.572 11.828Q46.056 11.72 45.528 11.816ZM22.176 15.368Q21.864 15.44 21.516 15.668Q21.168 15.896 20.892 16.22Q20.616 16.544 20.484 16.94Q20.352 17.336 20.472 17.72Q20.52 17.864 20.676 17.936Q20.832 18.008 21.024 17.96Q21.6 17.84 22.332 17.492Q23.064 17.144 23.496 16.736Q23.496 16.592 23.352 16.364Q23.208 16.136 23.016 15.908Q22.824 15.68 22.596 15.512Q22.368 15.344 22.176 15.368Z" />
  </g>
  <path d="M0 164L2 0" transform="translate(39 41)" id="New-shape-6" fill="none" stroke="#000000" stroke-width="2" />
  <path d="M0 12L7 0L14 12" transform="translate(34 29)" id="New-shape-7" fill="none" stroke="#000000" stroke-width="2" />
</svg>