<?xml version="1.0" encoding="utf-8"?>
<svg width="234px" height="596px" viewBox="0 0 234 596" version="1.1" xmlns:xlink="http://www.w3.org/1999/xlink" xmlns="http://www.w3.org/2000/svg">
  <desc>Created with Lunacy</desc>
  <defs>
    <path d="M0 0L44 0L44 44L0 44L0 0Z" id="path_1" />
    <path d="M0 0L24 0L24 24L0 24L0 0Z" id="path_2" />
    <path d="M0 0L40 0L40 40L0 40L0 0Z" id="path_3" />
    <path d="M0 0L45 0L45 45L0 45L0 0Z" id="path_4" />
    <path d="M0 0L52 0L52 52L0 52L0 0Z" id="path_5" />
    <clipPath id="mask_1">
      <use xlink:href="#path_1" />
    </clipPath>
    <clipPath id="mask_2">
      <use xlink:href="#path_2" />
    </clipPath>
    <clipPath id="mask_3">
      <use xlink:href="#path_3" />
    </clipPath>
    <clipPath id="mask_4">
      <use xlink:href="#path_4" />
    </clipPath>
    <clipPath id="mask_5">
      <use xlink:href="#path_5" />
    </clipPath>
  </defs>
  <path d="M0 87L1 0" transform="translate(62 368)" id="New-shape" fill="none" stroke="#000000" stroke-width="3" />
  <path d="M0 87L1 0" transform="translate(165 368)" id="New-shape-2" fill="none" stroke="#000000" stroke-width="3" />
  <path d="M0 12L13.5 0L26 12" transform="translate(49 368)" id="New-shape-3" fill="none" stroke="#000000" stroke-width="3" />
  <path d="M0 12L13.5 0L26 12" transform="matrix(-1 -8.742278E-08 8.742278E-08 -1 179 455)" id="New-shape-4" fill="none" stroke="#000000" stroke-width="3" />
  <path d="M0 87L1 0" transform="translate(115 141)" id="New-shape-5" fill="none" stroke="#000000" stroke-width="3" />
  <path d="M0 12L13.5 0L26 12" transform="matrix(-1 -8.742278E-08 8.742278E-08 -1 129 228)" id="New-shape-6" fill="none" stroke="#000000" stroke-width="3" />
  <g id="Hosting-Box" transform="translate(31.999954 294)">
    <g id="linode" transform="translate(0 4)">
      <path d="M0 0L44 0L44 44L0 44L0 0Z" id="Background" fill="none" stroke="none" />
      <g clip-path="url(#mask_1)">
        <path d="M36.5516 19.305C36.6457 19.3626 36.6962 19.4709 36.6799 19.58L35.9099 25.795C35.9062 25.8662 35.873 25.9326 35.8183 25.9783L31.1066 29.645C31.0146 29.7153 30.8869 29.7153 30.7949 29.645L28.9616 28.4167L28.7966 31.295C28.7784 31.3708 28.7405 31.4404 28.6866 31.4967L22.9299 36.0983C22.8345 36.1784 22.6954 36.1784 22.5999 36.0983L20.1799 34.0817L20.3083 37.9683C20.3056 38.0542 20.2654 38.1347 20.1983 38.1883L13.0116 43.9083C12.9633 43.9576 12.8973 43.9854 12.8283 43.9854C12.7593 43.9854 12.6932 43.9576 12.6449 43.9083L7.14494 38.005C7.13096 37.9634 7.13096 37.9183 7.14494 37.8767L5.76994 31.2033C5.74188 31.0922 5.78572 30.9753 5.87994 30.91L7.3466 30.0117L5.07327 27.9217C5.06487 27.8793 5.06487 27.8357 5.07327 27.7933L3.23994 19.1767C3.21626 19.052 3.27544 18.9262 3.3866 18.865L5.6966 17.765L2.3416 15.235C2.33264 15.1865 2.33264 15.1368 2.3416 15.0883L0.0132717 3.66667C-0.0291249 3.53033 0.032793 3.38328 0.159938 3.31833L10.8299 0L11.0133 0L18.7866 3.795C18.8727 3.8445 18.9279 3.93419 18.9333 4.03333L19.4283 15.5283C19.4292 15.6341 19.3732 15.7321 19.2816 15.785L16.5133 17.215L19.5383 19.2133C19.6073 19.2678 19.6531 19.3464 19.6666 19.4333L19.7949 22.44L22.7649 20.6067C22.8489 20.5534 22.956 20.5534 23.0399 20.6067L25.1116 21.9633L25.1116 19.305C25.1159 19.2102 25.1631 19.1224 25.2399 19.0667L30.3183 15.9683C30.3977 15.9225 30.4955 15.9225 30.5749 15.9683L36.5516 19.305ZM2.8366 14.8867L0.618263 4.14334L7.47493 8.39667L9.17993 19.7633L6.28326 17.5633L2.8366 14.8867ZM18.8599 15.2533L18.4016 4.41833L8.04327 8.415L9.69327 20.0017L18.8599 15.2533ZM3.89995 19.7817L5.51328 27.5917L7.93328 29.865L11.0133 32.835L9.91328 24.805L3.89995 19.7817ZM30.6849 28.9483L29.0349 27.7933L29.1999 24.8783C29.2101 24.8423 29.2101 24.8043 29.1999 24.7683C29.2077 24.7382 29.2077 24.7067 29.1999 24.6766L25.6616 22.3483L25.6616 19.8L31.1616 23.265L30.6849 28.9483ZM19.0433 19.855L19.1716 22.7333L19.3916 27.83L11.6366 33.0916L10.4266 24.7866L19.0433 19.855ZM31.1799 28.8567L35.3599 25.5383L36.1116 20.1667L31.6566 23.2467L31.1799 28.8567ZM23.0766 35.3467L28.3199 31.1667L28.7049 25.41L23.0766 29.4434L23.0766 35.3467ZM20.1799 33.3667L20.1799 31.3867C20.1769 31.3101 20.144 31.2377 20.0883 31.185L18.0166 29.4983L19.8499 28.215C19.9216 28.1652 19.9631 28.0823 19.9599 27.995L19.9599 27.5183L22.5083 29.4617L22.5083 35.3467L20.1799 33.3667ZM12.2049 37.0883L13.1033 43.1933L19.7949 37.84L19.5383 31.8267L12.2049 37.0883ZM7.60328 37.6933L6.41161 31.9367L11.7099 37.1617L12.5716 42.955L7.60328 37.6933Z" transform="translate(3.6534123 0)" id="Shape" fill="#000000" fill-rule="evenodd" stroke="none" />
      </g>
    </g>
    <g id="heroku" transform="translate(61.5587 0)">
      <path d="M0 0L44 0L44 44L0 44L0 0Z" id="Background" fill="none" stroke="none" />
      <g clip-path="url(#mask_1)">
        <path d="M3.96 0L35.53 0C37.7318 0 39.49 1.76 39.4882 3.96L39.4882 40.0418C39.4882 42.2382 37.73 44 35.53 44L3.96 44C1.75817 44 0 42.2382 0 40.0418L0 3.96C0 1.76 1.75817 0 3.96 0ZM37.29 40.0418C37.29 41.03 36.5182 41.8018 35.53 41.8018L3.95999 41.8018C2.97 41.8018 2.2 41.03 2.2 40.0418L2.2 3.96001C2.2 2.97001 2.97 2.19818 3.95999 2.19818L35.53 2.19818C36.5182 2.19818 37.29 2.97001 37.29 3.96001L37.29 40.0418ZM27.72 19.58C26.8418 18.7 25.1918 17.6 22.4418 17.6C19.47 17.6 16.39 18.3718 14.1918 19.14L14.1918 6.60001L9.79184 6.60001L9.79184 25.63L12.8718 24.2C12.8718 24.2 17.9318 21.89 22.3318 21.89C24.5318 21.89 25.0818 23.1 25.0818 24.2L25.0818 37.4L29.4818 37.4L29.4818 24.2C29.59 23.8718 29.59 21.4482 27.72 19.58ZM26.29 13.75L21.89 13.75C23.65 11.44 24.75 9.12817 25.1918 6.60001L29.59 6.60001C29.26 9.12817 28.27 11.44 26.29 13.75ZM14.85 33L9.9 37.3982L9.9 28.6L14.85 33Z" transform="translate(2.255005 0)" id="Shape" fill="#000000" fill-rule="evenodd" stroke="none" />
      </g>
    </g>
    <g id="digitalocean" transform="translate(131.5587 24.5)">
      <path d="M0 0L24 0L24 24L0 24L0 0Z" id="Background" fill="none" stroke="none" />
    </g>
    <path d="M1.39336 33.889L1.38669 33.889L1.38669 28.6652L6.36177 28.6652L6.36177 33.889L12.3002 33.889L12.3002 25.7778L20.0253 25.7778L20.0253 33.8627C28.2371 33.8522 34.5755 25.3175 31.4455 16.2473C30.2821 12.8873 27.7288 10.2098 24.5287 8.99182C15.8786 5.69658 7.74512 12.3693 7.74512 21.0003L0 21.0003C0 7.25232 12.6502 -3.45764 26.3737 1.0416C32.3738 3.01034 37.1339 8.01007 39.0073 14.3065C43.2907 28.7177 33.0972 42.0002 20.0003 42.0002L20.0003 33.889L12.2952 33.889L12.2952 40.119L6.36177 40.119L6.36177 33.889L1.38836 33.889L1.39169 33.889L1.39336 33.889Z" transform="translate(132.00005 1.9997864)" id="Shape" fill="#000000" stroke="none" />
  </g>
  <g id="Developer-Box" transform="translate(1 1)">
    <path d="M6.999 0L222.001 0Q222.148 0 222.295 0.00722606Q222.442 0.0144521 222.589 0.0288868Q222.736 0.0433215 222.881 0.0649301Q223.027 0.0865387 223.171 0.115269Q223.316 0.143999 223.459 0.179782Q223.601 0.215565 223.742 0.258315Q223.883 0.301064 224.022 0.350677Q224.161 0.40029 224.297 0.456647Q224.433 0.513003 224.566 0.575968Q224.699 0.638933 224.829 0.708354Q224.959 0.777776 225.085 0.853486Q225.211 0.929196 225.334 1.01101Q225.456 1.09283 225.575 1.18056Q225.693 1.26828 225.807 1.36171Q225.921 1.45514 226.03 1.55403Q226.139 1.65293 226.243 1.75707Q226.347 1.8612 226.446 1.97032Q226.545 2.07944 226.638 2.19327Q226.732 2.30711 226.819 2.4254Q226.907 2.54369 226.989 2.66613Q227.071 2.78858 227.146 2.9149Q227.222 3.04121 227.292 3.17109Q227.361 3.30097 227.424 3.4341Q227.487 3.56722 227.543 3.70328Q227.6 3.83934 227.649 3.978Q227.699 4.11666 227.742 4.25758Q227.784 4.39851 227.82 4.54136Q227.856 4.68422 227.885 4.82865Q227.913 4.97309 227.935 5.11876Q227.957 5.26444 227.971 5.411Q227.986 5.55755 227.993 5.70464Q228 5.85173 228 5.999L228 48L0 48L0 6.999Q0 6.82718 0.0084306 6.65557Q0.0168612 6.48397 0.0337021 6.31298Q0.050543 6.14199 0.0757536 5.97203Q0.100964 5.80208 0.134484 5.63356Q0.168003 5.46505 0.209751 5.29838Q0.251499 5.13171 0.301375 4.9673Q0.35125 4.80288 0.409133 4.64111Q0.467016 4.47933 0.532767 4.3206Q0.598518 4.16186 0.671979 4.00654Q0.74544 3.85122 0.826433 3.69969Q0.907426 3.54817 0.995757 3.40079Q1.08409 3.25342 1.17954 3.11056Q1.275 2.9677 1.37735 2.8297Q1.4797 2.6917 1.5887 2.55888Q1.6977 2.42607 1.81308 2.29876Q1.92847 2.17145 2.04996 2.04996Q2.17145 1.92847 2.29876 1.81308Q2.42607 1.6977 2.55888 1.5887Q2.6917 1.4797 2.8297 1.37735Q2.9677 1.275 3.11056 1.17954Q3.25342 1.08409 3.40079 0.995757Q3.54817 0.907426 3.69969 0.826433Q3.85122 0.74544 4.00654 0.671979Q4.16186 0.598518 4.3206 0.532767Q4.47933 0.467016 4.64111 0.409133Q4.80288 0.35125 4.9673 0.301375Q5.13171 0.251499 5.29838 0.209751Q5.46505 0.168003 5.63356 0.134484Q5.80208 0.100964 5.97203 0.0757536Q6.14199 0.050543 6.31298 0.0337021Q6.48397 0.0168612 6.65558 0.0084306Q6.82718 0 6.999 0Z" id="Rectangle-3" fill="#000000" stroke="none" />
    <g id="digitalocean" transform="translate(162.55865 90.5)">
      <path d="M0 0L24 0L24 24L0 24L0 0Z" id="Background" fill="none" stroke="none" />
    </g>
    <g id="DEVELOPER" fill="#FFFFFF" transform="translate(69 13)">
      <path d="M81.516 16.688Q81.552 17.816 81.624 18.704Q81.624 18.8 81.696 18.98Q81.768 19.16 81.876 19.34Q81.984 19.52 82.104 19.652Q82.224 19.784 82.368 19.808Q82.656 19.808 82.848 19.676Q83.04 19.544 83.04 19.208Q82.992 18.296 82.98 17.348Q82.968 16.4 82.944 15.44Q83.592 15.824 84.312 16.268Q85.032 16.712 85.752 17.18Q86.472 17.648 87.132 18.116Q87.792 18.584 88.32 19.016Q88.656 19.256 89.004 19.22Q89.352 19.184 89.496 18.848Q89.736 18.296 89.556 18.02Q89.376 17.744 89.232 17.6Q88.128 16.784 87.036 16.088Q85.944 15.392 84.696 14.624Q86.4 13.568 87.156 12.128Q87.912 10.688 87.408 8.888Q87.12 7.856 86.328 7.172Q85.536 6.488 84.36 6.488Q83.568 6.488 82.632 6.728Q81.696 6.968 80.88 7.448Q80.064 7.928 79.524 8.636Q78.984 9.344 78.984 10.304Q78.984 10.568 79.248 10.82Q79.512 11.072 79.704 11.024Q80.016 10.904 80.184 10.628Q80.352 10.352 80.28 9.992Q80.832 9.392 81.468 8.96Q82.104 8.528 82.764 8.324Q83.424 8.12 84.048 8.144Q84.672 8.168 85.2 8.48Q85.56 8.696 85.74 9.068Q85.92 9.44 85.968 9.86Q86.016 10.28 85.956 10.688Q85.896 11.096 85.776 11.384Q85.464 12.152 84.732 12.752Q84 13.352 82.92 13.544Q82.896 12.776 82.908 12.008Q82.92 11.24 82.944 10.472Q82.896 10.016 82.74 9.764Q82.584 9.512 82.152 9.464Q82.008 9.44 81.78 9.572Q81.552 9.704 81.552 9.944Q81.504 10.88 81.492 12.032Q81.48 13.184 81.48 14.372Q81.48 15.56 81.516 16.688ZM64.164 19.628Q64.296 19.4 64.32 19.136Q64.344 18.272 64.332 17.264Q64.32 16.256 64.272 15.2Q65.064 14.648 65.952 13.988Q66.84 13.328 67.488 12.536Q68.136 11.744 68.388 10.784Q68.64 9.824 68.184 8.624Q67.68 7.616 66.744 7.16Q65.808 6.704 64.74 6.644Q63.672 6.584 62.616 6.824Q61.56 7.064 60.84 7.424Q60.288 7.736 59.796 8.18Q59.304 8.624 59.256 9.176Q59.256 9.32 59.352 9.464Q59.448 9.608 59.64 9.68Q59.832 9.752 60.096 9.704Q60.36 9.656 60.672 9.416Q61.752 8.72 62.928 8.42Q64.104 8.12 65.592 8.456Q66.24 8.624 66.552 8.96Q66.864 9.296 66.912 9.704Q66.984 10.232 66.768 10.724Q66.552 11.216 66.156 11.672Q65.76 12.128 65.232 12.512Q64.704 12.896 64.128 13.208Q64.08 12.584 64.008 12.008Q63.936 11.432 63.864 10.952Q63.792 10.736 63.648 10.496Q63.504 10.256 63.312 10.064Q63.12 9.872 62.916 9.776Q62.712 9.68 62.544 9.752Q62.376 9.872 62.304 10.004Q62.232 10.136 62.184 10.232Q62.136 10.352 62.136 10.448Q62.472 12.608 62.628 14.78Q62.784 16.952 62.76 19.04Q62.76 19.232 63.06 19.52Q63.36 19.808 63.768 19.832Q64.032 19.856 64.164 19.628ZM1.08 9.608Q0.72 9.752 0.456 9.632Q0.192 9.512 0.072 9.32Q-0.096 9.08 -0.024 8.816Q0.048 8.552 0.384 8.36Q0.936 8.048 1.776 7.844Q2.616 7.64 3.576 7.736Q4.536 7.832 5.34 8.252Q6.144 8.672 6.708 9.32Q7.272 9.968 7.572 10.796Q7.872 11.624 7.848 12.536Q7.8 13.496 7.476 14.456Q7.152 15.416 6.588 16.256Q6.024 17.096 5.244 17.78Q4.464 18.464 3.528 18.848Q2.88 19.016 2.544 18.896Q2.208 18.776 2.088 18.608Q2.04 18.488 2.052 18.284Q2.064 18.08 2.304 17.864Q2.016 15.536 1.956 13.364Q1.896 11.192 1.896 9.392Q1.488 9.464 1.08 9.608ZM16.68 13.136Q16.776 13.376 16.488 13.604Q16.2 13.832 15.576 13.904Q14.496 14.048 13.368 14.204Q12.24 14.36 11.064 14.528Q11.016 15.752 11.064 16.976Q11.616 16.976 12.396 16.868Q13.176 16.76 13.992 16.592Q14.808 16.424 15.564 16.244Q16.32 16.064 16.848 15.944Q17.112 15.872 17.4 15.836Q17.688 15.8 17.916 15.836Q18.144 15.872 18.288 16.016Q18.432 16.16 18.432 16.424Q18.432 16.496 18.264 16.64Q18.096 16.784 17.844 16.94Q17.592 17.096 17.316 17.228Q17.04 17.36 16.824 17.432Q15.336 17.912 13.896 18.26Q12.456 18.608 11.088 18.632Q10.296 18.656 9.888 18.212Q9.48 17.768 9.456 16.928Q9.408 15.752 9.456 14.552Q9.048 14.312 9.048 13.88Q9.096 13.424 9.48 13.256Q9.528 12.56 9.552 11.852Q9.576 11.144 9.624 10.448Q9.36 10.4 9.156 10.184Q8.952 9.968 8.952 9.704Q8.952 9.488 9.048 9.308Q9.144 9.128 9.408 9.032Q9.84 8.936 10.464 8.816Q11.088 8.696 11.748 8.6Q12.408 8.504 13.02 8.432Q13.632 8.36 14.064 8.336Q14.568 8.288 15.036 8.432Q15.504 8.576 15.912 8.984Q16.008 9.32 15.78 9.488Q15.552 9.656 15.192 9.704Q14.832 9.752 14.328 9.812Q13.824 9.872 13.284 9.944Q12.744 10.016 12.204 10.076Q11.664 10.136 11.184 10.208Q11.184 10.256 11.196 10.316Q11.208 10.376 11.208 10.424Q11.16 11.048 11.136 11.672L11.088 12.92Q12.096 12.752 13.152 12.62Q14.208 12.488 14.832 12.44Q15.336 12.392 15.816 12.56Q16.296 12.728 16.68 13.136ZM36.48 13.136Q36.576 13.376 36.288 13.604Q36 13.832 35.376 13.904Q34.296 14.048 33.168 14.204Q32.04 14.36 30.864 14.528Q30.816 15.752 30.864 16.976Q31.416 16.976 32.196 16.868Q32.976 16.76 33.792 16.592Q34.608 16.424 35.364 16.244Q36.12 16.064 36.648 15.944Q36.912 15.872 37.2 15.836Q37.488 15.8 37.716 15.836Q37.944 15.872 38.088 16.016Q38.232 16.16 38.232 16.424Q38.232 16.496 38.064 16.64Q37.896 16.784 37.644 16.94Q37.392 17.096 37.116 17.228Q36.84 17.36 36.624 17.432Q35.136 17.912 33.696 18.26Q32.256 18.608 30.888 18.632Q30.096 18.656 29.688 18.212Q29.28 17.768 29.256 16.928Q29.208 15.752 29.256 14.552Q28.848 14.312 28.848 13.88Q28.896 13.424 29.28 13.256Q29.328 12.56 29.352 11.852Q29.376 11.144 29.424 10.448Q29.16 10.4 28.956 10.184Q28.752 9.968 28.752 9.704Q28.752 9.488 28.848 9.308Q28.944 9.128 29.208 9.032Q29.64 8.936 30.264 8.816Q30.888 8.696 31.548 8.6Q32.208 8.504 32.82 8.432Q33.432 8.36 33.864 8.336Q34.368 8.288 34.836 8.432Q35.304 8.576 35.712 8.984Q35.808 9.32 35.58 9.488Q35.352 9.656 34.992 9.704Q34.632 9.752 34.128 9.812Q33.624 9.872 33.084 9.944Q32.544 10.016 32.004 10.076Q31.464 10.136 30.984 10.208Q30.984 10.256 30.996 10.316Q31.008 10.376 31.008 10.424Q30.96 11.048 30.936 11.672L30.888 12.92Q31.896 12.752 32.952 12.62Q34.008 12.488 34.632 12.44Q35.136 12.392 35.616 12.56Q36.096 12.728 36.48 13.136ZM77.112 13.136Q77.208 13.376 76.92 13.604Q76.632 13.832 76.008 13.904Q74.928 14.048 73.8 14.204Q72.672 14.36 71.496 14.528Q71.448 15.752 71.496 16.976Q72.048 16.976 72.828 16.868Q73.608 16.76 74.424 16.592Q75.24 16.424 75.996 16.244Q76.752 16.064 77.28 15.944Q77.544 15.872 77.832 15.836Q78.12 15.8 78.348 15.836Q78.576 15.872 78.72 16.016Q78.864 16.16 78.864 16.424Q78.864 16.496 78.696 16.64Q78.528 16.784 78.276 16.94Q78.024 17.096 77.748 17.228Q77.472 17.36 77.256 17.432Q75.768 17.912 74.328 18.26Q72.888 18.608 71.52 18.632Q70.728 18.656 70.32 18.212Q69.912 17.768 69.888 16.928Q69.84 15.752 69.888 14.552Q69.48 14.312 69.48 13.88Q69.528 13.424 69.912 13.256Q69.96 12.56 69.984 11.852Q70.008 11.144 70.056 10.448Q69.792 10.4 69.588 10.184Q69.384 9.968 69.384 9.704Q69.384 9.488 69.48 9.308Q69.576 9.128 69.84 9.032Q70.272 8.936 70.896 8.816Q71.52 8.696 72.18 8.6Q72.84 8.504 73.452 8.432Q74.064 8.36 74.496 8.336Q75 8.288 75.468 8.432Q75.936 8.576 76.344 8.984Q76.44 9.32 76.212 9.488Q75.984 9.656 75.624 9.704Q75.264 9.752 74.76 9.812Q74.256 9.872 73.716 9.944Q73.176 10.016 72.636 10.076Q72.096 10.136 71.616 10.208Q71.616 10.256 71.628 10.316Q71.64 10.376 71.64 10.424Q71.592 11.048 71.568 11.672L71.52 12.92Q72.528 12.752 73.584 12.62Q74.64 12.488 75.264 12.44Q75.768 12.392 76.248 12.56Q76.728 12.728 77.112 13.136ZM41.376 11.3Q41.472 10.28 41.592 9.44Q41.616 9.032 41.508 8.684Q41.4 8.336 40.848 8.408Q40.512 8.456 40.284 8.72Q40.056 8.984 40.008 9.392Q39.768 11.336 39.6 13.292Q39.432 15.248 39.312 17.192Q39.24 18.224 39.624 18.68Q40.008 19.136 40.752 18.944Q41.568 18.728 42.504 18.512L44.376 18.08Q45.312 17.864 46.2 17.648Q47.088 17.432 47.832 17.24Q47.976 17.096 48.156 17.024Q48.336 16.952 48.504 16.868Q48.672 16.784 48.792 16.628Q48.912 16.472 48.912 16.16Q48.912 15.944 48.72 15.848Q48.624 15.8 48.552 15.8Q47.736 15.872 46.74 16.028Q45.744 16.184 44.712 16.388Q43.68 16.592 42.684 16.784Q41.688 16.976 40.872 17.12Q40.92 16.376 41.004 15.392Q41.088 14.408 41.184 13.364Q41.28 12.32 41.376 11.3ZM25.956 14.576Q26.928 12.68 27.744 10.496Q27.96 9.92 27.924 9.512Q27.888 9.104 27.552 8.984Q27.288 8.936 27.024 9.176Q26.76 9.416 26.616 9.752Q26.256 10.568 25.824 11.492Q25.392 12.416 24.924 13.304Q24.456 14.192 23.988 14.996Q23.52 15.8 23.088 16.352Q22.872 15.776 22.632 15.056L22.14 13.58Q21.888 12.824 21.648 12.116Q21.408 11.408 21.216 10.856Q21.096 10.64 20.904 10.4Q20.712 10.16 20.472 9.992Q20.232 9.824 19.944 9.776Q19.656 9.728 19.344 9.872Q19.128 10.064 19.128 10.304Q19.128 10.544 19.248 10.796Q19.368 11.048 19.56 11.264Q19.752 11.48 19.896 11.6Q19.992 11.864 20.232 12.62Q20.472 13.376 20.784 14.3Q21.096 15.224 21.444 16.136Q21.792 17.048 22.08 17.648Q22.2 17.888 22.416 18.152Q22.632 18.416 23.016 18.464Q23.496 18.512 23.832 18.032Q24.984 16.472 25.956 14.576ZM58.272 14.024Q58.128 14.696 57.756 15.308Q57.384 15.92 56.904 16.448Q56.424 16.976 55.86 17.36Q55.296 17.744 54.72 17.96Q53.664 18.344 52.62 18.212Q51.576 18.08 50.76 17.264Q50.208 16.592 49.98 15.752Q49.752 14.912 49.764 14.036Q49.776 13.16 50.004 12.344Q50.232 11.528 50.592 10.88Q51.024 10.112 51.624 9.608Q52.224 9.104 52.944 9.008Q53.136 8.96 53.256 9.104Q53.376 9.248 53.376 9.44Q53.616 9.2 54.12 9.08Q54.624 8.96 55.248 9.056Q56.4 9.2 57.072 9.752Q57.744 10.304 58.068 11.036Q58.392 11.768 58.404 12.572Q58.416 13.376 58.272 14.024ZM3.696 9.296Q3.552 9.272 3.396 9.26Q3.24 9.248 3.096 9.248Q3.24 9.44 3.336 9.716Q3.432 9.992 3.432 10.256Q3.432 11.72 3.468 13.4Q3.504 15.08 3.696 17.024Q4.752 16.256 5.508 15.092Q6.264 13.928 6.312 12.632Q6.336 11.432 5.712 10.508Q5.088 9.584 3.696 9.296ZM53.04 10.712Q52.56 10.928 52.236 11.348Q51.912 11.768 51.708 12.296Q51.504 12.824 51.444 13.436Q51.384 14.048 51.432 14.624Q51.504 15.464 51.936 16.004Q52.368 16.544 53.28 16.544Q53.808 16.544 54.324 16.34Q54.84 16.136 55.272 15.8Q55.704 15.464 56.064 14.996Q56.424 14.528 56.64 14.024Q56.76 13.76 56.832 13.364Q56.904 12.968 56.88 12.548Q56.856 12.128 56.688 11.744Q56.52 11.36 56.16 11.096Q55.656 10.736 54.96 10.664Q54.264 10.592 53.496 10.976Q53.352 11.072 53.172 11.012Q52.992 10.952 53.04 10.712Z" />
    </g>
    <g id="visualstudiocode" transform="translate(20.99997 69.99997)">
      <path d="M0 0L40 0L40 40L0 40L0 0Z" id="Background" fill="none" stroke="none" />
      <g clip-path="url(#mask_3)">
        <path d="M30.3506 0.246653L38.5839 4.20832L38.5845 4.20859C39.4504 4.62521 40.0009 5.50131 40.0006 6.46165L40.0006 33.33C40.0013 34.2902 39.452 35.166 38.5872 35.5833L30.3506 39.545C29.3975 40.0045 28.258 39.8106 27.5106 39.0617L11.7439 24.6783L4.87724 29.8917C4.23804 30.3765 3.344 30.3365 2.75057 29.7967L0.545573 27.795C0.198389 27.4794 0.000317577 27.0321 0 26.5629C-0.000316715 26.0937 0.19715 25.6461 0.543906 25.33L6.49891 19.8967L0.543906 14.4633C0.19715 14.1472 -0.000316417 13.6996 0 13.2305C0.000318173 12.7613 0.19839 12.3139 0.545573 11.9983L2.74891 9.99499C3.34233 9.4551 4.23637 9.41516 4.87557 9.89999L11.7422 15.1133L27.5089 0.729986C28.2571 -0.0187408 29.3969 -0.212605 30.3506 0.246653ZM18.0439 19.8967L30.0072 28.9767L30.0072 10.8167L18.0439 19.8967Z" transform="translate(-0.000579834 0.10336304)" id="Shape" fill="#000000" fill-rule="evenodd" stroke="none" />
      </g>
    </g>
    <g id="sublimetext" transform="translate(92.38248 65.333374)">
      <path d="M0 0L45 0L45 45L0 45L0 0Z" id="Background" fill="none" stroke="none" />
      <g clip-path="url(#mask_4)">
        <path d="M34.6551 22.6551C34.6389 22.1123 34.299 21.6321 33.7926 21.4363L19.9551 17.0488L33.7739 12.6613C34.2906 12.4647 34.6383 11.9764 34.6551 11.4238L34.6551 0.755067C34.6902 0.524482 34.6003 0.292584 34.4189 0.145939C34.2376 -0.000707069 33.992 -0.0400612 33.7739 0.0425666L0.88636 10.5051C0.36532 10.6742 0.0105652 11.1573 0.00510961 11.7051L0.00510961 22.3926C0.00644088 22.9273 0.356216 23.3988 0.867622 23.5551L14.8551 27.9988L0.86761 32.4238C0.358246 32.6264 0.0188698 33.1133 0.00510961 33.6613L0.00510961 44.3301C-0.0232431 44.5529 0.0677396 44.7742 0.244613 44.9126C0.421486 45.051 0.658151 45.0861 0.86761 45.0051L33.7926 34.5613C34.304 34.405 34.6538 33.9336 34.6551 33.3988L34.6551 22.6551Z" transform="translate(5.169861 -0.04257202)" id="Shape" fill="#000000" stroke="none" />
      </g>
    </g>
    <g id="atom" transform="translate(155.38248 63.833374)">
      <path d="M0 0L52 0L52 52L0 52L0 0Z" id="Background" fill="none" stroke="none" />
      <g clip-path="url(#mask_5)">
        <path d="M26.5173 13.5793C33.3076 13.9368 39.6624 15.2367 44.3923 17.2517L44.4096 17.2626L44.4096 17.2843C49.458 19.4293 52.1446 22.2026 51.993 25.0843C51.863 27.6279 49.5988 29.8293 45.4713 31.4326C45.3565 31.4759 45.2351 31.4976 45.1095 31.4976C44.7065 31.4976 44.3381 31.2549 44.1865 30.8649C43.9871 30.3536 44.2428 29.7816 44.7498 29.5736C48.002 28.3126 49.9173 26.6378 50.004 24.9803C50.2011 21.1366 40.5703 16.3331 26.4219 15.5899C25.1046 15.5076 23.8349 15.4859 22.6649 15.4859L21.8113 15.4859C20.9056 16.6927 20.0151 17.9581 19.1593 19.2667C18.3034 20.5884 17.5234 21.9144 16.7868 23.2317C17.3566 24.5968 18.0001 25.9942 18.7368 27.4134C25.1631 40.0343 33.4701 46.8983 36.9151 45.1367C40.1868 43.4684 39.7751 33.5277 33.9468 21.3901C33.7085 20.8982 33.9251 20.3024 34.4235 20.0641C34.9131 19.8322 35.5068 20.0402 35.7451 20.5321C38.5488 26.3604 40.3601 32.2039 40.8454 36.9987C41.3698 42.1229 40.2973 45.6438 37.8164 46.9113C37.1751 47.2319 36.4601 47.3944 35.7018 47.3944C33.4029 47.3944 30.6123 45.9362 27.6093 43.1413C23.8393 39.6356 20.0584 34.3684 16.9709 28.3104C16.4943 27.3636 16.0393 26.4146 15.6059 25.4656C13.8704 28.9106 12.5986 32.2559 11.9053 35.2589C10.8956 39.6638 11.2553 42.8011 12.9019 43.8736C14.4576 44.8898 17.2743 44.0903 20.6196 41.7004C21.0681 41.3754 21.6878 41.4838 22.0063 41.9301C22.3226 42.3743 22.2229 42.9918 21.7679 43.3168C18.9946 45.2928 16.5419 46.2894 14.5161 46.2894C13.5043 46.2894 12.5943 46.0381 11.8143 45.5311C9.38761 43.9538 8.73761 40.1513 9.95095 34.8104C10.7764 31.2289 12.3754 27.2011 14.5811 23.1104C13.6494 20.8181 12.8911 18.5691 12.3061 16.4154C5.83211 17.6937 2.10111 20.0988 1.99278 22.4387C1.89094 24.1071 3.58095 25.9314 6.72261 27.5478C7.22095 27.7991 7.40295 28.3971 7.15594 28.8824C6.90028 29.3808 6.29795 29.5649 5.81261 29.3157C1.88011 27.2834 -0.124055 24.8697 0.00594491 22.3347C0.200945 18.7511 4.72928 15.9041 11.8381 14.4827C11.5564 13.2737 11.3614 12.0994 11.2098 10.9728C10.5598 5.53225 11.5998 1.80558 14.1781 0.490417C14.7133 0.226084 15.2983 0.067917 15.9179 0.0137504C17.9763 -0.137916 20.4939 0.967084 23.2239 3.22908C23.6443 3.58658 23.7071 4.20408 23.3539 4.62658C23.0073 5.05992 22.3746 5.10325 21.9543 4.75658C19.6793 2.86075 17.5928 1.88792 16.0826 2.00492C15.7099 2.03525 15.3914 2.11542 15.0924 2.27358C12.9604 3.35692 12.4058 7.86358 13.8054 14.1404C15.9548 13.8002 18.3078 13.5944 20.8081 13.5186C26.5498 6.10858 32.8114 1.29208 37.2531 1.12525C38.3581 1.08408 39.3548 1.33758 40.1781 1.87492C42.4748 3.37425 43.1898 6.76725 42.2148 11.7072C42.1064 12.2489 41.5864 12.5956 41.0448 12.4872C40.5248 12.3854 40.1781 11.8589 40.2648 11.3172C41.0448 7.36958 40.6136 4.53125 39.0839 3.53892C38.6116 3.23342 38.0201 3.08608 37.3224 3.11425C33.7799 3.24425 28.3979 7.36092 23.3756 13.4926C24.3788 13.4926 25.4339 13.5142 26.5173 13.5793ZM17.491 18.1704C16.906 19.0696 16.3643 19.9622 15.8356 20.8658C15.203 19.2018 14.683 17.5941 14.2691 16.0666C15.814 15.8283 17.4866 15.6549 19.2741 15.5466C18.6675 16.3916 18.0738 17.2669 17.4975 18.1683L17.4975 18.1466L17.491 18.1704ZM23.0159 23.6954C23.0159 22.0501 24.3498 20.7163 25.9951 20.7163C27.6405 20.7163 28.9743 22.0501 28.9743 23.6954C28.9743 25.3408 27.6405 26.6746 25.9951 26.6746C24.3498 26.6746 23.0159 25.3408 23.0159 23.6954Z" transform="translate(0.01574707 2.3045807)" id="Shape" fill="#000000" fill-rule="evenodd" stroke="none" />
      </g>
    </g>
  </g>
  <g id="User-Box" transform="translate(20.558655 526.5)">
    <g id="digitalocean" transform="translate(142 21)">
      <path d="M0 0L24 0L24 24L0 24L0 0Z" id="Background" fill="none" stroke="none" />
    </g>
    <g id="googlechrome" transform="translate(149.4413 1)">
      <path d="M4.14151 9.09883L12.9177 18.2637C13.4363 16.9954 14.2151 15.8499 15.2038 14.9013C16.995 13.1908 19.7028 12.0083 23.023 12.2375L41.7468 12.2375C38.0252 4.752 30.3545 0 21.9945 0C14.9306 0.00237433 8.29432 3.38458 4.14151 9.09883ZM19.8972 43.9028L23.7857 31.6525C21.9633 32.0173 20.0512 31.8358 18.2215 31.1355C14.6502 29.7678 12.9287 26.0242 12.5987 25.036L3.73633 9.67818C1.29983 13.31 0 17.5853 0 21.9578C0 33.2567 8.68633 42.7992 19.8972 43.9028ZM29.7257 15.9317L42.0365 12.8535C43.3305 15.711 43.9999 18.8118 44 21.9487C44 34.045 34.0432 44 21.9413 44C21.3877 44 20.8322 43.9798 20.2785 43.9377L29.271 28.6348C29.9237 27.9455 30.4718 27.1627 30.8862 26.3047C32.1914 23.5435 32.1624 20.3371 30.8074 17.6C30.5064 17.0074 30.1439 16.4482 29.7257 15.9317ZM21.9505 13.97C18.2728 14.0048 14.8408 16.8006 14.102 20.4086C13.5777 23.0967 14.4282 25.8692 16.3698 27.8006C18.5955 29.975 22.1265 30.6936 25.0488 29.5001C27.6302 28.4441 29.5772 25.9673 29.9823 23.21C30.481 19.8073 28.5377 16.1847 25.4082 14.7235C24.3253 14.2202 23.1445 13.9629 21.9505 13.97Z" id="Shape" fill="#000000" fill-rule="evenodd" stroke="none" />
    </g>
    <g id="firefoxbrowser" transform="translate(73 0)">
      <path d="M0 0L45 0L45 45L0 45L0 0Z" id="Background" fill="none" stroke="none" />
      <g clip-path="url(#mask_4)">
        <path d="M41.5725 14.9428C40.635 12.6872 38.7338 10.2496 37.2413 9.47902C38.4563 11.8603 39.1594 14.249 39.4275 16.0321L39.4313 16.0696C36.99 9.9834 32.85 7.52902 29.4675 2.18715C29.2988 1.91527 29.1263 1.64527 28.9613 1.36027C28.8756 1.21466 28.7955 1.0658 28.7213 0.914031C28.5815 0.642449 28.4739 0.355513 28.4006 0.0590256C28.4008 0.030029 28.3789 0.00567287 28.35 0.00277396C28.3371 -0.00092465 28.3235 -0.000924664 28.3106 0.00277395L28.2994 0.00652394C28.2933 0.00884728 28.2877 0.0120028 28.2825 0.015899C28.2851 0.0111832 28.2883 0.00677997 28.2919 0.00277392C23.4919 2.81527 21.5006 7.73902 20.9906 10.8721C19.5073 10.9562 18.0543 11.3268 16.7119 11.9634C16.4582 12.0881 16.3399 12.3845 16.4381 12.6496C16.4884 12.7932 16.5964 12.9092 16.7361 12.9694C16.8758 13.0296 17.0343 13.0286 17.1731 12.9665C18.3445 12.4137 19.6085 12.0837 20.9006 11.9934L21.0263 11.984C21.2048 11.9739 21.3836 11.9682 21.5625 11.9672C22.6103 11.96 23.6536 12.1047 24.66 12.3965L24.8363 12.4528C25.0032 12.5038 25.1689 12.5588 25.3332 12.6178C25.4534 12.6626 25.5727 12.7094 25.6913 12.7584C25.7888 12.7959 25.8844 12.8353 25.98 12.8765C26.1284 12.9425 26.2754 13.0119 26.4206 13.0846L26.6194 13.1859C26.7611 13.2597 26.9011 13.3366 27.0394 13.4165C27.1284 13.4689 27.2165 13.5226 27.3038 13.5778C28.8678 14.5452 30.1658 15.8876 31.08 17.4834C29.9269 16.6734 27.8625 15.8728 25.875 16.2197C33.6413 20.1009 31.5562 33.4715 20.7938 32.9672C19.8356 32.9274 18.8888 32.7441 17.985 32.4234C17.7707 32.3439 17.5588 32.2583 17.3495 32.1666C17.2268 32.1114 17.1054 32.0533 16.9856 31.9921C14.3494 30.629 12.1725 28.0546 11.9006 24.9272C11.9006 24.9272 12.8963 21.2128 19.0369 21.2128C19.7006 21.2128 21.5981 19.3603 21.6338 18.824C21.6244 18.6478 17.8669 17.1534 16.4025 15.7115C15.6188 14.939 15.2475 14.5678 14.9194 14.2865C14.7403 14.1358 14.5532 13.995 14.3588 13.8647C13.8669 12.143 13.8462 10.3208 14.2988 8.5884C12.0806 9.59903 10.3556 11.1947 9.10125 12.6047L9.09 12.6047C8.235 11.5209 8.295 7.9434 8.34375 7.19715C8.3325 7.15028 7.70625 7.5234 7.62187 7.57965C6.86686 8.11881 6.16099 8.72366 5.51251 9.38715C4.77456 10.136 4.10035 10.945 3.49687 11.8059L3.49687 11.8059C2.10852 13.7719 1.12331 15.9934 0.598127 18.3421C0.5925 18.3665 0.391875 19.2459 0.245625 20.3334C0.220696 20.5019 0.197568 20.6707 0.17625 20.8396C0.116044 21.2501 0.073504 21.663 0.0487499 22.0772L0.045 22.1409C0.0290035 22.3802 0.0146304 22.6196 0.00187743 22.859L0 22.9715C0 34.8928 9.6675 44.5584 21.5925 44.5584C32.2706 44.5584 41.1375 36.8053 42.8738 26.6221C42.9113 26.3465 42.9394 26.069 42.9713 25.7896C43.4025 22.0884 42.9244 18.1959 41.5725 14.9409L41.5725 14.9428Z" transform="translate(0.9375 0.22035217)" id="Shape" fill="#000000" stroke="none" />
      </g>
    </g>
    <g id="safari" transform="translate(0 1)">
      <path d="M0 21C0 32.5973 9.40275 42 21 42C32.5972 42 42 32.5972 42 21C42 9.40275 32.5972 0 21 0C9.40275 0 0 9.40275 0 21ZM40.6875 21C40.6875 31.8727 31.8727 40.6875 21 40.6875C10.1273 40.6875 1.3125 31.8727 1.3125 21C1.3125 10.1273 10.1273 1.3125 21 1.3125C31.8727 1.3125 40.6875 10.1273 40.6875 21ZM21.4375 3.5C21.9207 3.5 22.3125 3.69588 22.3125 3.9375L22.3125 5.6875C22.3125 5.92912 21.9207 6.125 21.4375 6.125C20.9543 6.125 20.5625 5.92912 20.5625 5.6875L20.5625 3.9375C20.5625 3.69588 20.9543 3.5 21.4375 3.5ZM14.4837 4.77401C14.7394 4.68399 15.0302 4.79201 15.1338 5.01551L15.884 6.63776C15.9878 6.86199 15.8642 7.11741 15.6079 7.20826C15.3516 7.29911 15.0596 7.19098 14.9558 6.96676L14.2076 5.34451C14.1576 5.23684 14.1585 5.11618 14.2103 5.00915C14.2621 4.90212 14.3605 4.81751 14.4837 4.77401ZM27.9901 4.89126C28.1098 4.93641 28.2045 5.0223 28.2533 5.12998C28.3021 5.23766 28.301 5.35829 28.2503 5.46526L27.4855 7.07526C27.4219 7.2252 27.2718 7.33205 27.0942 7.35372C26.9167 7.37539 26.7401 7.30841 26.634 7.17916C26.5279 7.04991 26.5094 6.8791 26.5856 6.73401L27.3485 5.12401C27.399 5.01694 27.495 4.93223 27.6154 4.88857C27.7357 4.84491 27.8706 4.84587 27.9901 4.89126ZM33.3743 8.62574C33.5445 8.79649 33.5445 9.07275 33.3743 9.24349L32.137 10.4825C32.0984 10.5211 32.0544 10.551 32.0075 10.5721L33.3743 8.62575L33.3743 8.62574ZM10.5722 32.0074L23.1648 23.1648L32.0075 10.5721C31.8463 10.6449 31.65 10.615 31.5176 10.4825C31.385 10.3501 31.3551 10.1538 31.4278 9.99255L33.3743 8.62575C33.2035 8.45553 32.9272 8.45553 32.7565 8.62574L31.5174 9.8631C31.4789 9.90166 31.449 9.94563 31.4278 9.99255L18.8353 18.8353L9.99259 31.4278C9.94477 31.4494 9.90078 31.4796 9.863 31.5175L8.62575 32.7565C8.50487 32.8646 8.45366 33.0306 8.4927 33.188C8.53174 33.3454 8.65462 33.4683 8.812 33.5073C8.96937 33.5463 9.13544 33.4951 9.2435 33.3743L10.4825 32.137C10.5204 32.0992 10.5506 32.0552 10.5722 32.0074ZM10.5722 32.0074L8.62575 33.3743L9.99259 31.4278C10.0487 31.4024 10.11 31.389 10.1728 31.389C10.289 31.389 10.4004 31.4352 10.4825 31.5175C10.5648 31.5996 10.611 31.711 10.611 31.8273C10.611 31.89 10.5976 31.9513 10.5722 32.0074ZM8.62576 8.6275C8.7965 8.45729 9.07276 8.45729 9.24351 8.6275L10.4825 9.86475C10.6536 10.0358 10.6536 10.3131 10.4826 10.4842C10.3115 10.6553 10.0342 10.6554 9.86311 10.4844L8.62576 9.24525C8.45555 9.07451 8.45555 8.79825 8.62576 8.6275ZM4.89124 14.1968C4.9364 14.0761 5.02228 13.9806 5.12997 13.9314C5.23765 13.8822 5.35828 13.8833 5.46524 13.9344L7.07524 14.7057C7.28792 14.8185 7.38355 15.1005 7.29182 15.3444C7.20009 15.5884 6.95378 15.707 6.73399 15.6131L5.12399 14.8438C5.01693 14.7929 4.93222 14.6961 4.88856 14.5747C4.84489 14.4533 4.84586 14.3174 4.89124 14.1968ZM37.226 14.4819C37.316 14.7377 37.208 15.0285 36.9845 15.1321L35.3622 15.8823C35.2172 15.9496 35.0518 15.9232 34.9283 15.8132C34.8049 15.7032 34.7421 15.5262 34.7638 15.349C34.7854 15.1718 34.8881 15.0212 35.0332 14.9541L36.6555 14.2059C36.7632 14.1558 36.8838 14.1568 36.9909 14.2086C37.0979 14.2604 37.1825 14.3587 37.226 14.4819ZM22.5365 22.5365L19.46 19.46L12.2133 29.785L22.5365 22.5365ZM36.3125 20.5625C36.0709 20.5625 35.875 20.9543 35.875 21.4375C35.875 21.9207 36.0709 22.3125 36.3125 22.3125L38.0625 22.3125C38.3041 22.3125 38.5 21.9207 38.5 21.4375C38.5 20.9543 38.3041 20.5625 38.0625 20.5625L36.3125 20.5625ZM3.5 21.4375C3.5 20.9543 3.69588 20.5625 3.9375 20.5625L5.6875 20.5625C5.92912 20.5625 6.125 20.9543 6.125 21.4375C6.125 21.9207 5.92912 22.3125 5.6875 22.3125L3.9375 22.3125C3.69588 22.3125 3.5 21.9207 3.5 21.4375ZM7.20587 26.9902C7.25117 26.8683 7.25203 26.7309 7.20825 26.6082C7.16474 26.4855 7.08014 26.3875 6.9731 26.3359C6.86607 26.2843 6.74541 26.2834 6.63775 26.3332L5.0155 27.0806C4.86545 27.1433 4.75739 27.2942 4.73363 27.4742C4.70987 27.6542 4.77421 27.8347 4.90143 27.9449C5.02866 28.055 5.19852 28.0774 5.3445 28.0033L6.96675 27.2579C7.07452 27.2084 7.16056 27.112 7.20587 26.9902ZM35.266 26.5849C35.0442 26.4801 34.7885 26.5957 34.6938 26.8434L34.692 26.8434C34.6466 26.9631 34.6457 27.0981 34.6893 27.2186C34.733 27.3391 34.8177 27.4353 34.9248 27.4858L36.5348 28.2497C36.6799 28.3261 36.8507 28.3075 36.9799 28.2013C37.1092 28.0951 37.1761 27.9182 37.1545 27.7404C37.1328 27.5626 37.0259 27.4123 36.876 27.3487L35.266 26.5849ZM31.8273 31.389C31.711 31.389 31.5996 31.4352 31.5175 31.5175C31.4352 31.5996 31.389 31.711 31.389 31.8273C31.389 31.9435 31.4352 32.0549 31.5175 32.137L32.7565 33.3743C32.8646 33.4951 33.0306 33.5463 33.188 33.5073C33.3454 33.4683 33.4683 33.3454 33.5073 33.188C33.5463 33.0306 33.4951 32.8646 33.3743 32.7565L32.137 31.5175C32.0549 31.4352 31.9435 31.389 31.8273 31.389ZM15.6161 35.266C15.7217 35.0442 15.6052 34.7884 15.3554 34.6937L15.3554 34.692C15.2346 34.6466 15.0985 34.6456 14.9769 34.6893C14.8554 34.733 14.7585 34.8177 14.7075 34.9247L13.9372 36.5347C13.8432 36.7545 13.962 37.0008 14.2062 37.0926C14.4504 37.1843 14.7328 37.0887 14.8458 36.876L15.6161 35.266ZM26.9919 34.7941C26.87 34.7488 26.7326 34.748 26.61 34.7917C26.4873 34.8353 26.3893 34.9199 26.3377 35.0269C26.2861 35.1339 26.2851 35.2546 26.335 35.3622L27.0823 36.9845C27.1451 37.1345 27.296 37.2426 27.476 37.2664C27.656 37.2901 27.8364 37.2258 27.9466 37.0986C28.0568 36.9713 28.0792 36.8015 28.005 36.6555L27.2597 35.0332C27.2101 34.9255 27.1138 34.8394 26.9919 34.7941ZM22.3125 36.3125C22.3125 36.0709 21.9207 35.875 21.4375 35.875C20.9543 35.875 20.5625 36.0709 20.5625 36.3125L20.5625 38.0625C20.5625 38.3041 20.9543 38.5 21.4375 38.5C21.9207 38.5 22.3125 38.3041 22.3125 38.0625L22.3125 36.3125Z" id="Shape" fill="#000000" fill-rule="evenodd" stroke="none" />
    </g>
  </g>
  <path d="M7.999 0C18.2158 0 36.7536 0 54.8899 0C72.7492 0 90.2192 0 100.001 0C104.419 0 108 3.58127 108 7.999L108 26.001Q108 26.1974 107.99 26.3935Q107.981 26.5896 107.961 26.785Q107.942 26.9805 107.913 27.1747Q107.885 27.3689 107.846 27.5615Q107.808 27.7541 107.76 27.9446Q107.713 28.1351 107.656 28.323Q107.599 28.5109 107.532 28.6958Q107.466 28.8807 107.391 29.0621Q107.316 29.2435 107.232 29.421Q107.148 29.5985 107.055 29.7717Q106.963 29.9449 106.862 30.1133Q106.761 30.2817 106.652 30.445Q106.543 30.6083 106.426 30.766Q106.309 30.9237 106.184 31.0755Q106.06 31.2273 105.928 31.3728Q105.796 31.5183 105.657 31.6571Q105.518 31.796 105.373 31.9279Q105.227 32.0597 105.076 32.1843Q104.924 32.3089 104.766 32.4259Q104.608 32.5428 104.445 32.6519Q104.282 32.761 104.113 32.862Q103.945 32.9629 103.772 33.0555Q103.599 33.148 103.421 33.232Q103.243 33.316 103.062 33.3911Q102.881 33.4663 102.696 33.5324Q102.511 33.5986 102.323 33.6556Q102.135 33.7126 101.945 33.7603Q101.754 33.808 101.562 33.8463Q101.369 33.8846 101.175 33.9134Q100.98 33.9422 100.785 33.9615Q100.59 33.9807 100.394 33.9904Q100.197 34 100.001 34L7.999 34Q7.80264 34 7.60651 33.9904Q7.41038 33.9807 7.21496 33.9615Q7.01954 33.9422 6.8253 33.9134Q6.63106 33.8846 6.43847 33.8463Q6.24588 33.808 6.0554 33.7603Q5.86492 33.7126 5.67701 33.6556Q5.4891 33.5986 5.30422 33.5324Q5.11933 33.4663 4.93791 33.3911Q4.7565 33.316 4.57899 33.232Q4.40148 33.148 4.2283 33.0555Q4.05512 32.9629 3.88669 32.862Q3.71826 32.761 3.55499 32.6519Q3.39172 32.5428 3.234 32.4259Q3.07628 32.3089 2.92449 32.1843Q2.7727 32.0597 2.6272 31.9279Q2.4817 31.796 2.34285 31.6571Q2.204 31.5183 2.07213 31.3728Q1.94026 31.2273 1.81569 31.0755Q1.69112 30.9237 1.57414 30.766Q1.45717 30.6083 1.34807 30.445Q1.23898 30.2817 1.13803 30.1133Q1.03708 29.9449 0.944512 29.7717Q0.851946 29.5985 0.76799 29.421Q0.684033 29.2435 0.608888 29.0621Q0.533742 28.8807 0.467589 28.6958Q0.401436 28.5109 0.344434 28.323Q0.287433 28.1351 0.23972 27.9446Q0.192007 27.7541 0.153699 27.5615Q0.11539 27.3689 0.0865771 27.1747Q0.0577644 26.9805 0.0385174 26.785Q0.0192703 26.5896 0.00963514 26.3935Q0 26.1974 0 26.001L0 7.999C0 3.58127 3.58127 0 7.999 0Z" transform="translate(60 164)" id="Rectangle-2" fill="#000000" stroke="none" />
  <g id="DEPLOY" fill="#FFFFFF" transform="translate(84.5 168)">
    <path d="M54.444 14.852Q54.528 14.12 54.624 13.736Q55.08 13.064 55.632 12.224Q56.184 11.384 56.748 10.52Q57.312 9.656 57.852 8.804Q58.392 7.952 58.8 7.232Q58.92 6.968 58.884 6.632Q58.848 6.296 58.656 6.152Q58.44 5.96 58.104 6.008Q57.768 6.056 57.456 6.536Q56.616 7.904 55.644 9.416Q54.672 10.928 53.592 12.368Q53.352 11.936 53.04 11.324Q52.728 10.712 52.416 10.04Q52.104 9.368 51.816 8.72Q51.528 8.072 51.336 7.568Q51.144 7.304 50.892 7.244Q50.64 7.184 50.376 7.208Q50.136 7.256 50.04 7.412Q49.944 7.568 49.932 7.784Q49.92 8 49.98 8.252Q50.04 8.504 50.136 8.72Q50.64 9.968 51.372 11.456Q52.104 12.944 52.944 14.48Q52.824 15.728 52.752 16.904Q52.68 18.08 52.68 19.088Q52.68 19.496 52.908 19.64Q53.136 19.784 53.4 19.784Q54.168 19.784 54.168 19.088Q54.168 18.68 54.204 17.936Q54.24 17.192 54.3 16.388Q54.36 15.584 54.444 14.852ZM23.472 19.136Q23.448 19.4 23.316 19.628Q23.184 19.856 22.92 19.832Q22.512 19.808 22.212 19.52Q21.912 19.232 21.912 19.04Q21.936 16.952 21.78 14.78Q21.624 12.608 21.288 10.448Q21.288 10.352 21.336 10.232Q21.384 10.136 21.456 10.004Q21.528 9.872 21.696 9.752Q21.864 9.68 22.068 9.776Q22.272 9.872 22.464 10.064Q22.656 10.256 22.8 10.496Q22.944 10.736 23.016 10.952Q23.088 11.432 23.16 12.008Q23.232 12.584 23.28 13.208Q23.856 12.896 24.384 12.512Q24.912 12.128 25.308 11.672Q25.704 11.216 25.92 10.724Q26.136 10.232 26.064 9.704Q26.016 9.296 25.704 8.96Q25.392 8.624 24.744 8.456Q23.256 8.12 22.08 8.42Q20.904 8.72 19.824 9.416Q19.512 9.656 19.248 9.704Q18.984 9.752 18.792 9.68Q18.6 9.608 18.504 9.464Q18.408 9.32 18.408 9.176Q18.456 8.624 18.948 8.18Q19.44 7.736 19.992 7.424Q20.712 7.064 21.768 6.824Q22.824 6.584 23.892 6.644Q24.96 6.704 25.896 7.16Q26.832 7.616 27.336 8.624Q27.792 9.824 27.54 10.784Q27.288 11.744 26.64 12.536Q25.992 13.328 25.104 13.988Q24.216 14.648 23.424 15.2Q23.472 16.256 23.484 17.264Q23.496 18.272 23.472 19.136ZM0.456 9.632Q0.72 9.752 1.08 9.608Q1.488 9.464 1.896 9.392Q1.896 11.192 1.956 13.364Q2.016 15.536 2.304 17.864Q2.064 18.08 2.052 18.284Q2.04 18.488 2.088 18.608Q2.208 18.776 2.544 18.896Q2.88 19.016 3.528 18.848Q4.464 18.464 5.244 17.78Q6.024 17.096 6.588 16.256Q7.152 15.416 7.476 14.456Q7.8 13.496 7.848 12.536Q7.872 11.624 7.572 10.796Q7.272 9.968 6.708 9.32Q6.144 8.672 5.34 8.252Q4.536 7.832 3.576 7.736Q2.616 7.64 1.776 7.844Q0.936 8.048 0.384 8.36Q0.048 8.552 -0.024 8.816Q-0.096 9.08 0.072 9.32Q0.192 9.512 0.456 9.632ZM16.488 13.604Q16.776 13.376 16.68 13.136Q16.296 12.728 15.816 12.56Q15.336 12.392 14.832 12.44Q14.208 12.488 13.152 12.62Q12.096 12.752 11.088 12.92L11.136 11.672Q11.16 11.048 11.208 10.424Q11.208 10.376 11.196 10.316Q11.184 10.256 11.184 10.208Q11.664 10.136 12.204 10.076Q12.744 10.016 13.284 9.944Q13.824 9.872 14.328 9.812Q14.832 9.752 15.192 9.704Q15.552 9.656 15.78 9.488Q16.008 9.32 15.912 8.984Q15.504 8.576 15.036 8.432Q14.568 8.288 14.064 8.336Q13.632 8.36 13.02 8.432Q12.408 8.504 11.748 8.6Q11.088 8.696 10.464 8.816Q9.84 8.936 9.408 9.032Q9.144 9.128 9.048 9.308Q8.952 9.488 8.952 9.704Q8.952 9.968 9.156 10.184Q9.36 10.4 9.624 10.448Q9.576 11.144 9.552 11.852Q9.528 12.56 9.48 13.256Q9.096 13.424 9.048 13.88Q9.048 14.312 9.456 14.552Q9.408 15.752 9.456 16.928Q9.48 17.768 9.888 18.212Q10.296 18.656 11.088 18.632Q12.456 18.608 13.896 18.26Q15.336 17.912 16.824 17.432Q17.04 17.36 17.316 17.228Q17.592 17.096 17.844 16.94Q18.096 16.784 18.264 16.64Q18.432 16.496 18.432 16.424Q18.432 16.16 18.288 16.016Q18.144 15.872 17.916 15.836Q17.688 15.8 17.4 15.836Q17.112 15.872 16.848 15.944Q16.32 16.064 15.564 16.244Q14.808 16.424 13.992 16.592Q13.176 16.76 12.396 16.868Q11.616 16.976 11.064 16.976Q11.016 15.752 11.064 14.528Q12.24 14.36 13.368 14.204Q14.496 14.048 15.576 13.904Q16.2 13.832 16.488 13.604ZM31.32 11.3Q31.416 10.28 31.536 9.44Q31.56 9.032 31.452 8.684Q31.344 8.336 30.792 8.408Q30.456 8.456 30.228 8.72Q30 8.984 29.952 9.392Q29.712 11.336 29.544 13.292Q29.376 15.248 29.256 17.192Q29.184 18.224 29.568 18.68Q29.952 19.136 30.696 18.944Q31.512 18.728 32.448 18.512L34.32 18.08Q35.256 17.864 36.144 17.648Q37.032 17.432 37.776 17.24Q37.92 17.096 38.1 17.024Q38.28 16.952 38.448 16.868Q38.616 16.784 38.736 16.628Q38.856 16.472 38.856 16.16Q38.856 15.944 38.664 15.848Q38.568 15.8 38.496 15.8Q37.68 15.872 36.684 16.028Q35.688 16.184 34.656 16.388Q33.624 16.592 32.628 16.784Q31.632 16.976 30.816 17.12Q30.864 16.376 30.948 15.392Q31.032 14.408 31.128 13.364Q31.224 12.32 31.32 11.3ZM48.216 14.024Q48.072 14.696 47.7 15.308Q47.328 15.92 46.848 16.448Q46.368 16.976 45.804 17.36Q45.24 17.744 44.664 17.96Q43.608 18.344 42.564 18.212Q41.52 18.08 40.704 17.264Q40.152 16.592 39.924 15.752Q39.696 14.912 39.708 14.036Q39.72 13.16 39.948 12.344Q40.176 11.528 40.536 10.88Q40.968 10.112 41.568 9.608Q42.168 9.104 42.888 9.008Q43.08 8.96 43.2 9.104Q43.32 9.248 43.32 9.44Q43.56 9.2 44.064 9.08Q44.568 8.96 45.192 9.056Q46.344 9.2 47.016 9.752Q47.688 10.304 48.012 11.036Q48.336 11.768 48.348 12.572Q48.36 13.376 48.216 14.024ZM3.396 9.26Q3.552 9.272 3.696 9.296Q5.088 9.584 5.712 10.508Q6.336 11.432 6.312 12.632Q6.264 13.928 5.508 15.092Q4.752 16.256 3.696 17.024Q3.504 15.08 3.468 13.4Q3.432 11.72 3.432 10.256Q3.432 9.992 3.336 9.716Q3.24 9.44 3.096 9.248Q3.24 9.248 3.396 9.26ZM42.984 10.712Q42.504 10.928 42.18 11.348Q41.856 11.768 41.652 12.296Q41.448 12.824 41.388 13.436Q41.328 14.048 41.376 14.624Q41.448 15.464 41.88 16.004Q42.312 16.544 43.224 16.544Q43.752 16.544 44.268 16.34Q44.784 16.136 45.216 15.8Q45.648 15.464 46.008 14.996Q46.368 14.528 46.584 14.024Q46.704 13.76 46.776 13.364Q46.848 12.968 46.824 12.548Q46.8 12.128 46.632 11.744Q46.464 11.36 46.104 11.096Q45.6 10.736 44.904 10.664Q44.208 10.592 43.44 10.976Q43.296 11.072 43.116 11.012Q42.936 10.952 42.984 10.712Z" />
  </g>
  <path d="M7.999 0C17.977 0 35.8633 0 53.3651 0C70.594 0 87.4501 0 97.001 0C101.419 0 105 3.58127 105 7.999L105 16.001Q105 16.1974 104.99 16.3935Q104.981 16.5896 104.961 16.785Q104.942 16.9805 104.913 17.1747Q104.885 17.3689 104.846 17.5615Q104.808 17.7541 104.76 17.9446Q104.713 18.1351 104.656 18.323Q104.599 18.5109 104.532 18.6958Q104.466 18.8807 104.391 19.0621Q104.316 19.2435 104.232 19.421Q104.148 19.5985 104.055 19.7717Q103.963 19.9449 103.862 20.1133Q103.761 20.2817 103.652 20.445Q103.543 20.6083 103.426 20.766Q103.309 20.9237 103.184 21.0755Q103.06 21.2273 102.928 21.3728Q102.796 21.5183 102.657 21.6571Q102.518 21.796 102.373 21.9279Q102.227 22.0597 102.076 22.1843Q101.924 22.3089 101.766 22.4259Q101.608 22.5428 101.445 22.6519Q101.282 22.761 101.113 22.862Q100.945 22.9629 100.772 23.0555Q100.599 23.1481 100.421 23.232Q100.243 23.316 100.062 23.3911Q99.8807 23.4663 99.6958 23.5324Q99.5109 23.5986 99.323 23.6556Q99.1351 23.7126 98.9446 23.7603Q98.7541 23.808 98.5615 23.8463Q98.3689 23.8846 98.1747 23.9134Q97.9805 23.9422 97.785 23.9615Q97.5896 23.9807 97.3935 23.9904Q97.1974 24 97.001 24L7.999 24Q7.80264 24 7.60651 23.9904Q7.41038 23.9807 7.21496 23.9615Q7.01954 23.9422 6.8253 23.9134Q6.63106 23.8846 6.43847 23.8463Q6.24588 23.808 6.0554 23.7603Q5.86492 23.7126 5.67701 23.6556Q5.4891 23.5986 5.30422 23.5324Q5.11933 23.4663 4.93791 23.3911Q4.7565 23.316 4.57899 23.232Q4.40148 23.1481 4.2283 23.0555Q4.05512 22.9629 3.88669 22.862Q3.71826 22.761 3.55499 22.6519Q3.39172 22.5428 3.234 22.4259Q3.07628 22.3089 2.92449 22.1843Q2.7727 22.0597 2.6272 21.9279Q2.4817 21.796 2.34285 21.6571Q2.204 21.5183 2.07213 21.3728Q1.94026 21.2273 1.81569 21.0755Q1.69112 20.9237 1.57414 20.766Q1.45717 20.6083 1.34807 20.445Q1.23898 20.2817 1.13803 20.1133Q1.03708 19.9449 0.944512 19.7717Q0.851946 19.5985 0.76799 19.421Q0.684033 19.2435 0.608888 19.0621Q0.533742 18.8807 0.467589 18.6958Q0.401436 18.5109 0.344434 18.323Q0.287433 18.1351 0.23972 17.9446Q0.192007 17.7541 0.153699 17.5615Q0.11539 17.3689 0.0865771 17.1747Q0.0577644 16.9805 0.0385174 16.785Q0.0192703 16.5896 0.00963514 16.3935Q0 16.1974 0 16.001L0 7.999C0 3.58127 3.58127 0 7.999 0Z" transform="translate(10 398)" id="Rectangle-3" fill="#C9D3D9" stroke="none" />
  <g id="REQUEST" fill="#FFFFFF" transform="translate(26 401)">
    <path d="M30.9744 12.7188Q31.6761 11.3807 31.6761 9.5Q31.6761 7.61932 30.9744 6.28125Q30.2727 4.94318 29.0653 4.23295Q27.858 3.52273 26.3295 3.52273Q24.8011 3.52273 23.5938 4.23295Q22.3864 4.94318 21.6847 6.28125Q20.983 7.61932 20.983 9.5Q20.983 11.375 21.6847 12.7131Q22.3864 14.0511 23.5938 14.7642Q24.8011 15.4773 26.3295 15.4773Q27.4453 15.4773 28.39 15.0988L29.3523 16.3182L31.3977 16.3182L29.7862 14.2483Q30.4973 13.6287 30.9744 12.7188ZM61.4716 6.88068Q61.392 6.13636 60.804 5.72159Q60.2159 5.30682 59.2784 5.30682Q58.6193 5.30682 58.1477 5.50568Q57.6761 5.70455 57.4261 6.04545Q57.1761 6.38636 57.1705 6.82386Q57.1705 7.1875 57.3381 7.45455Q57.5057 7.72159 57.7955 7.90625Q58.0852 8.09091 58.4375 8.21591Q58.7898 8.34091 59.1477 8.42614L60.2386 8.69886Q60.8977 8.85227 61.5085 9.11364Q62.1193 9.375 62.6051 9.77273Q63.0909 10.1705 63.375 10.733Q63.6591 11.2955 63.6591 12.0511Q63.6591 13.0739 63.1364 13.8494Q62.6136 14.625 61.6278 15.0597Q60.642 15.4943 59.2443 15.4943Q57.8864 15.4943 56.8892 15.0739Q55.892 14.6534 55.3324 13.8466Q54.7727 13.0398 54.7273 11.8807L56.8011 11.8807Q56.8466 12.4886 57.1761 12.892Q57.5057 13.2955 58.0369 13.4943Q58.5682 13.6932 59.2273 13.6932Q59.9148 13.6932 60.4347 13.4858Q60.9545 13.2784 61.25 12.9063Q61.5455 12.5341 61.5511 12.0341Q61.5455 11.5795 61.2841 11.2813Q61.0227 10.983 60.554 10.7813Q60.0852 10.5795 59.4602 10.4205L58.1364 10.0795Q56.6989 9.71023 55.8665 8.95739Q55.0341 8.20455 55.0341 6.95455Q55.0341 5.92614 55.5938 5.15341Q56.1534 4.38068 57.1193 3.9517Q58.0852 3.52273 59.3068 3.52273Q60.5455 3.52273 61.4801 3.9517Q62.4148 4.38068 62.9489 5.1392Q63.483 5.89773 63.5 6.88068L61.4716 6.88068ZM1.14773 15.3182L1.14773 3.68182L5.51136 3.68182Q6.85227 3.68182 7.7642 4.14773Q8.67614 4.61364 9.14489 5.4517Q9.61364 6.28977 9.61364 7.40341Q9.61364 8.52273 9.1392 9.34375Q8.66477 10.1648 7.74432 10.6108Q7.63603 10.6633 7.52192 10.7096L10.0398 15.3182L7.6875 15.3182L5.40069 11.0568L3.25568 11.0568L3.25568 15.3182L1.14773 15.3182ZM11.5568 15.3182L11.5568 3.68182L19.125 3.68182L19.125 5.44886L13.6648 5.44886L13.6648 8.60795L18.733 8.60795L18.733 10.375L13.6648 10.375L13.6648 13.5511L19.1705 13.5511L19.1705 15.3182L11.5568 15.3182ZM41.0227 3.68182L43.1307 3.68182L43.1307 11.2841Q43.1307 12.5341 42.5426 13.483Q41.9545 14.4318 40.892 14.9631Q39.8295 15.4943 38.4091 15.4943Q36.983 15.4943 35.9205 14.9631Q34.858 14.4318 34.2727 13.483Q33.6875 12.5341 33.6875 11.2841L33.6875 3.68182L35.7955 3.68182L35.7955 11.108Q35.7955 11.8352 36.1165 12.4034Q36.4375 12.9716 37.0227 13.2926Q37.608 13.6136 38.4091 13.6136Q39.2102 13.6136 39.7983 13.2926Q40.3864 12.9716 40.7045 12.4034Q41.0227 11.8352 41.0227 11.108L41.0227 3.68182ZM52.9943 3.68182L45.4261 3.68182L45.4261 15.3182L53.0398 15.3182L53.0398 13.5511L47.5341 13.5511L47.5341 10.375L52.6023 10.375L52.6023 8.60795L47.5341 8.60795L47.5341 5.44886L52.9943 5.44886L52.9943 3.68182ZM65.0227 3.68182L65.0227 5.44886L68.6193 5.44886L68.6193 15.3182L70.7102 15.3182L70.7102 5.44886L74.3068 5.44886L74.3068 3.68182L65.0227 3.68182ZM28.5143 12.6947Q28.89 12.3001 29.1449 11.7358Q29.5568 10.8239 29.5568 9.5Q29.5568 8.17614 29.1449 7.2642Q28.733 6.35227 28.0057 5.88352Q27.2784 5.41477 26.3295 5.41477Q25.3807 5.41477 24.6534 5.88352Q23.9261 6.35227 23.5142 7.2642Q23.1023 8.17614 23.1023 9.5Q23.1023 10.8239 23.5142 11.7358Q23.9261 12.6477 24.6534 13.1165Q25.3807 13.5852 26.3295 13.5852Q26.7836 13.5852 27.1869 13.4779L25.6136 11.4091L27.5227 11.4091L28.5143 12.6947ZM5.19886 9.30682L3.25568 9.30682L3.25568 5.44318L5.1875 5.44318Q5.97727 5.44318 6.47727 5.6733Q6.97727 5.90341 7.22159 6.34375Q7.46591 6.78409 7.46591 7.40341Q7.46591 8.02273 7.22443 8.44602Q6.98295 8.86932 6.48295 9.08807Q5.98295 9.30682 5.19886 9.30682Z" />
  </g>
  <path d="M7.999 0C17.977 0 35.8633 0 53.3651 0C70.594 0 87.4501 0 97.001 0C101.419 0 105 3.58127 105 7.999L105 23.001Q105 23.1974 104.99 23.3935Q104.981 23.5896 104.961 23.785Q104.942 23.9805 104.913 24.1747Q104.885 24.3689 104.846 24.5615Q104.808 24.7541 104.76 24.9446Q104.713 25.1351 104.656 25.323Q104.599 25.5109 104.532 25.6958Q104.466 25.8807 104.391 26.0621Q104.316 26.2435 104.232 26.421Q104.148 26.5985 104.055 26.7717Q103.963 26.9449 103.862 27.1133Q103.761 27.2817 103.652 27.445Q103.543 27.6083 103.426 27.766Q103.309 27.9237 103.184 28.0755Q103.06 28.2273 102.928 28.3728Q102.796 28.5183 102.657 28.6571Q102.518 28.796 102.373 28.9279Q102.227 29.0597 102.076 29.1843Q101.924 29.3089 101.766 29.4259Q101.608 29.5428 101.445 29.6519Q101.282 29.761 101.113 29.862Q100.945 29.9629 100.772 30.0555Q100.599 30.1481 100.421 30.232Q100.243 30.316 100.062 30.3911Q99.8807 30.4663 99.6958 30.5324Q99.5109 30.5986 99.323 30.6556Q99.1351 30.7126 98.9446 30.7603Q98.7541 30.808 98.5615 30.8463Q98.3689 30.8846 98.1747 30.9134Q97.9805 30.9422 97.785 30.9615Q97.5896 30.9807 97.3935 30.9904Q97.1974 31 97.001 31L7.999 31Q7.80264 31 7.60651 30.9904Q7.41038 30.9807 7.21496 30.9615Q7.01954 30.9422 6.8253 30.9134Q6.63106 30.8846 6.43847 30.8463Q6.24588 30.808 6.0554 30.7603Q5.86492 30.7126 5.67701 30.6556Q5.4891 30.5986 5.30422 30.5324Q5.11933 30.4663 4.93791 30.3911Q4.7565 30.316 4.57899 30.232Q4.40148 30.1481 4.2283 30.0555Q4.05512 29.9629 3.88669 29.862Q3.71826 29.761 3.55499 29.6519Q3.39172 29.5428 3.234 29.4259Q3.07628 29.3089 2.92449 29.1843Q2.7727 29.0597 2.6272 28.9279Q2.4817 28.796 2.34285 28.6571Q2.204 28.5183 2.07213 28.3728Q1.94026 28.2273 1.81569 28.0755Q1.69112 27.9237 1.57414 27.766Q1.45717 27.6083 1.34807 27.445Q1.23898 27.2817 1.13803 27.1133Q1.03708 26.9449 0.944512 26.7717Q0.851946 26.5985 0.76799 26.421Q0.684033 26.2435 0.608888 26.0621Q0.533742 25.8807 0.467589 25.6958Q0.401436 25.5109 0.344434 25.323Q0.287433 25.1351 0.23972 24.9446Q0.192007 24.7541 0.153699 24.5615Q0.11539 24.3689 0.0865771 24.1747Q0.0577644 23.9805 0.0385174 23.785Q0.0192703 23.5896 0.00963514 23.3935Q0 23.1974 0 23.001L0 7.999C0 3.58127 3.58127 0 7.999 0Z" transform="translate(10 398)" id="Rectangle-4" fill="#000000" stroke="none" />
  <g id="REQUEST" fill="#FFFFFF" transform="translate(27 401)">
    <path d="M2.664 18.704Q2.592 17.816 2.556 16.688Q2.52 15.56 2.52 14.372Q2.52 13.184 2.532 12.032Q2.544 10.88 2.592 9.944Q2.592 9.704 2.82 9.572Q3.048 9.44 3.192 9.464Q3.624 9.512 3.78 9.764Q3.936 10.016 3.984 10.472Q3.96 11.24 3.948 12.008Q3.936 12.776 3.96 13.544Q5.04 13.352 5.772 12.752Q6.504 12.152 6.816 11.384Q6.936 11.096 6.996 10.688Q7.056 10.28 7.008 9.86Q6.96 9.44 6.78 9.068Q6.6 8.696 6.24 8.48Q5.712 8.168 5.088 8.144Q4.464 8.12 3.804 8.324Q3.144 8.528 2.508 8.96Q1.872 9.392 1.32 9.992Q1.392 10.352 1.224 10.628Q1.056 10.904 0.744 11.024Q0.552 11.072 0.288 10.82Q0.024 10.568 0.024 10.304Q0.024 9.344 0.564 8.636Q1.104 7.928 1.92 7.448Q2.736 6.968 3.672 6.728Q4.608 6.488 5.4 6.488Q6.576 6.488 7.368 7.172Q8.16 7.856 8.448 8.888Q8.952 10.688 8.196 12.128Q7.44 13.568 5.736 14.624Q6.984 15.392 8.076 16.088Q9.168 16.784 10.272 17.6Q10.416 17.744 10.596 18.02Q10.776 18.296 10.536 18.848Q10.392 19.184 10.044 19.22Q9.696 19.256 9.36 19.016Q8.832 18.584 8.172 18.116Q7.512 17.648 6.792 17.18Q6.072 16.712 5.352 16.268Q4.632 15.824 3.984 15.44Q4.008 16.4 4.02 17.348Q4.032 18.296 4.08 19.208Q4.08 19.544 3.888 19.676Q3.696 19.808 3.408 19.808Q3.264 19.784 3.144 19.652Q3.024 19.52 2.916 19.34Q2.808 19.16 2.736 18.98Q2.664 18.8 2.664 18.704ZM59.232 8.864Q59.136 8.984 58.884 9.044Q58.632 9.104 58.368 8.912Q58.176 8.768 57.912 8.612Q57.648 8.456 57.336 8.312Q57.024 8.168 56.712 8.072Q56.4 7.976 56.112 7.976Q55.752 7.976 55.356 8.144Q54.96 8.312 54.672 8.624Q54.12 9.224 54.276 9.788Q54.432 10.352 55.104 10.832Q55.536 11.144 56.04 11.468Q56.544 11.792 57.036 12.104Q57.528 12.416 57.972 12.704Q58.416 12.992 58.752 13.208Q59.184 13.496 59.568 13.832Q59.952 14.168 60.24 14.588Q60.528 15.008 60.696 15.536Q60.864 16.064 60.864 16.736Q60.696 18.056 59.82 18.836Q58.944 19.616 57.792 19.832Q56.784 20.024 55.812 19.76Q54.84 19.496 54.168 18.752Q54 18.56 53.88 18.224Q53.76 17.888 53.856 17.744Q54 17.528 54.36 17.444Q54.72 17.36 54.912 17.48Q55.464 17.984 56.208 18.212Q56.952 18.44 57.768 18.248Q58.392 18.104 58.776 17.708Q59.16 17.312 59.256 16.808Q59.376 16.28 59.124 15.716Q58.872 15.152 58.224 14.696Q57.24 13.952 56.124 13.304Q55.008 12.656 53.856 11.816Q53.304 11.336 53.052 10.76Q52.8 10.184 52.8 9.632Q52.8 9.056 53.04 8.54Q53.28 8.024 53.712 7.604Q54.144 7.184 54.72 6.92Q55.296 6.656 55.992 6.608Q56.952 6.56 57.84 7.004Q58.728 7.448 59.28 8.096Q59.4 8.24 59.388 8.456Q59.376 8.672 59.232 8.864ZM67.632 9.92Q69.912 9.416 72.384 9.536Q72.648 9.56 72.744 9.404Q72.84 9.248 72.888 9.008Q72.936 8.816 72.78 8.54Q72.624 8.264 72.384 8.192Q67.464 7.568 62.544 9.968Q62.112 10.256 61.944 10.712Q61.944 10.976 62.244 11.24Q62.544 11.504 63.12 11.288Q65.352 10.424 67.632 9.92ZM18.744 13.136Q18.84 13.376 18.552 13.604Q18.264 13.832 17.64 13.904Q16.56 14.048 15.432 14.204Q14.304 14.36 13.128 14.528Q13.08 15.752 13.128 16.976Q13.68 16.976 14.46 16.868Q15.24 16.76 16.056 16.592Q16.872 16.424 17.628 16.244Q18.384 16.064 18.912 15.944Q19.176 15.872 19.464 15.836Q19.752 15.8 19.98 15.836Q20.208 15.872 20.352 16.016Q20.496 16.16 20.496 16.424Q20.496 16.496 20.328 16.64Q20.16 16.784 19.908 16.94Q19.656 17.096 19.38 17.228Q19.104 17.36 18.888 17.432Q17.4 17.912 15.96 18.26Q14.52 18.608 13.152 18.632Q12.36 18.656 11.952 18.212Q11.544 17.768 11.52 16.928Q11.472 15.752 11.52 14.552Q11.112 14.312 11.112 13.88Q11.16 13.424 11.544 13.256Q11.592 12.56 11.616 11.852Q11.64 11.144 11.688 10.448Q11.424 10.4 11.22 10.184Q11.016 9.968 11.016 9.704Q11.016 9.488 11.112 9.308Q11.208 9.128 11.472 9.032Q11.904 8.936 12.528 8.816Q13.152 8.696 13.812 8.6Q14.472 8.504 15.084 8.432Q15.696 8.36 16.128 8.336Q16.632 8.288 17.1 8.432Q17.568 8.576 17.976 8.984Q18.072 9.32 17.844 9.488Q17.616 9.656 17.256 9.704Q16.896 9.752 16.392 9.812Q15.888 9.872 15.348 9.944Q14.808 10.016 14.268 10.076Q13.728 10.136 13.248 10.208Q13.248 10.256 13.26 10.316Q13.272 10.376 13.272 10.424Q13.224 11.048 13.2 11.672L13.152 12.92Q14.16 12.752 15.216 12.62Q16.272 12.488 16.896 12.44Q17.4 12.392 17.88 12.56Q18.36 12.728 18.744 13.136ZM49.92 13.604Q50.208 13.376 50.112 13.136Q49.728 12.728 49.248 12.56Q48.768 12.392 48.264 12.44Q47.64 12.488 46.584 12.62Q45.528 12.752 44.52 12.92L44.568 11.672Q44.592 11.048 44.64 10.424Q44.64 10.376 44.628 10.316Q44.616 10.256 44.616 10.208Q45.096 10.136 45.636 10.076Q46.176 10.016 46.716 9.944Q47.256 9.872 47.76 9.812Q48.264 9.752 48.624 9.704Q48.984 9.656 49.212 9.488Q49.44 9.32 49.344 8.984Q48.936 8.576 48.468 8.432Q48 8.288 47.496 8.336Q47.064 8.36 46.452 8.432Q45.84 8.504 45.18 8.6Q44.52 8.696 43.896 8.816Q43.272 8.936 42.84 9.032Q42.576 9.128 42.48 9.308Q42.384 9.488 42.384 9.704Q42.384 9.968 42.588 10.184Q42.792 10.4 43.056 10.448Q43.008 11.144 42.984 11.852Q42.96 12.56 42.912 13.256Q42.528 13.424 42.48 13.88Q42.48 14.312 42.888 14.552Q42.84 15.752 42.888 16.928Q42.912 17.768 43.32 18.212Q43.728 18.656 44.52 18.632Q45.888 18.608 47.328 18.26Q48.768 17.912 50.256 17.432Q50.472 17.36 50.748 17.228Q51.024 17.096 51.276 16.94Q51.528 16.784 51.696 16.64Q51.864 16.496 51.864 16.424Q51.864 16.16 51.72 16.016Q51.576 15.872 51.348 15.836Q51.12 15.8 50.832 15.836Q50.544 15.872 50.28 15.944Q49.752 16.064 48.996 16.244Q48.24 16.424 47.424 16.592Q46.608 16.76 45.828 16.868Q45.048 16.976 44.496 16.976Q44.448 15.752 44.496 14.528Q45.672 14.36 46.8 14.204Q47.928 14.048 49.008 13.904Q49.632 13.832 49.92 13.604ZM31.536 17.264Q31.368 16.856 31.104 16.664Q30.744 16.4 30.384 16.112Q30.024 15.824 29.664 15.56Q30.432 14.096 30.444 12.728Q30.456 11.36 30.024 10.448Q29.856 10.088 29.544 9.728Q29.232 9.368 28.836 9.104Q28.44 8.84 27.972 8.732Q27.504 8.624 27.024 8.768Q26.52 8.96 26.232 9.248Q25.92 9.152 25.572 9.2Q25.224 9.248 24.984 9.368Q23.64 10.208 22.668 11.576Q21.696 12.944 21.576 14.504Q21.528 15.104 21.672 15.752Q21.816 16.4 22.104 16.988Q22.392 17.576 22.848 18.044Q23.304 18.512 23.904 18.728Q24.408 18.92 25.02 18.92Q25.632 18.92 26.28 18.704Q26.928 18.488 27.564 18.056Q28.2 17.624 28.752 16.952Q29.232 17.312 29.604 17.6Q29.976 17.888 30.24 18.08Q30.504 18.296 30.816 18.32Q31.128 18.344 31.464 18.008Q31.704 17.672 31.536 17.264ZM40.872 10.088Q40.968 10.52 41.064 11.108Q41.16 11.696 41.196 12.332Q41.232 12.968 41.208 13.64Q41.184 14.312 41.064 14.936Q40.92 15.656 40.488 16.256Q40.056 16.856 39.432 17.336Q38.832 17.816 38.1 18.116Q37.368 18.416 36.636 18.548Q35.904 18.68 35.196 18.596Q34.488 18.512 33.936 18.2Q33.312 17.84 32.928 17.264Q32.544 16.688 32.592 15.848Q32.64 15.032 32.736 14.348Q32.832 13.664 32.988 13.04Q33.144 12.416 33.336 11.78Q33.528 11.144 33.744 10.448Q33.864 10.136 34.176 10.088Q34.296 10.064 34.464 10.088Q34.536 10.088 34.668 10.172Q34.8 10.256 34.92 10.4Q35.04 10.544 35.124 10.736Q35.208 10.928 35.136 11.168Q34.92 11.936 34.704 12.728Q34.488 13.52 34.332 14.24Q34.176 14.96 34.14 15.524Q34.104 16.088 34.248 16.4Q34.56 16.856 35.1 16.988Q35.64 17.12 36.24 17.024Q36.84 16.928 37.404 16.7Q37.968 16.472 38.376 16.208Q39.024 15.776 39.324 15.128Q39.624 14.48 39.696 13.712Q39.768 12.944 39.684 12.104Q39.6 11.264 39.456 10.448Q39.408 10.232 39.48 9.896Q39.552 9.56 39.864 9.368Q40.2 9.176 40.476 9.416Q40.752 9.656 40.872 10.088ZM25.884 10.748Q26.064 10.688 26.256 10.592L26.28 10.592Q26.424 10.616 26.592 10.568Q26.76 10.52 26.952 10.328Q27.168 10.136 27.456 10.172Q27.744 10.208 28.032 10.4Q28.32 10.592 28.548 10.892Q28.776 11.192 28.872 11.528Q29.088 12.296 28.956 13.112Q28.824 13.928 28.464 14.648Q27.96 14.288 27.456 13.94Q26.952 13.592 26.448 13.232Q26.112 12.992 25.872 13.052Q25.632 13.112 25.488 13.304Q25.344 13.496 25.332 13.736Q25.32 13.976 25.392 14.204Q25.464 14.432 25.608 14.624Q25.752 14.816 25.896 14.912Q26.28 15.176 26.688 15.464L27.504 16.04Q26.808 16.808 26.016 17.18Q25.224 17.552 24.528 17.288Q24.192 17.168 23.952 16.952Q23.712 16.736 23.616 16.544Q23.304 15.848 23.268 15.176Q23.232 14.504 23.4 13.88Q23.568 13.256 23.904 12.668Q24.24 12.08 24.672 11.576Q24.888 11.312 25.104 11.156Q25.32 11 25.512 10.904Q25.704 10.808 25.884 10.748ZM68.796 18.38Q68.976 18.176 68.976 17.912Q69.024 16.208 68.976 14.504Q68.928 12.8 68.736 11.072Q68.736 10.808 68.496 10.532Q68.256 10.256 67.704 10.352Q67.512 10.4 67.428 10.496Q67.344 10.592 67.32 10.724Q67.296 10.856 67.32 10.988Q67.344 11.12 67.344 11.216Q67.464 12.896 67.5 14.564Q67.536 16.232 67.56 17.912Q67.584 18.224 67.728 18.464Q67.872 18.704 68.352 18.632Q68.616 18.584 68.796 18.38Z" />
  </g>
  <path d="M6.999 0L221.001 0Q221.173 0 221.344 0.0084306Q221.516 0.0168612 221.687 0.0337021Q221.858 0.050543 222.028 0.0757536Q222.198 0.100964 222.366 0.134484Q222.535 0.168003 222.702 0.209751Q222.868 0.251499 223.033 0.301375Q223.197 0.35125 223.359 0.409133Q223.521 0.467016 223.679 0.532767Q223.838 0.598518 223.993 0.671979Q224.149 0.74544 224.3 0.826433Q224.452 0.907426 224.599 0.995757Q224.747 1.08409 224.889 1.17954Q225.032 1.275 225.17 1.37735Q225.308 1.4797 225.441 1.5887Q225.574 1.6977 225.701 1.81308Q225.829 1.92847 225.95 2.04996Q226.072 2.17145 226.187 2.29876Q226.302 2.42607 226.411 2.55888Q226.52 2.6917 226.623 2.8297Q226.725 2.9677 226.82 3.11056Q226.916 3.25342 227.004 3.40079Q227.093 3.54817 227.174 3.69969Q227.255 3.85122 227.328 4.00654Q227.401 4.16186 227.467 4.3206Q227.533 4.47933 227.591 4.64111Q227.649 4.80288 227.699 4.9673Q227.748 5.13171 227.79 5.29838Q227.832 5.46505 227.866 5.63356Q227.899 5.80208 227.924 5.97203Q227.949 6.14199 227.966 6.31298Q227.983 6.48397 227.992 6.65558Q228 6.82718 228 6.999L228 130.845Q228 131.017 227.992 131.188Q227.983 131.36 227.966 131.531Q227.949 131.702 227.924 131.872Q227.899 132.042 227.866 132.21Q227.832 132.379 227.79 132.545Q227.749 132.712 227.699 132.876Q227.649 133.041 227.591 133.203Q227.533 133.364 227.467 133.523Q227.401 133.682 227.328 133.837Q227.255 133.993 227.174 134.144Q227.093 134.296 227.004 134.443Q226.916 134.59 226.82 134.733Q226.725 134.876 226.623 135.014Q226.52 135.152 226.411 135.285Q226.302 135.418 226.187 135.545Q226.072 135.672 225.95 135.794Q225.829 135.915 225.701 136.031Q225.574 136.146 225.441 136.255Q225.308 136.364 225.17 136.466Q225.032 136.569 224.889 136.664Q224.747 136.76 224.599 136.848Q224.452 136.936 224.3 137.017Q224.149 137.098 223.993 137.172Q223.838 137.245 223.679 137.311Q223.521 137.377 223.359 137.435Q223.197 137.492 223.033 137.542Q222.868 137.592 222.702 137.634Q222.535 137.676 222.366 137.709Q222.198 137.743 222.028 137.768Q221.858 137.793 221.687 137.81Q221.516 137.827 221.344 137.835Q221.173 137.844 221.001 137.844L6.999 137.844Q6.82718 137.844 6.65557 137.835Q6.48397 137.827 6.31298 137.81Q6.14199 137.793 5.97203 137.768Q5.80208 137.743 5.63356 137.709Q5.46505 137.676 5.29838 137.634Q5.13171 137.592 4.9673 137.542Q4.80288 137.492 4.64111 137.435Q4.47933 137.377 4.3206 137.311Q4.16186 137.245 4.00654 137.172Q3.85122 137.098 3.69969 137.017Q3.54817 136.936 3.40079 136.848Q3.25342 136.76 3.11056 136.664Q2.9677 136.569 2.8297 136.466Q2.6917 136.364 2.55888 136.255Q2.42607 136.146 2.29876 136.031Q2.17145 135.915 2.04996 135.794Q1.92847 135.672 1.81308 135.545Q1.6977 135.418 1.5887 135.285Q1.4797 135.152 1.37735 135.014Q1.275 134.876 1.17954 134.733Q1.08409 134.59 0.995757 134.443Q0.907426 134.296 0.826433 134.144Q0.74544 133.993 0.671979 133.837Q0.598518 133.682 0.532767 133.523Q0.467016 133.364 0.409133 133.203Q0.35125 133.041 0.301375 132.876Q0.251499 132.712 0.209751 132.545Q0.168003 132.379 0.134484 132.21Q0.100964 132.042 0.0757536 131.872Q0.050543 131.702 0.0337021 131.531Q0.0168612 131.36 0.0084306 131.188Q0 131.017 0 130.845L0 6.999Q0 6.82718 0.0084306 6.65557Q0.0168612 6.48397 0.0337021 6.31298Q0.050543 6.14199 0.0757536 5.97203Q0.100964 5.80208 0.134484 5.63356Q0.168003 5.46505 0.209751 5.29838Q0.251499 5.13171 0.301375 4.9673Q0.35125 4.80288 0.409133 4.64111Q0.467016 4.47933 0.532767 4.3206Q0.598518 4.16186 0.671979 4.00654Q0.74544 3.85122 0.826433 3.69969Q0.907426 3.54817 0.995757 3.40079Q1.08409 3.25342 1.17954 3.11056Q1.275 2.9677 1.37735 2.8297Q1.4797 2.6917 1.5887 2.55888Q1.6977 2.42607 1.81308 2.29876Q1.92847 2.17145 2.04996 2.04996Q2.17145 1.92847 2.29876 1.81308Q2.42607 1.6977 2.55888 1.5887Q2.6917 1.4797 2.8297 1.37735Q2.9677 1.275 3.11056 1.17954Q3.25342 1.08409 3.40079 0.995757Q3.54817 0.907426 3.69969 0.826433Q3.85122 0.74544 4.00654 0.671979Q4.16186 0.598518 4.3206 0.532767Q4.47933 0.467016 4.64111 0.409133Q4.80288 0.35125 4.9673 0.301375Q5.13171 0.251499 5.29838 0.209751Q5.46505 0.168003 5.63356 0.134484Q5.80208 0.100964 5.97203 0.0757536Q6.14199 0.050543 6.31298 0.0337021Q6.48397 0.0168612 6.65558 0.0084306Q6.82718 0 6.999 0Z" transform="translate(1 1)" id="Rectangle-5" fill="#FFFFFF" fill-opacity="0" stroke="#000000" stroke-width="2" stroke-dasharray="2 3" />
  <g id="Developer-Box-2" transform="translate(4 457.1562)">
    <path d="M6.999 0L222.001 0Q222.148 0 222.295 0.00722606Q222.442 0.0144521 222.589 0.0288868Q222.736 0.0433215 222.881 0.0649301Q223.027 0.0865387 223.171 0.115269Q223.316 0.143999 223.459 0.179782Q223.601 0.215565 223.742 0.258315Q223.883 0.301064 224.022 0.350677Q224.161 0.40029 224.297 0.456647Q224.433 0.513003 224.566 0.575968Q224.699 0.638933 224.829 0.708354Q224.959 0.777776 225.085 0.853486Q225.211 0.929196 225.334 1.01101Q225.456 1.09283 225.575 1.18056Q225.693 1.26828 225.807 1.36171Q225.921 1.45514 226.03 1.55403Q226.139 1.65293 226.243 1.75707Q226.347 1.8612 226.446 1.97032Q226.545 2.07944 226.638 2.19327Q226.732 2.30711 226.819 2.4254Q226.907 2.54369 226.989 2.66613Q227.071 2.78858 227.146 2.9149Q227.222 3.04121 227.292 3.17109Q227.361 3.30097 227.424 3.4341Q227.487 3.56722 227.543 3.70328Q227.6 3.83934 227.649 3.978Q227.699 4.11666 227.742 4.25758Q227.784 4.39851 227.82 4.54136Q227.856 4.68422 227.885 4.82865Q227.913 4.97309 227.935 5.11876Q227.957 5.26444 227.971 5.411Q227.986 5.55755 227.993 5.70464Q228 5.85173 228 5.999L228 48L0 48L0 6.999Q0 6.82718 0.0084306 6.65557Q0.0168612 6.48397 0.0337021 6.31298Q0.050543 6.14199 0.0757536 5.97203Q0.100964 5.80208 0.134484 5.63356Q0.168003 5.46505 0.209751 5.29838Q0.251499 5.13171 0.301375 4.9673Q0.35125 4.80288 0.409133 4.64111Q0.467016 4.47933 0.532767 4.3206Q0.598518 4.16186 0.671979 4.00654Q0.74544 3.85122 0.826433 3.69969Q0.907426 3.54817 0.995757 3.40079Q1.08409 3.25342 1.17954 3.11056Q1.275 2.9677 1.37735 2.8297Q1.4797 2.6917 1.5887 2.55888Q1.6977 2.42607 1.81308 2.29876Q1.92847 2.17145 2.04996 2.04996Q2.17145 1.92847 2.29876 1.81308Q2.42607 1.6977 2.55888 1.5887Q2.6917 1.4797 2.8297 1.37735Q2.9677 1.275 3.11056 1.17954Q3.25342 1.08409 3.40079 0.995757Q3.54817 0.907426 3.69969 0.826433Q3.85122 0.74544 4.00654 0.671979Q4.16186 0.598518 4.3206 0.532767Q4.47933 0.467016 4.64111 0.409133Q4.80288 0.35125 4.9673 0.301375Q5.13171 0.251499 5.29838 0.209751Q5.46505 0.168003 5.63356 0.134484Q5.80208 0.100964 5.97203 0.0757536Q6.14199 0.050543 6.31298 0.0337021Q6.48397 0.0168612 6.65558 0.0084306Q6.82718 0 6.999 0Z" id="Rectangle-3" fill="#000000" stroke="none" />
    <g id="digitalocean" transform="translate(162.55865 90.499985)">
      <path d="M0 0L24 0L24 24L0 24L0 0Z" id="Background" fill="none" stroke="none" />
    </g>
    <g id="USER" fill="#FFFFFF" transform="translate(89.5 13)">
      <path d="M32.364 16.688Q32.4 17.816 32.472 18.704Q32.472 18.8 32.544 18.98Q32.616 19.16 32.724 19.34Q32.832 19.52 32.952 19.652Q33.072 19.784 33.216 19.808Q33.504 19.808 33.696 19.676Q33.888 19.544 33.888 19.208Q33.84 18.296 33.828 17.348Q33.816 16.4 33.792 15.44Q34.44 15.824 35.16 16.268Q35.88 16.712 36.6 17.18Q37.32 17.648 37.98 18.116Q38.64 18.584 39.168 19.016Q39.504 19.256 39.852 19.22Q40.2 19.184 40.344 18.848Q40.584 18.296 40.404 18.02Q40.224 17.744 40.08 17.6Q38.976 16.784 37.884 16.088Q36.792 15.392 35.544 14.624Q37.248 13.568 38.004 12.128Q38.76 10.688 38.256 8.888Q37.968 7.856 37.176 7.172Q36.384 6.488 35.208 6.488Q34.416 6.488 33.48 6.728Q32.544 6.968 31.728 7.448Q30.912 7.928 30.372 8.636Q29.832 9.344 29.832 10.304Q29.832 10.568 30.096 10.82Q30.36 11.072 30.552 11.024Q30.864 10.904 31.032 10.628Q31.2 10.352 31.128 9.992Q31.68 9.392 32.316 8.96Q32.952 8.528 33.612 8.324Q34.272 8.12 34.896 8.144Q35.52 8.168 36.048 8.48Q36.408 8.696 36.588 9.068Q36.768 9.44 36.816 9.86Q36.864 10.28 36.804 10.688Q36.744 11.096 36.624 11.384Q36.312 12.152 35.58 12.752Q34.848 13.352 33.768 13.544Q33.744 12.776 33.756 12.008Q33.768 11.24 33.792 10.472Q33.744 10.016 33.588 9.764Q33.432 9.512 33 9.464Q32.856 9.44 32.628 9.572Q32.4 9.704 32.4 9.944Q32.352 10.88 32.34 12.032Q32.328 13.184 32.328 14.372Q32.328 15.56 32.364 16.688ZM17.316 9.044Q17.568 8.984 17.664 8.864Q17.808 8.672 17.82 8.456Q17.832 8.24 17.712 8.096Q17.16 7.448 16.272 7.004Q15.384 6.56 14.424 6.608Q13.728 6.656 13.152 6.92Q12.576 7.184 12.144 7.604Q11.712 8.024 11.472 8.54Q11.232 9.056 11.232 9.632Q11.232 10.184 11.484 10.76Q11.736 11.336 12.288 11.816Q13.44 12.656 14.556 13.304Q15.672 13.952 16.656 14.696Q17.304 15.152 17.556 15.716Q17.808 16.28 17.688 16.808Q17.592 17.312 17.208 17.708Q16.824 18.104 16.2 18.248Q15.384 18.44 14.64 18.212Q13.896 17.984 13.344 17.48Q13.152 17.36 12.792 17.444Q12.432 17.528 12.288 17.744Q12.192 17.888 12.312 18.224Q12.432 18.56 12.6 18.752Q13.272 19.496 14.244 19.76Q15.216 20.024 16.224 19.832Q17.376 19.616 18.252 18.836Q19.128 18.056 19.296 16.736Q19.296 16.064 19.128 15.536Q18.96 15.008 18.672 14.588Q18.384 14.168 18 13.832Q17.616 13.496 17.184 13.208Q16.848 12.992 16.404 12.704Q15.96 12.416 15.468 12.104Q14.976 11.792 14.472 11.468Q13.968 11.144 13.536 10.832Q12.864 10.352 12.708 9.788Q12.552 9.224 13.104 8.624Q13.392 8.312 13.788 8.144Q14.184 7.976 14.544 7.976Q14.832 7.976 15.144 8.072Q15.456 8.168 15.768 8.312Q16.08 8.456 16.344 8.612Q16.608 8.768 16.8 8.912Q17.064 9.104 17.316 9.044ZM27.96 13.136Q28.056 13.376 27.768 13.604Q27.48 13.832 26.856 13.904Q25.776 14.048 24.648 14.204Q23.52 14.36 22.344 14.528Q22.296 15.752 22.344 16.976Q22.896 16.976 23.676 16.868Q24.456 16.76 25.272 16.592Q26.088 16.424 26.844 16.244Q27.6 16.064 28.128 15.944Q28.392 15.872 28.68 15.836Q28.968 15.8 29.196 15.836Q29.424 15.872 29.568 16.016Q29.712 16.16 29.712 16.424Q29.712 16.496 29.544 16.64Q29.376 16.784 29.124 16.94Q28.872 17.096 28.596 17.228Q28.32 17.36 28.104 17.432Q26.616 17.912 25.176 18.26Q23.736 18.608 22.368 18.632Q21.576 18.656 21.168 18.212Q20.76 17.768 20.736 16.928Q20.688 15.752 20.736 14.552Q20.328 14.312 20.328 13.88Q20.376 13.424 20.76 13.256Q20.808 12.56 20.832 11.852Q20.856 11.144 20.904 10.448Q20.64 10.4 20.436 10.184Q20.232 9.968 20.232 9.704Q20.232 9.488 20.328 9.308Q20.424 9.128 20.688 9.032Q21.12 8.936 21.744 8.816Q22.368 8.696 23.028 8.6Q23.688 8.504 24.3 8.432Q24.912 8.36 25.344 8.336Q25.848 8.288 26.316 8.432Q26.784 8.576 27.192 8.984Q27.288 9.32 27.06 9.488Q26.832 9.656 26.472 9.704Q26.112 9.752 25.608 9.812Q25.104 9.872 24.564 9.944Q24.024 10.016 23.484 10.076Q22.944 10.136 22.464 10.208Q22.464 10.256 22.476 10.316Q22.488 10.376 22.488 10.424Q22.44 11.048 22.416 11.672L22.368 12.92Q23.376 12.752 24.432 12.62Q25.488 12.488 26.112 12.44Q26.616 12.392 27.096 12.56Q27.576 12.728 27.96 13.136ZM9.336 11.108Q9.24 10.52 9.144 10.088Q9.024 9.656 8.748 9.416Q8.472 9.176 8.136 9.368Q7.824 9.56 7.752 9.896Q7.68 10.232 7.728 10.448Q7.872 11.264 7.956 12.104Q8.04 12.944 7.968 13.712Q7.896 14.48 7.596 15.128Q7.296 15.776 6.648 16.208Q6.24 16.472 5.676 16.7Q5.112 16.928 4.512 17.024Q3.912 17.12 3.372 16.988Q2.832 16.856 2.52 16.4Q2.376 16.088 2.412 15.524Q2.448 14.96 2.604 14.24Q2.76 13.52 2.976 12.728Q3.192 11.936 3.408 11.168Q3.48 10.928 3.396 10.736Q3.312 10.544 3.192 10.4Q3.072 10.256 2.94 10.172Q2.808 10.088 2.736 10.088Q2.568 10.064 2.448 10.088Q2.136 10.136 2.016 10.448Q1.8 11.144 1.608 11.78Q1.416 12.416 1.26 13.04Q1.104 13.664 1.008 14.348Q0.912 15.032 0.864 15.848Q0.816 16.688 1.2 17.264Q1.584 17.84 2.208 18.2Q2.76 18.512 3.468 18.596Q4.176 18.68 4.908 18.548Q5.64 18.416 6.372 18.116Q7.104 17.816 7.704 17.336Q8.328 16.856 8.76 16.256Q9.192 15.656 9.336 14.936Q9.456 14.312 9.48 13.64Q9.504 12.968 9.468 12.332Q9.432 11.696 9.336 11.108Z" />
    </g>
  </g>
  <path d="M6.999 0L221.001 0Q221.173 0 221.344 0.0084306Q221.516 0.0168612 221.687 0.0337021Q221.858 0.050543 222.028 0.0757536Q222.198 0.100964 222.366 0.134484Q222.535 0.168003 222.702 0.209751Q222.868 0.251499 223.033 0.301375Q223.197 0.35125 223.359 0.409133Q223.521 0.467016 223.679 0.532767Q223.838 0.598518 223.993 0.671979Q224.149 0.74544 224.3 0.826433Q224.452 0.907426 224.599 0.995757Q224.747 1.08409 224.889 1.17954Q225.032 1.275 225.17 1.37735Q225.308 1.4797 225.441 1.5887Q225.574 1.6977 225.701 1.81308Q225.829 1.92847 225.95 2.04996Q226.072 2.17145 226.187 2.29876Q226.302 2.42607 226.411 2.55888Q226.52 2.6917 226.623 2.8297Q226.725 2.9677 226.82 3.11056Q226.916 3.25342 227.004 3.40079Q227.093 3.54817 227.174 3.69969Q227.255 3.85122 227.328 4.00654Q227.401 4.16186 227.467 4.3206Q227.533 4.47933 227.591 4.64111Q227.649 4.80288 227.699 4.9673Q227.748 5.13171 227.79 5.29838Q227.832 5.46505 227.866 5.63356Q227.899 5.80208 227.924 5.97203Q227.949 6.14199 227.966 6.31298Q227.983 6.48397 227.992 6.65558Q228 6.82718 228 6.999L228 130.845Q228 131.017 227.992 131.188Q227.983 131.36 227.966 131.531Q227.949 131.702 227.924 131.872Q227.899 132.042 227.866 132.21Q227.832 132.379 227.79 132.545Q227.749 132.712 227.699 132.876Q227.649 133.041 227.591 133.203Q227.533 133.364 227.467 133.523Q227.401 133.682 227.328 133.837Q227.255 133.993 227.174 134.144Q227.093 134.296 227.004 134.443Q226.916 134.59 226.82 134.733Q226.725 134.876 226.623 135.014Q226.52 135.152 226.411 135.285Q226.302 135.418 226.187 135.545Q226.072 135.672 225.95 135.794Q225.829 135.915 225.701 136.031Q225.574 136.146 225.441 136.255Q225.308 136.364 225.17 136.466Q225.032 136.569 224.889 136.664Q224.747 136.76 224.599 136.848Q224.452 136.936 224.3 137.017Q224.149 137.098 223.993 137.172Q223.838 137.245 223.679 137.311Q223.521 137.377 223.359 137.435Q223.197 137.492 223.033 137.542Q222.868 137.592 222.702 137.634Q222.535 137.676 222.366 137.709Q222.198 137.743 222.028 137.768Q221.858 137.793 221.687 137.81Q221.516 137.827 221.344 137.835Q221.173 137.844 221.001 137.844L6.999 137.844Q6.82718 137.844 6.65557 137.835Q6.48397 137.827 6.31298 137.81Q6.14199 137.793 5.97203 137.768Q5.80208 137.743 5.63356 137.709Q5.46505 137.676 5.29838 137.634Q5.13171 137.592 4.9673 137.542Q4.80288 137.492 4.64111 137.435Q4.47933 137.377 4.3206 137.311Q4.16186 137.245 4.00654 137.172Q3.85122 137.098 3.69969 137.017Q3.54817 136.936 3.40079 136.848Q3.25342 136.76 3.11056 136.664Q2.9677 136.569 2.8297 136.466Q2.6917 136.364 2.55888 136.255Q2.42607 136.146 2.29876 136.031Q2.17145 135.915 2.04996 135.794Q1.92847 135.672 1.81308 135.545Q1.6977 135.418 1.5887 135.285Q1.4797 135.152 1.37735 135.014Q1.275 134.876 1.17954 134.733Q1.08409 134.59 0.995757 134.443Q0.907426 134.296 0.826433 134.144Q0.74544 133.993 0.671979 133.837Q0.598518 133.682 0.532767 133.523Q0.467016 133.364 0.409133 133.203Q0.35125 133.041 0.301375 132.876Q0.251499 132.712 0.209751 132.545Q0.168003 132.379 0.134484 132.21Q0.100964 132.042 0.0757536 131.872Q0.050543 131.702 0.0337021 131.531Q0.0168612 131.36 0.0084306 131.188Q0 131.017 0 130.845L0 6.999Q0 6.82718 0.0084306 6.65557Q0.0168612 6.48397 0.0337021 6.31298Q0.050543 6.14199 0.0757536 5.97203Q0.100964 5.80208 0.134484 5.63356Q0.168003 5.46505 0.209751 5.29838Q0.251499 5.13171 0.301375 4.9673Q0.35125 4.80288 0.409133 4.64111Q0.467016 4.47933 0.532767 4.3206Q0.598518 4.16186 0.671979 4.00654Q0.74544 3.85122 0.826433 3.69969Q0.907426 3.54817 0.995757 3.40079Q1.08409 3.25342 1.17954 3.11056Q1.275 2.9677 1.37735 2.8297Q1.4797 2.6917 1.5887 2.55888Q1.6977 2.42607 1.81308 2.29876Q1.92847 2.17145 2.04996 2.04996Q2.17145 1.92847 2.29876 1.81308Q2.42607 1.6977 2.55888 1.5887Q2.6917 1.4797 2.8297 1.37735Q2.9677 1.275 3.11056 1.17954Q3.25342 1.08409 3.40079 0.995757Q3.54817 0.907426 3.69969 0.826433Q3.85122 0.74544 4.00654 0.671979Q4.16186 0.598518 4.3206 0.532767Q4.47933 0.467016 4.64111 0.409133Q4.80288 0.35125 4.9673 0.301375Q5.13171 0.251499 5.29838 0.209751Q5.46505 0.168003 5.63356 0.134484Q5.80208 0.100964 5.97203 0.0757536Q6.14199 0.050543 6.31298 0.0337021Q6.48397 0.0168612 6.65558 0.0084306Q6.82718 0 6.999 0Z" transform="translate(4 457.1562)" id="Rectangle-6" fill="#FFFFFF" fill-opacity="0" stroke="#000000" stroke-width="2" stroke-dasharray="2 3" />
  <g id="Developer-Box-3" transform="translate(4 230.1562)">
    <path d="M6.999 0L222.001 0Q222.148 0 222.295 0.00722606Q222.442 0.0144521 222.589 0.0288868Q222.736 0.0433215 222.881 0.0649301Q223.027 0.0865387 223.171 0.115269Q223.316 0.143999 223.459 0.179782Q223.601 0.215565 223.742 0.258315Q223.883 0.301064 224.022 0.350677Q224.161 0.40029 224.297 0.456647Q224.433 0.513003 224.566 0.575968Q224.699 0.638933 224.829 0.708354Q224.959 0.777776 225.085 0.853486Q225.211 0.929196 225.334 1.01101Q225.456 1.09283 225.575 1.18056Q225.693 1.26828 225.807 1.36171Q225.921 1.45514 226.03 1.55403Q226.139 1.65293 226.243 1.75707Q226.347 1.8612 226.446 1.97032Q226.545 2.07944 226.638 2.19327Q226.732 2.30711 226.819 2.4254Q226.907 2.54369 226.989 2.66613Q227.071 2.78858 227.146 2.9149Q227.222 3.04121 227.292 3.17109Q227.361 3.30097 227.424 3.4341Q227.487 3.56722 227.543 3.70328Q227.6 3.83934 227.649 3.978Q227.699 4.11666 227.742 4.25758Q227.784 4.39851 227.82 4.54136Q227.856 4.68422 227.885 4.82865Q227.913 4.97309 227.935 5.11876Q227.957 5.26444 227.971 5.411Q227.986 5.55755 227.993 5.70464Q228 5.85173 228 5.999L228 48L0 48L0 6.999Q0 6.82718 0.0084306 6.65557Q0.0168612 6.48397 0.0337021 6.31298Q0.050543 6.14199 0.0757536 5.97203Q0.100964 5.80208 0.134484 5.63356Q0.168003 5.46505 0.209751 5.29838Q0.251499 5.13171 0.301375 4.9673Q0.35125 4.80288 0.409133 4.64111Q0.467016 4.47933 0.532767 4.3206Q0.598518 4.16186 0.671979 4.00654Q0.74544 3.85122 0.826433 3.69969Q0.907426 3.54817 0.995757 3.40079Q1.08409 3.25342 1.17954 3.11056Q1.275 2.9677 1.37735 2.8297Q1.4797 2.6917 1.5887 2.55888Q1.6977 2.42607 1.81308 2.29876Q1.92847 2.17145 2.04996 2.04996Q2.17145 1.92847 2.29876 1.81308Q2.42607 1.6977 2.55888 1.5887Q2.6917 1.4797 2.8297 1.37735Q2.9677 1.275 3.11056 1.17954Q3.25342 1.08409 3.40079 0.995757Q3.54817 0.907426 3.69969 0.826433Q3.85122 0.74544 4.00654 0.671979Q4.16186 0.598518 4.3206 0.532767Q4.47933 0.467016 4.64111 0.409133Q4.80288 0.35125 4.9673 0.301375Q5.13171 0.251499 5.29838 0.209751Q5.46505 0.168003 5.63356 0.134484Q5.80208 0.100964 5.97203 0.0757536Q6.14199 0.050543 6.31298 0.0337021Q6.48397 0.0168612 6.65558 0.0084306Q6.82718 0 6.999 0Z" id="Rectangle-3" fill="#000000" stroke="none" />
    <g id="digitalocean" transform="translate(162.55865 90.5)">
      <path d="M0 0L24 0L24 24L0 24L0 0Z" id="Background" fill="none" stroke="none" />
    </g>
    <g id="HOSTING" fill="#FFFFFF" transform="translate(78.5 13)">
      <path d="M28.308 9.044Q28.56 8.984 28.656 8.864Q28.8 8.672 28.812 8.456Q28.824 8.24 28.704 8.096Q28.152 7.448 27.264 7.004Q26.376 6.56 25.416 6.608Q24.72 6.656 24.144 6.92Q23.568 7.184 23.136 7.604Q22.704 8.024 22.464 8.54Q22.224 9.056 22.224 9.632Q22.224 10.184 22.476 10.76Q22.728 11.336 23.28 11.816Q24.432 12.656 25.548 13.304Q26.664 13.952 27.648 14.696Q28.296 15.152 28.548 15.716Q28.8 16.28 28.68 16.808Q28.584 17.312 28.2 17.708Q27.816 18.104 27.192 18.248Q26.376 18.44 25.632 18.212Q24.888 17.984 24.336 17.48Q24.144 17.36 23.784 17.444Q23.424 17.528 23.28 17.744Q23.184 17.888 23.304 18.224Q23.424 18.56 23.592 18.752Q24.264 19.496 25.236 19.76Q26.208 20.024 27.216 19.832Q28.368 19.616 29.244 18.836Q30.12 18.056 30.288 16.736Q30.288 16.064 30.12 15.536Q29.952 15.008 29.664 14.588Q29.376 14.168 28.992 13.832Q28.608 13.496 28.176 13.208Q27.84 12.992 27.396 12.704Q26.952 12.416 26.46 12.104Q25.968 11.792 25.464 11.468Q24.96 11.144 24.528 10.832Q23.856 10.352 23.7 9.788Q23.544 9.224 24.096 8.624Q24.384 8.312 24.78 8.144Q25.176 7.976 25.536 7.976Q25.824 7.976 26.136 8.072Q26.448 8.168 26.76 8.312Q27.072 8.456 27.336 8.612Q27.6 8.768 27.792 8.912Q28.056 9.104 28.308 9.044ZM63.66 12.716Q63.84 12.752 63.96 12.752Q64.512 12.68 65.04 12.644Q65.568 12.608 66.096 12.56Q66.096 12.968 66.12 13.388Q66.144 13.808 66.168 14.216Q65.712 14.696 64.884 14.984Q64.056 15.272 63.228 15.296Q62.4 15.32 61.752 15.044Q61.104 14.768 61.032 14.12Q60.936 13.376 61.224 12.5Q61.512 11.624 62.004 10.796Q62.496 9.968 63.072 9.284Q63.648 8.6 64.128 8.264Q64.608 7.952 64.884 8.06Q65.16 8.168 65.568 8.672Q65.832 8.984 66.192 8.72Q66.36 8.552 66.336 8.36Q66.312 8.168 66.192 8Q66.024 7.76 65.796 7.508Q65.568 7.256 65.292 7.076Q65.016 6.896 64.692 6.836Q64.368 6.776 64.008 6.872Q62.952 7.304 62.1 8.132Q61.248 8.96 60.624 9.968Q60 10.976 59.664 12.056Q59.328 13.136 59.328 14.072Q59.328 15.056 59.94 15.74Q60.552 16.424 61.548 16.7Q62.544 16.976 63.792 16.784Q65.04 16.592 66.336 15.8Q66.528 17.312 66.984 18.488Q67.224 19.112 67.728 19.112Q67.992 19.112 68.124 18.956Q68.256 18.8 68.208 18.608Q68.136 18.08 68.052 17.312Q67.968 16.544 67.896 15.704Q67.824 14.864 67.764 14.036Q67.704 13.208 67.704 12.536L68.628 12.536Q69.072 12.536 69.48 12.56Q69.864 12.584 70.248 12.344Q70.632 12.104 70.632 11.672Q70.632 11.48 70.512 11.336Q70.392 11.192 70.008 11.192Q69.336 11.168 68.568 11.108Q67.8 11.048 67.008 11.012Q66.216 10.976 65.424 11.012Q64.632 11.048 63.912 11.216Q63.384 11.36 63.156 11.636Q62.928 11.912 62.928 12.104Q62.928 12.248 63.048 12.38Q63.168 12.512 63.324 12.596Q63.48 12.68 63.66 12.716ZM46.56 17.324Q46.56 17.144 46.536 17.048Q46.344 16.208 46.188 15.164Q46.032 14.12 45.936 13.016Q45.84 11.912 45.804 10.82Q45.768 9.728 45.792 8.768Q45.792 8.336 45.6 8.144Q45.408 7.952 45.096 7.952Q44.832 7.952 44.688 8.132Q44.544 8.312 44.448 8.564Q44.352 8.816 44.316 9.08Q44.28 9.344 44.28 9.512Q44.256 10.496 44.292 11.552Q44.328 12.608 44.424 13.628Q44.52 14.648 44.676 15.584Q44.832 16.52 45.024 17.24Q45.384 17.792 45.912 18.128Q46.152 18.128 46.284 17.996Q46.416 17.864 46.488 17.684Q46.56 17.504 46.56 17.324ZM41.808 9.536Q39.336 9.416 37.056 9.92Q34.776 10.424 32.544 11.288Q31.968 11.504 31.668 11.24Q31.368 10.976 31.368 10.712Q31.536 10.256 31.968 9.968Q36.888 7.568 41.808 8.192Q42.048 8.264 42.204 8.54Q42.36 8.816 42.312 9.008Q42.264 9.248 42.168 9.404Q42.072 9.56 41.808 9.536ZM58.032 9.272Q57.864 11.312 57.636 13.436Q57.408 15.56 57.024 17.432Q56.928 17.888 56.76 18.08Q56.592 18.272 56.28 18.344Q56.016 18.392 55.548 18.176Q55.08 17.96 54.768 17.552Q54.36 17 53.892 16.34Q53.424 15.68 52.884 14.996Q52.344 14.312 51.756 13.64Q51.168 12.968 50.52 12.392Q50.448 13.976 50.4 15.524Q50.352 17.072 50.4 18.632Q50.4 18.848 50.016 18.848Q49.56 18.848 49.272 18.38Q48.984 17.912 48.936 17.432Q48.864 16.952 48.864 16.052Q48.864 15.152 48.9 14.168Q48.936 13.184 48.984 12.272Q49.032 11.36 49.08 10.832Q49.128 10.256 49.356 9.992Q49.584 9.728 49.8 9.752Q50.28 9.8 50.436 10.028Q50.592 10.256 50.616 10.592Q51.48 11.216 52.212 11.936Q52.944 12.656 53.556 13.4Q54.168 14.144 54.684 14.876Q55.2 15.608 55.656 16.208Q55.944 14.768 56.124 12.992Q56.304 11.216 56.496 9.272Q56.472 9.032 56.784 8.804Q57.096 8.576 57.36 8.6Q58.032 8.648 58.032 9.272ZM9.288 9.536Q9.624 11.48 9.792 13.412Q9.96 15.344 10.056 17.264Q10.08 17.48 10.008 17.636Q9.936 17.792 9.828 17.912Q9.72 18.032 9.612 18.104Q9.504 18.176 9.432 18.176Q9.168 18.176 8.916 17.924Q8.664 17.672 8.616 17.264L8.472 15.44Q8.4 14.528 8.304 13.616Q5.784 14.312 2.976 14.84L3.168 15.896Q3.264 16.424 3.384 16.952Q3.408 17.048 3.42 17.264Q3.432 17.48 3.396 17.72Q3.36 17.96 3.252 18.164Q3.144 18.368 2.928 18.464Q2.736 18.488 2.52 18.344Q2.304 18.2 2.232 18.056Q1.944 17.312 1.692 16.28Q1.44 15.248 1.26 14.108Q1.08 12.968 1.008 11.792Q0.936 10.616 0.984 9.536Q1.032 9.176 1.26 9.02Q1.488 8.864 1.68 8.864Q1.896 8.864 2.052 9.008Q2.208 9.152 2.304 9.368Q2.4 9.584 2.448 9.8Q2.496 10.016 2.496 10.16Q2.52 10.928 2.568 11.672Q2.616 12.416 2.736 13.16Q3.96 12.992 5.4 12.692Q6.84 12.392 8.112 12.008Q8.064 11.456 7.992 10.892Q7.92 10.328 7.848 9.776Q7.848 9.368 8.1 9.056Q8.352 8.744 8.616 8.744Q8.808 8.744 9.012 8.936Q9.216 9.128 9.288 9.536ZM20.28 14.024Q20.136 14.696 19.764 15.308Q19.392 15.92 18.912 16.448Q18.432 16.976 17.868 17.36Q17.304 17.744 16.728 17.96Q15.672 18.344 14.628 18.212Q13.584 18.08 12.768 17.264Q12.216 16.592 11.988 15.752Q11.76 14.912 11.772 14.036Q11.784 13.16 12.012 12.344Q12.24 11.528 12.6 10.88Q13.032 10.112 13.632 9.608Q14.232 9.104 14.952 9.008Q15.144 8.96 15.264 9.104Q15.384 9.248 15.384 9.44Q15.624 9.2 16.128 9.08Q16.632 8.96 17.256 9.056Q18.408 9.2 19.08 9.752Q19.752 10.304 20.076 11.036Q20.4 11.768 20.412 12.572Q20.424 13.376 20.28 14.024ZM38.4 17.912Q38.4 18.176 38.22 18.38Q38.04 18.584 37.776 18.632Q37.296 18.704 37.152 18.464Q37.008 18.224 36.984 17.912Q36.96 16.232 36.924 14.564Q36.888 12.896 36.768 11.216Q36.768 11.12 36.744 10.988Q36.72 10.856 36.744 10.724Q36.768 10.592 36.852 10.496Q36.936 10.4 37.128 10.352Q37.68 10.256 37.92 10.532Q38.16 10.808 38.16 11.072Q38.352 12.8 38.4 14.504Q38.448 16.208 38.4 17.912ZM15.048 10.712Q14.568 10.928 14.244 11.348Q13.92 11.768 13.716 12.296Q13.512 12.824 13.452 13.436Q13.392 14.048 13.44 14.624Q13.512 15.464 13.944 16.004Q14.376 16.544 15.288 16.544Q15.816 16.544 16.332 16.34Q16.848 16.136 17.28 15.8Q17.712 15.464 18.072 14.996Q18.432 14.528 18.648 14.024Q18.768 13.76 18.84 13.364Q18.912 12.968 18.888 12.548Q18.864 12.128 18.696 11.744Q18.528 11.36 18.168 11.096Q17.664 10.736 16.968 10.664Q16.272 10.592 15.504 10.976Q15.36 11.072 15.18 11.012Q15 10.952 15.048 10.712Z" />
    </g>
  </g>
  <path d="M6.999 0L221.001 0Q221.173 0 221.344 0.0084306Q221.516 0.0168612 221.687 0.0337021Q221.858 0.050543 222.028 0.0757536Q222.198 0.100964 222.366 0.134484Q222.535 0.168003 222.702 0.209751Q222.868 0.251499 223.033 0.301375Q223.197 0.35125 223.359 0.409133Q223.521 0.467016 223.679 0.532767Q223.838 0.598518 223.993 0.671979Q224.149 0.74544 224.3 0.826433Q224.452 0.907426 224.599 0.995757Q224.747 1.08409 224.889 1.17954Q225.032 1.275 225.17 1.37735Q225.308 1.4797 225.441 1.5887Q225.574 1.6977 225.701 1.81308Q225.829 1.92847 225.95 2.04996Q226.072 2.17145 226.187 2.29876Q226.302 2.42607 226.411 2.55888Q226.52 2.6917 226.623 2.8297Q226.725 2.9677 226.82 3.11056Q226.916 3.25342 227.004 3.40079Q227.093 3.54817 227.174 3.69969Q227.255 3.85122 227.328 4.00654Q227.401 4.16186 227.467 4.3206Q227.533 4.47933 227.591 4.64111Q227.649 4.80288 227.699 4.9673Q227.748 5.13171 227.79 5.29838Q227.832 5.46505 227.866 5.63356Q227.899 5.80208 227.924 5.97203Q227.949 6.14199 227.966 6.31298Q227.983 6.48397 227.992 6.65558Q228 6.82718 228 6.999L228 130.845Q228 131.017 227.992 131.188Q227.983 131.36 227.966 131.531Q227.949 131.702 227.924 131.872Q227.899 132.042 227.866 132.21Q227.832 132.379 227.79 132.545Q227.749 132.712 227.699 132.876Q227.649 133.041 227.591 133.203Q227.533 133.364 227.467 133.523Q227.401 133.682 227.328 133.837Q227.255 133.993 227.174 134.144Q227.093 134.296 227.004 134.443Q226.916 134.59 226.82 134.733Q226.725 134.876 226.623 135.014Q226.52 135.152 226.411 135.285Q226.302 135.418 226.187 135.545Q226.072 135.672 225.95 135.794Q225.829 135.915 225.701 136.031Q225.574 136.146 225.441 136.255Q225.308 136.364 225.17 136.466Q225.032 136.569 224.889 136.664Q224.747 136.76 224.599 136.848Q224.452 136.936 224.3 137.017Q224.149 137.098 223.993 137.172Q223.838 137.245 223.679 137.311Q223.521 137.377 223.359 137.435Q223.197 137.492 223.033 137.542Q222.868 137.592 222.702 137.634Q222.535 137.676 222.366 137.709Q222.198 137.743 222.028 137.768Q221.858 137.793 221.687 137.81Q221.516 137.827 221.344 137.835Q221.173 137.844 221.001 137.844L6.999 137.844Q6.82718 137.844 6.65557 137.835Q6.48397 137.827 6.31298 137.81Q6.14199 137.793 5.97203 137.768Q5.80208 137.743 5.63356 137.709Q5.46505 137.676 5.29838 137.634Q5.13171 137.592 4.9673 137.542Q4.80288 137.492 4.64111 137.435Q4.47933 137.377 4.3206 137.311Q4.16186 137.245 4.00654 137.172Q3.85122 137.098 3.69969 137.017Q3.54817 136.936 3.40079 136.848Q3.25342 136.76 3.11056 136.664Q2.9677 136.569 2.8297 136.466Q2.6917 136.364 2.55888 136.255Q2.42607 136.146 2.29876 136.031Q2.17145 135.915 2.04996 135.794Q1.92847 135.672 1.81308 135.545Q1.6977 135.418 1.5887 135.285Q1.4797 135.152 1.37735 135.014Q1.275 134.876 1.17954 134.733Q1.08409 134.59 0.995757 134.443Q0.907426 134.296 0.826433 134.144Q0.74544 133.993 0.671979 133.837Q0.598518 133.682 0.532767 133.523Q0.467016 133.364 0.409133 133.203Q0.35125 133.041 0.301375 132.876Q0.251499 132.712 0.209751 132.545Q0.168003 132.379 0.134484 132.21Q0.100964 132.042 0.0757536 131.872Q0.050543 131.702 0.0337021 131.531Q0.0168612 131.36 0.0084306 131.188Q0 131.017 0 130.845L0 6.999Q0 6.82718 0.0084306 6.65557Q0.0168612 6.48397 0.0337021 6.31298Q0.050543 6.14199 0.0757536 5.97203Q0.100964 5.80208 0.134484 5.63356Q0.168003 5.46505 0.209751 5.29838Q0.251499 5.13171 0.301375 4.9673Q0.35125 4.80288 0.409133 4.64111Q0.467016 4.47933 0.532767 4.3206Q0.598518 4.16186 0.671979 4.00654Q0.74544 3.85122 0.826433 3.69969Q0.907426 3.54817 0.995757 3.40079Q1.08409 3.25342 1.17954 3.11056Q1.275 2.9677 1.37735 2.8297Q1.4797 2.6917 1.5887 2.55888Q1.6977 2.42607 1.81308 2.29876Q1.92847 2.17145 2.04996 2.04996Q2.17145 1.92847 2.29876 1.81308Q2.42607 1.6977 2.55888 1.5887Q2.6917 1.4797 2.8297 1.37735Q2.9677 1.275 3.11056 1.17954Q3.25342 1.08409 3.40079 0.995757Q3.54817 0.907426 3.69969 0.826433Q3.85122 0.74544 4.00654 0.671979Q4.16186 0.598518 4.3206 0.532767Q4.47933 0.467016 4.64111 0.409133Q4.80288 0.35125 4.9673 0.301375Q5.13171 0.251499 5.29838 0.209751Q5.46505 0.168003 5.63356 0.134484Q5.80208 0.100964 5.97203 0.0757536Q6.14199 0.050543 6.31298 0.0337021Q6.48397 0.0168612 6.65558 0.0084306Q6.82718 0 6.999 0Z" transform="translate(4 230.1562)" id="Rectangle-7" fill="#FFFFFF" fill-opacity="0" stroke="#000000" stroke-width="2" stroke-dasharray="2 3" />
</svg>