<?xml version="1.0" encoding="utf-8"?>
<svg width="466px" height="334px" viewBox="0 0 466 334" version="1.1" xmlns:xlink="http://www.w3.org/1999/xlink" xmlns="http://www.w3.org/2000/svg">
  <desc>Created with Lunacy</desc>
  <path d="M0 91C0 40.7421 48.5771 0 108.5 0C168.423 0 217 40.7421 217 91C217 141.258 168.423 182 108.5 182C48.5771 182 0 141.258 0 91Z" transform="translate(11 140)" id="Ellipse" fill="none" stroke="#2C2C2C" stroke-width="3" />
  <path d="M0 109.5C0 49.0248 58.6507 0 131 0C203.349 0 262 49.0248 262 109.5C262 169.975 203.349 219 131 219C58.6507 219 0 169.975 0 109.5Z" transform="translate(197 105)" id="Ellipse-2" fill="none" stroke="#2C2C2C" stroke-width="3" stroke-dasharray="6 8" />
  <g id="Startups" transform="translate(64 263)">
    <path d="M10.386 13.066Q10.764 12.976 10.908 12.796Q11.124 12.508 11.142 12.184Q11.16 11.86 10.98 11.644Q10.152 10.672 8.82 10.006Q7.488 9.34 6.048 9.412Q5.004 9.484 4.14 9.88Q3.276 10.276 2.628 10.906Q1.98 11.536 1.62 12.31Q1.26 13.084 1.26 13.948Q1.26 14.776 1.638 15.64Q2.016 16.504 2.844 17.224Q4.572 18.484 6.246 19.456Q7.92 20.428 9.396 21.544Q10.368 22.228 10.746 23.074Q11.124 23.92 10.944 24.712Q10.8 25.468 10.224 26.062Q9.648 26.656 8.712 26.872Q7.488 27.16 6.372 26.818Q5.256 26.476 4.428 25.72Q4.14 25.54 3.6 25.666Q3.06 25.792 2.844 26.116Q2.7 26.332 2.88 26.836Q3.06 27.34 3.312 27.628Q4.32 28.744 5.778 29.14Q7.236 29.536 8.748 29.248Q10.476 28.924 11.79 27.754Q13.104 26.584 13.356 24.604Q13.356 23.596 13.104 22.804Q12.852 22.012 12.42 21.382Q11.988 20.752 11.412 20.248Q10.836 19.744 10.188 19.312Q9.684 18.988 9.018 18.556Q8.352 18.124 7.614 17.656Q6.876 17.188 6.12 16.702Q5.364 16.216 4.716 15.748Q3.708 15.028 3.474 14.182Q3.24 13.336 4.068 12.436Q4.5 11.968 5.094 11.716Q5.688 11.464 6.228 11.464Q6.66 11.464 7.128 11.608Q7.596 11.752 8.064 11.968Q8.532 12.184 8.928 12.418Q9.324 12.652 9.612 12.868Q10.008 13.156 10.386 13.066ZM25.38 18.808Q24.696 18.448 24.012 18.484Q23.4 18.52 22.734 18.538Q22.068 18.556 21.348 18.628Q21.456 17.008 21.582 15.46Q21.708 13.912 21.852 12.688Q21.852 12.256 21.294 11.914Q20.736 11.572 20.124 11.608Q19.872 11.608 19.656 11.932Q19.44 12.256 19.404 12.688Q19.296 13.984 19.152 15.568Q19.008 17.152 18.9 18.844Q17.1 19.024 15.624 19.276Q15.012 19.456 14.832 19.816Q14.652 20.176 14.652 20.392Q14.652 21.004 15.21 21.22Q15.768 21.436 16.236 21.436Q16.812 21.364 17.442 21.31Q18.072 21.256 18.756 21.184Q18.684 22.876 18.63 24.388Q18.576 25.9 18.648 27.052Q18.72 28.204 19.332 28.96Q19.944 29.716 21.132 29.608Q21.924 29.536 22.95 29.158Q23.976 28.78 24.984 28.276Q25.992 27.772 26.874 27.214Q27.756 26.656 28.296 26.224Q28.764 25.756 28.944 25.18Q29.124 24.604 29.052 24.208Q28.98 23.956 28.674 23.884Q28.368 23.812 28.008 23.992Q27.216 24.388 26.334 24.838Q25.452 25.288 24.534 25.702Q23.616 26.116 22.698 26.458Q21.78 26.8 20.988 26.944Q20.952 26.908 20.952 26.404Q20.952 25.9 20.988 25.09Q21.024 24.28 21.078 23.236Q21.132 22.192 21.204 21.004Q22.068 20.932 22.896 20.896Q23.724 20.86 24.444 20.86Q24.804 20.86 25.398 20.698Q25.992 20.536 26.064 19.924Q26.064 19.168 25.38 18.808ZM64.548 18.484Q65.232 18.448 65.916 18.808Q66.6 19.168 66.6 19.924Q66.528 20.536 65.934 20.698Q65.34 20.86 64.98 20.86Q64.26 20.86 63.432 20.896Q62.604 20.932 61.74 21.004Q61.668 22.192 61.614 23.236Q61.56 24.28 61.524 25.09Q61.488 25.9 61.488 26.404Q61.488 26.908 61.524 26.944Q62.316 26.8 63.234 26.458Q64.152 26.116 65.07 25.702Q65.988 25.288 66.87 24.838Q67.752 24.388 68.544 23.992Q68.904 23.812 69.21 23.884Q69.516 23.956 69.588 24.208Q69.66 24.604 69.48 25.18Q69.3 25.756 68.832 26.224Q68.292 26.656 67.41 27.214Q66.528 27.772 65.52 28.276Q64.512 28.78 63.486 29.158Q62.46 29.536 61.668 29.608Q60.48 29.716 59.868 28.96Q59.256 28.204 59.184 27.052Q59.112 25.9 59.166 24.388Q59.22 22.876 59.292 21.184Q58.608 21.256 57.978 21.31Q57.348 21.364 56.772 21.436Q56.304 21.436 55.746 21.22Q55.188 21.004 55.188 20.392Q55.188 20.176 55.368 19.816Q55.548 19.456 56.16 19.276Q57.636 19.024 59.436 18.844Q59.544 17.152 59.688 15.568Q59.832 13.984 59.94 12.688Q59.976 12.256 60.192 11.932Q60.408 11.608 60.66 11.608Q61.272 11.572 61.83 11.914Q62.388 12.256 62.388 12.688Q62.244 13.912 62.118 15.46Q61.992 17.008 61.884 18.628Q62.604 18.556 63.27 18.538Q63.936 18.52 64.548 18.484ZM39.528 14.812Q39.672 15.82 39.762 16.954Q39.852 18.088 39.906 19.24Q39.96 20.392 39.96 21.472Q39.96 22.552 39.924 23.416Q41.076 24.208 41.31 24.82Q41.544 25.432 41.364 25.9Q41.148 26.548 40.59 26.566Q40.032 26.584 39.312 26.188Q38.808 26.548 38.16 26.962Q37.512 27.376 36.792 27.754Q36.072 28.132 35.352 28.42Q34.632 28.708 34.02 28.816Q32.868 28.996 31.95 28.384Q31.032 27.772 30.708 26.548Q30.492 25.72 30.6 24.838Q30.708 23.956 31.14 23.146Q31.572 22.336 32.31 21.688Q33.048 21.04 34.056 20.68Q34.308 20.572 34.758 20.5Q35.208 20.428 35.694 20.446Q36.18 20.464 36.684 20.644Q37.188 20.824 37.62 21.256Q37.62 20.644 37.602 19.906Q37.584 19.168 37.548 18.412Q37.512 17.656 37.458 16.99Q37.404 16.324 37.332 15.856Q37.26 15.316 36.918 15.19Q36.576 15.064 36.072 15.244Q35.208 15.532 34.056 16.36Q32.904 17.188 31.86 18.124Q31.536 18.448 31.122 18.412Q30.708 18.376 30.42 18.088Q30.132 17.8 30.096 17.422Q30.06 17.044 30.384 16.612Q30.996 15.964 31.752 15.28Q32.508 14.596 33.336 14.038Q34.164 13.48 35.028 13.12Q35.892 12.76 36.756 12.724Q38.016 12.688 38.7 13.282Q39.384 13.876 39.528 14.812ZM91.944 32.056Q91.908 32.452 91.584 32.794Q91.26 33.136 90.864 33.1Q90.252 33.064 89.928 32.632Q89.604 32.2 89.604 31.912Q89.604 30.544 89.532 29.05Q89.46 27.556 89.352 25.972Q88.884 26.044 88.506 25.882Q88.128 25.72 87.984 25.36Q87.732 24.748 88.056 24.28Q88.38 23.812 89.1 23.38Q88.92 22.048 88.758 20.752Q88.596 19.456 88.416 18.232Q88.38 18.016 88.452 17.836Q88.524 17.656 88.632 17.494Q88.74 17.332 89.028 17.188Q89.496 17.008 90.09 17.476Q90.684 17.944 90.9 18.664Q91.008 19.348 91.134 20.23Q91.26 21.112 91.368 22.156Q92.124 21.688 92.79 21.148Q93.456 20.608 93.942 19.996Q94.428 19.384 94.68 18.718Q94.932 18.052 94.824 17.332Q94.752 16.72 94.284 16.234Q93.816 15.748 92.808 15.712Q91.908 15.676 91.026 15.856Q90.144 16.036 89.298 16.324Q88.452 16.612 87.642 17.008Q86.832 17.404 86.076 17.8Q85.572 18.088 85.086 18.034Q84.6 17.98 84.456 17.692Q84.132 16.972 84.51 16.396Q84.888 15.82 85.68 15.316Q86.364 14.92 87.318 14.506Q88.272 14.092 89.334 13.786Q90.396 13.48 91.494 13.354Q92.592 13.228 93.6 13.39Q94.608 13.552 95.418 14.074Q96.228 14.596 96.732 15.604Q97.344 17.26 97.074 18.646Q96.804 20.032 95.994 21.166Q95.184 22.3 94.014 23.218Q92.844 24.136 91.656 24.856Q91.836 26.8 91.908 28.708Q91.98 30.616 91.944 32.056ZM106.164 16.612Q106.236 16.972 106.308 17.368Q106.344 17.692 106.65 17.89Q106.956 18.088 107.46 18.016Q107.856 17.944 108.018 17.62Q108.18 17.296 108.18 16.792Q108 15.28 106.992 14.506Q105.984 13.732 104.436 13.66Q103.536 13.66 102.636 14.056Q101.736 14.452 101.034 15.118Q100.332 15.784 99.9 16.648Q99.468 17.512 99.504 18.448Q99.648 19.492 100.188 20.194Q100.728 20.896 101.484 21.4Q102.24 21.904 103.302 22.516Q104.364 23.128 105.282 23.776Q106.2 24.424 106.758 25.018Q107.316 25.612 107.064 26.044Q106.776 26.548 106.056 26.872Q105.336 27.196 104.436 27.394Q103.536 27.592 102.546 27.682Q101.556 27.772 100.692 27.772Q100.08 27.772 99.504 28.024Q98.928 28.276 98.928 28.924Q98.928 29.104 99.126 29.338Q99.324 29.572 99.594 29.788Q99.864 30.004 100.17 30.166Q100.476 30.328 100.692 30.328Q101.592 30.328 102.888 30.202Q104.184 30.076 105.48 29.734Q106.776 29.392 107.856 28.78Q108.936 28.168 109.332 27.196Q109.836 25.936 109.494 24.946Q109.152 23.956 108.216 23.128Q107.28 22.3 105.912 21.508Q104.544 20.716 103.284 19.96Q102.528 19.456 102.132 18.952Q101.736 18.448 101.844 17.908Q101.88 17.62 102.276 17.242Q102.672 16.864 103.248 16.558Q103.824 16.252 104.508 16.108Q105.192 15.964 105.804 16.144Q106.092 16.252 106.164 16.612ZM52.866 16.468Q53.568 16.072 54.216 15.712Q54.684 15.388 54.774 14.992Q54.864 14.596 54.72 14.416Q54.576 14.236 54.216 14.164Q53.856 14.092 53.316 14.164Q52.056 14.38 50.85 15.028Q49.644 15.676 48.69 16.612Q47.736 17.548 47.088 18.7Q46.44 19.852 46.296 21.076Q46.08 20.032 45.864 18.574Q45.648 17.116 45.504 15.784Q45.432 15.388 45.036 15.208Q44.64 15.028 44.208 14.992Q43.812 14.956 43.506 15.1Q43.2 15.244 43.2 15.748Q43.488 18.232 43.884 20.734Q44.28 23.236 44.892 25.792Q45.036 26.44 45.45 27.142Q45.864 27.844 46.548 27.844Q47.088 27.844 47.394 27.178Q47.7 26.512 47.7 25.864Q47.772 24.496 48.024 23.074Q48.276 21.652 48.996 20.284Q49.5 19.312 50.13 18.61Q50.76 17.908 51.462 17.386Q52.164 16.864 52.866 16.468ZM73.728 19.618Q73.944 18.448 74.16 17.476Q74.304 16.9 73.854 16.36Q73.404 15.82 72.864 15.712Q72.576 15.64 72.36 15.874Q72.144 16.108 72.072 16.396Q71.892 17.08 71.658 18.16Q71.424 19.24 71.262 20.446Q71.1 21.652 71.082 22.876Q71.064 24.1 71.352 25.108Q72.108 27.628 73.548 27.808Q74.52 27.916 75.438 27.466Q76.356 27.016 77.202 26.206Q78.048 25.396 78.786 24.406Q79.524 23.416 80.064 22.444Q80.1 22.948 80.208 23.686Q80.316 24.424 80.442 25.234Q80.568 26.044 80.73 26.782Q80.892 27.52 81.072 28.024Q81.252 28.456 81.594 28.6Q81.936 28.744 82.26 28.672Q82.656 28.564 82.98 28.06Q83.304 27.556 83.196 27.16Q82.98 26.188 82.764 24.964Q82.548 23.74 82.35 22.444Q82.152 21.148 82.008 19.852Q81.864 18.556 81.792 17.476Q81.792 17.188 81.63 16.918Q81.468 16.648 81.27 16.45Q81.072 16.252 80.838 16.144Q80.604 16.036 80.424 16.072Q80.172 16.108 79.794 16.378Q79.416 16.648 79.416 16.936Q79.416 17.44 79.308 17.908Q79.2 18.376 79.056 18.808Q78.804 19.672 78.192 20.806Q77.58 21.94 76.824 22.912Q76.068 23.884 75.276 24.514Q74.484 25.144 73.872 25.036Q73.512 24.676 73.422 23.812Q73.332 22.948 73.422 21.868Q73.512 20.788 73.728 19.618ZM35.352 22.552Q34.884 22.66 34.362 23.002Q33.84 23.344 33.426 23.83Q33.012 24.316 32.814 24.91Q32.616 25.504 32.796 26.08Q32.868 26.296 33.102 26.404Q33.336 26.512 33.624 26.44Q34.488 26.26 35.586 25.738Q36.684 25.216 37.332 24.604Q37.332 24.388 37.116 24.046Q36.9 23.704 36.612 23.362Q36.324 23.02 35.982 22.768Q35.64 22.516 35.352 22.552Z" />
  </g>
  <g id="Humble-Businesses" transform="translate(264 254)">
    <g id="Humble">
      <path d="M57.078 3.248Q57.06 2.42 57.024 1.844Q56.916 1.268 56.52 0.943998Q56.124 0.620001 55.62 0.547998Q55.404 0.548 55.098 0.656Q54.792 0.764 54.792 1.484Q54.72 5.66 55.188 9.71Q55.656 13.76 56.52 17.72Q56.304 17.9 55.998 18.098Q55.692 18.296 55.476 18.548Q55.26 18.8 55.188 19.106Q55.116 19.412 55.296 19.844Q55.512 20.132 56.196 20.276Q56.88 20.42 57.6 20.132Q58.104 19.808 59.238 19.052Q60.372 18.296 61.542 17.18Q62.712 16.064 63.594 14.624Q64.476 13.184 64.476 11.492Q64.476 10.7 64.224 9.854Q63.972 9.008 63.432 8.306Q62.892 7.604 62.064 7.208Q61.236 6.812 60.12 6.956Q59.4 7.064 58.698 7.532Q57.996 8 57.456 8.9Q57.312 8 57.24 7.01Q57.168 6.02 57.132 5.048Q57.096 4.076 57.078 3.248ZM70.02 3.284Q70.2 7.208 70.632 11.402Q71.064 15.596 71.568 19.412Q71.6459 20.554 71.1623 20.8914Q70.9752 21.022 70.704 21.032Q70.488 21.032 70.272 20.87Q70.056 20.708 69.876 20.456Q69.696 20.204 69.534 19.916Q69.372 19.628 69.336 19.412Q69.048 17.576 68.796 15.524Q68.544 13.472 68.346 11.402Q68.148 9.332 68.004 7.352Q67.86 5.372 67.824 3.716Q67.896 2.852 68.076 2.258Q68.256 1.664 68.832 1.7Q69.444 1.736 69.714 2.186Q69.984 2.636 70.02 3.284ZM14.688 11.618Q14.436 8.72 13.932 5.804Q13.824 5.192 13.518 4.904Q13.212 4.616 12.924 4.616Q12.528 4.616 12.15 5.084Q11.772 5.552 11.772 6.164Q11.88 6.992 11.988 7.838Q12.096 8.684 12.168 9.512Q10.26 10.088 8.1 10.538Q5.94 10.988 4.104 11.24Q3.924 10.124 3.852 9.008Q3.78 7.892 3.744 6.74Q3.744 6.524 3.672 6.2Q3.6 5.876 3.456 5.552Q3.312 5.228 3.078 5.012Q2.844 4.796 2.52 4.796Q2.232 4.796 1.89 5.03Q1.548 5.264 1.476 5.804Q1.404 7.424 1.512 9.188Q1.62 10.952 1.89 12.662Q2.16 14.372 2.538 15.92Q2.916 17.468 3.348 18.584Q3.456 18.8 3.78 19.016Q4.104 19.232 4.392 19.196Q4.716 19.052 4.878 18.746Q5.04 18.44 5.094 18.08Q5.148 17.72 5.13 17.396Q5.112 17.072 5.076 16.928Q4.896 16.136 4.752 15.344L4.464 13.76Q8.676 12.968 12.456 11.924Q12.6 13.292 12.708 14.66L12.924 17.396Q12.996 18.008 13.374 18.386Q13.752 18.764 14.148 18.764Q14.256 18.764 14.418 18.656Q14.58 18.548 14.742 18.368Q14.904 18.188 15.012 17.954Q15.12 17.72 15.084 17.396Q14.94 14.516 14.688 11.618ZM80.208 12.95Q81.828 12.5 83.232 11.672Q83.844 11.276 83.97 10.772Q84.096 10.268 83.808 9.584Q83.304 8.36 82.044 7.676Q80.784 6.992 79.236 7.1Q77.94 7.172 76.968 7.676Q75.996 8.18 75.348 8.954Q74.7 9.728 74.394 10.736Q74.088 11.744 74.196 12.86Q74.304 14.048 74.736 15.164Q75.168 16.28 75.996 17.108Q76.968 18.044 78.192 18.368Q79.416 18.692 80.568 18.476Q81.9 18.26 82.98 17.45Q84.06 16.64 84.636 15.488Q84.78 14.588 84.276 14.408Q84.096 14.336 83.736 14.426Q83.376 14.516 83.052 14.804Q82.728 15.092 82.296 15.38Q81.864 15.668 81.342 15.902Q80.82 16.136 80.226 16.244Q79.632 16.352 79.056 16.28Q78.084 16.136 77.436 15.398Q76.788 14.66 76.716 13.4Q78.588 13.4 80.208 12.95ZM34.668 8.504Q34.704 9.08 34.794 9.926Q34.884 10.772 34.992 11.69Q35.1 12.608 35.226 13.508Q35.352 14.408 35.46 15.164L36.432 13.22Q37.008 12.068 37.638 11.006Q38.268 9.944 38.934 9.206Q39.6 8.468 40.14 8.468Q40.716 8.468 41.202 9.026Q41.688 9.584 42.048 10.376Q42.408 11.168 42.678 12.068Q42.948 12.968 43.128 13.652Q43.272 13.184 43.506 12.59Q43.74 11.996 44.01 11.366Q44.28 10.736 44.622 10.124Q44.964 9.512 45.36 9.044Q45.828 8.54 46.368 8.306Q46.908 8.072 47.16 8.072Q47.484 8.072 47.934 8.27Q48.384 8.468 48.852 8.792Q49.32 9.116 49.734 9.566Q50.148 10.016 50.4 10.484Q50.904 11.456 51.21 12.608Q51.516 13.76 51.66 14.804Q51.804 15.848 51.858 16.658Q51.912 17.468 51.948 17.792Q51.948 18.26 51.84 18.494Q51.732 18.728 51.444 18.872Q51.048 19.052 50.76 18.998Q50.472 18.944 50.292 18.764Q50.112 18.584 50.004 18.35Q49.896 18.116 49.86 17.936Q49.752 17.108 49.626 16.244Q49.5 15.38 49.356 14.57Q49.212 13.76 49.014 13.058Q48.816 12.356 48.6 11.816Q48.528 11.672 48.366 11.438Q48.204 11.204 48.006 10.988Q47.808 10.772 47.628 10.628Q47.448 10.484 47.376 10.448Q47.016 10.448 46.62 11.114Q46.224 11.78 45.864 12.716Q45.504 13.652 45.198 14.678Q44.892 15.704 44.748 16.424Q44.748 17.36 44.388 17.81Q44.028 18.26 43.632 18.26Q43.236 18.26 42.786 17.954Q42.336 17.648 42.192 17.252Q41.976 16.676 41.724 15.956Q41.472 15.236 41.202 14.48Q40.932 13.724 40.662 13.004Q40.392 12.284 40.14 11.708Q39.636 12.392 39.15 13.22Q38.664 14.048 38.214 14.912Q37.764 15.776 37.35 16.622Q36.936 17.468 36.576 18.116Q36.324 18.512 36.036 18.818Q35.748 19.124 35.352 19.124Q35.064 19.124 34.74 18.854Q34.416 18.584 34.128 18.188Q33.84 17.792 33.606 17.288Q33.372 16.784 33.264 16.28Q32.976 14.732 32.778 12.878Q32.58 11.024 32.4 9.26Q32.364 8.648 32.562 8.126Q32.76 7.604 33.336 7.424Q33.948 7.316 34.272 7.604Q34.596 7.892 34.668 8.504ZM20.412 11.618Q20.628 10.448 20.844 9.476Q20.988 8.9 20.538 8.36Q20.088 7.82 19.548 7.712Q19.26 7.64 19.044 7.874Q18.828 8.108 18.756 8.396Q18.576 9.08 18.342 10.16Q18.108 11.24 17.946 12.446Q17.784 13.652 17.766 14.876Q17.748 16.1 18.036 17.108Q18.792 19.628 20.232 19.808Q21.204 19.916 22.122 19.466Q23.04 19.016 23.886 18.206Q24.732 17.396 25.47 16.406Q26.208 15.416 26.748 14.444Q26.784 14.948 26.892 15.686Q27 16.424 27.126 17.234Q27.252 18.044 27.414 18.782Q27.576 19.52 27.756 20.024Q27.936 20.456 28.278 20.6Q28.62 20.744 28.944 20.672Q29.34 20.564 29.664 20.06Q29.988 19.556 29.88 19.16Q29.664 18.188 29.448 16.964Q29.232 15.74 29.034 14.444Q28.836 13.148 28.692 11.852Q28.548 10.556 28.476 9.476Q28.476 9.188 28.314 8.918Q28.152 8.648 27.954 8.45Q27.756 8.252 27.522 8.144Q27.288 8.036 27.108 8.072Q26.856 8.108 26.478 8.378Q26.1 8.648 26.1 8.936Q26.1 9.44 25.992 9.908Q25.884 10.376 25.74 10.808Q25.488 11.672 24.876 12.806Q24.264 13.94 23.508 14.912Q22.752 15.884 21.96 16.514Q21.168 17.144 20.556 17.036Q20.196 16.676 20.106 15.812Q20.016 14.948 20.106 13.868Q20.196 12.788 20.412 11.618ZM78.318 9.476Q78.732 9.296 79.092 9.224Q79.884 9.08 80.658 9.242Q81.432 9.404 81.72 10.088Q81.324 10.34 80.73 10.556Q80.136 10.772 79.434 10.934Q78.732 11.096 77.994 11.204Q77.256 11.312 76.644 11.312Q76.68 10.88 76.95 10.538Q77.22 10.196 77.562 9.926Q77.904 9.656 78.318 9.476ZM61.668 9.674Q62.28 10.16 62.28 11.384Q62.28 12.212 61.92 12.95Q61.56 13.688 61.002 14.336Q60.444 14.984 59.796 15.506Q59.148 16.028 58.572 16.424Q58.392 15.596 58.266 14.552Q58.14 13.508 58.068 12.608Q58.032 12.068 58.194 11.492Q58.356 10.916 58.68 10.448Q59.004 9.98 59.436 9.656Q59.868 9.332 60.408 9.26Q61.056 9.188 61.668 9.674Z" />
    </g>
    <g id="Businesses">
      <path d="M4.698 44.952Q5.076 45.348 5.436 45.492Q5.58 45.6 5.76 45.6Q6.12 45.96 6.732 45.96Q8.136 45.96 9.45 45.492Q10.764 45.024 11.79 44.196Q12.816 43.368 13.446 42.18Q14.076 40.992 14.076 39.552Q14.076 38.292 13.608 37.392Q13.14 36.492 12.402 35.934Q11.664 35.376 10.728 35.142Q9.792 34.908 8.892 34.98Q9.36 34.476 9.81 33.792Q10.26 33.108 10.512 32.352Q10.764 31.596 10.746 30.804Q10.728 30.012 10.296 29.292Q9.396 28.176 8.118 27.744Q6.84 27.312 5.472 27.312Q3.78 27.312 2.25 27.78Q0.72 28.248 -0.396 29.4Q-0.684 29.688 -0.864 30.048Q-1.044 30.408 -1.044 30.912Q-0.864 31.452 -0.342 31.578Q0.18 31.704 0.612 31.38Q1.548 30.624 2.682 30.102Q3.816 29.58 5.256 29.58Q6.3 29.58 7.128 29.904Q7.956 30.228 8.136 30.912Q8.28 31.524 8.082 32.154Q7.884 32.784 7.434 33.378Q6.984 33.972 6.3 34.476Q5.616 34.98 4.752 35.304Q4.536 34.332 4.32 33.504Q4.104 32.676 3.924 32.028Q3.528 31.236 2.592 31.344Q2.196 31.416 2.196 31.992Q2.232 32.532 2.34 33.432Q2.448 34.332 2.628 35.466Q2.808 36.6 3.006 37.842Q3.204 39.084 3.42 40.272Q3.636 41.46 3.852 42.504Q4.068 43.548 4.248 44.268Q4.32 44.556 4.698 44.952ZM48.924 30.84Q49.356 30.804 49.428 30.444Q49.5 29.94 49.158 29.58Q48.816 29.22 48.24 29.04Q47.844 28.932 47.232 28.914Q46.62 28.896 45.954 28.968Q45.288 29.04 44.64 29.202Q43.992 29.364 43.524 29.58Q43.236 29.724 43.02 29.904Q42.804 30.084 42.804 30.372Q42.912 31.128 43.416 31.38Q43.92 31.632 44.352 31.488Q45.396 31.2 46.35 31.056Q47.304 30.912 48.204 30.876Q48.492 30.876 48.924 30.84ZM37.908 34.368Q37.836 33.972 37.764 33.612Q37.692 33.252 37.404 33.144Q36.792 32.964 36.108 33.108Q35.424 33.252 34.848 33.558Q34.272 33.864 33.876 34.242Q33.48 34.62 33.444 34.908Q33.336 35.448 33.732 35.952Q34.128 36.456 34.884 36.96Q36.144 37.716 37.512 38.508Q38.88 39.3 39.816 40.128Q40.752 40.956 41.094 41.946Q41.436 42.936 40.932 44.196Q40.536 45.168 39.456 45.78Q38.376 46.392 37.08 46.734Q35.784 47.076 34.488 47.202Q33.192 47.328 32.292 47.328Q32.076 47.328 31.77 47.166Q31.464 47.004 31.194 46.788Q30.924 46.572 30.726 46.338Q30.528 46.104 30.528 45.924Q30.528 45.276 31.104 45.024Q31.68 44.772 32.292 44.772Q33.156 44.772 34.146 44.682Q35.136 44.592 36.036 44.394Q36.936 44.196 37.656 43.872Q38.376 43.548 38.664 43.044Q38.916 42.612 38.358 42.018Q37.8 41.424 36.882 40.776Q35.964 40.128 34.902 39.516Q33.84 38.904 33.084 38.4Q32.328 37.896 31.788 37.194Q31.248 36.492 31.104 35.448Q31.068 34.512 31.5 33.648Q31.932 32.784 32.634 32.118Q33.336 31.452 34.236 31.056Q35.136 30.66 36.036 30.66Q37.584 30.732 38.592 31.506Q39.6 32.28 39.78 33.792Q39.78 34.296 39.618 34.62Q39.456 34.944 39.06 35.016Q38.556 35.088 38.25 34.89Q37.944 34.692 37.908 34.368ZM86.724 34.368Q86.652 33.972 86.58 33.612Q86.508 33.252 86.22 33.144Q85.608 32.964 84.924 33.108Q84.24 33.252 83.664 33.558Q83.088 33.864 82.692 34.242Q82.296 34.62 82.26 34.908Q82.152 35.448 82.548 35.952Q82.944 36.456 83.7 36.96Q84.96 37.716 86.328 38.508Q87.696 39.3 88.632 40.128Q89.568 40.956 89.91 41.946Q90.252 42.936 89.748 44.196Q89.352 45.168 88.272 45.78Q87.192 46.392 85.896 46.734Q84.6 47.076 83.304 47.202Q82.008 47.328 81.108 47.328Q80.892 47.328 80.586 47.166Q80.28 47.004 80.01 46.788Q79.74 46.572 79.542 46.338Q79.344 46.104 79.344 45.924Q79.344 45.276 79.92 45.024Q80.496 44.772 81.108 44.772Q81.972 44.772 82.962 44.682Q83.952 44.592 84.852 44.394Q85.752 44.196 86.472 43.872Q87.192 43.548 87.48 43.044Q87.732 42.612 87.174 42.018Q86.616 41.424 85.698 40.776Q84.78 40.128 83.718 39.516Q82.656 38.904 81.9 38.4Q81.144 37.896 80.604 37.194Q80.064 36.492 79.92 35.448Q79.884 34.512 80.316 33.648Q80.748 32.784 81.45 32.118Q82.152 31.452 83.052 31.056Q83.952 30.66 84.852 30.66Q86.4 30.732 87.408 31.506Q88.416 32.28 88.596 33.792Q88.596 34.296 88.434 34.62Q88.272 34.944 87.876 35.016Q87.372 35.088 87.066 34.89Q86.76 34.692 86.724 34.368ZM98.784 33.612Q98.856 33.972 98.928 34.368Q98.964 34.692 99.27 34.89Q99.576 35.088 100.08 35.016Q100.476 34.944 100.638 34.62Q100.8 34.296 100.8 33.792Q100.62 32.28 99.612 31.506Q98.604 30.732 97.056 30.66Q96.156 30.66 95.256 31.056Q94.356 31.452 93.654 32.118Q92.952 32.784 92.52 33.648Q92.088 34.512 92.124 35.448Q92.268 36.492 92.808 37.194Q93.348 37.896 94.104 38.4Q94.86 38.904 95.922 39.516Q96.984 40.128 97.902 40.776Q98.82 41.424 99.378 42.018Q99.936 42.612 99.684 43.044Q99.396 43.548 98.676 43.872Q97.956 44.196 97.056 44.394Q96.156 44.592 95.166 44.682Q94.176 44.772 93.312 44.772Q92.7 44.772 92.124 45.024Q91.548 45.276 91.548 45.924Q91.548 46.104 91.746 46.338Q91.944 46.572 92.214 46.788Q92.484 47.004 92.79 47.166Q93.096 47.328 93.312 47.328Q94.212 47.328 95.508 47.202Q96.804 47.076 98.1 46.734Q99.396 46.392 100.476 45.78Q101.556 45.168 101.952 44.196Q102.456 42.936 102.114 41.946Q101.772 40.956 100.836 40.128Q99.9 39.3 98.532 38.508Q97.164 37.716 95.904 36.96Q95.148 36.456 94.752 35.952Q94.356 35.448 94.464 34.908Q94.5 34.62 94.896 34.242Q95.292 33.864 95.868 33.558Q96.444 33.252 97.128 33.108Q97.812 32.964 98.424 33.144Q98.712 33.252 98.784 33.612ZM123.624 33.612Q123.696 33.972 123.768 34.368Q123.804 34.692 124.11 34.89Q124.416 35.088 124.92 35.016Q125.316 34.944 125.478 34.62Q125.64 34.296 125.64 33.792Q125.46 32.28 124.452 31.506Q123.444 30.732 121.896 30.66Q120.996 30.66 120.096 31.056Q119.196 31.452 118.494 32.118Q117.792 32.784 117.36 33.648Q116.928 34.512 116.964 35.448Q117.108 36.492 117.648 37.194Q118.188 37.896 118.944 38.4Q119.7 38.904 120.762 39.516Q121.824 40.128 122.742 40.776Q123.66 41.424 124.218 42.018Q124.776 42.612 124.524 43.044Q124.236 43.548 123.516 43.872Q122.796 44.196 121.896 44.394Q120.996 44.592 120.006 44.682Q119.016 44.772 118.152 44.772Q117.54 44.772 116.964 45.024Q116.388 45.276 116.388 45.924Q116.388 46.104 116.586 46.338Q116.784 46.572 117.054 46.788Q117.324 47.004 117.63 47.166Q117.936 47.328 118.152 47.328Q119.052 47.328 120.348 47.202Q121.644 47.076 122.94 46.734Q124.236 46.392 125.316 45.78Q126.396 45.168 126.792 44.196Q127.296 42.936 126.954 41.946Q126.612 40.956 125.676 40.128Q124.74 39.3 123.372 38.508Q122.004 37.716 120.744 36.96Q119.988 36.456 119.592 35.952Q119.196 35.448 119.304 34.908Q119.34 34.62 119.736 34.242Q120.132 33.864 120.708 33.558Q121.284 33.252 121.968 33.108Q122.652 32.964 123.264 33.144Q123.552 33.252 123.624 33.612ZM54.396 33.252Q54.504 33.792 54.63 34.458Q54.756 35.124 54.9 35.826Q55.044 36.528 55.152 37.248Q55.26 37.968 55.332 38.616Q55.764 37.68 56.268 36.636Q56.772 35.592 57.366 34.71Q57.96 33.828 58.626 33.252Q59.292 32.676 60.084 32.676Q61.272 32.676 62.082 33.54Q62.892 34.404 63.45 35.682Q64.008 36.96 64.332 38.364Q64.656 39.768 64.872 40.848Q65.088 41.82 64.008 42.288Q63.504 42.54 63.252 42.36Q63 42.18 62.964 42Q62.784 41.568 62.514 40.488Q62.244 39.408 61.902 38.292Q61.56 37.176 61.128 36.348Q60.696 35.52 60.156 35.592Q59.508 35.628 59.004 36.564Q58.572 37.32 58.122 38.238Q57.672 39.156 57.24 40.11Q56.808 41.064 56.394 42.018Q55.98 42.972 55.62 43.764Q55.368 44.016 54.99 44.106Q54.612 44.196 54.216 44.052Q53.856 43.944 53.64 43.692Q53.424 43.44 53.424 43.188Q53.1 40.38 52.758 38.076Q52.416 35.772 51.876 33.36Q51.624 32.532 51.786 32.046Q51.948 31.56 52.848 31.668Q54.108 31.884 54.396 33.252ZM73.044 37.95Q74.664 37.5 76.068 36.672Q76.68 36.276 76.806 35.772Q76.932 35.268 76.644 34.584Q76.14 33.36 74.88 32.676Q73.62 31.992 72.072 32.1Q70.776 32.172 69.804 32.676Q68.832 33.18 68.184 33.954Q67.536 34.728 67.23 35.736Q66.924 36.744 67.032 37.86Q67.14 39.048 67.572 40.164Q68.004 41.28 68.832 42.108Q69.804 43.044 71.028 43.368Q72.252 43.692 73.404 43.476Q74.736 43.26 75.816 42.45Q76.896 41.64 77.472 40.488Q77.616 39.588 77.112 39.408Q76.932 39.336 76.572 39.426Q76.212 39.516 75.888 39.804Q75.564 40.092 75.132 40.38Q74.7 40.668 74.178 40.902Q73.656 41.136 73.062 41.244Q72.468 41.352 71.892 41.28Q70.92 41.136 70.272 40.398Q69.624 39.66 69.552 38.4Q71.424 38.4 73.044 37.95ZM113.112 36.672Q111.708 37.5 110.088 37.95Q108.468 38.4 106.596 38.4Q106.668 39.66 107.316 40.398Q107.964 41.136 108.936 41.28Q109.512 41.352 110.106 41.244Q110.7 41.136 111.222 40.902Q111.744 40.668 112.176 40.38Q112.608 40.092 112.932 39.804Q113.256 39.516 113.616 39.426Q113.976 39.336 114.156 39.408Q114.66 39.588 114.516 40.488Q113.94 41.64 112.86 42.45Q111.78 43.26 110.448 43.476Q109.296 43.692 108.072 43.368Q106.848 43.044 105.876 42.108Q105.048 41.28 104.616 40.164Q104.184 39.048 104.076 37.86Q103.968 36.744 104.274 35.736Q104.58 34.728 105.228 33.954Q105.876 33.18 106.848 32.676Q107.82 32.172 109.116 32.1Q110.664 31.992 111.924 32.676Q113.184 33.36 113.688 34.584Q113.976 35.268 113.85 35.772Q113.724 36.276 113.112 36.672ZM19.08 36.618Q19.296 35.448 19.512 34.476Q19.656 33.9 19.206 33.36Q18.756 32.82 18.216 32.712Q17.928 32.64 17.712 32.874Q17.496 33.108 17.424 33.396Q17.244 34.08 17.01 35.16Q16.776 36.24 16.614 37.446Q16.452 38.652 16.434 39.876Q16.416 41.1 16.704 42.108Q17.46 44.628 18.9 44.808Q19.872 44.916 20.79 44.466Q21.708 44.016 22.554 43.206Q23.4 42.396 24.138 41.406Q24.876 40.416 25.416 39.444Q25.452 39.948 25.56 40.686Q25.668 41.424 25.794 42.234Q25.92 43.044 26.082 43.782Q26.244 44.52 26.424 45.024Q26.604 45.456 26.946 45.6Q27.288 45.744 27.612 45.672Q28.008 45.564 28.332 45.06Q28.656 44.556 28.548 44.16Q28.332 43.188 28.116 41.964Q27.9 40.74 27.702 39.444Q27.504 38.148 27.36 36.852Q27.216 35.556 27.144 34.476Q27.144 34.188 26.982 33.918Q26.82 33.648 26.622 33.45Q26.424 33.252 26.19 33.144Q25.956 33.036 25.776 33.072Q25.524 33.108 25.146 33.378Q24.768 33.648 24.768 33.936Q24.768 34.44 24.66 34.908Q24.552 35.376 24.408 35.808Q24.156 36.672 23.544 37.806Q22.932 38.94 22.176 39.912Q21.42 40.884 20.628 41.514Q19.836 42.144 19.224 42.036Q18.864 41.676 18.774 40.812Q18.684 39.948 18.774 38.868Q18.864 37.788 19.08 36.618ZM71.154 34.476Q71.568 34.296 71.928 34.224Q72.72 34.08 73.494 34.242Q74.268 34.404 74.556 35.088Q74.16 35.34 73.566 35.556Q72.972 35.772 72.27 35.934Q71.568 36.096 70.83 36.204Q70.092 36.312 69.48 36.312Q69.516 35.88 69.786 35.538Q70.056 35.196 70.398 34.926Q70.74 34.656 71.154 34.476ZM108.972 34.224Q108.612 34.296 108.198 34.476Q107.784 34.656 107.442 34.926Q107.1 35.196 106.83 35.538Q106.56 35.88 106.524 36.312Q107.136 36.312 107.874 36.204Q108.612 36.096 109.314 35.934Q110.016 35.772 110.61 35.556Q111.204 35.34 111.6 35.088Q111.312 34.404 110.538 34.242Q109.764 34.08 108.972 34.224ZM48.87 43.674Q48.852 43.008 48.6 42.432Q48.384 41.964 48.24 41.226Q48.096 40.488 47.988 39.696Q47.88 38.904 47.844 38.112Q47.808 37.32 47.808 36.672Q47.844 35.844 47.448 35.286Q47.052 34.728 46.404 34.692Q46.008 34.764 45.756 35.196Q45.504 35.628 45.468 36.132Q45.468 36.6 45.486 37.536Q45.504 38.472 45.612 39.552Q45.72 40.632 45.936 41.73Q46.152 42.828 46.548 43.584Q46.836 44.196 47.412 44.556Q47.988 44.916 48.492 44.592Q48.888 44.34 48.87 43.674ZM5.832 40.848Q5.58 39.336 5.292 37.932Q6.408 37.68 7.506 37.554Q8.604 37.428 9.522 37.572Q10.44 37.716 11.088 38.184Q11.736 38.652 11.916 39.552Q11.952 40.56 11.412 41.37Q10.872 42.18 10.044 42.738Q9.216 43.296 8.262 43.584Q7.308 43.872 6.516 43.872L6.372 43.872Q6.084 42.36 5.832 40.848Z" />
    </g>
  </g>
  <path d="M0 18C0 8.05887 9.62588 0 21.5 0C33.3741 0 43 8.05887 43 18C43 27.9411 33.3741 36 21.5 36C9.62588 36 0 27.9411 0 18Z" transform="translate(299 138)" id="Ellipse-3" fill="#AEAEB2" stroke="#2C2C2C" stroke-width="3" stroke-dasharray="6 8" />
  <path d="M0 18C0 8.05887 9.62588 0 21.5 0C33.3741 0 43 8.05887 43 18C43 27.9411 33.3741 36 21.5 36C9.62588 36 0 27.9411 0 18Z" transform="translate(371 174)" id="Ellipse-4" fill="#AEAEB2" stroke="#2C2C2C" stroke-width="3" stroke-dasharray="6 8" />
  <path d="M0 18C0 8.05887 9.62588 0 21.5 0C33.3741 0 43 8.05887 43 18C43 27.9411 33.3741 36 21.5 36C9.62588 36 0 27.9411 0 18Z" transform="translate(299 195)" id="Ellipse-5" fill="#AEAEB2" stroke="#2C2C2C" stroke-width="3" stroke-dasharray="6 8" />
  <path d="M0 18C0 8.05887 9.62588 0 21.5 0C33.3741 0 43 8.05887 43 18C43 27.9411 33.3741 36 21.5 36C9.62588 36 0 27.9411 0 18Z" transform="translate(369 231)" id="Ellipse-20" fill="#AEAEB2" stroke="#2C2C2C" stroke-width="3" stroke-dasharray="6 8" />
  <path d="M0 9.5C0 4.25329 4.25329 0 9.5 0C14.7467 0 19 4.25329 19 9.5C19 14.7467 14.7467 19 9.5 19C4.25329 19 0 14.7467 0 9.5Z" transform="translate(64 194)" id="Ellipse-6" fill="#000000" stroke="none" />
  <path d="M0 9.5C0 4.25329 4.25329 0 9.5 0C14.7467 0 19 4.25329 19 9.5C19 14.7467 14.7467 19 9.5 19C4.25329 19 0 14.7467 0 9.5Z" transform="translate(54 165)" id="Ellipse-17" fill="#000000" stroke="none" />
  <path d="M0 13C0 5.8203 8.05887 0 18 0C27.9411 0 36 5.8203 36 13C36 20.1797 27.9411 26 18 26C8.05887 26 0 20.1797 0 13Z" transform="translate(83 231)" id="Ellipse-7" fill="#000000" stroke="none" />
  <path d="M0 22.5C0 10.0736 11.2359 0 25.0962 0C38.9564 0 50.1923 10.0736 50.1923 22.5C50.1923 34.9264 38.9564 45 25.0962 45C11.2359 45 0 34.9264 0 22.5Z" transform="translate(24 219)" id="Ellipse-13" fill="#000000" stroke="none" />
  <path d="M0 6C0 2.68629 2.91015 0 6.5 0C10.0899 0 13 2.68629 13 6C13 9.31371 10.0899 12 6.5 12C2.91015 12 0 9.31371 0 6Z" transform="translate(106 192)" id="Ellipse-8" fill="#000000" stroke="none" />
  <path d="M0 6.42308C0 2.87571 3.11535 0 6.95833 0C10.8013 0 13.9167 2.87571 13.9167 6.42308C13.9167 9.97044 10.8013 12.8462 6.95833 12.8462C3.11535 12.8462 0 9.97044 0 6.42308Z" transform="translate(314 203)" id="Ellipse-21" fill="#000000" stroke="none" />
  <path d="M0 1C0 0.447715 0.485025 0 1.08333 0C1.68164 0 2.16667 0.447715 2.16667 1C2.16667 1.55228 1.68164 2 1.08333 2C0.485025 2 0 1.55228 0 1Z" transform="translate(315.9583 154.0001)" id="Ellipse-22" fill="#000000" stroke="none" />
  <path d="M0 1C0 0.447715 0.485025 0 1.08333 0C1.68164 0 2.16667 0.447715 2.16667 1C2.16667 1.55228 1.68164 2 1.08333 2C0.485025 2 0 1.55228 0 1Z" transform="translate(309 152)" id="Ellipse-39" fill="#000000" stroke="none" />
  <path d="M0 5.5C0 2.46243 2.66764 0 5.95833 0C9.24903 0 11.9167 2.46243 11.9167 5.5C11.9167 8.53757 9.24903 11 5.95833 11C2.66764 11 0 8.53757 0 5.5Z" transform="translate(324.9999 148.4615)" id="Ellipse-23" fill="#000000" stroke="none" />
  <path d="M0 2.73077C0 1.22261 1.32449 0 2.95833 0C4.59218 0 5.91667 1.22261 5.91667 2.73077C5.91667 4.23893 4.59218 5.46154 2.95833 5.46154C1.32449 5.46154 0 4.23893 0 2.73077Z" transform="translate(318 160)" id="Ellipse-24" fill="#000000" stroke="none" />
  <path d="M0 2.73077C0 1.22261 1.32449 0 2.95833 0C4.59218 0 5.91667 1.22261 5.91667 2.73077C5.91667 4.23893 4.59218 5.46154 2.95833 5.46154C1.32449 5.46154 0 4.23893 0 2.73077Z" transform="translate(309 217)" id="Ellipse-25" fill="#000000" stroke="none" />
  <path d="M0 4.61538C0 2.06638 2.23858 0 5 0C7.76142 0 10 2.06638 10 4.61538C10 7.16439 7.76142 9.23077 5 9.23077C2.23858 9.23077 0 7.16439 0 4.61538Z" transform="translate(396 192.7692)" id="Ellipse-26" fill="#000000" stroke="none" />
  <path d="M0 2.73077C0 1.22261 1.32449 0 2.95833 0C4.59218 0 5.91667 1.22261 5.91667 2.73077C5.91667 4.23893 4.59218 5.46154 2.95833 5.46154C1.32449 5.46154 0 4.23893 0 2.73077Z" transform="translate(390 187)" id="Ellipse-27" fill="#000000" stroke="none" />
  <path d="M0 2.73077C0 1.22261 1.32449 0 2.95833 0C4.59218 0 5.91667 1.22261 5.91667 2.73077C5.91667 4.23893 4.59218 5.46154 2.95833 5.46154C1.32449 5.46154 0 4.23893 0 2.73077Z" transform="translate(378.0833 190)" id="Ellipse-28" fill="#000000" stroke="none" />
  <path d="M0 2.73077C0 1.22261 1.32449 0 2.95833 0C4.59218 0 5.91667 1.22261 5.91667 2.73077C5.91667 4.23893 4.59218 5.46154 2.95833 5.46154C1.32449 5.46154 0 4.23893 0 2.73077Z" transform="translate(383.0833 197.5384)" id="Ellipse-29" fill="#000000" stroke="none" />
  <path d="M0 2.73077C0 1.22261 1.32449 0 2.95833 0C4.59218 0 5.91667 1.22261 5.91667 2.73077C5.91667 4.23893 4.59218 5.46154 2.95833 5.46154C1.32449 5.46154 0 4.23893 0 2.73077Z" transform="translate(391.9999 201)" id="Ellipse-30" fill="#000000" stroke="none" />
  <path d="M0 2.73077C0 1.22261 1.32449 0 2.95833 0C4.59218 0 5.91667 1.22261 5.91667 2.73077C5.91667 4.23893 4.59218 5.46154 2.95833 5.46154C1.32449 5.46154 0 4.23893 0 2.73077Z" transform="translate(386.0833 243.5385)" id="Ellipse-31" fill="#000000" stroke="none" />
  <path d="M0 2.73077C0 1.22261 1.32449 0 2.95833 0C4.59218 0 5.91667 1.22261 5.91667 2.73077C5.91667 4.23893 4.59218 5.46154 2.95833 5.46154C1.32449 5.46154 0 4.23893 0 2.73077Z" transform="translate(395.9999 244)" id="Ellipse-32" fill="#000000" stroke="none" />
  <path d="M0 2.73077C0 1.22261 1.32449 0 2.95833 0C4.59218 0 5.91667 1.22261 5.91667 2.73077C5.91667 4.23893 4.59218 5.46154 2.95833 5.46154C1.32449 5.46154 0 4.23893 0 2.73077Z" transform="translate(387 252)" id="Ellipse-33" fill="#000000" stroke="none" />
  <path d="M0 2.73077C0 1.22261 1.32449 0 2.95833 0C4.59218 0 5.91667 1.22261 5.91667 2.73077C5.91667 4.23893 4.59218 5.46154 2.95833 5.46154C1.32449 5.46154 0 4.23893 0 2.73077Z" transform="translate(387 252)" id="Ellipse-34" fill="#000000" stroke="none" />
  <path d="M0 2.73077C0 1.22261 1.32449 0 2.95833 0C4.59218 0 5.91667 1.22261 5.91667 2.73077C5.91667 4.23893 4.59218 5.46154 2.95833 5.46154C1.32449 5.46154 0 4.23893 0 2.73077Z" transform="translate(377.9999 247)" id="Ellipse-35" fill="#000000" stroke="none" />
  <path d="M0 2.73077C0 1.22261 1.32449 0 2.95833 0C4.59218 0 5.91667 1.22261 5.91667 2.73077C5.91667 4.23893 4.59218 5.46154 2.95833 5.46154C1.32449 5.46154 0 4.23893 0 2.73077Z" transform="translate(378.0001 238.5384)" id="Ellipse-36" fill="#000000" stroke="none" />
  <path d="M0 2.73077C0 1.22261 1.32449 0 2.95833 0C4.59218 0 5.91667 1.22261 5.91667 2.73077C5.91667 4.23893 4.59218 5.46154 2.95833 5.46154C1.32449 5.46154 0 4.23893 0 2.73077Z" transform="translate(386.0833 235.5385)" id="Ellipse-37" fill="#000000" stroke="none" />
  <path d="M0 2.73077C0 1.22261 1.32449 0 2.95833 0C4.59218 0 5.91667 1.22261 5.91667 2.73077C5.91667 4.23893 4.59218 5.46154 2.95833 5.46154C1.32449 5.46154 0 4.23893 0 2.73077Z" transform="translate(386.0833 235.5385)" id="Ellipse-38" fill="#000000" stroke="none" />
  <path d="M0 6C0 2.68629 2.91015 0 6.5 0C10.0899 0 13 2.68629 13 6C13 9.31371 10.0899 12 6.5 12C2.91015 12 0 9.31371 0 6Z" transform="translate(113 214)" id="Ellipse-14" fill="#000000" stroke="none" />
  <path d="M0 6C0 2.68629 2.91015 0 6.5 0C10.0899 0 13 2.68629 13 6C13 9.31371 10.0899 12 6.5 12C2.91015 12 0 9.31371 0 6Z" transform="translate(132 156)" id="Ellipse-15" fill="#000000" stroke="none" />
  <path d="M0 6C0 2.68629 2.91015 0 6.5 0C10.0899 0 13 2.68629 13 6C13 9.31371 10.0899 12 6.5 12C2.91015 12 0 9.31371 0 6Z" transform="translate(83 156)" id="Ellipse-16" fill="#000000" stroke="none" />
  <path d="M0 6C0 2.68629 2.91015 0 6.5 0C10.0899 0 13 2.68629 13 6C13 9.31371 10.0899 12 6.5 12C2.91015 12 0 9.31371 0 6Z" transform="translate(159 248)" id="Ellipse-9" fill="#000000" stroke="none" />
  <path d="M0 6C0 2.68629 2.91015 0 6.5 0C10.0899 0 13 2.68629 13 6C13 9.31371 10.0899 12 6.5 12C2.91015 12 0 9.31371 0 6Z" transform="translate(106 298)" id="Ellipse-18" fill="#000000" stroke="none" />
  <path d="M0 6C0 2.68629 2.91015 0 6.5 0C10.0899 0 13 2.68629 13 6C13 9.31371 10.0899 12 6.5 12C2.91015 12 0 9.31371 0 6Z" transform="translate(132 257)" id="Ellipse-19" fill="#000000" stroke="none" />
  <path d="M0 6C0 2.68629 4.70101 0 10.5 0C16.299 0 21 2.68629 21 6C21 9.31371 16.299 12 10.5 12C4.70101 12 0 9.31371 0 6Z" transform="translate(153 180)" id="Ellipse-10" fill="#000000" stroke="none" />
  <path d="M0 10C0 4.47715 2.91015 0 6.5 0C10.0899 0 13 4.47715 13 10C13 15.5228 10.0899 20 6.5 20C2.91015 20 0 15.5228 0 10Z" transform="translate(106 166)" id="Ellipse-11" fill="#000000" stroke="none" />
  <path d="M0 14C0 6.26801 4.70101 0 10.5 0C16.299 0 21 6.26801 21 14C21 21.732 16.299 28 10.5 28C4.70101 28 0 21.732 0 14Z" transform="translate(138 203)" id="Ellipse-12" fill="#000000" stroke="none" />
  <path d="M0 90.5L53.5 0L95.8718 79.75" transform="translate(141.5 41)" id="New-shape" fill="none" stroke="#000000" stroke-width="3" />
  <g id="Part-I" transform="translate(159 0)">
    <path d="M7.416 28.204Q7.38 28.6 7.182 28.942Q6.984 29.284 6.588 29.248Q5.976 29.212 5.526 28.78Q5.076 28.348 5.076 28.06Q5.112 24.928 4.878 21.67Q4.644 18.412 4.14 15.172Q4.14 15.028 4.212 14.848Q4.284 14.704 4.392 14.506Q4.5 14.308 4.752 14.128Q5.004 14.02 5.31 14.164Q5.616 14.308 5.904 14.596Q6.192 14.884 6.408 15.244Q6.624 15.604 6.732 15.928Q6.84 16.648 6.948 17.512Q7.056 18.376 7.128 19.312Q7.992 18.844 8.784 18.268Q9.576 17.692 10.17 17.008Q10.764 16.324 11.088 15.586Q11.412 14.848 11.304 14.056Q11.232 13.444 10.764 12.94Q10.296 12.436 9.324 12.184Q7.092 11.68 5.328 12.13Q3.564 12.58 1.944 13.624Q1.476 13.984 1.08 14.056Q0.684 14.128 0.396 14.02Q0.108 13.912 -0.036 13.696Q-0.18 13.48 -0.18 13.264Q-0.108 12.436 0.63 11.77Q1.368 11.104 2.196 10.636Q3.276 10.096 4.86 9.736Q6.444 9.376 8.046 9.466Q9.648 9.556 11.052 10.24Q12.456 10.924 13.212 12.436Q13.896 14.236 13.518 15.676Q13.14 17.116 12.168 18.304Q11.196 19.492 9.864 20.482Q8.532 21.472 7.344 22.3Q7.416 23.884 7.434 25.396Q7.452 26.908 7.416 28.204ZM70.884 25.486Q70.884 25.216 70.848 25.072Q70.56 23.812 70.326 22.246Q70.092 20.68 69.948 19.024Q69.804 17.368 69.75 15.73Q69.696 14.092 69.732 12.652Q69.732 12.004 69.444 11.716Q69.156 11.428 68.688 11.428Q68.292 11.428 68.076 11.698Q67.86 11.968 67.716 12.346Q67.572 12.724 67.518 13.12Q67.464 13.516 67.464 13.768Q67.428 15.244 67.482 16.828Q67.536 18.412 67.68 19.942Q67.824 21.472 68.058 22.876Q68.292 24.28 68.58 25.36Q69.12 26.188 69.912 26.692Q70.272 26.692 70.47 26.494Q70.668 26.296 70.776 26.026Q70.884 25.756 70.884 25.486ZM50.112 18.484Q50.796 18.448 51.48 18.808Q52.164 19.168 52.164 19.924Q52.092 20.536 51.498 20.698Q50.904 20.86 50.544 20.86Q49.824 20.86 48.996 20.896Q48.168 20.932 47.304 21.004Q47.232 22.192 47.178 23.236Q47.124 24.28 47.088 25.09Q47.052 25.9 47.052 26.404Q47.052 26.908 47.088 26.944Q47.88 26.8 48.798 26.458Q49.716 26.116 50.634 25.702Q51.552 25.288 52.434 24.838Q53.316 24.388 54.108 23.992Q54.468 23.812 54.774 23.884Q55.08 23.956 55.152 24.208Q55.224 24.604 55.044 25.18Q54.864 25.756 54.396 26.224Q53.856 26.656 52.974 27.214Q52.092 27.772 51.084 28.276Q50.076 28.78 49.05 29.158Q48.024 29.536 47.232 29.608Q46.044 29.716 45.432 28.96Q44.82 28.204 44.748 27.052Q44.676 25.9 44.73 24.388Q44.784 22.876 44.856 21.184Q44.172 21.256 43.542 21.31Q42.912 21.364 42.336 21.436Q41.868 21.436 41.31 21.22Q40.752 21.004 40.752 20.392Q40.752 20.176 40.932 19.816Q41.112 19.456 41.724 19.276Q43.2 19.024 45 18.844Q45.108 17.152 45.252 15.568Q45.396 13.984 45.504 12.688Q45.54 12.256 45.756 11.932Q45.972 11.608 46.224 11.608Q46.836 11.572 47.394 11.914Q47.952 12.256 47.952 12.688Q47.808 13.912 47.682 15.46Q47.556 17.008 47.448 18.628Q48.168 18.556 48.834 18.538Q49.5 18.52 50.112 18.484ZM25.092 14.812Q25.236 15.82 25.326 16.954Q25.416 18.088 25.47 19.24Q25.524 20.392 25.524 21.472Q25.524 22.552 25.488 23.416Q26.64 24.208 26.874 24.82Q27.108 25.432 26.928 25.9Q26.712 26.548 26.154 26.566Q25.596 26.584 24.876 26.188Q24.372 26.548 23.724 26.962Q23.076 27.376 22.356 27.754Q21.636 28.132 20.916 28.42Q20.196 28.708 19.584 28.816Q18.432 28.996 17.514 28.384Q16.596 27.772 16.272 26.548Q16.056 25.72 16.164 24.838Q16.272 23.956 16.704 23.146Q17.136 22.336 17.874 21.688Q18.612 21.04 19.62 20.68Q19.872 20.572 20.322 20.5Q20.772 20.428 21.258 20.446Q21.744 20.464 22.248 20.644Q22.752 20.824 23.184 21.256Q23.184 20.644 23.166 19.906Q23.148 19.168 23.112 18.412Q23.076 17.656 23.022 16.99Q22.968 16.324 22.896 15.856Q22.824 15.316 22.482 15.19Q22.14 15.064 21.636 15.244Q20.772 15.532 19.62 16.36Q18.468 17.188 17.424 18.124Q17.1 18.448 16.686 18.412Q16.272 18.376 15.984 18.088Q15.696 17.8 15.66 17.422Q15.624 17.044 15.948 16.612Q16.56 15.964 17.316 15.28Q18.072 14.596 18.9 14.038Q19.728 13.48 20.592 13.12Q21.456 12.76 22.32 12.724Q23.58 12.688 24.264 13.282Q24.948 13.876 25.092 14.812ZM38.43 16.468Q39.132 16.072 39.78 15.712Q40.248 15.388 40.338 14.992Q40.428 14.596 40.284 14.416Q40.14 14.236 39.78 14.164Q39.42 14.092 38.88 14.164Q37.62 14.38 36.414 15.028Q35.208 15.676 34.254 16.612Q33.3 17.548 32.652 18.7Q32.004 19.852 31.86 21.076Q31.644 20.032 31.428 18.574Q31.212 17.116 31.068 15.784Q30.996 15.388 30.6 15.208Q30.204 15.028 29.772 14.992Q29.376 14.956 29.07 15.1Q28.764 15.244 28.764 15.748Q29.052 18.232 29.448 20.734Q29.844 23.236 30.456 25.792Q30.6 26.44 31.014 27.142Q31.428 27.844 32.112 27.844Q32.652 27.844 32.958 27.178Q33.264 26.512 33.264 25.864Q33.336 24.496 33.588 23.074Q33.84 21.652 34.56 20.284Q35.064 19.312 35.694 18.61Q36.324 17.908 37.026 17.386Q37.728 16.864 38.43 16.468ZM20.916 22.552Q20.448 22.66 19.926 23.002Q19.404 23.344 18.99 23.83Q18.576 24.316 18.378 24.91Q18.18 25.504 18.36 26.08Q18.432 26.296 18.666 26.404Q18.9 26.512 19.188 26.44Q20.052 26.26 21.15 25.738Q22.248 25.216 22.896 24.604Q22.896 24.388 22.68 24.046Q22.464 23.704 22.176 23.362Q21.888 23.02 21.546 22.768Q21.204 22.516 20.916 22.552Z" />
  </g>
  <g id="Part-1" transform="translate(269 0)">
    <path d="M7.416 28.204Q7.38 28.6 7.182 28.942Q6.984 29.284 6.588 29.248Q5.976 29.212 5.526 28.78Q5.076 28.348 5.076 28.06Q5.112 24.928 4.878 21.67Q4.644 18.412 4.14 15.172Q4.14 15.028 4.212 14.848Q4.284 14.704 4.392 14.506Q4.5 14.308 4.752 14.128Q5.004 14.02 5.31 14.164Q5.616 14.308 5.904 14.596Q6.192 14.884 6.408 15.244Q6.624 15.604 6.732 15.928Q6.84 16.648 6.948 17.512Q7.056 18.376 7.128 19.312Q7.992 18.844 8.784 18.268Q9.576 17.692 10.17 17.008Q10.764 16.324 11.088 15.586Q11.412 14.848 11.304 14.056Q11.232 13.444 10.764 12.94Q10.296 12.436 9.324 12.184Q7.092 11.68 5.328 12.13Q3.564 12.58 1.944 13.624Q1.476 13.984 1.08 14.056Q0.684 14.128 0.396 14.02Q0.108 13.912 -0.036 13.696Q-0.18 13.48 -0.18 13.264Q-0.108 12.436 0.63 11.77Q1.368 11.104 2.196 10.636Q3.276 10.096 4.86 9.736Q6.444 9.376 8.046 9.466Q9.648 9.556 11.052 10.24Q12.456 10.924 13.212 12.436Q13.896 14.236 13.518 15.676Q13.14 17.116 12.168 18.304Q11.196 19.492 9.864 20.482Q8.532 21.472 7.344 22.3Q7.416 23.884 7.434 25.396Q7.452 26.908 7.416 28.204ZM50.112 18.484Q50.796 18.448 51.48 18.808Q52.164 19.168 52.164 19.924Q52.092 20.536 51.498 20.698Q50.904 20.86 50.544 20.86Q49.824 20.86 48.996 20.896Q48.168 20.932 47.304 21.004Q47.232 22.192 47.178 23.236Q47.124 24.28 47.088 25.09Q47.052 25.9 47.052 26.404Q47.052 26.908 47.088 26.944Q47.88 26.8 48.798 26.458Q49.716 26.116 50.634 25.702Q51.552 25.288 52.434 24.838Q53.316 24.388 54.108 23.992Q54.468 23.812 54.774 23.884Q55.08 23.956 55.152 24.208Q55.224 24.604 55.044 25.18Q54.864 25.756 54.396 26.224Q53.856 26.656 52.974 27.214Q52.092 27.772 51.084 28.276Q50.076 28.78 49.05 29.158Q48.024 29.536 47.232 29.608Q46.044 29.716 45.432 28.96Q44.82 28.204 44.748 27.052Q44.676 25.9 44.73 24.388Q44.784 22.876 44.856 21.184Q44.172 21.256 43.542 21.31Q42.912 21.364 42.336 21.436Q41.868 21.436 41.31 21.22Q40.752 21.004 40.752 20.392Q40.752 20.176 40.932 19.816Q41.112 19.456 41.724 19.276Q43.2 19.024 45 18.844Q45.108 17.152 45.252 15.568Q45.396 13.984 45.504 12.688Q45.54 12.256 45.756 11.932Q45.972 11.608 46.224 11.608Q46.836 11.572 47.394 11.914Q47.952 12.256 47.952 12.688Q47.808 13.912 47.682 15.46Q47.556 17.008 47.448 18.628Q48.168 18.556 48.834 18.538Q49.5 18.52 50.112 18.484ZM68.076 26.494Q68.364 27.268 69.012 27.808Q69.156 27.916 69.318 28.006Q69.48 28.096 69.66 28.06Q69.984 27.988 69.984 27.628Q69.768 24.136 69.822 20.626Q69.876 17.116 70.596 13.588Q70.596 13.372 70.47 13.12Q70.344 12.868 70.128 12.652Q69.912 12.436 69.624 12.292Q69.336 12.148 69.084 12.148Q68.868 12.148 68.652 12.76Q68.436 13.372 68.256 14.128Q67.284 19.672 67.788 25.468Q67.788 25.72 68.076 26.494ZM25.092 14.812Q25.236 15.82 25.326 16.954Q25.416 18.088 25.47 19.24Q25.524 20.392 25.524 21.472Q25.524 22.552 25.488 23.416Q26.64 24.208 26.874 24.82Q27.108 25.432 26.928 25.9Q26.712 26.548 26.154 26.566Q25.596 26.584 24.876 26.188Q24.372 26.548 23.724 26.962Q23.076 27.376 22.356 27.754Q21.636 28.132 20.916 28.42Q20.196 28.708 19.584 28.816Q18.432 28.996 17.514 28.384Q16.596 27.772 16.272 26.548Q16.056 25.72 16.164 24.838Q16.272 23.956 16.704 23.146Q17.136 22.336 17.874 21.688Q18.612 21.04 19.62 20.68Q19.872 20.572 20.322 20.5Q20.772 20.428 21.258 20.446Q21.744 20.464 22.248 20.644Q22.752 20.824 23.184 21.256Q23.184 20.644 23.166 19.906Q23.148 19.168 23.112 18.412Q23.076 17.656 23.022 16.99Q22.968 16.324 22.896 15.856Q22.824 15.316 22.482 15.19Q22.14 15.064 21.636 15.244Q20.772 15.532 19.62 16.36Q18.468 17.188 17.424 18.124Q17.1 18.448 16.686 18.412Q16.272 18.376 15.984 18.088Q15.696 17.8 15.66 17.422Q15.624 17.044 15.948 16.612Q16.56 15.964 17.316 15.28Q18.072 14.596 18.9 14.038Q19.728 13.48 20.592 13.12Q21.456 12.76 22.32 12.724Q23.58 12.688 24.264 13.282Q24.948 13.876 25.092 14.812ZM38.43 16.468Q39.132 16.072 39.78 15.712Q40.248 15.388 40.338 14.992Q40.428 14.596 40.284 14.416Q40.14 14.236 39.78 14.164Q39.42 14.092 38.88 14.164Q37.62 14.38 36.414 15.028Q35.208 15.676 34.254 16.612Q33.3 17.548 32.652 18.7Q32.004 19.852 31.86 21.076Q31.644 20.032 31.428 18.574Q31.212 17.116 31.068 15.784Q30.996 15.388 30.6 15.208Q30.204 15.028 29.772 14.992Q29.376 14.956 29.07 15.1Q28.764 15.244 28.764 15.748Q29.052 18.232 29.448 20.734Q29.844 23.236 30.456 25.792Q30.6 26.44 31.014 27.142Q31.428 27.844 32.112 27.844Q32.652 27.844 32.958 27.178Q33.264 26.512 33.264 25.864Q33.336 24.496 33.588 23.074Q33.84 21.652 34.56 20.284Q35.064 19.312 35.694 18.61Q36.324 17.908 37.026 17.386Q37.728 16.864 38.43 16.468ZM20.916 22.552Q20.448 22.66 19.926 23.002Q19.404 23.344 18.99 23.83Q18.576 24.316 18.378 24.91Q18.18 25.504 18.36 26.08Q18.432 26.296 18.666 26.404Q18.9 26.512 19.188 26.44Q20.052 26.26 21.15 25.738Q22.248 25.216 22.896 24.604Q22.896 24.388 22.68 24.046Q22.464 23.704 22.176 23.362Q21.888 23.02 21.546 22.768Q21.204 22.516 20.916 22.552Z" />
  </g>
  <g id="Part-1" transform="translate(378 0)">
    <path d="M7.416 28.204Q7.38 28.6 7.182 28.942Q6.984 29.284 6.588 29.248Q5.976 29.212 5.526 28.78Q5.076 28.348 5.076 28.06Q5.112 24.928 4.878 21.67Q4.644 18.412 4.14 15.172Q4.14 15.028 4.212 14.848Q4.284 14.704 4.392 14.506Q4.5 14.308 4.752 14.128Q5.004 14.02 5.31 14.164Q5.616 14.308 5.904 14.596Q6.192 14.884 6.408 15.244Q6.624 15.604 6.732 15.928Q6.84 16.648 6.948 17.512Q7.056 18.376 7.128 19.312Q7.992 18.844 8.784 18.268Q9.576 17.692 10.17 17.008Q10.764 16.324 11.088 15.586Q11.412 14.848 11.304 14.056Q11.232 13.444 10.764 12.94Q10.296 12.436 9.324 12.184Q7.092 11.68 5.328 12.13Q3.564 12.58 1.944 13.624Q1.476 13.984 1.08 14.056Q0.684 14.128 0.396 14.02Q0.108 13.912 -0.036 13.696Q-0.18 13.48 -0.18 13.264Q-0.108 12.436 0.63 11.77Q1.368 11.104 2.196 10.636Q3.276 10.096 4.86 9.736Q6.444 9.376 8.046 9.466Q9.648 9.556 11.052 10.24Q12.456 10.924 13.212 12.436Q13.896 14.236 13.518 15.676Q13.14 17.116 12.168 18.304Q11.196 19.492 9.864 20.482Q8.532 21.472 7.344 22.3Q7.416 23.884 7.434 25.396Q7.452 26.908 7.416 28.204ZM50.112 18.484Q50.796 18.448 51.48 18.808Q52.164 19.168 52.164 19.924Q52.092 20.536 51.498 20.698Q50.904 20.86 50.544 20.86Q49.824 20.86 48.996 20.896Q48.168 20.932 47.304 21.004Q47.232 22.192 47.178 23.236Q47.124 24.28 47.088 25.09Q47.052 25.9 47.052 26.404Q47.052 26.908 47.088 26.944Q47.88 26.8 48.798 26.458Q49.716 26.116 50.634 25.702Q51.552 25.288 52.434 24.838Q53.316 24.388 54.108 23.992Q54.468 23.812 54.774 23.884Q55.08 23.956 55.152 24.208Q55.224 24.604 55.044 25.18Q54.864 25.756 54.396 26.224Q53.856 26.656 52.974 27.214Q52.092 27.772 51.084 28.276Q50.076 28.78 49.05 29.158Q48.024 29.536 47.232 29.608Q46.044 29.716 45.432 28.96Q44.82 28.204 44.748 27.052Q44.676 25.9 44.73 24.388Q44.784 22.876 44.856 21.184Q44.172 21.256 43.542 21.31Q42.912 21.364 42.336 21.436Q41.868 21.436 41.31 21.22Q40.752 21.004 40.752 20.392Q40.752 20.176 40.932 19.816Q41.112 19.456 41.724 19.276Q43.2 19.024 45 18.844Q45.108 17.152 45.252 15.568Q45.396 13.984 45.504 12.688Q45.54 12.256 45.756 11.932Q45.972 11.608 46.224 11.608Q46.836 11.572 47.394 11.914Q47.952 12.256 47.952 12.688Q47.808 13.912 47.682 15.46Q47.556 17.008 47.448 18.628Q48.168 18.556 48.834 18.538Q49.5 18.52 50.112 18.484ZM68.076 26.494Q68.364 27.268 69.012 27.808Q69.156 27.916 69.318 28.006Q69.48 28.096 69.66 28.06Q69.984 27.988 69.984 27.628Q69.768 24.136 69.822 20.626Q69.876 17.116 70.596 13.588Q70.596 13.372 70.47 13.12Q70.344 12.868 70.128 12.652Q69.912 12.436 69.624 12.292Q69.336 12.148 69.084 12.148Q68.868 12.148 68.652 12.76Q68.436 13.372 68.256 14.128Q67.284 19.672 67.788 25.468Q67.788 25.72 68.076 26.494ZM25.092 14.812Q25.236 15.82 25.326 16.954Q25.416 18.088 25.47 19.24Q25.524 20.392 25.524 21.472Q25.524 22.552 25.488 23.416Q26.64 24.208 26.874 24.82Q27.108 25.432 26.928 25.9Q26.712 26.548 26.154 26.566Q25.596 26.584 24.876 26.188Q24.372 26.548 23.724 26.962Q23.076 27.376 22.356 27.754Q21.636 28.132 20.916 28.42Q20.196 28.708 19.584 28.816Q18.432 28.996 17.514 28.384Q16.596 27.772 16.272 26.548Q16.056 25.72 16.164 24.838Q16.272 23.956 16.704 23.146Q17.136 22.336 17.874 21.688Q18.612 21.04 19.62 20.68Q19.872 20.572 20.322 20.5Q20.772 20.428 21.258 20.446Q21.744 20.464 22.248 20.644Q22.752 20.824 23.184 21.256Q23.184 20.644 23.166 19.906Q23.148 19.168 23.112 18.412Q23.076 17.656 23.022 16.99Q22.968 16.324 22.896 15.856Q22.824 15.316 22.482 15.19Q22.14 15.064 21.636 15.244Q20.772 15.532 19.62 16.36Q18.468 17.188 17.424 18.124Q17.1 18.448 16.686 18.412Q16.272 18.376 15.984 18.088Q15.696 17.8 15.66 17.422Q15.624 17.044 15.948 16.612Q16.56 15.964 17.316 15.28Q18.072 14.596 18.9 14.038Q19.728 13.48 20.592 13.12Q21.456 12.76 22.32 12.724Q23.58 12.688 24.264 13.282Q24.948 13.876 25.092 14.812ZM38.43 16.468Q39.132 16.072 39.78 15.712Q40.248 15.388 40.338 14.992Q40.428 14.596 40.284 14.416Q40.14 14.236 39.78 14.164Q39.42 14.092 38.88 14.164Q37.62 14.38 36.414 15.028Q35.208 15.676 34.254 16.612Q33.3 17.548 32.652 18.7Q32.004 19.852 31.86 21.076Q31.644 20.032 31.428 18.574Q31.212 17.116 31.068 15.784Q30.996 15.388 30.6 15.208Q30.204 15.028 29.772 14.992Q29.376 14.956 29.07 15.1Q28.764 15.244 28.764 15.748Q29.052 18.232 29.448 20.734Q29.844 23.236 30.456 25.792Q30.6 26.44 31.014 27.142Q31.428 27.844 32.112 27.844Q32.652 27.844 32.958 27.178Q33.264 26.512 33.264 25.864Q33.336 24.496 33.588 23.074Q33.84 21.652 34.56 20.284Q35.064 19.312 35.694 18.61Q36.324 17.908 37.026 17.386Q37.728 16.864 38.43 16.468ZM20.916 22.552Q20.448 22.66 19.926 23.002Q19.404 23.344 18.99 23.83Q18.576 24.316 18.378 24.91Q18.18 25.504 18.36 26.08Q18.432 26.296 18.666 26.404Q18.9 26.512 19.188 26.44Q20.052 26.26 21.15 25.738Q22.248 25.216 22.896 24.604Q22.896 24.388 22.68 24.046Q22.464 23.704 22.176 23.362Q21.888 23.02 21.546 22.768Q21.204 22.516 20.916 22.552Z" />
  </g>
  <g id="Part-III" transform="translate(378 0)">
    <path d="M7.416 28.204Q7.38 28.6 7.182 28.942Q6.984 29.284 6.588 29.248Q5.976 29.212 5.526 28.78Q5.076 28.348 5.076 28.06Q5.112 24.928 4.878 21.67Q4.644 18.412 4.14 15.172Q4.14 15.028 4.212 14.848Q4.284 14.704 4.392 14.506Q4.5 14.308 4.752 14.128Q5.004 14.02 5.31 14.164Q5.616 14.308 5.904 14.596Q6.192 14.884 6.408 15.244Q6.624 15.604 6.732 15.928Q6.84 16.648 6.948 17.512Q7.056 18.376 7.128 19.312Q7.992 18.844 8.784 18.268Q9.576 17.692 10.17 17.008Q10.764 16.324 11.088 15.586Q11.412 14.848 11.304 14.056Q11.232 13.444 10.764 12.94Q10.296 12.436 9.324 12.184Q7.092 11.68 5.328 12.13Q3.564 12.58 1.944 13.624Q1.476 13.984 1.08 14.056Q0.684 14.128 0.396 14.02Q0.108 13.912 -0.036 13.696Q-0.18 13.48 -0.18 13.264Q-0.108 12.436 0.63 11.77Q1.368 11.104 2.196 10.636Q3.276 10.096 4.86 9.736Q6.444 9.376 8.046 9.466Q9.648 9.556 11.052 10.24Q12.456 10.924 13.212 12.436Q13.896 14.236 13.518 15.676Q13.14 17.116 12.168 18.304Q11.196 19.492 9.864 20.482Q8.532 21.472 7.344 22.3Q7.416 23.884 7.434 25.396Q7.452 26.908 7.416 28.204ZM70.884 25.486Q70.884 25.216 70.848 25.072Q70.56 23.812 70.326 22.246Q70.092 20.68 69.948 19.024Q69.804 17.368 69.75 15.73Q69.696 14.092 69.732 12.652Q69.732 12.004 69.444 11.716Q69.156 11.428 68.688 11.428Q68.292 11.428 68.076 11.698Q67.86 11.968 67.716 12.346Q67.572 12.724 67.518 13.12Q67.464 13.516 67.464 13.768Q67.428 15.244 67.482 16.828Q67.536 18.412 67.68 19.942Q67.824 21.472 68.058 22.876Q68.292 24.28 68.58 25.36Q69.12 26.188 69.912 26.692Q70.272 26.692 70.47 26.494Q70.668 26.296 70.776 26.026Q70.884 25.756 70.884 25.486ZM78.408 25.072Q78.444 25.216 78.444 25.486Q78.444 25.756 78.336 26.026Q78.228 26.296 78.03 26.494Q77.832 26.692 77.472 26.692Q76.68 26.188 76.14 25.36Q75.852 24.28 75.618 22.876Q75.384 21.472 75.24 19.942Q75.096 18.412 75.042 16.828Q74.988 15.244 75.024 13.768Q75.024 13.516 75.078 13.12Q75.132 12.724 75.276 12.346Q75.42 11.968 75.636 11.698Q75.852 11.428 76.248 11.428Q76.716 11.428 77.004 11.716Q77.292 12.004 77.292 12.652Q77.256 14.092 77.31 15.73Q77.364 17.368 77.508 19.024Q77.652 20.68 77.886 22.246Q78.12 23.812 78.408 25.072ZM86.004 25.486Q86.004 25.216 85.968 25.072Q85.68 23.812 85.446 22.246Q85.212 20.68 85.068 19.024Q84.924 17.368 84.87 15.73Q84.816 14.092 84.852 12.652Q84.852 12.004 84.564 11.716Q84.276 11.428 83.808 11.428Q83.412 11.428 83.196 11.698Q82.98 11.968 82.836 12.346Q82.692 12.724 82.638 13.12Q82.584 13.516 82.584 13.768Q82.548 15.244 82.602 16.828Q82.656 18.412 82.8 19.942Q82.944 21.472 83.178 22.876Q83.412 24.28 83.7 25.36Q84.24 26.188 85.032 26.692Q85.392 26.692 85.59 26.494Q85.788 26.296 85.896 26.026Q86.004 25.756 86.004 25.486ZM50.112 18.484Q50.796 18.448 51.48 18.808Q52.164 19.168 52.164 19.924Q52.092 20.536 51.498 20.698Q50.904 20.86 50.544 20.86Q49.824 20.86 48.996 20.896Q48.168 20.932 47.304 21.004Q47.232 22.192 47.178 23.236Q47.124 24.28 47.088 25.09Q47.052 25.9 47.052 26.404Q47.052 26.908 47.088 26.944Q47.88 26.8 48.798 26.458Q49.716 26.116 50.634 25.702Q51.552 25.288 52.434 24.838Q53.316 24.388 54.108 23.992Q54.468 23.812 54.774 23.884Q55.08 23.956 55.152 24.208Q55.224 24.604 55.044 25.18Q54.864 25.756 54.396 26.224Q53.856 26.656 52.974 27.214Q52.092 27.772 51.084 28.276Q50.076 28.78 49.05 29.158Q48.024 29.536 47.232 29.608Q46.044 29.716 45.432 28.96Q44.82 28.204 44.748 27.052Q44.676 25.9 44.73 24.388Q44.784 22.876 44.856 21.184Q44.172 21.256 43.542 21.31Q42.912 21.364 42.336 21.436Q41.868 21.436 41.31 21.22Q40.752 21.004 40.752 20.392Q40.752 20.176 40.932 19.816Q41.112 19.456 41.724 19.276Q43.2 19.024 45 18.844Q45.108 17.152 45.252 15.568Q45.396 13.984 45.504 12.688Q45.54 12.256 45.756 11.932Q45.972 11.608 46.224 11.608Q46.836 11.572 47.394 11.914Q47.952 12.256 47.952 12.688Q47.808 13.912 47.682 15.46Q47.556 17.008 47.448 18.628Q48.168 18.556 48.834 18.538Q49.5 18.52 50.112 18.484ZM25.092 14.812Q25.236 15.82 25.326 16.954Q25.416 18.088 25.47 19.24Q25.524 20.392 25.524 21.472Q25.524 22.552 25.488 23.416Q26.64 24.208 26.874 24.82Q27.108 25.432 26.928 25.9Q26.712 26.548 26.154 26.566Q25.596 26.584 24.876 26.188Q24.372 26.548 23.724 26.962Q23.076 27.376 22.356 27.754Q21.636 28.132 20.916 28.42Q20.196 28.708 19.584 28.816Q18.432 28.996 17.514 28.384Q16.596 27.772 16.272 26.548Q16.056 25.72 16.164 24.838Q16.272 23.956 16.704 23.146Q17.136 22.336 17.874 21.688Q18.612 21.04 19.62 20.68Q19.872 20.572 20.322 20.5Q20.772 20.428 21.258 20.446Q21.744 20.464 22.248 20.644Q22.752 20.824 23.184 21.256Q23.184 20.644 23.166 19.906Q23.148 19.168 23.112 18.412Q23.076 17.656 23.022 16.99Q22.968 16.324 22.896 15.856Q22.824 15.316 22.482 15.19Q22.14 15.064 21.636 15.244Q20.772 15.532 19.62 16.36Q18.468 17.188 17.424 18.124Q17.1 18.448 16.686 18.412Q16.272 18.376 15.984 18.088Q15.696 17.8 15.66 17.422Q15.624 17.044 15.948 16.612Q16.56 15.964 17.316 15.28Q18.072 14.596 18.9 14.038Q19.728 13.48 20.592 13.12Q21.456 12.76 22.32 12.724Q23.58 12.688 24.264 13.282Q24.948 13.876 25.092 14.812ZM38.43 16.468Q39.132 16.072 39.78 15.712Q40.248 15.388 40.338 14.992Q40.428 14.596 40.284 14.416Q40.14 14.236 39.78 14.164Q39.42 14.092 38.88 14.164Q37.62 14.38 36.414 15.028Q35.208 15.676 34.254 16.612Q33.3 17.548 32.652 18.7Q32.004 19.852 31.86 21.076Q31.644 20.032 31.428 18.574Q31.212 17.116 31.068 15.784Q30.996 15.388 30.6 15.208Q30.204 15.028 29.772 14.992Q29.376 14.956 29.07 15.1Q28.764 15.244 28.764 15.748Q29.052 18.232 29.448 20.734Q29.844 23.236 30.456 25.792Q30.6 26.44 31.014 27.142Q31.428 27.844 32.112 27.844Q32.652 27.844 32.958 27.178Q33.264 26.512 33.264 25.864Q33.336 24.496 33.588 23.074Q33.84 21.652 34.56 20.284Q35.064 19.312 35.694 18.61Q36.324 17.908 37.026 17.386Q37.728 16.864 38.43 16.468ZM20.916 22.552Q20.448 22.66 19.926 23.002Q19.404 23.344 18.99 23.83Q18.576 24.316 18.378 24.91Q18.18 25.504 18.36 26.08Q18.432 26.296 18.666 26.404Q18.9 26.512 19.188 26.44Q20.052 26.26 21.15 25.738Q22.248 25.216 22.896 24.604Q22.896 24.388 22.68 24.046Q22.464 23.704 22.176 23.362Q21.888 23.02 21.546 22.768Q21.204 22.516 20.916 22.552Z" />
  </g>
  <path d="M0 5L11.5 11.5L13.5 0" transform="translate(229 114)" id="New-shape-2" fill="none" stroke="#000000" stroke-width="3" />
  <path d="M0 0L7.87177 90.25" transform="translate(300.5 39.5)" id="New-shape-4" fill="none" stroke="#000000" stroke-width="3" />
  <path d="M0 4.5L10 10.5L15 0" transform="translate(300 123.5)" id="New-shape-5" fill="none" stroke="#000000" stroke-width="3" />
  <path d="M0 0L75.5 127" transform="translate(300 40)" id="New-shape-6" fill="none" stroke="#000000" stroke-width="3" />
  <path d="M30 0L0 151" transform="translate(385 30)" id="New-shape-8" fill="none" stroke="#000000" stroke-width="3" />
  <path d="M13 0L0 153" transform="translate(402 33)" id="New-shape-10" fill="none" stroke="#000000" stroke-width="3" />
  <path d="M0 4.5L10 10.5L15 0" transform="translate(368 163)" id="New-shape-7" fill="none" stroke="#000000" stroke-width="3" />
  <path d="M0 0L3.5 10L16.5 4" transform="translate(135 126)" id="New-shape-3" fill="none" stroke="#000000" stroke-width="3" />
  <path d="M0 0L2.5 7.5L8.5 2.5" transform="translate(381 179.5)" id="New-shape-9" fill="none" stroke="#000000" stroke-width="3" />
  <path d="M0 0L2.5 7.5L8.5 2.5" transform="translate(398 183)" id="New-shape-11" fill="none" stroke="#000000" stroke-width="3" />
</svg>