<?xml version="1.0" encoding="utf-8"?>
<svg width="754px" height="866px" viewBox="0 0 754 866" version="1.1" xmlns:xlink="http://www.w3.org/1999/xlink" xmlns="http://www.w3.org/2000/svg">
  <desc>Created with Lunacy</desc>
  <path d="M7.999 0L217.001 0Q217.197 0 217.393 0.00963514Q217.59 0.0192703 217.785 0.0385174Q217.98 0.0577644 218.175 0.0865771Q218.369 0.11539 218.562 0.153699Q218.754 0.192007 218.945 0.23972Q219.135 0.287433 219.323 0.344434Q219.511 0.401436 219.696 0.467589Q219.881 0.533742 220.062 0.608888Q220.243 0.684033 220.421 0.76799Q220.599 0.851946 220.772 0.944512Q220.945 1.03708 221.113 1.13803Q221.282 1.23898 221.445 1.34807Q221.608 1.45717 221.766 1.57414Q221.924 1.69112 222.076 1.81569Q222.227 1.94026 222.373 2.07213Q222.518 2.204 222.657 2.34285Q222.796 2.4817 222.928 2.6272Q223.06 2.7727 223.184 2.92449Q223.309 3.07628 223.426 3.234Q223.543 3.39172 223.652 3.55499Q223.761 3.71826 223.862 3.88669Q223.963 4.05512 224.055 4.2283Q224.148 4.40148 224.232 4.57899Q224.316 4.7565 224.391 4.93791Q224.466 5.11933 224.532 5.30422Q224.599 5.4891 224.656 5.67701Q224.713 5.86492 224.76 6.0554Q224.808 6.24588 224.846 6.43847Q224.885 6.63106 224.913 6.8253Q224.942 7.01954 224.962 7.21496Q224.981 7.41038 224.99 7.60651Q225 7.80264 225 7.999L225 399.001Q225 399.197 224.99 399.393Q224.981 399.59 224.962 399.785Q224.942 399.98 224.913 400.175Q224.885 400.369 224.846 400.561Q224.808 400.754 224.76 400.945Q224.713 401.135 224.656 401.323Q224.599 401.511 224.532 401.696Q224.466 401.881 224.391 402.062Q224.316 402.243 224.232 402.421Q224.148 402.599 224.055 402.772Q223.963 402.945 223.862 403.113Q223.761 403.282 223.652 403.445Q223.543 403.608 223.426 403.766Q223.309 403.924 223.184 404.076Q223.06 404.227 222.928 404.373Q222.796 404.518 222.657 404.657Q222.518 404.796 222.373 404.928Q222.227 405.06 222.076 405.184Q221.924 405.309 221.766 405.426Q221.608 405.543 221.445 405.652Q221.282 405.761 221.113 405.862Q220.945 405.963 220.772 406.055Q220.599 406.148 220.421 406.232Q220.243 406.316 220.062 406.391Q219.881 406.466 219.696 406.532Q219.511 406.599 219.323 406.656Q219.135 406.713 218.945 406.76Q218.754 406.808 218.561 406.846Q218.369 406.885 218.175 406.913Q217.98 406.942 217.785 406.961Q217.59 406.981 217.393 406.99Q217.197 407 217.001 407L7.999 407Q7.80264 407 7.60651 406.99Q7.41038 406.981 7.21496 406.961Q7.01954 406.942 6.8253 406.913Q6.63106 406.885 6.43847 406.846Q6.24588 406.808 6.0554 406.76Q5.86492 406.713 5.67701 406.656Q5.4891 406.599 5.30422 406.532Q5.11933 406.466 4.93791 406.391Q4.7565 406.316 4.57899 406.232Q4.40148 406.148 4.2283 406.055Q4.05512 405.963 3.88669 405.862Q3.71826 405.761 3.55499 405.652Q3.39172 405.543 3.234 405.426Q3.07628 405.309 2.92449 405.184Q2.7727 405.06 2.6272 404.928Q2.4817 404.796 2.34285 404.657Q2.204 404.518 2.07213 404.373Q1.94026 404.227 1.81569 404.076Q1.69112 403.924 1.57414 403.766Q1.45717 403.608 1.34807 403.445Q1.23898 403.282 1.13803 403.113Q1.03708 402.945 0.944512 402.772Q0.851946 402.599 0.76799 402.421Q0.684033 402.243 0.608888 402.062Q0.533742 401.881 0.467589 401.696Q0.401436 401.511 0.344434 401.323Q0.287433 401.135 0.23972 400.945Q0.192007 400.754 0.153699 400.561Q0.11539 400.369 0.0865771 400.175Q0.0577644 399.98 0.0385174 399.785Q0.0192703 399.59 0.00963514 399.393Q0 399.197 0 399.001L0 7.999Q0 7.80264 0.00963514 7.60651Q0.0192703 7.41038 0.0385174 7.21496Q0.0577644 7.01954 0.0865771 6.8253Q0.11539 6.63106 0.153699 6.43847Q0.192007 6.24588 0.23972 6.0554Q0.287433 5.86492 0.344434 5.67701Q0.401436 5.4891 0.467589 5.30422Q0.533742 5.11933 0.608888 4.93791Q0.684033 4.7565 0.76799 4.57899Q0.851946 4.40148 0.944512 4.2283Q1.03708 4.05512 1.13803 3.88669Q1.23898 3.71826 1.34807 3.55499Q1.45717 3.39172 1.57414 3.234Q1.69112 3.07628 1.81569 2.92449Q1.94026 2.7727 2.07213 2.6272Q2.204 2.4817 2.34285 2.34285Q2.4817 2.204 2.6272 2.07213Q2.7727 1.94026 2.92449 1.81569Q3.07628 1.69112 3.234 1.57414Q3.39172 1.45717 3.55499 1.34807Q3.71826 1.23898 3.88669 1.13803Q4.05512 1.03708 4.2283 0.944512Q4.40148 0.851946 4.57899 0.76799Q4.7565 0.684033 4.93791 0.608888Q5.11933 0.533742 5.30422 0.467589Q5.4891 0.401436 5.67701 0.344434Q5.86492 0.287433 6.0554 0.23972Q6.24588 0.192007 6.43847 0.153699Q6.63106 0.11539 6.8253 0.0865771Q7.01954 0.0577644 7.21496 0.0385174Q7.41038 0.0192703 7.60651 0.00963514Q7.80264 0 7.999 0Z" transform="translate(1.5 252.5)" id="Rectangle" fill="none" stroke="#2C2C2C" stroke-width="3" stroke-dasharray="6 8" />
  <g id="idea-inbox" transform="translate(46.5 276.5)">
    <path d="M16.272 1.88Q16.164 1.232 16.362 0.691999Q16.56 0.152 17.172 0.079998Q17.712 0.00799942 18.126 0.368Q18.54 0.727999 18.648 1.304Q19.368 5.444 19.998 9.53Q20.628 13.616 21.132 17.54Q21.276 18.584 20.988 18.962Q20.7 19.34 20.304 19.52Q19.872 19.7 19.494 19.52Q19.116 19.34 19.008 18.872L18.972 18.656L18.828 18.692Q17.64 19.124 16.344 19.178Q15.048 19.232 13.86 18.872Q12.672 18.512 11.754 17.702Q10.836 16.892 10.44 15.632Q9.576 12.86 11.52 10.592Q12.348 9.656 13.572 8.9Q14.796 8.144 16.524 7.712L17.172 7.568L16.272 1.88ZM84.87 3.248Q84.852 2.42 84.816 1.844Q84.708 1.268 84.312 0.943998Q83.916 0.620001 83.412 0.547998Q83.196 0.548 82.89 0.656Q82.584 0.764 82.584 1.484Q82.512 5.66 82.98 9.71Q83.448 13.76 84.312 17.72Q84.096 17.9 83.79 18.098Q83.484 18.296 83.268 18.548Q83.052 18.8 82.98 19.106Q82.908 19.412 83.088 19.844Q83.304 20.132 83.988 20.276Q84.672 20.42 85.392 20.132Q85.896 19.808 87.03 19.052Q88.164 18.296 89.334 17.18Q90.504 16.064 91.386 14.624Q92.268 13.184 92.268 11.492Q92.268 10.7 92.016 9.854Q91.764 9.008 91.224 8.306Q90.684 7.604 89.856 7.208Q89.028 6.812 87.912 6.956Q87.192 7.064 86.49 7.532Q85.788 8 85.248 8.9Q85.104 8 85.032 7.01Q84.96 6.02 84.924 5.048Q84.888 4.076 84.87 3.248ZM7.524 5.444Q7.452 5.804 7.02 5.84Q6.588 5.876 6.3 5.876Q5.4 5.912 4.446 6.056Q3.492 6.2 2.448 6.488Q2.016 6.632 1.512 6.38Q1.008 6.128 0.9 5.372Q0.9 5.084 1.116 4.904Q1.332 4.724 1.62 4.58Q2.088 4.364 2.736 4.202Q3.384 4.04 4.05 3.968Q4.716 3.896 5.328 3.914Q5.94 3.932 6.336 4.04Q6.912 4.22 7.254 4.58Q7.596 4.94 7.524 5.444ZM64.224 5.84Q64.656 5.804 64.728 5.444Q64.8 4.94 64.458 4.58Q64.116 4.22 63.54 4.04Q63.144 3.932 62.532 3.914Q61.92 3.896 61.254 3.968Q60.588 4.04 59.94 4.202Q59.292 4.364 58.824 4.58Q58.536 4.724 58.32 4.904Q58.104 5.084 58.104 5.372Q58.212 6.128 58.716 6.38Q59.22 6.632 59.652 6.488Q60.696 6.2 61.65 6.056Q62.604 5.912 63.504 5.876Q63.792 5.876 64.224 5.84ZM44.676 6.812Q44.82 7.82 44.91 8.954Q45 10.088 45.054 11.24Q45.108 12.392 45.108 13.472Q45.108 14.552 45.072 15.416Q46.224 16.208 46.458 16.82Q46.692 17.432 46.512 17.9Q46.296 18.548 45.738 18.566Q45.18 18.584 44.46 18.188Q43.956 18.548 43.308 18.962Q42.66 19.376 41.94 19.754Q41.22 20.132 40.5 20.42Q39.78 20.708 39.168 20.816Q38.016 20.996 37.098 20.384Q36.18 19.772 35.856 18.548Q35.64 17.72 35.748 16.838Q35.856 15.956 36.288 15.146Q36.72 14.336 37.458 13.688Q38.196 13.04 39.204 12.68Q39.456 12.572 39.906 12.5Q40.356 12.428 40.842 12.446Q41.328 12.464 41.832 12.644Q42.336 12.824 42.768 13.256Q42.768 12.644 42.75 11.906Q42.732 11.168 42.696 10.412Q42.66 9.656 42.606 8.99Q42.552 8.324 42.48 7.856Q42.408 7.316 42.066 7.19Q41.724 7.064 41.22 7.244Q40.356 7.532 39.204 8.36Q38.052 9.188 37.008 10.124Q36.684 10.448 36.27 10.412Q35.856 10.376 35.568 10.088Q35.28 9.8 35.244 9.422Q35.208 9.044 35.532 8.612Q36.144 7.964 36.9 7.28Q37.656 6.596 38.484 6.038Q39.312 5.48 40.176 5.12Q41.04 4.76 41.904 4.724Q43.164 4.688 43.848 5.282Q44.532 5.876 44.676 6.812ZM69.696 8.252Q69.804 8.792 69.93 9.458Q70.056 10.124 70.2 10.826Q70.344 11.528 70.452 12.248Q70.56 12.968 70.632 13.616Q71.064 12.68 71.568 11.636Q72.072 10.592 72.666 9.71Q73.26 8.828 73.926 8.252Q74.592 7.676 75.384 7.676Q76.572 7.676 77.382 8.54Q78.192 9.404 78.75 10.682Q79.308 11.96 79.632 13.364Q79.956 14.768 80.172 15.848Q80.388 16.82 79.308 17.288Q78.804 17.54 78.552 17.36Q78.3 17.18 78.264 17Q78.084 16.568 77.814 15.488Q77.544 14.408 77.202 13.292Q76.86 12.176 76.428 11.348Q75.996 10.52 75.456 10.592Q74.808 10.628 74.304 11.564Q73.872 12.32 73.422 13.238Q72.972 14.156 72.54 15.11Q72.108 16.064 71.694 17.018Q71.28 17.972 70.92 18.764Q70.668 19.016 70.29 19.106Q69.912 19.196 69.516 19.052Q69.156 18.944 68.94 18.692Q68.724 18.44 68.724 18.188Q68.4 15.38 68.058 13.076Q67.716 10.772 67.176 8.36Q66.924 7.532 67.086 7.046Q67.248 6.56 68.148 6.668Q69.408 6.884 69.696 8.252ZM103.068 7.568Q104.148 7.964 104.886 8.756Q105.624 9.548 106.02 10.538Q106.416 11.528 106.47 12.572Q106.524 13.616 106.236 14.516Q105.84 15.524 105.228 16.496Q104.616 17.468 103.824 18.224Q103.032 18.98 102.024 19.448Q101.016 19.916 99.792 19.916Q98.316 19.916 97.308 19.232Q96.3 18.548 95.724 17.468Q95.148 16.388 94.986 15.02Q94.824 13.652 95.04 12.284Q95.184 11.276 95.526 10.322Q95.868 9.368 96.408 8.63Q96.948 7.892 97.65 7.424Q98.352 6.956 99.252 6.956Q99.756 6.956 100.512 7.154Q101.268 7.352 101.916 7.712Q102.384 7.28 103.068 7.568ZM28.728 12.95Q30.348 12.5 31.752 11.672Q32.364 11.276 32.49 10.772Q32.616 10.268 32.328 9.584Q31.824 8.36 30.564 7.676Q29.304 6.992 27.756 7.1Q26.46 7.172 25.488 7.676Q24.516 8.18 23.868 8.954Q23.22 9.728 22.914 10.736Q22.608 11.744 22.716 12.86Q22.824 14.048 23.256 15.164Q23.688 16.28 24.516 17.108Q25.488 18.044 26.712 18.368Q27.936 18.692 29.088 18.476Q30.42 18.26 31.5 17.45Q32.58 16.64 33.156 15.488Q33.3 14.588 32.796 14.408Q32.616 14.336 32.256 14.426Q31.896 14.516 31.572 14.804Q31.248 15.092 30.816 15.38Q30.384 15.668 29.862 15.902Q29.34 16.136 28.746 16.244Q28.152 16.352 27.576 16.28Q26.604 16.136 25.956 15.398Q25.308 14.66 25.236 13.4Q27.108 13.4 28.728 12.95ZM120.708 18.242Q120.6 17.576 119.916 16.748Q119.196 15.812 118.404 14.84Q117.612 13.868 116.784 12.932L119.772 9.908Q120.24 9.404 120.366 8.882Q120.492 8.36 120.168 7.964Q119.52 7.64 118.98 7.712Q118.44 7.784 117.972 8.072Q116.46 9.512 115.02 11.024Q113.364 9.26 111.456 7.748Q110.808 7.352 110.16 7.334Q109.512 7.316 108.864 7.964Q108.792 8.036 108.72 8.216Q108.648 8.396 108.666 8.594Q108.684 8.792 108.828 8.936Q108.972 9.08 109.404 9.08Q110.412 10.016 111.366 10.97Q112.32 11.924 113.256 12.896L111.744 14.552Q110.988 15.38 110.268 16.244Q109.872 16.784 109.638 17.378Q109.404 17.972 109.404 18.656Q109.404 19.088 109.908 19.178Q110.412 19.268 111.024 18.764L114.948 14.768Q115.776 15.668 116.55 16.568Q117.324 17.468 118.116 18.368Q118.296 18.548 118.584 18.728Q118.872 18.908 119.178 19.034Q119.484 19.16 119.754 19.214Q120.024 19.268 120.168 19.196Q120.816 18.908 120.708 18.242ZM101.7 10.196Q101.304 9.944 100.782 9.53Q100.26 9.116 99.864 9.116Q99.432 9.116 99.018 9.512Q98.604 9.908 98.298 10.43Q97.992 10.952 97.776 11.492Q97.56 12.032 97.488 12.356Q97.38 12.896 97.344 13.652Q97.308 14.408 97.452 15.146Q97.596 15.884 98.01 16.478Q98.424 17.072 99.252 17.324Q99.756 17.468 100.44 17.306Q101.124 17.144 101.79 16.712Q102.456 16.28 103.05 15.56Q103.644 14.84 103.968 13.904Q104.328 12.86 103.986 11.726Q103.644 10.592 102.6 10.088Q102.348 10.268 102.096 10.268Q101.844 10.268 101.7 10.196ZM26.838 9.476Q27.252 9.296 27.612 9.224Q28.404 9.08 29.178 9.242Q29.952 9.404 30.24 10.088Q29.844 10.34 29.25 10.556Q28.656 10.772 27.954 10.934Q27.252 11.096 26.514 11.204Q25.776 11.312 25.164 11.312Q25.2 10.88 25.47 10.538Q25.74 10.196 26.082 9.926Q26.424 9.656 26.838 9.476ZM89.46 9.674Q90.072 10.16 90.072 11.384Q90.072 12.212 89.712 12.95Q89.352 13.688 88.794 14.336Q88.236 14.984 87.588 15.506Q86.94 16.028 86.364 16.424Q86.184 15.596 86.058 14.552Q85.932 13.508 85.86 12.608Q85.824 12.068 85.986 11.492Q86.148 10.916 86.472 10.448Q86.796 9.98 87.228 9.656Q87.66 9.332 88.2 9.26Q88.848 9.188 89.46 9.674ZM6.696 17.432Q6.948 18.008 6.966 18.674Q6.984 19.34 6.588 19.592Q6.084 19.916 5.508 19.556Q4.932 19.196 4.644 18.584Q4.248 17.828 4.032 16.73Q3.816 15.632 3.708 14.552Q3.6 13.472 3.582 12.536Q3.564 11.6 3.564 11.132Q3.6 10.628 3.852 10.196Q4.104 9.764 4.5 9.692Q5.148 9.728 5.544 10.286Q5.94 10.844 5.904 11.672Q5.904 12.32 5.94 13.112Q5.976 13.904 6.084 14.696Q6.192 15.488 6.336 16.226Q6.48 16.964 6.696 17.432ZM64.17 18.674Q64.152 18.008 63.9 17.432Q63.684 16.964 63.54 16.226Q63.396 15.488 63.288 14.696Q63.18 13.904 63.144 13.112Q63.108 12.32 63.108 11.672Q63.144 10.844 62.748 10.286Q62.352 9.728 61.704 9.692Q61.308 9.764 61.056 10.196Q60.804 10.628 60.768 11.132Q60.768 11.6 60.786 12.536Q60.804 13.472 60.912 14.552Q61.02 15.632 61.236 16.73Q61.452 17.828 61.848 18.584Q62.136 19.196 62.712 19.556Q63.288 19.916 63.792 19.592Q64.188 19.34 64.17 18.674ZM12.636 14.732Q12.852 15.596 13.428 16.064Q14.004 16.532 14.796 16.694Q15.588 16.856 16.488 16.748Q17.388 16.64 18.252 16.352L18.576 16.244L17.568 9.908L16.848 10.088Q16.092 10.304 15.246 10.754Q14.4 11.204 13.752 11.816Q13.104 12.428 12.762 13.184Q12.42 13.94 12.636 14.732ZM40.5 14.552Q40.032 14.66 39.51 15.002Q38.988 15.344 38.574 15.83Q38.16 16.316 37.962 16.91Q37.764 17.504 37.944 18.08Q38.016 18.296 38.25 18.404Q38.484 18.512 38.772 18.44Q39.636 18.26 40.734 17.738Q41.832 17.216 42.48 16.604Q42.48 16.388 42.264 16.046Q42.048 15.704 41.76 15.362Q41.472 15.02 41.13 14.768Q40.788 14.516 40.5 14.552Z" />
  </g>
  <path d="M7.999 0L124.001 0Q124.197 0 124.393 0.00963514Q124.59 0.0192703 124.785 0.0385174Q124.98 0.0577644 125.175 0.0865771Q125.369 0.11539 125.562 0.153699Q125.754 0.192007 125.945 0.23972Q126.135 0.287433 126.323 0.344434Q126.511 0.401436 126.696 0.467589Q126.881 0.533742 127.062 0.608888Q127.243 0.684033 127.421 0.76799Q127.599 0.851946 127.772 0.944512Q127.945 1.03708 128.113 1.13803Q128.282 1.23898 128.445 1.34807Q128.608 1.45717 128.766 1.57414Q128.924 1.69112 129.076 1.81569Q129.227 1.94026 129.373 2.07213Q129.518 2.204 129.657 2.34285Q129.796 2.4817 129.928 2.6272Q130.06 2.7727 130.184 2.92449Q130.309 3.07628 130.426 3.234Q130.543 3.39172 130.652 3.55499Q130.761 3.71826 130.862 3.88669Q130.963 4.05512 131.055 4.2283Q131.148 4.40148 131.232 4.57899Q131.316 4.7565 131.391 4.93791Q131.466 5.11933 131.532 5.30422Q131.599 5.4891 131.656 5.67701Q131.713 5.86492 131.76 6.0554Q131.808 6.24588 131.846 6.43847Q131.885 6.63106 131.913 6.8253Q131.942 7.01954 131.961 7.21496Q131.981 7.41038 131.99 7.60651Q132 7.80264 132 7.999L132 17.001Q132 17.1974 131.99 17.3935Q131.981 17.5896 131.961 17.785Q131.942 17.9805 131.913 18.1747Q131.885 18.3689 131.846 18.5615Q131.808 18.7541 131.76 18.9446Q131.713 19.1351 131.656 19.323Q131.599 19.5109 131.532 19.6958Q131.466 19.8807 131.391 20.0621Q131.316 20.2435 131.232 20.421Q131.148 20.5985 131.055 20.7717Q130.963 20.9449 130.862 21.1133Q130.761 21.2817 130.652 21.445Q130.543 21.6083 130.426 21.766Q130.309 21.9237 130.184 22.0755Q130.06 22.2273 129.928 22.3728Q129.796 22.5183 129.657 22.6571Q129.518 22.796 129.373 22.9279Q129.227 23.0597 129.076 23.1843Q128.924 23.3089 128.766 23.4259Q128.608 23.5428 128.445 23.6519Q128.282 23.761 128.113 23.862Q127.945 23.9629 127.772 24.0555Q127.599 24.1481 127.421 24.232Q127.243 24.316 127.062 24.3911Q126.881 24.4663 126.696 24.5324Q126.511 24.5986 126.323 24.6556Q126.135 24.7126 125.945 24.7603Q125.754 24.808 125.562 24.8463Q125.369 24.8846 125.175 24.9134Q124.98 24.9422 124.785 24.9615Q124.59 24.9807 124.393 24.9904Q124.197 25 124.001 25L7.999 25Q7.80264 25 7.60651 24.9904Q7.41038 24.9807 7.21496 24.9615Q7.01954 24.9422 6.8253 24.9134Q6.63106 24.8846 6.43847 24.8463Q6.24588 24.808 6.0554 24.7603Q5.86492 24.7126 5.67701 24.6556Q5.4891 24.5986 5.30422 24.5324Q5.11933 24.4663 4.93791 24.3911Q4.7565 24.316 4.57899 24.232Q4.40148 24.1481 4.2283 24.0555Q4.05512 23.9629 3.88669 23.862Q3.71826 23.761 3.55499 23.6519Q3.39172 23.5428 3.234 23.4259Q3.07628 23.3089 2.92449 23.1843Q2.7727 23.0597 2.6272 22.9279Q2.4817 22.796 2.34285 22.6571Q2.204 22.5183 2.07213 22.3728Q1.94026 22.2273 1.81569 22.0755Q1.69112 21.9237 1.57414 21.766Q1.45717 21.6083 1.34807 21.445Q1.23898 21.2817 1.13803 21.1133Q1.03708 20.9449 0.944512 20.7717Q0.851946 20.5985 0.76799 20.421Q0.684033 20.2435 0.608888 20.0621Q0.533742 19.8807 0.467589 19.6958Q0.401436 19.5109 0.344434 19.323Q0.287433 19.1351 0.23972 18.9446Q0.192007 18.7541 0.153699 18.5615Q0.11539 18.3689 0.0865771 18.1747Q0.0577644 17.9805 0.0385174 17.785Q0.0192703 17.5896 0.00963514 17.3935Q0 17.1974 0 17.001L0 7.999Q0 7.80264 0.00963514 7.60651Q0.0192703 7.41038 0.0385174 7.21496Q0.0577644 7.01954 0.0865771 6.8253Q0.11539 6.63106 0.153699 6.43847Q0.192007 6.24588 0.23972 6.0554Q0.287433 5.86492 0.344434 5.67701Q0.401436 5.4891 0.467589 5.30422Q0.533742 5.11933 0.608888 4.93791Q0.684033 4.7565 0.76799 4.57899Q0.851946 4.40148 0.944512 4.2283Q1.03708 4.05512 1.13803 3.88669Q1.23898 3.71826 1.34807 3.55499Q1.45717 3.39172 1.57414 3.234Q1.69112 3.07628 1.81569 2.92449Q1.94026 2.7727 2.07213 2.6272Q2.204 2.4817 2.34285 2.34285Q2.4817 2.204 2.6272 2.07213Q2.7727 1.94026 2.92449 1.81569Q3.07628 1.69112 3.234 1.57414Q3.39172 1.45717 3.55499 1.34807Q3.71826 1.23898 3.88669 1.13803Q4.05512 1.03708 4.2283 0.944512Q4.40148 0.851946 4.57899 0.76799Q4.7565 0.684033 4.93791 0.608888Q5.11933 0.533742 5.30422 0.467589Q5.4891 0.401436 5.67701 0.344434Q5.86492 0.287433 6.0554 0.23972Q6.24588 0.192007 6.43847 0.153699Q6.63106 0.11539 6.8253 0.0865771Q7.01954 0.0577644 7.21496 0.0385174Q7.41038 0.0192703 7.60651 0.00963514Q7.80264 0 7.999 0L7.999 0Z" transform="translate(43.5 326.5)" id="Rectangle-2" fill="none" stroke="#686868" stroke-width="3" stroke-dasharray="6 8" />
  <path d="M7.999 0L124.001 0Q124.197 0 124.393 0.00963514Q124.59 0.0192703 124.785 0.0385174Q124.98 0.0577644 125.175 0.0865771Q125.369 0.11539 125.562 0.153699Q125.754 0.192007 125.945 0.23972Q126.135 0.287433 126.323 0.344434Q126.511 0.401436 126.696 0.467589Q126.881 0.533742 127.062 0.608888Q127.243 0.684033 127.421 0.76799Q127.599 0.851946 127.772 0.944512Q127.945 1.03708 128.113 1.13803Q128.282 1.23898 128.445 1.34807Q128.608 1.45717 128.766 1.57414Q128.924 1.69112 129.076 1.81569Q129.227 1.94026 129.373 2.07213Q129.518 2.204 129.657 2.34285Q129.796 2.4817 129.928 2.6272Q130.06 2.7727 130.184 2.92449Q130.309 3.07628 130.426 3.234Q130.543 3.39172 130.652 3.55499Q130.761 3.71826 130.862 3.88669Q130.963 4.05512 131.055 4.2283Q131.148 4.40148 131.232 4.57899Q131.316 4.7565 131.391 4.93791Q131.466 5.11933 131.532 5.30422Q131.599 5.4891 131.656 5.67701Q131.713 5.86492 131.76 6.0554Q131.808 6.24588 131.846 6.43847Q131.885 6.63106 131.913 6.8253Q131.942 7.01954 131.961 7.21496Q131.981 7.41038 131.99 7.60651Q132 7.80264 132 7.999L132 17.001Q132 17.1974 131.99 17.3935Q131.981 17.5896 131.961 17.785Q131.942 17.9805 131.913 18.1747Q131.885 18.3689 131.846 18.5615Q131.808 18.7541 131.76 18.9446Q131.713 19.1351 131.656 19.323Q131.599 19.5109 131.532 19.6958Q131.466 19.8807 131.391 20.0621Q131.316 20.2435 131.232 20.421Q131.148 20.5985 131.055 20.7717Q130.963 20.9449 130.862 21.1133Q130.761 21.2817 130.652 21.445Q130.543 21.6083 130.426 21.766Q130.309 21.9237 130.184 22.0755Q130.06 22.2273 129.928 22.3728Q129.796 22.5183 129.657 22.6571Q129.518 22.796 129.373 22.9279Q129.227 23.0597 129.076 23.1843Q128.924 23.3089 128.766 23.4259Q128.608 23.5428 128.445 23.6519Q128.282 23.761 128.113 23.862Q127.945 23.9629 127.772 24.0555Q127.599 24.1481 127.421 24.232Q127.243 24.316 127.062 24.3911Q126.881 24.4663 126.696 24.5324Q126.511 24.5986 126.323 24.6556Q126.135 24.7126 125.945 24.7603Q125.754 24.808 125.562 24.8463Q125.369 24.8846 125.175 24.9134Q124.98 24.9422 124.785 24.9615Q124.59 24.9807 124.393 24.9904Q124.197 25 124.001 25L7.999 25Q7.80264 25 7.60651 24.9904Q7.41038 24.9807 7.21496 24.9615Q7.01954 24.9422 6.8253 24.9134Q6.63106 24.8846 6.43847 24.8463Q6.24588 24.808 6.0554 24.7603Q5.86492 24.7126 5.67701 24.6556Q5.4891 24.5986 5.30422 24.5324Q5.11933 24.4663 4.93791 24.3911Q4.7565 24.316 4.57899 24.232Q4.40148 24.1481 4.2283 24.0555Q4.05512 23.9629 3.88669 23.862Q3.71826 23.761 3.55499 23.6519Q3.39172 23.5428 3.234 23.4259Q3.07628 23.3089 2.92449 23.1843Q2.7727 23.0597 2.6272 22.9279Q2.4817 22.796 2.34285 22.6571Q2.204 22.5183 2.07213 22.3728Q1.94026 22.2273 1.81569 22.0755Q1.69112 21.9237 1.57414 21.766Q1.45717 21.6083 1.34807 21.445Q1.23898 21.2817 1.13803 21.1133Q1.03708 20.9449 0.944512 20.7717Q0.851946 20.5985 0.76799 20.421Q0.684033 20.2435 0.608888 20.0621Q0.533742 19.8807 0.467589 19.6958Q0.401436 19.5109 0.344434 19.323Q0.287433 19.1351 0.23972 18.9446Q0.192007 18.7541 0.153699 18.5615Q0.11539 18.3689 0.0865771 18.1747Q0.0577644 17.9805 0.0385174 17.785Q0.0192703 17.5896 0.00963514 17.3935Q0 17.1974 0 17.001L0 7.999Q0 7.80264 0.00963514 7.60651Q0.0192703 7.41038 0.0385174 7.21496Q0.0577644 7.01954 0.0865771 6.8253Q0.11539 6.63106 0.153699 6.43847Q0.192007 6.24588 0.23972 6.0554Q0.287433 5.86492 0.344434 5.67701Q0.401436 5.4891 0.467589 5.30422Q0.533742 5.11933 0.608888 4.93791Q0.684033 4.7565 0.76799 4.57899Q0.851946 4.40148 0.944512 4.2283Q1.03708 4.05512 1.13803 3.88669Q1.23898 3.71826 1.34807 3.55499Q1.45717 3.39172 1.57414 3.234Q1.69112 3.07628 1.81569 2.92449Q1.94026 2.7727 2.07213 2.6272Q2.204 2.4817 2.34285 2.34285Q2.4817 2.204 2.6272 2.07213Q2.7727 1.94026 2.92449 1.81569Q3.07628 1.69112 3.234 1.57414Q3.39172 1.45717 3.55499 1.34807Q3.71826 1.23898 3.88669 1.13803Q4.05512 1.03708 4.2283 0.944512Q4.40148 0.851946 4.57899 0.76799Q4.7565 0.684033 4.93791 0.608888Q5.11933 0.533742 5.30422 0.467589Q5.4891 0.401436 5.67701 0.344434Q5.86492 0.287433 6.0554 0.23972Q6.24588 0.192007 6.43847 0.153699Q6.63106 0.11539 6.8253 0.0865771Q7.01954 0.0577644 7.21496 0.0385174Q7.41038 0.0192703 7.60651 0.00963514Q7.80264 0 7.999 0L7.999 0Z" transform="translate(44.5 382.5)" id="Rectangle-3" fill="none" stroke="#686868" stroke-width="3" stroke-dasharray="6 8" />
  <path d="M7.999 0L124.001 0Q124.197 0 124.393 0.00963514Q124.59 0.0192703 124.785 0.0385174Q124.98 0.0577644 125.175 0.0865771Q125.369 0.11539 125.562 0.153699Q125.754 0.192007 125.945 0.23972Q126.135 0.287433 126.323 0.344434Q126.511 0.401436 126.696 0.467589Q126.881 0.533742 127.062 0.608888Q127.243 0.684033 127.421 0.76799Q127.599 0.851946 127.772 0.944512Q127.945 1.03708 128.113 1.13803Q128.282 1.23898 128.445 1.34807Q128.608 1.45717 128.766 1.57414Q128.924 1.69112 129.076 1.81569Q129.227 1.94026 129.373 2.07213Q129.518 2.204 129.657 2.34285Q129.796 2.4817 129.928 2.6272Q130.06 2.7727 130.184 2.92449Q130.309 3.07628 130.426 3.234Q130.543 3.39172 130.652 3.55499Q130.761 3.71826 130.862 3.88669Q130.963 4.05512 131.055 4.2283Q131.148 4.40148 131.232 4.57899Q131.316 4.7565 131.391 4.93791Q131.466 5.11933 131.532 5.30422Q131.599 5.4891 131.656 5.67701Q131.713 5.86492 131.76 6.0554Q131.808 6.24588 131.846 6.43847Q131.885 6.63106 131.913 6.8253Q131.942 7.01954 131.961 7.21496Q131.981 7.41038 131.99 7.60651Q132 7.80264 132 7.999L132 17.001Q132 17.1974 131.99 17.3935Q131.981 17.5896 131.961 17.785Q131.942 17.9805 131.913 18.1747Q131.885 18.3689 131.846 18.5615Q131.808 18.7541 131.76 18.9446Q131.713 19.1351 131.656 19.323Q131.599 19.5109 131.532 19.6958Q131.466 19.8807 131.391 20.0621Q131.316 20.2435 131.232 20.421Q131.148 20.5985 131.055 20.7717Q130.963 20.9449 130.862 21.1133Q130.761 21.2817 130.652 21.445Q130.543 21.6083 130.426 21.766Q130.309 21.9237 130.184 22.0755Q130.06 22.2273 129.928 22.3728Q129.796 22.5183 129.657 22.6571Q129.518 22.796 129.373 22.9279Q129.227 23.0597 129.076 23.1843Q128.924 23.3089 128.766 23.4259Q128.608 23.5428 128.445 23.6519Q128.282 23.761 128.113 23.862Q127.945 23.9629 127.772 24.0555Q127.599 24.1481 127.421 24.232Q127.243 24.316 127.062 24.3911Q126.881 24.4663 126.696 24.5324Q126.511 24.5986 126.323 24.6556Q126.135 24.7126 125.945 24.7603Q125.754 24.808 125.562 24.8463Q125.369 24.8846 125.175 24.9134Q124.98 24.9422 124.785 24.9615Q124.59 24.9807 124.393 24.9904Q124.197 25 124.001 25L7.999 25Q7.80264 25 7.60651 24.9904Q7.41038 24.9807 7.21496 24.9615Q7.01954 24.9422 6.8253 24.9134Q6.63106 24.8846 6.43847 24.8463Q6.24588 24.808 6.0554 24.7603Q5.86492 24.7126 5.67701 24.6556Q5.4891 24.5986 5.30422 24.5324Q5.11933 24.4663 4.93791 24.3911Q4.7565 24.316 4.57899 24.232Q4.40148 24.1481 4.2283 24.0555Q4.05512 23.9629 3.88669 23.862Q3.71826 23.761 3.55499 23.6519Q3.39172 23.5428 3.234 23.4259Q3.07628 23.3089 2.92449 23.1843Q2.7727 23.0597 2.6272 22.9279Q2.4817 22.796 2.34285 22.6571Q2.204 22.5183 2.07213 22.3728Q1.94026 22.2273 1.81569 22.0755Q1.69112 21.9237 1.57414 21.766Q1.45717 21.6083 1.34807 21.445Q1.23898 21.2817 1.13803 21.1133Q1.03708 20.9449 0.944512 20.7717Q0.851946 20.5985 0.76799 20.421Q0.684033 20.2435 0.608888 20.0621Q0.533742 19.8807 0.467589 19.6958Q0.401436 19.5109 0.344434 19.323Q0.287433 19.1351 0.23972 18.9446Q0.192007 18.7541 0.153699 18.5615Q0.11539 18.3689 0.0865771 18.1747Q0.0577644 17.9805 0.0385174 17.785Q0.0192703 17.5896 0.00963514 17.3935Q0 17.1974 0 17.001L0 7.999Q0 7.80264 0.00963514 7.60651Q0.0192703 7.41038 0.0385174 7.21496Q0.0577644 7.01954 0.0865771 6.8253Q0.11539 6.63106 0.153699 6.43847Q0.192007 6.24588 0.23972 6.0554Q0.287433 5.86492 0.344434 5.67701Q0.401436 5.4891 0.467589 5.30422Q0.533742 5.11933 0.608888 4.93791Q0.684033 4.7565 0.76799 4.57899Q0.851946 4.40148 0.944512 4.2283Q1.03708 4.05512 1.13803 3.88669Q1.23898 3.71826 1.34807 3.55499Q1.45717 3.39172 1.57414 3.234Q1.69112 3.07628 1.81569 2.92449Q1.94026 2.7727 2.07213 2.6272Q2.204 2.4817 2.34285 2.34285Q2.4817 2.204 2.6272 2.07213Q2.7727 1.94026 2.92449 1.81569Q3.07628 1.69112 3.234 1.57414Q3.39172 1.45717 3.55499 1.34807Q3.71826 1.23898 3.88669 1.13803Q4.05512 1.03708 4.2283 0.944512Q4.40148 0.851946 4.57899 0.76799Q4.7565 0.684033 4.93791 0.608888Q5.11933 0.533742 5.30422 0.467589Q5.4891 0.401436 5.67701 0.344434Q5.86492 0.287433 6.0554 0.23972Q6.24588 0.192007 6.43847 0.153699Q6.63106 0.11539 6.8253 0.0865771Q7.01954 0.0577644 7.21496 0.0385174Q7.41038 0.0192703 7.60651 0.00963514Q7.80264 0 7.999 0L7.999 0Z" transform="translate(47.5 443.5)" id="Rectangle-6" fill="none" stroke="#686868" stroke-width="3" stroke-dasharray="6 8" />
  <path d="M7.999 0L124.001 0Q124.197 0 124.393 0.00963514Q124.59 0.0192703 124.785 0.0385174Q124.98 0.0577644 125.175 0.0865771Q125.369 0.11539 125.562 0.153699Q125.754 0.192007 125.945 0.23972Q126.135 0.287433 126.323 0.344434Q126.511 0.401436 126.696 0.467589Q126.881 0.533742 127.062 0.608888Q127.243 0.684033 127.421 0.76799Q127.599 0.851946 127.772 0.944512Q127.945 1.03708 128.113 1.13803Q128.282 1.23898 128.445 1.34807Q128.608 1.45717 128.766 1.57414Q128.924 1.69112 129.076 1.81569Q129.227 1.94026 129.373 2.07213Q129.518 2.204 129.657 2.34285Q129.796 2.4817 129.928 2.6272Q130.06 2.7727 130.184 2.92449Q130.309 3.07628 130.426 3.234Q130.543 3.39172 130.652 3.55499Q130.761 3.71826 130.862 3.88669Q130.963 4.05512 131.055 4.2283Q131.148 4.40148 131.232 4.57899Q131.316 4.7565 131.391 4.93791Q131.466 5.11933 131.532 5.30422Q131.599 5.4891 131.656 5.67701Q131.713 5.86492 131.76 6.0554Q131.808 6.24588 131.846 6.43847Q131.885 6.63106 131.913 6.8253Q131.942 7.01954 131.961 7.21496Q131.981 7.41038 131.99 7.60651Q132 7.80264 132 7.999L132 17.001Q132 17.1974 131.99 17.3935Q131.981 17.5896 131.961 17.785Q131.942 17.9805 131.913 18.1747Q131.885 18.3689 131.846 18.5615Q131.808 18.7541 131.76 18.9446Q131.713 19.1351 131.656 19.323Q131.599 19.5109 131.532 19.6958Q131.466 19.8807 131.391 20.0621Q131.316 20.2435 131.232 20.421Q131.148 20.5985 131.055 20.7717Q130.963 20.9449 130.862 21.1133Q130.761 21.2817 130.652 21.445Q130.543 21.6083 130.426 21.766Q130.309 21.9237 130.184 22.0755Q130.06 22.2273 129.928 22.3728Q129.796 22.5183 129.657 22.6571Q129.518 22.796 129.373 22.9279Q129.227 23.0597 129.076 23.1843Q128.924 23.3089 128.766 23.4259Q128.608 23.5428 128.445 23.6519Q128.282 23.761 128.113 23.862Q127.945 23.9629 127.772 24.0555Q127.599 24.1481 127.421 24.232Q127.243 24.316 127.062 24.3911Q126.881 24.4663 126.696 24.5324Q126.511 24.5986 126.323 24.6556Q126.135 24.7126 125.945 24.7603Q125.754 24.808 125.562 24.8463Q125.369 24.8846 125.175 24.9134Q124.98 24.9422 124.785 24.9615Q124.59 24.9807 124.393 24.9904Q124.197 25 124.001 25L7.999 25Q7.80264 25 7.60651 24.9904Q7.41038 24.9807 7.21496 24.9615Q7.01954 24.9422 6.8253 24.9134Q6.63106 24.8846 6.43847 24.8463Q6.24588 24.808 6.0554 24.7603Q5.86492 24.7126 5.67701 24.6556Q5.4891 24.5986 5.30422 24.5324Q5.11933 24.4663 4.93791 24.3911Q4.7565 24.316 4.57899 24.232Q4.40148 24.1481 4.2283 24.0555Q4.05512 23.9629 3.88669 23.862Q3.71826 23.761 3.55499 23.6519Q3.39172 23.5428 3.234 23.4259Q3.07628 23.3089 2.92449 23.1843Q2.7727 23.0597 2.6272 22.9279Q2.4817 22.796 2.34285 22.6571Q2.204 22.5183 2.07213 22.3728Q1.94026 22.2273 1.81569 22.0755Q1.69112 21.9237 1.57414 21.766Q1.45717 21.6083 1.34807 21.445Q1.23898 21.2817 1.13803 21.1133Q1.03708 20.9449 0.944512 20.7717Q0.851946 20.5985 0.76799 20.421Q0.684033 20.2435 0.608888 20.0621Q0.533742 19.8807 0.467589 19.6958Q0.401436 19.5109 0.344434 19.323Q0.287433 19.1351 0.23972 18.9446Q0.192007 18.7541 0.153699 18.5615Q0.11539 18.3689 0.0865771 18.1747Q0.0577644 17.9805 0.0385174 17.785Q0.0192703 17.5896 0.00963514 17.3935Q0 17.1974 0 17.001L0 7.999Q0 7.80264 0.00963514 7.60651Q0.0192703 7.41038 0.0385174 7.21496Q0.0577644 7.01954 0.0865771 6.8253Q0.11539 6.63106 0.153699 6.43847Q0.192007 6.24588 0.23972 6.0554Q0.287433 5.86492 0.344434 5.67701Q0.401436 5.4891 0.467589 5.30422Q0.533742 5.11933 0.608888 4.93791Q0.684033 4.7565 0.76799 4.57899Q0.851946 4.40148 0.944512 4.2283Q1.03708 4.05512 1.13803 3.88669Q1.23898 3.71826 1.34807 3.55499Q1.45717 3.39172 1.57414 3.234Q1.69112 3.07628 1.81569 2.92449Q1.94026 2.7727 2.07213 2.6272Q2.204 2.4817 2.34285 2.34285Q2.4817 2.204 2.6272 2.07213Q2.7727 1.94026 2.92449 1.81569Q3.07628 1.69112 3.234 1.57414Q3.39172 1.45717 3.55499 1.34807Q3.71826 1.23898 3.88669 1.13803Q4.05512 1.03708 4.2283 0.944512Q4.40148 0.851946 4.57899 0.76799Q4.7565 0.684033 4.93791 0.608888Q5.11933 0.533742 5.30422 0.467589Q5.4891 0.401436 5.67701 0.344434Q5.86492 0.287433 6.0554 0.23972Q6.24588 0.192007 6.43847 0.153699Q6.63106 0.11539 6.8253 0.0865771Q7.01954 0.0577644 7.21496 0.0385174Q7.41038 0.0192703 7.60651 0.00963514Q7.80264 0 7.999 0L7.999 0Z" transform="translate(47.5 504.5)" id="Rectangle-4" fill="none" stroke="#686868" stroke-width="3" stroke-dasharray="6 8" />
  <path d="M7.999 0L124.001 0Q124.197 0 124.393 0.00963514Q124.59 0.0192703 124.785 0.0385174Q124.98 0.0577644 125.175 0.0865771Q125.369 0.11539 125.562 0.153699Q125.754 0.192007 125.945 0.23972Q126.135 0.287433 126.323 0.344434Q126.511 0.401436 126.696 0.467589Q126.881 0.533742 127.062 0.608888Q127.243 0.684033 127.421 0.76799Q127.599 0.851946 127.772 0.944512Q127.945 1.03708 128.113 1.13803Q128.282 1.23898 128.445 1.34807Q128.608 1.45717 128.766 1.57414Q128.924 1.69112 129.076 1.81569Q129.227 1.94026 129.373 2.07213Q129.518 2.204 129.657 2.34285Q129.796 2.4817 129.928 2.6272Q130.06 2.7727 130.184 2.92449Q130.309 3.07628 130.426 3.234Q130.543 3.39172 130.652 3.55499Q130.761 3.71826 130.862 3.88669Q130.963 4.05512 131.055 4.2283Q131.148 4.40148 131.232 4.57899Q131.316 4.7565 131.391 4.93791Q131.466 5.11933 131.532 5.30422Q131.599 5.4891 131.656 5.67701Q131.713 5.86492 131.76 6.0554Q131.808 6.24588 131.846 6.43847Q131.885 6.63106 131.913 6.8253Q131.942 7.01954 131.961 7.21496Q131.981 7.41038 131.99 7.60651Q132 7.80264 132 7.999L132 17.001Q132 17.1974 131.99 17.3935Q131.981 17.5896 131.961 17.785Q131.942 17.9805 131.913 18.1747Q131.885 18.3689 131.846 18.5615Q131.808 18.7541 131.76 18.9446Q131.713 19.1351 131.656 19.323Q131.599 19.5109 131.532 19.6958Q131.466 19.8807 131.391 20.0621Q131.316 20.2435 131.232 20.421Q131.148 20.5985 131.055 20.7717Q130.963 20.9449 130.862 21.1133Q130.761 21.2817 130.652 21.445Q130.543 21.6083 130.426 21.766Q130.309 21.9237 130.184 22.0755Q130.06 22.2273 129.928 22.3728Q129.796 22.5183 129.657 22.6571Q129.518 22.796 129.373 22.9279Q129.227 23.0597 129.076 23.1843Q128.924 23.3089 128.766 23.4259Q128.608 23.5428 128.445 23.6519Q128.282 23.761 128.113 23.862Q127.945 23.9629 127.772 24.0555Q127.599 24.1481 127.421 24.232Q127.243 24.316 127.062 24.3911Q126.881 24.4663 126.696 24.5324Q126.511 24.5986 126.323 24.6556Q126.135 24.7126 125.945 24.7603Q125.754 24.808 125.562 24.8463Q125.369 24.8846 125.175 24.9134Q124.98 24.9422 124.785 24.9615Q124.59 24.9807 124.393 24.9904Q124.197 25 124.001 25L7.999 25Q7.80264 25 7.60651 24.9904Q7.41038 24.9807 7.21496 24.9615Q7.01954 24.9422 6.8253 24.9134Q6.63106 24.8846 6.43847 24.8463Q6.24588 24.808 6.0554 24.7603Q5.86492 24.7126 5.67701 24.6556Q5.4891 24.5986 5.30422 24.5324Q5.11933 24.4663 4.93791 24.3911Q4.7565 24.316 4.57899 24.232Q4.40148 24.1481 4.2283 24.0555Q4.05512 23.9629 3.88669 23.862Q3.71826 23.761 3.55499 23.6519Q3.39172 23.5428 3.234 23.4259Q3.07628 23.3089 2.92449 23.1843Q2.7727 23.0597 2.6272 22.9279Q2.4817 22.796 2.34285 22.6571Q2.204 22.5183 2.07213 22.3728Q1.94026 22.2273 1.81569 22.0755Q1.69112 21.9237 1.57414 21.766Q1.45717 21.6083 1.34807 21.445Q1.23898 21.2817 1.13803 21.1133Q1.03708 20.9449 0.944512 20.7717Q0.851946 20.5985 0.76799 20.421Q0.684033 20.2435 0.608888 20.0621Q0.533742 19.8807 0.467589 19.6958Q0.401436 19.5109 0.344434 19.323Q0.287433 19.1351 0.23972 18.9446Q0.192007 18.7541 0.153699 18.5615Q0.11539 18.3689 0.0865771 18.1747Q0.0577644 17.9805 0.0385174 17.785Q0.0192703 17.5896 0.00963514 17.3935Q0 17.1974 0 17.001L0 7.999Q0 7.80264 0.00963514 7.60651Q0.0192703 7.41038 0.0385174 7.21496Q0.0577644 7.01954 0.0865771 6.8253Q0.11539 6.63106 0.153699 6.43847Q0.192007 6.24588 0.23972 6.0554Q0.287433 5.86492 0.344434 5.67701Q0.401436 5.4891 0.467589 5.30422Q0.533742 5.11933 0.608888 4.93791Q0.684033 4.7565 0.76799 4.57899Q0.851946 4.40148 0.944512 4.2283Q1.03708 4.05512 1.13803 3.88669Q1.23898 3.71826 1.34807 3.55499Q1.45717 3.39172 1.57414 3.234Q1.69112 3.07628 1.81569 2.92449Q1.94026 2.7727 2.07213 2.6272Q2.204 2.4817 2.34285 2.34285Q2.4817 2.204 2.6272 2.07213Q2.7727 1.94026 2.92449 1.81569Q3.07628 1.69112 3.234 1.57414Q3.39172 1.45717 3.55499 1.34807Q3.71826 1.23898 3.88669 1.13803Q4.05512 1.03708 4.2283 0.944512Q4.40148 0.851946 4.57899 0.76799Q4.7565 0.684033 4.93791 0.608888Q5.11933 0.533742 5.30422 0.467589Q5.4891 0.401436 5.67701 0.344434Q5.86492 0.287433 6.0554 0.23972Q6.24588 0.192007 6.43847 0.153699Q6.63106 0.11539 6.8253 0.0865771Q7.01954 0.0577644 7.21496 0.0385174Q7.41038 0.0192703 7.60651 0.00963514Q7.80264 0 7.999 0L7.999 0Z" transform="translate(47.5 570.5)" id="Rectangle-5" fill="none" stroke="#686868" stroke-width="3" stroke-dasharray="6 8" />
  <path d="M7.999 0L217.001 0Q217.197 0 217.393 0.00963514Q217.59 0.0192703 217.785 0.0385174Q217.98 0.0577644 218.175 0.0865771Q218.369 0.11539 218.562 0.153699Q218.754 0.192007 218.945 0.23972Q219.135 0.287433 219.323 0.344434Q219.511 0.401436 219.696 0.467589Q219.881 0.533742 220.062 0.608888Q220.243 0.684033 220.421 0.76799Q220.599 0.851946 220.772 0.944512Q220.945 1.03708 221.113 1.13803Q221.282 1.23898 221.445 1.34807Q221.608 1.45717 221.766 1.57414Q221.924 1.69112 222.076 1.81569Q222.227 1.94026 222.373 2.07213Q222.518 2.204 222.657 2.34285Q222.796 2.4817 222.928 2.6272Q223.06 2.7727 223.184 2.92449Q223.309 3.07628 223.426 3.234Q223.543 3.39172 223.652 3.55499Q223.761 3.71826 223.862 3.88669Q223.963 4.05512 224.055 4.2283Q224.148 4.40148 224.232 4.57899Q224.316 4.7565 224.391 4.93791Q224.466 5.11933 224.532 5.30422Q224.599 5.4891 224.656 5.67701Q224.713 5.86492 224.76 6.0554Q224.808 6.24588 224.846 6.43847Q224.885 6.63106 224.913 6.8253Q224.942 7.01954 224.962 7.21496Q224.981 7.41038 224.99 7.60651Q225 7.80264 225 7.999L225 399.001Q225 399.197 224.99 399.393Q224.981 399.59 224.962 399.785Q224.942 399.98 224.913 400.175Q224.885 400.369 224.846 400.561Q224.808 400.754 224.76 400.945Q224.713 401.135 224.656 401.323Q224.599 401.511 224.532 401.696Q224.466 401.881 224.391 402.062Q224.316 402.243 224.232 402.421Q224.148 402.599 224.055 402.772Q223.963 402.945 223.862 403.113Q223.761 403.282 223.652 403.445Q223.543 403.608 223.426 403.766Q223.309 403.924 223.184 404.076Q223.06 404.227 222.928 404.373Q222.796 404.518 222.657 404.657Q222.518 404.796 222.373 404.928Q222.227 405.06 222.076 405.184Q221.924 405.309 221.766 405.426Q221.608 405.543 221.445 405.652Q221.282 405.761 221.113 405.862Q220.945 405.963 220.772 406.055Q220.599 406.148 220.421 406.232Q220.243 406.316 220.062 406.391Q219.881 406.466 219.696 406.532Q219.511 406.599 219.323 406.656Q219.135 406.713 218.945 406.76Q218.754 406.808 218.561 406.846Q218.369 406.885 218.175 406.913Q217.98 406.942 217.785 406.961Q217.59 406.981 217.393 406.99Q217.197 407 217.001 407L7.999 407Q7.80264 407 7.60651 406.99Q7.41038 406.981 7.21496 406.961Q7.01954 406.942 6.8253 406.913Q6.63106 406.885 6.43847 406.846Q6.24588 406.808 6.0554 406.76Q5.86492 406.713 5.67701 406.656Q5.4891 406.599 5.30422 406.532Q5.11933 406.466 4.93791 406.391Q4.7565 406.316 4.57899 406.232Q4.40148 406.148 4.2283 406.055Q4.05512 405.963 3.88669 405.862Q3.71826 405.761 3.55499 405.652Q3.39172 405.543 3.234 405.426Q3.07628 405.309 2.92449 405.184Q2.7727 405.06 2.6272 404.928Q2.4817 404.796 2.34285 404.657Q2.204 404.518 2.07213 404.373Q1.94026 404.227 1.81569 404.076Q1.69112 403.924 1.57414 403.766Q1.45717 403.608 1.34807 403.445Q1.23898 403.282 1.13803 403.113Q1.03708 402.945 0.944512 402.772Q0.851946 402.599 0.76799 402.421Q0.684033 402.243 0.608888 402.062Q0.533742 401.881 0.467589 401.696Q0.401436 401.511 0.344434 401.323Q0.287433 401.135 0.23972 400.945Q0.192007 400.754 0.153699 400.561Q0.11539 400.369 0.0865771 400.175Q0.0577644 399.98 0.0385174 399.785Q0.0192703 399.59 0.00963514 399.393Q0 399.197 0 399.001L0 7.999Q0 7.80264 0.00963514 7.60651Q0.0192703 7.41038 0.0385174 7.21496Q0.0577644 7.01954 0.0865771 6.8253Q0.11539 6.63106 0.153699 6.43847Q0.192007 6.24588 0.23972 6.0554Q0.287433 5.86492 0.344434 5.67701Q0.401436 5.4891 0.467589 5.30422Q0.533742 5.11933 0.608888 4.93791Q0.684033 4.7565 0.76799 4.57899Q0.851946 4.40148 0.944512 4.2283Q1.03708 4.05512 1.13803 3.88669Q1.23898 3.71826 1.34807 3.55499Q1.45717 3.39172 1.57414 3.234Q1.69112 3.07628 1.81569 2.92449Q1.94026 2.7727 2.07213 2.6272Q2.204 2.4817 2.34285 2.34285Q2.4817 2.204 2.6272 2.07213Q2.7727 1.94026 2.92449 1.81569Q3.07628 1.69112 3.234 1.57414Q3.39172 1.45717 3.55499 1.34807Q3.71826 1.23898 3.88669 1.13803Q4.05512 1.03708 4.2283 0.944512Q4.40148 0.851946 4.57899 0.76799Q4.7565 0.684033 4.93791 0.608888Q5.11933 0.533742 5.30422 0.467589Q5.4891 0.401436 5.67701 0.344434Q5.86492 0.287433 6.0554 0.23972Q6.24588 0.192007 6.43847 0.153699Q6.63106 0.11539 6.8253 0.0865771Q7.01954 0.0577644 7.21496 0.0385174Q7.41038 0.0192703 7.60651 0.00963514Q7.80264 0 7.999 0Z" transform="translate(527.5 1.5)" id="Rectangle-7" fill="none" stroke="#2C2C2C" stroke-width="3" stroke-dasharray="6 8" />
  <g id="good-ideas" transform="translate(576.5 24.5)">
    <path d="M48.852 1.88Q48.744 1.232 48.942 0.691999Q49.14 0.152 49.752 0.079998Q50.292 0.00799942 50.706 0.368Q51.12 0.727999 51.228 1.304Q51.948 5.444 52.578 9.53Q53.208 13.616 53.712 17.54Q53.856 18.584 53.568 18.962Q53.28 19.34 52.884 19.52Q52.452 19.7 52.074 19.52Q51.696 19.34 51.588 18.872L51.552 18.656L51.408 18.692Q50.22 19.124 48.924 19.178Q47.628 19.232 46.44 18.872Q45.252 18.512 44.334 17.702Q43.416 16.892 43.02 15.632Q42.156 12.86 44.1 10.592Q44.928 9.656 46.152 8.9Q47.376 8.144 49.104 7.712L49.752 7.568L48.852 1.88ZM80.496 1.88Q80.388 1.232 80.586 0.691999Q80.784 0.152 81.396 0.079998Q81.936 0.00799942 82.35 0.368Q82.764 0.727999 82.872 1.304Q83.592 5.444 84.222 9.53Q84.852 13.616 85.356 17.54Q85.5 18.584 85.212 18.962Q84.924 19.34 84.528 19.52Q84.096 19.7 83.718 19.52Q83.34 19.34 83.232 18.872L83.196 18.656L83.052 18.692Q81.864 19.124 80.568 19.178Q79.272 19.232 78.084 18.872Q76.896 18.512 75.978 17.702Q75.06 16.892 74.664 15.632Q73.8 12.86 75.744 10.592Q76.572 9.656 77.796 8.9Q79.02 8.144 80.748 7.712L81.396 7.568L80.496 1.88ZM71.244 5.84Q71.676 5.804 71.748 5.444Q71.82 4.94 71.478 4.58Q71.136 4.22 70.56 4.04Q70.164 3.932 69.552 3.914Q68.94 3.896 68.274 3.968Q67.608 4.04 66.96 4.202Q66.312 4.364 65.844 4.58Q65.556 4.724 65.34 4.904Q65.124 5.084 65.124 5.372Q65.232 6.128 65.736 6.38Q66.24 6.632 66.672 6.488Q67.716 6.2 68.67 6.056Q69.624 5.912 70.524 5.876Q70.812 5.876 71.244 5.84ZM108.9 6.812Q109.044 7.82 109.134 8.954Q109.224 10.088 109.278 11.24Q109.332 12.392 109.332 13.472Q109.332 14.552 109.296 15.416Q110.448 16.208 110.682 16.82Q110.916 17.432 110.736 17.9Q110.52 18.548 109.962 18.566Q109.404 18.584 108.684 18.188Q108.18 18.548 107.532 18.962Q106.884 19.376 106.164 19.754Q105.444 20.132 104.724 20.42Q104.004 20.708 103.392 20.816Q102.24 20.996 101.322 20.384Q100.404 19.772 100.08 18.548Q99.864 17.72 99.972 16.838Q100.08 15.956 100.512 15.146Q100.944 14.336 101.682 13.688Q102.42 13.04 103.428 12.68Q103.68 12.572 104.13 12.5Q104.58 12.428 105.066 12.446Q105.552 12.464 106.056 12.644Q106.56 12.824 106.992 13.256Q106.992 12.644 106.974 11.906Q106.956 11.168 106.92 10.412Q106.884 9.656 106.83 8.99Q106.776 8.324 106.704 7.856Q106.632 7.316 106.29 7.19Q105.948 7.064 105.444 7.244Q104.58 7.532 103.428 8.36Q102.276 9.188 101.232 10.124Q100.908 10.448 100.494 10.412Q100.08 10.376 99.792 10.088Q99.504 9.8 99.468 9.422Q99.432 9.044 99.756 8.612Q100.368 7.964 101.124 7.28Q101.88 6.596 102.708 6.038Q103.536 5.48 104.4 5.12Q105.264 4.76 106.128 4.724Q107.388 4.688 108.072 5.282Q108.756 5.876 108.9 6.812ZM119.412 8.612Q119.484 8.972 119.556 9.368Q119.592 9.692 119.898 9.89Q120.204 10.088 120.708 10.016Q121.104 9.944 121.266 9.62Q121.428 9.296 121.428 8.792Q121.248 7.28 120.24 6.506Q119.232 5.732 117.684 5.66Q116.784 5.66 115.884 6.056Q114.984 6.452 114.282 7.118Q113.58 7.784 113.148 8.648Q112.716 9.512 112.752 10.448Q112.896 11.492 113.436 12.194Q113.976 12.896 114.732 13.4Q115.488 13.904 116.55 14.516Q117.612 15.128 118.53 15.776Q119.448 16.424 120.006 17.018Q120.564 17.612 120.312 18.044Q120.024 18.548 119.304 18.872Q118.584 19.196 117.684 19.394Q116.784 19.592 115.794 19.682Q114.804 19.772 113.94 19.772Q113.328 19.772 112.752 20.024Q112.176 20.276 112.176 20.924Q112.176 21.104 112.374 21.338Q112.572 21.572 112.842 21.788Q113.112 22.004 113.418 22.166Q113.724 22.328 113.94 22.328Q114.84 22.328 116.136 22.202Q117.432 22.076 118.728 21.734Q120.024 21.392 121.104 20.78Q122.184 20.168 122.58 19.196Q123.084 17.936 122.742 16.946Q122.4 15.956 121.464 15.128Q120.528 14.3 119.16 13.508Q117.792 12.716 116.532 11.96Q115.776 11.456 115.38 10.952Q114.984 10.448 115.092 9.908Q115.128 9.62 115.524 9.242Q115.92 8.864 116.496 8.558Q117.072 8.252 117.756 8.108Q118.44 7.964 119.052 8.144Q119.34 8.252 119.412 8.612ZM21.96 7.568Q23.04 7.964 23.778 8.756Q24.516 9.548 24.912 10.538Q25.308 11.528 25.362 12.572Q25.416 13.616 25.128 14.516Q24.732 15.524 24.12 16.496Q23.508 17.468 22.716 18.224Q21.924 18.98 20.916 19.448Q19.908 19.916 18.684 19.916Q17.208 19.916 16.2 19.232Q15.192 18.548 14.616 17.468Q14.04 16.388 13.878 15.02Q13.716 13.652 13.932 12.284Q14.076 11.276 14.418 10.322Q14.76 9.368 15.3 8.63Q15.84 7.892 16.542 7.424Q17.244 6.956 18.144 6.956Q18.648 6.956 19.404 7.154Q20.16 7.352 20.808 7.712Q21.276 7.28 21.96 7.568ZM38.322 8.756Q37.584 7.964 36.504 7.568Q35.82 7.28 35.352 7.712Q34.704 7.352 33.948 7.154Q33.192 6.956 32.688 6.956Q31.788 6.956 31.086 7.424Q30.384 7.892 29.844 8.63Q29.304 9.368 28.962 10.322Q28.62 11.276 28.476 12.284Q28.26 13.652 28.422 15.02Q28.584 16.388 29.16 17.468Q29.736 18.548 30.744 19.232Q31.752 19.916 33.228 19.916Q34.452 19.916 35.46 19.448Q36.468 18.98 37.26 18.224Q38.052 17.468 38.664 16.496Q39.276 15.524 39.672 14.516Q39.96 13.616 39.906 12.572Q39.852 11.528 39.456 10.538Q39.06 9.548 38.322 8.756ZM92.952 12.95Q94.572 12.5 95.976 11.672Q96.588 11.276 96.714 10.772Q96.84 10.268 96.552 9.584Q96.048 8.36 94.788 7.676Q93.528 6.992 91.98 7.1Q90.684 7.172 89.712 7.676Q88.74 8.18 88.092 8.954Q87.444 9.728 87.138 10.736Q86.832 11.744 86.94 12.86Q87.048 14.048 87.48 15.164Q87.912 16.28 88.74 17.108Q89.712 18.044 90.936 18.368Q92.16 18.692 93.312 18.476Q94.644 18.26 95.724 17.45Q96.804 16.64 97.38 15.488Q97.524 14.588 97.02 14.408Q96.84 14.336 96.48 14.426Q96.12 14.516 95.796 14.804Q95.472 15.092 95.04 15.38Q94.608 15.668 94.086 15.902Q93.564 16.136 92.97 16.244Q92.376 16.352 91.8 16.28Q90.828 16.136 90.18 15.398Q89.532 14.66 89.46 13.4Q91.332 13.4 92.952 12.95ZM8.028 10.196Q8.316 10.592 8.586 11.186Q8.856 11.78 9 12.392Q9.216 13.364 9.486 14.498Q9.756 15.632 10.026 16.856Q10.296 18.08 10.53 19.34Q10.764 20.6 10.944 21.752Q11.16 23.336 10.71 24.794Q10.26 26.252 9.216 27.404Q8.172 28.556 6.624 29.24Q5.076 29.924 3.132 29.996Q2.7 29.96 2.232 29.582Q1.764 29.204 1.764 28.808Q1.728 28.412 2.142 28.178Q2.556 27.944 2.988 27.872Q3.744 27.8 4.554 27.566Q5.364 27.332 6.084 26.9Q6.804 26.468 7.398 25.856Q7.992 25.244 8.316 24.416Q8.568 23.768 8.568 22.814Q8.568 21.86 8.442 20.924Q8.316 19.988 8.118 19.142Q7.92 18.296 7.776 17.864Q7.524 18.116 7.146 18.404Q6.768 18.692 6.3 18.944Q5.832 19.196 5.274 19.34Q4.716 19.484 4.14 19.448Q3.528 19.412 3.006 19.016Q2.484 18.62 2.088 17.99Q1.692 17.36 1.458 16.532Q1.224 15.704 1.224 14.804Q1.296 12.644 2.322 10.97Q3.348 9.296 5.616 8.36Q5.796 8.324 6.102 8.288Q6.408 8.252 6.732 8.27Q7.056 8.288 7.362 8.36Q7.668 8.432 7.884 8.576Q8.28 8.864 8.28 9.404Q8.28 9.944 8.028 10.196ZM20.592 10.196Q20.196 9.944 19.674 9.53Q19.152 9.116 18.756 9.116Q18.324 9.116 17.91 9.512Q17.496 9.908 17.19 10.43Q16.884 10.952 16.668 11.492Q16.452 12.032 16.38 12.356Q16.272 12.896 16.236 13.652Q16.2 14.408 16.344 15.146Q16.488 15.884 16.902 16.478Q17.316 17.072 18.144 17.324Q18.648 17.468 19.332 17.306Q20.016 17.144 20.682 16.712Q21.348 16.28 21.942 15.56Q22.536 14.84 22.86 13.904Q23.22 12.86 22.878 11.726Q22.536 10.592 21.492 10.088Q21.24 10.268 20.988 10.268Q20.736 10.268 20.592 10.196ZM34.218 9.53Q34.74 9.944 35.136 10.196Q35.28 10.268 35.532 10.268Q35.784 10.268 36.036 10.088Q37.08 10.592 37.422 11.726Q37.764 12.86 37.404 13.904Q37.08 14.84 36.486 15.56Q35.892 16.28 35.226 16.712Q34.56 17.144 33.876 17.306Q33.192 17.468 32.688 17.324Q31.86 17.072 31.446 16.478Q31.032 15.884 30.888 15.146Q30.744 14.408 30.78 13.652Q30.816 12.896 30.924 12.356Q30.996 12.032 31.212 11.492Q31.428 10.952 31.734 10.43Q32.04 9.908 32.454 9.512Q32.868 9.116 33.3 9.116Q33.696 9.116 34.218 9.53ZM91.062 9.476Q91.476 9.296 91.836 9.224Q92.628 9.08 93.402 9.242Q94.176 9.404 94.464 10.088Q94.068 10.34 93.474 10.556Q92.88 10.772 92.178 10.934Q91.476 11.096 90.738 11.204Q90 11.312 89.388 11.312Q89.424 10.88 89.694 10.538Q89.964 10.196 90.306 9.926Q90.648 9.656 91.062 9.476ZM71.19 18.674Q71.172 18.008 70.92 17.432Q70.704 16.964 70.56 16.226Q70.416 15.488 70.308 14.696Q70.2 13.904 70.164 13.112Q70.128 12.32 70.128 11.672Q70.164 10.844 69.768 10.286Q69.372 9.728 68.724 9.692Q68.328 9.764 68.076 10.196Q67.824 10.628 67.788 11.132Q67.788 11.6 67.806 12.536Q67.824 13.472 67.932 14.552Q68.04 15.632 68.256 16.73Q68.472 17.828 68.868 18.584Q69.156 19.196 69.732 19.556Q70.308 19.916 70.812 19.592Q71.208 19.34 71.19 18.674ZM45.216 14.732Q45.432 15.596 46.008 16.064Q46.584 16.532 47.376 16.694Q48.168 16.856 49.068 16.748Q49.968 16.64 50.832 16.352L51.156 16.244L50.148 9.908L49.428 10.088Q48.672 10.304 47.826 10.754Q46.98 11.204 46.332 11.816Q45.684 12.428 45.342 13.184Q45 13.94 45.216 14.732ZM76.86 14.732Q77.076 15.596 77.652 16.064Q78.228 16.532 79.02 16.694Q79.812 16.856 80.712 16.748Q81.612 16.64 82.476 16.352L82.8 16.244L81.792 9.908L81.072 10.088Q80.316 10.304 79.47 10.754Q78.624 11.204 77.976 11.816Q77.328 12.428 76.986 13.184Q76.644 13.94 76.86 14.732ZM3.492 15.128Q3.492 15.524 3.564 16.01Q3.636 16.496 4.032 16.712Q4.464 16.964 5.094 16.784Q5.724 16.604 6.264 16.172Q6.768 15.776 6.93 15.29Q7.092 14.804 6.912 13.976Q6.732 13.148 6.516 12.248Q6.3 11.348 6.228 10.628Q5.796 10.844 5.31 11.24Q4.824 11.636 4.428 12.23Q4.032 12.824 3.762 13.544Q3.492 14.264 3.492 15.128ZM104.724 14.552Q104.256 14.66 103.734 15.002Q103.212 15.344 102.798 15.83Q102.384 16.316 102.186 16.91Q101.988 17.504 102.168 18.08Q102.24 18.296 102.474 18.404Q102.708 18.512 102.996 18.44Q103.86 18.26 104.958 17.738Q106.056 17.216 106.704 16.604Q106.704 16.388 106.488 16.046Q106.272 15.704 105.984 15.362Q105.696 15.02 105.354 14.768Q105.012 14.516 104.724 14.552Z" />
  </g>
  <path d="M7.999 0L124.001 0Q124.197 0 124.393 0.00963514Q124.59 0.0192703 124.785 0.0385174Q124.98 0.0577644 125.175 0.0865771Q125.369 0.11539 125.562 0.153699Q125.754 0.192007 125.945 0.23972Q126.135 0.287433 126.323 0.344434Q126.511 0.401436 126.696 0.467589Q126.881 0.533742 127.062 0.608888Q127.243 0.684033 127.421 0.76799Q127.599 0.851946 127.772 0.944512Q127.945 1.03708 128.113 1.13803Q128.282 1.23898 128.445 1.34807Q128.608 1.45717 128.766 1.57414Q128.924 1.69112 129.076 1.81569Q129.227 1.94026 129.373 2.07213Q129.518 2.204 129.657 2.34285Q129.796 2.4817 129.928 2.6272Q130.06 2.7727 130.184 2.92449Q130.309 3.07628 130.426 3.234Q130.543 3.39172 130.652 3.55499Q130.761 3.71826 130.862 3.88669Q130.963 4.05512 131.055 4.2283Q131.148 4.40148 131.232 4.57899Q131.316 4.7565 131.391 4.93791Q131.466 5.11933 131.532 5.30422Q131.599 5.4891 131.656 5.67701Q131.713 5.86492 131.76 6.0554Q131.808 6.24588 131.846 6.43847Q131.885 6.63106 131.913 6.8253Q131.942 7.01954 131.961 7.21496Q131.981 7.41038 131.99 7.60651Q132 7.80264 132 7.999L132 17.001Q132 17.1974 131.99 17.3935Q131.981 17.5896 131.961 17.785Q131.942 17.9805 131.913 18.1747Q131.885 18.3689 131.846 18.5615Q131.808 18.7541 131.76 18.9446Q131.713 19.1351 131.656 19.323Q131.599 19.5109 131.532 19.6958Q131.466 19.8807 131.391 20.0621Q131.316 20.2435 131.232 20.421Q131.148 20.5985 131.055 20.7717Q130.963 20.9449 130.862 21.1133Q130.761 21.2817 130.652 21.445Q130.543 21.6083 130.426 21.766Q130.309 21.9237 130.184 22.0755Q130.06 22.2273 129.928 22.3728Q129.796 22.5183 129.657 22.6571Q129.518 22.796 129.373 22.9279Q129.227 23.0597 129.076 23.1843Q128.924 23.3089 128.766 23.4259Q128.608 23.5428 128.445 23.6519Q128.282 23.761 128.113 23.862Q127.945 23.9629 127.772 24.0555Q127.599 24.1481 127.421 24.232Q127.243 24.316 127.062 24.3911Q126.881 24.4663 126.696 24.5324Q126.511 24.5986 126.323 24.6556Q126.135 24.7126 125.945 24.7603Q125.754 24.808 125.562 24.8463Q125.369 24.8846 125.175 24.9134Q124.98 24.9422 124.785 24.9615Q124.59 24.9807 124.393 24.9904Q124.197 25 124.001 25L7.999 25Q7.80264 25 7.60651 24.9904Q7.41038 24.9807 7.21496 24.9615Q7.01954 24.9422 6.8253 24.9134Q6.63106 24.8846 6.43847 24.8463Q6.24588 24.808 6.0554 24.7603Q5.86492 24.7126 5.67701 24.6556Q5.4891 24.5986 5.30422 24.5324Q5.11933 24.4663 4.93791 24.3911Q4.7565 24.316 4.57899 24.232Q4.40148 24.1481 4.2283 24.0555Q4.05512 23.9629 3.88669 23.862Q3.71826 23.761 3.55499 23.6519Q3.39172 23.5428 3.234 23.4259Q3.07628 23.3089 2.92449 23.1843Q2.7727 23.0597 2.6272 22.9279Q2.4817 22.796 2.34285 22.6571Q2.204 22.5183 2.07213 22.3728Q1.94026 22.2273 1.81569 22.0755Q1.69112 21.9237 1.57414 21.766Q1.45717 21.6083 1.34807 21.445Q1.23898 21.2817 1.13803 21.1133Q1.03708 20.9449 0.944512 20.7717Q0.851946 20.5985 0.76799 20.421Q0.684033 20.2435 0.608888 20.0621Q0.533742 19.8807 0.467589 19.6958Q0.401436 19.5109 0.344434 19.323Q0.287433 19.1351 0.23972 18.9446Q0.192007 18.7541 0.153699 18.5615Q0.11539 18.3689 0.0865771 18.1747Q0.0577644 17.9805 0.0385174 17.785Q0.0192703 17.5896 0.00963514 17.3935Q0 17.1974 0 17.001L0 7.999Q0 7.80264 0.00963514 7.60651Q0.0192703 7.41038 0.0385174 7.21496Q0.0577644 7.01954 0.0865771 6.8253Q0.11539 6.63106 0.153699 6.43847Q0.192007 6.24588 0.23972 6.0554Q0.287433 5.86492 0.344434 5.67701Q0.401436 5.4891 0.467589 5.30422Q0.533742 5.11933 0.608888 4.93791Q0.684033 4.7565 0.76799 4.57899Q0.851946 4.40148 0.944512 4.2283Q1.03708 4.05512 1.13803 3.88669Q1.23898 3.71826 1.34807 3.55499Q1.45717 3.39172 1.57414 3.234Q1.69112 3.07628 1.81569 2.92449Q1.94026 2.7727 2.07213 2.6272Q2.204 2.4817 2.34285 2.34285Q2.4817 2.204 2.6272 2.07213Q2.7727 1.94026 2.92449 1.81569Q3.07628 1.69112 3.234 1.57414Q3.39172 1.45717 3.55499 1.34807Q3.71826 1.23898 3.88669 1.13803Q4.05512 1.03708 4.2283 0.944512Q4.40148 0.851946 4.57899 0.76799Q4.7565 0.684033 4.93791 0.608888Q5.11933 0.533742 5.30422 0.467589Q5.4891 0.401436 5.67701 0.344434Q5.86492 0.287433 6.0554 0.23972Q6.24588 0.192007 6.43847 0.153699Q6.63106 0.11539 6.8253 0.0865771Q7.01954 0.0577644 7.21496 0.0385174Q7.41038 0.0192703 7.60651 0.00963514Q7.80264 0 7.999 0L7.999 0Z" transform="translate(570.5 131.5)" id="Rectangle-9" fill="none" stroke="#686868" stroke-width="3" stroke-dasharray="6 8" />
  <path d="M7.999 0L124.001 0Q124.197 0 124.393 0.00963514Q124.59 0.0192703 124.785 0.0385174Q124.98 0.0577644 125.175 0.0865771Q125.369 0.11539 125.562 0.153699Q125.754 0.192007 125.945 0.23972Q126.135 0.287433 126.323 0.344434Q126.511 0.401436 126.696 0.467589Q126.881 0.533742 127.062 0.608888Q127.243 0.684033 127.421 0.76799Q127.599 0.851946 127.772 0.944512Q127.945 1.03708 128.113 1.13803Q128.282 1.23898 128.445 1.34807Q128.608 1.45717 128.766 1.57414Q128.924 1.69112 129.076 1.81569Q129.227 1.94026 129.373 2.07213Q129.518 2.204 129.657 2.34285Q129.796 2.4817 129.928 2.6272Q130.06 2.7727 130.184 2.92449Q130.309 3.07628 130.426 3.234Q130.543 3.39172 130.652 3.55499Q130.761 3.71826 130.862 3.88669Q130.963 4.05512 131.055 4.2283Q131.148 4.40148 131.232 4.57899Q131.316 4.7565 131.391 4.93791Q131.466 5.11933 131.532 5.30422Q131.599 5.4891 131.656 5.67701Q131.713 5.86492 131.76 6.0554Q131.808 6.24588 131.846 6.43847Q131.885 6.63106 131.913 6.8253Q131.942 7.01954 131.961 7.21496Q131.981 7.41038 131.99 7.60651Q132 7.80264 132 7.999L132 17.001Q132 17.1974 131.99 17.3935Q131.981 17.5896 131.961 17.785Q131.942 17.9805 131.913 18.1747Q131.885 18.3689 131.846 18.5615Q131.808 18.7541 131.76 18.9446Q131.713 19.1351 131.656 19.323Q131.599 19.5109 131.532 19.6958Q131.466 19.8807 131.391 20.0621Q131.316 20.2435 131.232 20.421Q131.148 20.5985 131.055 20.7717Q130.963 20.9449 130.862 21.1133Q130.761 21.2817 130.652 21.445Q130.543 21.6083 130.426 21.766Q130.309 21.9237 130.184 22.0755Q130.06 22.2273 129.928 22.3728Q129.796 22.5183 129.657 22.6571Q129.518 22.796 129.373 22.9279Q129.227 23.0597 129.076 23.1843Q128.924 23.3089 128.766 23.4259Q128.608 23.5428 128.445 23.6519Q128.282 23.761 128.113 23.862Q127.945 23.9629 127.772 24.0555Q127.599 24.1481 127.421 24.232Q127.243 24.316 127.062 24.3911Q126.881 24.4663 126.696 24.5324Q126.511 24.5986 126.323 24.6556Q126.135 24.7126 125.945 24.7603Q125.754 24.808 125.562 24.8463Q125.369 24.8846 125.175 24.9134Q124.98 24.9422 124.785 24.9615Q124.59 24.9807 124.393 24.9904Q124.197 25 124.001 25L7.999 25Q7.80264 25 7.60651 24.9904Q7.41038 24.9807 7.21496 24.9615Q7.01954 24.9422 6.8253 24.9134Q6.63106 24.8846 6.43847 24.8463Q6.24588 24.808 6.0554 24.7603Q5.86492 24.7126 5.67701 24.6556Q5.4891 24.5986 5.30422 24.5324Q5.11933 24.4663 4.93791 24.3911Q4.7565 24.316 4.57899 24.232Q4.40148 24.1481 4.2283 24.0555Q4.05512 23.9629 3.88669 23.862Q3.71826 23.761 3.55499 23.6519Q3.39172 23.5428 3.234 23.4259Q3.07628 23.3089 2.92449 23.1843Q2.7727 23.0597 2.6272 22.9279Q2.4817 22.796 2.34285 22.6571Q2.204 22.5183 2.07213 22.3728Q1.94026 22.2273 1.81569 22.0755Q1.69112 21.9237 1.57414 21.766Q1.45717 21.6083 1.34807 21.445Q1.23898 21.2817 1.13803 21.1133Q1.03708 20.9449 0.944512 20.7717Q0.851946 20.5985 0.76799 20.421Q0.684033 20.2435 0.608888 20.0621Q0.533742 19.8807 0.467589 19.6958Q0.401436 19.5109 0.344434 19.323Q0.287433 19.1351 0.23972 18.9446Q0.192007 18.7541 0.153699 18.5615Q0.11539 18.3689 0.0865771 18.1747Q0.0577644 17.9805 0.0385174 17.785Q0.0192703 17.5896 0.00963514 17.3935Q0 17.1974 0 17.001L0 7.999Q0 7.80264 0.00963514 7.60651Q0.0192703 7.41038 0.0385174 7.21496Q0.0577644 7.01954 0.0865771 6.8253Q0.11539 6.63106 0.153699 6.43847Q0.192007 6.24588 0.23972 6.0554Q0.287433 5.86492 0.344434 5.67701Q0.401436 5.4891 0.467589 5.30422Q0.533742 5.11933 0.608888 4.93791Q0.684033 4.7565 0.76799 4.57899Q0.851946 4.40148 0.944512 4.2283Q1.03708 4.05512 1.13803 3.88669Q1.23898 3.71826 1.34807 3.55499Q1.45717 3.39172 1.57414 3.234Q1.69112 3.07628 1.81569 2.92449Q1.94026 2.7727 2.07213 2.6272Q2.204 2.4817 2.34285 2.34285Q2.4817 2.204 2.6272 2.07213Q2.7727 1.94026 2.92449 1.81569Q3.07628 1.69112 3.234 1.57414Q3.39172 1.45717 3.55499 1.34807Q3.71826 1.23898 3.88669 1.13803Q4.05512 1.03708 4.2283 0.944512Q4.40148 0.851946 4.57899 0.76799Q4.7565 0.684033 4.93791 0.608888Q5.11933 0.533742 5.30422 0.467589Q5.4891 0.401436 5.67701 0.344434Q5.86492 0.287433 6.0554 0.23972Q6.24588 0.192007 6.43847 0.153699Q6.63106 0.11539 6.8253 0.0865771Q7.01954 0.0577644 7.21496 0.0385174Q7.41038 0.0192703 7.60651 0.00963514Q7.80264 0 7.999 0L7.999 0Z" transform="translate(573.5 319.5)" id="Rectangle-12" fill="none" stroke="#686868" stroke-width="3" stroke-dasharray="6 8" />
  <path d="M7.999 0L217.001 0Q217.197 0 217.393 0.00963514Q217.59 0.0192703 217.785 0.0385174Q217.98 0.0577644 218.175 0.0865771Q218.369 0.11539 218.562 0.153699Q218.754 0.192007 218.945 0.23972Q219.135 0.287433 219.323 0.344434Q219.511 0.401436 219.696 0.467589Q219.881 0.533742 220.062 0.608888Q220.243 0.684033 220.421 0.76799Q220.599 0.851946 220.772 0.944512Q220.945 1.03708 221.113 1.13803Q221.282 1.23898 221.445 1.34807Q221.608 1.45717 221.766 1.57414Q221.924 1.69112 222.076 1.81569Q222.227 1.94026 222.373 2.07213Q222.518 2.204 222.657 2.34285Q222.796 2.4817 222.928 2.6272Q223.06 2.7727 223.184 2.92449Q223.309 3.07628 223.426 3.234Q223.543 3.39172 223.652 3.55499Q223.761 3.71826 223.862 3.88669Q223.963 4.05512 224.055 4.2283Q224.148 4.40148 224.232 4.57899Q224.316 4.7565 224.391 4.93791Q224.466 5.11933 224.532 5.30422Q224.599 5.4891 224.656 5.67701Q224.713 5.86492 224.76 6.0554Q224.808 6.24588 224.846 6.43847Q224.885 6.63106 224.913 6.8253Q224.942 7.01954 224.962 7.21496Q224.981 7.41038 224.99 7.60651Q225 7.80264 225 7.999L225 399.001Q225 399.197 224.99 399.393Q224.981 399.59 224.962 399.785Q224.942 399.98 224.913 400.175Q224.885 400.369 224.846 400.561Q224.808 400.754 224.76 400.945Q224.713 401.135 224.656 401.323Q224.599 401.511 224.532 401.696Q224.466 401.881 224.391 402.062Q224.316 402.243 224.232 402.421Q224.148 402.599 224.055 402.772Q223.963 402.945 223.862 403.113Q223.761 403.282 223.652 403.445Q223.543 403.608 223.426 403.766Q223.309 403.924 223.184 404.076Q223.06 404.227 222.928 404.373Q222.796 404.518 222.657 404.657Q222.518 404.796 222.373 404.928Q222.227 405.06 222.076 405.184Q221.924 405.309 221.766 405.426Q221.608 405.543 221.445 405.652Q221.282 405.761 221.113 405.862Q220.945 405.963 220.772 406.055Q220.599 406.148 220.421 406.232Q220.243 406.316 220.062 406.391Q219.881 406.466 219.696 406.532Q219.511 406.599 219.323 406.656Q219.135 406.713 218.945 406.76Q218.754 406.808 218.561 406.846Q218.369 406.885 218.175 406.913Q217.98 406.942 217.785 406.961Q217.59 406.981 217.393 406.99Q217.197 407 217.001 407L7.999 407Q7.80264 407 7.60651 406.99Q7.41038 406.981 7.21496 406.961Q7.01954 406.942 6.8253 406.913Q6.63106 406.885 6.43847 406.846Q6.24588 406.808 6.0554 406.76Q5.86492 406.713 5.67701 406.656Q5.4891 406.599 5.30422 406.532Q5.11933 406.466 4.93791 406.391Q4.7565 406.316 4.57899 406.232Q4.40148 406.148 4.2283 406.055Q4.05512 405.963 3.88669 405.862Q3.71826 405.761 3.55499 405.652Q3.39172 405.543 3.234 405.426Q3.07628 405.309 2.92449 405.184Q2.7727 405.06 2.6272 404.928Q2.4817 404.796 2.34285 404.657Q2.204 404.518 2.07213 404.373Q1.94026 404.227 1.81569 404.076Q1.69112 403.924 1.57414 403.766Q1.45717 403.608 1.34807 403.445Q1.23898 403.282 1.13803 403.113Q1.03708 402.945 0.944512 402.772Q0.851946 402.599 0.76799 402.421Q0.684033 402.243 0.608888 402.062Q0.533742 401.881 0.467589 401.696Q0.401436 401.511 0.344434 401.323Q0.287433 401.135 0.23972 400.945Q0.192007 400.754 0.153699 400.561Q0.11539 400.369 0.0865771 400.175Q0.0577644 399.98 0.0385174 399.785Q0.0192703 399.59 0.00963514 399.393Q0 399.197 0 399.001L0 7.999Q0 7.80264 0.00963514 7.60651Q0.0192703 7.41038 0.0385174 7.21496Q0.0577644 7.01954 0.0865771 6.8253Q0.11539 6.63106 0.153699 6.43847Q0.192007 6.24588 0.23972 6.0554Q0.287433 5.86492 0.344434 5.67701Q0.401436 5.4891 0.467589 5.30422Q0.533742 5.11933 0.608888 4.93791Q0.684033 4.7565 0.76799 4.57899Q0.851946 4.40148 0.944512 4.2283Q1.03708 4.05512 1.13803 3.88669Q1.23898 3.71826 1.34807 3.55499Q1.45717 3.39172 1.57414 3.234Q1.69112 3.07628 1.81569 2.92449Q1.94026 2.7727 2.07213 2.6272Q2.204 2.4817 2.34285 2.34285Q2.4817 2.204 2.6272 2.07213Q2.7727 1.94026 2.92449 1.81569Q3.07628 1.69112 3.234 1.57414Q3.39172 1.45717 3.55499 1.34807Q3.71826 1.23898 3.88669 1.13803Q4.05512 1.03708 4.2283 0.944512Q4.40148 0.851946 4.57899 0.76799Q4.7565 0.684033 4.93791 0.608888Q5.11933 0.533742 5.30422 0.467589Q5.4891 0.401436 5.67701 0.344434Q5.86492 0.287433 6.0554 0.23972Q6.24588 0.192007 6.43847 0.153699Q6.63106 0.11539 6.8253 0.0865771Q7.01954 0.0577644 7.21496 0.0385174Q7.41038 0.0192703 7.60651 0.00963514Q7.80264 0 7.999 0Z" transform="translate(525.5 457.5)" id="Rectangle-13" fill="none" stroke="#2C2C2C" stroke-width="3" stroke-dasharray="6 8" />
  <g id="archive" transform="translate(594.5 481.5)">
    <path d="M42.876 4.184Q42.876 5.048 42.858 6.128Q42.84 7.208 42.858 8.36Q42.876 9.512 42.894 10.736Q42.912 11.96 42.948 13.076Q43.308 12.356 43.812 11.654Q44.316 10.952 44.946 10.412Q45.576 9.872 46.278 9.548Q46.98 9.224 47.808 9.224Q48.708 9.224 49.41 9.8Q50.112 10.376 50.634 11.33Q51.156 12.284 51.516 13.454Q51.876 14.624 52.11 15.83Q52.344 17.036 52.452 18.134Q52.56 19.232 52.632 20.024Q52.632 20.6 52.344 20.96Q52.056 21.32 51.66 21.32Q51.372 21.32 50.958 20.942Q50.544 20.564 50.364 20.024Q50.256 19.592 50.148 18.764Q50.04 17.936 49.896 16.982Q49.752 16.028 49.536 15.056Q49.32 14.084 49.014 13.31Q48.708 12.536 48.276 12.104Q47.844 11.672 47.268 11.78Q46.368 11.96 45.702 13.04Q45.036 14.12 44.55 15.488Q44.064 16.856 43.758 18.26Q43.452 19.664 43.308 20.528Q43.164 21.176 42.93 21.41Q42.696 21.644 42.408 21.644Q42.12 21.644 41.886 21.356Q41.652 21.068 41.454 20.654Q41.256 20.24 41.112 19.79Q40.968 19.34 40.932 19.016Q40.752 17.072 40.644 15.29Q40.536 13.508 40.482 11.708Q40.428 9.908 40.428 8.018Q40.428 6.128 40.5 3.968Q40.5 2.82243 41.0249 2.47884Q41.3248 2.28256 41.796 2.348Q42.228 2.42 42.552 2.978Q42.876 3.536 42.876 4.184ZM60.768 5.84Q61.2 5.804 61.272 5.444Q61.344 4.94 61.002 4.58Q60.66 4.22 60.084 4.04Q59.688 3.932 59.076 3.914Q58.464 3.896 57.798 3.968Q57.132 4.04 56.484 4.202Q55.836 4.364 55.368 4.58Q55.08 4.724 54.864 4.904Q54.648 5.084 54.648 5.372Q54.756 6.128 55.26 6.38Q55.764 6.632 56.196 6.488Q57.24 6.2 58.194 6.056Q59.148 5.912 60.048 5.876Q60.336 5.876 60.768 5.84ZM10.476 6.812Q10.62 7.82 10.71 8.954Q10.8 10.088 10.854 11.24Q10.908 12.392 10.908 13.472Q10.908 14.552 10.872 15.416Q12.024 16.208 12.258 16.82Q12.492 17.432 12.312 17.9Q12.096 18.548 11.538 18.566Q10.98 18.584 10.26 18.188Q9.756 18.548 9.108 18.962Q8.46 19.376 7.74 19.754Q7.02 20.132 6.3 20.42Q5.58 20.708 4.968 20.816Q3.816 20.996 2.898 20.384Q1.98 19.772 1.656 18.548Q1.44 17.72 1.548 16.838Q1.656 15.956 2.088 15.146Q2.52 14.336 3.258 13.688Q3.996 13.04 5.004 12.68Q5.256 12.572 5.706 12.5Q6.156 12.428 6.642 12.446Q7.128 12.464 7.632 12.644Q8.136 12.824 8.568 13.256Q8.568 12.644 8.55 11.906Q8.532 11.168 8.496 10.412Q8.46 9.656 8.406 8.99Q8.352 8.324 8.28 7.856Q8.208 7.316 7.866 7.19Q7.524 7.064 7.02 7.244Q6.156 7.532 5.004 8.36Q3.852 9.188 2.808 10.124Q2.484 10.448 2.07 10.412Q1.656 10.376 1.368 10.088Q1.08 9.8 1.044 9.422Q1.008 9.044 1.332 8.612Q1.944 7.964 2.7 7.28Q3.456 6.596 4.284 6.038Q5.112 5.48 5.976 5.12Q6.84 4.76 7.704 4.724Q8.964 4.688 9.648 5.282Q10.332 5.876 10.476 6.812ZM76.068 7.064Q75.492 8.036 74.916 8.972Q74.34 9.908 73.674 11.114Q73.008 12.32 72.144 13.904Q71.28 15.488 70.128 17.756Q69.84 18.296 69.552 18.62Q69.264 18.944 68.868 18.944Q68.328 18.944 68.022 18.638Q67.716 18.332 67.5 17.972Q66.312 15.992 65.16 13.58Q64.008 11.168 63.288 8.864Q63.216 8.684 63.306 8.45Q63.396 8.216 63.576 8.144Q63.936 7.964 64.512 8.108Q64.944 8.288 65.376 8.756Q65.808 9.224 66.06 9.728Q66.276 10.232 66.564 10.88Q66.852 11.528 67.194 12.266Q67.536 13.004 67.896 13.724Q68.256 14.444 68.616 15.02Q69.228 13.94 69.93 12.698Q70.632 11.456 71.352 10.178Q72.072 8.9 72.81 7.712Q73.548 6.524 74.268 5.588Q74.448 5.336 74.772 5.3Q75.096 5.264 75.492 5.552Q76.392 6.236 76.068 7.064ZM25.164 7.712Q24.516 8.072 23.814 8.468Q23.112 8.864 22.41 9.386Q21.708 9.908 21.078 10.61Q20.448 11.312 19.944 12.284Q19.224 13.652 18.972 15.074Q18.72 16.496 18.648 17.864Q18.648 18.512 18.342 19.178Q18.036 19.844 17.496 19.844Q16.812 19.844 16.398 19.142Q15.984 18.44 15.84 17.792Q15.228 15.236 14.832 12.734Q14.436 10.232 14.148 7.748Q14.148 7.244 14.454 7.1Q14.76 6.956 15.156 6.992Q15.588 7.028 15.984 7.208Q16.38 7.388 16.452 7.784Q16.596 9.116 16.812 10.574Q17.028 12.032 17.244 13.076Q17.388 11.852 18.036 10.7Q18.684 9.548 19.638 8.612Q20.592 7.676 21.798 7.028Q23.004 6.38 24.264 6.164Q24.804 6.092 25.164 6.164Q25.524 6.236 25.668 6.416Q25.812 6.596 25.722 6.992Q25.632 7.388 25.164 7.712ZM84.168 12.95Q85.788 12.5 87.192 11.672Q87.804 11.276 87.93 10.772Q88.056 10.268 87.768 9.584Q87.264 8.36 86.004 7.676Q84.744 6.992 83.196 7.1Q81.9 7.172 80.928 7.676Q79.956 8.18 79.308 8.954Q78.66 9.728 78.354 10.736Q78.048 11.744 78.156 12.86Q78.264 14.048 78.696 15.164Q79.128 16.28 79.956 17.108Q80.928 18.044 82.152 18.368Q83.376 18.692 84.528 18.476Q85.86 18.26 86.94 17.45Q88.02 16.64 88.596 15.488Q88.74 14.588 88.236 14.408Q88.056 14.336 87.696 14.426Q87.336 14.516 87.012 14.804Q86.688 15.092 86.256 15.38Q85.824 15.668 85.302 15.902Q84.78 16.136 84.186 16.244Q83.592 16.352 83.016 16.28Q82.044 16.136 81.396 15.398Q80.748 14.66 80.676 13.4Q82.548 13.4 84.168 12.95ZM34.992 10.97Q35.352 11.024 35.604 10.88Q35.928 10.7 36 10.394Q36.072 10.088 36 9.8Q35.604 8.504 34.38 8.018Q33.156 7.532 31.824 7.748Q30.996 7.892 30.312 8.306Q29.628 8.72 29.07 9.296Q28.512 9.872 28.116 10.574Q27.72 11.276 27.504 11.96Q26.964 13.796 27.252 15.524Q27.54 17.252 28.908 18.188Q29.772 18.728 30.762 18.872Q31.752 19.016 32.76 18.854Q33.768 18.692 34.758 18.314Q35.748 17.936 36.648 17.432Q37.548 16.964 38.088 16.37Q38.628 15.776 38.268 15.2Q37.98 14.732 37.548 14.768Q37.116 14.804 36.612 15.02Q35.46 15.74 34.146 16.19Q32.832 16.64 31.788 16.604Q30.492 16.604 29.88 15.74Q29.268 14.876 29.448 13.616Q29.556 12.932 29.844 12.248Q30.132 11.564 30.582 11.006Q31.032 10.448 31.626 10.106Q32.22 9.764 32.976 9.764Q33.804 9.764 34.38 10.52Q34.632 10.916 34.992 10.97ZM82.278 9.476Q82.692 9.296 83.052 9.224Q83.844 9.08 84.618 9.242Q85.392 9.404 85.68 10.088Q85.284 10.34 84.69 10.556Q84.096 10.772 83.394 10.934Q82.692 11.096 81.954 11.204Q81.216 11.312 80.604 11.312Q80.64 10.88 80.91 10.538Q81.18 10.196 81.522 9.926Q81.864 9.656 82.278 9.476ZM60.714 18.674Q60.696 18.008 60.444 17.432Q60.228 16.964 60.084 16.226Q59.94 15.488 59.832 14.696Q59.724 13.904 59.688 13.112Q59.652 12.32 59.652 11.672Q59.688 10.844 59.292 10.286Q58.896 9.728 58.248 9.692Q57.852 9.764 57.6 10.196Q57.348 10.628 57.312 11.132Q57.312 11.6 57.33 12.536Q57.348 13.472 57.456 14.552Q57.564 15.632 57.78 16.73Q57.996 17.828 58.392 18.584Q58.68 19.196 59.256 19.556Q59.832 19.916 60.336 19.592Q60.732 19.34 60.714 18.674ZM6.3 14.552Q5.832 14.66 5.31 15.002Q4.788 15.344 4.374 15.83Q3.96 16.316 3.762 16.91Q3.564 17.504 3.744 18.08Q3.816 18.296 4.05 18.404Q4.284 18.512 4.572 18.44Q5.436 18.26 6.534 17.738Q7.632 17.216 8.28 16.604Q8.28 16.388 8.064 16.046Q7.848 15.704 7.56 15.362Q7.272 15.02 6.93 14.768Q6.588 14.516 6.3 14.552Z" />
  </g>
  <path d="M7.999 0L124.001 0Q124.197 0 124.393 0.00963514Q124.59 0.0192703 124.785 0.0385174Q124.98 0.0577644 125.175 0.0865771Q125.369 0.11539 125.562 0.153699Q125.754 0.192007 125.945 0.23972Q126.135 0.287433 126.323 0.344434Q126.511 0.401436 126.696 0.467589Q126.881 0.533742 127.062 0.608888Q127.243 0.684033 127.421 0.76799Q127.599 0.851946 127.772 0.944512Q127.945 1.03708 128.113 1.13803Q128.282 1.23898 128.445 1.34807Q128.608 1.45717 128.766 1.57414Q128.924 1.69112 129.076 1.81569Q129.227 1.94026 129.373 2.07213Q129.518 2.204 129.657 2.34285Q129.796 2.4817 129.928 2.6272Q130.06 2.7727 130.184 2.92449Q130.309 3.07628 130.426 3.234Q130.543 3.39172 130.652 3.55499Q130.761 3.71826 130.862 3.88669Q130.963 4.05512 131.055 4.2283Q131.148 4.40148 131.232 4.57899Q131.316 4.7565 131.391 4.93791Q131.466 5.11933 131.532 5.30422Q131.599 5.4891 131.656 5.67701Q131.713 5.86492 131.76 6.0554Q131.808 6.24588 131.846 6.43847Q131.885 6.63106 131.913 6.8253Q131.942 7.01954 131.961 7.21496Q131.981 7.41038 131.99 7.60651Q132 7.80264 132 7.999L132 17.001Q132 17.1974 131.99 17.3935Q131.981 17.5896 131.961 17.785Q131.942 17.9805 131.913 18.1747Q131.885 18.3689 131.846 18.5615Q131.808 18.7541 131.76 18.9446Q131.713 19.1351 131.656 19.323Q131.599 19.5109 131.532 19.6958Q131.466 19.8807 131.391 20.0621Q131.316 20.2435 131.232 20.421Q131.148 20.5985 131.055 20.7717Q130.963 20.9449 130.862 21.1133Q130.761 21.2817 130.652 21.445Q130.543 21.6083 130.426 21.766Q130.309 21.9237 130.184 22.0755Q130.06 22.2273 129.928 22.3728Q129.796 22.5183 129.657 22.6571Q129.518 22.796 129.373 22.9279Q129.227 23.0597 129.076 23.1843Q128.924 23.3089 128.766 23.4259Q128.608 23.5428 128.445 23.6519Q128.282 23.761 128.113 23.862Q127.945 23.9629 127.772 24.0555Q127.599 24.1481 127.421 24.232Q127.243 24.316 127.062 24.3911Q126.881 24.4663 126.696 24.5324Q126.511 24.5986 126.323 24.6556Q126.135 24.7126 125.945 24.7603Q125.754 24.808 125.562 24.8463Q125.369 24.8846 125.175 24.9134Q124.98 24.9422 124.785 24.9615Q124.59 24.9807 124.393 24.9904Q124.197 25 124.001 25L7.999 25Q7.80264 25 7.60651 24.9904Q7.41038 24.9807 7.21496 24.9615Q7.01954 24.9422 6.8253 24.9134Q6.63106 24.8846 6.43847 24.8463Q6.24588 24.808 6.0554 24.7603Q5.86492 24.7126 5.67701 24.6556Q5.4891 24.5986 5.30422 24.5324Q5.11933 24.4663 4.93791 24.3911Q4.7565 24.316 4.57899 24.232Q4.40148 24.1481 4.2283 24.0555Q4.05512 23.9629 3.88669 23.862Q3.71826 23.761 3.55499 23.6519Q3.39172 23.5428 3.234 23.4259Q3.07628 23.3089 2.92449 23.1843Q2.7727 23.0597 2.6272 22.9279Q2.4817 22.796 2.34285 22.6571Q2.204 22.5183 2.07213 22.3728Q1.94026 22.2273 1.81569 22.0755Q1.69112 21.9237 1.57414 21.766Q1.45717 21.6083 1.34807 21.445Q1.23898 21.2817 1.13803 21.1133Q1.03708 20.9449 0.944512 20.7717Q0.851946 20.5985 0.76799 20.421Q0.684033 20.2435 0.608888 20.0621Q0.533742 19.8807 0.467589 19.6958Q0.401436 19.5109 0.344434 19.323Q0.287433 19.1351 0.23972 18.9446Q0.192007 18.7541 0.153699 18.5615Q0.11539 18.3689 0.0865771 18.1747Q0.0577644 17.9805 0.0385174 17.785Q0.0192703 17.5896 0.00963514 17.3935Q0 17.1974 0 17.001L0 7.999Q0 7.80264 0.00963514 7.60651Q0.0192703 7.41038 0.0385174 7.21496Q0.0577644 7.01954 0.0865771 6.8253Q0.11539 6.63106 0.153699 6.43847Q0.192007 6.24588 0.23972 6.0554Q0.287433 5.86492 0.344434 5.67701Q0.401436 5.4891 0.467589 5.30422Q0.533742 5.11933 0.608888 4.93791Q0.684033 4.7565 0.76799 4.57899Q0.851946 4.40148 0.944512 4.2283Q1.03708 4.05512 1.13803 3.88669Q1.23898 3.71826 1.34807 3.55499Q1.45717 3.39172 1.57414 3.234Q1.69112 3.07628 1.81569 2.92449Q1.94026 2.7727 2.07213 2.6272Q2.204 2.4817 2.34285 2.34285Q2.4817 2.204 2.6272 2.07213Q2.7727 1.94026 2.92449 1.81569Q3.07628 1.69112 3.234 1.57414Q3.39172 1.45717 3.55499 1.34807Q3.71826 1.23898 3.88669 1.13803Q4.05512 1.03708 4.2283 0.944512Q4.40148 0.851946 4.57899 0.76799Q4.7565 0.684033 4.93791 0.608888Q5.11933 0.533742 5.30422 0.467589Q5.4891 0.401436 5.67701 0.344434Q5.86492 0.287433 6.0554 0.23972Q6.24588 0.192007 6.43847 0.153699Q6.63106 0.11539 6.8253 0.0865771Q7.01954 0.0577644 7.21496 0.0385174Q7.41038 0.0192703 7.60651 0.00963514Q7.80264 0 7.999 0L7.999 0Z" transform="translate(567.5 531.5)" id="Rectangle-14" fill="none" stroke="#686868" stroke-width="3" stroke-dasharray="6 8" />
  <path d="M7.999 0L124.001 0Q124.197 0 124.393 0.00963514Q124.59 0.0192703 124.785 0.0385174Q124.98 0.0577644 125.175 0.0865771Q125.369 0.11539 125.562 0.153699Q125.754 0.192007 125.945 0.23972Q126.135 0.287433 126.323 0.344434Q126.511 0.401436 126.696 0.467589Q126.881 0.533742 127.062 0.608888Q127.243 0.684033 127.421 0.76799Q127.599 0.851946 127.772 0.944512Q127.945 1.03708 128.113 1.13803Q128.282 1.23898 128.445 1.34807Q128.608 1.45717 128.766 1.57414Q128.924 1.69112 129.076 1.81569Q129.227 1.94026 129.373 2.07213Q129.518 2.204 129.657 2.34285Q129.796 2.4817 129.928 2.6272Q130.06 2.7727 130.184 2.92449Q130.309 3.07628 130.426 3.234Q130.543 3.39172 130.652 3.55499Q130.761 3.71826 130.862 3.88669Q130.963 4.05512 131.055 4.2283Q131.148 4.40148 131.232 4.57899Q131.316 4.7565 131.391 4.93791Q131.466 5.11933 131.532 5.30422Q131.599 5.4891 131.656 5.67701Q131.713 5.86492 131.76 6.0554Q131.808 6.24588 131.846 6.43847Q131.885 6.63106 131.913 6.8253Q131.942 7.01954 131.961 7.21496Q131.981 7.41038 131.99 7.60651Q132 7.80264 132 7.999L132 17.001Q132 17.1974 131.99 17.3935Q131.981 17.5896 131.961 17.785Q131.942 17.9805 131.913 18.1747Q131.885 18.3689 131.846 18.5615Q131.808 18.7541 131.76 18.9446Q131.713 19.1351 131.656 19.323Q131.599 19.5109 131.532 19.6958Q131.466 19.8807 131.391 20.0621Q131.316 20.2435 131.232 20.421Q131.148 20.5985 131.055 20.7717Q130.963 20.9449 130.862 21.1133Q130.761 21.2817 130.652 21.445Q130.543 21.6083 130.426 21.766Q130.309 21.9237 130.184 22.0755Q130.06 22.2273 129.928 22.3728Q129.796 22.5183 129.657 22.6571Q129.518 22.796 129.373 22.9279Q129.227 23.0597 129.076 23.1843Q128.924 23.3089 128.766 23.4259Q128.608 23.5428 128.445 23.6519Q128.282 23.761 128.113 23.862Q127.945 23.9629 127.772 24.0555Q127.599 24.1481 127.421 24.232Q127.243 24.316 127.062 24.3911Q126.881 24.4663 126.696 24.5324Q126.511 24.5986 126.323 24.6556Q126.135 24.7126 125.945 24.7603Q125.754 24.808 125.562 24.8463Q125.369 24.8846 125.175 24.9134Q124.98 24.9422 124.785 24.9615Q124.59 24.9807 124.393 24.9904Q124.197 25 124.001 25L7.999 25Q7.80264 25 7.60651 24.9904Q7.41038 24.9807 7.21496 24.9615Q7.01954 24.9422 6.8253 24.9134Q6.63106 24.8846 6.43847 24.8463Q6.24588 24.808 6.0554 24.7603Q5.86492 24.7126 5.67701 24.6556Q5.4891 24.5986 5.30422 24.5324Q5.11933 24.4663 4.93791 24.3911Q4.7565 24.316 4.57899 24.232Q4.40148 24.1481 4.2283 24.0555Q4.05512 23.9629 3.88669 23.862Q3.71826 23.761 3.55499 23.6519Q3.39172 23.5428 3.234 23.4259Q3.07628 23.3089 2.92449 23.1843Q2.7727 23.0597 2.6272 22.9279Q2.4817 22.796 2.34285 22.6571Q2.204 22.5183 2.07213 22.3728Q1.94026 22.2273 1.81569 22.0755Q1.69112 21.9237 1.57414 21.766Q1.45717 21.6083 1.34807 21.445Q1.23898 21.2817 1.13803 21.1133Q1.03708 20.9449 0.944512 20.7717Q0.851946 20.5985 0.76799 20.421Q0.684033 20.2435 0.608888 20.0621Q0.533742 19.8807 0.467589 19.6958Q0.401436 19.5109 0.344434 19.323Q0.287433 19.1351 0.23972 18.9446Q0.192007 18.7541 0.153699 18.5615Q0.11539 18.3689 0.0865771 18.1747Q0.0577644 17.9805 0.0385174 17.785Q0.0192703 17.5896 0.00963514 17.3935Q0 17.1974 0 17.001L0 7.999Q0 7.80264 0.00963514 7.60651Q0.0192703 7.41038 0.0385174 7.21496Q0.0577644 7.01954 0.0865771 6.8253Q0.11539 6.63106 0.153699 6.43847Q0.192007 6.24588 0.23972 6.0554Q0.287433 5.86492 0.344434 5.67701Q0.401436 5.4891 0.467589 5.30422Q0.533742 5.11933 0.608888 4.93791Q0.684033 4.7565 0.76799 4.57899Q0.851946 4.40148 0.944512 4.2283Q1.03708 4.05512 1.13803 3.88669Q1.23898 3.71826 1.34807 3.55499Q1.45717 3.39172 1.57414 3.234Q1.69112 3.07628 1.81569 2.92449Q1.94026 2.7727 2.07213 2.6272Q2.204 2.4817 2.34285 2.34285Q2.4817 2.204 2.6272 2.07213Q2.7727 1.94026 2.92449 1.81569Q3.07628 1.69112 3.234 1.57414Q3.39172 1.45717 3.55499 1.34807Q3.71826 1.23898 3.88669 1.13803Q4.05512 1.03708 4.2283 0.944512Q4.40148 0.851946 4.57899 0.76799Q4.7565 0.684033 4.93791 0.608888Q5.11933 0.533742 5.30422 0.467589Q5.4891 0.401436 5.67701 0.344434Q5.86492 0.287433 6.0554 0.23972Q6.24588 0.192007 6.43847 0.153699Q6.63106 0.11539 6.8253 0.0865771Q7.01954 0.0577644 7.21496 0.0385174Q7.41038 0.0192703 7.60651 0.00963514Q7.80264 0 7.999 0L7.999 0Z" transform="translate(571.5 648.5)" id="Rectangle-16" fill="none" stroke="#686868" stroke-width="3" stroke-dasharray="6 8" />
  <path d="M7.999 0L124.001 0Q124.197 0 124.393 0.00963514Q124.59 0.0192703 124.785 0.0385174Q124.98 0.0577644 125.175 0.0865771Q125.369 0.11539 125.562 0.153699Q125.754 0.192007 125.945 0.23972Q126.135 0.287433 126.323 0.344434Q126.511 0.401436 126.696 0.467589Q126.881 0.533742 127.062 0.608888Q127.243 0.684033 127.421 0.76799Q127.599 0.851946 127.772 0.944512Q127.945 1.03708 128.113 1.13803Q128.282 1.23898 128.445 1.34807Q128.608 1.45717 128.766 1.57414Q128.924 1.69112 129.076 1.81569Q129.227 1.94026 129.373 2.07213Q129.518 2.204 129.657 2.34285Q129.796 2.4817 129.928 2.6272Q130.06 2.7727 130.184 2.92449Q130.309 3.07628 130.426 3.234Q130.543 3.39172 130.652 3.55499Q130.761 3.71826 130.862 3.88669Q130.963 4.05512 131.055 4.2283Q131.148 4.40148 131.232 4.57899Q131.316 4.7565 131.391 4.93791Q131.466 5.11933 131.532 5.30422Q131.599 5.4891 131.656 5.67701Q131.713 5.86492 131.76 6.0554Q131.808 6.24588 131.846 6.43847Q131.885 6.63106 131.913 6.8253Q131.942 7.01954 131.961 7.21496Q131.981 7.41038 131.99 7.60651Q132 7.80264 132 7.999L132 17.001Q132 17.1974 131.99 17.3935Q131.981 17.5896 131.961 17.785Q131.942 17.9805 131.913 18.1747Q131.885 18.3689 131.846 18.5615Q131.808 18.7541 131.76 18.9446Q131.713 19.1351 131.656 19.323Q131.599 19.5109 131.532 19.6958Q131.466 19.8807 131.391 20.0621Q131.316 20.2435 131.232 20.421Q131.148 20.5985 131.055 20.7717Q130.963 20.9449 130.862 21.1133Q130.761 21.2817 130.652 21.445Q130.543 21.6083 130.426 21.766Q130.309 21.9237 130.184 22.0755Q130.06 22.2273 129.928 22.3728Q129.796 22.5183 129.657 22.6571Q129.518 22.796 129.373 22.9279Q129.227 23.0597 129.076 23.1843Q128.924 23.3089 128.766 23.4259Q128.608 23.5428 128.445 23.6519Q128.282 23.761 128.113 23.862Q127.945 23.9629 127.772 24.0555Q127.599 24.1481 127.421 24.232Q127.243 24.316 127.062 24.3911Q126.881 24.4663 126.696 24.5324Q126.511 24.5986 126.323 24.6556Q126.135 24.7126 125.945 24.7603Q125.754 24.808 125.562 24.8463Q125.369 24.8846 125.175 24.9134Q124.98 24.9422 124.785 24.9615Q124.59 24.9807 124.393 24.9904Q124.197 25 124.001 25L7.999 25Q7.80264 25 7.60651 24.9904Q7.41038 24.9807 7.21496 24.9615Q7.01954 24.9422 6.8253 24.9134Q6.63106 24.8846 6.43847 24.8463Q6.24588 24.808 6.0554 24.7603Q5.86492 24.7126 5.67701 24.6556Q5.4891 24.5986 5.30422 24.5324Q5.11933 24.4663 4.93791 24.3911Q4.7565 24.316 4.57899 24.232Q4.40148 24.1481 4.2283 24.0555Q4.05512 23.9629 3.88669 23.862Q3.71826 23.761 3.55499 23.6519Q3.39172 23.5428 3.234 23.4259Q3.07628 23.3089 2.92449 23.1843Q2.7727 23.0597 2.6272 22.9279Q2.4817 22.796 2.34285 22.6571Q2.204 22.5183 2.07213 22.3728Q1.94026 22.2273 1.81569 22.0755Q1.69112 21.9237 1.57414 21.766Q1.45717 21.6083 1.34807 21.445Q1.23898 21.2817 1.13803 21.1133Q1.03708 20.9449 0.944512 20.7717Q0.851946 20.5985 0.76799 20.421Q0.684033 20.2435 0.608888 20.0621Q0.533742 19.8807 0.467589 19.6958Q0.401436 19.5109 0.344434 19.323Q0.287433 19.1351 0.23972 18.9446Q0.192007 18.7541 0.153699 18.5615Q0.11539 18.3689 0.0865771 18.1747Q0.0577644 17.9805 0.0385174 17.785Q0.0192703 17.5896 0.00963514 17.3935Q0 17.1974 0 17.001L0 7.999Q0 7.80264 0.00963514 7.60651Q0.0192703 7.41038 0.0385174 7.21496Q0.0577644 7.01954 0.0865771 6.8253Q0.11539 6.63106 0.153699 6.43847Q0.192007 6.24588 0.23972 6.0554Q0.287433 5.86492 0.344434 5.67701Q0.401436 5.4891 0.467589 5.30422Q0.533742 5.11933 0.608888 4.93791Q0.684033 4.7565 0.76799 4.57899Q0.851946 4.40148 0.944512 4.2283Q1.03708 4.05512 1.13803 3.88669Q1.23898 3.71826 1.34807 3.55499Q1.45717 3.39172 1.57414 3.234Q1.69112 3.07628 1.81569 2.92449Q1.94026 2.7727 2.07213 2.6272Q2.204 2.4817 2.34285 2.34285Q2.4817 2.204 2.6272 2.07213Q2.7727 1.94026 2.92449 1.81569Q3.07628 1.69112 3.234 1.57414Q3.39172 1.45717 3.55499 1.34807Q3.71826 1.23898 3.88669 1.13803Q4.05512 1.03708 4.2283 0.944512Q4.40148 0.851946 4.57899 0.76799Q4.7565 0.684033 4.93791 0.608888Q5.11933 0.533742 5.30422 0.467589Q5.4891 0.401436 5.67701 0.344434Q5.86492 0.287433 6.0554 0.23972Q6.24588 0.192007 6.43847 0.153699Q6.63106 0.11539 6.8253 0.0865771Q7.01954 0.0577644 7.21496 0.0385174Q7.41038 0.0192703 7.60651 0.00963514Q7.80264 0 7.999 0L7.999 0Z" transform="translate(571.5 709.5)" id="Rectangle-17" fill="none" stroke="#686868" stroke-width="3" stroke-dasharray="6 8" />
  <path d="M0 240L353 0" transform="translate(190.5 155.5)" id="New-shape-9" fill="none" stroke="#808080" stroke-width="2" />
  <path d="M0 9L14.5 16.5L13.51 0.164642L13.5 0" transform="matrix(0.05233601 -0.9986295 0.9986295 0.05233601 538.5109 160.0813)" id="New-shape-10" fill="none" stroke="#808080" stroke-width="2" />
  <path d="M0 234.169L348.186 0" transform="translate(195.5 342.331)" id="New-shape-11" fill="none" stroke="#808080" stroke-width="2" />
  <path d="M0 9L14.5 16.5L13.51 0.164642L13.5 0" transform="matrix(0.06975655 -0.997564 0.997564 0.06975655 538.6176 346.8245)" id="New-shape-12" fill="none" stroke="#808080" stroke-width="2" />
  <path d="M0 0L361.471 186.618" transform="translate(181.9822 349.4199)" id="New-shape-13" fill="none" stroke="#808080" stroke-width="2" />
  <path d="M0 20.3751L14.5039 17.809L5.59912 0.177669L5.50936 0" transform="translate(541.9961 524.1249)" id="New-shape-14" fill="none" stroke="#808080" stroke-width="2" />
  <path d="M0 0L361.471 186.618" transform="translate(185.9821 455.4199)" id="New-shape-15" fill="none" stroke="#808080" stroke-width="2" />
  <path d="M0 20.3751L14.5039 17.809L5.59912 0.177669L5.50936 0" transform="translate(545.996 630.1249)" id="New-shape-16" fill="none" stroke="#808080" stroke-width="2" />
  <path d="M0 0L361.471 186.618" transform="translate(183.9824 521.4199)" id="New-shape-17" fill="none" stroke="#808080" stroke-width="2" />
  <path d="M0 20.3751L14.5039 17.809L5.59912 0.177669L5.50936 0" transform="translate(543.9961 696.1249)" id="New-shape-18" fill="none" stroke="#808080" stroke-width="2" />
</svg>