<?xml version="1.0" encoding="utf-8"?>
<svg width="492px" height="410px" viewBox="0 0 492 410" version="1.1" xmlns:xlink="http://www.w3.org/1999/xlink" xmlns="http://www.w3.org/2000/svg">
  <desc>Created with Lunacy</desc>
  <path d="M7.999 0L217.001 0Q217.197 0 217.393 0.00963514Q217.59 0.0192703 217.785 0.0385174Q217.98 0.0577644 218.175 0.0865771Q218.369 0.11539 218.562 0.153699Q218.754 0.192007 218.945 0.23972Q219.135 0.287433 219.323 0.344434Q219.511 0.401436 219.696 0.467589Q219.881 0.533742 220.062 0.608888Q220.243 0.684033 220.421 0.76799Q220.599 0.851946 220.772 0.944512Q220.945 1.03708 221.113 1.13803Q221.282 1.23898 221.445 1.34807Q221.608 1.45717 221.766 1.57414Q221.924 1.69112 222.076 1.81569Q222.227 1.94026 222.373 2.07213Q222.518 2.204 222.657 2.34285Q222.796 2.4817 222.928 2.6272Q223.06 2.7727 223.184 2.92449Q223.309 3.07628 223.426 3.234Q223.543 3.39172 223.652 3.55499Q223.761 3.71826 223.862 3.88669Q223.963 4.05512 224.055 4.2283Q224.148 4.40148 224.232 4.57899Q224.316 4.7565 224.391 4.93791Q224.466 5.11933 224.532 5.30422Q224.599 5.4891 224.656 5.67701Q224.713 5.86492 224.76 6.0554Q224.808 6.24588 224.846 6.43847Q224.885 6.63106 224.913 6.8253Q224.942 7.01954 224.962 7.21496Q224.981 7.41038 224.99 7.60651Q225 7.80264 225 7.999L225 399.001Q225 399.197 224.99 399.393Q224.981 399.59 224.962 399.785Q224.942 399.98 224.913 400.175Q224.885 400.369 224.846 400.561Q224.808 400.754 224.76 400.945Q224.713 401.135 224.656 401.323Q224.599 401.511 224.532 401.696Q224.466 401.881 224.391 402.062Q224.316 402.243 224.232 402.421Q224.148 402.599 224.055 402.772Q223.963 402.945 223.862 403.113Q223.761 403.282 223.652 403.445Q223.543 403.608 223.426 403.766Q223.309 403.924 223.184 404.076Q223.06 404.227 222.928 404.373Q222.796 404.518 222.657 404.657Q222.518 404.796 222.373 404.928Q222.227 405.06 222.076 405.184Q221.924 405.309 221.766 405.426Q221.608 405.543 221.445 405.652Q221.282 405.761 221.113 405.862Q220.945 405.963 220.772 406.055Q220.599 406.148 220.421 406.232Q220.243 406.316 220.062 406.391Q219.881 406.466 219.696 406.532Q219.511 406.599 219.323 406.656Q219.135 406.713 218.945 406.76Q218.754 406.808 218.561 406.846Q218.369 406.885 218.175 406.913Q217.98 406.942 217.785 406.961Q217.59 406.981 217.393 406.99Q217.197 407 217.001 407L7.999 407Q7.80264 407 7.60651 406.99Q7.41038 406.981 7.21496 406.961Q7.01954 406.942 6.8253 406.913Q6.63106 406.885 6.43847 406.846Q6.24588 406.808 6.0554 406.76Q5.86492 406.713 5.67701 406.656Q5.4891 406.599 5.30422 406.532Q5.11933 406.466 4.93791 406.391Q4.7565 406.316 4.57899 406.232Q4.40148 406.148 4.2283 406.055Q4.05512 405.963 3.88669 405.862Q3.71826 405.761 3.55499 405.652Q3.39172 405.543 3.234 405.426Q3.07628 405.309 2.92449 405.184Q2.7727 405.06 2.6272 404.928Q2.4817 404.796 2.34285 404.657Q2.204 404.518 2.07213 404.373Q1.94026 404.227 1.81569 404.076Q1.69112 403.924 1.57414 403.766Q1.45717 403.608 1.34807 403.445Q1.23898 403.282 1.13803 403.113Q1.03708 402.945 0.944512 402.772Q0.851946 402.599 0.76799 402.421Q0.684033 402.243 0.608888 402.062Q0.533742 401.881 0.467589 401.696Q0.401436 401.511 0.344434 401.323Q0.287433 401.135 0.23972 400.945Q0.192007 400.754 0.153699 400.561Q0.11539 400.369 0.0865771 400.175Q0.0577644 399.98 0.0385174 399.785Q0.0192703 399.59 0.00963514 399.393Q0 399.197 0 399.001L0 7.999Q0 7.80264 0.00963514 7.60651Q0.0192703 7.41038 0.0385174 7.21496Q0.0577644 7.01954 0.0865771 6.8253Q0.11539 6.63106 0.153699 6.43847Q0.192007 6.24588 0.23972 6.0554Q0.287433 5.86492 0.344434 5.67701Q0.401436 5.4891 0.467589 5.30422Q0.533742 5.11933 0.608888 4.93791Q0.684033 4.7565 0.76799 4.57899Q0.851946 4.40148 0.944512 4.2283Q1.03708 4.05512 1.13803 3.88669Q1.23898 3.71826 1.34807 3.55499Q1.45717 3.39172 1.57414 3.234Q1.69112 3.07628 1.81569 2.92449Q1.94026 2.7727 2.07213 2.6272Q2.204 2.4817 2.34285 2.34285Q2.4817 2.204 2.6272 2.07213Q2.7727 1.94026 2.92449 1.81569Q3.07628 1.69112 3.234 1.57414Q3.39172 1.45717 3.55499 1.34807Q3.71826 1.23898 3.88669 1.13803Q4.05512 1.03708 4.2283 0.944512Q4.40148 0.851946 4.57899 0.76799Q4.7565 0.684033 4.93791 0.608888Q5.11933 0.533742 5.30422 0.467589Q5.4891 0.401436 5.67701 0.344434Q5.86492 0.287433 6.0554 0.23972Q6.24588 0.192007 6.43847 0.153699Q6.63106 0.11539 6.8253 0.0865771Q7.01954 0.0577644 7.21496 0.0385174Q7.41038 0.0192703 7.60651 0.00963514Q7.80264 0 7.999 0Z" transform="translate(265 1.5)" id="Rectangle" fill="none" stroke="#2C2C2C" stroke-width="3" stroke-dasharray="6 8" />
  <g id="idea-inbox" transform="translate(310 25.5)">
    <path d="M16.272 1.88Q16.164 1.232 16.362 0.691999Q16.56 0.152 17.172 0.079998Q17.712 0.00799942 18.126 0.368Q18.54 0.727999 18.648 1.304Q19.368 5.444 19.998 9.53Q20.628 13.616 21.132 17.54Q21.276 18.584 20.988 18.962Q20.7 19.34 20.304 19.52Q19.872 19.7 19.494 19.52Q19.116 19.34 19.008 18.872L18.972 18.656L18.828 18.692Q17.64 19.124 16.344 19.178Q15.048 19.232 13.86 18.872Q12.672 18.512 11.754 17.702Q10.836 16.892 10.44 15.632Q9.576 12.86 11.52 10.592Q12.348 9.656 13.572 8.9Q14.796 8.144 16.524 7.712L17.172 7.568L16.272 1.88ZM84.87 3.248Q84.852 2.42 84.816 1.844Q84.708 1.268 84.312 0.943998Q83.916 0.620001 83.412 0.547998Q83.196 0.548 82.89 0.656Q82.584 0.764 82.584 1.484Q82.512 5.66 82.98 9.71Q83.448 13.76 84.312 17.72Q84.096 17.9 83.79 18.098Q83.484 18.296 83.268 18.548Q83.052 18.8 82.98 19.106Q82.908 19.412 83.088 19.844Q83.304 20.132 83.988 20.276Q84.672 20.42 85.392 20.132Q85.896 19.808 87.03 19.052Q88.164 18.296 89.334 17.18Q90.504 16.064 91.386 14.624Q92.268 13.184 92.268 11.492Q92.268 10.7 92.016 9.854Q91.764 9.008 91.224 8.306Q90.684 7.604 89.856 7.208Q89.028 6.812 87.912 6.956Q87.192 7.064 86.49 7.532Q85.788 8 85.248 8.9Q85.104 8 85.032 7.01Q84.96 6.02 84.924 5.048Q84.888 4.076 84.87 3.248ZM7.524 5.444Q7.452 5.804 7.02 5.84Q6.588 5.876 6.3 5.876Q5.4 5.912 4.446 6.056Q3.492 6.2 2.448 6.488Q2.016 6.632 1.512 6.38Q1.008 6.128 0.9 5.372Q0.9 5.084 1.116 4.904Q1.332 4.724 1.62 4.58Q2.088 4.364 2.736 4.202Q3.384 4.04 4.05 3.968Q4.716 3.896 5.328 3.914Q5.94 3.932 6.336 4.04Q6.912 4.22 7.254 4.58Q7.596 4.94 7.524 5.444ZM64.224 5.84Q64.656 5.804 64.728 5.444Q64.8 4.94 64.458 4.58Q64.116 4.22 63.54 4.04Q63.144 3.932 62.532 3.914Q61.92 3.896 61.254 3.968Q60.588 4.04 59.94 4.202Q59.292 4.364 58.824 4.58Q58.536 4.724 58.32 4.904Q58.104 5.084 58.104 5.372Q58.212 6.128 58.716 6.38Q59.22 6.632 59.652 6.488Q60.696 6.2 61.65 6.056Q62.604 5.912 63.504 5.876Q63.792 5.876 64.224 5.84ZM44.676 6.812Q44.82 7.82 44.91 8.954Q45 10.088 45.054 11.24Q45.108 12.392 45.108 13.472Q45.108 14.552 45.072 15.416Q46.224 16.208 46.458 16.82Q46.692 17.432 46.512 17.9Q46.296 18.548 45.738 18.566Q45.18 18.584 44.46 18.188Q43.956 18.548 43.308 18.962Q42.66 19.376 41.94 19.754Q41.22 20.132 40.5 20.42Q39.78 20.708 39.168 20.816Q38.016 20.996 37.098 20.384Q36.18 19.772 35.856 18.548Q35.64 17.72 35.748 16.838Q35.856 15.956 36.288 15.146Q36.72 14.336 37.458 13.688Q38.196 13.04 39.204 12.68Q39.456 12.572 39.906 12.5Q40.356 12.428 40.842 12.446Q41.328 12.464 41.832 12.644Q42.336 12.824 42.768 13.256Q42.768 12.644 42.75 11.906Q42.732 11.168 42.696 10.412Q42.66 9.656 42.606 8.99Q42.552 8.324 42.48 7.856Q42.408 7.316 42.066 7.19Q41.724 7.064 41.22 7.244Q40.356 7.532 39.204 8.36Q38.052 9.188 37.008 10.124Q36.684 10.448 36.27 10.412Q35.856 10.376 35.568 10.088Q35.28 9.8 35.244 9.422Q35.208 9.044 35.532 8.612Q36.144 7.964 36.9 7.28Q37.656 6.596 38.484 6.038Q39.312 5.48 40.176 5.12Q41.04 4.76 41.904 4.724Q43.164 4.688 43.848 5.282Q44.532 5.876 44.676 6.812ZM69.696 8.252Q69.804 8.792 69.93 9.458Q70.056 10.124 70.2 10.826Q70.344 11.528 70.452 12.248Q70.56 12.968 70.632 13.616Q71.064 12.68 71.568 11.636Q72.072 10.592 72.666 9.71Q73.26 8.828 73.926 8.252Q74.592 7.676 75.384 7.676Q76.572 7.676 77.382 8.54Q78.192 9.404 78.75 10.682Q79.308 11.96 79.632 13.364Q79.956 14.768 80.172 15.848Q80.388 16.82 79.308 17.288Q78.804 17.54 78.552 17.36Q78.3 17.18 78.264 17Q78.084 16.568 77.814 15.488Q77.544 14.408 77.202 13.292Q76.86 12.176 76.428 11.348Q75.996 10.52 75.456 10.592Q74.808 10.628 74.304 11.564Q73.872 12.32 73.422 13.238Q72.972 14.156 72.54 15.11Q72.108 16.064 71.694 17.018Q71.28 17.972 70.92 18.764Q70.668 19.016 70.29 19.106Q69.912 19.196 69.516 19.052Q69.156 18.944 68.94 18.692Q68.724 18.44 68.724 18.188Q68.4 15.38 68.058 13.076Q67.716 10.772 67.176 8.36Q66.924 7.532 67.086 7.046Q67.248 6.56 68.148 6.668Q69.408 6.884 69.696 8.252ZM103.068 7.568Q104.148 7.964 104.886 8.756Q105.624 9.548 106.02 10.538Q106.416 11.528 106.47 12.572Q106.524 13.616 106.236 14.516Q105.84 15.524 105.228 16.496Q104.616 17.468 103.824 18.224Q103.032 18.98 102.024 19.448Q101.016 19.916 99.792 19.916Q98.316 19.916 97.308 19.232Q96.3 18.548 95.724 17.468Q95.148 16.388 94.986 15.02Q94.824 13.652 95.04 12.284Q95.184 11.276 95.526 10.322Q95.868 9.368 96.408 8.63Q96.948 7.892 97.65 7.424Q98.352 6.956 99.252 6.956Q99.756 6.956 100.512 7.154Q101.268 7.352 101.916 7.712Q102.384 7.28 103.068 7.568ZM28.728 12.95Q30.348 12.5 31.752 11.672Q32.364 11.276 32.49 10.772Q32.616 10.268 32.328 9.584Q31.824 8.36 30.564 7.676Q29.304 6.992 27.756 7.1Q26.46 7.172 25.488 7.676Q24.516 8.18 23.868 8.954Q23.22 9.728 22.914 10.736Q22.608 11.744 22.716 12.86Q22.824 14.048 23.256 15.164Q23.688 16.28 24.516 17.108Q25.488 18.044 26.712 18.368Q27.936 18.692 29.088 18.476Q30.42 18.26 31.5 17.45Q32.58 16.64 33.156 15.488Q33.3 14.588 32.796 14.408Q32.616 14.336 32.256 14.426Q31.896 14.516 31.572 14.804Q31.248 15.092 30.816 15.38Q30.384 15.668 29.862 15.902Q29.34 16.136 28.746 16.244Q28.152 16.352 27.576 16.28Q26.604 16.136 25.956 15.398Q25.308 14.66 25.236 13.4Q27.108 13.4 28.728 12.95ZM120.708 18.242Q120.6 17.576 119.916 16.748Q119.196 15.812 118.404 14.84Q117.612 13.868 116.784 12.932L119.772 9.908Q120.24 9.404 120.366 8.882Q120.492 8.36 120.168 7.964Q119.52 7.64 118.98 7.712Q118.44 7.784 117.972 8.072Q116.46 9.512 115.02 11.024Q113.364 9.26 111.456 7.748Q110.808 7.352 110.16 7.334Q109.512 7.316 108.864 7.964Q108.792 8.036 108.72 8.216Q108.648 8.396 108.666 8.594Q108.684 8.792 108.828 8.936Q108.972 9.08 109.404 9.08Q110.412 10.016 111.366 10.97Q112.32 11.924 113.256 12.896L111.744 14.552Q110.988 15.38 110.268 16.244Q109.872 16.784 109.638 17.378Q109.404 17.972 109.404 18.656Q109.404 19.088 109.908 19.178Q110.412 19.268 111.024 18.764L114.948 14.768Q115.776 15.668 116.55 16.568Q117.324 17.468 118.116 18.368Q118.296 18.548 118.584 18.728Q118.872 18.908 119.178 19.034Q119.484 19.16 119.754 19.214Q120.024 19.268 120.168 19.196Q120.816 18.908 120.708 18.242ZM101.7 10.196Q101.304 9.944 100.782 9.53Q100.26 9.116 99.864 9.116Q99.432 9.116 99.018 9.512Q98.604 9.908 98.298 10.43Q97.992 10.952 97.776 11.492Q97.56 12.032 97.488 12.356Q97.38 12.896 97.344 13.652Q97.308 14.408 97.452 15.146Q97.596 15.884 98.01 16.478Q98.424 17.072 99.252 17.324Q99.756 17.468 100.44 17.306Q101.124 17.144 101.79 16.712Q102.456 16.28 103.05 15.56Q103.644 14.84 103.968 13.904Q104.328 12.86 103.986 11.726Q103.644 10.592 102.6 10.088Q102.348 10.268 102.096 10.268Q101.844 10.268 101.7 10.196ZM26.838 9.476Q27.252 9.296 27.612 9.224Q28.404 9.08 29.178 9.242Q29.952 9.404 30.24 10.088Q29.844 10.34 29.25 10.556Q28.656 10.772 27.954 10.934Q27.252 11.096 26.514 11.204Q25.776 11.312 25.164 11.312Q25.2 10.88 25.47 10.538Q25.74 10.196 26.082 9.926Q26.424 9.656 26.838 9.476ZM89.46 9.674Q90.072 10.16 90.072 11.384Q90.072 12.212 89.712 12.95Q89.352 13.688 88.794 14.336Q88.236 14.984 87.588 15.506Q86.94 16.028 86.364 16.424Q86.184 15.596 86.058 14.552Q85.932 13.508 85.86 12.608Q85.824 12.068 85.986 11.492Q86.148 10.916 86.472 10.448Q86.796 9.98 87.228 9.656Q87.66 9.332 88.2 9.26Q88.848 9.188 89.46 9.674ZM6.696 17.432Q6.948 18.008 6.966 18.674Q6.984 19.34 6.588 19.592Q6.084 19.916 5.508 19.556Q4.932 19.196 4.644 18.584Q4.248 17.828 4.032 16.73Q3.816 15.632 3.708 14.552Q3.6 13.472 3.582 12.536Q3.564 11.6 3.564 11.132Q3.6 10.628 3.852 10.196Q4.104 9.764 4.5 9.692Q5.148 9.728 5.544 10.286Q5.94 10.844 5.904 11.672Q5.904 12.32 5.94 13.112Q5.976 13.904 6.084 14.696Q6.192 15.488 6.336 16.226Q6.48 16.964 6.696 17.432ZM64.17 18.674Q64.152 18.008 63.9 17.432Q63.684 16.964 63.54 16.226Q63.396 15.488 63.288 14.696Q63.18 13.904 63.144 13.112Q63.108 12.32 63.108 11.672Q63.144 10.844 62.748 10.286Q62.352 9.728 61.704 9.692Q61.308 9.764 61.056 10.196Q60.804 10.628 60.768 11.132Q60.768 11.6 60.786 12.536Q60.804 13.472 60.912 14.552Q61.02 15.632 61.236 16.73Q61.452 17.828 61.848 18.584Q62.136 19.196 62.712 19.556Q63.288 19.916 63.792 19.592Q64.188 19.34 64.17 18.674ZM12.636 14.732Q12.852 15.596 13.428 16.064Q14.004 16.532 14.796 16.694Q15.588 16.856 16.488 16.748Q17.388 16.64 18.252 16.352L18.576 16.244L17.568 9.908L16.848 10.088Q16.092 10.304 15.246 10.754Q14.4 11.204 13.752 11.816Q13.104 12.428 12.762 13.184Q12.42 13.94 12.636 14.732ZM40.5 14.552Q40.032 14.66 39.51 15.002Q38.988 15.344 38.574 15.83Q38.16 16.316 37.962 16.91Q37.764 17.504 37.944 18.08Q38.016 18.296 38.25 18.404Q38.484 18.512 38.772 18.44Q39.636 18.26 40.734 17.738Q41.832 17.216 42.48 16.604Q42.48 16.388 42.264 16.046Q42.048 15.704 41.76 15.362Q41.472 15.02 41.13 14.768Q40.788 14.516 40.5 14.552Z" />
  </g>
  <g id="anything-goes!" transform="translate(340 195.5)">
    <g id="anything" fill="#686868">
      <path d="M61.488 4.184Q61.488 5.048 61.47 6.128Q61.452 7.208 61.47 8.36Q61.488 9.512 61.506 10.736Q61.524 11.96 61.56 13.076Q61.92 12.356 62.424 11.654Q62.928 10.952 63.558 10.412Q64.188 9.872 64.89 9.548Q65.592 9.224 66.42 9.224Q67.32 9.224 68.022 9.8Q68.724 10.376 69.246 11.33Q69.768 12.284 70.128 13.454Q70.488 14.624 70.722 15.83Q70.956 17.036 71.064 18.134Q71.172 19.232 71.244 20.024Q71.244 20.6 70.956 20.96Q70.668 21.32 70.272 21.32Q69.984 21.32 69.57 20.942Q69.156 20.564 68.976 20.024Q68.868 19.592 68.76 18.764Q68.652 17.936 68.508 16.982Q68.364 16.028 68.148 15.056Q67.932 14.084 67.626 13.31Q67.32 12.536 66.888 12.104Q66.456 11.672 65.88 11.78Q64.98 11.96 64.314 13.04Q63.648 14.12 63.162 15.488Q62.676 16.856 62.37 18.26Q62.064 19.664 61.92 20.528Q61.776 21.176 61.542 21.41Q61.308 21.644 61.02 21.644Q60.732 21.644 60.498 21.356Q60.264 21.068 60.066 20.654Q59.868 20.24 59.724 19.79Q59.58 19.34 59.544 19.016Q59.364 17.072 59.256 15.29Q59.148 13.508 59.094 11.708Q59.04 9.908 59.04 8.018Q59.04 6.128 59.112 3.968Q59.112 2.82243 59.6369 2.47884Q59.9368 2.28256 60.408 2.348Q60.84 2.42 61.164 2.978Q61.488 3.536 61.488 4.184ZM53.82 10.808Q53.136 10.448 52.452 10.484Q51.84 10.52 51.174 10.538Q50.508 10.556 49.788 10.628Q49.896 9.008 50.022 7.46Q50.148 5.912 50.292 4.688Q50.292 4.256 49.734 3.914Q49.176 3.572 48.564 3.608Q48.312 3.608 48.096 3.932Q47.88 4.256 47.844 4.688Q47.736 5.984 47.592 7.568Q47.448 9.152 47.34 10.844Q45.54 11.024 44.064 11.276Q43.452 11.456 43.272 11.816Q43.092 12.176 43.092 12.392Q43.092 13.004 43.65 13.22Q44.208 13.436 44.676 13.436Q45.252 13.364 45.882 13.31Q46.512 13.256 47.196 13.184Q47.124 14.876 47.07 16.388Q47.016 17.9 47.088 19.052Q47.16 20.204 47.772 20.96Q48.384 21.716 49.572 21.608Q50.364 21.536 51.39 21.158Q52.416 20.78 53.424 20.276Q54.432 19.772 55.314 19.214Q56.196 18.656 56.736 18.224Q57.204 17.756 57.384 17.18Q57.564 16.604 57.492 16.208Q57.42 15.956 57.114 15.884Q56.808 15.812 56.448 15.992Q55.656 16.388 54.774 16.838Q53.892 17.288 52.974 17.702Q52.056 18.116 51.138 18.458Q50.22 18.8 49.428 18.944Q49.392 18.908 49.392 18.404Q49.392 17.9 49.428 17.09Q49.464 16.28 49.518 15.236Q49.572 14.192 49.644 13.004Q50.508 12.932 51.336 12.896Q52.164 12.86 52.884 12.86Q53.244 12.86 53.838 12.698Q54.432 12.536 54.504 11.924Q54.504 11.168 53.82 10.808ZM79.38 5.84Q79.812 5.804 79.884 5.444Q79.956 4.94 79.614 4.58Q79.272 4.22 78.696 4.04Q78.3 3.932 77.688 3.914Q77.076 3.896 76.41 3.968Q75.744 4.04 75.096 4.202Q74.448 4.364 73.98 4.58Q73.692 4.724 73.476 4.904Q73.26 5.084 73.26 5.372Q73.368 6.128 73.872 6.38Q74.376 6.632 74.808 6.488Q75.852 6.2 76.806 6.056Q77.76 5.912 78.66 5.876Q78.948 5.876 79.38 5.84ZM10.71 8.954Q10.62 7.82 10.476 6.812Q10.332 5.876 9.648 5.282Q8.964 4.688 7.704 4.724Q6.84 4.76 5.976 5.12Q5.112 5.48 4.284 6.038Q3.456 6.596 2.7 7.28Q1.944 7.964 1.332 8.612Q1.008 9.044 1.044 9.422Q1.08 9.8 1.368 10.088Q1.656 10.376 2.07 10.412Q2.484 10.448 2.808 10.124Q3.852 9.188 5.004 8.36Q6.156 7.532 7.02 7.244Q7.524 7.064 7.866 7.19Q8.208 7.316 8.28 7.856Q8.352 8.324 8.406 8.99Q8.46 9.656 8.496 10.412Q8.532 11.168 8.55 11.906Q8.568 12.644 8.568 13.256Q8.136 12.824 7.632 12.644Q7.128 12.464 6.642 12.446Q6.156 12.428 5.706 12.5Q5.256 12.572 5.004 12.68Q3.996 13.04 3.258 13.688Q2.52 14.336 2.088 15.146Q1.656 15.956 1.548 16.838Q1.44 17.72 1.656 18.548Q1.98 19.772 2.898 20.384Q3.816 20.996 4.968 20.816Q5.58 20.708 6.3 20.42Q7.02 20.132 7.74 19.754Q8.46 19.376 9.108 18.962Q9.756 18.548 10.26 18.188Q10.98 18.584 11.538 18.566Q12.096 18.548 12.312 17.9Q12.492 17.432 12.258 16.82Q12.024 16.208 10.872 15.416Q10.908 14.552 10.908 13.472Q10.908 12.392 10.854 11.24Q10.8 10.088 10.71 8.954ZM16.938 9.458Q16.812 8.792 16.704 8.252Q16.416 6.884 15.156 6.668Q14.256 6.56 14.094 7.046Q13.932 7.532 14.184 8.36Q14.724 10.772 15.066 13.076Q15.408 15.38 15.732 18.188Q15.732 18.44 15.948 18.692Q16.164 18.944 16.524 19.052Q16.92 19.196 17.298 19.106Q17.676 19.016 17.928 18.764Q18.288 17.972 18.702 17.018Q19.116 16.064 19.548 15.11Q19.98 14.156 20.43 13.238Q20.88 12.32 21.312 11.564Q21.816 10.628 22.464 10.592Q23.004 10.52 23.436 11.348Q23.868 12.176 24.21 13.292Q24.552 14.408 24.822 15.488Q25.092 16.568 25.272 17Q25.308 17.18 25.56 17.36Q25.812 17.54 26.316 17.288Q27.396 16.82 27.18 15.848Q26.964 14.768 26.64 13.364Q26.316 11.96 25.758 10.682Q25.2 9.404 24.39 8.54Q23.58 7.676 22.392 7.676Q21.6 7.676 20.934 8.252Q20.268 8.828 19.674 9.71Q19.08 10.592 18.576 11.636Q18.072 12.68 17.64 13.616Q17.568 12.968 17.46 12.248Q17.352 11.528 17.208 10.826Q17.064 10.124 16.938 9.458ZM84.852 8.252Q84.96 8.792 85.086 9.458Q85.212 10.124 85.356 10.826Q85.5 11.528 85.608 12.248Q85.716 12.968 85.788 13.616Q86.22 12.68 86.724 11.636Q87.228 10.592 87.822 9.71Q88.416 8.828 89.082 8.252Q89.748 7.676 90.54 7.676Q91.728 7.676 92.538 8.54Q93.348 9.404 93.906 10.682Q94.464 11.96 94.788 13.364Q95.112 14.768 95.328 15.848Q95.544 16.82 94.464 17.288Q93.96 17.54 93.708 17.36Q93.456 17.18 93.42 17Q93.24 16.568 92.97 15.488Q92.7 14.408 92.358 13.292Q92.016 12.176 91.584 11.348Q91.152 10.52 90.612 10.592Q89.964 10.628 89.46 11.564Q89.028 12.32 88.578 13.238Q88.128 14.156 87.696 15.11Q87.264 16.064 86.85 17.018Q86.436 17.972 86.076 18.764Q85.824 19.016 85.446 19.106Q85.068 19.196 84.672 19.052Q84.312 18.944 84.096 18.692Q83.88 18.44 83.88 18.188Q83.556 15.38 83.214 13.076Q82.872 10.772 82.332 8.36Q82.08 7.532 82.242 7.046Q82.404 6.56 83.304 6.668Q84.564 6.884 84.852 8.252ZM40.824 8.792Q40.932 10.736 41.058 12.716Q41.184 14.696 41.112 16.622Q41.04 18.548 40.734 20.384Q40.428 22.22 39.708 23.894Q38.988 25.568 37.782 27.008Q36.576 28.448 34.74 29.6Q34.452 29.78 34.11 29.816Q33.768 29.852 33.444 29.798Q33.12 29.744 32.868 29.618Q32.616 29.492 32.544 29.276Q32.436 28.952 32.652 28.556Q32.868 28.16 33.372 27.728Q34.956 26.54 36.036 25.208Q37.116 23.876 37.764 22.328Q38.412 20.78 38.61 18.962Q38.808 17.144 38.592 14.984Q38.16 15.524 37.584 16.1Q37.008 16.676 36.36 17.126Q35.712 17.576 35.028 17.882Q34.344 18.188 33.732 18.188Q33.228 18.188 32.724 17.972Q32.22 17.756 31.716 17.144Q31.14 16.388 30.69 15.434Q30.24 14.48 29.916 13.58Q29.592 12.68 29.394 11.96Q29.196 11.24 29.16 10.952Q29.088 10.592 29.16 10.268Q29.232 9.944 29.628 9.872Q30.168 9.764 30.636 9.944Q31.104 10.124 31.284 10.52Q31.428 10.916 31.68 11.744Q31.932 12.572 32.292 13.382Q32.652 14.192 33.066 14.804Q33.48 15.416 33.948 15.416Q34.488 15.416 35.226 14.876Q35.964 14.336 36.648 13.472Q37.332 12.608 37.818 11.546Q38.304 10.484 38.304 9.476Q38.304 9.26 38.376 8.972Q38.448 8.684 38.592 8.414Q38.736 8.144 38.934 7.946Q39.132 7.748 39.348 7.712Q39.924 7.64 40.374 8.018Q40.824 8.396 40.824 8.792ZM104.922 11.186Q104.652 10.592 104.364 10.196Q104.616 9.944 104.616 9.404Q104.616 8.864 104.22 8.576Q104.004 8.432 103.698 8.36Q103.392 8.288 103.068 8.27Q102.744 8.252 102.438 8.288Q102.132 8.324 101.952 8.36Q99.684 9.296 98.658 10.97Q97.632 12.644 97.56 14.804Q97.56 15.704 97.794 16.532Q98.028 17.36 98.424 17.99Q98.82 18.62 99.342 19.016Q99.864 19.412 100.476 19.448Q101.052 19.484 101.61 19.34Q102.168 19.196 102.636 18.944Q103.104 18.692 103.482 18.404Q103.86 18.116 104.112 17.864Q104.256 18.296 104.454 19.142Q104.652 19.988 104.778 20.924Q104.904 21.86 104.904 22.814Q104.904 23.768 104.652 24.416Q104.328 25.244 103.734 25.856Q103.14 26.468 102.42 26.9Q101.7 27.332 100.89 27.566Q100.08 27.8 99.324 27.872Q98.892 27.944 98.478 28.178Q98.064 28.412 98.1 28.808Q98.1 29.204 98.568 29.582Q99.036 29.96 99.468 29.996Q101.412 29.924 102.96 29.24Q104.508 28.556 105.552 27.404Q106.596 26.252 107.046 24.794Q107.496 23.336 107.28 21.752Q107.1 20.6 106.866 19.34Q106.632 18.08 106.362 16.856Q106.092 15.632 105.822 14.498Q105.552 13.364 105.336 12.392Q105.192 11.78 104.922 11.186ZM79.326 18.674Q79.308 18.008 79.056 17.432Q78.84 16.964 78.696 16.226Q78.552 15.488 78.444 14.696Q78.336 13.904 78.3 13.112Q78.264 12.32 78.264 11.672Q78.3 10.844 77.904 10.286Q77.508 9.728 76.86 9.692Q76.464 9.764 76.212 10.196Q75.96 10.628 75.924 11.132Q75.924 11.6 75.942 12.536Q75.96 13.472 76.068 14.552Q76.176 15.632 76.392 16.73Q76.608 17.828 77.004 18.584Q77.292 19.196 77.868 19.556Q78.444 19.916 78.948 19.592Q79.344 19.34 79.326 18.674ZM99.9 16.01Q99.828 15.524 99.828 15.128Q99.828 14.264 100.098 13.544Q100.368 12.824 100.764 12.23Q101.16 11.636 101.646 11.24Q102.132 10.844 102.564 10.628Q102.636 11.348 102.852 12.248Q103.068 13.148 103.248 13.976Q103.428 14.804 103.266 15.29Q103.104 15.776 102.6 16.172Q102.06 16.604 101.43 16.784Q100.8 16.964 100.368 16.712Q99.972 16.496 99.9 16.01ZM5.31 15.002Q5.832 14.66 6.3 14.552Q6.588 14.516 6.93 14.768Q7.272 15.02 7.56 15.362Q7.848 15.704 8.064 16.046Q8.28 16.388 8.28 16.604Q7.632 17.216 6.534 17.738Q5.436 18.26 4.572 18.44Q4.284 18.512 4.05 18.404Q3.816 18.296 3.744 18.08Q3.564 17.504 3.762 16.91Q3.96 16.316 4.374 15.83Q4.788 15.344 5.31 15.002Z" />
    </g>
    <g id="goes!" fill="#686868">
      <path d="M58.086 29.4Q58.428 27.852 58.752 26.268Q58.86 25.872 58.716 25.332Q58.572 24.792 58.032 24.612Q57.672 24.468 57.276 24.54Q56.88 24.612 56.7 25.332Q56.232 27.06 55.782 28.806Q55.332 30.552 55.062 32.316Q54.792 34.08 54.81 35.88Q54.828 37.68 55.26 39.516Q55.62 40.2 56.412 39.912Q56.664 39.804 56.862 39.444Q57.06 39.084 56.988 38.688Q56.88 37.14 57.024 35.592Q57.168 34.044 57.456 32.496Q57.744 30.948 58.086 29.4ZM47.592 34.368Q47.52 33.972 47.448 33.612Q47.376 33.252 47.088 33.144Q46.476 32.964 45.792 33.108Q45.108 33.252 44.532 33.558Q43.956 33.864 43.56 34.242Q43.164 34.62 43.128 34.908Q43.02 35.448 43.416 35.952Q43.812 36.456 44.568 36.96Q45.828 37.716 47.196 38.508Q48.564 39.3 49.5 40.128Q50.436 40.956 50.778 41.946Q51.12 42.936 50.616 44.196Q50.22 45.168 49.14 45.78Q48.06 46.392 46.764 46.734Q45.468 47.076 44.172 47.202Q42.876 47.328 41.976 47.328Q41.76 47.328 41.454 47.166Q41.148 47.004 40.878 46.788Q40.608 46.572 40.41 46.338Q40.212 46.104 40.212 45.924Q40.212 45.276 40.788 45.024Q41.364 44.772 41.976 44.772Q42.84 44.772 43.83 44.682Q44.82 44.592 45.72 44.394Q46.62 44.196 47.34 43.872Q48.06 43.548 48.348 43.044Q48.6 42.612 48.042 42.018Q47.484 41.424 46.566 40.776Q45.648 40.128 44.586 39.516Q43.524 38.904 42.768 38.4Q42.012 37.896 41.472 37.194Q40.932 36.492 40.788 35.448Q40.752 34.512 41.184 33.648Q41.616 32.784 42.318 32.118Q43.02 31.452 43.92 31.056Q44.82 30.66 45.72 30.66Q47.268 30.732 48.276 31.506Q49.284 32.28 49.464 33.792Q49.464 34.296 49.302 34.62Q49.14 34.944 48.744 35.016Q48.24 35.088 47.934 34.89Q47.628 34.692 47.592 34.368ZM21.96 32.568Q23.04 32.964 23.778 33.756Q24.516 34.548 24.912 35.538Q25.308 36.528 25.362 37.572Q25.416 38.616 25.128 39.516Q24.732 40.524 24.12 41.496Q23.508 42.468 22.716 43.224Q21.924 43.98 20.916 44.448Q19.908 44.916 18.684 44.916Q17.208 44.916 16.2 44.232Q15.192 43.548 14.616 42.468Q14.04 41.388 13.878 40.02Q13.716 38.652 13.932 37.284Q14.076 36.276 14.418 35.322Q14.76 34.368 15.3 33.63Q15.84 32.892 16.542 32.424Q17.244 31.956 18.144 31.956Q18.648 31.956 19.404 32.154Q20.16 32.352 20.808 32.712Q21.276 32.28 21.96 32.568ZM33.912 37.95Q35.532 37.5 36.936 36.672Q37.548 36.276 37.674 35.772Q37.8 35.268 37.512 34.584Q37.008 33.36 35.748 32.676Q34.488 31.992 32.94 32.1Q31.644 32.172 30.672 32.676Q29.7 33.18 29.052 33.954Q28.404 34.728 28.098 35.736Q27.792 36.744 27.9 37.86Q28.008 39.048 28.44 40.164Q28.872 41.28 29.7 42.108Q30.672 43.044 31.896 43.368Q33.12 43.692 34.272 43.476Q35.604 43.26 36.684 42.45Q37.764 41.64 38.34 40.488Q38.484 39.588 37.98 39.408Q37.8 39.336 37.44 39.426Q37.08 39.516 36.756 39.804Q36.432 40.092 36 40.38Q35.568 40.668 35.046 40.902Q34.524 41.136 33.93 41.244Q33.336 41.352 32.76 41.28Q31.788 41.136 31.14 40.398Q30.492 39.66 30.42 38.4Q32.292 38.4 33.912 37.95ZM8.028 35.196Q8.316 35.592 8.586 36.186Q8.856 36.78 9 37.392Q9.216 38.364 9.486 39.498Q9.756 40.632 10.026 41.856Q10.296 43.08 10.53 44.34Q10.764 45.6 10.944 46.752Q11.16 48.336 10.71 49.794Q10.26 51.252 9.216 52.404Q8.172 53.556 6.624 54.24Q5.076 54.924 3.132 54.996Q2.7 54.96 2.232 54.582Q1.764 54.204 1.764 53.808Q1.728 53.412 2.142 53.178Q2.556 52.944 2.988 52.872Q3.744 52.8 4.554 52.566Q5.364 52.332 6.084 51.9Q6.804 51.468 7.398 50.856Q7.992 50.244 8.316 49.416Q8.568 48.768 8.568 47.814Q8.568 46.86 8.442 45.924Q8.316 44.988 8.118 44.142Q7.92 43.296 7.776 42.864Q7.524 43.116 7.146 43.404Q6.768 43.692 6.3 43.944Q5.832 44.196 5.274 44.34Q4.716 44.484 4.14 44.448Q3.528 44.412 3.006 44.016Q2.484 43.62 2.088 42.99Q1.692 42.36 1.458 41.532Q1.224 40.704 1.224 39.804Q1.296 37.644 2.322 35.97Q3.348 34.296 5.616 33.36Q5.796 33.324 6.102 33.288Q6.408 33.252 6.732 33.27Q7.056 33.288 7.362 33.36Q7.668 33.432 7.884 33.576Q8.28 33.864 8.28 34.404Q8.28 34.944 8.028 35.196ZM20.592 35.196Q20.196 34.944 19.674 34.53Q19.152 34.116 18.756 34.116Q18.324 34.116 17.91 34.512Q17.496 34.908 17.19 35.43Q16.884 35.952 16.668 36.492Q16.452 37.032 16.38 37.356Q16.272 37.896 16.236 38.652Q16.2 39.408 16.344 40.146Q16.488 40.884 16.902 41.478Q17.316 42.072 18.144 42.324Q18.648 42.468 19.332 42.306Q20.016 42.144 20.682 41.712Q21.348 41.28 21.942 40.56Q22.536 39.84 22.86 38.904Q23.22 37.86 22.878 36.726Q22.536 35.592 21.492 35.088Q21.24 35.268 20.988 35.268Q20.736 35.268 20.592 35.196ZM32.022 34.476Q32.436 34.296 32.796 34.224Q33.588 34.08 34.362 34.242Q35.136 34.404 35.424 35.088Q35.028 35.34 34.434 35.556Q33.84 35.772 33.138 35.934Q32.436 36.096 31.698 36.204Q30.96 36.312 30.348 36.312Q30.384 35.88 30.654 35.538Q30.924 35.196 31.266 34.926Q31.608 34.656 32.022 34.476ZM3.492 40.128Q3.492 40.524 3.564 41.01Q3.636 41.496 4.032 41.712Q4.464 41.964 5.094 41.784Q5.724 41.604 6.264 41.172Q6.768 40.776 6.93 40.29Q7.092 39.804 6.912 38.976Q6.732 38.148 6.516 37.248Q6.3 36.348 6.228 35.628Q5.796 35.844 5.31 36.24Q4.824 36.636 4.428 37.23Q4.032 37.824 3.762 38.544Q3.492 39.264 3.492 40.128ZM57.222 46.698Q57.312 46.032 57.312 45.636Q57.312 45.492 57.168 45.294Q57.024 45.096 56.808 44.934Q56.592 44.772 56.322 44.7Q56.052 44.628 55.836 44.7Q55.368 44.88 55.08 45.708Q54.792 46.536 54.72 47.4Q54.684 47.832 54.972 48.336Q55.26 48.84 55.548 49.02Q56.052 49.236 56.394 48.876Q56.736 48.516 56.934 47.94Q57.132 47.364 57.222 46.698Z" />
    </g>
  </g>
  <path d="M0 0L44 80" transform="matrix(0.8290375 -0.5591928 0.5591928 0.8290375 222.3425 59.57285)" id="New-shape-5" fill="none" stroke="#808080" stroke-width="2" />
  <path d="M0 9L14.5 16.5L13.51 0.164642L13.5 0" transform="matrix(0.8290375 -0.5591928 0.5591928 0.8290375 290.9265 99.55685)" id="New-shape-6" fill="none" stroke="#808080" stroke-width="2" />
  <path d="M0 0L44 80" transform="matrix(0.5877852 -0.8090169 0.8090169 0.5877852 212.3474 150.0967)" id="New-shape-7" fill="none" stroke="#808080" stroke-width="2" />
  <path d="M0 9L14.5 16.5L13.51 0.164642L13.5 0" transform="matrix(0.5877852 -0.8090169 0.8090169 0.5877852 292.1232 164.2123)" id="New-shape-8" fill="none" stroke="#808080" stroke-width="2" />
  <path d="M0 0L44 80" transform="matrix(0.5877852 -0.8090169 0.8090169 0.5877852 204.3525 208.0968)" id="New-shape-13" fill="none" stroke="#808080" stroke-width="2" />
  <path d="M0 9L14.5 16.5L13.51 0.164642L13.5 0" transform="matrix(0.5877852 -0.8090169 0.8090169 0.5877852 284.1283 222.2124)" id="New-shape-14" fill="none" stroke="#808080" stroke-width="2" />
  <path d="M0 0L44 80" transform="matrix(0.5150381 -0.8571672 0.8571672 0.5150381 209.6974 277.476)" id="New-shape-9" fill="none" stroke="#808080" stroke-width="2" />
  <path d="M0 9L14.5 16.5L13.51 0.164642L13.5 0" transform="matrix(0.5150381 -0.8571672 0.8571672 0.5150381 288.7536 284.729)" id="New-shape-10" fill="none" stroke="#808080" stroke-width="2" />
  <path d="M0 0L44 80" transform="matrix(0.5150381 -0.8571672 0.8571672 0.5150381 215 358.2153)" id="New-shape-11" fill="none" stroke="#808080" stroke-width="2" />
  <path d="M0 9L14.5 16.5L13.51 0.164642L13.5 0" transform="matrix(0.5150381 -0.8571672 0.8571672 0.5150381 294.0562 365.4683)" id="New-shape-12" fill="none" stroke="#808080" stroke-width="2" />
  <g id="active-ideation" transform="translate(11 74.5)">
    <path d="M102.978 8.692Q102.78 9.232 102.888 9.88L103.788 15.568L103.14 15.712Q101.412 16.144 100.188 16.9Q98.964 17.656 98.136 18.592Q96.192 20.86 97.056 23.632Q97.452 24.892 98.37 25.702Q99.288 26.512 100.476 26.872Q101.664 27.232 102.96 27.178Q104.256 27.124 105.444 26.692L105.588 26.656L105.624 26.872Q105.732 27.34 106.11 27.52Q106.488 27.7 106.92 27.52Q107.316 27.34 107.604 26.962Q107.892 26.584 107.748 25.54Q107.244 21.616 106.614 17.53Q105.984 13.444 105.264 9.304Q105.156 8.728 104.742 8.368Q104.328 8.008 103.788 8.08Q103.176 8.152 102.978 8.692ZM35.604 18.484Q36.288 18.448 36.972 18.808Q37.656 19.168 37.656 19.924Q37.584 20.536 36.99 20.698Q36.396 20.86 36.036 20.86Q35.316 20.86 34.488 20.896Q33.66 20.932 32.796 21.004Q32.724 22.192 32.67 23.236Q32.616 24.28 32.58 25.09Q32.544 25.9 32.544 26.404Q32.544 26.908 32.58 26.944Q33.372 26.8 34.29 26.458Q35.208 26.116 36.126 25.702Q37.044 25.288 37.926 24.838Q38.808 24.388 39.6 23.992Q39.96 23.812 40.266 23.884Q40.572 23.956 40.644 24.208Q40.716 24.604 40.536 25.18Q40.356 25.756 39.888 26.224Q39.348 26.656 38.466 27.214Q37.584 27.772 36.576 28.276Q35.568 28.78 34.542 29.158Q33.516 29.536 32.724 29.608Q31.536 29.716 30.924 28.96Q30.312 28.204 30.24 27.052Q30.168 25.9 30.222 24.388Q30.276 22.876 30.348 21.184Q29.664 21.256 29.034 21.31Q28.404 21.364 27.828 21.436Q27.36 21.436 26.802 21.22Q26.244 21.004 26.244 20.392Q26.244 20.176 26.424 19.816Q26.604 19.456 27.216 19.276Q28.692 19.024 30.492 18.844Q30.6 17.152 30.744 15.568Q30.888 13.984 30.996 12.688Q31.032 12.256 31.248 11.932Q31.464 11.608 31.716 11.608Q32.328 11.572 32.886 11.914Q33.444 12.256 33.444 12.688Q33.3 13.912 33.174 15.46Q33.048 17.008 32.94 18.628Q33.66 18.556 34.326 18.538Q34.992 18.52 35.604 18.484ZM143.388 18.484Q144.072 18.448 144.756 18.808Q145.44 19.168 145.44 19.924Q145.368 20.536 144.774 20.698Q144.18 20.86 143.82 20.86Q143.1 20.86 142.272 20.896Q141.444 20.932 140.58 21.004Q140.508 22.192 140.454 23.236Q140.4 24.28 140.364 25.09Q140.328 25.9 140.328 26.404Q140.328 26.908 140.364 26.944Q141.156 26.8 142.074 26.458Q142.992 26.116 143.91 25.702Q144.828 25.288 145.71 24.838Q146.592 24.388 147.384 23.992Q147.744 23.812 148.05 23.884Q148.356 23.956 148.428 24.208Q148.5 24.604 148.32 25.18Q148.14 25.756 147.672 26.224Q147.132 26.656 146.25 27.214Q145.368 27.772 144.36 28.276Q143.352 28.78 142.326 29.158Q141.3 29.536 140.508 29.608Q139.32 29.716 138.708 28.96Q138.096 28.204 138.024 27.052Q137.952 25.9 138.006 24.388Q138.06 22.876 138.132 21.184Q137.448 21.256 136.818 21.31Q136.188 21.364 135.612 21.436Q135.144 21.436 134.586 21.22Q134.028 21.004 134.028 20.392Q134.028 20.176 134.208 19.816Q134.388 19.456 135 19.276Q136.476 19.024 138.276 18.844Q138.384 17.152 138.528 15.568Q138.672 13.984 138.78 12.688Q138.816 12.256 139.032 11.932Q139.248 11.608 139.5 11.608Q140.112 11.572 140.67 11.914Q141.228 12.256 141.228 12.688Q141.084 13.912 140.958 15.46Q140.832 17.008 140.724 18.628Q141.444 18.556 142.11 18.538Q142.776 18.52 143.388 18.484ZM47.664 13.84Q48.096 13.804 48.168 13.444Q48.24 12.94 47.898 12.58Q47.556 12.22 46.98 12.04Q46.584 11.932 45.972 11.914Q45.36 11.896 44.694 11.968Q44.028 12.04 43.38 12.202Q42.732 12.364 42.264 12.58Q41.976 12.724 41.76 12.904Q41.544 13.084 41.544 13.372Q41.652 14.128 42.156 14.38Q42.66 14.632 43.092 14.488Q44.136 14.2 45.09 14.056Q46.044 13.912 46.944 13.876Q47.232 13.876 47.664 13.84ZM94.14 13.444Q94.068 13.804 93.636 13.84Q93.204 13.876 92.916 13.876Q92.016 13.912 91.062 14.056Q90.108 14.2 89.064 14.488Q88.632 14.632 88.128 14.38Q87.624 14.128 87.516 13.372Q87.516 13.084 87.732 12.904Q87.948 12.724 88.236 12.58Q88.704 12.364 89.352 12.202Q90 12.04 90.666 11.968Q91.332 11.896 91.944 11.914Q92.556 11.932 92.952 12.04Q93.528 12.22 93.87 12.58Q94.212 12.94 94.14 13.444ZM155.448 13.84Q155.88 13.804 155.952 13.444Q156.024 12.94 155.682 12.58Q155.34 12.22 154.764 12.04Q154.368 11.932 153.756 11.914Q153.144 11.896 152.478 11.968Q151.812 12.04 151.164 12.202Q150.516 12.364 150.048 12.58Q149.76 12.724 149.544 12.904Q149.328 13.084 149.328 13.372Q149.436 14.128 149.94 14.38Q150.444 14.632 150.876 14.488Q151.92 14.2 152.874 14.056Q153.828 13.912 154.728 13.876Q155.016 13.876 155.448 13.84ZM10.71 16.954Q10.62 15.82 10.476 14.812Q10.332 13.876 9.648 13.282Q8.964 12.688 7.704 12.724Q6.84 12.76 5.976 13.12Q5.112 13.48 4.284 14.038Q3.456 14.596 2.7 15.28Q1.944 15.964 1.332 16.612Q1.008 17.044 1.044 17.422Q1.08 17.8 1.368 18.088Q1.656 18.376 2.07 18.412Q2.484 18.448 2.808 18.124Q3.852 17.188 5.004 16.36Q6.156 15.532 7.02 15.244Q7.524 15.064 7.866 15.19Q8.208 15.316 8.28 15.856Q8.352 16.324 8.406 16.99Q8.46 17.656 8.496 18.412Q8.532 19.168 8.55 19.906Q8.568 20.644 8.568 21.256Q8.136 20.824 7.632 20.644Q7.128 20.464 6.642 20.446Q6.156 20.428 5.706 20.5Q5.256 20.572 5.004 20.68Q3.996 21.04 3.258 21.688Q2.52 22.336 2.088 23.146Q1.656 23.956 1.548 24.838Q1.44 25.72 1.656 26.548Q1.98 27.772 2.898 28.384Q3.816 28.996 4.968 28.816Q5.58 28.708 6.3 28.42Q7.02 28.132 7.74 27.754Q8.46 27.376 9.108 26.962Q9.756 26.548 10.26 26.188Q10.98 26.584 11.538 26.566Q12.096 26.548 12.312 25.9Q12.492 25.432 12.258 24.82Q12.024 24.208 10.872 23.416Q10.908 22.552 10.908 21.472Q10.908 20.392 10.854 19.24Q10.8 18.088 10.71 16.954ZM131.526 16.954Q131.436 15.82 131.292 14.812Q131.148 13.876 130.464 13.282Q129.78 12.688 128.52 12.724Q127.656 12.76 126.792 13.12Q125.928 13.48 125.1 14.038Q124.272 14.596 123.516 15.28Q122.76 15.964 122.148 16.612Q121.824 17.044 121.86 17.422Q121.896 17.8 122.184 18.088Q122.472 18.376 122.886 18.412Q123.3 18.448 123.624 18.124Q124.668 17.188 125.82 16.36Q126.972 15.532 127.836 15.244Q128.34 15.064 128.682 15.19Q129.024 15.316 129.096 15.856Q129.168 16.324 129.222 16.99Q129.276 17.656 129.312 18.412Q129.348 19.168 129.366 19.906Q129.384 20.644 129.384 21.256Q128.952 20.824 128.448 20.644Q127.944 20.464 127.458 20.446Q126.972 20.428 126.522 20.5Q126.072 20.572 125.82 20.68Q124.812 21.04 124.074 21.688Q123.336 22.336 122.904 23.146Q122.472 23.956 122.364 24.838Q122.256 25.72 122.472 26.548Q122.796 27.772 123.714 28.384Q124.632 28.996 125.784 28.816Q126.396 28.708 127.116 28.42Q127.836 28.132 128.556 27.754Q129.276 27.376 129.924 26.962Q130.572 26.548 131.076 26.188Q131.796 26.584 132.354 26.566Q132.912 26.548 133.128 25.9Q133.308 25.432 133.074 24.82Q132.84 24.208 131.688 23.416Q131.724 22.552 131.724 21.472Q131.724 20.392 131.67 19.24Q131.616 18.088 131.526 16.954ZM62.964 15.064Q62.388 16.036 61.812 16.972Q61.236 17.908 60.57 19.114Q59.904 20.32 59.04 21.904Q58.176 23.488 57.024 25.756Q56.736 26.296 56.448 26.62Q56.16 26.944 55.764 26.944Q55.224 26.944 54.918 26.638Q54.612 26.332 54.396 25.972Q53.208 23.992 52.056 21.58Q50.904 19.168 50.184 16.864Q50.112 16.684 50.202 16.45Q50.292 16.216 50.472 16.144Q50.832 15.964 51.408 16.108Q51.84 16.288 52.272 16.756Q52.704 17.224 52.956 17.728Q53.172 18.232 53.46 18.88Q53.748 19.528 54.09 20.266Q54.432 21.004 54.792 21.724Q55.152 22.444 55.512 23.02Q56.124 21.94 56.826 20.698Q57.528 19.456 58.248 18.178Q58.968 16.9 59.706 15.712Q60.444 14.524 61.164 13.588Q61.344 13.336 61.668 13.3Q61.992 13.264 62.388 13.552Q63.288 14.236 62.964 15.064ZM175.698 17.458Q175.572 16.792 175.464 16.252Q175.176 14.884 173.916 14.668Q173.016 14.56 172.854 15.046Q172.692 15.532 172.944 16.36Q173.484 18.772 173.826 21.076Q174.168 23.38 174.492 26.188Q174.492 26.44 174.708 26.692Q174.924 26.944 175.284 27.052Q175.68 27.196 176.058 27.106Q176.436 27.016 176.688 26.764Q177.048 25.972 177.462 25.018Q177.876 24.064 178.308 23.11Q178.74 22.156 179.19 21.238Q179.64 20.32 180.072 19.564Q180.576 18.628 181.224 18.592Q181.764 18.52 182.196 19.348Q182.628 20.176 182.97 21.292Q183.312 22.408 183.582 23.488Q183.852 24.568 184.032 25Q184.068 25.18 184.32 25.36Q184.572 25.54 185.076 25.288Q186.156 24.82 185.94 23.848Q185.724 22.768 185.4 21.364Q185.076 19.96 184.518 18.682Q183.96 17.404 183.15 16.54Q182.34 15.676 181.152 15.676Q180.36 15.676 179.694 16.252Q179.028 16.828 178.434 17.71Q177.84 18.592 177.336 19.636Q176.832 20.68 176.4 21.616Q176.328 20.968 176.22 20.248Q176.112 19.528 175.968 18.826Q175.824 18.124 175.698 17.458ZM166.896 15.568Q167.976 15.964 168.714 16.756Q169.452 17.548 169.848 18.538Q170.244 19.528 170.298 20.572Q170.352 21.616 170.064 22.516Q169.668 23.524 169.056 24.496Q168.444 25.468 167.652 26.224Q166.86 26.98 165.852 27.448Q164.844 27.916 163.62 27.916Q162.144 27.916 161.136 27.232Q160.128 26.548 159.552 25.468Q158.976 24.388 158.814 23.02Q158.652 21.652 158.868 20.284Q159.012 19.276 159.354 18.322Q159.696 17.368 160.236 16.63Q160.776 15.892 161.478 15.424Q162.18 14.956 163.08 14.956Q163.584 14.956 164.34 15.154Q165.096 15.352 165.744 15.712Q166.212 15.28 166.896 15.568ZM71.064 20.95Q72.684 20.5 74.088 19.672Q74.7 19.276 74.826 18.772Q74.952 18.268 74.664 17.584Q74.16 16.36 72.9 15.676Q71.64 14.992 70.092 15.1Q68.796 15.172 67.824 15.676Q66.852 16.18 66.204 16.954Q65.556 17.728 65.25 18.736Q64.944 19.744 65.052 20.86Q65.16 22.048 65.592 23.164Q66.024 24.28 66.852 25.108Q67.824 26.044 69.048 26.368Q70.272 26.692 71.424 26.476Q72.756 26.26 73.836 25.45Q74.916 24.64 75.492 23.488Q75.636 22.588 75.132 22.408Q74.952 22.336 74.592 22.426Q74.232 22.516 73.908 22.804Q73.584 23.092 73.152 23.38Q72.72 23.668 72.198 23.902Q71.676 24.136 71.082 24.244Q70.488 24.352 69.912 24.28Q68.94 24.136 68.292 23.398Q67.644 22.66 67.572 21.4Q69.444 21.4 71.064 20.95ZM118.368 19.672Q116.964 20.5 115.344 20.95Q113.724 21.4 111.852 21.4Q111.924 22.66 112.572 23.398Q113.22 24.136 114.192 24.28Q114.768 24.352 115.362 24.244Q115.956 24.136 116.478 23.902Q117 23.668 117.432 23.38Q117.864 23.092 118.188 22.804Q118.512 22.516 118.872 22.426Q119.232 22.336 119.412 22.408Q119.916 22.588 119.772 23.488Q119.196 24.64 118.116 25.45Q117.036 26.26 115.704 26.476Q114.552 26.692 113.328 26.368Q112.104 26.044 111.132 25.108Q110.304 24.28 109.872 23.164Q109.44 22.048 109.332 20.86Q109.224 19.744 109.53 18.736Q109.836 17.728 110.484 16.954Q111.132 16.18 112.104 15.676Q113.076 15.172 114.372 15.1Q115.92 14.992 117.18 15.676Q118.44 16.36 118.944 17.584Q119.232 18.268 119.106 18.772Q118.98 19.276 118.368 19.672ZM22.068 18.97Q22.428 19.024 22.68 18.88Q23.004 18.7 23.076 18.394Q23.148 18.088 23.076 17.8Q22.68 16.504 21.456 16.018Q20.232 15.532 18.9 15.748Q18.072 15.892 17.388 16.306Q16.704 16.72 16.146 17.296Q15.588 17.872 15.192 18.574Q14.796 19.276 14.58 19.96Q14.04 21.796 14.328 23.524Q14.616 25.252 15.984 26.188Q16.848 26.728 17.838 26.872Q18.828 27.016 19.836 26.854Q20.844 26.692 21.834 26.314Q22.824 25.936 23.724 25.432Q24.624 24.964 25.164 24.37Q25.704 23.776 25.344 23.2Q25.056 22.732 24.624 22.768Q24.192 22.804 23.688 23.02Q22.536 23.74 21.222 24.19Q19.908 24.64 18.864 24.604Q17.568 24.604 16.956 23.74Q16.344 22.876 16.524 21.616Q16.632 20.932 16.92 20.248Q17.208 19.564 17.658 19.006Q18.108 18.448 18.702 18.106Q19.296 17.764 20.052 17.764Q20.88 17.764 21.456 18.52Q21.708 18.916 22.068 18.97ZM165.528 18.196Q165.132 17.944 164.61 17.53Q164.088 17.116 163.692 17.116Q163.26 17.116 162.846 17.512Q162.432 17.908 162.126 18.43Q161.82 18.952 161.604 19.492Q161.388 20.032 161.316 20.356Q161.208 20.896 161.172 21.652Q161.136 22.408 161.28 23.146Q161.424 23.884 161.838 24.478Q162.252 25.072 163.08 25.324Q163.584 25.468 164.268 25.306Q164.952 25.144 165.618 24.712Q166.284 24.28 166.878 23.56Q167.472 22.84 167.796 21.904Q168.156 20.86 167.814 19.726Q167.472 18.592 166.428 18.088Q166.176 18.268 165.924 18.268Q165.672 18.268 165.528 18.196ZM69.174 17.476Q69.588 17.296 69.948 17.224Q70.74 17.08 71.514 17.242Q72.288 17.404 72.576 18.088Q72.18 18.34 71.586 18.556Q70.992 18.772 70.29 18.934Q69.588 19.096 68.85 19.204Q68.112 19.312 67.5 19.312Q67.536 18.88 67.806 18.538Q68.076 18.196 68.418 17.926Q68.76 17.656 69.174 17.476ZM114.228 17.224Q113.868 17.296 113.454 17.476Q113.04 17.656 112.698 17.926Q112.356 18.196 112.086 18.538Q111.816 18.88 111.78 19.312Q112.392 19.312 113.13 19.204Q113.868 19.096 114.57 18.934Q115.272 18.772 115.866 18.556Q116.46 18.34 116.856 18.088Q116.568 17.404 115.794 17.242Q115.02 17.08 114.228 17.224ZM47.61 26.674Q47.592 26.008 47.34 25.432Q47.124 24.964 46.98 24.226Q46.836 23.488 46.728 22.696Q46.62 21.904 46.584 21.112Q46.548 20.32 46.548 19.672Q46.584 18.844 46.188 18.286Q45.792 17.728 45.144 17.692Q44.748 17.764 44.496 18.196Q44.244 18.628 44.208 19.132Q44.208 19.6 44.226 20.536Q44.244 21.472 44.352 22.552Q44.46 23.632 44.676 24.73Q44.892 25.828 45.288 26.584Q45.576 27.196 46.152 27.556Q46.728 27.916 47.232 27.592Q47.628 27.34 47.61 26.674ZM93.312 25.432Q93.564 26.008 93.582 26.674Q93.6 27.34 93.204 27.592Q92.7 27.916 92.124 27.556Q91.548 27.196 91.26 26.584Q90.864 25.828 90.648 24.73Q90.432 23.632 90.324 22.552Q90.216 21.472 90.198 20.536Q90.18 19.6 90.18 19.132Q90.216 18.628 90.468 18.196Q90.72 17.764 91.116 17.692Q91.764 17.728 92.16 18.286Q92.556 18.844 92.52 19.672Q92.52 20.32 92.556 21.112Q92.592 21.904 92.7 22.696Q92.808 23.488 92.952 24.226Q93.096 24.964 93.312 25.432ZM155.394 26.674Q155.376 26.008 155.124 25.432Q154.908 24.964 154.764 24.226Q154.62 23.488 154.512 22.696Q154.404 21.904 154.368 21.112Q154.332 20.32 154.332 19.672Q154.368 18.844 153.972 18.286Q153.576 17.728 152.928 17.692Q152.532 17.764 152.28 18.196Q152.028 18.628 151.992 19.132Q151.992 19.6 152.01 20.536Q152.028 21.472 152.136 22.552Q152.244 23.632 152.46 24.73Q152.676 25.828 153.072 26.584Q153.36 27.196 153.936 27.556Q154.512 27.916 155.016 27.592Q155.412 27.34 155.394 26.674ZM100.044 24.064Q99.468 23.596 99.252 22.732Q99.036 21.94 99.378 21.184Q99.72 20.428 100.368 19.816Q101.016 19.204 101.862 18.754Q102.708 18.304 103.464 18.088L104.184 17.908L105.192 24.244L104.868 24.352Q104.004 24.64 103.104 24.748Q102.204 24.856 101.412 24.694Q100.62 24.532 100.044 24.064ZM5.31 23.002Q5.832 22.66 6.3 22.552Q6.588 22.516 6.93 22.768Q7.272 23.02 7.56 23.362Q7.848 23.704 8.064 24.046Q8.28 24.388 8.28 24.604Q7.632 25.216 6.534 25.738Q5.436 26.26 4.572 26.44Q4.284 26.512 4.05 26.404Q3.816 26.296 3.744 26.08Q3.564 25.504 3.762 24.91Q3.96 24.316 4.374 23.83Q4.788 23.344 5.31 23.002ZM126.126 23.002Q126.648 22.66 127.116 22.552Q127.404 22.516 127.746 22.768Q128.088 23.02 128.376 23.362Q128.664 23.704 128.88 24.046Q129.096 24.388 129.096 24.604Q128.448 25.216 127.35 25.738Q126.252 26.26 125.388 26.44Q125.1 26.512 124.866 26.404Q124.632 26.296 124.56 26.08Q124.38 25.504 124.578 24.91Q124.776 24.316 125.19 23.83Q125.604 23.344 126.126 23.002Z" />
  </g>
  <g id="passive-ideation" transform="translate(0 244.5)">
    <path d="M113.418 8.692Q113.22 9.232 113.328 9.88L114.228 15.568L113.58 15.712Q111.852 16.144 110.628 16.9Q109.404 17.656 108.576 18.592Q106.632 20.86 107.496 23.632Q107.892 24.892 108.81 25.702Q109.728 26.512 110.916 26.872Q112.104 27.232 113.4 27.178Q114.696 27.124 115.884 26.692L116.028 26.656L116.064 26.872Q116.172 27.34 116.55 27.52Q116.928 27.7 117.36 27.52Q117.756 27.34 118.044 26.962Q118.332 26.584 118.188 25.54Q117.684 21.616 117.054 17.53Q116.424 13.444 115.704 9.304Q115.596 8.728 115.182 8.368Q114.768 8.008 114.228 8.08Q113.616 8.152 113.418 8.692ZM153.828 18.484Q154.512 18.448 155.196 18.808Q155.88 19.168 155.88 19.924Q155.808 20.536 155.214 20.698Q154.62 20.86 154.26 20.86Q153.54 20.86 152.712 20.896Q151.884 20.932 151.02 21.004Q150.948 22.192 150.894 23.236Q150.84 24.28 150.804 25.09Q150.768 25.9 150.768 26.404Q150.768 26.908 150.804 26.944Q151.596 26.8 152.514 26.458Q153.432 26.116 154.35 25.702Q155.268 25.288 156.15 24.838Q157.032 24.388 157.824 23.992Q158.184 23.812 158.49 23.884Q158.796 23.956 158.868 24.208Q158.94 24.604 158.76 25.18Q158.58 25.756 158.112 26.224Q157.572 26.656 156.69 27.214Q155.808 27.772 154.8 28.276Q153.792 28.78 152.766 29.158Q151.74 29.536 150.948 29.608Q149.76 29.716 149.148 28.96Q148.536 28.204 148.464 27.052Q148.392 25.9 148.446 24.388Q148.5 22.876 148.572 21.184Q147.888 21.256 147.258 21.31Q146.628 21.364 146.052 21.436Q145.584 21.436 145.026 21.22Q144.468 21.004 144.468 20.392Q144.468 20.176 144.648 19.816Q144.828 19.456 145.44 19.276Q146.916 19.024 148.716 18.844Q148.824 17.152 148.968 15.568Q149.112 13.984 149.22 12.688Q149.256 12.256 149.472 11.932Q149.688 11.608 149.94 11.608Q150.552 11.572 151.11 11.914Q151.668 12.256 151.668 12.688Q151.524 13.912 151.398 15.46Q151.272 17.008 151.164 18.628Q151.884 18.556 152.55 18.538Q153.216 18.52 153.828 18.484ZM58.104 13.84Q58.536 13.804 58.608 13.444Q58.68 12.94 58.338 12.58Q57.996 12.22 57.42 12.04Q57.024 11.932 56.412 11.914Q55.8 11.896 55.134 11.968Q54.468 12.04 53.82 12.202Q53.172 12.364 52.704 12.58Q52.416 12.724 52.2 12.904Q51.984 13.084 51.984 13.372Q52.092 14.128 52.596 14.38Q53.1 14.632 53.532 14.488Q54.576 14.2 55.53 14.056Q56.484 13.912 57.384 13.876Q57.672 13.876 58.104 13.84ZM104.58 13.444Q104.508 13.804 104.076 13.84Q103.644 13.876 103.356 13.876Q102.456 13.912 101.502 14.056Q100.548 14.2 99.504 14.488Q99.072 14.632 98.568 14.38Q98.064 14.128 97.956 13.372Q97.956 13.084 98.172 12.904Q98.388 12.724 98.676 12.58Q99.144 12.364 99.792 12.202Q100.44 12.04 101.106 11.968Q101.772 11.896 102.384 11.914Q102.996 11.932 103.392 12.04Q103.968 12.22 104.31 12.58Q104.652 12.94 104.58 13.444ZM165.888 13.84Q166.32 13.804 166.392 13.444Q166.464 12.94 166.122 12.58Q165.78 12.22 165.204 12.04Q164.808 11.932 164.196 11.914Q163.584 11.896 162.918 11.968Q162.252 12.04 161.604 12.202Q160.956 12.364 160.488 12.58Q160.2 12.724 159.984 12.904Q159.768 13.084 159.768 13.372Q159.876 14.128 160.38 14.38Q160.884 14.632 161.316 14.488Q162.36 14.2 163.314 14.056Q164.268 13.912 165.168 13.876Q165.456 13.876 165.888 13.84ZM24.228 14.812Q24.372 15.82 24.462 16.954Q24.552 18.088 24.606 19.24Q24.66 20.392 24.66 21.472Q24.66 22.552 24.624 23.416Q25.776 24.208 26.01 24.82Q26.244 25.432 26.064 25.9Q25.848 26.548 25.29 26.566Q24.732 26.584 24.012 26.188Q23.508 26.548 22.86 26.962Q22.212 27.376 21.492 27.754Q20.772 28.132 20.052 28.42Q19.332 28.708 18.72 28.816Q17.568 28.996 16.65 28.384Q15.732 27.772 15.408 26.548Q15.192 25.72 15.3 24.838Q15.408 23.956 15.84 23.146Q16.272 22.336 17.01 21.688Q17.748 21.04 18.756 20.68Q19.008 20.572 19.458 20.5Q19.908 20.428 20.394 20.446Q20.88 20.464 21.384 20.644Q21.888 20.824 22.32 21.256Q22.32 20.644 22.302 19.906Q22.284 19.168 22.248 18.412Q22.212 17.656 22.158 16.99Q22.104 16.324 22.032 15.856Q21.96 15.316 21.618 15.19Q21.276 15.064 20.772 15.244Q19.908 15.532 18.756 16.36Q17.604 17.188 16.56 18.124Q16.236 18.448 15.822 18.412Q15.408 18.376 15.12 18.088Q14.832 17.8 14.796 17.422Q14.76 17.044 15.084 16.612Q15.696 15.964 16.452 15.28Q17.208 14.596 18.036 14.038Q18.864 13.48 19.728 13.12Q20.592 12.76 21.456 12.724Q22.716 12.688 23.4 13.282Q24.084 13.876 24.228 14.812ZM141.966 16.954Q141.876 15.82 141.732 14.812Q141.588 13.876 140.904 13.282Q140.22 12.688 138.96 12.724Q138.096 12.76 137.232 13.12Q136.368 13.48 135.54 14.038Q134.712 14.596 133.956 15.28Q133.2 15.964 132.588 16.612Q132.264 17.044 132.3 17.422Q132.336 17.8 132.624 18.088Q132.912 18.376 133.326 18.412Q133.74 18.448 134.064 18.124Q135.108 17.188 136.26 16.36Q137.412 15.532 138.276 15.244Q138.78 15.064 139.122 15.19Q139.464 15.316 139.536 15.856Q139.608 16.324 139.662 16.99Q139.716 17.656 139.752 18.412Q139.788 19.168 139.806 19.906Q139.824 20.644 139.824 21.256Q139.392 20.824 138.888 20.644Q138.384 20.464 137.898 20.446Q137.412 20.428 136.962 20.5Q136.512 20.572 136.26 20.68Q135.252 21.04 134.514 21.688Q133.776 22.336 133.344 23.146Q132.912 23.956 132.804 24.838Q132.696 25.72 132.912 26.548Q133.236 27.772 134.154 28.384Q135.072 28.996 136.224 28.816Q136.836 28.708 137.556 28.42Q138.276 28.132 138.996 27.754Q139.716 27.376 140.364 26.962Q141.012 26.548 141.516 26.188Q142.236 26.584 142.794 26.566Q143.352 26.548 143.568 25.9Q143.748 25.432 143.514 24.82Q143.28 24.208 142.128 23.416Q142.164 22.552 142.164 21.472Q142.164 20.392 142.11 19.24Q142.056 18.088 141.966 16.954ZM73.404 15.064Q72.828 16.036 72.252 16.972Q71.676 17.908 71.01 19.114Q70.344 20.32 69.48 21.904Q68.616 23.488 67.464 25.756Q67.176 26.296 66.888 26.62Q66.6 26.944 66.204 26.944Q65.664 26.944 65.358 26.638Q65.052 26.332 64.836 25.972Q63.648 23.992 62.496 21.58Q61.344 19.168 60.624 16.864Q60.552 16.684 60.642 16.45Q60.732 16.216 60.912 16.144Q61.272 15.964 61.848 16.108Q62.28 16.288 62.712 16.756Q63.144 17.224 63.396 17.728Q63.612 18.232 63.9 18.88Q64.188 19.528 64.53 20.266Q64.872 21.004 65.232 21.724Q65.592 22.444 65.952 23.02Q66.564 21.94 67.266 20.698Q67.968 19.456 68.688 18.178Q69.408 16.9 70.146 15.712Q70.884 14.524 71.604 13.588Q71.784 13.336 72.108 13.3Q72.432 13.264 72.828 13.552Q73.728 14.236 73.404 15.064ZM7.596 32.056Q7.56 32.452 7.236 32.794Q6.912 33.136 6.516 33.1Q5.904 33.064 5.58 32.632Q5.256 32.2 5.256 31.912Q5.256 30.544 5.184 29.05Q5.112 27.556 5.004 25.972Q4.536 26.044 4.158 25.882Q3.78 25.72 3.636 25.36Q3.384 24.748 3.708 24.28Q4.032 23.812 4.752 23.38Q4.572 22.048 4.41 20.752Q4.248 19.456 4.068 18.232Q4.032 18.016 4.104 17.836Q4.176 17.656 4.284 17.494Q4.392 17.332 4.68 17.188Q5.148 17.008 5.742 17.476Q6.336 17.944 6.552 18.664Q6.66 19.348 6.786 20.23Q6.912 21.112 7.02 22.156Q7.776 21.688 8.442 21.148Q9.108 20.608 9.594 19.996Q10.08 19.384 10.332 18.718Q10.584 18.052 10.476 17.332Q10.404 16.72 9.936 16.234Q9.468 15.748 8.46 15.712Q7.56 15.676 6.678 15.856Q5.796 16.036 4.95 16.324Q4.104 16.612 3.294 17.008Q2.484 17.404 1.728 17.8Q1.224 18.088 0.738 18.034Q0.252 17.98 0.108 17.692Q-0.216 16.972 0.162 16.396Q0.54 15.82 1.332 15.316Q2.016 14.92 2.97 14.506Q3.924 14.092 4.986 13.786Q6.048 13.48 7.146 13.354Q8.244 13.228 9.252 13.39Q10.26 13.552 11.07 14.074Q11.88 14.596 12.384 15.604Q12.996 17.26 12.726 18.646Q12.456 20.032 11.646 21.166Q10.836 22.3 9.666 23.218Q8.496 24.136 7.308 24.856Q7.488 26.8 7.56 28.708Q7.632 30.616 7.596 32.056ZM34.74 16.612Q34.812 16.972 34.884 17.368Q34.92 17.692 35.226 17.89Q35.532 18.088 36.036 18.016Q36.432 17.944 36.594 17.62Q36.756 17.296 36.756 16.792Q36.576 15.28 35.568 14.506Q34.56 13.732 33.012 13.66Q32.112 13.66 31.212 14.056Q30.312 14.452 29.61 15.118Q28.908 15.784 28.476 16.648Q28.044 17.512 28.08 18.448Q28.224 19.492 28.764 20.194Q29.304 20.896 30.06 21.4Q30.816 21.904 31.878 22.516Q32.94 23.128 33.858 23.776Q34.776 24.424 35.334 25.018Q35.892 25.612 35.64 26.044Q35.352 26.548 34.632 26.872Q33.912 27.196 33.012 27.394Q32.112 27.592 31.122 27.682Q30.132 27.772 29.268 27.772Q28.656 27.772 28.08 28.024Q27.504 28.276 27.504 28.924Q27.504 29.104 27.702 29.338Q27.9 29.572 28.17 29.788Q28.44 30.004 28.746 30.166Q29.052 30.328 29.268 30.328Q30.168 30.328 31.464 30.202Q32.76 30.076 34.056 29.734Q35.352 29.392 36.432 28.78Q37.512 28.168 37.908 27.196Q38.412 25.936 38.07 24.946Q37.728 23.956 36.792 23.128Q35.856 22.3 34.488 21.508Q33.12 20.716 31.86 19.96Q31.104 19.456 30.708 18.952Q30.312 18.448 30.42 17.908Q30.456 17.62 30.852 17.242Q31.248 16.864 31.824 16.558Q32.4 16.252 33.084 16.108Q33.768 15.964 34.38 16.144Q34.668 16.252 34.74 16.612ZM47.088 17.368Q47.016 16.972 46.944 16.612Q46.872 16.252 46.584 16.144Q45.972 15.964 45.288 16.108Q44.604 16.252 44.028 16.558Q43.452 16.864 43.056 17.242Q42.66 17.62 42.624 17.908Q42.516 18.448 42.912 18.952Q43.308 19.456 44.064 19.96Q45.324 20.716 46.692 21.508Q48.06 22.3 48.996 23.128Q49.932 23.956 50.274 24.946Q50.616 25.936 50.112 27.196Q49.716 28.168 48.636 28.78Q47.556 29.392 46.26 29.734Q44.964 30.076 43.668 30.202Q42.372 30.328 41.472 30.328Q41.256 30.328 40.95 30.166Q40.644 30.004 40.374 29.788Q40.104 29.572 39.906 29.338Q39.708 29.104 39.708 28.924Q39.708 28.276 40.284 28.024Q40.86 27.772 41.472 27.772Q42.336 27.772 43.326 27.682Q44.316 27.592 45.216 27.394Q46.116 27.196 46.836 26.872Q47.556 26.548 47.844 26.044Q48.096 25.612 47.538 25.018Q46.98 24.424 46.062 23.776Q45.144 23.128 44.082 22.516Q43.02 21.904 42.264 21.4Q41.508 20.896 40.968 20.194Q40.428 19.492 40.284 18.448Q40.248 17.512 40.68 16.648Q41.112 15.784 41.814 15.118Q42.516 14.452 43.416 14.056Q44.316 13.66 45.216 13.66Q46.764 13.732 47.772 14.506Q48.78 15.28 48.96 16.792Q48.96 17.296 48.798 17.62Q48.636 17.944 48.24 18.016Q47.736 18.088 47.43 17.89Q47.124 17.692 47.088 17.368ZM186.138 17.458Q186.012 16.792 185.904 16.252Q185.616 14.884 184.356 14.668Q183.456 14.56 183.294 15.046Q183.132 15.532 183.384 16.36Q183.924 18.772 184.266 21.076Q184.608 23.38 184.932 26.188Q184.932 26.44 185.148 26.692Q185.364 26.944 185.724 27.052Q186.12 27.196 186.498 27.106Q186.876 27.016 187.128 26.764Q187.488 25.972 187.902 25.018Q188.316 24.064 188.748 23.11Q189.18 22.156 189.63 21.238Q190.08 20.32 190.512 19.564Q191.016 18.628 191.664 18.592Q192.204 18.52 192.636 19.348Q193.068 20.176 193.41 21.292Q193.752 22.408 194.022 23.488Q194.292 24.568 194.472 25Q194.508 25.18 194.76 25.36Q195.012 25.54 195.516 25.288Q196.596 24.82 196.38 23.848Q196.164 22.768 195.84 21.364Q195.516 19.96 194.958 18.682Q194.4 17.404 193.59 16.54Q192.78 15.676 191.592 15.676Q190.8 15.676 190.134 16.252Q189.468 16.828 188.874 17.71Q188.28 18.592 187.776 19.636Q187.272 20.68 186.84 21.616Q186.768 20.968 186.66 20.248Q186.552 19.528 186.408 18.826Q186.264 18.124 186.138 17.458ZM177.336 15.568Q178.416 15.964 179.154 16.756Q179.892 17.548 180.288 18.538Q180.684 19.528 180.738 20.572Q180.792 21.616 180.504 22.516Q180.108 23.524 179.496 24.496Q178.884 25.468 178.092 26.224Q177.3 26.98 176.292 27.448Q175.284 27.916 174.06 27.916Q172.584 27.916 171.576 27.232Q170.568 26.548 169.992 25.468Q169.416 24.388 169.254 23.02Q169.092 21.652 169.308 20.284Q169.452 19.276 169.794 18.322Q170.136 17.368 170.676 16.63Q171.216 15.892 171.918 15.424Q172.62 14.956 173.52 14.956Q174.024 14.956 174.78 15.154Q175.536 15.352 176.184 15.712Q176.652 15.28 177.336 15.568ZM81.504 20.95Q83.124 20.5 84.528 19.672Q85.14 19.276 85.266 18.772Q85.392 18.268 85.104 17.584Q84.6 16.36 83.34 15.676Q82.08 14.992 80.532 15.1Q79.236 15.172 78.264 15.676Q77.292 16.18 76.644 16.954Q75.996 17.728 75.69 18.736Q75.384 19.744 75.492 20.86Q75.6 22.048 76.032 23.164Q76.464 24.28 77.292 25.108Q78.264 26.044 79.488 26.368Q80.712 26.692 81.864 26.476Q83.196 26.26 84.276 25.45Q85.356 24.64 85.932 23.488Q86.076 22.588 85.572 22.408Q85.392 22.336 85.032 22.426Q84.672 22.516 84.348 22.804Q84.024 23.092 83.592 23.38Q83.16 23.668 82.638 23.902Q82.116 24.136 81.522 24.244Q80.928 24.352 80.352 24.28Q79.38 24.136 78.732 23.398Q78.084 22.66 78.012 21.4Q79.884 21.4 81.504 20.95ZM128.808 19.672Q127.404 20.5 125.784 20.95Q124.164 21.4 122.292 21.4Q122.364 22.66 123.012 23.398Q123.66 24.136 124.632 24.28Q125.208 24.352 125.802 24.244Q126.396 24.136 126.918 23.902Q127.44 23.668 127.872 23.38Q128.304 23.092 128.628 22.804Q128.952 22.516 129.312 22.426Q129.672 22.336 129.852 22.408Q130.356 22.588 130.212 23.488Q129.636 24.64 128.556 25.45Q127.476 26.26 126.144 26.476Q124.992 26.692 123.768 26.368Q122.544 26.044 121.572 25.108Q120.744 24.28 120.312 23.164Q119.88 22.048 119.772 20.86Q119.664 19.744 119.97 18.736Q120.276 17.728 120.924 16.954Q121.572 16.18 122.544 15.676Q123.516 15.172 124.812 15.1Q126.36 14.992 127.62 15.676Q128.88 16.36 129.384 17.584Q129.672 18.268 129.546 18.772Q129.42 19.276 128.808 19.672ZM175.968 18.196Q175.572 17.944 175.05 17.53Q174.528 17.116 174.132 17.116Q173.7 17.116 173.286 17.512Q172.872 17.908 172.566 18.43Q172.26 18.952 172.044 19.492Q171.828 20.032 171.756 20.356Q171.648 20.896 171.612 21.652Q171.576 22.408 171.72 23.146Q171.864 23.884 172.278 24.478Q172.692 25.072 173.52 25.324Q174.024 25.468 174.708 25.306Q175.392 25.144 176.058 24.712Q176.724 24.28 177.318 23.56Q177.912 22.84 178.236 21.904Q178.596 20.86 178.254 19.726Q177.912 18.592 176.868 18.088Q176.616 18.268 176.364 18.268Q176.112 18.268 175.968 18.196ZM79.614 17.476Q80.028 17.296 80.388 17.224Q81.18 17.08 81.954 17.242Q82.728 17.404 83.016 18.088Q82.62 18.34 82.026 18.556Q81.432 18.772 80.73 18.934Q80.028 19.096 79.29 19.204Q78.552 19.312 77.94 19.312Q77.976 18.88 78.246 18.538Q78.516 18.196 78.858 17.926Q79.2 17.656 79.614 17.476ZM124.668 17.224Q124.308 17.296 123.894 17.476Q123.48 17.656 123.138 17.926Q122.796 18.196 122.526 18.538Q122.256 18.88 122.22 19.312Q122.832 19.312 123.57 19.204Q124.308 19.096 125.01 18.934Q125.712 18.772 126.306 18.556Q126.9 18.34 127.296 18.088Q127.008 17.404 126.234 17.242Q125.46 17.08 124.668 17.224ZM58.05 26.674Q58.032 26.008 57.78 25.432Q57.564 24.964 57.42 24.226Q57.276 23.488 57.168 22.696Q57.06 21.904 57.024 21.112Q56.988 20.32 56.988 19.672Q57.024 18.844 56.628 18.286Q56.232 17.728 55.584 17.692Q55.188 17.764 54.936 18.196Q54.684 18.628 54.648 19.132Q54.648 19.6 54.666 20.536Q54.684 21.472 54.792 22.552Q54.9 23.632 55.116 24.73Q55.332 25.828 55.728 26.584Q56.016 27.196 56.592 27.556Q57.168 27.916 57.672 27.592Q58.068 27.34 58.05 26.674ZM103.752 25.432Q104.004 26.008 104.022 26.674Q104.04 27.34 103.644 27.592Q103.14 27.916 102.564 27.556Q101.988 27.196 101.7 26.584Q101.304 25.828 101.088 24.73Q100.872 23.632 100.764 22.552Q100.656 21.472 100.638 20.536Q100.62 19.6 100.62 19.132Q100.656 18.628 100.908 18.196Q101.16 17.764 101.556 17.692Q102.204 17.728 102.6 18.286Q102.996 18.844 102.96 19.672Q102.96 20.32 102.996 21.112Q103.032 21.904 103.14 22.696Q103.248 23.488 103.392 24.226Q103.536 24.964 103.752 25.432ZM165.834 26.674Q165.816 26.008 165.564 25.432Q165.348 24.964 165.204 24.226Q165.06 23.488 164.952 22.696Q164.844 21.904 164.808 21.112Q164.772 20.32 164.772 19.672Q164.808 18.844 164.412 18.286Q164.016 17.728 163.368 17.692Q162.972 17.764 162.72 18.196Q162.468 18.628 162.432 19.132Q162.432 19.6 162.45 20.536Q162.468 21.472 162.576 22.552Q162.684 23.632 162.9 24.73Q163.116 25.828 163.512 26.584Q163.8 27.196 164.376 27.556Q164.952 27.916 165.456 27.592Q165.852 27.34 165.834 26.674ZM110.484 24.064Q109.908 23.596 109.692 22.732Q109.476 21.94 109.818 21.184Q110.16 20.428 110.808 19.816Q111.456 19.204 112.302 18.754Q113.148 18.304 113.904 18.088L114.624 17.908L115.632 24.244L115.308 24.352Q114.444 24.64 113.544 24.748Q112.644 24.856 111.852 24.694Q111.06 24.532 110.484 24.064ZM20.052 22.552Q19.584 22.66 19.062 23.002Q18.54 23.344 18.126 23.83Q17.712 24.316 17.514 24.91Q17.316 25.504 17.496 26.08Q17.568 26.296 17.802 26.404Q18.036 26.512 18.324 26.44Q19.188 26.26 20.286 25.738Q21.384 25.216 22.032 24.604Q22.032 24.388 21.816 24.046Q21.6 23.704 21.312 23.362Q21.024 23.02 20.682 22.768Q20.34 22.516 20.052 22.552ZM136.566 23.002Q137.088 22.66 137.556 22.552Q137.844 22.516 138.186 22.768Q138.528 23.02 138.816 23.362Q139.104 23.704 139.32 24.046Q139.536 24.388 139.536 24.604Q138.888 25.216 137.79 25.738Q136.692 26.26 135.828 26.44Q135.54 26.512 135.306 26.404Q135.072 26.296 135 26.08Q134.82 25.504 135.018 24.91Q135.216 24.316 135.63 23.83Q136.044 23.344 136.566 23.002Z" />
  </g>
</svg>