<?xml version="1.0" encoding="utf-8"?>
<svg width="637px" height="295px" viewBox="0 0 637 295" version="1.1" xmlns:xlink="http://www.w3.org/1999/xlink" xmlns="http://www.w3.org/2000/svg">
  <desc>Created with Lunacy</desc>
  <path d="M0 32.5C0 14.5507 15.2223 0 34 0C52.7777 0 68 14.5507 68 32.5C68 50.4493 52.7777 65 34 65C15.2223 65 0 50.4493 0 32.5Z" transform="translate(87.2711 145)" id="Ellipse" fill="none" stroke="#2C2C2C" stroke-width="3" stroke-dasharray="6 8" />
  <path d="M0 0L44 80" transform="translate(56.2711 49)" id="New-shape" fill="none" stroke="#808080" stroke-width="2" />
  <path d="M0 9L14.5 16.5L13.51 0.164642L13.5 0" transform="translate(90.7711 120.5)" id="New-shape-2" fill="none" stroke="#808080" stroke-width="2" />
  <path d="M0 0L44 80" transform="matrix(0.7986355 0.601815 -0.601815 0.7986355 138.4163 70.99997)" id="New-shape-3" fill="none" stroke="#808080" stroke-width="2" />
  <path d="M0 9L14.5 16.5L13.51 0.164642L13.5 0" transform="matrix(0.7986355 0.601815 -0.601815 0.7986355 122.9394 148.865)" id="New-shape-4" fill="none" stroke="#808080" stroke-width="2" />
  <path d="M0 0L44 80" transform="matrix(0.9455186 -0.3255681 0.3255681 0.9455186 1.271088 97.35857)" id="New-shape-5" fill="none" stroke="#808080" stroke-width="2" />
  <path d="M0 9L14.5 16.5L13.51 0.164642L13.5 0" transform="matrix(0.9455186 -0.3255681 0.3255681 0.9455186 57.16956 153.731)" id="New-shape-6" fill="none" stroke="#808080" stroke-width="2" />
  <path d="M0 0L44 80" transform="matrix(0.309017 -0.9510565 0.9510565 0.309017 7.271103 200.8466)" id="New-shape-7" fill="none" stroke="#808080" stroke-width="2" />
  <path d="M0 9L14.5 16.5L13.51 0.164642L13.5 0" transform="matrix(0.309017 -0.9510565 0.9510565 0.309017 85.93266 190.1298)" id="New-shape-8" fill="none" stroke="#808080" stroke-width="2" />
  <path d="M0 9L14.5 16.5L13.51 0.164642L13.5 0" transform="matrix(0.8571673 -0.5150381 0.5150381 0.8571673 503.2711 155)" id="New-shape-18" fill="none" stroke="#808080" stroke-width="2" />
  <path d="M0 9L14.5 16.5L13.51 0.164642L13.5 0" transform="matrix(0.3583676 -0.9335805 0.9335805 0.3583676 496.9364 194.0062)" id="New-shape-20" fill="none" stroke="#808080" stroke-width="2" />
  <path d="M0 9L14.5 16.5L13.51 0.164642L13.5 0" transform="matrix(0.2588191 0.9659258 -0.9659258 0.2588191 553.2712 159.0001)" id="New-shape-22" fill="none" stroke="#808080" stroke-width="2" />
  <path d="M0 0L44 80" transform="matrix(-0.3090169 -0.9510565 0.9510565 -0.3090169 44.18649 289.9999)" id="New-shape-9" fill="none" stroke="#808080" stroke-width="2" />
  <path d="M0 9L14.5 16.5L13.51 0.164642L13.5 0" transform="matrix(-0.3090169 -0.9510565 0.9510565 -0.3090169 101.5259 235.0938)" id="New-shape-10" fill="none" stroke="#808080" stroke-width="2" />
  <path d="M0 0L44 80" transform="matrix(-0.9455186 0.3255681 -0.3255681 -0.9455186 223.2514 278.6415)" id="New-shape-11" fill="none" stroke="#808080" stroke-width="2" />
  <path d="M0 9L14.5 16.5L13.51 0.164642L13.5 0" transform="matrix(-0.9455186 0.3255681 -0.3255681 -0.9455186 167.353 222.269)" id="New-shape-12" fill="none" stroke="#808080" stroke-width="2" />
  <path d="M0 0L44 80" transform="matrix(-0.5735765 0.819152 -0.819152 -0.5735765 260.4616 195.886)" id="New-shape-13" fill="none" stroke="#808080" stroke-width="2" />
  <path d="M0 9L14.5 16.5L13.51 0.164642L13.5 0" transform="matrix(-0.5735765 0.819152 -0.819152 -0.5735765 182.1039 183.1361)" id="New-shape-14" fill="none" stroke="#808080" stroke-width="2" />
  <path d="M0 0L44 80" transform="matrix(-0.190809 0.9816272 -0.9816272 -0.190809 253.271 125.8084)" id="New-shape-15" fill="none" stroke="#808080" stroke-width="2" />
  <path d="M0 9L14.5 16.5L13.51 0.164642L13.5 0" transform="matrix(-0.190809 0.9816272 -0.9816272 -0.190809 176.5018 146.0317)" id="New-shape-16" fill="none" stroke="#808080" stroke-width="2" />
  <path d="M0 4C0 1.79086 2.01472 0 4.5 0C6.98528 0 9 1.79086 9 4C9 6.20914 6.98528 8 4.5 8C2.01472 8 0 6.20914 0 4Z" transform="translate(120.2711 174)" id="Ellipse-14" fill="#000000" stroke="none" />
  <path d="M0 4C0 1.79086 2.01472 0 4.5 0C6.98528 0 9 1.79086 9 4C9 6.20914 6.98528 8 4.5 8C2.01472 8 0 6.20914 0 4Z" transform="translate(108.2711 175)" id="Ellipse-15" fill="#000000" stroke="none" />
  <path d="M0 32.5C0 14.5507 15.2223 0 34 0C52.7777 0 68 14.5507 68 32.5C68 50.4493 52.7777 65 34 65C15.2223 65 0 50.4493 0 32.5Z" transform="translate(492.2711 144)" id="Ellipse-16" fill="none" stroke="#2C2C2C" stroke-width="3" stroke-dasharray="6 8" />
  <path d="M0 4C0 1.79086 2.01472 0 4.5 0C6.98528 0 9 1.79086 9 4C9 6.20914 6.98528 8 4.5 8C2.01472 8 0 6.20914 0 4Z" transform="translate(525.2711 160)" id="Ellipse-17" fill="#000000" stroke="none" />
  <path d="M0 4C0 1.79086 2.01472 0 4.5 0C6.98528 0 9 1.79086 9 4C9 6.20914 6.98528 8 4.5 8C2.01472 8 0 6.20914 0 4Z" transform="translate(519.2711 183)" id="Ellipse-18" fill="#000000" stroke="none" />
  <path d="M0 4.5C0 2.01472 2.01472 0 4.5 0C6.98528 0 9 2.01472 9 4.5C9 6.98528 6.98528 9 4.5 9C2.01472 9 0 6.98528 0 4.5Z" transform="translate(531.2711 178)" id="Ellipse-19" fill="#000000" stroke="none" />
  <g id="passive-ideation" transform="translate(14.2711 0)">
    <path d="M113.418 8.692Q113.22 9.232 113.328 9.88L114.228 15.568L113.58 15.712Q111.852 16.144 110.628 16.9Q109.404 17.656 108.576 18.592Q106.632 20.86 107.496 23.632Q107.892 24.892 108.81 25.702Q109.728 26.512 110.916 26.872Q112.104 27.232 113.4 27.178Q114.696 27.124 115.884 26.692L116.028 26.656L116.064 26.872Q116.172 27.34 116.55 27.52Q116.928 27.7 117.36 27.52Q117.756 27.34 118.044 26.962Q118.332 26.584 118.188 25.54Q117.684 21.616 117.054 17.53Q116.424 13.444 115.704 9.304Q115.596 8.728 115.182 8.368Q114.768 8.008 114.228 8.08Q113.616 8.152 113.418 8.692ZM153.828 18.484Q154.512 18.448 155.196 18.808Q155.88 19.168 155.88 19.924Q155.808 20.536 155.214 20.698Q154.62 20.86 154.26 20.86Q153.54 20.86 152.712 20.896Q151.884 20.932 151.02 21.004Q150.948 22.192 150.894 23.236Q150.84 24.28 150.804 25.09Q150.768 25.9 150.768 26.404Q150.768 26.908 150.804 26.944Q151.596 26.8 152.514 26.458Q153.432 26.116 154.35 25.702Q155.268 25.288 156.15 24.838Q157.032 24.388 157.824 23.992Q158.184 23.812 158.49 23.884Q158.796 23.956 158.868 24.208Q158.94 24.604 158.76 25.18Q158.58 25.756 158.112 26.224Q157.572 26.656 156.69 27.214Q155.808 27.772 154.8 28.276Q153.792 28.78 152.766 29.158Q151.74 29.536 150.948 29.608Q149.76 29.716 149.148 28.96Q148.536 28.204 148.464 27.052Q148.392 25.9 148.446 24.388Q148.5 22.876 148.572 21.184Q147.888 21.256 147.258 21.31Q146.628 21.364 146.052 21.436Q145.584 21.436 145.026 21.22Q144.468 21.004 144.468 20.392Q144.468 20.176 144.648 19.816Q144.828 19.456 145.44 19.276Q146.916 19.024 148.716 18.844Q148.824 17.152 148.968 15.568Q149.112 13.984 149.22 12.688Q149.256 12.256 149.472 11.932Q149.688 11.608 149.94 11.608Q150.552 11.572 151.11 11.914Q151.668 12.256 151.668 12.688Q151.524 13.912 151.398 15.46Q151.272 17.008 151.164 18.628Q151.884 18.556 152.55 18.538Q153.216 18.52 153.828 18.484ZM58.104 13.84Q58.536 13.804 58.608 13.444Q58.68 12.94 58.338 12.58Q57.996 12.22 57.42 12.04Q57.024 11.932 56.412 11.914Q55.8 11.896 55.134 11.968Q54.468 12.04 53.82 12.202Q53.172 12.364 52.704 12.58Q52.416 12.724 52.2 12.904Q51.984 13.084 51.984 13.372Q52.092 14.128 52.596 14.38Q53.1 14.632 53.532 14.488Q54.576 14.2 55.53 14.056Q56.484 13.912 57.384 13.876Q57.672 13.876 58.104 13.84ZM104.58 13.444Q104.508 13.804 104.076 13.84Q103.644 13.876 103.356 13.876Q102.456 13.912 101.502 14.056Q100.548 14.2 99.504 14.488Q99.072 14.632 98.568 14.38Q98.064 14.128 97.956 13.372Q97.956 13.084 98.172 12.904Q98.388 12.724 98.676 12.58Q99.144 12.364 99.792 12.202Q100.44 12.04 101.106 11.968Q101.772 11.896 102.384 11.914Q102.996 11.932 103.392 12.04Q103.968 12.22 104.31 12.58Q104.652 12.94 104.58 13.444ZM165.888 13.84Q166.32 13.804 166.392 13.444Q166.464 12.94 166.122 12.58Q165.78 12.22 165.204 12.04Q164.808 11.932 164.196 11.914Q163.584 11.896 162.918 11.968Q162.252 12.04 161.604 12.202Q160.956 12.364 160.488 12.58Q160.2 12.724 159.984 12.904Q159.768 13.084 159.768 13.372Q159.876 14.128 160.38 14.38Q160.884 14.632 161.316 14.488Q162.36 14.2 163.314 14.056Q164.268 13.912 165.168 13.876Q165.456 13.876 165.888 13.84ZM24.228 14.812Q24.372 15.82 24.462 16.954Q24.552 18.088 24.606 19.24Q24.66 20.392 24.66 21.472Q24.66 22.552 24.624 23.416Q25.776 24.208 26.01 24.82Q26.244 25.432 26.064 25.9Q25.848 26.548 25.29 26.566Q24.732 26.584 24.012 26.188Q23.508 26.548 22.86 26.962Q22.212 27.376 21.492 27.754Q20.772 28.132 20.052 28.42Q19.332 28.708 18.72 28.816Q17.568 28.996 16.65 28.384Q15.732 27.772 15.408 26.548Q15.192 25.72 15.3 24.838Q15.408 23.956 15.84 23.146Q16.272 22.336 17.01 21.688Q17.748 21.04 18.756 20.68Q19.008 20.572 19.458 20.5Q19.908 20.428 20.394 20.446Q20.88 20.464 21.384 20.644Q21.888 20.824 22.32 21.256Q22.32 20.644 22.302 19.906Q22.284 19.168 22.248 18.412Q22.212 17.656 22.158 16.99Q22.104 16.324 22.032 15.856Q21.96 15.316 21.618 15.19Q21.276 15.064 20.772 15.244Q19.908 15.532 18.756 16.36Q17.604 17.188 16.56 18.124Q16.236 18.448 15.822 18.412Q15.408 18.376 15.12 18.088Q14.832 17.8 14.796 17.422Q14.76 17.044 15.084 16.612Q15.696 15.964 16.452 15.28Q17.208 14.596 18.036 14.038Q18.864 13.48 19.728 13.12Q20.592 12.76 21.456 12.724Q22.716 12.688 23.4 13.282Q24.084 13.876 24.228 14.812ZM141.966 16.954Q141.876 15.82 141.732 14.812Q141.588 13.876 140.904 13.282Q140.22 12.688 138.96 12.724Q138.096 12.76 137.232 13.12Q136.368 13.48 135.54 14.038Q134.712 14.596 133.956 15.28Q133.2 15.964 132.588 16.612Q132.264 17.044 132.3 17.422Q132.336 17.8 132.624 18.088Q132.912 18.376 133.326 18.412Q133.74 18.448 134.064 18.124Q135.108 17.188 136.26 16.36Q137.412 15.532 138.276 15.244Q138.78 15.064 139.122 15.19Q139.464 15.316 139.536 15.856Q139.608 16.324 139.662 16.99Q139.716 17.656 139.752 18.412Q139.788 19.168 139.806 19.906Q139.824 20.644 139.824 21.256Q139.392 20.824 138.888 20.644Q138.384 20.464 137.898 20.446Q137.412 20.428 136.962 20.5Q136.512 20.572 136.26 20.68Q135.252 21.04 134.514 21.688Q133.776 22.336 133.344 23.146Q132.912 23.956 132.804 24.838Q132.696 25.72 132.912 26.548Q133.236 27.772 134.154 28.384Q135.072 28.996 136.224 28.816Q136.836 28.708 137.556 28.42Q138.276 28.132 138.996 27.754Q139.716 27.376 140.364 26.962Q141.012 26.548 141.516 26.188Q142.236 26.584 142.794 26.566Q143.352 26.548 143.568 25.9Q143.748 25.432 143.514 24.82Q143.28 24.208 142.128 23.416Q142.164 22.552 142.164 21.472Q142.164 20.392 142.11 19.24Q142.056 18.088 141.966 16.954ZM73.404 15.064Q72.828 16.036 72.252 16.972Q71.676 17.908 71.01 19.114Q70.344 20.32 69.48 21.904Q68.616 23.488 67.464 25.756Q67.176 26.296 66.888 26.62Q66.6 26.944 66.204 26.944Q65.664 26.944 65.358 26.638Q65.052 26.332 64.836 25.972Q63.648 23.992 62.496 21.58Q61.344 19.168 60.624 16.864Q60.552 16.684 60.642 16.45Q60.732 16.216 60.912 16.144Q61.272 15.964 61.848 16.108Q62.28 16.288 62.712 16.756Q63.144 17.224 63.396 17.728Q63.612 18.232 63.9 18.88Q64.188 19.528 64.53 20.266Q64.872 21.004 65.232 21.724Q65.592 22.444 65.952 23.02Q66.564 21.94 67.266 20.698Q67.968 19.456 68.688 18.178Q69.408 16.9 70.146 15.712Q70.884 14.524 71.604 13.588Q71.784 13.336 72.108 13.3Q72.432 13.264 72.828 13.552Q73.728 14.236 73.404 15.064ZM7.596 32.056Q7.56 32.452 7.236 32.794Q6.912 33.136 6.516 33.1Q5.904 33.064 5.58 32.632Q5.256 32.2 5.256 31.912Q5.256 30.544 5.184 29.05Q5.112 27.556 5.004 25.972Q4.536 26.044 4.158 25.882Q3.78 25.72 3.636 25.36Q3.384 24.748 3.708 24.28Q4.032 23.812 4.752 23.38Q4.572 22.048 4.41 20.752Q4.248 19.456 4.068 18.232Q4.032 18.016 4.104 17.836Q4.176 17.656 4.284 17.494Q4.392 17.332 4.68 17.188Q5.148 17.008 5.742 17.476Q6.336 17.944 6.552 18.664Q6.66 19.348 6.786 20.23Q6.912 21.112 7.02 22.156Q7.776 21.688 8.442 21.148Q9.108 20.608 9.594 19.996Q10.08 19.384 10.332 18.718Q10.584 18.052 10.476 17.332Q10.404 16.72 9.936 16.234Q9.468 15.748 8.46 15.712Q7.56 15.676 6.678 15.856Q5.796 16.036 4.95 16.324Q4.104 16.612 3.294 17.008Q2.484 17.404 1.728 17.8Q1.224 18.088 0.738 18.034Q0.252 17.98 0.108 17.692Q-0.216 16.972 0.162 16.396Q0.54 15.82 1.332 15.316Q2.016 14.92 2.97 14.506Q3.924 14.092 4.986 13.786Q6.048 13.48 7.146 13.354Q8.244 13.228 9.252 13.39Q10.26 13.552 11.07 14.074Q11.88 14.596 12.384 15.604Q12.996 17.26 12.726 18.646Q12.456 20.032 11.646 21.166Q10.836 22.3 9.666 23.218Q8.496 24.136 7.308 24.856Q7.488 26.8 7.56 28.708Q7.632 30.616 7.596 32.056ZM34.74 16.612Q34.812 16.972 34.884 17.368Q34.92 17.692 35.226 17.89Q35.532 18.088 36.036 18.016Q36.432 17.944 36.594 17.62Q36.756 17.296 36.756 16.792Q36.576 15.28 35.568 14.506Q34.56 13.732 33.012 13.66Q32.112 13.66 31.212 14.056Q30.312 14.452 29.61 15.118Q28.908 15.784 28.476 16.648Q28.044 17.512 28.08 18.448Q28.224 19.492 28.764 20.194Q29.304 20.896 30.06 21.4Q30.816 21.904 31.878 22.516Q32.94 23.128 33.858 23.776Q34.776 24.424 35.334 25.018Q35.892 25.612 35.64 26.044Q35.352 26.548 34.632 26.872Q33.912 27.196 33.012 27.394Q32.112 27.592 31.122 27.682Q30.132 27.772 29.268 27.772Q28.656 27.772 28.08 28.024Q27.504 28.276 27.504 28.924Q27.504 29.104 27.702 29.338Q27.9 29.572 28.17 29.788Q28.44 30.004 28.746 30.166Q29.052 30.328 29.268 30.328Q30.168 30.328 31.464 30.202Q32.76 30.076 34.056 29.734Q35.352 29.392 36.432 28.78Q37.512 28.168 37.908 27.196Q38.412 25.936 38.07 24.946Q37.728 23.956 36.792 23.128Q35.856 22.3 34.488 21.508Q33.12 20.716 31.86 19.96Q31.104 19.456 30.708 18.952Q30.312 18.448 30.42 17.908Q30.456 17.62 30.852 17.242Q31.248 16.864 31.824 16.558Q32.4 16.252 33.084 16.108Q33.768 15.964 34.38 16.144Q34.668 16.252 34.74 16.612ZM47.088 17.368Q47.016 16.972 46.944 16.612Q46.872 16.252 46.584 16.144Q45.972 15.964 45.288 16.108Q44.604 16.252 44.028 16.558Q43.452 16.864 43.056 17.242Q42.66 17.62 42.624 17.908Q42.516 18.448 42.912 18.952Q43.308 19.456 44.064 19.96Q45.324 20.716 46.692 21.508Q48.06 22.3 48.996 23.128Q49.932 23.956 50.274 24.946Q50.616 25.936 50.112 27.196Q49.716 28.168 48.636 28.78Q47.556 29.392 46.26 29.734Q44.964 30.076 43.668 30.202Q42.372 30.328 41.472 30.328Q41.256 30.328 40.95 30.166Q40.644 30.004 40.374 29.788Q40.104 29.572 39.906 29.338Q39.708 29.104 39.708 28.924Q39.708 28.276 40.284 28.024Q40.86 27.772 41.472 27.772Q42.336 27.772 43.326 27.682Q44.316 27.592 45.216 27.394Q46.116 27.196 46.836 26.872Q47.556 26.548 47.844 26.044Q48.096 25.612 47.538 25.018Q46.98 24.424 46.062 23.776Q45.144 23.128 44.082 22.516Q43.02 21.904 42.264 21.4Q41.508 20.896 40.968 20.194Q40.428 19.492 40.284 18.448Q40.248 17.512 40.68 16.648Q41.112 15.784 41.814 15.118Q42.516 14.452 43.416 14.056Q44.316 13.66 45.216 13.66Q46.764 13.732 47.772 14.506Q48.78 15.28 48.96 16.792Q48.96 17.296 48.798 17.62Q48.636 17.944 48.24 18.016Q47.736 18.088 47.43 17.89Q47.124 17.692 47.088 17.368ZM186.138 17.458Q186.012 16.792 185.904 16.252Q185.616 14.884 184.356 14.668Q183.456 14.56 183.294 15.046Q183.132 15.532 183.384 16.36Q183.924 18.772 184.266 21.076Q184.608 23.38 184.932 26.188Q184.932 26.44 185.148 26.692Q185.364 26.944 185.724 27.052Q186.12 27.196 186.498 27.106Q186.876 27.016 187.128 26.764Q187.488 25.972 187.902 25.018Q188.316 24.064 188.748 23.11Q189.18 22.156 189.63 21.238Q190.08 20.32 190.512 19.564Q191.016 18.628 191.664 18.592Q192.204 18.52 192.636 19.348Q193.068 20.176 193.41 21.292Q193.752 22.408 194.022 23.488Q194.292 24.568 194.472 25Q194.508 25.18 194.76 25.36Q195.012 25.54 195.516 25.288Q196.596 24.82 196.38 23.848Q196.164 22.768 195.84 21.364Q195.516 19.96 194.958 18.682Q194.4 17.404 193.59 16.54Q192.78 15.676 191.592 15.676Q190.8 15.676 190.134 16.252Q189.468 16.828 188.874 17.71Q188.28 18.592 187.776 19.636Q187.272 20.68 186.84 21.616Q186.768 20.968 186.66 20.248Q186.552 19.528 186.408 18.826Q186.264 18.124 186.138 17.458ZM177.336 15.568Q178.416 15.964 179.154 16.756Q179.892 17.548 180.288 18.538Q180.684 19.528 180.738 20.572Q180.792 21.616 180.504 22.516Q180.108 23.524 179.496 24.496Q178.884 25.468 178.092 26.224Q177.3 26.98 176.292 27.448Q175.284 27.916 174.06 27.916Q172.584 27.916 171.576 27.232Q170.568 26.548 169.992 25.468Q169.416 24.388 169.254 23.02Q169.092 21.652 169.308 20.284Q169.452 19.276 169.794 18.322Q170.136 17.368 170.676 16.63Q171.216 15.892 171.918 15.424Q172.62 14.956 173.52 14.956Q174.024 14.956 174.78 15.154Q175.536 15.352 176.184 15.712Q176.652 15.28 177.336 15.568ZM81.504 20.95Q83.124 20.5 84.528 19.672Q85.14 19.276 85.266 18.772Q85.392 18.268 85.104 17.584Q84.6 16.36 83.34 15.676Q82.08 14.992 80.532 15.1Q79.236 15.172 78.264 15.676Q77.292 16.18 76.644 16.954Q75.996 17.728 75.69 18.736Q75.384 19.744 75.492 20.86Q75.6 22.048 76.032 23.164Q76.464 24.28 77.292 25.108Q78.264 26.044 79.488 26.368Q80.712 26.692 81.864 26.476Q83.196 26.26 84.276 25.45Q85.356 24.64 85.932 23.488Q86.076 22.588 85.572 22.408Q85.392 22.336 85.032 22.426Q84.672 22.516 84.348 22.804Q84.024 23.092 83.592 23.38Q83.16 23.668 82.638 23.902Q82.116 24.136 81.522 24.244Q80.928 24.352 80.352 24.28Q79.38 24.136 78.732 23.398Q78.084 22.66 78.012 21.4Q79.884 21.4 81.504 20.95ZM128.808 19.672Q127.404 20.5 125.784 20.95Q124.164 21.4 122.292 21.4Q122.364 22.66 123.012 23.398Q123.66 24.136 124.632 24.28Q125.208 24.352 125.802 24.244Q126.396 24.136 126.918 23.902Q127.44 23.668 127.872 23.38Q128.304 23.092 128.628 22.804Q128.952 22.516 129.312 22.426Q129.672 22.336 129.852 22.408Q130.356 22.588 130.212 23.488Q129.636 24.64 128.556 25.45Q127.476 26.26 126.144 26.476Q124.992 26.692 123.768 26.368Q122.544 26.044 121.572 25.108Q120.744 24.28 120.312 23.164Q119.88 22.048 119.772 20.86Q119.664 19.744 119.97 18.736Q120.276 17.728 120.924 16.954Q121.572 16.18 122.544 15.676Q123.516 15.172 124.812 15.1Q126.36 14.992 127.62 15.676Q128.88 16.36 129.384 17.584Q129.672 18.268 129.546 18.772Q129.42 19.276 128.808 19.672ZM175.968 18.196Q175.572 17.944 175.05 17.53Q174.528 17.116 174.132 17.116Q173.7 17.116 173.286 17.512Q172.872 17.908 172.566 18.43Q172.26 18.952 172.044 19.492Q171.828 20.032 171.756 20.356Q171.648 20.896 171.612 21.652Q171.576 22.408 171.72 23.146Q171.864 23.884 172.278 24.478Q172.692 25.072 173.52 25.324Q174.024 25.468 174.708 25.306Q175.392 25.144 176.058 24.712Q176.724 24.28 177.318 23.56Q177.912 22.84 178.236 21.904Q178.596 20.86 178.254 19.726Q177.912 18.592 176.868 18.088Q176.616 18.268 176.364 18.268Q176.112 18.268 175.968 18.196ZM79.614 17.476Q80.028 17.296 80.388 17.224Q81.18 17.08 81.954 17.242Q82.728 17.404 83.016 18.088Q82.62 18.34 82.026 18.556Q81.432 18.772 80.73 18.934Q80.028 19.096 79.29 19.204Q78.552 19.312 77.94 19.312Q77.976 18.88 78.246 18.538Q78.516 18.196 78.858 17.926Q79.2 17.656 79.614 17.476ZM124.668 17.224Q124.308 17.296 123.894 17.476Q123.48 17.656 123.138 17.926Q122.796 18.196 122.526 18.538Q122.256 18.88 122.22 19.312Q122.832 19.312 123.57 19.204Q124.308 19.096 125.01 18.934Q125.712 18.772 126.306 18.556Q126.9 18.34 127.296 18.088Q127.008 17.404 126.234 17.242Q125.46 17.08 124.668 17.224ZM58.05 26.674Q58.032 26.008 57.78 25.432Q57.564 24.964 57.42 24.226Q57.276 23.488 57.168 22.696Q57.06 21.904 57.024 21.112Q56.988 20.32 56.988 19.672Q57.024 18.844 56.628 18.286Q56.232 17.728 55.584 17.692Q55.188 17.764 54.936 18.196Q54.684 18.628 54.648 19.132Q54.648 19.6 54.666 20.536Q54.684 21.472 54.792 22.552Q54.9 23.632 55.116 24.73Q55.332 25.828 55.728 26.584Q56.016 27.196 56.592 27.556Q57.168 27.916 57.672 27.592Q58.068 27.34 58.05 26.674ZM103.752 25.432Q104.004 26.008 104.022 26.674Q104.04 27.34 103.644 27.592Q103.14 27.916 102.564 27.556Q101.988 27.196 101.7 26.584Q101.304 25.828 101.088 24.73Q100.872 23.632 100.764 22.552Q100.656 21.472 100.638 20.536Q100.62 19.6 100.62 19.132Q100.656 18.628 100.908 18.196Q101.16 17.764 101.556 17.692Q102.204 17.728 102.6 18.286Q102.996 18.844 102.96 19.672Q102.96 20.32 102.996 21.112Q103.032 21.904 103.14 22.696Q103.248 23.488 103.392 24.226Q103.536 24.964 103.752 25.432ZM165.834 26.674Q165.816 26.008 165.564 25.432Q165.348 24.964 165.204 24.226Q165.06 23.488 164.952 22.696Q164.844 21.904 164.808 21.112Q164.772 20.32 164.772 19.672Q164.808 18.844 164.412 18.286Q164.016 17.728 163.368 17.692Q162.972 17.764 162.72 18.196Q162.468 18.628 162.432 19.132Q162.432 19.6 162.45 20.536Q162.468 21.472 162.576 22.552Q162.684 23.632 162.9 24.73Q163.116 25.828 163.512 26.584Q163.8 27.196 164.376 27.556Q164.952 27.916 165.456 27.592Q165.852 27.34 165.834 26.674ZM110.484 24.064Q109.908 23.596 109.692 22.732Q109.476 21.94 109.818 21.184Q110.16 20.428 110.808 19.816Q111.456 19.204 112.302 18.754Q113.148 18.304 113.904 18.088L114.624 17.908L115.632 24.244L115.308 24.352Q114.444 24.64 113.544 24.748Q112.644 24.856 111.852 24.694Q111.06 24.532 110.484 24.064ZM20.052 22.552Q19.584 22.66 19.062 23.002Q18.54 23.344 18.126 23.83Q17.712 24.316 17.514 24.91Q17.316 25.504 17.496 26.08Q17.568 26.296 17.802 26.404Q18.036 26.512 18.324 26.44Q19.188 26.26 20.286 25.738Q21.384 25.216 22.032 24.604Q22.032 24.388 21.816 24.046Q21.6 23.704 21.312 23.362Q21.024 23.02 20.682 22.768Q20.34 22.516 20.052 22.552ZM136.566 23.002Q137.088 22.66 137.556 22.552Q137.844 22.516 138.186 22.768Q138.528 23.02 138.816 23.362Q139.104 23.704 139.32 24.046Q139.536 24.388 139.536 24.604Q138.888 25.216 137.79 25.738Q136.692 26.26 135.828 26.44Q135.54 26.512 135.306 26.404Q135.072 26.296 135 26.08Q134.82 25.504 135.018 24.91Q135.216 24.316 135.63 23.83Q136.044 23.344 136.566 23.002Z" />
  </g>
  <g id="active-ideation" transform="translate(428.2711 7)">
    <path d="M102.978 8.692Q102.78 9.232 102.888 9.88L103.788 15.568L103.14 15.712Q101.412 16.144 100.188 16.9Q98.964 17.656 98.136 18.592Q96.192 20.86 97.056 23.632Q97.452 24.892 98.37 25.702Q99.288 26.512 100.476 26.872Q101.664 27.232 102.96 27.178Q104.256 27.124 105.444 26.692L105.588 26.656L105.624 26.872Q105.732 27.34 106.11 27.52Q106.488 27.7 106.92 27.52Q107.316 27.34 107.604 26.962Q107.892 26.584 107.748 25.54Q107.244 21.616 106.614 17.53Q105.984 13.444 105.264 9.304Q105.156 8.728 104.742 8.368Q104.328 8.008 103.788 8.08Q103.176 8.152 102.978 8.692ZM35.604 18.484Q36.288 18.448 36.972 18.808Q37.656 19.168 37.656 19.924Q37.584 20.536 36.99 20.698Q36.396 20.86 36.036 20.86Q35.316 20.86 34.488 20.896Q33.66 20.932 32.796 21.004Q32.724 22.192 32.67 23.236Q32.616 24.28 32.58 25.09Q32.544 25.9 32.544 26.404Q32.544 26.908 32.58 26.944Q33.372 26.8 34.29 26.458Q35.208 26.116 36.126 25.702Q37.044 25.288 37.926 24.838Q38.808 24.388 39.6 23.992Q39.96 23.812 40.266 23.884Q40.572 23.956 40.644 24.208Q40.716 24.604 40.536 25.18Q40.356 25.756 39.888 26.224Q39.348 26.656 38.466 27.214Q37.584 27.772 36.576 28.276Q35.568 28.78 34.542 29.158Q33.516 29.536 32.724 29.608Q31.536 29.716 30.924 28.96Q30.312 28.204 30.24 27.052Q30.168 25.9 30.222 24.388Q30.276 22.876 30.348 21.184Q29.664 21.256 29.034 21.31Q28.404 21.364 27.828 21.436Q27.36 21.436 26.802 21.22Q26.244 21.004 26.244 20.392Q26.244 20.176 26.424 19.816Q26.604 19.456 27.216 19.276Q28.692 19.024 30.492 18.844Q30.6 17.152 30.744 15.568Q30.888 13.984 30.996 12.688Q31.032 12.256 31.248 11.932Q31.464 11.608 31.716 11.608Q32.328 11.572 32.886 11.914Q33.444 12.256 33.444 12.688Q33.3 13.912 33.174 15.46Q33.048 17.008 32.94 18.628Q33.66 18.556 34.326 18.538Q34.992 18.52 35.604 18.484ZM143.388 18.484Q144.072 18.448 144.756 18.808Q145.44 19.168 145.44 19.924Q145.368 20.536 144.774 20.698Q144.18 20.86 143.82 20.86Q143.1 20.86 142.272 20.896Q141.444 20.932 140.58 21.004Q140.508 22.192 140.454 23.236Q140.4 24.28 140.364 25.09Q140.328 25.9 140.328 26.404Q140.328 26.908 140.364 26.944Q141.156 26.8 142.074 26.458Q142.992 26.116 143.91 25.702Q144.828 25.288 145.71 24.838Q146.592 24.388 147.384 23.992Q147.744 23.812 148.05 23.884Q148.356 23.956 148.428 24.208Q148.5 24.604 148.32 25.18Q148.14 25.756 147.672 26.224Q147.132 26.656 146.25 27.214Q145.368 27.772 144.36 28.276Q143.352 28.78 142.326 29.158Q141.3 29.536 140.508 29.608Q139.32 29.716 138.708 28.96Q138.096 28.204 138.024 27.052Q137.952 25.9 138.006 24.388Q138.06 22.876 138.132 21.184Q137.448 21.256 136.818 21.31Q136.188 21.364 135.612 21.436Q135.144 21.436 134.586 21.22Q134.028 21.004 134.028 20.392Q134.028 20.176 134.208 19.816Q134.388 19.456 135 19.276Q136.476 19.024 138.276 18.844Q138.384 17.152 138.528 15.568Q138.672 13.984 138.78 12.688Q138.816 12.256 139.032 11.932Q139.248 11.608 139.5 11.608Q140.112 11.572 140.67 11.914Q141.228 12.256 141.228 12.688Q141.084 13.912 140.958 15.46Q140.832 17.008 140.724 18.628Q141.444 18.556 142.11 18.538Q142.776 18.52 143.388 18.484ZM47.664 13.84Q48.096 13.804 48.168 13.444Q48.24 12.94 47.898 12.58Q47.556 12.22 46.98 12.04Q46.584 11.932 45.972 11.914Q45.36 11.896 44.694 11.968Q44.028 12.04 43.38 12.202Q42.732 12.364 42.264 12.58Q41.976 12.724 41.76 12.904Q41.544 13.084 41.544 13.372Q41.652 14.128 42.156 14.38Q42.66 14.632 43.092 14.488Q44.136 14.2 45.09 14.056Q46.044 13.912 46.944 13.876Q47.232 13.876 47.664 13.84ZM94.14 13.444Q94.068 13.804 93.636 13.84Q93.204 13.876 92.916 13.876Q92.016 13.912 91.062 14.056Q90.108 14.2 89.064 14.488Q88.632 14.632 88.128 14.38Q87.624 14.128 87.516 13.372Q87.516 13.084 87.732 12.904Q87.948 12.724 88.236 12.58Q88.704 12.364 89.352 12.202Q90 12.04 90.666 11.968Q91.332 11.896 91.944 11.914Q92.556 11.932 92.952 12.04Q93.528 12.22 93.87 12.58Q94.212 12.94 94.14 13.444ZM155.448 13.84Q155.88 13.804 155.952 13.444Q156.024 12.94 155.682 12.58Q155.34 12.22 154.764 12.04Q154.368 11.932 153.756 11.914Q153.144 11.896 152.478 11.968Q151.812 12.04 151.164 12.202Q150.516 12.364 150.048 12.58Q149.76 12.724 149.544 12.904Q149.328 13.084 149.328 13.372Q149.436 14.128 149.94 14.38Q150.444 14.632 150.876 14.488Q151.92 14.2 152.874 14.056Q153.828 13.912 154.728 13.876Q155.016 13.876 155.448 13.84ZM10.71 16.954Q10.62 15.82 10.476 14.812Q10.332 13.876 9.648 13.282Q8.964 12.688 7.704 12.724Q6.84 12.76 5.976 13.12Q5.112 13.48 4.284 14.038Q3.456 14.596 2.7 15.28Q1.944 15.964 1.332 16.612Q1.008 17.044 1.044 17.422Q1.08 17.8 1.368 18.088Q1.656 18.376 2.07 18.412Q2.484 18.448 2.808 18.124Q3.852 17.188 5.004 16.36Q6.156 15.532 7.02 15.244Q7.524 15.064 7.866 15.19Q8.208 15.316 8.28 15.856Q8.352 16.324 8.406 16.99Q8.46 17.656 8.496 18.412Q8.532 19.168 8.55 19.906Q8.568 20.644 8.568 21.256Q8.136 20.824 7.632 20.644Q7.128 20.464 6.642 20.446Q6.156 20.428 5.706 20.5Q5.256 20.572 5.004 20.68Q3.996 21.04 3.258 21.688Q2.52 22.336 2.088 23.146Q1.656 23.956 1.548 24.838Q1.44 25.72 1.656 26.548Q1.98 27.772 2.898 28.384Q3.816 28.996 4.968 28.816Q5.58 28.708 6.3 28.42Q7.02 28.132 7.74 27.754Q8.46 27.376 9.108 26.962Q9.756 26.548 10.26 26.188Q10.98 26.584 11.538 26.566Q12.096 26.548 12.312 25.9Q12.492 25.432 12.258 24.82Q12.024 24.208 10.872 23.416Q10.908 22.552 10.908 21.472Q10.908 20.392 10.854 19.24Q10.8 18.088 10.71 16.954ZM131.526 16.954Q131.436 15.82 131.292 14.812Q131.148 13.876 130.464 13.282Q129.78 12.688 128.52 12.724Q127.656 12.76 126.792 13.12Q125.928 13.48 125.1 14.038Q124.272 14.596 123.516 15.28Q122.76 15.964 122.148 16.612Q121.824 17.044 121.86 17.422Q121.896 17.8 122.184 18.088Q122.472 18.376 122.886 18.412Q123.3 18.448 123.624 18.124Q124.668 17.188 125.82 16.36Q126.972 15.532 127.836 15.244Q128.34 15.064 128.682 15.19Q129.024 15.316 129.096 15.856Q129.168 16.324 129.222 16.99Q129.276 17.656 129.312 18.412Q129.348 19.168 129.366 19.906Q129.384 20.644 129.384 21.256Q128.952 20.824 128.448 20.644Q127.944 20.464 127.458 20.446Q126.972 20.428 126.522 20.5Q126.072 20.572 125.82 20.68Q124.812 21.04 124.074 21.688Q123.336 22.336 122.904 23.146Q122.472 23.956 122.364 24.838Q122.256 25.72 122.472 26.548Q122.796 27.772 123.714 28.384Q124.632 28.996 125.784 28.816Q126.396 28.708 127.116 28.42Q127.836 28.132 128.556 27.754Q129.276 27.376 129.924 26.962Q130.572 26.548 131.076 26.188Q131.796 26.584 132.354 26.566Q132.912 26.548 133.128 25.9Q133.308 25.432 133.074 24.82Q132.84 24.208 131.688 23.416Q131.724 22.552 131.724 21.472Q131.724 20.392 131.67 19.24Q131.616 18.088 131.526 16.954ZM62.964 15.064Q62.388 16.036 61.812 16.972Q61.236 17.908 60.57 19.114Q59.904 20.32 59.04 21.904Q58.176 23.488 57.024 25.756Q56.736 26.296 56.448 26.62Q56.16 26.944 55.764 26.944Q55.224 26.944 54.918 26.638Q54.612 26.332 54.396 25.972Q53.208 23.992 52.056 21.58Q50.904 19.168 50.184 16.864Q50.112 16.684 50.202 16.45Q50.292 16.216 50.472 16.144Q50.832 15.964 51.408 16.108Q51.84 16.288 52.272 16.756Q52.704 17.224 52.956 17.728Q53.172 18.232 53.46 18.88Q53.748 19.528 54.09 20.266Q54.432 21.004 54.792 21.724Q55.152 22.444 55.512 23.02Q56.124 21.94 56.826 20.698Q57.528 19.456 58.248 18.178Q58.968 16.9 59.706 15.712Q60.444 14.524 61.164 13.588Q61.344 13.336 61.668 13.3Q61.992 13.264 62.388 13.552Q63.288 14.236 62.964 15.064ZM175.698 17.458Q175.572 16.792 175.464 16.252Q175.176 14.884 173.916 14.668Q173.016 14.56 172.854 15.046Q172.692 15.532 172.944 16.36Q173.484 18.772 173.826 21.076Q174.168 23.38 174.492 26.188Q174.492 26.44 174.708 26.692Q174.924 26.944 175.284 27.052Q175.68 27.196 176.058 27.106Q176.436 27.016 176.688 26.764Q177.048 25.972 177.462 25.018Q177.876 24.064 178.308 23.11Q178.74 22.156 179.19 21.238Q179.64 20.32 180.072 19.564Q180.576 18.628 181.224 18.592Q181.764 18.52 182.196 19.348Q182.628 20.176 182.97 21.292Q183.312 22.408 183.582 23.488Q183.852 24.568 184.032 25Q184.068 25.18 184.32 25.36Q184.572 25.54 185.076 25.288Q186.156 24.82 185.94 23.848Q185.724 22.768 185.4 21.364Q185.076 19.96 184.518 18.682Q183.96 17.404 183.15 16.54Q182.34 15.676 181.152 15.676Q180.36 15.676 179.694 16.252Q179.028 16.828 178.434 17.71Q177.84 18.592 177.336 19.636Q176.832 20.68 176.4 21.616Q176.328 20.968 176.22 20.248Q176.112 19.528 175.968 18.826Q175.824 18.124 175.698 17.458ZM166.896 15.568Q167.976 15.964 168.714 16.756Q169.452 17.548 169.848 18.538Q170.244 19.528 170.298 20.572Q170.352 21.616 170.064 22.516Q169.668 23.524 169.056 24.496Q168.444 25.468 167.652 26.224Q166.86 26.98 165.852 27.448Q164.844 27.916 163.62 27.916Q162.144 27.916 161.136 27.232Q160.128 26.548 159.552 25.468Q158.976 24.388 158.814 23.02Q158.652 21.652 158.868 20.284Q159.012 19.276 159.354 18.322Q159.696 17.368 160.236 16.63Q160.776 15.892 161.478 15.424Q162.18 14.956 163.08 14.956Q163.584 14.956 164.34 15.154Q165.096 15.352 165.744 15.712Q166.212 15.28 166.896 15.568ZM71.064 20.95Q72.684 20.5 74.088 19.672Q74.7 19.276 74.826 18.772Q74.952 18.268 74.664 17.584Q74.16 16.36 72.9 15.676Q71.64 14.992 70.092 15.1Q68.796 15.172 67.824 15.676Q66.852 16.18 66.204 16.954Q65.556 17.728 65.25 18.736Q64.944 19.744 65.052 20.86Q65.16 22.048 65.592 23.164Q66.024 24.28 66.852 25.108Q67.824 26.044 69.048 26.368Q70.272 26.692 71.424 26.476Q72.756 26.26 73.836 25.45Q74.916 24.64 75.492 23.488Q75.636 22.588 75.132 22.408Q74.952 22.336 74.592 22.426Q74.232 22.516 73.908 22.804Q73.584 23.092 73.152 23.38Q72.72 23.668 72.198 23.902Q71.676 24.136 71.082 24.244Q70.488 24.352 69.912 24.28Q68.94 24.136 68.292 23.398Q67.644 22.66 67.572 21.4Q69.444 21.4 71.064 20.95ZM118.368 19.672Q116.964 20.5 115.344 20.95Q113.724 21.4 111.852 21.4Q111.924 22.66 112.572 23.398Q113.22 24.136 114.192 24.28Q114.768 24.352 115.362 24.244Q115.956 24.136 116.478 23.902Q117 23.668 117.432 23.38Q117.864 23.092 118.188 22.804Q118.512 22.516 118.872 22.426Q119.232 22.336 119.412 22.408Q119.916 22.588 119.772 23.488Q119.196 24.64 118.116 25.45Q117.036 26.26 115.704 26.476Q114.552 26.692 113.328 26.368Q112.104 26.044 111.132 25.108Q110.304 24.28 109.872 23.164Q109.44 22.048 109.332 20.86Q109.224 19.744 109.53 18.736Q109.836 17.728 110.484 16.954Q111.132 16.18 112.104 15.676Q113.076 15.172 114.372 15.1Q115.92 14.992 117.18 15.676Q118.44 16.36 118.944 17.584Q119.232 18.268 119.106 18.772Q118.98 19.276 118.368 19.672ZM22.068 18.97Q22.428 19.024 22.68 18.88Q23.004 18.7 23.076 18.394Q23.148 18.088 23.076 17.8Q22.68 16.504 21.456 16.018Q20.232 15.532 18.9 15.748Q18.072 15.892 17.388 16.306Q16.704 16.72 16.146 17.296Q15.588 17.872 15.192 18.574Q14.796 19.276 14.58 19.96Q14.04 21.796 14.328 23.524Q14.616 25.252 15.984 26.188Q16.848 26.728 17.838 26.872Q18.828 27.016 19.836 26.854Q20.844 26.692 21.834 26.314Q22.824 25.936 23.724 25.432Q24.624 24.964 25.164 24.37Q25.704 23.776 25.344 23.2Q25.056 22.732 24.624 22.768Q24.192 22.804 23.688 23.02Q22.536 23.74 21.222 24.19Q19.908 24.64 18.864 24.604Q17.568 24.604 16.956 23.74Q16.344 22.876 16.524 21.616Q16.632 20.932 16.92 20.248Q17.208 19.564 17.658 19.006Q18.108 18.448 18.702 18.106Q19.296 17.764 20.052 17.764Q20.88 17.764 21.456 18.52Q21.708 18.916 22.068 18.97ZM165.528 18.196Q165.132 17.944 164.61 17.53Q164.088 17.116 163.692 17.116Q163.26 17.116 162.846 17.512Q162.432 17.908 162.126 18.43Q161.82 18.952 161.604 19.492Q161.388 20.032 161.316 20.356Q161.208 20.896 161.172 21.652Q161.136 22.408 161.28 23.146Q161.424 23.884 161.838 24.478Q162.252 25.072 163.08 25.324Q163.584 25.468 164.268 25.306Q164.952 25.144 165.618 24.712Q166.284 24.28 166.878 23.56Q167.472 22.84 167.796 21.904Q168.156 20.86 167.814 19.726Q167.472 18.592 166.428 18.088Q166.176 18.268 165.924 18.268Q165.672 18.268 165.528 18.196ZM69.174 17.476Q69.588 17.296 69.948 17.224Q70.74 17.08 71.514 17.242Q72.288 17.404 72.576 18.088Q72.18 18.34 71.586 18.556Q70.992 18.772 70.29 18.934Q69.588 19.096 68.85 19.204Q68.112 19.312 67.5 19.312Q67.536 18.88 67.806 18.538Q68.076 18.196 68.418 17.926Q68.76 17.656 69.174 17.476ZM114.228 17.224Q113.868 17.296 113.454 17.476Q113.04 17.656 112.698 17.926Q112.356 18.196 112.086 18.538Q111.816 18.88 111.78 19.312Q112.392 19.312 113.13 19.204Q113.868 19.096 114.57 18.934Q115.272 18.772 115.866 18.556Q116.46 18.34 116.856 18.088Q116.568 17.404 115.794 17.242Q115.02 17.08 114.228 17.224ZM47.61 26.674Q47.592 26.008 47.34 25.432Q47.124 24.964 46.98 24.226Q46.836 23.488 46.728 22.696Q46.62 21.904 46.584 21.112Q46.548 20.32 46.548 19.672Q46.584 18.844 46.188 18.286Q45.792 17.728 45.144 17.692Q44.748 17.764 44.496 18.196Q44.244 18.628 44.208 19.132Q44.208 19.6 44.226 20.536Q44.244 21.472 44.352 22.552Q44.46 23.632 44.676 24.73Q44.892 25.828 45.288 26.584Q45.576 27.196 46.152 27.556Q46.728 27.916 47.232 27.592Q47.628 27.34 47.61 26.674ZM93.312 25.432Q93.564 26.008 93.582 26.674Q93.6 27.34 93.204 27.592Q92.7 27.916 92.124 27.556Q91.548 27.196 91.26 26.584Q90.864 25.828 90.648 24.73Q90.432 23.632 90.324 22.552Q90.216 21.472 90.198 20.536Q90.18 19.6 90.18 19.132Q90.216 18.628 90.468 18.196Q90.72 17.764 91.116 17.692Q91.764 17.728 92.16 18.286Q92.556 18.844 92.52 19.672Q92.52 20.32 92.556 21.112Q92.592 21.904 92.7 22.696Q92.808 23.488 92.952 24.226Q93.096 24.964 93.312 25.432ZM155.394 26.674Q155.376 26.008 155.124 25.432Q154.908 24.964 154.764 24.226Q154.62 23.488 154.512 22.696Q154.404 21.904 154.368 21.112Q154.332 20.32 154.332 19.672Q154.368 18.844 153.972 18.286Q153.576 17.728 152.928 17.692Q152.532 17.764 152.28 18.196Q152.028 18.628 151.992 19.132Q151.992 19.6 152.01 20.536Q152.028 21.472 152.136 22.552Q152.244 23.632 152.46 24.73Q152.676 25.828 153.072 26.584Q153.36 27.196 153.936 27.556Q154.512 27.916 155.016 27.592Q155.412 27.34 155.394 26.674ZM100.044 24.064Q99.468 23.596 99.252 22.732Q99.036 21.94 99.378 21.184Q99.72 20.428 100.368 19.816Q101.016 19.204 101.862 18.754Q102.708 18.304 103.464 18.088L104.184 17.908L105.192 24.244L104.868 24.352Q104.004 24.64 103.104 24.748Q102.204 24.856 101.412 24.694Q100.62 24.532 100.044 24.064ZM5.31 23.002Q5.832 22.66 6.3 22.552Q6.588 22.516 6.93 22.768Q7.272 23.02 7.56 23.362Q7.848 23.704 8.064 24.046Q8.28 24.388 8.28 24.604Q7.632 25.216 6.534 25.738Q5.436 26.26 4.572 26.44Q4.284 26.512 4.05 26.404Q3.816 26.296 3.744 26.08Q3.564 25.504 3.762 24.91Q3.96 24.316 4.374 23.83Q4.788 23.344 5.31 23.002ZM126.126 23.002Q126.648 22.66 127.116 22.552Q127.404 22.516 127.746 22.768Q128.088 23.02 128.376 23.362Q128.664 23.704 128.88 24.046Q129.096 24.388 129.096 24.604Q128.448 25.216 127.35 25.738Q126.252 26.26 125.388 26.44Q125.1 26.512 124.866 26.404Q124.632 26.296 124.56 26.08Q124.38 25.504 124.578 24.91Q124.776 24.316 125.19 23.83Q125.604 23.344 126.126 23.002Z" />
  </g>
  <path d="M95.7708 36.5977C95.7708 36.5977 -15.2292 38.5977 1.77079 10.5977C18.7707 -17.4023 111.771 18.5977 103.771 21.5977" transform="translate(409.5004 137.4023)" id="New-shape-17" fill="none" stroke="#808080" stroke-width="2" />
  <path d="M65.3719 12C65.3719 12 -16.1284 49.0001 2.87177 58.0001C21.8719 67.0001 11.8719 43.0001 6.87188 23C1.87189 3 26.8719 0 37.8719 0" transform="translate(469.3992 189)" id="New-shape-19" fill="none" stroke="#808080" stroke-width="2" />
  <path d="M0 26C0 26 105 -2.0094e-05 87 15C69 30 102 50 69 50C36 50 82 0 52 0C22 0 1 3 1 9" transform="translate(546.2711 162)" id="New-shape-21" fill="none" stroke="#808080" stroke-width="2" />
</svg>