<?xml version="1.0" encoding="utf-8"?>
<svg width="460px" height="153px" viewBox="0 0 460 153" version="1.1" xmlns:xlink="http://www.w3.org/1999/xlink" xmlns="http://www.w3.org/2000/svg">
  <desc>Created with Lunacy</desc>
  <path d="M0 75.0239L295.115 0L295.115 0L295.115 0L295.115 0" transform="matrix(0.9702957 0.2419219 -0.2419219 0.9702957 54.15082 6.105103)" id="New-shape-3" fill="#AEAEB2" stroke="#000000" stroke-width="4" />
  <path d="M0 7.63678L27.3669 0L27.3669 0L27.3669 0L27.3669 0" transform="matrix(0.258819 -0.9659259 0.9659259 0.258819 31 79.00006)" id="New-shape-5" fill="#AEAEB2" stroke="#000000" stroke-width="4" />
  <path d="M0 7L27.3669 0L27.3669 0L27.3669 0L27.3669 0" transform="matrix(0.258819 -0.9659259 0.9659259 0.258819 304.2385 76.18829)" id="New-shape-6" fill="#AEAEB2" stroke="#000000" stroke-width="4" />
  <path d="M0 0L14 2.5L5 11.5" transform="matrix(0.9510565 0.309017 -0.309017 0.9510565 341.5538 70.06277)" id="New-shape-4" fill="none" stroke="#000000" stroke-width="3" />
  <g id="authenticity" transform="translate(362 64)">
    <path d="M28.325 8.606Q28.336 7.946 28.336 7.418Q28.336 7.022 28.138 6.681Q27.94 6.34 27.676 6.296Q27.388 6.25601 27.2048 6.37596Q26.884 6.58593 26.884 7.286Q26.84 8.606 26.84 9.761Q26.84 10.916 26.873 12.016Q26.906 13.116 26.972 14.205Q27.038 15.294 27.148 16.482Q27.17 16.68 27.258 16.955Q27.346 17.23 27.467 17.483Q27.588 17.736 27.731 17.912Q27.874 18.088 28.05 18.088Q28.226 18.088 28.369 17.945Q28.512 17.802 28.6 17.406Q28.688 16.878 28.875 16.02Q29.062 15.162 29.359 14.326Q29.656 13.49 30.063 12.83Q30.47 12.17 31.02 12.06Q31.372 11.994 31.636 12.258Q31.9 12.522 32.087 12.995Q32.274 13.468 32.406 14.062Q32.538 14.656 32.626 15.239Q32.714 15.822 32.78 16.328Q32.846 16.834 32.912 17.098Q33.022 17.428 33.275 17.659Q33.528 17.89 33.704 17.89Q33.946 17.89 34.122 17.67Q34.298 17.45 34.298 17.098Q34.254 16.614 34.188 15.943Q34.122 15.272 33.979 14.535Q33.836 13.798 33.616 13.083Q33.396 12.368 33.077 11.785Q32.758 11.202 32.329 10.85Q31.9 10.498 31.35 10.498Q30.844 10.498 30.415 10.696Q29.986 10.894 29.601 11.224Q29.216 11.554 28.908 11.983Q28.6 12.412 28.38 12.852Q28.358 12.17 28.347 11.422Q28.336 10.674 28.325 9.97Q28.314 9.266 28.325 8.606ZM22.814 11.268Q23.232 11.246 23.65 11.466Q24.068 11.686 24.068 12.148Q24.024 12.522 23.661 12.621Q23.298 12.72 23.078 12.72Q22.638 12.72 22.132 12.742Q21.626 12.764 21.098 12.808Q21.054 13.534 21.021 14.172Q20.988 14.81 20.966 15.305Q20.944 15.8 20.944 16.108Q20.944 16.416 20.966 16.438Q21.45 16.35 22.011 16.141Q22.572 15.932 23.133 15.679Q23.694 15.426 24.233 15.151Q24.772 14.876 25.256 14.634Q25.476 14.524 25.663 14.568Q25.85 14.612 25.894 14.766Q25.938 15.008 25.828 15.36Q25.718 15.712 25.432 15.998Q25.102 16.262 24.563 16.603Q24.024 16.944 23.408 17.252Q22.792 17.56 22.165 17.791Q21.538 18.022 21.054 18.066Q20.328 18.132 19.954 17.67Q19.58 17.208 19.536 16.504Q19.492 15.8 19.525 14.876Q19.558 13.952 19.602 12.918Q19.184 12.962 18.799 12.995Q18.414 13.028 18.062 13.072Q17.776 13.072 17.435 12.94Q17.094 12.808 17.094 12.434Q17.094 12.302 17.204 12.082Q17.314 11.862 17.688 11.752Q18.59 11.598 19.69 11.488Q19.756 10.454 19.844 9.486Q19.932 8.518 19.998 7.726Q20.02 7.462 20.152 7.264Q20.284 7.066 20.438 7.066Q20.812 7.044 21.153 7.253Q21.494 7.462 21.494 7.726Q21.406 8.474 21.329 9.42Q21.252 10.366 21.186 11.356Q21.626 11.312 22.033 11.301Q22.44 11.29 22.814 11.268ZM57.926 11.268Q58.344 11.246 58.762 11.466Q59.18 11.686 59.18 12.148Q59.136 12.522 58.773 12.621Q58.41 12.72 58.19 12.72Q57.75 12.72 57.244 12.742Q56.738 12.764 56.21 12.808Q56.166 13.534 56.133 14.172Q56.1 14.81 56.078 15.305Q56.056 15.8 56.056 16.108Q56.056 16.416 56.078 16.438Q56.562 16.35 57.123 16.141Q57.684 15.932 58.245 15.679Q58.806 15.426 59.345 15.151Q59.884 14.876 60.368 14.634Q60.588 14.524 60.775 14.568Q60.962 14.612 61.006 14.766Q61.05 15.008 60.94 15.36Q60.83 15.712 60.544 15.998Q60.214 16.262 59.675 16.603Q59.136 16.944 58.52 17.252Q57.904 17.56 57.277 17.791Q56.65 18.022 56.166 18.066Q55.44 18.132 55.066 17.67Q54.692 17.208 54.648 16.504Q54.604 15.8 54.637 14.876Q54.67 13.952 54.714 12.918Q54.296 12.962 53.911 12.995Q53.526 13.028 53.174 13.072Q52.888 13.072 52.547 12.94Q52.206 12.808 52.206 12.434Q52.206 12.302 52.316 12.082Q52.426 11.862 52.8 11.752Q53.702 11.598 54.802 11.488Q54.868 10.454 54.956 9.486Q55.044 8.518 55.11 7.726Q55.132 7.462 55.264 7.264Q55.396 7.066 55.55 7.066Q55.924 7.044 56.265 7.253Q56.606 7.462 56.606 7.726Q56.518 8.474 56.441 9.42Q56.364 10.366 56.298 11.356Q56.738 11.312 57.145 11.301Q57.552 11.29 57.926 11.268ZM85.514 11.268Q85.932 11.246 86.35 11.466Q86.768 11.686 86.768 12.148Q86.724 12.522 86.361 12.621Q85.998 12.72 85.778 12.72Q85.338 12.72 84.832 12.742Q84.326 12.764 83.798 12.808Q83.754 13.534 83.721 14.172Q83.688 14.81 83.666 15.305Q83.644 15.8 83.644 16.108Q83.644 16.416 83.666 16.438Q84.15 16.35 84.711 16.141Q85.272 15.932 85.833 15.679Q86.394 15.426 86.933 15.151Q87.472 14.876 87.956 14.634Q88.176 14.524 88.363 14.568Q88.55 14.612 88.594 14.766Q88.638 15.008 88.528 15.36Q88.418 15.712 88.132 15.998Q87.802 16.262 87.263 16.603Q86.724 16.944 86.108 17.252Q85.492 17.56 84.865 17.791Q84.238 18.022 83.754 18.066Q83.028 18.132 82.654 17.67Q82.28 17.208 82.236 16.504Q82.192 15.8 82.225 14.876Q82.258 13.952 82.302 12.918Q81.884 12.962 81.499 12.995Q81.114 13.028 80.762 13.072Q80.476 13.072 80.135 12.94Q79.794 12.808 79.794 12.434Q79.794 12.302 79.904 12.082Q80.014 11.862 80.388 11.752Q81.29 11.598 82.39 11.488Q82.456 10.454 82.544 9.486Q82.632 8.518 82.698 7.726Q82.72 7.462 82.852 7.264Q82.984 7.066 83.138 7.066Q83.512 7.044 83.853 7.253Q84.194 7.462 84.194 7.726Q84.106 8.474 84.029 9.42Q83.952 10.366 83.886 11.356Q84.326 11.312 84.733 11.301Q85.14 11.29 85.514 11.268ZM65.296 8.43Q65.56 8.408 65.604 8.188Q65.648 7.88 65.439 7.66Q65.23 7.44 64.878 7.33Q64.636 7.264 64.262 7.253Q63.888 7.242 63.481 7.286Q63.074 7.33 62.678 7.429Q62.282 7.528 61.996 7.66Q61.82 7.748 61.688 7.858Q61.556 7.968 61.556 8.144Q61.622 8.606 61.93 8.76Q62.238 8.914 62.502 8.826Q63.14 8.65 63.723 8.562Q64.306 8.474 64.856 8.452Q65.032 8.452 65.296 8.43ZM78.584 8.43Q78.848 8.408 78.892 8.188Q78.936 7.88 78.727 7.66Q78.518 7.44 78.166 7.33Q77.924 7.264 77.55 7.253Q77.176 7.242 76.769 7.286Q76.362 7.33 75.966 7.429Q75.57 7.528 75.284 7.66Q75.108 7.748 74.976 7.858Q74.844 7.968 74.844 8.144Q74.91 8.606 75.218 8.76Q75.526 8.914 75.79 8.826Q76.428 8.65 77.011 8.562Q77.594 8.474 78.144 8.452Q78.32 8.452 78.584 8.43ZM6.545 10.333Q6.49 9.64 6.402 9.024Q6.314 8.452 5.896 8.089Q5.478 7.726 4.708 7.748Q4.18 7.77 3.652 7.99Q3.124 8.21 2.618 8.551Q2.112 8.892 1.65 9.31Q1.188 9.728 0.814 10.124Q0.616 10.388 0.638 10.619Q0.66 10.85 0.836 11.026Q1.012 11.202 1.265 11.224Q1.518 11.246 1.716 11.048Q2.354 10.476 3.058 9.97Q3.762 9.464 4.29 9.288Q4.598 9.178 4.807 9.255Q5.016 9.332 5.06 9.662Q5.104 9.948 5.137 10.355Q5.17 10.762 5.192 11.224Q5.214 11.686 5.225 12.137Q5.236 12.588 5.236 12.962Q4.972 12.698 4.664 12.588Q4.356 12.478 4.059 12.467Q3.762 12.456 3.487 12.5Q3.212 12.544 3.058 12.61Q2.442 12.83 1.991 13.226Q1.54 13.622 1.276 14.117Q1.012 14.612 0.946 15.151Q0.88 15.69 1.012 16.196Q1.21 16.944 1.771 17.318Q2.332 17.692 3.036 17.582Q3.41 17.516 3.85 17.34Q4.29 17.164 4.73 16.933Q5.17 16.702 5.566 16.449Q5.962 16.196 6.27 15.976Q6.71 16.218 7.051 16.207Q7.392 16.196 7.524 15.8Q7.634 15.514 7.491 15.14Q7.348 14.766 6.644 14.282Q6.666 13.754 6.666 13.094Q6.666 12.434 6.633 11.73Q6.6 11.026 6.545 10.333ZM45.155 10.641Q45.078 10.234 45.012 9.904Q44.836 9.068 44.066 8.936Q43.516 8.87 43.417 9.167Q43.318 9.464 43.472 9.97Q43.802 11.444 44.011 12.852Q44.22 14.26 44.418 15.976Q44.418 16.13 44.55 16.284Q44.682 16.438 44.902 16.504Q45.144 16.592 45.375 16.537Q45.606 16.482 45.76 16.328Q45.98 15.844 46.233 15.261Q46.486 14.678 46.75 14.095Q47.014 13.512 47.289 12.951Q47.564 12.39 47.828 11.928Q48.136 11.356 48.532 11.334Q48.862 11.29 49.126 11.796Q49.39 12.302 49.599 12.984Q49.808 13.666 49.973 14.326Q50.138 14.986 50.248 15.25Q50.27 15.36 50.424 15.47Q50.578 15.58 50.886 15.426Q51.546 15.14 51.414 14.546Q51.282 13.886 51.084 13.028Q50.886 12.17 50.545 11.389Q50.204 10.608 49.709 10.08Q49.214 9.552 48.488 9.552Q48.004 9.552 47.597 9.904Q47.19 10.256 46.827 10.795Q46.464 11.334 46.156 11.972Q45.848 12.61 45.584 13.182Q45.54 12.786 45.474 12.346Q45.408 11.906 45.32 11.477Q45.232 11.048 45.155 10.641ZM41.206 11.994Q40.348 12.5 39.358 12.775Q38.368 13.05 37.224 13.05Q37.268 13.82 37.664 14.271Q38.06 14.722 38.654 14.81Q39.006 14.854 39.369 14.788Q39.732 14.722 40.051 14.579Q40.37 14.436 40.634 14.26Q40.898 14.084 41.096 13.908Q41.294 13.732 41.514 13.677Q41.734 13.622 41.844 13.666Q42.152 13.776 42.064 14.326Q41.712 15.03 41.052 15.525Q40.392 16.02 39.578 16.152Q38.874 16.284 38.126 16.086Q37.378 15.888 36.784 15.316Q36.278 14.81 36.014 14.128Q35.75 13.446 35.684 12.72Q35.618 12.038 35.805 11.422Q35.992 10.806 36.388 10.333Q36.784 9.86 37.378 9.552Q37.972 9.244 38.764 9.2Q39.71 9.134 40.48 9.552Q41.25 9.97 41.558 10.718Q41.734 11.136 41.657 11.444Q41.58 11.752 41.206 11.994ZM72.292 11.51Q72.138 11.598 71.918 11.565Q71.698 11.532 71.544 11.29Q71.192 10.828 70.686 10.828Q70.224 10.828 69.861 11.037Q69.498 11.246 69.223 11.587Q68.948 11.928 68.772 12.346Q68.596 12.764 68.53 13.182Q68.42 13.952 68.794 14.48Q69.168 15.008 69.96 15.008Q70.598 15.03 71.401 14.755Q72.204 14.48 72.908 14.04Q73.216 13.908 73.48 13.886Q73.744 13.864 73.92 14.15Q74.14 14.502 73.81 14.865Q73.48 15.228 72.93 15.514Q72.38 15.822 71.775 16.053Q71.17 16.284 70.554 16.383Q69.938 16.482 69.333 16.394Q68.728 16.306 68.2 15.976Q67.364 15.404 67.188 14.348Q67.012 13.292 67.342 12.17Q67.474 11.752 67.716 11.323Q67.958 10.894 68.299 10.542Q68.64 10.19 69.058 9.937Q69.476 9.684 69.982 9.596Q70.796 9.464 71.544 9.761Q72.292 10.058 72.534 10.85Q72.578 11.026 72.534 11.213Q72.49 11.4 72.292 11.51ZM10.428 11.961Q10.56 11.246 10.692 10.652Q10.78 10.3 10.505 9.97Q10.23 9.64 9.9 9.574Q9.724 9.53 9.592 9.673Q9.46 9.816 9.416 9.992Q9.306 10.41 9.163 11.07Q9.02 11.73 8.921 12.467Q8.822 13.204 8.811 13.952Q8.8 14.7 8.976 15.316Q9.438 16.856 10.318 16.966Q10.912 17.032 11.473 16.757Q12.034 16.482 12.551 15.987Q13.068 15.492 13.519 14.887Q13.97 14.282 14.3 13.688Q14.322 13.996 14.388 14.447Q14.454 14.898 14.531 15.393Q14.608 15.888 14.707 16.339Q14.806 16.79 14.916 17.098Q15.026 17.362 15.235 17.45Q15.444 17.538 15.642 17.494Q15.884 17.428 16.082 17.12Q16.28 16.812 16.214 16.57Q16.082 15.976 15.95 15.228Q15.818 14.48 15.697 13.688Q15.576 12.896 15.488 12.104Q15.4 11.312 15.356 10.652Q15.356 10.476 15.257 10.311Q15.158 10.146 15.037 10.025Q14.916 9.904 14.773 9.838Q14.63 9.772 14.52 9.794Q14.366 9.816 14.135 9.981Q13.904 10.146 13.904 10.322Q13.904 10.63 13.838 10.916Q13.772 11.202 13.684 11.466Q13.53 11.994 13.156 12.687Q12.782 13.38 12.32 13.974Q11.858 14.568 11.374 14.953Q10.89 15.338 10.516 15.272Q10.296 15.052 10.241 14.524Q10.186 13.996 10.241 13.336Q10.296 12.676 10.428 11.961ZM96.459 12.632Q96.382 11.422 96.316 10.234Q96.316 9.992 96.041 9.761Q95.766 9.53 95.414 9.574Q95.282 9.596 95.161 9.717Q95.04 9.838 94.952 10.003Q94.864 10.168 94.82 10.344Q94.776 10.52 94.776 10.652Q94.776 11.268 94.479 11.917Q94.182 12.566 93.764 13.094Q93.346 13.622 92.895 13.952Q92.444 14.282 92.114 14.282Q91.828 14.282 91.575 13.908Q91.322 13.534 91.102 13.039Q90.882 12.544 90.728 12.038Q90.574 11.532 90.486 11.29Q90.376 11.048 90.09 10.938Q89.804 10.828 89.474 10.894Q89.232 10.938 89.188 11.136Q89.144 11.334 89.188 11.554Q89.21 11.73 89.331 12.17Q89.452 12.61 89.65 13.16Q89.848 13.71 90.123 14.293Q90.398 14.876 90.75 15.338Q91.058 15.712 91.366 15.844Q91.674 15.976 91.982 15.976Q92.356 15.976 92.774 15.789Q93.192 15.602 93.588 15.327Q93.984 15.052 94.336 14.7Q94.688 14.348 94.952 14.018Q95.084 15.338 94.963 16.449Q94.842 17.56 94.446 18.506Q94.05 19.452 93.39 20.266Q92.73 21.08 91.762 21.806Q91.454 22.07 91.322 22.312Q91.19 22.554 91.256 22.752Q91.3 22.884 91.454 22.961Q91.608 23.038 91.806 23.071Q92.004 23.104 92.213 23.082Q92.422 23.06 92.598 22.95Q93.72 22.246 94.457 21.366Q95.194 20.486 95.634 19.463Q96.074 18.44 96.261 17.318Q96.448 16.196 96.492 15.019Q96.536 13.842 96.459 12.632ZM38.676 10.498Q38.456 10.542 38.203 10.652Q37.95 10.762 37.741 10.927Q37.532 11.092 37.367 11.301Q37.202 11.51 37.18 11.774Q37.554 11.774 38.005 11.708Q38.456 11.642 38.885 11.543Q39.314 11.444 39.677 11.312Q40.04 11.18 40.282 11.026Q40.106 10.608 39.633 10.509Q39.16 10.41 38.676 10.498ZM65.263 16.273Q65.252 15.866 65.098 15.514Q64.966 15.228 64.878 14.777Q64.79 14.326 64.724 13.842Q64.658 13.358 64.636 12.874Q64.614 12.39 64.614 11.994Q64.636 11.488 64.394 11.147Q64.152 10.806 63.756 10.784Q63.514 10.828 63.36 11.092Q63.206 11.356 63.184 11.664Q63.184 11.95 63.195 12.522Q63.206 13.094 63.272 13.754Q63.338 14.414 63.47 15.085Q63.602 15.756 63.844 16.218Q64.02 16.592 64.372 16.812Q64.724 17.032 65.032 16.834Q65.274 16.68 65.263 16.273ZM78.551 16.273Q78.54 15.866 78.386 15.514Q78.254 15.228 78.166 14.777Q78.078 14.326 78.012 13.842Q77.946 13.358 77.924 12.874Q77.902 12.39 77.902 11.994Q77.924 11.488 77.682 11.147Q77.44 10.806 77.044 10.784Q76.802 10.828 76.648 11.092Q76.494 11.356 76.472 11.664Q76.472 11.95 76.483 12.522Q76.494 13.094 76.56 13.754Q76.626 14.414 76.758 15.085Q76.89 15.756 77.132 16.218Q77.308 16.592 77.66 16.812Q78.012 17.032 78.32 16.834Q78.562 16.68 78.551 16.273ZM3.245 14.029Q3.564 13.82 3.85 13.754Q4.026 13.732 4.235 13.886Q4.444 14.04 4.62 14.249Q4.796 14.458 4.928 14.667Q5.06 14.876 5.06 15.008Q4.664 15.382 3.993 15.701Q3.322 16.02 2.794 16.13Q2.618 16.174 2.475 16.108Q2.332 16.042 2.288 15.91Q2.178 15.558 2.299 15.195Q2.42 14.832 2.673 14.535Q2.926 14.238 3.245 14.029Z" />
  </g>
  <g id="influencers" transform="translate(0 24)">
    <path d="M15.609 13.094Q16.016 13.204 16.324 13.16Q16.698 13.116 17.05 13.083Q17.402 13.05 17.754 13.006L18.678 15.69Q18.7 15.778 18.755 16.009Q18.81 16.24 18.843 16.537Q18.876 16.834 18.876 17.186Q18.876 17.538 18.832 17.89Q18.788 18.198 18.854 18.374Q18.92 18.55 19.162 18.66Q19.47 18.77 19.734 18.462Q19.998 18.154 20.174 17.648Q20.284 17.296 20.35 16.922Q20.416 16.548 20.328 16.218Q20.152 15.624 19.855 14.733Q19.558 13.842 19.206 12.852Q19.734 12.808 20.218 12.753Q20.702 12.698 21.142 12.654Q21.34 12.632 21.549 12.588Q21.758 12.544 21.923 12.445Q22.088 12.346 22.176 12.203Q22.264 12.06 22.198 11.84Q21.934 11.576 21.516 11.444Q21.098 11.312 20.614 11.268Q19.734 11.224 18.678 11.334Q18.436 10.63 18.238 9.992Q18.04 9.354 17.886 8.804Q17.71 8.144 17.743 7.704Q17.776 7.264 17.93 6.989Q18.084 6.714 18.293 6.582Q18.502 6.45 18.656 6.428Q18.986 6.384 19.272 6.483Q19.558 6.582 19.811 6.769Q20.064 6.956 20.295 7.209Q20.526 7.462 20.724 7.704Q20.812 7.814 21.076 7.847Q21.34 7.88 21.56 7.66Q21.714 7.506 21.703 7.319Q21.692 7.132 21.604 6.89Q21.362 6.362 20.966 5.966Q20.57 5.57 20.086 5.328Q19.602 5.086 19.063 5.042Q18.524 4.998 17.974 5.174Q16.632 5.614 16.346 6.626Q16.06 7.638 16.434 9.046L17.248 11.51Q16.786 11.576 16.335 11.653Q15.884 11.73 15.488 11.818Q15.07 11.906 15.026 12.115Q14.982 12.324 15.048 12.544Q15.202 12.984 15.609 13.094ZM25.564 6.868Q25.674 9.266 25.938 11.829Q26.202 14.392 26.51 16.724Q26.5576 17.4219 26.2621 17.6281Q26.1477 17.7079 25.982 17.714Q25.85 17.714 25.718 17.615Q25.586 17.516 25.476 17.362Q25.366 17.208 25.267 17.032Q25.168 16.856 25.146 16.724Q24.97 15.602 24.816 14.348Q24.662 13.094 24.541 11.829Q24.42 10.564 24.332 9.354Q24.244 8.144 24.222 7.132Q24.266 6.604 24.376 6.241Q24.486 5.878 24.838 5.9Q25.212 5.922 25.377 6.197Q25.542 6.472 25.564 6.868ZM4.598 8.188Q4.554 8.408 4.29 8.43Q4.026 8.452 3.85 8.452Q3.3 8.474 2.717 8.562Q2.134 8.65 1.496 8.826Q1.232 8.914 0.924 8.76Q0.616 8.606 0.55 8.144Q0.55 7.968 0.682 7.858Q0.814 7.748 0.99 7.66Q1.276 7.528 1.672 7.429Q2.068 7.33 2.475 7.286Q2.882 7.242 3.256 7.253Q3.63 7.264 3.872 7.33Q4.224 7.44 4.433 7.66Q4.642 7.88 4.598 8.188ZM81.994 10.124Q82.038 10.344 82.082 10.586Q82.104 10.784 82.291 10.905Q82.478 11.026 82.786 10.982Q83.028 10.938 83.127 10.74Q83.226 10.542 83.226 10.234Q83.116 9.31 82.5 8.837Q81.884 8.364 80.938 8.32Q80.388 8.32 79.838 8.562Q79.288 8.804 78.859 9.211Q78.43 9.618 78.166 10.146Q77.902 10.674 77.924 11.246Q78.012 11.884 78.342 12.313Q78.672 12.742 79.134 13.05Q79.596 13.358 80.245 13.732Q80.894 14.106 81.455 14.502Q82.016 14.898 82.357 15.261Q82.698 15.624 82.544 15.888Q82.368 16.196 81.928 16.394Q81.488 16.592 80.938 16.713Q80.388 16.834 79.783 16.889Q79.178 16.944 78.65 16.944Q78.276 16.944 77.924 17.098Q77.572 17.252 77.572 17.648Q77.572 17.758 77.693 17.901Q77.814 18.044 77.979 18.176Q78.144 18.308 78.331 18.407Q78.518 18.506 78.65 18.506Q79.2 18.506 79.992 18.429Q80.784 18.352 81.576 18.143Q82.368 17.934 83.028 17.56Q83.688 17.186 83.93 16.592Q84.238 15.822 84.029 15.217Q83.82 14.612 83.248 14.106Q82.676 13.6 81.84 13.116Q81.004 12.632 80.234 12.17Q79.772 11.862 79.53 11.554Q79.288 11.246 79.354 10.916Q79.376 10.74 79.618 10.509Q79.86 10.278 80.212 10.091Q80.564 9.904 80.982 9.816Q81.4 9.728 81.774 9.838Q81.95 9.904 81.994 10.124ZM76.648 9.574Q76.252 9.794 75.823 10.036Q75.394 10.278 74.965 10.597Q74.536 10.916 74.151 11.345Q73.766 11.774 73.458 12.368Q73.018 13.204 72.864 14.073Q72.71 14.942 72.666 15.778Q72.666 16.174 72.479 16.581Q72.292 16.988 71.962 16.988Q71.544 16.988 71.291 16.559Q71.038 16.13 70.95 15.734Q70.576 14.172 70.334 12.643Q70.092 11.114 69.916 9.596Q69.916 9.288 70.103 9.2Q70.29 9.112 70.532 9.134Q70.796 9.156 71.038 9.266Q71.28 9.376 71.324 9.618Q71.412 10.432 71.544 11.323Q71.676 12.214 71.808 12.852Q71.896 12.104 72.292 11.4Q72.688 10.696 73.271 10.124Q73.854 9.552 74.591 9.156Q75.328 8.76 76.098 8.628Q76.428 8.584 76.648 8.628Q76.868 8.672 76.956 8.782Q77.044 8.892 76.989 9.134Q76.934 9.376 76.648 9.574ZM7.634 9.904Q7.7 10.234 7.777 10.641Q7.854 11.048 7.942 11.477Q8.03 11.906 8.096 12.346Q8.162 12.786 8.206 13.182Q8.47 12.61 8.778 11.972Q9.086 11.334 9.449 10.795Q9.812 10.256 10.219 9.904Q10.626 9.552 11.11 9.552Q11.836 9.552 12.331 10.08Q12.826 10.608 13.167 11.389Q13.508 12.17 13.706 13.028Q13.904 13.886 14.036 14.546Q14.168 15.14 13.508 15.426Q13.2 15.58 13.046 15.47Q12.892 15.36 12.87 15.25Q12.76 14.986 12.595 14.326Q12.43 13.666 12.221 12.984Q12.012 12.302 11.748 11.796Q11.484 11.29 11.154 11.334Q10.758 11.356 10.45 11.928Q10.186 12.39 9.911 12.951Q9.636 13.512 9.372 14.095Q9.108 14.678 8.855 15.261Q8.602 15.844 8.382 16.328Q8.228 16.482 7.997 16.537Q7.766 16.592 7.524 16.504Q7.304 16.438 7.172 16.284Q7.04 16.13 7.04 15.976Q6.842 14.26 6.633 12.852Q6.424 11.444 6.094 9.97Q5.94 9.464 6.039 9.167Q6.138 8.87 6.688 8.936Q7.458 9.068 7.634 9.904ZM46.607 10.641Q46.53 10.234 46.464 9.904Q46.288 9.068 45.518 8.936Q44.968 8.87 44.869 9.167Q44.77 9.464 44.924 9.97Q45.254 11.444 45.463 12.852Q45.672 14.26 45.87 15.976Q45.87 16.13 46.002 16.284Q46.134 16.438 46.354 16.504Q46.596 16.592 46.827 16.537Q47.058 16.482 47.212 16.328Q47.432 15.844 47.685 15.261Q47.938 14.678 48.202 14.095Q48.466 13.512 48.741 12.951Q49.016 12.39 49.28 11.928Q49.588 11.356 49.984 11.334Q50.314 11.29 50.578 11.796Q50.842 12.302 51.051 12.984Q51.26 13.666 51.425 14.326Q51.59 14.986 51.7 15.25Q51.722 15.36 51.876 15.47Q52.03 15.58 52.338 15.426Q52.998 15.14 52.866 14.546Q52.734 13.886 52.536 13.028Q52.338 12.17 51.997 11.389Q51.656 10.608 51.161 10.08Q50.666 9.552 49.94 9.552Q49.456 9.552 49.049 9.904Q48.642 10.256 48.279 10.795Q47.916 11.334 47.608 11.972Q47.3 12.61 47.036 13.182Q46.992 12.786 46.926 12.346Q46.86 11.906 46.772 11.477Q46.684 11.048 46.607 10.641ZM42.658 11.994Q41.8 12.5 40.81 12.775Q39.82 13.05 38.676 13.05Q38.72 13.82 39.116 14.271Q39.512 14.722 40.106 14.81Q40.458 14.854 40.821 14.788Q41.184 14.722 41.503 14.579Q41.822 14.436 42.086 14.26Q42.35 14.084 42.548 13.908Q42.746 13.732 42.966 13.677Q43.186 13.622 43.296 13.666Q43.604 13.776 43.516 14.326Q43.164 15.03 42.504 15.525Q41.844 16.02 41.03 16.152Q40.326 16.284 39.578 16.086Q38.83 15.888 38.236 15.316Q37.73 14.81 37.466 14.128Q37.202 13.446 37.136 12.72Q37.07 12.038 37.257 11.422Q37.444 10.806 37.84 10.333Q38.236 9.86 38.83 9.552Q39.424 9.244 40.216 9.2Q41.162 9.134 41.932 9.552Q42.702 9.97 43.01 10.718Q43.186 11.136 43.109 11.444Q43.032 11.752 42.658 11.994ZM65.824 12.775Q66.814 12.5 67.672 11.994Q68.046 11.752 68.123 11.444Q68.2 11.136 68.024 10.718Q67.716 9.97 66.946 9.552Q66.176 9.134 65.23 9.2Q64.438 9.244 63.844 9.552Q63.25 9.86 62.854 10.333Q62.458 10.806 62.271 11.422Q62.084 12.038 62.15 12.72Q62.216 13.446 62.48 14.128Q62.744 14.81 63.25 15.316Q63.844 15.888 64.592 16.086Q65.34 16.284 66.044 16.152Q66.858 16.02 67.518 15.525Q68.178 15.03 68.53 14.326Q68.618 13.776 68.31 13.666Q68.2 13.622 67.98 13.677Q67.76 13.732 67.562 13.908Q67.364 14.084 67.1 14.26Q66.836 14.436 66.517 14.579Q66.198 14.722 65.835 14.788Q65.472 14.854 65.12 14.81Q64.526 14.722 64.13 14.271Q63.734 13.82 63.69 13.05Q64.834 13.05 65.824 12.775ZM59.444 11.51Q59.29 11.598 59.07 11.565Q58.85 11.532 58.696 11.29Q58.344 10.828 57.838 10.828Q57.376 10.828 57.013 11.037Q56.65 11.246 56.375 11.587Q56.1 11.928 55.924 12.346Q55.748 12.764 55.682 13.182Q55.572 13.952 55.946 14.48Q56.32 15.008 57.112 15.008Q57.75 15.03 58.553 14.755Q59.356 14.48 60.06 14.04Q60.368 13.908 60.632 13.886Q60.896 13.864 61.072 14.15Q61.292 14.502 60.962 14.865Q60.632 15.228 60.082 15.514Q59.532 15.822 58.927 16.053Q58.322 16.284 57.706 16.383Q57.09 16.482 56.485 16.394Q55.88 16.306 55.352 15.976Q54.516 15.404 54.34 14.348Q54.164 13.292 54.494 12.17Q54.626 11.752 54.868 11.323Q55.11 10.894 55.451 10.542Q55.792 10.19 56.21 9.937Q56.628 9.684 57.134 9.596Q57.948 9.464 58.696 9.761Q59.444 10.058 59.686 10.85Q59.73 11.026 59.686 11.213Q59.642 11.4 59.444 11.51ZM29.942 11.961Q30.074 11.246 30.206 10.652Q30.294 10.3 30.019 9.97Q29.744 9.64 29.414 9.574Q29.238 9.53 29.106 9.673Q28.974 9.816 28.93 9.992Q28.82 10.41 28.677 11.07Q28.534 11.73 28.435 12.467Q28.336 13.204 28.325 13.952Q28.314 14.7 28.49 15.316Q28.952 16.856 29.832 16.966Q30.426 17.032 30.987 16.757Q31.548 16.482 32.065 15.987Q32.582 15.492 33.033 14.887Q33.484 14.282 33.814 13.688Q33.836 13.996 33.902 14.447Q33.968 14.898 34.045 15.393Q34.122 15.888 34.221 16.339Q34.32 16.79 34.43 17.098Q34.54 17.362 34.749 17.45Q34.958 17.538 35.156 17.494Q35.398 17.428 35.596 17.12Q35.794 16.812 35.728 16.57Q35.596 15.976 35.464 15.228Q35.332 14.48 35.211 13.688Q35.09 12.896 35.002 12.104Q34.914 11.312 34.87 10.652Q34.87 10.476 34.771 10.311Q34.672 10.146 34.551 10.025Q34.43 9.904 34.287 9.838Q34.144 9.772 34.034 9.794Q33.88 9.816 33.649 9.981Q33.418 10.146 33.418 10.322Q33.418 10.63 33.352 10.916Q33.286 11.202 33.198 11.466Q33.044 11.994 32.67 12.687Q32.296 13.38 31.834 13.974Q31.372 14.568 30.888 14.953Q30.404 15.338 30.03 15.272Q29.81 15.052 29.755 14.524Q29.7 13.996 29.755 13.336Q29.81 12.676 29.942 11.961ZM40.128 10.498Q39.908 10.542 39.655 10.652Q39.402 10.762 39.193 10.927Q38.984 11.092 38.819 11.301Q38.654 11.51 38.632 11.774Q39.006 11.774 39.457 11.708Q39.908 11.642 40.337 11.543Q40.766 11.444 41.129 11.312Q41.492 11.18 41.734 11.026Q41.558 10.608 41.085 10.509Q40.612 10.41 40.128 10.498ZM64.669 10.652Q64.922 10.542 65.142 10.498Q65.626 10.41 66.099 10.509Q66.572 10.608 66.748 11.026Q66.506 11.18 66.143 11.312Q65.78 11.444 65.351 11.543Q64.922 11.642 64.471 11.708Q64.02 11.774 63.646 11.774Q63.668 11.51 63.833 11.301Q63.998 11.092 64.207 10.927Q64.416 10.762 64.669 10.652ZM4.092 15.514Q4.246 15.866 4.257 16.273Q4.268 16.68 4.026 16.834Q3.718 17.032 3.366 16.812Q3.014 16.592 2.838 16.218Q2.596 15.756 2.464 15.085Q2.332 14.414 2.266 13.754Q2.2 13.094 2.189 12.522Q2.178 11.95 2.178 11.664Q2.2 11.356 2.354 11.092Q2.508 10.828 2.75 10.784Q3.146 10.806 3.388 11.147Q3.63 11.488 3.608 11.994Q3.608 12.39 3.63 12.874Q3.652 13.358 3.718 13.842Q3.784 14.326 3.872 14.777Q3.96 15.228 4.092 15.514Z" />
  </g>
  <g id="humble--personal-brands" transform="translate(278 0)">
    <g id="humble">
      <path d="M34.023 6.846Q34.012 6.34 33.99 5.988Q33.924 5.636 33.682 5.438Q33.44 5.24 33.132 5.196Q33 5.196 32.813 5.262Q32.626 5.328 32.626 5.768Q32.582 8.32 32.868 10.795Q33.154 13.27 33.682 15.69Q33.55 15.8 33.363 15.921Q33.176 16.042 33.044 16.196Q32.912 16.35 32.868 16.537Q32.824 16.724 32.934 16.988Q33.066 17.164 33.484 17.252Q33.902 17.34 34.342 17.164Q34.65 16.966 35.343 16.504Q36.036 16.042 36.751 15.36Q37.466 14.678 38.005 13.798Q38.544 12.918 38.544 11.884Q38.544 11.4 38.39 10.883Q38.236 10.366 37.906 9.937Q37.576 9.508 37.07 9.266Q36.564 9.024 35.882 9.112Q35.442 9.178 35.013 9.464Q34.584 9.75 34.254 10.3Q34.166 9.75 34.122 9.145Q34.078 8.54 34.056 7.946Q34.034 7.352 34.023 6.846ZM41.932 6.868Q42.042 9.266 42.306 11.829Q42.57 14.392 42.878 16.724Q42.9256 17.4219 42.6301 17.6281Q42.5157 17.7079 42.35 17.714Q42.218 17.714 42.086 17.615Q41.954 17.516 41.844 17.362Q41.734 17.208 41.635 17.032Q41.536 16.856 41.514 16.724Q41.338 15.602 41.184 14.348Q41.03 13.094 40.909 11.829Q40.788 10.564 40.7 9.354Q40.612 8.144 40.59 7.132Q40.634 6.604 40.744 6.241Q40.854 5.878 41.206 5.9Q41.58 5.922 41.745 6.197Q41.91 6.472 41.932 6.868ZM2.431 8.606Q2.442 7.946 2.442 7.418Q2.442 7.022 2.244 6.681Q2.046 6.34 1.782 6.296Q1.49405 6.25601 1.31079 6.37596Q0.99 6.58593 0.99 7.286Q0.946 8.606 0.946 9.761Q0.946 10.916 0.979 12.016Q1.012 13.116 1.078 14.205Q1.144 15.294 1.254 16.482Q1.276 16.68 1.364 16.955Q1.452 17.23 1.573 17.483Q1.694 17.736 1.837 17.912Q1.98 18.088 2.156 18.088Q2.332 18.088 2.475 17.945Q2.618 17.802 2.706 17.406Q2.794 16.878 2.981 16.02Q3.168 15.162 3.465 14.326Q3.762 13.49 4.169 12.83Q4.576 12.17 5.126 12.06Q5.478 11.994 5.742 12.258Q6.006 12.522 6.193 12.995Q6.38 13.468 6.512 14.062Q6.644 14.656 6.732 15.239Q6.82 15.822 6.886 16.328Q6.952 16.834 7.018 17.098Q7.128 17.428 7.381 17.659Q7.634 17.89 7.81 17.89Q8.052 17.89 8.228 17.67Q8.404 17.45 8.404 17.098Q8.36 16.614 8.294 15.943Q8.228 15.272 8.085 14.535Q7.942 13.798 7.722 13.083Q7.502 12.368 7.183 11.785Q6.864 11.202 6.435 10.85Q6.006 10.498 5.456 10.498Q4.95 10.498 4.521 10.696Q4.092 10.894 3.707 11.224Q3.322 11.554 3.014 11.983Q2.706 12.412 2.486 12.852Q2.464 12.17 2.453 11.422Q2.442 10.674 2.431 9.97Q2.42 9.266 2.431 8.606ZM48.158 12.775Q49.148 12.5 50.006 11.994Q50.38 11.752 50.457 11.444Q50.534 11.136 50.358 10.718Q50.05 9.97 49.28 9.552Q48.51 9.134 47.564 9.2Q46.772 9.244 46.178 9.552Q45.584 9.86 45.188 10.333Q44.792 10.806 44.605 11.422Q44.418 12.038 44.484 12.72Q44.55 13.446 44.814 14.128Q45.078 14.81 45.584 15.316Q46.178 15.888 46.926 16.086Q47.674 16.284 48.378 16.152Q49.192 16.02 49.852 15.525Q50.512 15.03 50.864 14.326Q50.952 13.776 50.644 13.666Q50.534 13.622 50.314 13.677Q50.094 13.732 49.896 13.908Q49.698 14.084 49.434 14.26Q49.17 14.436 48.851 14.579Q48.532 14.722 48.169 14.788Q47.806 14.854 47.454 14.81Q46.86 14.722 46.464 14.271Q46.068 13.82 46.024 13.05Q47.168 13.05 48.158 12.775ZM20.328 10.058Q20.35 10.41 20.405 10.927Q20.46 11.444 20.526 12.005Q20.592 12.566 20.669 13.116Q20.746 13.666 20.812 14.128L21.406 12.94Q21.758 12.236 22.143 11.587Q22.528 10.938 22.935 10.487Q23.342 10.036 23.672 10.036Q24.024 10.036 24.321 10.377Q24.618 10.718 24.838 11.202Q25.058 11.686 25.223 12.236Q25.388 12.786 25.498 13.204Q25.586 12.918 25.729 12.555Q25.872 12.192 26.037 11.807Q26.202 11.422 26.411 11.048Q26.62 10.674 26.862 10.388Q27.148 10.08 27.478 9.937Q27.808 9.794 27.962 9.794Q28.16 9.794 28.435 9.915Q28.71 10.036 28.996 10.234Q29.282 10.432 29.535 10.707Q29.788 10.982 29.942 11.268Q30.25 11.862 30.437 12.566Q30.624 13.27 30.712 13.908Q30.8 14.546 30.833 15.041Q30.866 15.536 30.888 15.734Q30.888 16.02 30.822 16.163Q30.756 16.306 30.58 16.394Q30.338 16.504 30.162 16.471Q29.986 16.438 29.876 16.328Q29.766 16.218 29.7 16.075Q29.634 15.932 29.612 15.822Q29.546 15.316 29.469 14.788Q29.392 14.26 29.304 13.765Q29.216 13.27 29.095 12.841Q28.974 12.412 28.842 12.082Q28.798 11.994 28.699 11.851Q28.6 11.708 28.479 11.576Q28.358 11.444 28.248 11.356Q28.138 11.268 28.094 11.246Q27.874 11.246 27.632 11.653Q27.39 12.06 27.17 12.632Q26.95 13.204 26.763 13.831Q26.576 14.458 26.488 14.898Q26.488 15.47 26.268 15.745Q26.048 16.02 25.806 16.02Q25.564 16.02 25.289 15.833Q25.014 15.646 24.926 15.404Q24.794 15.052 24.64 14.612Q24.486 14.172 24.321 13.71Q24.156 13.248 23.991 12.808Q23.826 12.368 23.672 12.016Q23.364 12.434 23.067 12.94Q22.77 13.446 22.495 13.974Q22.22 14.502 21.967 15.019Q21.714 15.536 21.494 15.932Q21.34 16.174 21.164 16.361Q20.988 16.548 20.746 16.548Q20.57 16.548 20.372 16.383Q20.174 16.218 19.998 15.976Q19.822 15.734 19.679 15.426Q19.536 15.118 19.47 14.81Q19.294 13.864 19.173 12.731Q19.052 11.598 18.942 10.52Q18.92 10.146 19.041 9.827Q19.162 9.508 19.514 9.398Q19.888 9.332 20.086 9.508Q20.284 9.684 20.328 10.058ZM11.616 11.961Q11.748 11.246 11.88 10.652Q11.968 10.3 11.693 9.97Q11.418 9.64 11.088 9.574Q10.912 9.53 10.78 9.673Q10.648 9.816 10.604 9.992Q10.494 10.41 10.351 11.07Q10.208 11.73 10.109 12.467Q10.01 13.204 9.999 13.952Q9.988 14.7 10.164 15.316Q10.626 16.856 11.506 16.966Q12.1 17.032 12.661 16.757Q13.222 16.482 13.739 15.987Q14.256 15.492 14.707 14.887Q15.158 14.282 15.488 13.688Q15.51 13.996 15.576 14.447Q15.642 14.898 15.719 15.393Q15.796 15.888 15.895 16.339Q15.994 16.79 16.104 17.098Q16.214 17.362 16.423 17.45Q16.632 17.538 16.83 17.494Q17.072 17.428 17.27 17.12Q17.468 16.812 17.402 16.57Q17.27 15.976 17.138 15.228Q17.006 14.48 16.885 13.688Q16.764 12.896 16.676 12.104Q16.588 11.312 16.544 10.652Q16.544 10.476 16.445 10.311Q16.346 10.146 16.225 10.025Q16.104 9.904 15.961 9.838Q15.818 9.772 15.708 9.794Q15.554 9.816 15.323 9.981Q15.092 10.146 15.092 10.322Q15.092 10.63 15.026 10.916Q14.96 11.202 14.872 11.466Q14.718 11.994 14.344 12.687Q13.97 13.38 13.508 13.974Q13.046 14.568 12.562 14.953Q12.078 15.338 11.704 15.272Q11.484 15.052 11.429 14.524Q11.374 13.996 11.429 13.336Q11.484 12.676 11.616 11.961ZM47.003 10.652Q47.256 10.542 47.476 10.498Q47.96 10.41 48.433 10.509Q48.906 10.608 49.082 11.026Q48.84 11.18 48.477 11.312Q48.114 11.444 47.685 11.543Q47.256 11.642 46.805 11.708Q46.354 11.774 45.98 11.774Q46.002 11.51 46.167 11.301Q46.332 11.092 46.541 10.927Q46.75 10.762 47.003 10.652ZM36.828 10.773Q37.202 11.07 37.202 11.818Q37.202 12.324 36.982 12.775Q36.762 13.226 36.421 13.622Q36.08 14.018 35.684 14.337Q35.288 14.656 34.936 14.898Q34.826 14.392 34.749 13.754Q34.672 13.116 34.628 12.566Q34.606 12.236 34.705 11.884Q34.804 11.532 35.002 11.246Q35.2 10.96 35.464 10.762Q35.728 10.564 36.058 10.52Q36.454 10.476 36.828 10.773Z" />
    </g>
    <g id="personal-brands">
      <path d="M105.512 31.01Q105.446 30.614 105.567 30.284Q105.688 29.954 106.062 29.91Q106.392 29.866 106.645 30.086Q106.898 30.306 106.964 30.658Q107.404 33.188 107.789 35.685Q108.174 38.182 108.482 40.58Q108.57 41.218 108.394 41.449Q108.218 41.68 107.976 41.79Q107.712 41.9 107.481 41.79Q107.25 41.68 107.184 41.394L107.162 41.262L107.074 41.284Q106.348 41.548 105.556 41.581Q104.764 41.614 104.038 41.394Q103.312 41.174 102.751 40.679Q102.19 40.184 101.948 39.414Q101.42 37.72 102.608 36.334Q103.114 35.762 103.862 35.3Q104.61 34.838 105.666 34.574L106.062 34.486L105.512 31.01ZM70.576 30.988Q70.598 31.34 70.609 31.846Q70.62 32.352 70.642 32.946Q70.664 33.54 70.708 34.145Q70.752 34.75 70.84 35.3Q71.17 34.75 71.599 34.464Q72.028 34.178 72.468 34.112Q73.15 34.024 73.656 34.266Q74.162 34.508 74.492 34.937Q74.822 35.366 74.976 35.883Q75.13 36.4 75.13 36.884Q75.13 37.918 74.591 38.798Q74.052 39.678 73.337 40.36Q72.622 41.042 71.929 41.504Q71.236 41.966 70.928 42.164Q70.488 42.34 70.07 42.252Q69.652 42.164 69.52 41.988Q69.41 41.724 69.454 41.537Q69.498 41.35 69.63 41.196Q69.762 41.042 69.949 40.921Q70.136 40.8 70.268 40.69Q69.74 38.27 69.454 35.795Q69.168 33.32 69.212 30.768Q69.212 30.328 69.399 30.262Q69.586 30.196 69.718 30.196Q70.026 30.24 70.268 30.438Q70.51 30.636 70.576 30.988ZM60.72 36.829Q60.456 34.266 60.346 31.868Q60.324 31.472 60.159 31.197Q59.994 30.922 59.62 30.9Q59.268 30.878 59.158 31.241Q59.048 31.604 59.004 32.132Q59.026 33.144 59.114 34.354Q59.202 35.564 59.323 36.829Q59.444 38.094 59.598 39.348Q59.752 40.602 59.928 41.724Q59.95 41.856 60.049 42.032Q60.148 42.208 60.258 42.362Q60.368 42.516 60.5 42.615Q60.632 42.714 60.764 42.714Q60.9297 42.7079 61.0441 42.6281Q61.3396 42.4219 61.292 41.724Q60.984 39.392 60.72 36.829ZM56.1 34.024Q56.188 34.64 56.243 35.333Q56.298 36.026 56.331 36.73Q56.364 37.434 56.364 38.094Q56.364 38.754 56.342 39.282Q57.046 39.766 57.189 40.14Q57.332 40.514 57.222 40.8Q57.09 41.196 56.749 41.207Q56.408 41.218 55.968 40.976Q55.66 41.196 55.264 41.449Q54.868 41.702 54.428 41.933Q53.988 42.164 53.548 42.34Q53.108 42.516 52.734 42.582Q52.03 42.692 51.469 42.318Q50.908 41.944 50.71 41.196Q50.578 40.69 50.644 40.151Q50.71 39.612 50.974 39.117Q51.238 38.622 51.689 38.226Q52.14 37.83 52.756 37.61Q52.91 37.544 53.185 37.5Q53.46 37.456 53.757 37.467Q54.054 37.478 54.362 37.588Q54.67 37.698 54.934 37.962Q54.934 37.588 54.923 37.137Q54.912 36.686 54.89 36.224Q54.868 35.762 54.835 35.355Q54.802 34.948 54.758 34.662Q54.714 34.332 54.505 34.255Q54.296 34.178 53.988 34.288Q53.46 34.464 52.756 34.97Q52.052 35.476 51.414 36.048Q51.216 36.246 50.963 36.224Q50.71 36.202 50.534 36.026Q50.358 35.85 50.336 35.619Q50.314 35.388 50.512 35.124Q50.886 34.728 51.348 34.31Q51.81 33.892 52.316 33.551Q52.822 33.21 53.35 32.99Q53.878 32.77 54.406 32.748Q55.176 32.726 55.594 33.089Q56.012 33.452 56.1 34.024ZM90.068 34.024Q90.156 34.64 90.211 35.333Q90.266 36.026 90.299 36.73Q90.332 37.434 90.332 38.094Q90.332 38.754 90.31 39.282Q91.014 39.766 91.157 40.14Q91.3 40.514 91.19 40.8Q91.058 41.196 90.717 41.207Q90.376 41.218 89.936 40.976Q89.628 41.196 89.232 41.449Q88.836 41.702 88.396 41.933Q87.956 42.164 87.516 42.34Q87.076 42.516 86.702 42.582Q85.998 42.692 85.437 42.318Q84.876 41.944 84.678 41.196Q84.546 40.69 84.612 40.151Q84.678 39.612 84.942 39.117Q85.206 38.622 85.657 38.226Q86.108 37.83 86.724 37.61Q86.878 37.544 87.153 37.5Q87.428 37.456 87.725 37.467Q88.022 37.478 88.33 37.588Q88.638 37.698 88.902 37.962Q88.902 37.588 88.891 37.137Q88.88 36.686 88.858 36.224Q88.836 35.762 88.803 35.355Q88.77 34.948 88.726 34.662Q88.682 34.332 88.473 34.255Q88.264 34.178 87.956 34.288Q87.428 34.464 86.724 34.97Q86.02 35.476 85.382 36.048Q85.184 36.246 84.931 36.224Q84.678 36.202 84.502 36.026Q84.326 35.85 84.304 35.619Q84.282 35.388 84.48 35.124Q84.854 34.728 85.316 34.31Q85.778 33.892 86.284 33.551Q86.79 33.21 87.318 32.99Q87.846 32.77 88.374 32.748Q89.144 32.726 89.562 33.089Q89.98 33.452 90.068 34.024ZM4.422 45.013Q4.62 44.804 4.642 44.562Q4.664 43.682 4.62 42.516Q4.576 41.35 4.466 40.162Q5.192 39.722 5.907 39.161Q6.622 38.6 7.117 37.907Q7.612 37.214 7.777 36.367Q7.942 35.52 7.568 34.508Q7.26 33.892 6.765 33.573Q6.27 33.254 5.654 33.155Q5.038 33.056 4.367 33.133Q3.696 33.21 3.047 33.397Q2.398 33.584 1.815 33.837Q1.232 34.09 0.814 34.332Q0.33 34.64 0.099 34.992Q-0.132 35.344 0.066 35.784Q0.154 35.96 0.451 35.993Q0.748 36.026 1.056 35.85Q1.518 35.608 2.013 35.366Q2.508 35.124 3.025 34.948Q3.542 34.772 4.081 34.662Q4.62 34.552 5.17 34.574Q5.786 34.596 6.072 34.893Q6.358 35.19 6.402 35.564Q6.468 36.004 6.314 36.411Q6.16 36.818 5.863 37.192Q5.566 37.566 5.159 37.896Q4.752 38.226 4.29 38.512Q4.224 37.874 4.147 37.335Q4.07 36.796 4.004 36.378Q3.872 35.938 3.509 35.652Q3.146 35.366 2.86 35.476Q2.684 35.564 2.618 35.663Q2.552 35.762 2.508 35.872Q2.464 35.982 2.486 36.114Q2.596 36.862 2.695 37.654Q2.794 38.446 2.904 39.26Q2.464 39.524 2.266 39.81Q2.068 40.096 2.222 40.47Q2.31 40.69 2.541 40.789Q2.772 40.888 3.058 40.844Q3.124 41.812 3.168 42.725Q3.212 43.638 3.212 44.474Q3.212 44.65 3.41 44.914Q3.608 45.178 3.982 45.2Q4.224 45.222 4.422 45.013ZM28.952 35.124Q28.996 35.344 29.04 35.586Q29.062 35.784 29.249 35.905Q29.436 36.026 29.744 35.982Q29.986 35.938 30.085 35.74Q30.184 35.542 30.184 35.234Q30.074 34.31 29.458 33.837Q28.842 33.364 27.896 33.32Q27.346 33.32 26.796 33.562Q26.246 33.804 25.817 34.211Q25.388 34.618 25.124 35.146Q24.86 35.674 24.882 36.246Q24.97 36.884 25.3 37.313Q25.63 37.742 26.092 38.05Q26.554 38.358 27.203 38.732Q27.852 39.106 28.413 39.502Q28.974 39.898 29.315 40.261Q29.656 40.624 29.502 40.888Q29.326 41.196 28.886 41.394Q28.446 41.592 27.896 41.713Q27.346 41.834 26.741 41.889Q26.136 41.944 25.608 41.944Q25.234 41.944 24.882 42.098Q24.53 42.252 24.53 42.648Q24.53 42.758 24.651 42.901Q24.772 43.044 24.937 43.176Q25.102 43.308 25.289 43.407Q25.476 43.506 25.608 43.506Q26.158 43.506 26.95 43.429Q27.742 43.352 28.534 43.143Q29.326 42.934 29.986 42.56Q30.646 42.186 30.888 41.592Q31.196 40.822 30.987 40.217Q30.778 39.612 30.206 39.106Q29.634 38.6 28.798 38.116Q27.962 37.632 27.192 37.17Q26.73 36.862 26.488 36.554Q26.246 36.246 26.312 35.916Q26.334 35.74 26.576 35.509Q26.818 35.278 27.17 35.091Q27.522 34.904 27.94 34.816Q28.358 34.728 28.732 34.838Q28.908 34.904 28.952 35.124ZM113.674 35.124Q113.718 35.344 113.762 35.586Q113.784 35.784 113.971 35.905Q114.158 36.026 114.466 35.982Q114.708 35.938 114.807 35.74Q114.906 35.542 114.906 35.234Q114.796 34.31 114.18 33.837Q113.564 33.364 112.618 33.32Q112.068 33.32 111.518 33.562Q110.968 33.804 110.539 34.211Q110.11 34.618 109.846 35.146Q109.582 35.674 109.604 36.246Q109.692 36.884 110.022 37.313Q110.352 37.742 110.814 38.05Q111.276 38.358 111.925 38.732Q112.574 39.106 113.135 39.502Q113.696 39.898 114.037 40.261Q114.378 40.624 114.224 40.888Q114.048 41.196 113.608 41.394Q113.168 41.592 112.618 41.713Q112.068 41.834 111.463 41.889Q110.858 41.944 110.33 41.944Q109.956 41.944 109.604 42.098Q109.252 42.252 109.252 42.648Q109.252 42.758 109.373 42.901Q109.494 43.044 109.659 43.176Q109.824 43.308 110.011 43.407Q110.198 43.506 110.33 43.506Q110.88 43.506 111.672 43.429Q112.464 43.352 113.256 43.143Q114.048 42.934 114.708 42.56Q115.368 42.186 115.61 41.592Q115.918 40.822 115.709 40.217Q115.5 39.612 114.928 39.106Q114.356 38.6 113.52 38.116Q112.684 37.632 111.914 37.17Q111.452 36.862 111.21 36.554Q110.968 36.246 111.034 35.916Q111.056 35.74 111.298 35.509Q111.54 35.278 111.892 35.091Q112.244 34.904 112.662 34.816Q113.08 34.728 113.454 34.838Q113.63 34.904 113.674 35.124ZM23.606 34.574Q23.21 34.794 22.781 35.036Q22.352 35.278 21.923 35.597Q21.494 35.916 21.109 36.345Q20.724 36.774 20.416 37.368Q19.976 38.204 19.822 39.073Q19.668 39.942 19.624 40.778Q19.624 41.174 19.437 41.581Q19.25 41.988 18.92 41.988Q18.502 41.988 18.249 41.559Q17.996 41.13 17.908 40.734Q17.534 39.172 17.292 37.643Q17.05 36.114 16.874 34.596Q16.874 34.288 17.061 34.2Q17.248 34.112 17.49 34.134Q17.754 34.156 17.996 34.266Q18.238 34.376 18.282 34.618Q18.37 35.432 18.502 36.323Q18.634 37.214 18.766 37.852Q18.854 37.104 19.25 36.4Q19.646 35.696 20.229 35.124Q20.812 34.552 21.549 34.156Q22.286 33.76 23.056 33.628Q23.386 33.584 23.606 33.628Q23.826 33.672 23.914 33.782Q24.002 33.892 23.947 34.134Q23.892 34.376 23.606 34.574ZM82.423 35.036Q82.852 34.794 83.248 34.574Q83.534 34.376 83.589 34.134Q83.644 33.892 83.556 33.782Q83.468 33.672 83.248 33.628Q83.028 33.584 82.698 33.628Q81.928 33.76 81.191 34.156Q80.454 34.552 79.871 35.124Q79.288 35.696 78.892 36.4Q78.496 37.104 78.408 37.852Q78.276 37.214 78.144 36.323Q78.012 35.432 77.924 34.618Q77.88 34.376 77.638 34.266Q77.396 34.156 77.132 34.134Q76.89 34.112 76.703 34.2Q76.516 34.288 76.516 34.596Q76.692 36.114 76.934 37.643Q77.176 39.172 77.55 40.734Q77.638 41.13 77.891 41.559Q78.144 41.988 78.562 41.988Q78.892 41.988 79.079 41.581Q79.266 41.174 79.266 40.778Q79.31 39.942 79.464 39.073Q79.618 38.204 80.058 37.368Q80.366 36.774 80.751 36.345Q81.136 35.916 81.565 35.597Q81.994 35.278 82.423 35.036ZM42.823 35.641Q42.746 35.234 42.68 34.904Q42.504 34.068 41.734 33.936Q41.184 33.87 41.085 34.167Q40.986 34.464 41.14 34.97Q41.47 36.444 41.679 37.852Q41.888 39.26 42.086 40.976Q42.086 41.13 42.218 41.284Q42.35 41.438 42.57 41.504Q42.812 41.592 43.043 41.537Q43.274 41.482 43.428 41.328Q43.648 40.844 43.901 40.261Q44.154 39.678 44.418 39.095Q44.682 38.512 44.957 37.951Q45.232 37.39 45.496 36.928Q45.804 36.356 46.2 36.334Q46.53 36.29 46.794 36.796Q47.058 37.302 47.267 37.984Q47.476 38.666 47.641 39.326Q47.806 39.986 47.916 40.25Q47.938 40.36 48.092 40.47Q48.246 40.58 48.554 40.426Q49.214 40.14 49.082 39.546Q48.95 38.886 48.752 38.028Q48.554 37.17 48.213 36.389Q47.872 35.608 47.377 35.08Q46.882 34.552 46.156 34.552Q45.672 34.552 45.265 34.904Q44.858 35.256 44.495 35.795Q44.132 36.334 43.824 36.972Q43.516 37.61 43.252 38.182Q43.208 37.786 43.142 37.346Q43.076 36.906 42.988 36.477Q42.9 36.048 42.823 35.641ZM94.017 35.641Q93.94 35.234 93.874 34.904Q93.698 34.068 92.928 33.936Q92.378 33.87 92.279 34.167Q92.18 34.464 92.334 34.97Q92.664 36.444 92.873 37.852Q93.082 39.26 93.28 40.976Q93.28 41.13 93.412 41.284Q93.544 41.438 93.764 41.504Q94.006 41.592 94.237 41.537Q94.468 41.482 94.622 41.328Q94.842 40.844 95.095 40.261Q95.348 39.678 95.612 39.095Q95.876 38.512 96.151 37.951Q96.426 37.39 96.69 36.928Q96.998 36.356 97.394 36.334Q97.724 36.29 97.988 36.796Q98.252 37.302 98.461 37.984Q98.67 38.666 98.835 39.326Q99 39.986 99.11 40.25Q99.132 40.36 99.286 40.47Q99.44 40.58 99.748 40.426Q100.408 40.14 100.276 39.546Q100.144 38.886 99.946 38.028Q99.748 37.17 99.407 36.389Q99.066 35.608 98.571 35.08Q98.076 34.552 97.35 34.552Q96.866 34.552 96.459 34.904Q96.052 35.256 95.689 35.795Q95.326 36.334 95.018 36.972Q94.71 37.61 94.446 38.182Q94.402 37.786 94.336 37.346Q94.27 36.906 94.182 36.477Q94.094 36.048 94.017 35.641ZM37.444 34.486Q38.104 34.728 38.555 35.212Q39.006 35.696 39.248 36.301Q39.49 36.906 39.523 37.544Q39.556 38.182 39.38 38.732Q39.138 39.348 38.764 39.942Q38.39 40.536 37.906 40.998Q37.422 41.46 36.806 41.746Q36.19 42.032 35.442 42.032Q34.54 42.032 33.924 41.614Q33.308 41.196 32.956 40.536Q32.604 39.876 32.505 39.04Q32.406 38.204 32.538 37.368Q32.626 36.752 32.835 36.169Q33.044 35.586 33.374 35.135Q33.704 34.684 34.133 34.398Q34.562 34.112 35.112 34.112Q35.42 34.112 35.882 34.233Q36.344 34.354 36.74 34.574Q37.026 34.31 37.444 34.486ZM12.782 37.775Q13.772 37.5 14.63 36.994Q15.004 36.752 15.081 36.444Q15.158 36.136 14.982 35.718Q14.674 34.97 13.904 34.552Q13.134 34.134 12.188 34.2Q11.396 34.244 10.802 34.552Q10.208 34.86 9.812 35.333Q9.416 35.806 9.229 36.422Q9.042 37.038 9.108 37.72Q9.174 38.446 9.438 39.128Q9.702 39.81 10.208 40.316Q10.802 40.888 11.55 41.086Q12.298 41.284 13.002 41.152Q13.816 41.02 14.476 40.525Q15.136 40.03 15.488 39.326Q15.576 38.776 15.268 38.666Q15.158 38.622 14.938 38.677Q14.718 38.732 14.52 38.908Q14.322 39.084 14.058 39.26Q13.794 39.436 13.475 39.579Q13.156 39.722 12.793 39.788Q12.43 39.854 12.078 39.81Q11.484 39.722 11.088 39.271Q10.692 38.82 10.648 38.05Q11.792 38.05 12.782 37.775ZM36.608 36.092Q36.366 35.938 36.047 35.685Q35.728 35.432 35.486 35.432Q35.222 35.432 34.969 35.674Q34.716 35.916 34.529 36.235Q34.342 36.554 34.21 36.884Q34.078 37.214 34.034 37.412Q33.968 37.742 33.946 38.204Q33.924 38.666 34.012 39.117Q34.1 39.568 34.353 39.931Q34.606 40.294 35.112 40.448Q35.42 40.536 35.838 40.437Q36.256 40.338 36.663 40.074Q37.07 39.81 37.433 39.37Q37.796 38.93 37.994 38.358Q38.214 37.72 38.005 37.027Q37.796 36.334 37.158 36.026Q37.004 36.136 36.85 36.136Q36.696 36.136 36.608 36.092ZM11.627 35.652Q11.88 35.542 12.1 35.498Q12.584 35.41 13.057 35.509Q13.53 35.608 13.706 36.026Q13.464 36.18 13.101 36.312Q12.738 36.444 12.309 36.543Q11.88 36.642 11.429 36.708Q10.978 36.774 10.604 36.774Q10.626 36.51 10.791 36.301Q10.956 36.092 11.165 35.927Q11.374 35.762 11.627 35.652ZM73.788 36.818Q73.788 36.07 73.414 35.773Q73.04 35.476 72.644 35.52Q72.314 35.564 72.05 35.762Q71.786 35.96 71.588 36.246Q71.39 36.532 71.291 36.884Q71.192 37.236 71.214 37.566Q71.258 38.116 71.335 38.754Q71.412 39.392 71.522 39.898Q71.874 39.656 72.27 39.337Q72.666 39.018 73.007 38.622Q73.348 38.226 73.568 37.775Q73.788 37.324 73.788 36.818ZM103.29 38.864Q103.422 39.392 103.774 39.678Q104.126 39.964 104.61 40.063Q105.094 40.162 105.644 40.096Q106.194 40.03 106.722 39.854L106.92 39.788L106.304 35.916L105.864 36.026Q105.402 36.158 104.885 36.433Q104.368 36.708 103.972 37.082Q103.576 37.456 103.367 37.918Q103.158 38.38 103.29 38.864ZM53.548 38.754Q53.262 38.82 52.943 39.029Q52.624 39.238 52.371 39.535Q52.118 39.832 51.997 40.195Q51.876 40.558 51.986 40.91Q52.03 41.042 52.173 41.108Q52.316 41.174 52.492 41.13Q53.02 41.02 53.691 40.701Q54.362 40.382 54.758 40.008Q54.758 39.876 54.626 39.667Q54.494 39.458 54.318 39.249Q54.142 39.04 53.933 38.886Q53.724 38.732 53.548 38.754ZM87.516 38.754Q87.23 38.82 86.911 39.029Q86.592 39.238 86.339 39.535Q86.086 39.832 85.965 40.195Q85.844 40.558 85.954 40.91Q85.998 41.042 86.141 41.108Q86.284 41.174 86.46 41.13Q86.988 41.02 87.659 40.701Q88.33 40.382 88.726 40.008Q88.726 39.876 88.594 39.667Q88.462 39.458 88.286 39.249Q88.11 39.04 87.901 38.886Q87.692 38.732 87.516 38.754Z" />
    </g>
  </g>
</svg>