<?xml version="1.0" encoding="utf-8"?>
<svg width="617px" height="331px" viewBox="0 0 617 331" version="1.1" xmlns:xlink="http://www.w3.org/1999/xlink" xmlns="http://www.w3.org/2000/svg">
  <desc>Created with Lunacy</desc>
  <path d="M0 36.5C0 16.3416 16.5655 0 37 0C57.4345 0 74 16.3416 74 36.5C74 56.6584 57.4345 73 37 73C16.5655 73 0 56.6584 0 36.5Z" transform="translate(18 115)" id="Ellipse" fill="#D3D3D3" stroke="none" />
  <path d="M0 10.8514C0 4.85832 4.92487 0 11 0C17.0751 0 22 4.85832 22 10.8514C22 16.8444 17.0751 21.7027 11 21.7027C4.92487 21.7027 0 16.8444 0 10.8514Z" transform="translate(39 124)" id="Ellipse-3" fill="#000000" stroke="none" />
  <path d="M0 165.236C0 73.9789 74.9923 0 167.5 0C260.008 0 335 73.9789 335 165.236C335 256.494 260.008 330.473 167.5 330.473C74.9923 330.473 0 256.494 0 165.236Z" transform="translate(282 0)" id="Ellipse-2" fill="#D3D3D3" stroke="none" />
  <path d="M0 37L147 0" transform="matrix(0.9702957 0.2419219 -0.2419219 0.9702957 109.8626 119.6964)" id="New-shape-3" fill="#AEAEB2" stroke="#000000" stroke-width="4" />
  <path d="M0 0L14 2.5L5 11.5" transform="matrix(0.9510565 0.309017 -0.309017 0.9510565 251.7418 148.3753)" id="New-shape-4" fill="none" stroke="#000000" stroke-width="3" />
  <path d="M0 53.8513C0 24.1101 24.4403 0 54.589 0C84.7377 0 109.178 24.1101 109.178 53.8513C109.178 83.5926 84.7377 107.703 54.589 107.703C24.4403 107.703 0 83.5926 0 53.8513Z" transform="translate(360 21)" id="Ellipse-4" fill="#000000" stroke="none" />
  <path d="M0 50L0 0" transform="translate(50 80)" id="New-shape-5" fill="none" stroke="#686868" stroke-width="3" stroke-dasharray="6 8" />
  <path d="M0 50L0 0" transform="translate(64 174)" id="New-shape-6" fill="none" stroke="#686868" stroke-width="3" stroke-dasharray="6 8" />
  <g id="your-business" transform="translate(0 42)">
    <path d="M70.56 1.844Q70.596 2.42 70.614 3.248Q70.632 4.076 70.668 5.048Q70.704 6.02 70.776 7.01Q70.848 8 70.992 8.9Q71.532 8 72.234 7.532Q72.936 7.064 73.656 6.956Q74.772 6.812 75.6 7.208Q76.428 7.604 76.968 8.306Q77.508 9.008 77.76 9.854Q78.012 10.7 78.012 11.492Q78.012 13.184 77.13 14.624Q76.248 16.064 75.078 17.18Q73.908 18.296 72.774 19.052Q71.64 19.808 71.136 20.132Q70.416 20.42 69.732 20.276Q69.048 20.132 68.832 19.844Q68.652 19.412 68.724 19.106Q68.796 18.8 69.012 18.548Q69.228 18.296 69.534 18.098Q69.84 17.9 70.056 17.72Q69.192 13.76 68.724 9.71Q68.256 5.66 68.328 1.484Q68.328 0.764 68.634 0.656Q68.94 0.548 69.156 0.547998Q69.66 0.620001 70.056 0.943998Q70.452 1.268 70.56 1.844ZM113.04 5.84Q113.472 5.804 113.544 5.444Q113.616 4.94 113.274 4.58Q112.932 4.22 112.356 4.04Q111.96 3.932 111.348 3.914Q110.736 3.896 110.07 3.968Q109.404 4.04 108.756 4.202Q108.108 4.364 107.64 4.58Q107.352 4.724 107.136 4.904Q106.92 5.084 106.92 5.372Q107.028 6.128 107.532 6.38Q108.036 6.632 108.468 6.488Q109.512 6.2 110.466 6.056Q111.42 5.912 112.32 5.876Q112.608 5.876 113.04 5.84ZM102.024 9.368Q101.952 8.972 101.88 8.612Q101.808 8.252 101.52 8.144Q100.908 7.964 100.224 8.108Q99.54 8.252 98.964 8.558Q98.388 8.864 97.992 9.242Q97.596 9.62 97.56 9.908Q97.452 10.448 97.848 10.952Q98.244 11.456 99 11.96Q100.26 12.716 101.628 13.508Q102.996 14.3 103.932 15.128Q104.868 15.956 105.21 16.946Q105.552 17.936 105.048 19.196Q104.652 20.168 103.572 20.78Q102.492 21.392 101.196 21.734Q99.9 22.076 98.604 22.202Q97.308 22.328 96.408 22.328Q96.192 22.328 95.886 22.166Q95.58 22.004 95.31 21.788Q95.04 21.572 94.842 21.338Q94.644 21.104 94.644 20.924Q94.644 20.276 95.22 20.024Q95.796 19.772 96.408 19.772Q97.272 19.772 98.262 19.682Q99.252 19.592 100.152 19.394Q101.052 19.196 101.772 18.872Q102.492 18.548 102.78 18.044Q103.032 17.612 102.474 17.018Q101.916 16.424 100.998 15.776Q100.08 15.128 99.018 14.516Q97.956 13.904 97.2 13.4Q96.444 12.896 95.904 12.194Q95.364 11.492 95.22 10.448Q95.184 9.512 95.616 8.648Q96.048 7.784 96.75 7.118Q97.452 6.452 98.352 6.056Q99.252 5.66 100.152 5.66Q101.7 5.732 102.708 6.506Q103.716 7.28 103.896 8.792Q103.896 9.296 103.734 9.62Q103.572 9.944 103.176 10.016Q102.672 10.088 102.366 9.89Q102.06 9.692 102.024 9.368ZM150.84 9.368Q150.768 8.972 150.696 8.612Q150.624 8.252 150.336 8.144Q149.724 7.964 149.04 8.108Q148.356 8.252 147.78 8.558Q147.204 8.864 146.808 9.242Q146.412 9.62 146.376 9.908Q146.268 10.448 146.664 10.952Q147.06 11.456 147.816 11.96Q149.076 12.716 150.444 13.508Q151.812 14.3 152.748 15.128Q153.684 15.956 154.026 16.946Q154.368 17.936 153.864 19.196Q153.468 20.168 152.388 20.78Q151.308 21.392 150.012 21.734Q148.716 22.076 147.42 22.202Q146.124 22.328 145.224 22.328Q145.008 22.328 144.702 22.166Q144.396 22.004 144.126 21.788Q143.856 21.572 143.658 21.338Q143.46 21.104 143.46 20.924Q143.46 20.276 144.036 20.024Q144.612 19.772 145.224 19.772Q146.088 19.772 147.078 19.682Q148.068 19.592 148.968 19.394Q149.868 19.196 150.588 18.872Q151.308 18.548 151.596 18.044Q151.848 17.612 151.29 17.018Q150.732 16.424 149.814 15.776Q148.896 15.128 147.834 14.516Q146.772 13.904 146.016 13.4Q145.26 12.896 144.72 12.194Q144.18 11.492 144.036 10.448Q144 9.512 144.432 8.648Q144.864 7.784 145.566 7.118Q146.268 6.452 147.168 6.056Q148.068 5.66 148.968 5.66Q150.516 5.732 151.524 6.506Q152.532 7.28 152.712 8.792Q152.712 9.296 152.55 9.62Q152.388 9.944 151.992 10.016Q151.488 10.088 151.182 9.89Q150.876 9.692 150.84 9.368ZM162.9 8.612Q162.972 8.972 163.044 9.368Q163.08 9.692 163.386 9.89Q163.692 10.088 164.196 10.016Q164.592 9.944 164.754 9.62Q164.916 9.296 164.916 8.792Q164.736 7.28 163.728 6.506Q162.72 5.732 161.172 5.66Q160.272 5.66 159.372 6.056Q158.472 6.452 157.77 7.118Q157.068 7.784 156.636 8.648Q156.204 9.512 156.24 10.448Q156.384 11.492 156.924 12.194Q157.464 12.896 158.22 13.4Q158.976 13.904 160.038 14.516Q161.1 15.128 162.018 15.776Q162.936 16.424 163.494 17.018Q164.052 17.612 163.8 18.044Q163.512 18.548 162.792 18.872Q162.072 19.196 161.172 19.394Q160.272 19.592 159.282 19.682Q158.292 19.772 157.428 19.772Q156.816 19.772 156.24 20.024Q155.664 20.276 155.664 20.924Q155.664 21.104 155.862 21.338Q156.06 21.572 156.33 21.788Q156.6 22.004 156.906 22.166Q157.212 22.328 157.428 22.328Q158.328 22.328 159.624 22.202Q160.92 22.076 162.216 21.734Q163.512 21.392 164.592 20.78Q165.672 20.168 166.068 19.196Q166.572 17.936 166.23 16.946Q165.888 15.956 164.952 15.128Q164.016 14.3 162.648 13.508Q161.28 12.716 160.02 11.96Q159.264 11.456 158.868 10.952Q158.472 10.448 158.58 9.908Q158.616 9.62 159.012 9.242Q159.408 8.864 159.984 8.558Q160.56 8.252 161.244 8.108Q161.928 7.964 162.54 8.144Q162.828 8.252 162.9 8.612ZM54.81 8.468Q55.512 8.072 56.16 7.712Q56.628 7.388 56.718 6.992Q56.808 6.596 56.664 6.416Q56.52 6.236 56.16 6.164Q55.8 6.092 55.26 6.164Q54 6.38 52.794 7.028Q51.588 7.676 50.634 8.612Q49.68 9.548 49.032 10.7Q48.384 11.852 48.24 13.076Q48.024 12.032 47.808 10.574Q47.592 9.116 47.448 7.784Q47.376 7.388 46.98 7.208Q46.584 7.028 46.152 6.992Q45.756 6.956 45.45 7.1Q45.144 7.244 45.144 7.748Q45.432 10.232 45.828 12.734Q46.224 15.236 46.836 17.792Q46.98 18.44 47.394 19.142Q47.808 19.844 48.492 19.844Q49.032 19.844 49.338 19.178Q49.644 18.512 49.644 17.864Q49.716 16.496 49.968 15.074Q50.22 13.652 50.94 12.284Q51.444 11.312 52.074 10.61Q52.704 9.908 53.406 9.386Q54.108 8.864 54.81 8.468ZM118.512 8.252Q118.62 8.792 118.746 9.458Q118.872 10.124 119.016 10.826Q119.16 11.528 119.268 12.248Q119.376 12.968 119.448 13.616Q119.88 12.68 120.384 11.636Q120.888 10.592 121.482 9.71Q122.076 8.828 122.742 8.252Q123.408 7.676 124.2 7.676Q125.388 7.676 126.198 8.54Q127.008 9.404 127.566 10.682Q128.124 11.96 128.448 13.364Q128.772 14.768 128.988 15.848Q129.204 16.82 128.124 17.288Q127.62 17.54 127.368 17.36Q127.116 17.18 127.08 17Q126.9 16.568 126.63 15.488Q126.36 14.408 126.018 13.292Q125.676 12.176 125.244 11.348Q124.812 10.52 124.272 10.592Q123.624 10.628 123.12 11.564Q122.688 12.32 122.238 13.238Q121.788 14.156 121.356 15.11Q120.924 16.064 120.51 17.018Q120.096 17.972 119.736 18.764Q119.484 19.016 119.106 19.106Q118.728 19.196 118.332 19.052Q117.972 18.944 117.756 18.692Q117.54 18.44 117.54 18.188Q117.216 15.38 116.874 13.076Q116.532 10.772 115.992 8.36Q115.74 7.532 115.902 7.046Q116.064 6.56 116.964 6.668Q118.224 6.884 118.512 8.252ZM26.19 8.756Q25.452 7.964 24.372 7.568Q23.688 7.28 23.22 7.712Q22.572 7.352 21.816 7.154Q21.06 6.956 20.556 6.956Q19.656 6.956 18.954 7.424Q18.252 7.892 17.712 8.63Q17.172 9.368 16.83 10.322Q16.488 11.276 16.344 12.284Q16.128 13.652 16.29 15.02Q16.452 16.388 17.028 17.468Q17.604 18.548 18.612 19.232Q19.62 19.916 21.096 19.916Q22.32 19.916 23.328 19.448Q24.336 18.98 25.128 18.224Q25.92 17.468 26.532 16.496Q27.144 15.524 27.54 14.516Q27.828 13.616 27.774 12.572Q27.72 11.528 27.324 10.538Q26.928 9.548 26.19 8.756ZM137.16 12.95Q138.78 12.5 140.184 11.672Q140.796 11.276 140.922 10.772Q141.048 10.268 140.76 9.584Q140.256 8.36 138.996 7.676Q137.736 6.992 136.188 7.1Q134.892 7.172 133.92 7.676Q132.948 8.18 132.3 8.954Q131.652 9.728 131.346 10.736Q131.04 11.744 131.148 12.86Q131.256 14.048 131.688 15.164Q132.12 16.28 132.948 17.108Q133.92 18.044 135.144 18.368Q136.368 18.692 137.52 18.476Q138.852 18.26 139.932 17.45Q141.012 16.64 141.588 15.488Q141.732 14.588 141.228 14.408Q141.048 14.336 140.688 14.426Q140.328 14.516 140.004 14.804Q139.68 15.092 139.248 15.38Q138.816 15.668 138.294 15.902Q137.772 16.136 137.178 16.244Q136.584 16.352 136.008 16.28Q135.036 16.136 134.388 15.398Q133.74 14.66 133.668 13.4Q135.54 13.4 137.16 12.95ZM33.732 9.476Q33.516 10.448 33.3 11.618Q33.084 12.788 32.994 13.868Q32.904 14.948 32.994 15.812Q33.084 16.676 33.444 17.036Q34.056 17.144 34.848 16.514Q35.64 15.884 36.396 14.912Q37.152 13.94 37.764 12.806Q38.376 11.672 38.628 10.808Q38.772 10.376 38.88 9.908Q38.988 9.44 38.988 8.936Q38.988 8.648 39.366 8.378Q39.744 8.108 39.996 8.072Q40.176 8.036 40.41 8.144Q40.644 8.252 40.842 8.45Q41.04 8.648 41.202 8.918Q41.364 9.188 41.364 9.476Q41.436 10.556 41.58 11.852Q41.724 13.148 41.922 14.444Q42.12 15.74 42.336 16.964Q42.552 18.188 42.768 19.16Q42.876 19.556 42.552 20.06Q42.228 20.564 41.832 20.672Q41.508 20.744 41.166 20.6Q40.824 20.456 40.644 20.024Q40.464 19.52 40.302 18.782Q40.14 18.044 40.014 17.234Q39.888 16.424 39.78 15.686Q39.672 14.948 39.636 14.444Q39.096 15.416 38.358 16.406Q37.62 17.396 36.774 18.206Q35.928 19.016 35.01 19.466Q34.092 19.916 33.12 19.808Q31.68 19.628 30.924 17.108Q30.636 16.1 30.654 14.876Q30.672 13.652 30.834 12.446Q30.996 11.24 31.23 10.16Q31.464 9.08 31.644 8.396Q31.716 8.108 31.932 7.874Q32.148 7.64 32.436 7.712Q32.976 7.82 33.426 8.36Q33.876 8.9 33.732 9.476ZM83.196 11.618Q83.412 10.448 83.628 9.476Q83.772 8.9 83.322 8.36Q82.872 7.82 82.332 7.712Q82.044 7.64 81.828 7.874Q81.612 8.108 81.54 8.396Q81.36 9.08 81.126 10.16Q80.892 11.24 80.73 12.446Q80.568 13.652 80.55 14.876Q80.532 16.1 80.82 17.108Q81.576 19.628 83.016 19.808Q83.988 19.916 84.906 19.466Q85.824 19.016 86.67 18.206Q87.516 17.396 88.254 16.406Q88.992 15.416 89.532 14.444Q89.568 14.948 89.676 15.686Q89.784 16.424 89.91 17.234Q90.036 18.044 90.198 18.782Q90.36 19.52 90.54 20.024Q90.72 20.456 91.062 20.6Q91.404 20.744 91.728 20.672Q92.124 20.564 92.448 20.06Q92.772 19.556 92.664 19.16Q92.448 18.188 92.232 16.964Q92.016 15.74 91.818 14.444Q91.62 13.148 91.476 11.852Q91.332 10.556 91.26 9.476Q91.26 9.188 91.098 8.918Q90.936 8.648 90.738 8.45Q90.54 8.252 90.306 8.144Q90.072 8.036 89.892 8.072Q89.64 8.108 89.262 8.378Q88.884 8.648 88.884 8.936Q88.884 9.44 88.776 9.908Q88.668 10.376 88.524 10.808Q88.272 11.672 87.66 12.806Q87.048 13.94 86.292 14.912Q85.536 15.884 84.744 16.514Q83.952 17.144 83.34 17.036Q82.98 16.676 82.89 15.812Q82.8 14.948 82.89 13.868Q82.98 12.788 83.196 11.618ZM12.87 12.716Q12.744 10.736 12.636 8.792Q12.636 8.396 12.186 8.018Q11.736 7.64 11.16 7.712Q10.944 7.748 10.746 7.946Q10.548 8.144 10.404 8.414Q10.26 8.684 10.188 8.972Q10.116 9.26 10.116 9.476Q10.116 10.484 9.63 11.546Q9.144 12.608 8.46 13.472Q7.776 14.336 7.038 14.876Q6.3 15.416 5.76 15.416Q5.292 15.416 4.878 14.804Q4.464 14.192 4.104 13.382Q3.744 12.572 3.492 11.744Q3.24 10.916 3.096 10.52Q2.916 10.124 2.448 9.944Q1.98 9.764 1.44 9.872Q1.044 9.944 0.972 10.268Q0.9 10.592 0.972 10.952Q1.008 11.24 1.206 11.96Q1.404 12.68 1.728 13.58Q2.052 14.48 2.502 15.434Q2.952 16.388 3.528 17.144Q4.032 17.756 4.536 17.972Q5.04 18.188 5.544 18.188Q6.156 18.188 6.84 17.882Q7.524 17.576 8.172 17.126Q8.82 16.676 9.396 16.1Q9.972 15.524 10.404 14.984Q10.62 17.144 10.422 18.962Q10.224 20.78 9.576 22.328Q8.928 23.876 7.848 25.208Q6.768 26.54 5.184 27.728Q4.68 28.16 4.464 28.556Q4.248 28.952 4.356 29.276Q4.428 29.492 4.68 29.618Q4.932 29.744 5.256 29.798Q5.58 29.852 5.922 29.816Q6.264 29.78 6.552 29.6Q8.388 28.448 9.594 27.008Q10.8 25.568 11.52 23.894Q12.24 22.22 12.546 20.384Q12.852 18.548 12.924 16.622Q12.996 14.696 12.87 12.716ZM22.086 9.53Q22.608 9.944 23.004 10.196Q23.148 10.268 23.4 10.268Q23.652 10.268 23.904 10.088Q24.948 10.592 25.29 11.726Q25.632 12.86 25.272 13.904Q24.948 14.84 24.354 15.56Q23.76 16.28 23.094 16.712Q22.428 17.144 21.744 17.306Q21.06 17.468 20.556 17.324Q19.728 17.072 19.314 16.478Q18.9 15.884 18.756 15.146Q18.612 14.408 18.648 13.652Q18.684 12.896 18.792 12.356Q18.864 12.032 19.08 11.492Q19.296 10.952 19.602 10.43Q19.908 9.908 20.322 9.512Q20.736 9.116 21.168 9.116Q21.564 9.116 22.086 9.53ZM135.27 9.476Q135.684 9.296 136.044 9.224Q136.836 9.08 137.61 9.242Q138.384 9.404 138.672 10.088Q138.276 10.34 137.682 10.556Q137.088 10.772 136.386 10.934Q135.684 11.096 134.946 11.204Q134.208 11.312 133.596 11.312Q133.632 10.88 133.902 10.538Q134.172 10.196 134.514 9.926Q134.856 9.656 135.27 9.476ZM75.816 11.384Q75.816 10.16 75.204 9.674Q74.592 9.188 73.944 9.26Q73.404 9.332 72.972 9.656Q72.54 9.98 72.216 10.448Q71.892 10.916 71.73 11.492Q71.568 12.068 71.604 12.608Q71.676 13.508 71.802 14.552Q71.928 15.596 72.108 16.424Q72.684 16.028 73.332 15.506Q73.98 14.984 74.538 14.336Q75.096 13.688 75.456 12.95Q75.816 12.212 75.816 11.384ZM112.986 18.674Q112.968 18.008 112.716 17.432Q112.5 16.964 112.356 16.226Q112.212 15.488 112.104 14.696Q111.996 13.904 111.96 13.112Q111.924 12.32 111.924 11.672Q111.96 10.844 111.564 10.286Q111.168 9.728 110.52 9.692Q110.124 9.764 109.872 10.196Q109.62 10.628 109.584 11.132Q109.584 11.6 109.602 12.536Q109.62 13.472 109.728 14.552Q109.836 15.632 110.052 16.73Q110.268 17.828 110.664 18.584Q110.952 19.196 111.528 19.556Q112.104 19.916 112.608 19.592Q113.004 19.34 112.986 18.674Z" />
  </g>
  <g id="the-market" transform="translate(17 226)">
    <path d="M18.684 4.184Q18.684 5.048 18.666 6.128Q18.648 7.208 18.666 8.36Q18.684 9.512 18.702 10.736Q18.72 11.96 18.756 13.076Q19.116 12.356 19.62 11.654Q20.124 10.952 20.754 10.412Q21.384 9.872 22.086 9.548Q22.788 9.224 23.616 9.224Q24.516 9.224 25.218 9.8Q25.92 10.376 26.442 11.33Q26.964 12.284 27.324 13.454Q27.684 14.624 27.918 15.83Q28.152 17.036 28.26 18.134Q28.368 19.232 28.44 20.024Q28.44 20.6 28.152 20.96Q27.864 21.32 27.468 21.32Q27.18 21.32 26.766 20.942Q26.352 20.564 26.172 20.024Q26.064 19.592 25.956 18.764Q25.848 17.936 25.704 16.982Q25.56 16.028 25.344 15.056Q25.128 14.084 24.822 13.31Q24.516 12.536 24.084 12.104Q23.652 11.672 23.076 11.78Q22.176 11.96 21.51 13.04Q20.844 14.12 20.358 15.488Q19.872 16.856 19.566 18.26Q19.26 19.664 19.116 20.528Q18.972 21.176 18.738 21.41Q18.504 21.644 18.216 21.644Q17.928 21.644 17.694 21.356Q17.46 21.068 17.262 20.654Q17.064 20.24 16.92 19.79Q16.776 19.34 16.74 19.016Q16.56 17.072 16.452 15.29Q16.344 13.508 16.29 11.708Q16.236 9.908 16.236 8.018Q16.236 6.128 16.308 3.968Q16.308 2.82243 16.8329 2.47884Q17.1328 2.28256 17.604 2.348Q18.036 2.42 18.36 2.978Q18.684 3.536 18.684 4.184ZM112.284 8.306Q111.996 8.324 111.852 8.36Q111.348 8.504 110.52 8.9Q109.692 9.296 108.738 9.782Q107.784 10.268 106.83 10.79Q105.876 11.312 105.156 11.744Q104.868 9.584 104.58 7.64Q104.292 5.696 104.004 4.04Q103.716 3.14 103.14 2.69Q102.564 2.24 102.024 2.456Q101.628 2.636 101.646 3.23Q101.664 3.824 101.736 4.328Q101.952 5.912 102.222 7.964Q102.492 10.016 102.78 12.176Q103.068 14.336 103.338 16.352Q103.608 18.368 103.824 19.844Q103.968 20.456 104.256 20.834Q104.544 21.212 105.156 21.32Q105.732 21.356 105.984 20.924Q106.236 20.492 106.02 19.808Q105.912 18.548 105.786 17.288Q105.66 16.028 105.516 14.768Q106.272 15.272 107.19 15.866Q108.108 16.46 109.08 17.054Q110.052 17.648 110.988 18.206Q111.924 18.764 112.716 19.16Q113.148 19.376 113.634 19.268Q114.12 19.16 114.336 18.908Q114.501 18.7304 114.518 18.5393Q114.55 18.1883 114.084 17.792Q113.292 17.144 112.392 16.478Q111.492 15.812 110.592 15.218Q109.692 14.624 108.846 14.084Q108 13.544 107.352 13.112Q108.396 12.464 109.872 11.654Q111.348 10.844 112.716 10.196Q113.22 9.944 113.418 9.602Q113.616 9.26 113.544 8.828Q113.508 8.648 113.31 8.522Q113.112 8.396 112.842 8.342Q112.572 8.288 112.284 8.306ZM9.648 10.484Q10.332 10.448 11.016 10.808Q11.7 11.168 11.7 11.924Q11.628 12.536 11.034 12.698Q10.44 12.86 10.08 12.86Q9.36 12.86 8.532 12.896Q7.704 12.932 6.84 13.004Q6.768 14.192 6.714 15.236Q6.66 16.28 6.624 17.09Q6.588 17.9 6.588 18.404Q6.588 18.908 6.624 18.944Q7.416 18.8 8.334 18.458Q9.252 18.116 10.17 17.702Q11.088 17.288 11.97 16.838Q12.852 16.388 13.644 15.992Q14.004 15.812 14.31 15.884Q14.616 15.956 14.688 16.208Q14.76 16.604 14.58 17.18Q14.4 17.756 13.932 18.224Q13.392 18.656 12.51 19.214Q11.628 19.772 10.62 20.276Q9.612 20.78 8.586 21.158Q7.56 21.536 6.768 21.608Q5.58 21.716 4.968 20.96Q4.356 20.204 4.284 19.052Q4.212 17.9 4.266 16.388Q4.32 14.876 4.392 13.184Q3.708 13.256 3.078 13.31Q2.448 13.364 1.872 13.436Q1.404 13.436 0.846 13.22Q0.288 13.004 0.288 12.392Q0.288 12.176 0.468 11.816Q0.648 11.456 1.26 11.276Q2.736 11.024 4.536 10.844Q4.644 9.152 4.788 7.568Q4.932 5.984 5.04 4.688Q5.076 4.256 5.292 3.932Q5.508 3.608 5.76 3.608Q6.372 3.572 6.93 3.914Q7.488 4.256 7.488 4.688Q7.344 5.912 7.218 7.46Q7.092 9.008 6.984 10.628Q7.704 10.556 8.37 10.538Q9.036 10.52 9.648 10.484ZM138.744 10.808Q138.06 10.448 137.376 10.484Q136.764 10.52 136.098 10.538Q135.432 10.556 134.712 10.628Q134.82 9.008 134.946 7.46Q135.072 5.912 135.216 4.688Q135.216 4.256 134.658 3.914Q134.1 3.572 133.488 3.608Q133.236 3.608 133.02 3.932Q132.804 4.256 132.768 4.688Q132.66 5.984 132.516 7.568Q132.372 9.152 132.264 10.844Q130.464 11.024 128.988 11.276Q128.376 11.456 128.196 11.816Q128.016 12.176 128.016 12.392Q128.016 13.004 128.574 13.22Q129.132 13.436 129.6 13.436Q130.176 13.364 130.806 13.31Q131.436 13.256 132.12 13.184Q132.048 14.876 131.994 16.388Q131.94 17.9 132.012 19.052Q132.084 20.204 132.696 20.96Q133.308 21.716 134.496 21.608Q135.288 21.536 136.314 21.158Q137.34 20.78 138.348 20.276Q139.356 19.772 140.238 19.214Q141.12 18.656 141.66 18.224Q142.128 17.756 142.308 17.18Q142.488 16.604 142.416 16.208Q142.344 15.956 142.038 15.884Q141.732 15.812 141.372 15.992Q140.58 16.388 139.698 16.838Q138.816 17.288 137.898 17.702Q136.98 18.116 136.062 18.458Q135.144 18.8 134.352 18.944Q134.316 18.908 134.316 18.404Q134.316 17.9 134.352 17.09Q134.388 16.28 134.442 15.236Q134.496 14.192 134.568 13.004Q135.432 12.932 136.26 12.896Q137.088 12.86 137.808 12.86Q138.168 12.86 138.762 12.698Q139.356 12.536 139.428 11.924Q139.428 11.168 138.744 10.808ZM85.338 8.954Q85.248 7.82 85.104 6.812Q84.96 5.876 84.276 5.282Q83.592 4.688 82.332 4.724Q81.468 4.76 80.604 5.12Q79.74 5.48 78.912 6.038Q78.084 6.596 77.328 7.28Q76.572 7.964 75.96 8.612Q75.636 9.044 75.672 9.422Q75.708 9.8 75.996 10.088Q76.284 10.376 76.698 10.412Q77.112 10.448 77.436 10.124Q78.48 9.188 79.632 8.36Q80.784 7.532 81.648 7.244Q82.152 7.064 82.494 7.19Q82.836 7.316 82.908 7.856Q82.98 8.324 83.034 8.99Q83.088 9.656 83.124 10.412Q83.16 11.168 83.178 11.906Q83.196 12.644 83.196 13.256Q82.764 12.824 82.26 12.644Q81.756 12.464 81.27 12.446Q80.784 12.428 80.334 12.5Q79.884 12.572 79.632 12.68Q78.624 13.04 77.886 13.688Q77.148 14.336 76.716 15.146Q76.284 15.956 76.176 16.838Q76.068 17.72 76.284 18.548Q76.608 19.772 77.526 20.384Q78.444 20.996 79.596 20.816Q80.208 20.708 80.928 20.42Q81.648 20.132 82.368 19.754Q83.088 19.376 83.736 18.962Q84.384 18.548 84.888 18.188Q85.608 18.584 86.166 18.566Q86.724 18.548 86.94 17.9Q87.12 17.432 86.886 16.82Q86.652 16.208 85.5 15.416Q85.536 14.552 85.536 13.472Q85.536 12.392 85.482 11.24Q85.428 10.088 85.338 8.954ZM99.792 7.712Q99.144 8.072 98.442 8.468Q97.74 8.864 97.038 9.386Q96.336 9.908 95.706 10.61Q95.076 11.312 94.572 12.284Q93.852 13.652 93.6 15.074Q93.348 16.496 93.276 17.864Q93.276 18.512 92.97 19.178Q92.664 19.844 92.124 19.844Q91.44 19.844 91.026 19.142Q90.612 18.44 90.468 17.792Q89.856 15.236 89.46 12.734Q89.064 10.232 88.776 7.748Q88.776 7.244 89.082 7.1Q89.388 6.956 89.784 6.992Q90.216 7.028 90.612 7.208Q91.008 7.388 91.08 7.784Q91.224 9.116 91.44 10.574Q91.656 12.032 91.872 13.076Q92.016 11.852 92.664 10.7Q93.312 9.548 94.266 8.612Q95.22 7.676 96.426 7.028Q97.632 6.38 98.892 6.164Q99.432 6.092 99.792 6.164Q100.152 6.236 100.296 6.416Q100.44 6.596 100.35 6.992Q100.26 7.388 99.792 7.712ZM36.72 12.95Q38.34 12.5 39.744 11.672Q40.356 11.276 40.482 10.772Q40.608 10.268 40.32 9.584Q39.816 8.36 38.556 7.676Q37.296 6.992 35.748 7.1Q34.452 7.172 33.48 7.676Q32.508 8.18 31.86 8.954Q31.212 9.728 30.906 10.736Q30.6 11.744 30.708 12.86Q30.816 14.048 31.248 15.164Q31.68 16.28 32.508 17.108Q33.48 18.044 34.704 18.368Q35.928 18.692 37.08 18.476Q38.412 18.26 39.492 17.45Q40.572 16.64 41.148 15.488Q41.292 14.588 40.788 14.408Q40.608 14.336 40.248 14.426Q39.888 14.516 39.564 14.804Q39.24 15.092 38.808 15.38Q38.376 15.668 37.854 15.902Q37.332 16.136 36.738 16.244Q36.144 16.352 35.568 16.28Q34.596 16.136 33.948 15.398Q33.3 14.66 33.228 13.4Q35.1 13.4 36.72 12.95ZM125.28 11.672Q123.876 12.5 122.256 12.95Q120.636 13.4 118.764 13.4Q118.836 14.66 119.484 15.398Q120.132 16.136 121.104 16.28Q121.68 16.352 122.274 16.244Q122.868 16.136 123.39 15.902Q123.912 15.668 124.344 15.38Q124.776 15.092 125.1 14.804Q125.424 14.516 125.784 14.426Q126.144 14.336 126.324 14.408Q126.828 14.588 126.684 15.488Q126.108 16.64 125.028 17.45Q123.948 18.26 122.616 18.476Q121.464 18.692 120.24 18.368Q119.016 18.044 118.044 17.108Q117.216 16.28 116.784 15.164Q116.352 14.048 116.244 12.86Q116.136 11.744 116.442 10.736Q116.748 9.728 117.396 8.954Q118.044 8.18 119.016 7.676Q119.988 7.172 121.284 7.1Q122.832 6.992 124.092 7.676Q125.352 8.36 125.856 9.584Q126.144 10.268 126.018 10.772Q125.892 11.276 125.28 11.672ZM55.908 8.504Q55.944 9.08 56.034 9.926Q56.124 10.772 56.232 11.69Q56.34 12.608 56.466 13.508Q56.592 14.408 56.7 15.164L57.672 13.22Q58.248 12.068 58.878 11.006Q59.508 9.944 60.174 9.206Q60.84 8.468 61.38 8.468Q61.956 8.468 62.442 9.026Q62.928 9.584 63.288 10.376Q63.648 11.168 63.918 12.068Q64.188 12.968 64.368 13.652Q64.512 13.184 64.746 12.59Q64.98 11.996 65.25 11.366Q65.52 10.736 65.862 10.124Q66.204 9.512 66.6 9.044Q67.068 8.54 67.608 8.306Q68.148 8.072 68.4 8.072Q68.724 8.072 69.174 8.27Q69.624 8.468 70.092 8.792Q70.56 9.116 70.974 9.566Q71.388 10.016 71.64 10.484Q72.144 11.456 72.45 12.608Q72.756 13.76 72.9 14.804Q73.044 15.848 73.098 16.658Q73.152 17.468 73.188 17.792Q73.188 18.26 73.08 18.494Q72.972 18.728 72.684 18.872Q72.288 19.052 72 18.998Q71.712 18.944 71.532 18.764Q71.352 18.584 71.244 18.35Q71.136 18.116 71.1 17.936Q70.992 17.108 70.866 16.244Q70.74 15.38 70.596 14.57Q70.452 13.76 70.254 13.058Q70.056 12.356 69.84 11.816Q69.768 11.672 69.606 11.438Q69.444 11.204 69.246 10.988Q69.048 10.772 68.868 10.628Q68.688 10.484 68.616 10.448Q68.256 10.448 67.86 11.114Q67.464 11.78 67.104 12.716Q66.744 13.652 66.438 14.678Q66.132 15.704 65.988 16.424Q65.988 17.36 65.628 17.81Q65.268 18.26 64.872 18.26Q64.476 18.26 64.026 17.954Q63.576 17.648 63.432 17.252Q63.216 16.676 62.964 15.956Q62.712 15.236 62.442 14.48Q62.172 13.724 61.902 13.004Q61.632 12.284 61.38 11.708Q60.876 12.392 60.39 13.22Q59.904 14.048 59.454 14.912Q59.004 15.776 58.59 16.622Q58.176 17.468 57.816 18.116Q57.564 18.512 57.276 18.818Q56.988 19.124 56.592 19.124Q56.304 19.124 55.98 18.854Q55.656 18.584 55.368 18.188Q55.08 17.792 54.846 17.288Q54.612 16.784 54.504 16.28Q54.216 14.732 54.018 12.878Q53.82 11.024 53.64 9.26Q53.604 8.648 53.802 8.126Q54 7.604 54.576 7.424Q55.188 7.316 55.512 7.604Q55.836 7.892 55.908 8.504ZM34.83 9.476Q35.244 9.296 35.604 9.224Q36.396 9.08 37.17 9.242Q37.944 9.404 38.232 10.088Q37.836 10.34 37.242 10.556Q36.648 10.772 35.946 10.934Q35.244 11.096 34.506 11.204Q33.768 11.312 33.156 11.312Q33.192 10.88 33.462 10.538Q33.732 10.196 34.074 9.926Q34.416 9.656 34.83 9.476ZM121.14 9.224Q120.78 9.296 120.366 9.476Q119.952 9.656 119.61 9.926Q119.268 10.196 118.998 10.538Q118.728 10.88 118.692 11.312Q119.304 11.312 120.042 11.204Q120.78 11.096 121.482 10.934Q122.184 10.772 122.778 10.556Q123.372 10.34 123.768 10.088Q123.48 9.404 122.706 9.242Q121.932 9.08 121.14 9.224ZM79.938 15.002Q80.46 14.66 80.928 14.552Q81.216 14.516 81.558 14.768Q81.9 15.02 82.188 15.362Q82.476 15.704 82.692 16.046Q82.908 16.388 82.908 16.604Q82.26 17.216 81.162 17.738Q80.064 18.26 79.2 18.44Q78.912 18.512 78.678 18.404Q78.444 18.296 78.372 18.08Q78.192 17.504 78.39 16.91Q78.588 16.316 79.002 15.83Q79.416 15.344 79.938 15.002Z" />
  </g>
</svg>