<?xml version="1.0" encoding="utf-8"?>
<svg width="859px" height="668px" viewBox="0 0 859 668" version="1.1" xmlns:xlink="http://www.w3.org/1999/xlink" xmlns="http://www.w3.org/2000/svg">
  <desc>Created with Lunacy</desc>
  <path d="M0 19C0 8.50659 8.28273 0 18.5 0C28.7173 0 37 8.50659 37 19C37 29.4934 28.7173 38 18.5 38C8.28273 38 0 29.4934 0 19Z" transform="translate(39.5 90.5)" id="Ellipse" fill="none" stroke="#000000" stroke-width="3" />
  <path d="M18 0L18 61L0 89" transform="translate(39.5 128.5)" id="New-shape" fill="none" stroke="#000000" stroke-width="3" />
  <path d="M19 27L0 0" transform="translate(57.5 189.5)" id="New-shape-2" fill="none" stroke="#000000" stroke-width="3" />
  <path d="M0 0L20 24" transform="translate(56.5 148.5)" id="New-shape-3" fill="none" stroke="#000000" stroke-width="3" />
  <path d="M18 0L0 24" transform="translate(39.5 148.5)" id="New-shape-4" fill="none" stroke="#000000" stroke-width="3" />
  <path d="M0 19C0 8.50659 8.28273 0 18.5 0C28.7173 0 37 8.50659 37 19C37 29.4934 28.7173 38 18.5 38C8.28273 38 0 29.4934 0 19Z" transform="translate(544.5 25.5)" id="Ellipse-2" fill="none" stroke="#000000" stroke-width="3" />
  <path d="M18 0L18 61L0 89" transform="translate(544.5 63.5)" id="New-shape-5" fill="none" stroke="#000000" stroke-width="3" />
  <path d="M19 27L0 0" transform="translate(562.5 124.5)" id="New-shape-6" fill="none" stroke="#000000" stroke-width="3" />
  <path d="M0 0L20 24" transform="translate(561.5 83.5)" id="New-shape-7" fill="none" stroke="#000000" stroke-width="3" />
  <path d="M18 0L0 24" transform="translate(544.5 83.5)" id="New-shape-8" fill="none" stroke="#000000" stroke-width="3" />
  <path d="M0 19C0 8.50659 8.28273 0 18.5 0C28.7173 0 37 8.50659 37 19C37 29.4934 28.7173 38 18.5 38C8.28273 38 0 29.4934 0 19Z" transform="translate(544.5 25.5)" id="Ellipse-3" fill="none" stroke="#000000" stroke-width="3" />
  <path d="M18 0L18 61L0 89" transform="translate(544.5 63.5)" id="New-shape-9" fill="none" stroke="#000000" stroke-width="3" />
  <path d="M19 27L0 0" transform="translate(562.5 124.5)" id="New-shape-10" fill="none" stroke="#000000" stroke-width="3" />
  <path d="M0 0L20 24" transform="translate(561.5 83.5)" id="New-shape-11" fill="none" stroke="#000000" stroke-width="3" />
  <path d="M18 0L0 24" transform="translate(544.5 83.5)" id="New-shape-12" fill="none" stroke="#000000" stroke-width="3" />
  <path d="M0 19C0 8.50659 8.28273 0 18.5 0C28.7173 0 37 8.50659 37 19C37 29.4934 28.7173 38 18.5 38C8.28273 38 0 29.4934 0 19Z" transform="translate(627.5 46.5)" id="Ellipse-4" fill="none" stroke="#000000" stroke-width="3" />
  <path d="M18 0L18 61L0 89" transform="translate(627.5 84.5)" id="New-shape-13" fill="none" stroke="#000000" stroke-width="3" />
  <path d="M19 27L0 0" transform="translate(645.5 145.5)" id="New-shape-14" fill="none" stroke="#000000" stroke-width="3" />
  <path d="M0 0L20 24" transform="translate(644.5 104.5)" id="New-shape-15" fill="none" stroke="#000000" stroke-width="3" />
  <path d="M18 0L0 24" transform="translate(627.5 104.5)" id="New-shape-16" fill="none" stroke="#000000" stroke-width="3" />
  <path d="M0 19C0 8.50659 8.28273 0 18.5 0C28.7173 0 37 8.50659 37 19C37 29.4934 28.7173 38 18.5 38C8.28273 38 0 29.4934 0 19Z" transform="translate(687.5 67.5)" id="Ellipse-5" fill="none" stroke="#000000" stroke-width="3" />
  <path d="M18 0L18 61L0 89" transform="translate(687.5 105.5)" id="New-shape-17" fill="none" stroke="#000000" stroke-width="3" />
  <path d="M19 27L0 0" transform="translate(705.5 166.5)" id="New-shape-18" fill="none" stroke="#000000" stroke-width="3" />
  <path d="M0 0L20 24" transform="translate(704.5 125.5)" id="New-shape-19" fill="none" stroke="#000000" stroke-width="3" />
  <path d="M18 0L0 24" transform="translate(687.5 125.5)" id="New-shape-20" fill="none" stroke="#000000" stroke-width="3" />
  <path d="M0 19C0 8.50659 8.28273 0 18.5 0C28.7173 0 37 8.50659 37 19C37 29.4934 28.7173 38 18.5 38C8.28273 38 0 29.4934 0 19Z" transform="translate(564.5 172.5)" id="Ellipse-6" fill="none" stroke="#000000" stroke-width="3" />
  <path d="M18 0L18 61L0 89" transform="translate(564.5 210.5)" id="New-shape-21" fill="none" stroke="#000000" stroke-width="3" />
  <path d="M19 27L0 0" transform="translate(582.5 271.5)" id="New-shape-22" fill="none" stroke="#000000" stroke-width="3" />
  <path d="M0 0L20 24" transform="translate(581.5 230.5)" id="New-shape-23" fill="none" stroke="#000000" stroke-width="3" />
  <path d="M18 0L0 24" transform="translate(564.5 230.5)" id="New-shape-24" fill="none" stroke="#000000" stroke-width="3" />
  <path d="M0 19C0 8.50659 8.28273 0 18.5 0C28.7173 0 37 8.50659 37 19C37 29.4934 28.7173 38 18.5 38C8.28273 38 0 29.4934 0 19Z" transform="translate(645.5 188.5)" id="Ellipse-7" fill="none" stroke="#000000" stroke-width="3" />
  <path d="M18 0L18 61L0 89" transform="translate(645.5 226.5)" id="New-shape-25" fill="none" stroke="#000000" stroke-width="3" />
  <path d="M19 27L0 0" transform="translate(663.5 287.5)" id="New-shape-26" fill="none" stroke="#000000" stroke-width="3" />
  <path d="M0 0L20 24" transform="translate(662.5 246.5)" id="New-shape-27" fill="none" stroke="#000000" stroke-width="3" />
  <path d="M18 0L0 24" transform="translate(645.5 246.5)" id="New-shape-28" fill="none" stroke="#000000" stroke-width="3" />
  <path d="M0 19C0 8.50659 8.28273 0 18.5 0C28.7173 0 37 8.50659 37 19C37 29.4934 28.7173 38 18.5 38C8.28273 38 0 29.4934 0 19Z" transform="translate(747.5 158.5)" id="Ellipse-8" fill="none" stroke="#000000" stroke-width="3" />
  <path d="M18 0L18 61L0 89" transform="translate(747.5 196.5)" id="New-shape-29" fill="none" stroke="#000000" stroke-width="3" />
  <path d="M19 27L0 0" transform="translate(765.5 257.5)" id="New-shape-30" fill="none" stroke="#000000" stroke-width="3" />
  <path d="M0 0L20 24" transform="translate(764.5 216.5)" id="New-shape-31" fill="none" stroke="#000000" stroke-width="3" />
  <path d="M18 0L0 24" transform="translate(747.5 216.5)" id="New-shape-32" fill="none" stroke="#000000" stroke-width="3" />
  <path d="M0 19C0 8.50659 8.28273 0 18.5 0C28.7173 0 37 8.50659 37 19C37 29.4934 28.7173 38 18.5 38C8.28273 38 0 29.4934 0 19Z" transform="translate(746.5 1.5)" id="Ellipse-9" fill="none" stroke="#000000" stroke-width="3" />
  <path d="M18 0L18 61L0 89" transform="translate(746.5 39.5)" id="New-shape-33" fill="none" stroke="#000000" stroke-width="3" />
  <path d="M19 27L0 0" transform="translate(764.5 100.5)" id="New-shape-34" fill="none" stroke="#000000" stroke-width="3" />
  <path d="M0 0L20 24" transform="translate(763.5 59.5)" id="New-shape-35" fill="none" stroke="#000000" stroke-width="3" />
  <path d="M18 0L0 24" transform="translate(746.5 59.5)" id="New-shape-36" fill="none" stroke="#000000" stroke-width="3" />
  <path d="M0 19C0 8.50659 8.28273 0 18.5 0C28.7173 0 37 8.50659 37 19C37 29.4934 28.7173 38 18.5 38C8.28273 38 0 29.4934 0 19Z" transform="translate(820.5 109.5)" id="Ellipse-10" fill="none" stroke="#000000" stroke-width="3" />
  <path d="M18 0L18 61L0 89" transform="translate(820.5 147.5)" id="New-shape-37" fill="none" stroke="#000000" stroke-width="3" />
  <path d="M19 27L0 0" transform="translate(838.5 208.5)" id="New-shape-38" fill="none" stroke="#000000" stroke-width="3" />
  <path d="M0 0L20 24" transform="translate(837.5 167.5)" id="New-shape-39" fill="none" stroke="#000000" stroke-width="3" />
  <path d="M18 0L0 24" transform="translate(820.5 167.5)" id="New-shape-40" fill="none" stroke="#000000" stroke-width="3" />
  <path d="M0 19C0 8.50659 8.28273 0 18.5 0C28.7173 0 37 8.50659 37 19C37 29.4934 28.7173 38 18.5 38C8.28273 38 0 29.4934 0 19Z" transform="translate(485.5 109.5)" id="Ellipse-11" fill="none" stroke="#000000" stroke-width="3" />
  <path d="M18 0L18 61L0 89" transform="translate(485.5 147.5)" id="New-shape-41" fill="none" stroke="#000000" stroke-width="3" />
  <path d="M19 27L0 0" transform="translate(503.5 208.5)" id="New-shape-42" fill="none" stroke="#000000" stroke-width="3" />
  <path d="M0 0L20 24" transform="translate(502.5 167.5)" id="New-shape-43" fill="none" stroke="#000000" stroke-width="3" />
  <path d="M18 0L0 24" transform="translate(485.5 167.5)" id="New-shape-44" fill="none" stroke="#000000" stroke-width="3" />
  <path d="M0 75.0239L295.115 0L295.115 0L295.115 0L295.115 0" transform="matrix(0.9702957 0.2419219 -0.2419219 0.9702957 130.65 130.5)" id="New-shape-45" fill="#AEAEB2" stroke="#000000" stroke-width="4" />
  <path d="M0 0L14 2.5L5 11.5" transform="matrix(0.9510565 0.309017 -0.309017 0.9510565 418.0528 194.4577)" id="New-shape-46" fill="none" stroke="#000000" stroke-width="3" />
  <g id="traditional-networking" transform="translate(153.5 160.5)">
    <path d="M37.408 4.24Q37.324 3.736 37.478 3.316Q37.632 2.896 38.108 2.84Q38.528 2.784 38.85 3.064Q39.172 3.344 39.256 3.792Q39.816 7.012 40.306 10.19Q40.796 13.368 41.188 16.42Q41.3 17.232 41.076 17.526Q40.852 17.82 40.544 17.96Q40.208 18.1 39.914 17.96Q39.62 17.82 39.536 17.456L39.508 17.288L39.396 17.316Q38.472 17.652 37.464 17.694Q36.456 17.736 35.532 17.456Q34.608 17.176 33.894 16.546Q33.18 15.916 32.872 14.936Q32.2 12.78 33.712 11.016Q34.356 10.288 35.308 9.7Q36.26 9.112 37.604 8.776L38.108 8.664L37.408 4.24ZM103.712 11.646Q103.376 8.384 103.236 5.332Q103.208 4.828 102.998 4.478Q102.788 4.128 102.312 4.1Q101.864 4.072 101.724 4.534Q101.584 4.996 101.528 5.668Q101.556 6.956 101.668 8.496Q101.78 10.036 101.934 11.646Q102.088 13.256 102.284 14.852Q102.48 16.448 102.704 17.876Q102.732 18.044 102.858 18.268Q102.984 18.492 103.124 18.688Q103.264 18.884 103.432 19.01Q103.6 19.136 103.768 19.136Q103.979 19.1282 104.124 19.0266Q104.501 18.7643 104.44 17.876Q104.048 14.908 103.712 11.646ZM192.668 9.28Q192.78 9.252 193.004 9.238Q193.228 9.224 193.438 9.266Q193.648 9.308 193.802 9.406Q193.956 9.504 193.984 9.644Q194.04 9.98 193.886 10.246Q193.732 10.512 193.34 10.708Q192.276 11.212 191.128 11.842Q189.98 12.472 189.168 12.976Q189.672 13.312 190.33 13.732Q190.988 14.152 191.688 14.614Q192.388 15.076 193.088 15.594Q193.788 16.112 194.404 16.616Q194.767 16.9242 194.742 17.1972Q194.728 17.3458 194.6 17.484Q194.432 17.68 194.054 17.764Q193.676 17.848 193.34 17.68Q192.724 17.372 191.996 16.938Q191.268 16.504 190.512 16.042Q189.756 15.58 189.042 15.118Q188.328 14.656 187.74 14.264Q187.852 15.244 187.95 16.224Q188.048 17.204 188.132 18.184Q188.3 18.716 188.104 19.052Q187.908 19.388 187.46 19.36Q186.984 19.276 186.76 18.982Q186.536 18.688 186.424 18.212Q186.256 17.064 186.046 15.496Q185.836 13.928 185.612 12.248Q185.388 10.568 185.178 8.972Q184.968 7.376 184.8 6.144Q184.744 5.752 184.73 5.29Q184.716 4.828 185.024 4.688Q185.444 4.52 185.892 4.87Q186.34 5.22 186.564 5.92Q186.788 7.208 187.012 8.72Q187.236 10.232 187.46 11.912Q188.02 11.576 188.762 11.17Q189.504 10.764 190.246 10.386Q190.988 10.008 191.632 9.7Q192.276 9.392 192.668 9.28ZM7.504 10.932Q8.036 10.904 8.568 11.184Q9.1 11.464 9.1 12.052Q9.044 12.528 8.582 12.654Q8.12 12.78 7.84 12.78Q7.28 12.78 6.636 12.808Q5.992 12.836 5.32 12.892Q5.264 13.816 5.222 14.628Q5.18 15.44 5.152 16.07Q5.124 16.7 5.124 17.092Q5.124 17.484 5.152 17.512Q5.768 17.4 6.482 17.134Q7.196 16.868 7.91 16.546Q8.624 16.224 9.31 15.874Q9.996 15.524 10.612 15.216Q10.892 15.076 11.13 15.132Q11.368 15.188 11.424 15.384Q11.48 15.692 11.34 16.14Q11.2 16.588 10.836 16.952Q10.416 17.288 9.73 17.722Q9.044 18.156 8.26 18.548Q7.476 18.94 6.678 19.234Q5.88 19.528 5.264 19.584Q4.34 19.668 3.864 19.08Q3.388 18.492 3.332 17.596Q3.276 16.7 3.318 15.524Q3.36 14.348 3.416 13.032Q2.884 13.088 2.394 13.13Q1.904 13.172 1.456 13.228Q1.092 13.228 0.658 13.06Q0.224 12.892 0.224 12.416Q0.224 12.248 0.364 11.968Q0.504 11.688 0.98 11.548Q2.128 11.352 3.528 11.212Q3.612 9.896 3.724 8.664Q3.836 7.432 3.92 6.424Q3.948 6.088 4.116 5.836Q4.284 5.584 4.48 5.584Q4.956 5.556 5.39 5.822Q5.824 6.088 5.824 6.424Q5.712 7.376 5.614 8.58Q5.516 9.784 5.432 11.044Q5.992 10.988 6.51 10.974Q7.028 10.96 7.504 10.932ZM55.804 10.932Q56.336 10.904 56.868 11.184Q57.4 11.464 57.4 12.052Q57.344 12.528 56.882 12.654Q56.42 12.78 56.14 12.78Q55.58 12.78 54.936 12.808Q54.292 12.836 53.62 12.892Q53.564 13.816 53.522 14.628Q53.48 15.44 53.452 16.07Q53.424 16.7 53.424 17.092Q53.424 17.484 53.452 17.512Q54.068 17.4 54.782 17.134Q55.496 16.868 56.21 16.546Q56.924 16.224 57.61 15.874Q58.296 15.524 58.912 15.216Q59.192 15.076 59.43 15.132Q59.668 15.188 59.724 15.384Q59.78 15.692 59.64 16.14Q59.5 16.588 59.136 16.952Q58.716 17.288 58.03 17.722Q57.344 18.156 56.56 18.548Q55.776 18.94 54.978 19.234Q54.18 19.528 53.564 19.584Q52.64 19.668 52.164 19.08Q51.688 18.492 51.632 17.596Q51.576 16.7 51.618 15.524Q51.66 14.348 51.716 13.032Q51.184 13.088 50.694 13.13Q50.204 13.172 49.756 13.228Q49.392 13.228 48.958 13.06Q48.524 12.892 48.524 12.416Q48.524 12.248 48.664 11.968Q48.804 11.688 49.28 11.548Q50.428 11.352 51.828 11.212Q51.912 9.896 52.024 8.664Q52.136 7.432 52.22 6.424Q52.248 6.088 52.416 5.836Q52.584 5.584 52.78 5.584Q53.256 5.556 53.69 5.822Q54.124 6.088 54.124 6.424Q54.012 7.376 53.914 8.58Q53.816 9.784 53.732 11.044Q54.292 10.988 54.81 10.974Q55.328 10.96 55.804 10.932ZM142.632 10.932Q143.164 10.904 143.696 11.184Q144.228 11.464 144.228 12.052Q144.172 12.528 143.71 12.654Q143.248 12.78 142.968 12.78Q142.408 12.78 141.764 12.808Q141.12 12.836 140.448 12.892Q140.392 13.816 140.35 14.628Q140.308 15.44 140.28 16.07Q140.252 16.7 140.252 17.092Q140.252 17.484 140.28 17.512Q140.896 17.4 141.61 17.134Q142.324 16.868 143.038 16.546Q143.752 16.224 144.438 15.874Q145.124 15.524 145.74 15.216Q146.02 15.076 146.258 15.132Q146.496 15.188 146.552 15.384Q146.608 15.692 146.468 16.14Q146.328 16.588 145.964 16.952Q145.544 17.288 144.858 17.722Q144.172 18.156 143.388 18.548Q142.604 18.94 141.806 19.234Q141.008 19.528 140.392 19.584Q139.468 19.668 138.992 19.08Q138.516 18.492 138.46 17.596Q138.404 16.7 138.446 15.524Q138.488 14.348 138.544 13.032Q138.012 13.088 137.522 13.13Q137.032 13.172 136.584 13.228Q136.22 13.228 135.786 13.06Q135.352 12.892 135.352 12.416Q135.352 12.248 135.492 11.968Q135.632 11.688 136.108 11.548Q137.256 11.352 138.656 11.212Q138.74 9.896 138.852 8.664Q138.964 7.432 139.048 6.424Q139.076 6.088 139.244 5.836Q139.412 5.584 139.608 5.584Q140.084 5.556 140.518 5.822Q140.952 6.088 140.952 6.424Q140.84 7.376 140.742 8.58Q140.644 9.784 140.56 11.044Q141.12 10.988 141.638 10.974Q142.156 10.96 142.632 10.932ZM46.984 7.32Q47.32 7.292 47.376 7.012Q47.432 6.62 47.166 6.34Q46.9 6.06 46.452 5.92Q46.144 5.836 45.668 5.822Q45.192 5.808 44.674 5.864Q44.156 5.92 43.652 6.046Q43.148 6.172 42.784 6.34Q42.56 6.452 42.392 6.592Q42.224 6.732 42.224 6.956Q42.308 7.544 42.7 7.74Q43.092 7.936 43.428 7.824Q44.24 7.6 44.982 7.488Q45.724 7.376 46.424 7.348Q46.648 7.348 46.984 7.32ZM65.184 7.32Q65.52 7.292 65.576 7.012Q65.632 6.62 65.366 6.34Q65.1 6.06 64.652 5.92Q64.344 5.836 63.868 5.822Q63.392 5.808 62.874 5.864Q62.356 5.92 61.852 6.046Q61.348 6.172 60.984 6.34Q60.76 6.452 60.592 6.592Q60.424 6.732 60.424 6.956Q60.508 7.544 60.9 7.74Q61.292 7.936 61.628 7.824Q62.44 7.6 63.182 7.488Q63.924 7.376 64.624 7.348Q64.848 7.348 65.184 7.32ZM200.648 7.32Q200.984 7.292 201.04 7.012Q201.096 6.62 200.83 6.34Q200.564 6.06 200.116 5.92Q199.808 5.836 199.332 5.822Q198.856 5.808 198.338 5.864Q197.82 5.92 197.316 6.046Q196.812 6.172 196.448 6.34Q196.224 6.452 196.056 6.592Q195.888 6.732 195.888 6.956Q195.972 7.544 196.364 7.74Q196.756 7.936 197.092 7.824Q197.904 7.6 198.646 7.488Q199.388 7.376 200.088 7.348Q200.312 7.348 200.648 7.32ZM29.806 9.742Q29.736 8.86 29.624 8.076Q29.512 7.348 28.98 6.886Q28.448 6.424 27.468 6.452Q26.796 6.48 26.124 6.76Q25.452 7.04 24.808 7.474Q24.164 7.908 23.576 8.44Q22.988 8.972 22.512 9.476Q22.26 9.812 22.288 10.106Q22.316 10.4 22.54 10.624Q22.764 10.848 23.086 10.876Q23.408 10.904 23.66 10.652Q24.472 9.924 25.368 9.28Q26.264 8.636 26.936 8.412Q27.328 8.272 27.594 8.37Q27.86 8.468 27.916 8.888Q27.972 9.252 28.014 9.77Q28.056 10.288 28.084 10.876Q28.112 11.464 28.126 12.038Q28.14 12.612 28.14 13.088Q27.804 12.752 27.412 12.612Q27.02 12.472 26.642 12.458Q26.264 12.444 25.914 12.5Q25.564 12.556 25.368 12.64Q24.584 12.92 24.01 13.424Q23.436 13.928 23.1 14.558Q22.764 15.188 22.68 15.874Q22.596 16.56 22.764 17.204Q23.016 18.156 23.73 18.632Q24.444 19.108 25.34 18.968Q25.816 18.884 26.376 18.66Q26.936 18.436 27.496 18.142Q28.056 17.848 28.56 17.526Q29.064 17.204 29.456 16.924Q30.016 17.232 30.45 17.218Q30.884 17.204 31.052 16.7Q31.192 16.336 31.01 15.86Q30.828 15.384 29.932 14.768Q29.96 14.096 29.96 13.256Q29.96 12.416 29.918 11.52Q29.876 10.624 29.806 9.742ZM97.832 8.076Q97.944 8.86 98.014 9.742Q98.084 10.624 98.126 11.52Q98.168 12.416 98.168 13.256Q98.168 14.096 98.14 14.768Q99.036 15.384 99.218 15.86Q99.4 16.336 99.26 16.7Q99.092 17.204 98.658 17.218Q98.224 17.232 97.664 16.924Q97.272 17.204 96.768 17.526Q96.264 17.848 95.704 18.142Q95.144 18.436 94.584 18.66Q94.024 18.884 93.548 18.968Q92.652 19.108 91.938 18.632Q91.224 18.156 90.972 17.204Q90.804 16.56 90.888 15.874Q90.972 15.188 91.308 14.558Q91.644 13.928 92.218 13.424Q92.792 12.92 93.576 12.64Q93.772 12.556 94.122 12.5Q94.472 12.444 94.85 12.458Q95.228 12.472 95.62 12.612Q96.012 12.752 96.348 13.088Q96.348 12.612 96.334 12.038Q96.32 11.464 96.292 10.876Q96.264 10.288 96.222 9.77Q96.18 9.252 96.124 8.888Q96.068 8.468 95.802 8.37Q95.536 8.272 95.144 8.412Q94.472 8.636 93.576 9.28Q92.68 9.924 91.868 10.652Q91.616 10.904 91.294 10.876Q90.972 10.848 90.748 10.624Q90.524 10.4 90.496 10.106Q90.468 9.812 90.72 9.476Q91.196 8.972 91.784 8.44Q92.372 7.908 93.016 7.474Q93.66 7.04 94.332 6.76Q95.004 6.48 95.676 6.452Q96.656 6.424 97.188 6.886Q97.72 7.348 97.832 8.076ZM20.944 8.776Q20.44 9.056 19.894 9.364Q19.348 9.672 18.802 10.078Q18.256 10.484 17.766 11.03Q17.276 11.576 16.884 12.332Q16.324 13.396 16.128 14.502Q15.932 15.608 15.876 16.672Q15.876 17.176 15.638 17.694Q15.4 18.212 14.98 18.212Q14.448 18.212 14.126 17.666Q13.804 17.12 13.692 16.616Q13.216 14.628 12.908 12.682Q12.6 10.736 12.376 8.804Q12.376 8.412 12.614 8.3Q12.852 8.188 13.16 8.216Q13.496 8.244 13.804 8.384Q14.112 8.524 14.168 8.832Q14.28 9.868 14.448 11.002Q14.616 12.136 14.784 12.948Q14.896 11.996 15.4 11.1Q15.904 10.204 16.646 9.476Q17.388 8.748 18.326 8.244Q19.264 7.74 20.244 7.572Q20.664 7.516 20.944 7.572Q21.224 7.628 21.336 7.768Q21.448 7.908 21.378 8.216Q21.308 8.524 20.944 8.776ZM182.238 9.364Q182.784 9.056 183.288 8.776Q183.652 8.524 183.722 8.216Q183.792 7.908 183.68 7.768Q183.568 7.628 183.288 7.572Q183.008 7.516 182.588 7.572Q181.608 7.74 180.67 8.244Q179.732 8.748 178.99 9.476Q178.248 10.204 177.744 11.1Q177.24 11.996 177.128 12.948Q176.96 12.136 176.792 11.002Q176.624 9.868 176.512 8.832Q176.456 8.524 176.148 8.384Q175.84 8.244 175.504 8.216Q175.196 8.188 174.958 8.3Q174.72 8.412 174.72 8.804Q174.944 10.736 175.252 12.682Q175.56 14.628 176.036 16.616Q176.148 17.12 176.47 17.666Q176.792 18.212 177.324 18.212Q177.744 18.212 177.982 17.694Q178.22 17.176 178.22 16.672Q178.276 15.608 178.472 14.502Q178.668 13.396 179.228 12.332Q179.62 11.576 180.11 11.03Q180.6 10.484 181.146 10.078Q181.692 9.672 182.238 9.364ZM80.934 10.134Q80.836 9.616 80.752 9.196Q80.528 8.132 79.548 7.964Q78.848 7.88 78.722 8.258Q78.596 8.636 78.792 9.28Q79.212 11.156 79.478 12.948Q79.744 14.74 79.996 16.924Q79.996 17.12 80.164 17.316Q80.332 17.512 80.612 17.596Q80.92 17.708 81.214 17.638Q81.508 17.568 81.704 17.372Q81.984 16.756 82.306 16.014Q82.628 15.272 82.964 14.53Q83.3 13.788 83.65 13.074Q84 12.36 84.336 11.772Q84.728 11.044 85.232 11.016Q85.652 10.96 85.988 11.604Q86.324 12.248 86.59 13.116Q86.856 13.984 87.066 14.824Q87.276 15.664 87.416 16Q87.444 16.14 87.64 16.28Q87.836 16.42 88.228 16.224Q89.068 15.86 88.9 15.104Q88.732 14.264 88.48 13.172Q88.228 12.08 87.794 11.086Q87.36 10.092 86.73 9.42Q86.1 8.748 85.176 8.748Q84.56 8.748 84.042 9.196Q83.524 9.644 83.062 10.33Q82.6 11.016 82.208 11.828Q81.816 12.64 81.48 13.368Q81.424 12.864 81.34 12.304Q81.256 11.744 81.144 11.198Q81.032 10.652 80.934 10.134ZM116.368 9.196Q116.452 9.616 116.55 10.134Q116.648 10.652 116.76 11.198Q116.872 11.744 116.956 12.304Q117.04 12.864 117.096 13.368Q117.432 12.64 117.824 11.828Q118.216 11.016 118.678 10.33Q119.14 9.644 119.658 9.196Q120.176 8.748 120.792 8.748Q121.716 8.748 122.346 9.42Q122.976 10.092 123.41 11.086Q123.844 12.08 124.096 13.172Q124.348 14.264 124.516 15.104Q124.684 15.86 123.844 16.224Q123.452 16.42 123.256 16.28Q123.06 16.14 123.032 16Q122.892 15.664 122.682 14.824Q122.472 13.984 122.206 13.116Q121.94 12.248 121.604 11.604Q121.268 10.96 120.848 11.016Q120.344 11.044 119.952 11.772Q119.616 12.36 119.266 13.074Q118.916 13.788 118.58 14.53Q118.244 15.272 117.922 16.014Q117.6 16.756 117.32 17.372Q117.124 17.568 116.83 17.638Q116.536 17.708 116.228 17.596Q115.948 17.512 115.78 17.316Q115.612 17.12 115.612 16.924Q115.36 14.74 115.094 12.948Q114.828 11.156 114.408 9.28Q114.212 8.636 114.338 8.258Q114.464 7.88 115.164 7.964Q116.144 8.132 116.368 9.196ZM204.904 9.196Q204.988 9.616 205.086 10.134Q205.184 10.652 205.296 11.198Q205.408 11.744 205.492 12.304Q205.576 12.864 205.632 13.368Q205.968 12.64 206.36 11.828Q206.752 11.016 207.214 10.33Q207.676 9.644 208.194 9.196Q208.712 8.748 209.328 8.748Q210.252 8.748 210.882 9.42Q211.512 10.092 211.946 11.086Q212.38 12.08 212.632 13.172Q212.884 14.264 213.052 15.104Q213.22 15.86 212.38 16.224Q211.988 16.42 211.792 16.28Q211.596 16.14 211.568 16Q211.428 15.664 211.218 14.824Q211.008 13.984 210.742 13.116Q210.476 12.248 210.14 11.604Q209.804 10.96 209.384 11.016Q208.88 11.044 208.488 11.772Q208.152 12.36 207.802 13.074Q207.452 13.788 207.116 14.53Q206.78 15.272 206.458 16.014Q206.136 16.756 205.856 17.372Q205.66 17.568 205.366 17.638Q205.072 17.708 204.764 17.596Q204.484 17.512 204.316 17.316Q204.148 17.12 204.148 16.924Q203.896 14.74 203.63 12.948Q203.364 11.156 202.944 9.28Q202.748 8.636 202.874 8.258Q203 7.88 203.7 7.964Q204.68 8.132 204.904 9.196ZM74.088 8.664Q74.928 8.972 75.502 9.588Q76.076 10.204 76.384 10.974Q76.692 11.744 76.734 12.556Q76.776 13.368 76.552 14.068Q76.244 14.852 75.768 15.608Q75.292 16.364 74.676 16.952Q74.06 17.54 73.276 17.904Q72.492 18.268 71.54 18.268Q70.392 18.268 69.608 17.736Q68.824 17.204 68.376 16.364Q67.928 15.524 67.802 14.46Q67.676 13.396 67.844 12.332Q67.956 11.548 68.222 10.806Q68.488 10.064 68.908 9.49Q69.328 8.916 69.874 8.552Q70.42 8.188 71.12 8.188Q71.512 8.188 72.1 8.342Q72.688 8.496 73.192 8.776Q73.556 8.44 74.088 8.664ZM170.044 8.664Q170.884 8.972 171.458 9.588Q172.032 10.204 172.34 10.974Q172.648 11.744 172.69 12.556Q172.732 13.368 172.508 14.068Q172.2 14.852 171.724 15.608Q171.248 16.364 170.632 16.952Q170.016 17.54 169.232 17.904Q168.448 18.268 167.496 18.268Q166.348 18.268 165.564 17.736Q164.78 17.204 164.332 16.364Q163.884 15.524 163.758 14.46Q163.632 13.396 163.8 12.332Q163.912 11.548 164.178 10.806Q164.444 10.064 164.864 9.49Q165.284 8.916 165.83 8.552Q166.376 8.188 167.076 8.188Q167.468 8.188 168.056 8.342Q168.644 8.496 169.148 8.776Q169.512 8.44 170.044 8.664ZM130.872 12.85Q132.132 12.5 133.224 11.856Q133.7 11.548 133.798 11.156Q133.896 10.764 133.672 10.232Q133.28 9.28 132.3 8.748Q131.32 8.216 130.116 8.3Q129.108 8.356 128.352 8.748Q127.596 9.14 127.092 9.742Q126.588 10.344 126.35 11.128Q126.112 11.912 126.196 12.78Q126.28 13.704 126.616 14.572Q126.952 15.44 127.596 16.084Q128.352 16.812 129.304 17.064Q130.256 17.316 131.152 17.148Q132.188 16.98 133.028 16.35Q133.868 15.72 134.316 14.824Q134.428 14.124 134.036 13.984Q133.896 13.928 133.616 13.998Q133.336 14.068 133.084 14.292Q132.832 14.516 132.496 14.74Q132.16 14.964 131.754 15.146Q131.348 15.328 130.886 15.412Q130.424 15.496 129.976 15.44Q129.22 15.328 128.716 14.754Q128.212 14.18 128.156 13.2Q129.612 13.2 130.872 12.85ZM157.164 18.198Q157.444 18.1 157.668 17.792Q159.012 15.888 159.992 13.83Q160.972 11.772 161.588 9.308Q161.672 9 161.308 8.72Q160.944 8.44 160.44 8.384Q160.048 8.356 159.824 9.112Q159.6 9.84 159.236 10.764Q158.872 11.688 158.452 12.612Q158.032 13.536 157.584 14.362Q157.136 15.188 156.744 15.692Q156.352 14.432 155.946 12.962Q155.54 11.492 154.924 10.26Q154.784 10.036 154.476 9.91Q154.168 9.784 154 9.896Q153.776 10.036 153.384 10.652Q152.992 11.268 152.516 12.094Q152.04 12.92 151.522 13.802Q151.004 14.684 150.584 15.356Q150.388 14.852 150.206 14.208Q150.024 13.564 149.842 12.892Q149.66 12.22 149.506 11.562Q149.352 10.904 149.24 10.344Q149.184 10.008 148.792 9.658Q148.4 9.308 147.924 9.336Q147.532 9.392 147.434 9.812Q147.336 10.232 147.42 10.708Q147.56 11.408 147.784 12.29Q148.008 13.172 148.274 14.054Q148.54 14.936 148.848 15.734Q149.156 16.532 149.464 17.036Q149.632 17.26 149.926 17.512Q150.22 17.764 150.584 17.792Q150.836 17.82 151.2 17.666Q151.564 17.512 151.844 17.092Q152.46 16.028 152.964 15.034Q153.468 14.04 154.028 13.06Q154.196 13.536 154.392 14.11Q154.588 14.684 154.77 15.286Q154.952 15.888 155.148 16.476Q155.344 17.064 155.512 17.54Q155.596 17.792 155.932 18.03Q156.268 18.268 156.66 18.296Q156.884 18.296 157.164 18.198ZM220.514 11.478Q220.304 11.016 220.08 10.708Q220.276 10.512 220.276 10.092Q220.276 9.672 219.968 9.448Q219.8 9.336 219.562 9.28Q219.324 9.224 219.072 9.21Q218.82 9.196 218.582 9.224Q218.344 9.252 218.204 9.28Q216.44 10.008 215.642 11.31Q214.844 12.612 214.788 14.292Q214.788 14.992 214.97 15.636Q215.152 16.28 215.46 16.77Q215.768 17.26 216.174 17.568Q216.58 17.876 217.056 17.904Q217.504 17.932 217.938 17.82Q218.372 17.708 218.736 17.512Q219.1 17.316 219.394 17.092Q219.688 16.868 219.884 16.672Q219.996 17.008 220.15 17.666Q220.304 18.324 220.402 19.052Q220.5 19.78 220.5 20.522Q220.5 21.264 220.304 21.768Q220.052 22.412 219.59 22.888Q219.128 23.364 218.568 23.7Q218.008 24.036 217.378 24.218Q216.748 24.4 216.16 24.456Q215.824 24.512 215.502 24.694Q215.18 24.876 215.208 25.184Q215.208 25.492 215.572 25.786Q215.936 26.08 216.272 26.108Q217.784 26.052 218.988 25.52Q220.192 24.988 221.004 24.092Q221.816 23.196 222.166 22.062Q222.516 20.928 222.348 19.696Q222.208 18.8 222.026 17.82Q221.844 16.84 221.634 15.888Q221.424 14.936 221.214 14.054Q221.004 13.172 220.836 12.416Q220.724 11.94 220.514 11.478ZM73.024 10.708Q72.716 10.512 72.31 10.19Q71.904 9.868 71.596 9.868Q71.26 9.868 70.938 10.176Q70.616 10.484 70.378 10.89Q70.14 11.296 69.972 11.716Q69.804 12.136 69.748 12.388Q69.664 12.808 69.636 13.396Q69.608 13.984 69.72 14.558Q69.832 15.132 70.154 15.594Q70.476 16.056 71.12 16.252Q71.512 16.364 72.044 16.238Q72.576 16.112 73.094 15.776Q73.612 15.44 74.074 14.88Q74.536 14.32 74.788 13.592Q75.068 12.78 74.802 11.898Q74.536 11.016 73.724 10.624Q73.528 10.764 73.332 10.764Q73.136 10.764 73.024 10.708ZM168.98 10.708Q168.672 10.512 168.266 10.19Q167.86 9.868 167.552 9.868Q167.216 9.868 166.894 10.176Q166.572 10.484 166.334 10.89Q166.096 11.296 165.928 11.716Q165.76 12.136 165.704 12.388Q165.62 12.808 165.592 13.396Q165.564 13.984 165.676 14.558Q165.788 15.132 166.11 15.594Q166.432 16.056 167.076 16.252Q167.468 16.364 168 16.238Q168.532 16.112 169.05 15.776Q169.568 15.44 170.03 14.88Q170.492 14.32 170.744 13.592Q171.024 12.78 170.758 11.898Q170.492 11.016 169.68 10.624Q169.484 10.764 169.288 10.764Q169.092 10.764 168.98 10.708ZM129.402 10.148Q129.724 10.008 130.004 9.952Q130.62 9.84 131.222 9.966Q131.824 10.092 132.048 10.624Q131.74 10.82 131.278 10.988Q130.816 11.156 130.27 11.282Q129.724 11.408 129.15 11.492Q128.576 11.576 128.1 11.576Q128.128 11.24 128.338 10.974Q128.548 10.708 128.814 10.498Q129.08 10.288 129.402 10.148ZM46.942 17.302Q46.928 16.784 46.732 16.336Q46.564 15.972 46.452 15.398Q46.34 14.824 46.256 14.208Q46.172 13.592 46.144 12.976Q46.116 12.36 46.116 11.856Q46.144 11.212 45.836 10.778Q45.528 10.344 45.024 10.316Q44.716 10.372 44.52 10.708Q44.324 11.044 44.296 11.436Q44.296 11.8 44.31 12.528Q44.324 13.256 44.408 14.096Q44.492 14.936 44.66 15.79Q44.828 16.644 45.136 17.232Q45.36 17.708 45.808 17.988Q46.256 18.268 46.648 18.016Q46.956 17.82 46.942 17.302ZM65.142 17.302Q65.128 16.784 64.932 16.336Q64.764 15.972 64.652 15.398Q64.54 14.824 64.456 14.208Q64.372 13.592 64.344 12.976Q64.316 12.36 64.316 11.856Q64.344 11.212 64.036 10.778Q63.728 10.344 63.224 10.316Q62.916 10.372 62.72 10.708Q62.524 11.044 62.496 11.436Q62.496 11.8 62.51 12.528Q62.524 13.256 62.608 14.096Q62.692 14.936 62.86 15.79Q63.028 16.644 63.336 17.232Q63.56 17.708 64.008 17.988Q64.456 18.268 64.848 18.016Q65.156 17.82 65.142 17.302ZM200.606 17.302Q200.592 16.784 200.396 16.336Q200.228 15.972 200.116 15.398Q200.004 14.824 199.92 14.208Q199.836 13.592 199.808 12.976Q199.78 12.36 199.78 11.856Q199.808 11.212 199.5 10.778Q199.192 10.344 198.688 10.316Q198.38 10.372 198.184 10.708Q197.988 11.044 197.96 11.436Q197.96 11.8 197.974 12.528Q197.988 13.256 198.072 14.096Q198.156 14.936 198.324 15.79Q198.492 16.644 198.8 17.232Q199.024 17.708 199.472 17.988Q199.92 18.268 200.312 18.016Q200.62 17.82 200.606 17.302ZM34.58 14.236Q34.748 14.908 35.196 15.272Q35.644 15.636 36.26 15.762Q36.876 15.888 37.576 15.804Q38.276 15.72 38.948 15.496L39.2 15.412L38.416 10.484L37.856 10.624Q37.268 10.792 36.61 11.142Q35.952 11.492 35.448 11.968Q34.944 12.444 34.678 13.032Q34.412 13.62 34.58 14.236ZM216.608 15.23Q216.552 14.852 216.552 14.544Q216.552 13.872 216.762 13.312Q216.972 12.752 217.28 12.29Q217.588 11.828 217.966 11.52Q218.344 11.212 218.68 11.044Q218.736 11.604 218.904 12.304Q219.072 13.004 219.212 13.648Q219.352 14.292 219.226 14.67Q219.1 15.048 218.708 15.356Q218.288 15.692 217.798 15.832Q217.308 15.972 216.972 15.776Q216.664 15.608 216.608 15.23ZM25.606 14.446Q26.012 14.18 26.376 14.096Q26.6 14.068 26.866 14.264Q27.132 14.46 27.356 14.726Q27.58 14.992 27.748 15.258Q27.916 15.524 27.916 15.692Q27.412 16.168 26.558 16.574Q25.704 16.98 25.032 17.12Q24.808 17.176 24.626 17.092Q24.444 17.008 24.388 16.84Q24.248 16.392 24.402 15.93Q24.556 15.468 24.878 15.09Q25.2 14.712 25.606 14.446ZM94.584 14.096Q94.22 14.18 93.814 14.446Q93.408 14.712 93.086 15.09Q92.764 15.468 92.61 15.93Q92.456 16.392 92.596 16.84Q92.652 17.008 92.834 17.092Q93.016 17.176 93.24 17.12Q93.912 16.98 94.766 16.574Q95.62 16.168 96.124 15.692Q96.124 15.524 95.956 15.258Q95.788 14.992 95.564 14.726Q95.34 14.46 95.074 14.264Q94.808 14.068 94.584 14.096Z" />
  </g>
  <path d="M0 19C0 8.50659 8.28273 0 18.5 0C28.7173 0 37 8.50659 37 19C37 29.4934 28.7173 38 18.5 38C8.28273 38 0 29.4934 0 19Z" transform="translate(1.5 446.5)" id="Ellipse-12" fill="none" stroke="#000000" stroke-width="3" />
  <path d="M18 0L18 61L0 89" transform="translate(1.5 484.5)" id="New-shape-47" fill="none" stroke="#000000" stroke-width="3" />
  <path d="M19 27L0 0" transform="translate(19.5 545.5)" id="New-shape-48" fill="none" stroke="#000000" stroke-width="3" />
  <path d="M0 0L33.5 0.5" transform="translate(18.5 504.5)" id="New-shape-49" fill="none" stroke="#000000" stroke-width="3" />
  <path d="M18 0L0 24" transform="translate(1.5 504.5)" id="New-shape-50" fill="none" stroke="#000000" stroke-width="3" />
  <path d="M0 19C0 8.50659 8.28273 0 18.5 0C28.7173 0 37 8.50659 37 19C37 29.4934 28.7173 38 18.5 38C8.28273 38 0 29.4934 0 19Z" transform="translate(543.5 376.5)" id="Ellipse-13" fill="none" stroke="#000000" stroke-width="3" />
  <path d="M18 0L18 61L0 89" transform="translate(543.5 414.5)" id="New-shape-51" fill="none" stroke="#000000" stroke-width="3" />
  <path d="M19 27L0 0" transform="translate(561.5 475.5)" id="New-shape-52" fill="none" stroke="#000000" stroke-width="3" />
  <path d="M0 0L20 24" transform="translate(560.5 434.5)" id="New-shape-53" fill="none" stroke="#000000" stroke-width="3" />
  <path d="M18 0L0 24" transform="translate(543.5 434.5)" id="New-shape-54" fill="none" stroke="#000000" stroke-width="3" />
  <path d="M0 19C0 8.50659 8.28273 0 18.5 0C28.7173 0 37 8.50659 37 19C37 29.4934 28.7173 38 18.5 38C8.28273 38 0 29.4934 0 19Z" transform="translate(543.5 376.5)" id="Ellipse-14" fill="none" stroke="#000000" stroke-width="3" />
  <path d="M18 0L18 61L0 89" transform="translate(543.5 414.5)" id="New-shape-55" fill="none" stroke="#000000" stroke-width="3" />
  <path d="M19 27L0 0" transform="translate(561.5 475.5)" id="New-shape-56" fill="none" stroke="#000000" stroke-width="3" />
  <path d="M0 0L20 24" transform="translate(560.5 434.5)" id="New-shape-57" fill="none" stroke="#000000" stroke-width="3" />
  <path d="M18 0L0 24" transform="translate(543.5 434.5)" id="New-shape-58" fill="none" stroke="#000000" stroke-width="3" />
  <path d="M0 19C0 8.50659 8.28273 0 18.5 0C28.7173 0 37 8.50659 37 19C37 29.4934 28.7173 38 18.5 38C8.28273 38 0 29.4934 0 19Z" transform="translate(626.5 397.5)" id="Ellipse-15" fill="none" stroke="#000000" stroke-width="3" />
  <path d="M18 0L18 61L0 89" transform="translate(626.5 435.5)" id="New-shape-59" fill="none" stroke="#000000" stroke-width="3" />
  <path d="M19 27L0 0" transform="translate(644.5 496.5)" id="New-shape-60" fill="none" stroke="#000000" stroke-width="3" />
  <path d="M0 0L20 24" transform="translate(643.5 455.5)" id="New-shape-61" fill="none" stroke="#000000" stroke-width="3" />
  <path d="M18 0L0 24" transform="translate(626.5 455.5)" id="New-shape-62" fill="none" stroke="#000000" stroke-width="3" />
  <path d="M0 19C0 8.50659 8.28273 0 18.5 0C28.7173 0 37 8.50659 37 19C37 29.4934 28.7173 38 18.5 38C8.28273 38 0 29.4934 0 19Z" transform="translate(686.5 418.5)" id="Ellipse-16" fill="none" stroke="#000000" stroke-width="3" />
  <path d="M18 0L18 61L0 89" transform="translate(686.5 456.5)" id="New-shape-63" fill="none" stroke="#000000" stroke-width="3" />
  <path d="M19 27L0 0" transform="translate(704.5 517.5)" id="New-shape-64" fill="none" stroke="#000000" stroke-width="3" />
  <path d="M0 0L20 24" transform="translate(703.5 476.5)" id="New-shape-65" fill="none" stroke="#000000" stroke-width="3" />
  <path d="M18 0L0 24" transform="translate(686.5 476.5)" id="New-shape-66" fill="none" stroke="#000000" stroke-width="3" />
  <path d="M0 19C0 8.50659 8.28273 0 18.5 0C28.7173 0 37 8.50659 37 19C37 29.4934 28.7173 38 18.5 38C8.28273 38 0 29.4934 0 19Z" transform="translate(563.5 523.5)" id="Ellipse-17" fill="none" stroke="#000000" stroke-width="3" />
  <path d="M18 0L18 61L0 89" transform="translate(563.5 561.5)" id="New-shape-67" fill="none" stroke="#000000" stroke-width="3" />
  <path d="M19 27L0 0" transform="translate(581.5 622.5)" id="New-shape-68" fill="none" stroke="#000000" stroke-width="3" />
  <path d="M0 0L20 24" transform="translate(580.5 581.5)" id="New-shape-69" fill="none" stroke="#000000" stroke-width="3" />
  <path d="M18 0L0 24" transform="translate(563.5 581.5)" id="New-shape-70" fill="none" stroke="#000000" stroke-width="3" />
  <path d="M0 19C0 8.50659 8.28273 0 18.5 0C28.7173 0 37 8.50659 37 19C37 29.4934 28.7173 38 18.5 38C8.28273 38 0 29.4934 0 19Z" transform="translate(644.5 539.5)" id="Ellipse-18" fill="none" stroke="#000000" stroke-width="3" />
  <path d="M18 0L18 61L0 89" transform="translate(644.5 577.5)" id="New-shape-71" fill="none" stroke="#000000" stroke-width="3" />
  <path d="M19 27L0 0" transform="translate(662.5 638.5)" id="New-shape-72" fill="none" stroke="#000000" stroke-width="3" />
  <path d="M0 0L20 24" transform="translate(661.5 597.5)" id="New-shape-73" fill="none" stroke="#000000" stroke-width="3" />
  <path d="M18 0L0 24" transform="translate(644.5 597.5)" id="New-shape-74" fill="none" stroke="#000000" stroke-width="3" />
  <path d="M0 19C0 8.50659 8.28273 0 18.5 0C28.7173 0 37 8.50659 37 19C37 29.4934 28.7173 38 18.5 38C8.28273 38 0 29.4934 0 19Z" transform="translate(746.5 509.5)" id="Ellipse-19" fill="none" stroke="#000000" stroke-width="3" />
  <path d="M18 0L18 61L0 89" transform="translate(746.5 547.5)" id="New-shape-75" fill="none" stroke="#000000" stroke-width="3" />
  <path d="M19 27L0 0" transform="translate(764.5 608.5)" id="New-shape-76" fill="none" stroke="#000000" stroke-width="3" />
  <path d="M0 0L20 24" transform="translate(763.5 567.5)" id="New-shape-77" fill="none" stroke="#000000" stroke-width="3" />
  <path d="M18 0L0 24" transform="translate(746.5 567.5)" id="New-shape-78" fill="none" stroke="#000000" stroke-width="3" />
  <path d="M0 19C0 8.50659 8.28273 0 18.5 0C28.7173 0 37 8.50659 37 19C37 29.4934 28.7173 38 18.5 38C8.28273 38 0 29.4934 0 19Z" transform="translate(745.5 352.5)" id="Ellipse-20" fill="none" stroke="#000000" stroke-width="3" />
  <path d="M18 0L18 61L0 89" transform="translate(745.5 390.5)" id="New-shape-79" fill="none" stroke="#000000" stroke-width="3" />
  <path d="M19 27L0 0" transform="translate(763.5 451.5)" id="New-shape-80" fill="none" stroke="#000000" stroke-width="3" />
  <path d="M0 0L20 24" transform="translate(762.5 410.5)" id="New-shape-81" fill="none" stroke="#000000" stroke-width="3" />
  <path d="M18 0L0 24" transform="translate(745.5 410.5)" id="New-shape-82" fill="none" stroke="#000000" stroke-width="3" />
  <path d="M0 19C0 8.50659 8.28273 0 18.5 0C28.7173 0 37 8.50659 37 19C37 29.4934 28.7173 38 18.5 38C8.28273 38 0 29.4934 0 19Z" transform="translate(819.5 460.5)" id="Ellipse-21" fill="none" stroke="#000000" stroke-width="3" />
  <path d="M18 0L18 61L0 89" transform="translate(819.5 498.5)" id="New-shape-83" fill="none" stroke="#000000" stroke-width="3" />
  <path d="M19 27L0 0" transform="translate(837.5 559.5)" id="New-shape-84" fill="none" stroke="#000000" stroke-width="3" />
  <path d="M0 0L20 24" transform="translate(836.5 518.5)" id="New-shape-85" fill="none" stroke="#000000" stroke-width="3" />
  <path d="M18 0L0 24" transform="translate(819.5 518.5)" id="New-shape-86" fill="none" stroke="#000000" stroke-width="3" />
  <path d="M0 19C0 8.50659 8.28273 0 18.5 0C28.7173 0 37 8.50659 37 19C37 29.4934 28.7173 38 18.5 38C8.28273 38 0 29.4934 0 19Z" transform="translate(484.5 460.5)" id="Ellipse-22" fill="none" stroke="#000000" stroke-width="3" />
  <path d="M18 0L18 61L0 89" transform="translate(484.5 498.5)" id="New-shape-87" fill="none" stroke="#000000" stroke-width="3" />
  <path d="M19 27L0 0" transform="translate(502.5 559.5)" id="New-shape-88" fill="none" stroke="#000000" stroke-width="3" />
  <path d="M0 0L20 24" transform="translate(501.5 518.5)" id="New-shape-89" fill="none" stroke="#000000" stroke-width="3" />
  <path d="M18 0L0 24" transform="translate(484.5 518.5)" id="New-shape-90" fill="none" stroke="#000000" stroke-width="3" />
  <path d="M0 75.0239L295.115 0L295.115 0L295.115 0L295.115 0" transform="matrix(0.9702957 0.2419219 -0.2419219 0.9702957 129.65 481.5)" id="New-shape-91" fill="#AEAEB2" stroke="#000000" stroke-width="4" />
  <path d="M0 0L14 2.5L5 11.5" transform="matrix(-0.9455186 -0.3255682 0.3255682 -0.9455186 109.1186 559.7789)" id="New-shape-92" fill="none" stroke="#000000" stroke-width="3" />
  <g id="internet-networking" transform="translate(163.5 511.5)">
    <path d="M170.156 9.28Q170.268 9.252 170.492 9.238Q170.716 9.224 170.926 9.266Q171.136 9.308 171.29 9.406Q171.444 9.504 171.472 9.644Q171.528 9.98 171.374 10.246Q171.22 10.512 170.828 10.708Q169.764 11.212 168.616 11.842Q167.468 12.472 166.656 12.976Q167.16 13.312 167.818 13.732Q168.476 14.152 169.176 14.614Q169.876 15.076 170.576 15.594Q171.276 16.112 171.892 16.616Q172.255 16.9242 172.23 17.1972Q172.216 17.3458 172.088 17.484Q171.92 17.68 171.542 17.764Q171.164 17.848 170.828 17.68Q170.212 17.372 169.484 16.938Q168.756 16.504 168 16.042Q167.244 15.58 166.53 15.118Q165.816 14.656 165.228 14.264Q165.34 15.244 165.438 16.224Q165.536 17.204 165.62 18.184Q165.788 18.716 165.592 19.052Q165.396 19.388 164.948 19.36Q164.472 19.276 164.248 18.982Q164.024 18.688 163.912 18.212Q163.744 17.064 163.534 15.496Q163.324 13.928 163.1 12.248Q162.876 10.568 162.666 8.972Q162.456 7.376 162.288 6.144Q162.232 5.752 162.218 5.29Q162.204 4.828 162.512 4.688Q162.932 4.52 163.38 4.87Q163.828 5.22 164.052 5.92Q164.276 7.208 164.5 8.72Q164.724 10.232 164.948 11.912Q165.508 11.576 166.25 11.17Q166.992 10.764 167.734 10.386Q168.476 10.008 169.12 9.7Q169.764 9.392 170.156 9.28ZM26.152 10.932Q26.684 10.904 27.216 11.184Q27.748 11.464 27.748 12.052Q27.692 12.528 27.23 12.654Q26.768 12.78 26.488 12.78Q25.928 12.78 25.284 12.808Q24.64 12.836 23.968 12.892Q23.912 13.816 23.87 14.628Q23.828 15.44 23.8 16.07Q23.772 16.7 23.772 17.092Q23.772 17.484 23.8 17.512Q24.416 17.4 25.13 17.134Q25.844 16.868 26.558 16.546Q27.272 16.224 27.958 15.874Q28.644 15.524 29.26 15.216Q29.54 15.076 29.778 15.132Q30.016 15.188 30.072 15.384Q30.128 15.692 29.988 16.14Q29.848 16.588 29.484 16.952Q29.064 17.288 28.378 17.722Q27.692 18.156 26.908 18.548Q26.124 18.94 25.326 19.234Q24.528 19.528 23.912 19.584Q22.988 19.668 22.512 19.08Q22.036 18.492 21.98 17.596Q21.924 16.7 21.966 15.524Q22.008 14.348 22.064 13.032Q21.532 13.088 21.042 13.13Q20.552 13.172 20.104 13.228Q19.74 13.228 19.306 13.06Q18.872 12.892 18.872 12.416Q18.872 12.248 19.012 11.968Q19.152 11.688 19.628 11.548Q20.776 11.352 22.176 11.212Q22.26 9.896 22.372 8.664Q22.484 7.432 22.568 6.424Q22.596 6.088 22.764 5.836Q22.932 5.584 23.128 5.584Q23.604 5.556 24.038 5.822Q24.472 6.088 24.472 6.424Q24.36 7.376 24.262 8.58Q24.164 9.784 24.08 11.044Q24.64 10.988 25.158 10.974Q25.676 10.96 26.152 10.932ZM80.22 11.184Q79.688 10.904 79.156 10.932Q78.68 10.96 78.162 10.974Q77.644 10.988 77.084 11.044Q77.168 9.784 77.266 8.58Q77.364 7.376 77.476 6.424Q77.476 6.088 77.042 5.822Q76.608 5.556 76.132 5.584Q75.936 5.584 75.768 5.836Q75.6 6.088 75.572 6.424Q75.488 7.432 75.376 8.664Q75.264 9.896 75.18 11.212Q73.78 11.352 72.632 11.548Q72.156 11.688 72.016 11.968Q71.876 12.248 71.876 12.416Q71.876 12.892 72.31 13.06Q72.744 13.228 73.108 13.228Q73.556 13.172 74.046 13.13Q74.536 13.088 75.068 13.032Q75.012 14.348 74.97 15.524Q74.928 16.7 74.984 17.596Q75.04 18.492 75.516 19.08Q75.992 19.668 76.916 19.584Q77.532 19.528 78.33 19.234Q79.128 18.94 79.912 18.548Q80.696 18.156 81.382 17.722Q82.068 17.288 82.488 16.952Q82.852 16.588 82.992 16.14Q83.132 15.692 83.076 15.384Q83.02 15.188 82.782 15.132Q82.544 15.076 82.264 15.216Q81.648 15.524 80.962 15.874Q80.276 16.224 79.562 16.546Q78.848 16.868 78.134 17.134Q77.42 17.4 76.804 17.512Q76.776 17.484 76.776 17.092Q76.776 16.7 76.804 16.07Q76.832 15.44 76.874 14.628Q76.916 13.816 76.972 12.892Q77.644 12.836 78.288 12.808Q78.932 12.78 79.492 12.78Q79.772 12.78 80.234 12.654Q80.696 12.528 80.752 12.052Q80.752 11.464 80.22 11.184ZM120.12 10.932Q120.652 10.904 121.184 11.184Q121.716 11.464 121.716 12.052Q121.66 12.528 121.198 12.654Q120.736 12.78 120.456 12.78Q119.896 12.78 119.252 12.808Q118.608 12.836 117.936 12.892Q117.88 13.816 117.838 14.628Q117.796 15.44 117.768 16.07Q117.74 16.7 117.74 17.092Q117.74 17.484 117.768 17.512Q118.384 17.4 119.098 17.134Q119.812 16.868 120.526 16.546Q121.24 16.224 121.926 15.874Q122.612 15.524 123.228 15.216Q123.508 15.076 123.746 15.132Q123.984 15.188 124.04 15.384Q124.096 15.692 123.956 16.14Q123.816 16.588 123.452 16.952Q123.032 17.288 122.346 17.722Q121.66 18.156 120.876 18.548Q120.092 18.94 119.294 19.234Q118.496 19.528 117.88 19.584Q116.956 19.668 116.48 19.08Q116.004 18.492 115.948 17.596Q115.892 16.7 115.934 15.524Q115.976 14.348 116.032 13.032Q115.5 13.088 115.01 13.13Q114.52 13.172 114.072 13.228Q113.708 13.228 113.274 13.06Q112.84 12.892 112.84 12.416Q112.84 12.248 112.98 11.968Q113.12 11.688 113.596 11.548Q114.744 11.352 116.144 11.212Q116.228 9.896 116.34 8.664Q116.452 7.432 116.536 6.424Q116.564 6.088 116.732 5.836Q116.9 5.584 117.096 5.584Q117.572 5.556 118.006 5.822Q118.44 6.088 118.44 6.424Q118.328 7.376 118.23 8.58Q118.132 9.784 118.048 11.044Q118.608 10.988 119.126 10.974Q119.644 10.96 120.12 10.932ZM5.46 7.32Q5.796 7.292 5.852 7.012Q5.908 6.62 5.642 6.34Q5.376 6.06 4.928 5.92Q4.62 5.836 4.144 5.822Q3.668 5.808 3.15 5.864Q2.632 5.92 2.128 6.046Q1.624 6.172 1.26 6.34Q1.036 6.452 0.868 6.592Q0.7 6.732 0.7 6.956Q0.784 7.544 1.176 7.74Q1.568 7.936 1.904 7.824Q2.716 7.6 3.458 7.488Q4.2 7.376 4.9 7.348Q5.124 7.348 5.46 7.32ZM178.136 7.32Q178.472 7.292 178.528 7.012Q178.584 6.62 178.318 6.34Q178.052 6.06 177.604 5.92Q177.296 5.836 176.82 5.822Q176.344 5.808 175.826 5.864Q175.308 5.92 174.804 6.046Q174.3 6.172 173.936 6.34Q173.712 6.452 173.544 6.592Q173.376 6.732 173.376 6.956Q173.46 7.544 173.852 7.74Q174.244 7.936 174.58 7.824Q175.392 7.6 176.134 7.488Q176.876 7.376 177.576 7.348Q177.8 7.348 178.136 7.32ZM49.42 8.776Q48.916 9.056 48.37 9.364Q47.824 9.672 47.278 10.078Q46.732 10.484 46.242 11.03Q45.752 11.576 45.36 12.332Q44.8 13.396 44.604 14.502Q44.408 15.608 44.352 16.672Q44.352 17.176 44.114 17.694Q43.876 18.212 43.456 18.212Q42.924 18.212 42.602 17.666Q42.28 17.12 42.168 16.616Q41.692 14.628 41.384 12.682Q41.076 10.736 40.852 8.804Q40.852 8.412 41.09 8.3Q41.328 8.188 41.636 8.216Q41.972 8.244 42.28 8.384Q42.588 8.524 42.644 8.832Q42.756 9.868 42.924 11.002Q43.092 12.136 43.26 12.948Q43.372 11.996 43.876 11.1Q44.38 10.204 45.122 9.476Q45.864 8.748 46.802 8.244Q47.74 7.74 48.72 7.572Q49.14 7.516 49.42 7.572Q49.7 7.628 49.812 7.768Q49.924 7.908 49.854 8.216Q49.784 8.524 49.42 8.776ZM159.726 9.364Q160.272 9.056 160.776 8.776Q161.14 8.524 161.21 8.216Q161.28 7.908 161.168 7.768Q161.056 7.628 160.776 7.572Q160.496 7.516 160.076 7.572Q159.096 7.74 158.158 8.244Q157.22 8.748 156.478 9.476Q155.736 10.204 155.232 11.1Q154.728 11.996 154.616 12.948Q154.448 12.136 154.28 11.002Q154.112 9.868 154 8.832Q153.944 8.524 153.636 8.384Q153.328 8.244 152.992 8.216Q152.684 8.188 152.446 8.3Q152.208 8.412 152.208 8.804Q152.432 10.736 152.74 12.682Q153.048 14.628 153.524 16.616Q153.636 17.12 153.958 17.666Q154.28 18.212 154.812 18.212Q155.232 18.212 155.47 17.694Q155.708 17.176 155.708 16.672Q155.764 15.608 155.96 14.502Q156.156 13.396 156.716 12.332Q157.108 11.576 157.598 11.03Q158.088 10.484 158.634 10.078Q159.18 9.672 159.726 9.364ZM9.898 10.134Q9.8 9.616 9.716 9.196Q9.492 8.132 8.512 7.964Q7.812 7.88 7.686 8.258Q7.56 8.636 7.756 9.28Q8.176 11.156 8.442 12.948Q8.708 14.74 8.96 16.924Q8.96 17.12 9.128 17.316Q9.296 17.512 9.576 17.596Q9.884 17.708 10.178 17.638Q10.472 17.568 10.668 17.372Q10.948 16.756 11.27 16.014Q11.592 15.272 11.928 14.53Q12.264 13.788 12.614 13.074Q12.964 12.36 13.3 11.772Q13.692 11.044 14.196 11.016Q14.616 10.96 14.952 11.604Q15.288 12.248 15.554 13.116Q15.82 13.984 16.03 14.824Q16.24 15.664 16.38 16Q16.408 16.14 16.604 16.28Q16.8 16.42 17.192 16.224Q18.032 15.86 17.864 15.104Q17.696 14.264 17.444 13.172Q17.192 12.08 16.758 11.086Q16.324 10.092 15.694 9.42Q15.064 8.748 14.14 8.748Q13.524 8.748 13.006 9.196Q12.488 9.644 12.026 10.33Q11.564 11.016 11.172 11.828Q10.78 12.64 10.444 13.368Q10.388 12.864 10.304 12.304Q10.22 11.744 10.108 11.198Q9.996 10.652 9.898 10.134ZM53.074 10.134Q52.976 9.616 52.892 9.196Q52.668 8.132 51.688 7.964Q50.988 7.88 50.862 8.258Q50.736 8.636 50.932 9.28Q51.352 11.156 51.618 12.948Q51.884 14.74 52.136 16.924Q52.136 17.12 52.304 17.316Q52.472 17.512 52.752 17.596Q53.06 17.708 53.354 17.638Q53.648 17.568 53.844 17.372Q54.124 16.756 54.446 16.014Q54.768 15.272 55.104 14.53Q55.44 13.788 55.79 13.074Q56.14 12.36 56.476 11.772Q56.868 11.044 57.372 11.016Q57.792 10.96 58.128 11.604Q58.464 12.248 58.73 13.116Q58.996 13.984 59.206 14.824Q59.416 15.664 59.556 16Q59.584 16.14 59.78 16.28Q59.976 16.42 60.368 16.224Q61.208 15.86 61.04 15.104Q60.872 14.264 60.62 13.172Q60.368 12.08 59.934 11.086Q59.5 10.092 58.87 9.42Q58.24 8.748 57.316 8.748Q56.7 8.748 56.182 9.196Q55.664 9.644 55.202 10.33Q54.74 11.016 54.348 11.828Q53.956 12.64 53.62 13.368Q53.564 12.864 53.48 12.304Q53.396 11.744 53.284 11.198Q53.172 10.652 53.074 10.134ZM93.856 9.196Q93.94 9.616 94.038 10.134Q94.136 10.652 94.248 11.198Q94.36 11.744 94.444 12.304Q94.528 12.864 94.584 13.368Q94.92 12.64 95.312 11.828Q95.704 11.016 96.166 10.33Q96.628 9.644 97.146 9.196Q97.664 8.748 98.28 8.748Q99.204 8.748 99.834 9.42Q100.464 10.092 100.898 11.086Q101.332 12.08 101.584 13.172Q101.836 14.264 102.004 15.104Q102.172 15.86 101.332 16.224Q100.94 16.42 100.744 16.28Q100.548 16.14 100.52 16Q100.38 15.664 100.17 14.824Q99.96 13.984 99.694 13.116Q99.428 12.248 99.092 11.604Q98.756 10.96 98.336 11.016Q97.832 11.044 97.44 11.772Q97.104 12.36 96.754 13.074Q96.404 13.788 96.068 14.53Q95.732 15.272 95.41 16.014Q95.088 16.756 94.808 17.372Q94.612 17.568 94.318 17.638Q94.024 17.708 93.716 17.596Q93.436 17.512 93.268 17.316Q93.1 17.12 93.1 16.924Q92.848 14.74 92.582 12.948Q92.316 11.156 91.896 9.28Q91.7 8.636 91.826 8.258Q91.952 7.88 92.652 7.964Q93.632 8.132 93.856 9.196ZM182.392 9.196Q182.476 9.616 182.574 10.134Q182.672 10.652 182.784 11.198Q182.896 11.744 182.98 12.304Q183.064 12.864 183.12 13.368Q183.456 12.64 183.848 11.828Q184.24 11.016 184.702 10.33Q185.164 9.644 185.682 9.196Q186.2 8.748 186.816 8.748Q187.74 8.748 188.37 9.42Q189 10.092 189.434 11.086Q189.868 12.08 190.12 13.172Q190.372 14.264 190.54 15.104Q190.708 15.86 189.868 16.224Q189.476 16.42 189.28 16.28Q189.084 16.14 189.056 16Q188.916 15.664 188.706 14.824Q188.496 13.984 188.23 13.116Q187.964 12.248 187.628 11.604Q187.292 10.96 186.872 11.016Q186.368 11.044 185.976 11.772Q185.64 12.36 185.29 13.074Q184.94 13.788 184.604 14.53Q184.268 15.272 183.946 16.014Q183.624 16.756 183.344 17.372Q183.148 17.568 182.854 17.638Q182.56 17.708 182.252 17.596Q181.972 17.512 181.804 17.316Q181.636 17.12 181.636 16.924Q181.384 14.74 181.118 12.948Q180.852 11.156 180.432 9.28Q180.236 8.636 180.362 8.258Q180.488 7.88 181.188 7.964Q182.168 8.132 182.392 9.196ZM147.532 8.664Q148.372 8.972 148.946 9.588Q149.52 10.204 149.828 10.974Q150.136 11.744 150.178 12.556Q150.22 13.368 149.996 14.068Q149.688 14.852 149.212 15.608Q148.736 16.364 148.12 16.952Q147.504 17.54 146.72 17.904Q145.936 18.268 144.984 18.268Q143.836 18.268 143.052 17.736Q142.268 17.204 141.82 16.364Q141.372 15.524 141.246 14.46Q141.12 13.396 141.288 12.332Q141.4 11.548 141.666 10.806Q141.932 10.064 142.352 9.49Q142.772 8.916 143.318 8.552Q143.864 8.188 144.564 8.188Q144.956 8.188 145.544 8.342Q146.132 8.496 146.636 8.776Q147 8.44 147.532 8.664ZM35.644 12.85Q36.904 12.5 37.996 11.856Q38.472 11.548 38.57 11.156Q38.668 10.764 38.444 10.232Q38.052 9.28 37.072 8.748Q36.092 8.216 34.888 8.3Q33.88 8.356 33.124 8.748Q32.368 9.14 31.864 9.742Q31.36 10.344 31.122 11.128Q30.884 11.912 30.968 12.78Q31.052 13.704 31.388 14.572Q31.724 15.44 32.368 16.084Q33.124 16.812 34.076 17.064Q35.028 17.316 35.924 17.148Q36.96 16.98 37.8 16.35Q38.64 15.72 39.088 14.824Q39.2 14.124 38.808 13.984Q38.668 13.928 38.388 13.998Q38.108 14.068 37.856 14.292Q37.604 14.516 37.268 14.74Q36.932 14.964 36.526 15.146Q36.12 15.328 35.658 15.412Q35.196 15.496 34.748 15.44Q33.992 15.328 33.488 14.754Q32.984 14.18 32.928 13.2Q34.384 13.2 35.644 12.85ZM69.748 11.856Q68.656 12.5 67.396 12.85Q66.136 13.2 64.68 13.2Q64.736 14.18 65.24 14.754Q65.744 15.328 66.5 15.44Q66.948 15.496 67.41 15.412Q67.872 15.328 68.278 15.146Q68.684 14.964 69.02 14.74Q69.356 14.516 69.608 14.292Q69.86 14.068 70.14 13.998Q70.42 13.928 70.56 13.984Q70.952 14.124 70.84 14.824Q70.392 15.72 69.552 16.35Q68.712 16.98 67.676 17.148Q66.78 17.316 65.828 17.064Q64.876 16.812 64.12 16.084Q63.476 15.44 63.14 14.572Q62.804 13.704 62.72 12.78Q62.636 11.912 62.874 11.128Q63.112 10.344 63.616 9.742Q64.12 9.14 64.876 8.748Q65.632 8.356 66.64 8.3Q67.844 8.216 68.824 8.748Q69.804 9.28 70.196 10.232Q70.42 10.764 70.322 11.156Q70.224 11.548 69.748 11.856ZM108.36 12.85Q109.62 12.5 110.712 11.856Q111.188 11.548 111.286 11.156Q111.384 10.764 111.16 10.232Q110.768 9.28 109.788 8.748Q108.808 8.216 107.604 8.3Q106.596 8.356 105.84 8.748Q105.084 9.14 104.58 9.742Q104.076 10.344 103.838 11.128Q103.6 11.912 103.684 12.78Q103.768 13.704 104.104 14.572Q104.44 15.44 105.084 16.084Q105.84 16.812 106.792 17.064Q107.744 17.316 108.64 17.148Q109.676 16.98 110.516 16.35Q111.356 15.72 111.804 14.824Q111.916 14.124 111.524 13.984Q111.384 13.928 111.104 13.998Q110.824 14.068 110.572 14.292Q110.32 14.516 109.984 14.74Q109.648 14.964 109.242 15.146Q108.836 15.328 108.374 15.412Q107.912 15.496 107.464 15.44Q106.708 15.328 106.204 14.754Q105.7 14.18 105.644 13.2Q107.1 13.2 108.36 12.85ZM134.652 18.198Q134.932 18.1 135.156 17.792Q136.5 15.888 137.48 13.83Q138.46 11.772 139.076 9.308Q139.16 9 138.796 8.72Q138.432 8.44 137.928 8.384Q137.536 8.356 137.312 9.112Q137.088 9.84 136.724 10.764Q136.36 11.688 135.94 12.612Q135.52 13.536 135.072 14.362Q134.624 15.188 134.232 15.692Q133.84 14.432 133.434 12.962Q133.028 11.492 132.412 10.26Q132.272 10.036 131.964 9.91Q131.656 9.784 131.488 9.896Q131.264 10.036 130.872 10.652Q130.48 11.268 130.004 12.094Q129.528 12.92 129.01 13.802Q128.492 14.684 128.072 15.356Q127.876 14.852 127.694 14.208Q127.512 13.564 127.33 12.892Q127.148 12.22 126.994 11.562Q126.84 10.904 126.728 10.344Q126.672 10.008 126.28 9.658Q125.888 9.308 125.412 9.336Q125.02 9.392 124.922 9.812Q124.824 10.232 124.908 10.708Q125.048 11.408 125.272 12.29Q125.496 13.172 125.762 14.054Q126.028 14.936 126.336 15.734Q126.644 16.532 126.952 17.036Q127.12 17.26 127.414 17.512Q127.708 17.764 128.072 17.792Q128.324 17.82 128.688 17.666Q129.052 17.512 129.332 17.092Q129.948 16.028 130.452 15.034Q130.956 14.04 131.516 13.06Q131.684 13.536 131.88 14.11Q132.076 14.684 132.258 15.286Q132.44 15.888 132.636 16.476Q132.832 17.064 133 17.54Q133.084 17.792 133.42 18.03Q133.756 18.268 134.148 18.296Q134.372 18.296 134.652 18.198ZM198.002 11.478Q197.792 11.016 197.568 10.708Q197.764 10.512 197.764 10.092Q197.764 9.672 197.456 9.448Q197.288 9.336 197.05 9.28Q196.812 9.224 196.56 9.21Q196.308 9.196 196.07 9.224Q195.832 9.252 195.692 9.28Q193.928 10.008 193.13 11.31Q192.332 12.612 192.276 14.292Q192.276 14.992 192.458 15.636Q192.64 16.28 192.948 16.77Q193.256 17.26 193.662 17.568Q194.068 17.876 194.544 17.904Q194.992 17.932 195.426 17.82Q195.86 17.708 196.224 17.512Q196.588 17.316 196.882 17.092Q197.176 16.868 197.372 16.672Q197.484 17.008 197.638 17.666Q197.792 18.324 197.89 19.052Q197.988 19.78 197.988 20.522Q197.988 21.264 197.792 21.768Q197.54 22.412 197.078 22.888Q196.616 23.364 196.056 23.7Q195.496 24.036 194.866 24.218Q194.236 24.4 193.648 24.456Q193.312 24.512 192.99 24.694Q192.668 24.876 192.696 25.184Q192.696 25.492 193.06 25.786Q193.424 26.08 193.76 26.108Q195.272 26.052 196.476 25.52Q197.68 24.988 198.492 24.092Q199.304 23.196 199.654 22.062Q200.004 20.928 199.836 19.696Q199.696 18.8 199.514 17.82Q199.332 16.84 199.122 15.888Q198.912 14.936 198.702 14.054Q198.492 13.172 198.324 12.416Q198.212 11.94 198.002 11.478ZM146.468 10.708Q146.16 10.512 145.754 10.19Q145.348 9.868 145.04 9.868Q144.704 9.868 144.382 10.176Q144.06 10.484 143.822 10.89Q143.584 11.296 143.416 11.716Q143.248 12.136 143.192 12.388Q143.108 12.808 143.08 13.396Q143.052 13.984 143.164 14.558Q143.276 15.132 143.598 15.594Q143.92 16.056 144.564 16.252Q144.956 16.364 145.488 16.238Q146.02 16.112 146.538 15.776Q147.056 15.44 147.518 14.88Q147.98 14.32 148.232 13.592Q148.512 12.78 148.246 11.898Q147.98 11.016 147.168 10.624Q146.972 10.764 146.776 10.764Q146.58 10.764 146.468 10.708ZM34.174 10.148Q34.496 10.008 34.776 9.952Q35.392 9.84 35.994 9.966Q36.596 10.092 36.82 10.624Q36.512 10.82 36.05 10.988Q35.588 11.156 35.042 11.282Q34.496 11.408 33.922 11.492Q33.348 11.576 32.872 11.576Q32.9 11.24 33.11 10.974Q33.32 10.708 33.586 10.498Q33.852 10.288 34.174 10.148ZM66.528 9.952Q66.248 10.008 65.926 10.148Q65.604 10.288 65.338 10.498Q65.072 10.708 64.862 10.974Q64.652 11.24 64.624 11.576Q65.1 11.576 65.674 11.492Q66.248 11.408 66.794 11.282Q67.34 11.156 67.802 10.988Q68.264 10.82 68.572 10.624Q68.348 10.092 67.746 9.966Q67.144 9.84 66.528 9.952ZM106.89 10.148Q107.212 10.008 107.492 9.952Q108.108 9.84 108.71 9.966Q109.312 10.092 109.536 10.624Q109.228 10.82 108.766 10.988Q108.304 11.156 107.758 11.282Q107.212 11.408 106.638 11.492Q106.064 11.576 105.588 11.576Q105.616 11.24 105.826 10.974Q106.036 10.708 106.302 10.498Q106.568 10.288 106.89 10.148ZM5.418 17.302Q5.404 16.784 5.208 16.336Q5.04 15.972 4.928 15.398Q4.816 14.824 4.732 14.208Q4.648 13.592 4.62 12.976Q4.592 12.36 4.592 11.856Q4.62 11.212 4.312 10.778Q4.004 10.344 3.5 10.316Q3.192 10.372 2.996 10.708Q2.8 11.044 2.772 11.436Q2.772 11.8 2.786 12.528Q2.8 13.256 2.884 14.096Q2.968 14.936 3.136 15.79Q3.304 16.644 3.612 17.232Q3.836 17.708 4.284 17.988Q4.732 18.268 5.124 18.016Q5.432 17.82 5.418 17.302ZM178.094 17.302Q178.08 16.784 177.884 16.336Q177.716 15.972 177.604 15.398Q177.492 14.824 177.408 14.208Q177.324 13.592 177.296 12.976Q177.268 12.36 177.268 11.856Q177.296 11.212 176.988 10.778Q176.68 10.344 176.176 10.316Q175.868 10.372 175.672 10.708Q175.476 11.044 175.448 11.436Q175.448 11.8 175.462 12.528Q175.476 13.256 175.56 14.096Q175.644 14.936 175.812 15.79Q175.98 16.644 176.288 17.232Q176.512 17.708 176.96 17.988Q177.408 18.268 177.8 18.016Q178.108 17.82 178.094 17.302ZM194.096 15.23Q194.04 14.852 194.04 14.544Q194.04 13.872 194.25 13.312Q194.46 12.752 194.768 12.29Q195.076 11.828 195.454 11.52Q195.832 11.212 196.168 11.044Q196.224 11.604 196.392 12.304Q196.56 13.004 196.7 13.648Q196.84 14.292 196.714 14.67Q196.588 15.048 196.196 15.356Q195.776 15.692 195.286 15.832Q194.796 15.972 194.46 15.776Q194.152 15.608 194.096 15.23Z" />
  </g>
  <path d="M0 182L0 0" transform="translate(48.5 392.5)" id="New-shape-93" fill="none" stroke="#000000" stroke-width="3" />
  <path d="M0 0L62 0L62 37L0 37L0 0Z" transform="translate(48.5 395.5)" id="New-shape-94" fill="#000000" stroke="none" />
</svg>