<?xml version="1.0" encoding="utf-8"?>
<svg width="398px" height="224px" viewBox="0 0 398 224" version="1.1" xmlns:xlink="http://www.w3.org/1999/xlink" xmlns="http://www.w3.org/2000/svg">
  <desc>Created with Lunacy</desc>
  <path d="M0 109.5C0 49.0248 58.6507 0 131 0C203.349 0 262 49.0248 262 109.5C262 169.975 203.349 219 131 219C58.6507 219 0 169.975 0 109.5Z" transform="translate(1.5 3.5)" id="Ellipse-2" fill="none" stroke="#686868" stroke-width="3" stroke-dasharray="6 8" />
  <path d="M0 109.5C0 49.0248 58.6507 0 131 0C203.349 0 262 49.0248 262 109.5C262 169.975 203.349 219 131 219C58.6507 219 0 169.975 0 109.5Z" transform="translate(134.5 1.5)" id="Ellipse-3" fill="none" stroke="#686868" stroke-width="3" stroke-dasharray="6 8" />
  <g id="Betting-on-Trends" transform="translate(284.5 62.5)">
    <g id="Betting" fill="#686868">
      <path d="M5.436 20.492Q5.076 20.348 4.698 19.952Q4.32 19.556 4.248 19.268Q4.068 18.548 3.852 17.504Q3.636 16.46 3.42 15.272Q3.204 14.084 3.006 12.842Q2.808 11.6 2.628 10.466Q2.448 9.332 2.34 8.432Q2.232 7.532 2.196 6.992Q2.196 6.416 2.592 6.344Q3.528 6.236 3.924 7.028Q4.104 7.676 4.32 8.504Q4.536 9.332 4.752 10.304Q5.616 9.98 6.3 9.476Q6.984 8.972 7.434 8.378Q7.884 7.784 8.082 7.154Q8.28 6.524 8.136 5.912Q7.956 5.228 7.128 4.904Q6.3 4.58 5.256 4.58Q3.816 4.58 2.682 5.102Q1.548 5.624 0.612 6.38Q0.18 6.704 -0.342 6.578Q-0.864 6.452 -1.044 5.912Q-1.044 5.408 -0.864 5.048Q-0.684 4.688 -0.396 4.4Q0.72 3.248 2.25 2.78Q3.78 2.312 5.472 2.312Q6.84 2.312 8.118 2.744Q9.396 3.176 10.296 4.292Q10.728 5.012 10.746 5.804Q10.764 6.596 10.512 7.352Q10.26 8.108 9.81 8.792Q9.36 9.476 8.892 9.98Q9.792 9.908 10.728 10.142Q11.664 10.376 12.402 10.934Q13.14 11.492 13.608 12.392Q14.076 13.292 14.076 14.552Q14.076 15.992 13.446 17.18Q12.816 18.368 11.79 19.196Q10.764 20.024 9.45 20.492Q8.136 20.96 6.732 20.96Q6.12 20.96 5.76 20.6Q5.58 20.6 5.436 20.492ZM38.592 10.808Q37.908 10.448 37.224 10.484Q36.612 10.52 35.946 10.538Q35.28 10.556 34.56 10.628Q34.668 9.008 34.794 7.46Q34.92 5.912 35.064 4.688Q35.064 4.256 34.506 3.914Q33.948 3.572 33.336 3.608Q33.084 3.608 32.868 3.932Q32.652 4.256 32.616 4.688Q32.508 5.984 32.364 7.568Q32.22 9.152 32.112 10.844Q30.312 11.024 28.836 11.276Q28.224 11.456 28.044 11.816Q27.864 12.176 27.864 12.392Q27.864 13.004 28.422 13.22Q28.98 13.436 29.448 13.436Q30.024 13.364 30.654 13.31Q31.284 13.256 31.968 13.184Q31.896 14.876 31.842 16.388Q31.788 17.9 31.86 19.052Q31.932 20.204 32.544 20.96Q33.156 21.716 34.344 21.608Q35.136 21.536 36.162 21.158Q37.188 20.78 38.196 20.276Q39.204 19.772 40.086 19.214Q40.968 18.656 41.508 18.224Q41.976 17.756 42.156 17.18Q42.336 16.604 42.264 16.208Q42.192 15.956 41.886 15.884Q41.58 15.812 41.22 15.992Q40.428 16.388 39.546 16.838Q38.664 17.288 37.746 17.702Q36.828 18.116 35.91 18.458Q34.992 18.8 34.2 18.944Q34.164 18.908 34.164 18.404Q34.164 17.9 34.2 17.09Q34.236 16.28 34.29 15.236Q34.344 14.192 34.416 13.004Q35.28 12.932 36.108 12.896Q36.936 12.86 37.656 12.86Q38.016 12.86 38.61 12.698Q39.204 12.536 39.276 11.924Q39.276 11.168 38.592 10.808ZM51.912 10.484Q52.596 10.448 53.28 10.808Q53.964 11.168 53.964 11.924Q53.892 12.536 53.298 12.698Q52.704 12.86 52.344 12.86Q51.624 12.86 50.796 12.896Q49.968 12.932 49.104 13.004Q49.032 14.192 48.978 15.236Q48.924 16.28 48.888 17.09Q48.852 17.9 48.852 18.404Q48.852 18.908 48.888 18.944Q49.68 18.8 50.598 18.458Q51.516 18.116 52.434 17.702Q53.352 17.288 54.234 16.838Q55.116 16.388 55.908 15.992Q56.268 15.812 56.574 15.884Q56.88 15.956 56.952 16.208Q57.024 16.604 56.844 17.18Q56.664 17.756 56.196 18.224Q55.656 18.656 54.774 19.214Q53.892 19.772 52.884 20.276Q51.876 20.78 50.85 21.158Q49.824 21.536 49.032 21.608Q47.844 21.716 47.232 20.96Q46.62 20.204 46.548 19.052Q46.476 17.9 46.53 16.388Q46.584 14.876 46.656 13.184Q45.972 13.256 45.342 13.31Q44.712 13.364 44.136 13.436Q43.668 13.436 43.11 13.22Q42.552 13.004 42.552 12.392Q42.552 12.176 42.732 11.816Q42.912 11.456 43.524 11.276Q45 11.024 46.8 10.844Q46.908 9.152 47.052 7.568Q47.196 5.984 47.304 4.688Q47.34 4.256 47.556 3.932Q47.772 3.608 48.024 3.608Q48.636 3.572 49.194 3.914Q49.752 4.256 49.752 4.688Q49.608 5.912 49.482 7.46Q49.356 9.008 49.248 10.628Q49.968 10.556 50.634 10.538Q51.3 10.52 51.912 10.484ZM63.972 5.84Q64.404 5.804 64.476 5.444Q64.548 4.94 64.206 4.58Q63.864 4.22 63.288 4.04Q62.892 3.932 62.28 3.914Q61.668 3.896 61.002 3.968Q60.336 4.04 59.688 4.202Q59.04 4.364 58.572 4.58Q58.284 4.724 58.068 4.904Q57.852 5.084 57.852 5.372Q57.96 6.128 58.464 6.38Q58.968 6.632 59.4 6.488Q60.444 6.2 61.398 6.056Q62.352 5.912 63.252 5.876Q63.54 5.876 63.972 5.84ZM69.444 8.252Q69.552 8.792 69.678 9.458Q69.804 10.124 69.948 10.826Q70.092 11.528 70.2 12.248Q70.308 12.968 70.38 13.616Q70.812 12.68 71.316 11.636Q71.82 10.592 72.414 9.71Q73.008 8.828 73.674 8.252Q74.34 7.676 75.132 7.676Q76.32 7.676 77.13 8.54Q77.94 9.404 78.498 10.682Q79.056 11.96 79.38 13.364Q79.704 14.768 79.92 15.848Q80.136 16.82 79.056 17.288Q78.552 17.54 78.3 17.36Q78.048 17.18 78.012 17Q77.832 16.568 77.562 15.488Q77.292 14.408 76.95 13.292Q76.608 12.176 76.176 11.348Q75.744 10.52 75.204 10.592Q74.556 10.628 74.052 11.564Q73.62 12.32 73.17 13.238Q72.72 14.156 72.288 15.11Q71.856 16.064 71.442 17.018Q71.028 17.972 70.668 18.764Q70.416 19.016 70.038 19.106Q69.66 19.196 69.264 19.052Q68.904 18.944 68.688 18.692Q68.472 18.44 68.472 18.188Q68.148 15.38 67.806 13.076Q67.464 10.772 66.924 8.36Q66.672 7.532 66.834 7.046Q66.996 6.56 67.896 6.668Q69.156 6.884 69.444 8.252ZM25.128 11.672Q23.724 12.5 22.104 12.95Q20.484 13.4 18.612 13.4Q18.684 14.66 19.332 15.398Q19.98 16.136 20.952 16.28Q21.528 16.352 22.122 16.244Q22.716 16.136 23.238 15.902Q23.76 15.668 24.192 15.38Q24.624 15.092 24.948 14.804Q25.272 14.516 25.632 14.426Q25.992 14.336 26.172 14.408Q26.676 14.588 26.532 15.488Q25.956 16.64 24.876 17.45Q23.796 18.26 22.464 18.476Q21.312 18.692 20.088 18.368Q18.864 18.044 17.892 17.108Q17.064 16.28 16.632 15.164Q16.2 14.048 16.092 12.86Q15.984 11.744 16.29 10.736Q16.596 9.728 17.244 8.954Q17.892 8.18 18.864 7.676Q19.836 7.172 21.132 7.1Q22.68 6.992 23.94 7.676Q25.2 8.36 25.704 9.584Q25.992 10.268 25.866 10.772Q25.74 11.276 25.128 11.672ZM89.514 11.186Q89.244 10.592 88.956 10.196Q89.208 9.944 89.208 9.404Q89.208 8.864 88.812 8.576Q88.596 8.432 88.29 8.36Q87.984 8.288 87.66 8.27Q87.336 8.252 87.03 8.288Q86.724 8.324 86.544 8.36Q84.276 9.296 83.25 10.97Q82.224 12.644 82.152 14.804Q82.152 15.704 82.386 16.532Q82.62 17.36 83.016 17.99Q83.412 18.62 83.934 19.016Q84.456 19.412 85.068 19.448Q85.644 19.484 86.202 19.34Q86.76 19.196 87.228 18.944Q87.696 18.692 88.074 18.404Q88.452 18.116 88.704 17.864Q88.848 18.296 89.046 19.142Q89.244 19.988 89.37 20.924Q89.496 21.86 89.496 22.814Q89.496 23.768 89.244 24.416Q88.92 25.244 88.326 25.856Q87.732 26.468 87.012 26.9Q86.292 27.332 85.482 27.566Q84.672 27.8 83.916 27.872Q83.484 27.944 83.07 28.178Q82.656 28.412 82.692 28.808Q82.692 29.204 83.16 29.582Q83.628 29.96 84.06 29.996Q86.004 29.924 87.552 29.24Q89.1 28.556 90.144 27.404Q91.188 26.252 91.638 24.794Q92.088 23.336 91.872 21.752Q91.692 20.6 91.458 19.34Q91.224 18.08 90.954 16.856Q90.684 15.632 90.414 14.498Q90.144 13.364 89.928 12.392Q89.784 11.78 89.514 11.186ZM20.988 9.224Q20.628 9.296 20.214 9.476Q19.8 9.656 19.458 9.926Q19.116 10.196 18.846 10.538Q18.576 10.88 18.54 11.312Q19.152 11.312 19.89 11.204Q20.628 11.096 21.33 10.934Q22.032 10.772 22.626 10.556Q23.22 10.34 23.616 10.088Q23.328 9.404 22.554 9.242Q21.78 9.08 20.988 9.224ZM63.918 18.674Q63.9 18.008 63.648 17.432Q63.432 16.964 63.288 16.226Q63.144 15.488 63.036 14.696Q62.928 13.904 62.892 13.112Q62.856 12.32 62.856 11.672Q62.892 10.844 62.496 10.286Q62.1 9.728 61.452 9.692Q61.056 9.764 60.804 10.196Q60.552 10.628 60.516 11.132Q60.516 11.6 60.534 12.536Q60.552 13.472 60.66 14.552Q60.768 15.632 60.984 16.73Q61.2 17.828 61.596 18.584Q61.884 19.196 62.46 19.556Q63.036 19.916 63.54 19.592Q63.936 19.34 63.918 18.674ZM84.492 16.01Q84.42 15.524 84.42 15.128Q84.42 14.264 84.69 13.544Q84.96 12.824 85.356 12.23Q85.752 11.636 86.238 11.24Q86.724 10.844 87.156 10.628Q87.228 11.348 87.444 12.248Q87.66 13.148 87.84 13.976Q88.02 14.804 87.858 15.29Q87.696 15.776 87.192 16.172Q86.652 16.604 86.022 16.784Q85.392 16.964 84.96 16.712Q84.564 16.496 84.492 16.01ZM5.292 12.932Q5.58 14.336 5.832 15.848Q6.084 17.36 6.372 18.872L6.516 18.872Q7.308 18.872 8.262 18.584Q9.216 18.296 10.044 17.738Q10.872 17.18 11.412 16.37Q11.952 15.56 11.916 14.552Q11.736 13.652 11.088 13.184Q10.44 12.716 9.522 12.572Q8.604 12.428 7.506 12.554Q6.408 12.68 5.292 12.932Z" />
    </g>
    <g id="on" fill="#686868">
      <path d="M81.882 34.458Q81.756 33.792 81.648 33.252Q81.36 31.884 80.1 31.668Q79.2 31.56 79.038 32.046Q78.876 32.532 79.128 33.36Q79.668 35.772 80.01 38.076Q80.352 40.38 80.676 43.188Q80.676 43.44 80.892 43.692Q81.108 43.944 81.468 44.052Q81.864 44.196 82.242 44.106Q82.62 44.016 82.872 43.764Q83.232 42.972 83.646 42.018Q84.06 41.064 84.492 40.11Q84.924 39.156 85.374 38.238Q85.824 37.32 86.256 36.564Q86.76 35.628 87.408 35.592Q87.948 35.52 88.38 36.348Q88.812 37.176 89.154 38.292Q89.496 39.408 89.766 40.488Q90.036 41.568 90.216 42Q90.252 42.18 90.504 42.36Q90.756 42.54 91.26 42.288Q92.34 41.82 92.124 40.848Q91.908 39.768 91.584 38.364Q91.26 36.96 90.702 35.682Q90.144 34.404 89.334 33.54Q88.524 32.676 87.336 32.676Q86.544 32.676 85.878 33.252Q85.212 33.828 84.618 34.71Q84.024 35.592 83.52 36.636Q83.016 37.68 82.584 38.616Q82.512 37.968 82.404 37.248Q82.296 36.528 82.152 35.826Q82.008 35.124 81.882 34.458ZM74.898 33.756Q74.16 32.964 73.08 32.568Q72.396 32.28 71.928 32.712Q71.28 32.352 70.524 32.154Q69.768 31.956 69.264 31.956Q68.364 31.956 67.662 32.424Q66.96 32.892 66.42 33.63Q65.88 34.368 65.538 35.322Q65.196 36.276 65.052 37.284Q64.836 38.652 64.998 40.02Q65.16 41.388 65.736 42.468Q66.312 43.548 67.32 44.232Q68.328 44.916 69.804 44.916Q71.028 44.916 72.036 44.448Q73.044 43.98 73.836 43.224Q74.628 42.468 75.24 41.496Q75.852 40.524 76.248 39.516Q76.536 38.616 76.482 37.572Q76.428 36.528 76.032 35.538Q75.636 34.548 74.898 33.756ZM70.794 34.53Q71.316 34.944 71.712 35.196Q71.856 35.268 72.108 35.268Q72.36 35.268 72.612 35.088Q73.656 35.592 73.998 36.726Q74.34 37.86 73.98 38.904Q73.656 39.84 73.062 40.56Q72.468 41.28 71.802 41.712Q71.136 42.144 70.452 42.306Q69.768 42.468 69.264 42.324Q68.436 42.072 68.022 41.478Q67.608 40.884 67.464 40.146Q67.32 39.408 67.356 38.652Q67.392 37.896 67.5 37.356Q67.572 37.032 67.788 36.492Q68.004 35.952 68.31 35.43Q68.616 34.908 69.03 34.512Q69.444 34.116 69.876 34.116Q70.272 34.116 70.794 34.53Z" />
    </g>
    <g id="Trends" fill="#686868">
      <path d="M75.636 51.88Q75.528 51.232 75.726 50.692Q75.924 50.152 76.536 50.08Q77.076 50.008 77.49 50.368Q77.904 50.728 78.012 51.304Q78.732 55.444 79.362 59.53Q79.992 63.616 80.496 67.54Q80.64 68.584 80.352 68.962Q80.064 69.34 79.668 69.52Q79.236 69.7 78.858 69.52Q78.48 69.34 78.372 68.872L78.336 68.656L78.192 68.692Q77.004 69.124 75.708 69.178Q74.412 69.232 73.224 68.872Q72.036 68.512 71.118 67.702Q70.2 66.892 69.804 65.632Q68.94 62.86 70.884 60.592Q71.712 59.656 72.936 58.9Q74.16 58.144 75.888 57.712L76.536 57.568L75.636 51.88ZM18.648 56.38Q22.068 55.624 25.776 55.804Q26.172 55.84 26.316 55.606Q26.46 55.372 26.532 55.012Q26.604 54.724 26.37 54.31Q26.136 53.896 25.776 53.788Q18.396 52.852 11.016 56.452Q10.368 56.884 10.116 57.568Q10.116 57.964 10.566 58.36Q11.016 58.756 11.88 58.432Q15.228 57.136 18.648 56.38ZM88.992 58.612Q89.064 58.972 89.136 59.368Q89.172 59.692 89.478 59.89Q89.784 60.088 90.288 60.016Q90.684 59.944 90.846 59.62Q91.008 59.296 91.008 58.792Q90.828 57.28 89.82 56.506Q88.812 55.732 87.264 55.66Q86.364 55.66 85.464 56.056Q84.564 56.452 83.862 57.118Q83.16 57.784 82.728 58.648Q82.296 59.512 82.332 60.448Q82.476 61.492 83.016 62.194Q83.556 62.896 84.312 63.4Q85.068 63.904 86.13 64.516Q87.192 65.128 88.11 65.776Q89.028 66.424 89.586 67.018Q90.144 67.612 89.892 68.044Q89.604 68.548 88.884 68.872Q88.164 69.196 87.264 69.394Q86.364 69.592 85.374 69.682Q84.384 69.772 83.52 69.772Q82.908 69.772 82.332 70.024Q81.756 70.276 81.756 70.924Q81.756 71.104 81.954 71.338Q82.152 71.572 82.422 71.788Q82.692 72.004 82.998 72.166Q83.304 72.328 83.52 72.328Q84.42 72.328 85.716 72.202Q87.012 72.076 88.308 71.734Q89.604 71.392 90.684 70.78Q91.764 70.168 92.16 69.196Q92.664 67.936 92.322 66.946Q91.98 65.956 91.044 65.128Q90.108 64.3 88.74 63.508Q87.372 62.716 86.112 61.96Q85.356 61.456 84.96 60.952Q84.564 60.448 84.672 59.908Q84.708 59.62 85.104 59.242Q85.5 58.864 86.076 58.558Q86.652 58.252 87.336 58.108Q88.02 57.964 88.632 58.144Q88.92 58.252 88.992 58.612ZM38.142 58.468Q38.844 58.072 39.492 57.712Q39.96 57.388 40.05 56.992Q40.14 56.596 39.996 56.416Q39.852 56.236 39.492 56.164Q39.132 56.092 38.592 56.164Q37.332 56.38 36.126 57.028Q34.92 57.676 33.966 58.612Q33.012 59.548 32.364 60.7Q31.716 61.852 31.572 63.076Q31.356 62.032 31.14 60.574Q30.924 59.116 30.78 57.784Q30.708 57.388 30.312 57.208Q29.916 57.028 29.484 56.992Q29.088 56.956 28.782 57.1Q28.476 57.244 28.476 57.748Q28.764 60.232 29.16 62.734Q29.556 65.236 30.168 67.792Q30.312 68.44 30.726 69.142Q31.14 69.844 31.824 69.844Q32.364 69.844 32.67 69.178Q32.976 68.512 32.976 67.864Q33.048 66.496 33.3 65.074Q33.552 63.652 34.272 62.284Q34.776 61.312 35.406 60.61Q36.036 59.908 36.738 59.386Q37.44 58.864 38.142 58.468ZM56.826 59.458Q56.7 58.792 56.592 58.252Q56.304 56.884 55.044 56.668Q54.144 56.56 53.982 57.046Q53.82 57.532 54.072 58.36Q54.612 60.772 54.954 63.076Q55.296 65.38 55.62 68.188Q55.62 68.44 55.836 68.692Q56.052 68.944 56.412 69.052Q56.808 69.196 57.186 69.106Q57.564 69.016 57.816 68.764Q58.176 67.972 58.59 67.018Q59.004 66.064 59.436 65.11Q59.868 64.156 60.318 63.238Q60.768 62.32 61.2 61.564Q61.704 60.628 62.352 60.592Q62.892 60.52 63.324 61.348Q63.756 62.176 64.098 63.292Q64.44 64.408 64.71 65.488Q64.98 66.568 65.16 67Q65.196 67.18 65.448 67.36Q65.7 67.54 66.204 67.288Q67.284 66.82 67.068 65.848Q66.852 64.768 66.528 63.364Q66.204 61.96 65.646 60.682Q65.088 59.404 64.278 58.54Q63.468 57.676 62.28 57.676Q61.488 57.676 60.822 58.252Q60.156 58.828 59.562 59.71Q58.968 60.592 58.464 61.636Q57.96 62.68 57.528 63.616Q57.456 62.968 57.348 62.248Q57.24 61.528 57.096 60.826Q56.952 60.124 56.826 59.458ZM20.394 69.07Q20.664 68.764 20.664 68.368Q20.736 65.812 20.664 63.256Q20.592 60.7 20.304 58.108Q20.304 57.712 19.944 57.298Q19.584 56.884 18.756 57.028Q18.468 57.1 18.342 57.244Q18.216 57.388 18.18 57.586Q18.144 57.784 18.18 57.982Q18.216 58.18 18.216 58.324Q18.396 60.844 18.45 63.346Q18.504 65.848 18.54 68.368Q18.576 68.836 18.792 69.196Q19.008 69.556 19.728 69.448Q20.124 69.376 20.394 69.07ZM50.364 61.672Q48.96 62.5 47.34 62.95Q45.72 63.4 43.848 63.4Q43.92 64.66 44.568 65.398Q45.216 66.136 46.188 66.28Q46.764 66.352 47.358 66.244Q47.952 66.136 48.474 65.902Q48.996 65.668 49.428 65.38Q49.86 65.092 50.184 64.804Q50.508 64.516 50.868 64.426Q51.228 64.336 51.408 64.408Q51.912 64.588 51.768 65.488Q51.192 66.64 50.112 67.45Q49.032 68.26 47.7 68.476Q46.548 68.692 45.324 68.368Q44.1 68.044 43.128 67.108Q42.3 66.28 41.868 65.164Q41.436 64.048 41.328 62.86Q41.22 61.744 41.526 60.736Q41.832 59.728 42.48 58.954Q43.128 58.18 44.1 57.676Q45.072 57.172 46.368 57.1Q47.916 56.992 49.176 57.676Q50.436 58.36 50.94 59.584Q51.228 60.268 51.102 60.772Q50.976 61.276 50.364 61.672ZM46.224 59.224Q45.864 59.296 45.45 59.476Q45.036 59.656 44.694 59.926Q44.352 60.196 44.082 60.538Q43.812 60.88 43.776 61.312Q44.388 61.312 45.126 61.204Q45.864 61.096 46.566 60.934Q47.268 60.772 47.862 60.556Q48.456 60.34 48.852 60.088Q48.564 59.404 47.79 59.242Q47.016 59.08 46.224 59.224ZM72 64.732Q72.216 65.596 72.792 66.064Q73.368 66.532 74.16 66.694Q74.952 66.856 75.852 66.748Q76.752 66.64 77.616 66.352L77.94 66.244L76.932 59.908L76.212 60.088Q75.456 60.304 74.61 60.754Q73.764 61.204 73.116 61.816Q72.468 62.428 72.126 63.184Q71.784 63.94 72 64.732Z" />
    </g>
  </g>
  <g id="Sell-Pickax" transform="translate(132.5 62.5)">
    <g id="Sell">
      <path d="M52.316 27.588Q52.82 27.468 53.012 27.228Q53.3 26.844 53.324 26.412Q53.348 25.98 53.108 25.692Q52.004 24.396 50.228 23.508Q48.452 22.62 46.532 22.716Q45.14 22.812 43.988 23.34Q42.836 23.868 41.972 24.708Q41.108 25.548 40.628 26.58Q40.148 27.612 40.148 28.764Q40.148 29.868 40.652 31.02Q41.156 32.172 42.26 33.132Q44.564 34.812 46.796 36.108Q49.028 37.404 50.996 38.892Q52.292 39.804 52.796 40.932Q53.3 42.06 53.06 43.116Q52.868 44.124 52.1 44.916Q51.332 45.708 50.084 45.996Q48.452 46.38 46.964 45.924Q45.476 45.468 44.372 44.46Q43.988 44.22 43.268 44.388Q42.548 44.556 42.26 44.988Q42.068 45.276 42.308 45.948Q42.548 46.62 42.884 47.004Q44.228 48.492 46.172 49.02Q48.116 49.548 50.132 49.164Q52.436 48.732 54.188 47.172Q55.94 45.612 56.276 42.972Q56.276 41.628 55.94 40.572Q55.604 39.516 55.028 38.676Q54.452 37.836 53.684 37.164Q52.916 36.492 52.052 35.916Q51.38 35.484 50.492 34.908Q49.604 34.332 48.62 33.708Q47.636 33.084 46.628 32.436Q45.62 31.788 44.756 31.164Q43.412 30.204 43.1 29.076Q42.788 27.948 43.892 26.748Q44.468 26.124 45.26 25.788Q46.052 25.452 46.772 25.452Q47.348 25.452 47.972 25.644Q48.596 25.836 49.22 26.124Q49.844 26.412 50.372 26.724Q50.9 27.036 51.284 27.324Q51.812 27.708 52.316 27.588ZM80.468 25.212Q80.708 30.444 81.284 36.036Q81.86 41.628 82.532 46.716Q82.6358 48.2387 81.9911 48.6885Q81.7416 48.8626 81.38 48.876Q81.092 48.876 80.804 48.66Q80.516 48.444 80.276 48.108Q80.036 47.772 79.82 47.388Q79.604 47.004 79.556 46.716Q79.172 44.268 78.836 41.532Q78.5 38.796 78.236 36.036Q77.972 33.276 77.78 30.636Q77.588 27.996 77.54 25.788Q77.636 24.636 77.876 23.844Q78.116 23.052 78.884 23.1Q79.7 23.148 80.06 23.748Q80.42 24.348 80.468 25.212ZM91.316 36.036Q90.74 30.444 90.5 25.212Q90.452 24.348 90.092 23.748Q89.732 23.148 88.916 23.1Q88.148 23.052 87.908 23.844Q87.668 24.636 87.572 25.788Q87.62 27.996 87.812 30.636Q88.004 33.276 88.268 36.036Q88.532 38.796 88.868 41.532Q89.204 44.268 89.588 46.716Q89.636 47.004 89.852 47.388Q90.068 47.772 90.308 48.108Q90.548 48.444 90.836 48.66Q91.124 48.876 91.412 48.876Q91.7736 48.8626 92.0231 48.6885Q92.6678 48.2387 92.564 46.716Q91.892 41.628 91.316 36.036ZM67.172 38.1Q69.332 37.5 71.204 36.396Q72.02 35.868 72.188 35.196Q72.356 34.524 71.972 33.612Q71.3 31.98 69.62 31.068Q67.94 30.156 65.876 30.3Q64.148 30.396 62.852 31.068Q61.556 31.74 60.692 32.772Q59.828 33.804 59.42 35.148Q59.012 36.492 59.156 37.98Q59.3 39.564 59.876 41.052Q60.452 42.54 61.556 43.644Q62.852 44.892 64.484 45.324Q66.116 45.756 67.652 45.468Q69.428 45.18 70.868 44.1Q72.308 43.02 73.076 41.484Q73.268 40.284 72.596 40.044Q72.356 39.948 71.876 40.068Q71.396 40.188 70.964 40.572Q70.532 40.956 69.956 41.34Q69.38 41.724 68.684 42.036Q67.988 42.348 67.196 42.492Q66.404 42.636 65.636 42.54Q64.34 42.348 63.476 41.364Q62.612 40.38 62.516 38.7Q65.012 38.7 67.172 38.1ZM64.652 33.468Q65.204 33.228 65.684 33.132Q66.74 32.94 67.772 33.156Q68.804 33.372 69.188 34.284Q68.66 34.62 67.868 34.908Q67.076 35.196 66.14 35.412Q65.204 35.628 64.22 35.772Q63.236 35.916 62.42 35.916Q62.468 35.34 62.828 34.884Q63.188 34.428 63.644 34.068Q64.1 33.708 64.652 33.468Z" />
    </g>
    <g id="Pickax">
      <path d="M24.308 73.756Q24.572 73.3 24.62 72.772Q24.668 71.044 24.644 69.028Q24.62 67.012 24.524 64.9Q26.108 63.796 27.884 62.476Q29.66 61.156 30.956 59.572Q32.252 57.988 32.756 56.068Q33.26 54.148 32.348 51.748Q31.34 49.732 29.468 48.82Q27.596 47.908 25.46 47.788Q23.324 47.668 21.212 48.148Q19.1 48.628 17.66 49.348Q16.556 49.972 15.572 50.86Q14.588 51.748 14.492 52.852Q14.492 53.14 14.684 53.428Q14.876 53.716 15.26 53.86Q15.644 54.004 16.172 53.908Q16.7 53.812 17.324 53.332Q19.484 51.94 21.836 51.34Q24.188 50.74 27.164 51.412Q28.46 51.748 29.084 52.42Q29.708 53.092 29.804 53.908Q29.948 54.964 29.516 55.948Q29.084 56.932 28.292 57.844Q27.5 58.756 26.444 59.524Q25.388 60.292 24.236 60.916Q24.14 59.668 23.996 58.516Q23.852 57.364 23.708 56.404Q23.564 55.972 23.276 55.492Q22.988 55.012 22.604 54.628Q22.22 54.244 21.812 54.052Q21.404 53.86 21.068 54.004Q20.732 54.244 20.588 54.508Q20.444 54.772 20.348 54.964Q20.252 55.204 20.252 55.396Q20.924 59.716 21.236 64.06Q21.548 68.404 21.5 72.58Q21.5 72.964 22.1 73.54Q22.7 74.116 23.516 74.164Q24.044 74.212 24.308 73.756ZM78.956 56.908Q78.572 56.932 78.38 56.98Q77.708 57.172 76.604 57.7Q75.5 58.228 74.228 58.876Q72.956 59.524 71.684 60.22Q70.412 60.916 69.452 61.492Q69.068 58.612 68.684 56.02Q68.3 53.428 67.916 51.22Q67.532 50.02 66.764 49.42Q65.996 48.82 65.276 49.108Q64.748 49.348 64.772 50.14Q64.796 50.932 64.892 51.604Q65.18 53.716 65.54 56.452Q65.9 59.188 66.284 62.068Q66.668 64.948 67.028 67.636Q67.388 70.324 67.676 72.292Q67.868 73.108 68.252 73.612Q68.636 74.116 69.452 74.26Q70.22 74.308 70.556 73.732Q70.892 73.156 70.604 72.244Q70.46 70.564 70.292 68.884Q70.124 67.204 69.932 65.524Q70.94 66.196 72.164 66.988Q73.388 67.78 74.684 68.572Q75.98 69.364 77.228 70.108Q78.476 70.852 79.532 71.38Q80.108 71.668 80.756 71.524Q81.404 71.38 81.692 71.044Q81.9119 70.8072 81.9351 70.5524Q81.9776 70.0844 81.356 69.556Q80.3 68.692 79.1 67.804Q77.9 66.916 76.7 66.124Q75.5 65.332 74.372 64.612Q73.244 63.892 72.38 63.316Q73.772 62.452 75.74 61.372Q77.708 60.292 79.532 59.428Q80.204 59.092 80.468 58.636Q80.732 58.18 80.636 57.604Q80.588 57.364 80.324 57.196Q80.06 57.028 79.7 56.956Q79.34 56.884 78.956 56.908ZM43.58 53.62Q44.156 53.572 44.252 53.092Q44.348 52.42 43.892 51.94Q43.436 51.46 42.668 51.22Q42.14 51.076 41.324 51.052Q40.508 51.028 39.62 51.124Q38.732 51.22 37.868 51.436Q37.004 51.652 36.38 51.94Q35.996 52.132 35.708 52.372Q35.42 52.612 35.42 52.996Q35.564 54.004 36.236 54.34Q36.908 54.676 37.484 54.484Q38.876 54.1 40.148 53.908Q41.42 53.716 42.62 53.668Q43.004 53.668 43.58 53.62ZM96.668 54.916Q96.86 56.26 96.98 57.772Q97.1 59.284 97.172 60.82Q97.244 62.356 97.244 63.796Q97.244 65.236 97.196 66.388Q98.732 67.444 99.044 68.26Q99.356 69.076 99.116 69.7Q98.828 70.564 98.084 70.588Q97.34 70.612 96.38 70.084Q95.708 70.564 94.844 71.116Q93.98 71.668 93.02 72.172Q92.06 72.676 91.1 73.06Q90.14 73.444 89.324 73.588Q87.788 73.828 86.564 73.012Q85.34 72.196 84.908 70.564Q84.62 69.46 84.764 68.284Q84.908 67.108 85.484 66.028Q86.06 64.948 87.044 64.084Q88.028 63.22 89.372 62.74Q89.708 62.596 90.308 62.5Q90.908 62.404 91.556 62.428Q92.204 62.452 92.876 62.692Q93.548 62.932 94.124 63.508Q94.124 62.692 94.1 61.708Q94.076 60.724 94.028 59.716Q93.98 58.708 93.908 57.82Q93.836 56.932 93.74 56.308Q93.644 55.588 93.188 55.42Q92.732 55.252 92.06 55.492Q90.908 55.876 89.372 56.98Q87.836 58.084 86.444 59.332Q86.012 59.764 85.46 59.716Q84.908 59.668 84.524 59.284Q84.14 58.9 84.092 58.396Q84.044 57.892 84.476 57.316Q85.292 56.452 86.3 55.54Q87.308 54.628 88.412 53.884Q89.516 53.14 90.668 52.66Q91.82 52.18 92.972 52.132Q94.652 52.084 95.564 52.876Q96.476 53.668 96.668 54.916ZM117.068 70.156Q116.924 69.268 116.012 68.164Q115.052 66.916 113.996 65.62Q112.94 64.324 111.836 63.076L115.82 59.044Q116.444 58.372 116.612 57.676Q116.78 56.98 116.348 56.452Q115.484 56.02 114.764 56.116Q114.044 56.212 113.42 56.596Q111.404 58.516 109.484 60.532Q107.276 58.18 104.732 56.164Q103.868 55.636 103.004 55.612Q102.14 55.588 101.276 56.452Q101.18 56.548 101.084 56.788Q100.988 57.028 101.012 57.292Q101.036 57.556 101.228 57.748Q101.42 57.94 101.996 57.94Q103.34 59.188 104.612 60.46Q105.884 61.732 107.132 63.028L105.116 65.236Q104.108 66.34 103.148 67.492Q102.62 68.212 102.308 69.004Q101.996 69.796 101.996 70.708Q101.996 71.284 102.668 71.404Q103.34 71.524 104.156 70.852L109.388 65.524Q110.492 66.724 111.524 67.924Q112.556 69.124 113.612 70.324Q113.852 70.564 114.236 70.804Q114.62 71.044 115.028 71.212Q115.436 71.38 115.796 71.452Q116.156 71.524 116.348 71.428Q117.212 71.044 117.068 70.156ZM58.844 60.34Q58.508 60.532 58.028 60.46Q57.548 60.388 57.212 59.86Q56.444 58.852 55.34 58.852Q54.332 58.852 53.54 59.308Q52.748 59.764 52.148 60.508Q51.548 61.252 51.164 62.164Q50.78 63.076 50.636 63.988Q50.396 65.668 51.212 66.82Q52.028 67.972 53.756 67.972Q55.148 68.02 56.9 67.42Q58.652 66.82 60.188 65.86Q60.86 65.572 61.436 65.524Q62.012 65.476 62.396 66.1Q62.876 66.868 62.156 67.66Q61.436 68.452 60.236 69.076Q59.036 69.748 57.716 70.252Q56.396 70.756 55.052 70.972Q53.708 71.188 52.388 70.996Q51.068 70.804 49.916 70.084Q48.092 68.836 47.708 66.532Q47.324 64.228 48.044 61.78Q48.332 60.868 48.86 59.932Q49.388 58.996 50.132 58.228Q50.876 57.46 51.788 56.908Q52.7 56.356 53.804 56.164Q55.58 55.876 57.212 56.524Q58.844 57.172 59.372 58.9Q59.468 59.284 59.372 59.692Q59.276 60.1 58.844 60.34ZM43.508 70.732Q43.484 69.844 43.148 69.076Q42.86 68.452 42.668 67.468Q42.476 66.484 42.332 65.428Q42.188 64.372 42.14 63.316Q42.092 62.26 42.092 61.396Q42.14 60.292 41.612 59.548Q41.084 58.804 40.22 58.756Q39.692 58.852 39.356 59.428Q39.02 60.004 38.972 60.676Q38.972 61.3 38.996 62.548Q39.02 63.796 39.164 65.236Q39.308 66.676 39.596 68.14Q39.884 69.604 40.412 70.612Q40.796 71.428 41.564 71.908Q42.332 72.388 43.004 71.956Q43.532 71.62 43.508 70.732ZM91.1 65.236Q90.476 65.38 89.78 65.836Q89.084 66.292 88.532 66.94Q87.98 67.588 87.716 68.38Q87.452 69.172 87.692 69.94Q87.788 70.228 88.1 70.372Q88.412 70.516 88.796 70.42Q89.948 70.18 91.412 69.484Q92.876 68.788 93.74 67.972Q93.74 67.684 93.452 67.228Q93.164 66.772 92.78 66.316Q92.396 65.86 91.94 65.524Q91.484 65.188 91.1 65.236Z" />
    </g>
  </g>
  <g id="Follow-the-Money" transform="translate(27.5 62.5)">
    <g id="Follow" fill="#686868">
      <path d="M33.084 3.284Q33.264 7.208 33.696 11.402Q34.128 15.596 34.632 19.412Q34.7099 20.5541 34.2263 20.8914Q34.0392 21.022 33.768 21.032Q33.552 21.032 33.336 20.87Q33.12 20.708 32.94 20.456Q32.76 20.204 32.598 19.916Q32.436 19.628 32.4 19.412Q32.112 17.576 31.86 15.524Q31.608 13.472 31.41 11.402Q31.212 9.332 31.068 7.352Q30.924 5.372 30.888 3.716Q30.96 2.852 31.14 2.258Q31.32 1.664 31.896 1.7Q32.508 1.736 32.778 2.186Q33.048 2.636 33.084 3.284ZM41.22 11.402Q40.788 7.208 40.608 3.284Q40.572 2.636 40.302 2.186Q40.032 1.736 39.42 1.7Q38.844 1.664 38.664 2.258Q38.484 2.852 38.412 3.716Q38.448 5.372 38.592 7.352Q38.736 9.332 38.934 11.402Q39.132 13.472 39.384 15.524Q39.636 17.576 39.924 19.412Q39.96 19.628 40.122 19.916Q40.284 20.204 40.464 20.456Q40.644 20.708 40.86 20.87Q41.076 21.032 41.292 21.032Q41.5632 21.022 41.7503 20.8914Q42.2339 20.5541 42.156 19.412Q41.652 15.596 41.22 11.402ZM12.168 5.12Q12.6 4.832 12.672 4.616Q12.6 4.148 11.988 3.788Q11.016 3.464 9.666 3.176Q8.316 2.888 6.786 2.726Q5.256 2.564 3.654 2.528Q2.052 2.492 0.648 2.708Q0.396 2.78 0.252 2.996Q0.108 3.212 0.054 3.464C0.018 3.632 0.006 3.8 0.018 3.968Q0.036 4.22 0.108 4.328Q0.324 4.76 0.756 4.868Q1.188 4.976 1.692 4.976L2.88 4.976Q3.384 8.072 3.798 11.132Q4.212 14.192 4.572 17.288Q4.608 17.504 4.752 17.792Q4.896 18.08 5.13 18.314Q5.364 18.548 5.652 18.728Q5.94 18.908 6.264 18.908Q6.624 18.908 6.786 18.35Q6.948 17.792 6.876 17.288Q6.768 16.064 6.642 14.822Q6.516 13.58 6.336 12.32Q7.92 12.248 9.45 12.122Q10.98 11.996 12.492 11.744Q12.96 11.672 13.284 11.366Q13.608 11.06 13.608 10.664Q13.608 10.376 13.104 10.052Q12.6 9.728 12.096 9.728Q9.108 9.944 6.048 10.052Q5.868 8.792 5.67 7.532Q5.472 6.272 5.256 5.012Q6.84 5.048 8.37 5.156Q9.9 5.264 11.448 5.408Q11.736 5.408 12.168 5.12ZM25.614 8.756Q24.876 7.964 23.796 7.568Q23.112 7.28 22.644 7.712Q21.996 7.352 21.24 7.154Q20.484 6.956 19.98 6.956Q19.08 6.956 18.378 7.424Q17.676 7.892 17.136 8.63Q16.596 9.368 16.254 10.322Q15.912 11.276 15.768 12.284Q15.552 13.652 15.714 15.02Q15.876 16.388 16.452 17.468Q17.028 18.548 18.036 19.232Q19.044 19.916 20.52 19.916Q21.744 19.916 22.752 19.448Q23.76 18.98 24.552 18.224Q25.344 17.468 25.956 16.496Q26.568 15.524 26.964 14.516Q27.252 13.616 27.198 12.572Q27.144 11.528 26.748 10.538Q26.352 9.548 25.614 8.756ZM53.388 7.568Q54.468 7.964 55.206 8.756Q55.944 9.548 56.34 10.538Q56.736 11.528 56.79 12.572Q56.844 13.616 56.556 14.516Q56.16 15.524 55.548 16.496Q54.936 17.468 54.144 18.224Q53.352 18.98 52.344 19.448Q51.336 19.916 50.112 19.916Q48.636 19.916 47.628 19.232Q46.62 18.548 46.044 17.468Q45.468 16.388 45.306 15.02Q45.144 13.652 45.36 12.284Q45.504 11.276 45.846 10.322Q46.188 9.368 46.728 8.63Q47.268 7.892 47.97 7.424Q48.672 6.956 49.572 6.956Q50.076 6.956 50.832 7.154Q51.588 7.352 52.236 7.712Q52.704 7.28 53.388 7.568ZM71.82 19.826Q72.18 19.7 72.468 19.304Q74.196 16.856 75.456 14.21Q76.716 11.564 77.508 8.396Q77.616 8 77.148 7.64Q76.68 7.28 76.032 7.208Q75.528 7.172 75.24 8.144Q74.952 9.08 74.484 10.268Q74.016 11.456 73.476 12.644Q72.936 13.832 72.36 14.894Q71.784 15.956 71.28 16.604Q70.776 14.984 70.254 13.094Q69.732 11.204 68.94 9.62Q68.76 9.332 68.364 9.17Q67.968 9.008 67.752 9.152Q67.464 9.332 66.96 10.124Q66.456 10.916 65.844 11.978Q65.232 13.04 64.566 14.174Q63.9 15.308 63.36 16.172Q63.108 15.524 62.874 14.696Q62.64 13.868 62.406 13.004Q62.172 12.14 61.974 11.294Q61.776 10.448 61.632 9.728Q61.56 9.296 61.056 8.846Q60.552 8.396 59.94 8.432Q59.436 8.504 59.31 9.044Q59.184 9.584 59.292 10.196Q59.472 11.096 59.76 12.23Q60.048 13.364 60.39 14.498Q60.732 15.632 61.128 16.658Q61.524 17.684 61.92 18.332Q62.136 18.62 62.514 18.944Q62.892 19.268 63.36 19.304Q63.684 19.34 64.152 19.142Q64.62 18.944 64.98 18.404Q65.772 17.036 66.42 15.758Q67.068 14.48 67.788 13.22Q68.004 13.832 68.256 14.57Q68.508 15.308 68.742 16.082Q68.976 16.856 69.228 17.612Q69.48 18.368 69.696 18.98Q69.804 19.304 70.236 19.61Q70.668 19.916 71.172 19.952Q71.46 19.952 71.82 19.826ZM21.51 9.53Q22.032 9.944 22.428 10.196Q22.572 10.268 22.824 10.268Q23.076 10.268 23.328 10.088Q24.372 10.592 24.714 11.726Q25.056 12.86 24.696 13.904Q24.372 14.84 23.778 15.56Q23.184 16.28 22.518 16.712Q21.852 17.144 21.168 17.306Q20.484 17.468 19.98 17.324Q19.152 17.072 18.738 16.478Q18.324 15.884 18.18 15.146Q18.036 14.408 18.072 13.652Q18.108 12.896 18.216 12.356Q18.288 12.032 18.504 11.492Q18.72 10.952 19.026 10.43Q19.332 9.908 19.746 9.512Q20.16 9.116 20.592 9.116Q20.988 9.116 21.51 9.53ZM52.02 10.196Q51.624 9.944 51.102 9.53Q50.58 9.116 50.184 9.116Q49.752 9.116 49.338 9.512Q48.924 9.908 48.618 10.43Q48.312 10.952 48.096 11.492Q47.88 12.032 47.808 12.356Q47.7 12.896 47.664 13.652Q47.628 14.408 47.772 15.146Q47.916 15.884 48.33 16.478Q48.744 17.072 49.572 17.324Q50.076 17.468 50.76 17.306Q51.444 17.144 52.11 16.712Q52.776 16.28 53.37 15.56Q53.964 14.84 54.288 13.904Q54.648 12.86 54.306 11.726Q53.964 10.592 52.92 10.088Q52.668 10.268 52.416 10.268Q52.164 10.268 52.02 10.196Z" />
    </g>
    <g id="the" fill="#686868">
      <path d="M18.684 29.184Q18.684 30.048 18.666 31.128Q18.648 32.208 18.666 33.36Q18.684 34.512 18.702 35.736Q18.72 36.96 18.756 38.076Q19.116 37.356 19.62 36.654Q20.124 35.952 20.754 35.412Q21.384 34.872 22.086 34.548Q22.788 34.224 23.616 34.224Q24.516 34.224 25.218 34.8Q25.92 35.376 26.442 36.33Q26.964 37.284 27.324 38.454Q27.684 39.624 27.918 40.83Q28.152 42.036 28.26 43.134Q28.368 44.232 28.44 45.024Q28.44 45.6 28.152 45.96Q27.864 46.32 27.468 46.32Q27.18 46.32 26.766 45.942Q26.352 45.564 26.172 45.024Q26.064 44.592 25.956 43.764Q25.848 42.936 25.704 41.982Q25.56 41.028 25.344 40.056Q25.128 39.084 24.822 38.31Q24.516 37.536 24.084 37.104Q23.652 36.672 23.076 36.78Q22.176 36.96 21.51 38.04Q20.844 39.12 20.358 40.488Q19.872 41.856 19.566 43.26Q19.26 44.664 19.116 45.528Q18.972 46.176 18.738 46.41Q18.504 46.644 18.216 46.644Q17.928 46.644 17.694 46.356Q17.46 46.068 17.262 45.654Q17.064 45.24 16.92 44.79Q16.776 44.34 16.74 44.016Q16.56 42.072 16.452 40.29Q16.344 38.508 16.29 36.708Q16.236 34.908 16.236 33.018Q16.236 31.128 16.308 28.968Q16.308 27.8224 16.8329 27.4788Q17.1328 27.2826 17.604 27.348Q18.036 27.42 18.36 27.978Q18.684 28.536 18.684 29.184ZM9.648 35.484Q10.332 35.448 11.016 35.808Q11.7 36.168 11.7 36.924Q11.628 37.536 11.034 37.698Q10.44 37.86 10.08 37.86Q9.36 37.86 8.532 37.896Q7.704 37.932 6.84 38.004Q6.768 39.192 6.714 40.236Q6.66 41.28 6.624 42.09Q6.588 42.9 6.588 43.404Q6.588 43.908 6.624 43.944Q7.416 43.8 8.334 43.458Q9.252 43.116 10.17 42.702Q11.088 42.288 11.97 41.838Q12.852 41.388 13.644 40.992Q14.004 40.812 14.31 40.884Q14.616 40.956 14.688 41.208Q14.76 41.604 14.58 42.18Q14.4 42.756 13.932 43.224Q13.392 43.656 12.51 44.214Q11.628 44.772 10.62 45.276Q9.612 45.78 8.586 46.158Q7.56 46.536 6.768 46.608Q5.58 46.716 4.968 45.96Q4.356 45.204 4.284 44.052Q4.212 42.9 4.266 41.388Q4.32 39.876 4.392 38.184Q3.708 38.256 3.078 38.31Q2.448 38.364 1.872 38.436Q1.404 38.436 0.846 38.22Q0.288 38.004 0.288 37.392Q0.288 37.176 0.468 36.816Q0.648 36.456 1.26 36.276Q2.736 36.024 4.536 35.844Q4.644 34.152 4.788 32.568Q4.932 30.984 5.04 29.688Q5.076 29.256 5.292 28.932Q5.508 28.608 5.76 28.608Q6.372 28.572 6.93 28.914Q7.488 29.256 7.488 29.688Q7.344 30.912 7.218 32.46Q7.092 34.008 6.984 35.628Q7.704 35.556 8.37 35.538Q9.036 35.52 9.648 35.484ZM36.72 37.95Q38.34 37.5 39.744 36.672Q40.356 36.276 40.482 35.772Q40.608 35.268 40.32 34.584Q39.816 33.36 38.556 32.676Q37.296 31.992 35.748 32.1Q34.452 32.172 33.48 32.676Q32.508 33.18 31.86 33.954Q31.212 34.728 30.906 35.736Q30.6 36.744 30.708 37.86Q30.816 39.048 31.248 40.164Q31.68 41.28 32.508 42.108Q33.48 43.044 34.704 43.368Q35.928 43.692 37.08 43.476Q38.412 43.26 39.492 42.45Q40.572 41.64 41.148 40.488Q41.292 39.588 40.788 39.408Q40.608 39.336 40.248 39.426Q39.888 39.516 39.564 39.804Q39.24 40.092 38.808 40.38Q38.376 40.668 37.854 40.902Q37.332 41.136 36.738 41.244Q36.144 41.352 35.568 41.28Q34.596 41.136 33.948 40.398Q33.3 39.66 33.228 38.4Q35.1 38.4 36.72 37.95ZM34.83 34.476Q35.244 34.296 35.604 34.224Q36.396 34.08 37.17 34.242Q37.944 34.404 38.232 35.088Q37.836 35.34 37.242 35.556Q36.648 35.772 35.946 35.934Q35.244 36.096 34.506 36.204Q33.768 36.312 33.156 36.312Q33.192 35.88 33.462 35.538Q33.732 35.196 34.074 34.926Q34.416 34.656 34.83 34.476Z" />
    </g>
    <g id="Money" fill="#686868">
      <path d="M19.548 71.464Q19.152 71.464 18.738 70.852Q18.324 70.24 18.288 69.664Q18 67.576 17.586 64.786Q17.172 61.996 16.488 58.18Q15.408 60.232 14.364 62.248L12.276 66.28Q11.628 67.54 10.944 67.54Q9.936 67.54 9.36 66.496Q8.1 64.66 6.75 63.058Q5.4 61.456 3.96 59.872Q3.888 62.284 4.014 64.606Q4.14 66.928 4.464 69.124Q4.536 69.52 4.374 69.826Q4.212 70.132 4.032 70.204Q3.528 70.384 3.024 69.988Q2.52 69.592 2.412 69.124Q2.088 67.828 1.944 66.244Q1.8 64.66 1.746 63.04Q1.692 61.42 1.692 59.836Q1.692 58.252 1.728 56.956Q1.728 55.516 2.664 55.516Q3.24 55.516 3.636 55.93Q4.032 56.344 4.068 57.1Q5.868 58.9 7.47 60.79Q9.072 62.68 10.584 64.624Q11.844 62.356 13.14 59.962Q14.436 57.568 16.056 55.3Q16.128 54.904 16.452 54.49Q16.776 54.076 17.172 53.932Q17.568 53.788 18 54.256Q18.432 54.724 18.576 55.336Q19.188 58.972 19.638 62.608Q20.088 66.244 20.52 69.88Q20.592 70.564 20.268 71.014Q19.944 71.464 19.548 71.464ZM40.518 59.458Q40.392 58.792 40.284 58.252Q39.996 56.884 38.736 56.668Q37.836 56.56 37.674 57.046Q37.512 57.532 37.764 58.36Q38.304 60.772 38.646 63.076Q38.988 65.38 39.312 68.188Q39.312 68.44 39.528 68.692Q39.744 68.944 40.104 69.052Q40.5 69.196 40.878 69.106Q41.256 69.016 41.508 68.764Q41.868 67.972 42.282 67.018Q42.696 66.064 43.128 65.11Q43.56 64.156 44.01 63.238Q44.46 62.32 44.892 61.564Q45.396 60.628 46.044 60.592Q46.584 60.52 47.016 61.348Q47.448 62.176 47.79 63.292Q48.132 64.408 48.402 65.488Q48.672 66.568 48.852 67Q48.888 67.18 49.14 67.36Q49.392 67.54 49.896 67.288Q50.976 66.82 50.76 65.848Q50.544 64.768 50.22 63.364Q49.896 61.96 49.338 60.682Q48.78 59.404 47.97 58.54Q47.16 57.676 45.972 57.676Q45.18 57.676 44.514 58.252Q43.848 58.828 43.254 59.71Q42.66 60.592 42.156 61.636Q41.652 62.68 41.22 63.616Q41.148 62.968 41.04 62.248Q40.932 61.528 40.788 60.826Q40.644 60.124 40.518 59.458ZM31.716 57.568Q32.796 57.964 33.534 58.756Q34.272 59.548 34.668 60.538Q35.064 61.528 35.118 62.572Q35.172 63.616 34.884 64.516Q34.488 65.524 33.876 66.496Q33.264 67.468 32.472 68.224Q31.68 68.98 30.672 69.448Q29.664 69.916 28.44 69.916Q26.964 69.916 25.956 69.232Q24.948 68.548 24.372 67.468Q23.796 66.388 23.634 65.02Q23.472 63.652 23.688 62.284Q23.832 61.276 24.174 60.322Q24.516 59.368 25.056 58.63Q25.596 57.892 26.298 57.424Q27 56.956 27.9 56.956Q28.404 56.956 29.16 57.154Q29.916 57.352 30.564 57.712Q31.032 57.28 31.716 57.568ZM61.956 61.672Q60.552 62.5 58.932 62.95Q57.312 63.4 55.44 63.4Q55.512 64.66 56.16 65.398Q56.808 66.136 57.78 66.28Q58.356 66.352 58.95 66.244Q59.544 66.136 60.066 65.902Q60.588 65.668 61.02 65.38Q61.452 65.092 61.776 64.804Q62.1 64.516 62.46 64.426Q62.82 64.336 63 64.408Q63.504 64.588 63.36 65.488Q62.784 66.64 61.704 67.45Q60.624 68.26 59.292 68.476Q58.14 68.692 56.916 68.368Q55.692 68.044 54.72 67.108Q53.892 66.28 53.46 65.164Q53.028 64.048 52.92 62.86Q52.812 61.744 53.118 60.736Q53.424 59.728 54.072 58.954Q54.72 58.18 55.692 57.676Q56.664 57.172 57.96 57.1Q59.508 56.992 60.768 57.676Q62.028 58.36 62.532 59.584Q62.82 60.268 62.694 60.772Q62.568 61.276 61.956 61.672ZM77.274 62.716Q77.148 60.736 77.04 58.792Q77.04 58.396 76.59 58.018Q76.14 57.64 75.564 57.712Q75.348 57.748 75.15 57.946Q74.952 58.144 74.808 58.414Q74.664 58.684 74.592 58.972Q74.52 59.26 74.52 59.476Q74.52 60.484 74.034 61.546Q73.548 62.608 72.864 63.472Q72.18 64.336 71.442 64.876Q70.704 65.416 70.164 65.416Q69.696 65.416 69.282 64.804Q68.868 64.192 68.508 63.382Q68.148 62.572 67.896 61.744Q67.644 60.916 67.5 60.52Q67.32 60.124 66.852 59.944Q66.384 59.764 65.844 59.872Q65.448 59.944 65.376 60.268Q65.304 60.592 65.376 60.952Q65.412 61.24 65.61 61.96Q65.808 62.68 66.132 63.58Q66.456 64.48 66.906 65.434Q67.356 66.388 67.932 67.144Q68.436 67.756 68.94 67.972Q69.444 68.188 69.948 68.188Q70.56 68.188 71.244 67.882Q71.928 67.576 72.576 67.126Q73.224 66.676 73.8 66.1Q74.376 65.524 74.808 64.984Q75.024 67.144 74.826 68.962Q74.628 70.78 73.98 72.328Q73.332 73.876 72.252 75.208Q71.172 76.54 69.588 77.728Q69.084 78.16 68.868 78.556Q68.652 78.952 68.76 79.276Q68.832 79.492 69.084 79.618Q69.336 79.744 69.66 79.798Q69.984 79.852 70.326 79.816Q70.668 79.78 70.956 79.6Q72.792 78.448 73.998 77.008Q75.204 75.568 75.924 73.894Q76.644 72.22 76.95 70.384Q77.256 68.548 77.328 66.622Q77.4 64.696 77.274 62.716ZM30.348 60.196Q29.952 59.944 29.43 59.53Q28.908 59.116 28.512 59.116Q28.08 59.116 27.666 59.512Q27.252 59.908 26.946 60.43Q26.64 60.952 26.424 61.492Q26.208 62.032 26.136 62.356Q26.028 62.896 25.992 63.652Q25.956 64.408 26.1 65.146Q26.244 65.884 26.658 66.478Q27.072 67.072 27.9 67.324Q28.404 67.468 29.088 67.306Q29.772 67.144 30.438 66.712Q31.104 66.28 31.698 65.56Q32.292 64.84 32.616 63.904Q32.976 62.86 32.634 61.726Q32.292 60.592 31.248 60.088Q30.996 60.268 30.744 60.268Q30.492 60.268 30.348 60.196ZM57.816 59.224Q57.456 59.296 57.042 59.476Q56.628 59.656 56.286 59.926Q55.944 60.196 55.674 60.538Q55.404 60.88 55.368 61.312Q55.98 61.312 56.718 61.204Q57.456 61.096 58.158 60.934Q58.86 60.772 59.454 60.556Q60.048 60.34 60.444 60.088Q60.156 59.404 59.382 59.242Q58.608 59.08 57.816 59.224Z" />
    </g>
  </g>
</svg>