<?xml version="1.0" encoding="utf-8"?>
<svg width="618px" height="560px" viewBox="0 0 618 560" version="1.1" xmlns:xlink="http://www.w3.org/1999/xlink" xmlns="http://www.w3.org/2000/svg">
  <desc>Created with Lunacy</desc>
  <path d="M0 248C0 111.033 127.375 0 284.5 0C441.625 0 569 111.033 569 248C569 384.967 441.625 496 284.5 496C127.375 496 0 384.967 0 248Z" transform="translate(1.5 62)" id="Ellipse-2" fill="none" stroke="#2C2C2C" stroke-width="3" stroke-dasharray="6 8" />
  <g id="problems" transform="translate(248.5 79)">
    <path d="M44.91 3.248Q44.892 2.42 44.856 1.844Q44.748 1.268 44.352 0.943998Q43.956 0.620001 43.452 0.547998Q43.236 0.548 42.93 0.656Q42.624 0.764 42.624 1.484Q42.552 5.66 43.02 9.71Q43.488 13.76 44.352 17.72Q44.136 17.9 43.83 18.098Q43.524 18.296 43.308 18.548Q43.092 18.8 43.02 19.106Q42.948 19.412 43.128 19.844Q43.344 20.132 44.028 20.276Q44.712 20.42 45.432 20.132Q45.936 19.808 47.07 19.052Q48.204 18.296 49.374 17.18Q50.544 16.064 51.426 14.624Q52.308 13.184 52.308 11.492Q52.308 10.7 52.056 9.854Q51.804 9.008 51.264 8.306Q50.724 7.604 49.896 7.208Q49.068 6.812 47.952 6.956Q47.232 7.064 46.53 7.532Q45.828 8 45.288 8.9Q45.144 8 45.072 7.01Q45 6.02 44.964 5.048Q44.928 4.076 44.91 3.248ZM57.852 3.284Q58.032 7.208 58.464 11.402Q58.896 15.596 59.4 19.412Q59.4779 20.5541 58.9943 20.8914Q58.8072 21.022 58.536 21.032Q58.32 21.032 58.104 20.87Q57.888 20.708 57.708 20.456Q57.528 20.204 57.366 19.916Q57.204 19.628 57.168 19.412Q56.88 17.576 56.628 15.524Q56.376 13.472 56.178 11.402Q55.98 9.332 55.836 7.352Q55.692 5.372 55.656 3.716Q55.728 2.852 55.908 2.258Q56.088 1.664 56.664 1.7Q57.276 1.736 57.546 2.186Q57.816 2.636 57.852 3.284ZM7.236 24.794Q7.56 24.452 7.596 24.056Q7.632 22.616 7.56 20.708Q7.488 18.8 7.308 16.856Q8.496 16.136 9.666 15.218Q10.836 14.3 11.646 13.166Q12.456 12.032 12.726 10.646Q12.996 9.26 12.384 7.604Q11.88 6.596 11.07 6.074Q10.26 5.552 9.252 5.39Q8.244 5.228 7.146 5.354Q6.048 5.48 4.986 5.786Q3.924 6.092 2.97 6.506Q2.016 6.92 1.332 7.316Q0.54 7.82 0.162 8.396Q-0.216 8.972 0.108 9.692Q0.252 9.98 0.738 10.034Q1.224 10.088 1.728 9.8Q2.484 9.404 3.294 9.008Q4.104 8.612 4.95 8.324Q5.796 8.036 6.678 7.856Q7.56 7.676 8.46 7.712Q9.468 7.748 9.936 8.234Q10.404 8.72 10.476 9.332Q10.584 10.052 10.332 10.718Q10.08 11.384 9.594 11.996Q9.108 12.608 8.442 13.148Q7.776 13.688 7.02 14.156Q6.912 13.112 6.786 12.23Q6.66 11.348 6.552 10.664Q6.336 9.944 5.742 9.476Q5.148 9.008 4.68 9.188Q4.392 9.332 4.284 9.494Q4.176 9.656 4.104 9.836Q4.032 10.016 4.068 10.232Q4.248 11.456 4.41 12.752Q4.572 14.048 4.752 15.38Q4.032 15.812 3.708 16.28Q3.384 16.748 3.636 17.36Q3.78 17.72 4.158 17.882Q4.536 18.044 5.004 17.972Q5.112 19.556 5.184 21.05Q5.256 22.544 5.256 23.912Q5.256 24.2 5.58 24.632Q5.904 25.064 6.516 25.1Q6.912 25.136 7.236 24.794ZM103.932 8.612Q104.004 8.972 104.076 9.368Q104.112 9.692 104.418 9.89Q104.724 10.088 105.228 10.016Q105.624 9.944 105.786 9.62Q105.948 9.296 105.948 8.792Q105.768 7.28 104.76 6.506Q103.752 5.732 102.204 5.66Q101.304 5.66 100.404 6.056Q99.504 6.452 98.802 7.118Q98.1 7.784 97.668 8.648Q97.236 9.512 97.272 10.448Q97.416 11.492 97.956 12.194Q98.496 12.896 99.252 13.4Q100.008 13.904 101.07 14.516Q102.132 15.128 103.05 15.776Q103.968 16.424 104.526 17.018Q105.084 17.612 104.832 18.044Q104.544 18.548 103.824 18.872Q103.104 19.196 102.204 19.394Q101.304 19.592 100.314 19.682Q99.324 19.772 98.46 19.772Q97.848 19.772 97.272 20.024Q96.696 20.276 96.696 20.924Q96.696 21.104 96.894 21.338Q97.092 21.572 97.362 21.788Q97.632 22.004 97.938 22.166Q98.244 22.328 98.46 22.328Q99.36 22.328 100.656 22.202Q101.952 22.076 103.248 21.734Q104.544 21.392 105.624 20.78Q106.704 20.168 107.1 19.196Q107.604 17.936 107.262 16.946Q106.92 15.956 105.984 15.128Q105.048 14.3 103.68 13.508Q102.312 12.716 101.052 11.96Q100.296 11.456 99.9 10.952Q99.504 10.448 99.612 9.908Q99.648 9.62 100.044 9.242Q100.44 8.864 101.016 8.558Q101.592 8.252 102.276 8.108Q102.96 7.964 103.572 8.144Q103.86 8.252 103.932 8.612ZM24.642 8.468Q25.344 8.072 25.992 7.712Q26.46 7.388 26.55 6.992Q26.64 6.596 26.496 6.416Q26.352 6.236 25.992 6.164Q25.632 6.092 25.092 6.164Q23.832 6.38 22.626 7.028Q21.42 7.676 20.466 8.612Q19.512 9.548 18.864 10.7Q18.216 11.852 18.072 13.076Q17.856 12.032 17.64 10.574Q17.424 9.116 17.28 7.784Q17.208 7.388 16.812 7.208Q16.416 7.028 15.984 6.992Q15.588 6.956 15.282 7.1Q14.976 7.244 14.976 7.748Q15.264 10.232 15.66 12.734Q16.056 15.236 16.668 17.792Q16.812 18.44 17.226 19.142Q17.64 19.844 18.324 19.844Q18.864 19.844 19.17 19.178Q19.476 18.512 19.476 17.864Q19.548 16.496 19.8 15.074Q20.052 13.652 20.772 12.284Q21.276 11.312 21.906 10.61Q22.536 9.908 23.238 9.386Q23.94 8.864 24.642 8.468ZM36.432 7.568Q37.512 7.964 38.25 8.756Q38.988 9.548 39.384 10.538Q39.78 11.528 39.834 12.572Q39.888 13.616 39.6 14.516Q39.204 15.524 38.592 16.496Q37.98 17.468 37.188 18.224Q36.396 18.98 35.388 19.448Q34.38 19.916 33.156 19.916Q31.68 19.916 30.672 19.232Q29.664 18.548 29.088 17.468Q28.512 16.388 28.35 15.02Q28.188 13.652 28.404 12.284Q28.548 11.276 28.89 10.322Q29.232 9.368 29.772 8.63Q30.312 7.892 31.014 7.424Q31.716 6.956 32.616 6.956Q33.12 6.956 33.876 7.154Q34.632 7.352 35.28 7.712Q35.748 7.28 36.432 7.568ZM68.04 12.95Q69.66 12.5 71.064 11.672Q71.676 11.276 71.802 10.772Q71.928 10.268 71.64 9.584Q71.136 8.36 69.876 7.676Q68.616 6.992 67.068 7.1Q65.772 7.172 64.8 7.676Q63.828 8.18 63.18 8.954Q62.532 9.728 62.226 10.736Q61.92 11.744 62.028 12.86Q62.136 14.048 62.568 15.164Q63 16.28 63.828 17.108Q64.8 18.044 66.024 18.368Q67.248 18.692 68.4 18.476Q69.732 18.26 70.812 17.45Q71.892 16.64 72.468 15.488Q72.612 14.588 72.108 14.408Q71.928 14.336 71.568 14.426Q71.208 14.516 70.884 14.804Q70.56 15.092 70.128 15.38Q69.696 15.668 69.174 15.902Q68.652 16.136 68.058 16.244Q67.464 16.352 66.888 16.28Q65.916 16.136 65.268 15.398Q64.62 14.66 64.548 13.4Q66.42 13.4 68.04 12.95ZM77.148 8.504Q77.184 9.08 77.274 9.926Q77.364 10.772 77.472 11.69Q77.58 12.608 77.706 13.508Q77.832 14.408 77.94 15.164L78.912 13.22Q79.488 12.068 80.118 11.006Q80.748 9.944 81.414 9.206Q82.08 8.468 82.62 8.468Q83.196 8.468 83.682 9.026Q84.168 9.584 84.528 10.376Q84.888 11.168 85.158 12.068Q85.428 12.968 85.608 13.652Q85.752 13.184 85.986 12.59Q86.22 11.996 86.49 11.366Q86.76 10.736 87.102 10.124Q87.444 9.512 87.84 9.044Q88.308 8.54 88.848 8.306Q89.388 8.072 89.64 8.072Q89.964 8.072 90.414 8.27Q90.864 8.468 91.332 8.792Q91.8 9.116 92.214 9.566Q92.628 10.016 92.88 10.484Q93.384 11.456 93.69 12.608Q93.996 13.76 94.14 14.804Q94.284 15.848 94.338 16.658Q94.392 17.468 94.428 17.792Q94.428 18.26 94.32 18.494Q94.212 18.728 93.924 18.872Q93.528 19.052 93.24 18.998Q92.952 18.944 92.772 18.764Q92.592 18.584 92.484 18.35Q92.376 18.116 92.34 17.936Q92.232 17.108 92.106 16.244Q91.98 15.38 91.836 14.57Q91.692 13.76 91.494 13.058Q91.296 12.356 91.08 11.816Q91.008 11.672 90.846 11.438Q90.684 11.204 90.486 10.988Q90.288 10.772 90.108 10.628Q89.928 10.484 89.856 10.448Q89.496 10.448 89.1 11.114Q88.704 11.78 88.344 12.716Q87.984 13.652 87.678 14.678Q87.372 15.704 87.228 16.424Q87.228 17.36 86.868 17.81Q86.508 18.26 86.112 18.26Q85.716 18.26 85.266 17.954Q84.816 17.648 84.672 17.252Q84.456 16.676 84.204 15.956Q83.952 15.236 83.682 14.48Q83.412 13.724 83.142 13.004Q82.872 12.284 82.62 11.708Q82.116 12.392 81.63 13.22Q81.144 14.048 80.694 14.912Q80.244 15.776 79.83 16.622Q79.416 17.468 79.056 18.116Q78.804 18.512 78.516 18.818Q78.228 19.124 77.832 19.124Q77.544 19.124 77.22 18.854Q76.896 18.584 76.608 18.188Q76.32 17.792 76.086 17.288Q75.852 16.784 75.744 16.28Q75.456 14.732 75.258 12.878Q75.06 11.024 74.88 9.26Q74.844 8.648 75.042 8.126Q75.24 7.604 75.816 7.424Q76.428 7.316 76.752 7.604Q77.076 7.892 77.148 8.504ZM35.064 10.196Q34.668 9.944 34.146 9.53Q33.624 9.116 33.228 9.116Q32.796 9.116 32.382 9.512Q31.968 9.908 31.662 10.43Q31.356 10.952 31.14 11.492Q30.924 12.032 30.852 12.356Q30.744 12.896 30.708 13.652Q30.672 14.408 30.816 15.146Q30.96 15.884 31.374 16.478Q31.788 17.072 32.616 17.324Q33.12 17.468 33.804 17.306Q34.488 17.144 35.154 16.712Q35.82 16.28 36.414 15.56Q37.008 14.84 37.332 13.904Q37.692 12.86 37.35 11.726Q37.008 10.592 35.964 10.088Q35.712 10.268 35.46 10.268Q35.208 10.268 35.064 10.196ZM66.15 9.476Q66.564 9.296 66.924 9.224Q67.716 9.08 68.49 9.242Q69.264 9.404 69.552 10.088Q69.156 10.34 68.562 10.556Q67.968 10.772 67.266 10.934Q66.564 11.096 65.826 11.204Q65.088 11.312 64.476 11.312Q64.512 10.88 64.782 10.538Q65.052 10.196 65.394 9.926Q65.736 9.656 66.15 9.476ZM49.5 9.674Q50.112 10.16 50.112 11.384Q50.112 12.212 49.752 12.95Q49.392 13.688 48.834 14.336Q48.276 14.984 47.628 15.506Q46.98 16.028 46.404 16.424Q46.224 15.596 46.098 14.552Q45.972 13.508 45.9 12.608Q45.864 12.068 46.026 11.492Q46.188 10.916 46.512 10.448Q46.836 9.98 47.268 9.656Q47.7 9.332 48.24 9.26Q48.888 9.188 49.5 9.674Z" />
  </g>
  <g id="niche-problem" transform="translate(18.5 7)">
    <g id="niche">
      <path d="M41.004 4.184Q41.004 5.048 40.986 6.128Q40.968 7.208 40.986 8.36Q41.004 9.512 41.022 10.736Q41.04 11.96 41.076 13.076Q41.436 12.356 41.94 11.654Q42.444 10.952 43.074 10.412Q43.704 9.872 44.406 9.548Q45.108 9.224 45.936 9.224Q46.836 9.224 47.538 9.8Q48.24 10.376 48.762 11.33Q49.284 12.284 49.644 13.454Q50.004 14.624 50.238 15.83Q50.472 17.036 50.58 18.134Q50.688 19.232 50.76 20.024Q50.76 20.6 50.472 20.96Q50.184 21.32 49.788 21.32Q49.5 21.32 49.086 20.942Q48.672 20.564 48.492 20.024Q48.384 19.592 48.276 18.764Q48.168 17.936 48.024 16.982Q47.88 16.028 47.664 15.056Q47.448 14.084 47.142 13.31Q46.836 12.536 46.404 12.104Q45.972 11.672 45.396 11.78Q44.496 11.96 43.83 13.04Q43.164 14.12 42.678 15.488Q42.192 16.856 41.886 18.26Q41.58 19.664 41.436 20.528Q41.292 21.176 41.058 21.41Q40.824 21.644 40.536 21.644Q40.248 21.644 40.014 21.356Q39.78 21.068 39.582 20.654Q39.384 20.24 39.24 19.79Q39.096 19.34 39.06 19.016Q38.88 17.072 38.772 15.29Q38.664 13.508 38.61 11.708Q38.556 9.908 38.556 8.018Q38.556 6.128 38.628 3.968Q38.628 2.82243 39.1529 2.47884Q39.4528 2.28256 39.924 2.348Q40.356 2.42 40.68 2.978Q41.004 3.536 41.004 4.184ZM22.788 5.444Q22.716 5.804 22.284 5.84Q21.852 5.876 21.564 5.876Q20.664 5.912 19.71 6.056Q18.756 6.2 17.712 6.488Q17.28 6.632 16.776 6.38Q16.272 6.128 16.164 5.372Q16.164 5.084 16.38 4.904Q16.596 4.724 16.884 4.58Q17.352 4.364 18 4.202Q18.648 4.04 19.314 3.968Q19.98 3.896 20.592 3.914Q21.204 3.932 21.6 4.04Q22.176 4.22 22.518 4.58Q22.86 4.94 22.788 5.444ZM3.78 8.252Q3.888 8.792 4.014 9.458Q4.14 10.124 4.284 10.826Q4.428 11.528 4.536 12.248Q4.644 12.968 4.716 13.616Q5.148 12.68 5.652 11.636Q6.156 10.592 6.75 9.71Q7.344 8.828 8.01 8.252Q8.676 7.676 9.468 7.676Q10.656 7.676 11.466 8.54Q12.276 9.404 12.834 10.682Q13.392 11.96 13.716 13.364Q14.04 14.768 14.256 15.848Q14.472 16.82 13.392 17.288Q12.888 17.54 12.636 17.36Q12.384 17.18 12.348 17Q12.168 16.568 11.898 15.488Q11.628 14.408 11.286 13.292Q10.944 12.176 10.512 11.348Q10.08 10.52 9.54 10.592Q8.892 10.628 8.388 11.564Q7.956 12.32 7.506 13.238Q7.056 14.156 6.624 15.11Q6.192 16.064 5.778 17.018Q5.364 17.972 5.004 18.764Q4.752 19.016 4.374 19.106Q3.996 19.196 3.6 19.052Q3.24 18.944 3.024 18.692Q2.808 18.44 2.808 18.188Q2.484 15.38 2.142 13.076Q1.8 10.772 1.26 8.36Q1.008 7.532 1.17 7.046Q1.332 6.56 2.232 6.668Q3.492 6.884 3.78 8.252ZM59.04 12.95Q60.66 12.5 62.064 11.672Q62.676 11.276 62.802 10.772Q62.928 10.268 62.64 9.584Q62.136 8.36 60.876 7.676Q59.616 6.992 58.068 7.1Q56.772 7.172 55.8 7.676Q54.828 8.18 54.18 8.954Q53.532 9.728 53.226 10.736Q52.92 11.744 53.028 12.86Q53.136 14.048 53.568 15.164Q54 16.28 54.828 17.108Q55.8 18.044 57.024 18.368Q58.248 18.692 59.4 18.476Q60.732 18.26 61.812 17.45Q62.892 16.64 63.468 15.488Q63.612 14.588 63.108 14.408Q62.928 14.336 62.568 14.426Q62.208 14.516 61.884 14.804Q61.56 15.092 61.128 15.38Q60.696 15.668 60.174 15.902Q59.652 16.136 59.058 16.244Q58.464 16.352 57.888 16.28Q56.916 16.136 56.268 15.398Q55.62 14.66 55.548 13.4Q57.42 13.4 59.04 12.95ZM33.12 10.97Q33.48 11.024 33.732 10.88Q34.056 10.7 34.128 10.394Q34.2 10.088 34.128 9.8Q33.732 8.504 32.508 8.018Q31.284 7.532 29.952 7.748Q29.124 7.892 28.44 8.306Q27.756 8.72 27.198 9.296Q26.64 9.872 26.244 10.574Q25.848 11.276 25.632 11.96Q25.092 13.796 25.38 15.524Q25.668 17.252 27.036 18.188Q27.9 18.728 28.89 18.872Q29.88 19.016 30.888 18.854Q31.896 18.692 32.886 18.314Q33.876 17.936 34.776 17.432Q35.676 16.964 36.216 16.37Q36.756 15.776 36.396 15.2Q36.108 14.732 35.676 14.768Q35.244 14.804 34.74 15.02Q33.588 15.74 32.274 16.19Q30.96 16.64 29.916 16.604Q28.62 16.604 28.008 15.74Q27.396 14.876 27.576 13.616Q27.684 12.932 27.972 12.248Q28.26 11.564 28.71 11.006Q29.16 10.448 29.754 10.106Q30.348 9.764 31.104 9.764Q31.932 9.764 32.508 10.52Q32.76 10.916 33.12 10.97ZM57.15 9.476Q57.564 9.296 57.924 9.224Q58.716 9.08 59.49 9.242Q60.264 9.404 60.552 10.088Q60.156 10.34 59.562 10.556Q58.968 10.772 58.266 10.934Q57.564 11.096 56.826 11.204Q56.088 11.312 55.476 11.312Q55.512 10.88 55.782 10.538Q56.052 10.196 56.394 9.926Q56.736 9.656 57.15 9.476ZM21.96 17.432Q22.212 18.008 22.23 18.674Q22.248 19.34 21.852 19.592Q21.348 19.916 20.772 19.556Q20.196 19.196 19.908 18.584Q19.512 17.828 19.296 16.73Q19.08 15.632 18.972 14.552Q18.864 13.472 18.846 12.536Q18.828 11.6 18.828 11.132Q18.864 10.628 19.116 10.196Q19.368 9.764 19.764 9.692Q20.412 9.728 20.808 10.286Q21.204 10.844 21.168 11.672Q21.168 12.32 21.204 13.112Q21.24 13.904 21.348 14.696Q21.456 15.488 21.6 16.226Q21.744 16.964 21.96 17.432Z" />
    </g>
    <g id="problem">
      <path d="M44.856 26.844Q44.892 27.42 44.91 28.248Q44.928 29.076 44.964 30.048Q45 31.02 45.072 32.01Q45.144 33 45.288 33.9Q45.828 33 46.53 32.532Q47.232 32.064 47.952 31.956Q49.068 31.812 49.896 32.208Q50.724 32.604 51.264 33.306Q51.804 34.008 52.056 34.854Q52.308 35.7 52.308 36.492Q52.308 38.184 51.426 39.624Q50.544 41.064 49.374 42.18Q48.204 43.296 47.07 44.052Q45.936 44.808 45.432 45.132Q44.712 45.42 44.028 45.276Q43.344 45.132 43.128 44.844Q42.948 44.412 43.02 44.106Q43.092 43.8 43.308 43.548Q43.524 43.296 43.83 43.098Q44.136 42.9 44.352 42.72Q43.488 38.76 43.02 34.71Q42.552 30.66 42.624 26.484Q42.624 25.764 42.93 25.656Q43.236 25.548 43.452 25.548Q43.956 25.62 44.352 25.944Q44.748 26.268 44.856 26.844ZM58.464 36.402Q58.032 32.208 57.852 28.284Q57.816 27.636 57.546 27.186Q57.276 26.736 56.664 26.7Q56.088 26.664 55.908 27.258Q55.728 27.852 55.656 28.716Q55.692 30.372 55.836 32.352Q55.98 34.332 56.178 36.402Q56.376 38.472 56.628 40.524Q56.88 42.576 57.168 44.412Q57.204 44.628 57.366 44.916Q57.528 45.204 57.708 45.456Q57.888 45.708 58.104 45.87Q58.32 46.032 58.536 46.032Q58.8072 46.022 58.9943 45.8914Q59.4779 45.5541 59.4 44.412Q58.896 40.596 58.464 36.402ZM7.596 49.056Q7.56 49.452 7.236 49.794Q6.912 50.136 6.516 50.1Q5.904 50.064 5.58 49.632Q5.256 49.2 5.256 48.912Q5.256 47.544 5.184 46.05Q5.112 44.556 5.004 42.972Q4.536 43.044 4.158 42.882Q3.78 42.72 3.636 42.36Q3.384 41.748 3.708 41.28Q4.032 40.812 4.752 40.38Q4.572 39.048 4.41 37.752Q4.248 36.456 4.068 35.232Q4.032 35.016 4.104 34.836Q4.176 34.656 4.284 34.494Q4.392 34.332 4.68 34.188Q5.148 34.008 5.742 34.476Q6.336 34.944 6.552 35.664Q6.66 36.348 6.786 37.23Q6.912 38.112 7.02 39.156Q7.776 38.688 8.442 38.148Q9.108 37.608 9.594 36.996Q10.08 36.384 10.332 35.718Q10.584 35.052 10.476 34.332Q10.404 33.72 9.936 33.234Q9.468 32.748 8.46 32.712Q7.56 32.676 6.678 32.856Q5.796 33.036 4.95 33.324Q4.104 33.612 3.294 34.008Q2.484 34.404 1.728 34.8Q1.224 35.088 0.738 35.034Q0.252 34.98 0.108 34.692Q-0.216 33.972 0.162 33.396Q0.54 32.82 1.332 32.316Q2.016 31.92 2.97 31.506Q3.924 31.092 4.986 30.786Q6.048 30.48 7.146 30.354Q8.244 30.228 9.252 30.39Q10.26 30.552 11.07 31.074Q11.88 31.596 12.384 32.604Q12.996 34.26 12.726 35.646Q12.456 37.032 11.646 38.166Q10.836 39.3 9.666 40.218Q8.496 41.136 7.308 41.856Q7.488 43.8 7.56 45.708Q7.632 47.616 7.596 49.056ZM25.992 32.712Q25.344 33.072 24.642 33.468Q23.94 33.864 23.238 34.386Q22.536 34.908 21.906 35.61Q21.276 36.312 20.772 37.284Q20.052 38.652 19.8 40.074Q19.548 41.496 19.476 42.864Q19.476 43.512 19.17 44.178Q18.864 44.844 18.324 44.844Q17.64 44.844 17.226 44.142Q16.812 43.44 16.668 42.792Q16.056 40.236 15.66 37.734Q15.264 35.232 14.976 32.748Q14.976 32.244 15.282 32.1Q15.588 31.956 15.984 31.992Q16.416 32.028 16.812 32.208Q17.208 32.388 17.28 32.784Q17.424 34.116 17.64 35.574Q17.856 37.032 18.072 38.076Q18.216 36.852 18.864 35.7Q19.512 34.548 20.466 33.612Q21.42 32.676 22.626 32.028Q23.832 31.38 25.092 31.164Q25.632 31.092 25.992 31.164Q26.352 31.236 26.496 31.416Q26.64 31.596 26.55 31.992Q26.46 32.388 25.992 32.712ZM38.25 33.756Q37.512 32.964 36.432 32.568Q35.748 32.28 35.28 32.712Q34.632 32.352 33.876 32.154Q33.12 31.956 32.616 31.956Q31.716 31.956 31.014 32.424Q30.312 32.892 29.772 33.63Q29.232 34.368 28.89 35.322Q28.548 36.276 28.404 37.284Q28.188 38.652 28.35 40.02Q28.512 41.388 29.088 42.468Q29.664 43.548 30.672 44.232Q31.68 44.916 33.156 44.916Q34.38 44.916 35.388 44.448Q36.396 43.98 37.188 43.224Q37.98 42.468 38.592 41.496Q39.204 40.524 39.6 39.516Q39.888 38.616 39.834 37.572Q39.78 36.528 39.384 35.538Q38.988 34.548 38.25 33.756ZM71.064 36.672Q69.66 37.5 68.04 37.95Q66.42 38.4 64.548 38.4Q64.62 39.66 65.268 40.398Q65.916 41.136 66.888 41.28Q67.464 41.352 68.058 41.244Q68.652 41.136 69.174 40.902Q69.696 40.668 70.128 40.38Q70.56 40.092 70.884 39.804Q71.208 39.516 71.568 39.426Q71.928 39.336 72.108 39.408Q72.612 39.588 72.468 40.488Q71.892 41.64 70.812 42.45Q69.732 43.26 68.4 43.476Q67.248 43.692 66.024 43.368Q64.8 43.044 63.828 42.108Q63 41.28 62.568 40.164Q62.136 39.048 62.028 37.86Q61.92 36.744 62.226 35.736Q62.532 34.728 63.18 33.954Q63.828 33.18 64.8 32.676Q65.772 32.172 67.068 32.1Q68.616 31.992 69.876 32.676Q71.136 33.36 71.64 34.584Q71.928 35.268 71.802 35.772Q71.676 36.276 71.064 36.672ZM77.274 34.926Q77.184 34.08 77.148 33.504Q77.076 32.892 76.752 32.604Q76.428 32.316 75.816 32.424Q75.24 32.604 75.042 33.126Q74.844 33.648 74.88 34.26Q75.06 36.024 75.258 37.878Q75.456 39.732 75.744 41.28Q75.852 41.784 76.086 42.288Q76.32 42.792 76.608 43.188Q76.896 43.584 77.22 43.854Q77.544 44.124 77.832 44.124Q78.228 44.124 78.516 43.818Q78.804 43.512 79.056 43.116Q79.416 42.468 79.83 41.622Q80.244 40.776 80.694 39.912Q81.144 39.048 81.63 38.22Q82.116 37.392 82.62 36.708Q82.872 37.284 83.142 38.004Q83.412 38.724 83.682 39.48Q83.952 40.236 84.204 40.956Q84.456 41.676 84.672 42.252Q84.816 42.648 85.266 42.954Q85.716 43.26 86.112 43.26Q86.508 43.26 86.868 42.81Q87.228 42.36 87.228 41.424Q87.372 40.704 87.678 39.678Q87.984 38.652 88.344 37.716Q88.704 36.78 89.1 36.114Q89.496 35.448 89.856 35.448Q89.928 35.484 90.108 35.628Q90.288 35.772 90.486 35.988Q90.684 36.204 90.846 36.438Q91.008 36.672 91.08 36.816Q91.296 37.356 91.494 38.058Q91.692 38.76 91.836 39.57Q91.98 40.38 92.106 41.244Q92.232 42.108 92.34 42.936Q92.376 43.116 92.484 43.35Q92.592 43.584 92.772 43.764Q92.952 43.944 93.24 43.998Q93.528 44.052 93.924 43.872Q94.212 43.728 94.32 43.494Q94.428 43.26 94.428 42.792Q94.392 42.468 94.338 41.658Q94.284 40.848 94.14 39.804Q93.996 38.76 93.69 37.608Q93.384 36.456 92.88 35.484Q92.628 35.016 92.214 34.566Q91.8 34.116 91.332 33.792Q90.864 33.468 90.414 33.27Q89.964 33.072 89.64 33.072Q89.388 33.072 88.848 33.306Q88.308 33.54 87.84 34.044Q87.444 34.512 87.102 35.124Q86.76 35.736 86.49 36.366Q86.22 36.996 85.986 37.59Q85.752 38.184 85.608 38.652Q85.428 37.968 85.158 37.068Q84.888 36.168 84.528 35.376Q84.168 34.584 83.682 34.026Q83.196 33.468 82.62 33.468Q82.08 33.468 81.414 34.206Q80.748 34.944 80.118 36.006Q79.488 37.068 78.912 38.22L77.94 40.164Q77.832 39.408 77.706 38.508Q77.58 37.608 77.472 36.69Q77.364 35.772 77.274 34.926ZM34.146 34.53Q34.668 34.944 35.064 35.196Q35.208 35.268 35.46 35.268Q35.712 35.268 35.964 35.088Q37.008 35.592 37.35 36.726Q37.692 37.86 37.332 38.904Q37.008 39.84 36.414 40.56Q35.82 41.28 35.154 41.712Q34.488 42.144 33.804 42.306Q33.12 42.468 32.616 42.324Q31.788 42.072 31.374 41.478Q30.96 40.884 30.816 40.146Q30.672 39.408 30.708 38.652Q30.744 37.896 30.852 37.356Q30.924 37.032 31.14 36.492Q31.356 35.952 31.662 35.43Q31.968 34.908 32.382 34.512Q32.796 34.116 33.228 34.116Q33.624 34.116 34.146 34.53ZM66.924 34.224Q66.564 34.296 66.15 34.476Q65.736 34.656 65.394 34.926Q65.052 35.196 64.782 35.538Q64.512 35.88 64.476 36.312Q65.088 36.312 65.826 36.204Q66.564 36.096 67.266 35.934Q67.968 35.772 68.562 35.556Q69.156 35.34 69.552 35.088Q69.264 34.404 68.49 34.242Q67.716 34.08 66.924 34.224ZM50.112 36.384Q50.112 35.16 49.5 34.674Q48.888 34.188 48.24 34.26Q47.7 34.332 47.268 34.656Q46.836 34.98 46.512 35.448Q46.188 35.916 46.026 36.492Q45.864 37.068 45.9 37.608Q45.972 38.508 46.098 39.552Q46.224 40.596 46.404 41.424Q46.98 41.028 47.628 40.506Q48.276 39.984 48.834 39.336Q49.392 38.688 49.752 37.95Q50.112 37.212 50.112 36.384Z" />
    </g>
  </g>
  <g id="perfect-humble-business-idea" transform="translate(423.5 0)">
    <g id="perfect">
      <path d="M42.048 13.58Q41.544 13.652 40.878 13.472Q40.212 13.292 39.96 12.572Q39.852 12.212 39.924 11.87Q39.996 11.528 40.68 11.384Q41.328 11.24 42.066 11.114Q42.804 10.988 43.56 10.88L42.228 6.848Q41.616 4.544 42.084 2.888Q42.552 1.232 44.748 0.511999Q45.648 0.224001 46.53 0.295998Q47.412 0.368004 48.204 0.763998Q48.996 1.16 49.644 1.808Q50.292 2.456 50.688 3.32Q50.832 3.716 50.85 4.022Q50.868 4.328 50.616 4.58Q50.256 4.94 49.824 4.886Q49.392 4.832 49.248 4.652Q48.924 4.256 48.546 3.842Q48.168 3.428 47.754 3.122Q47.34 2.816 46.872 2.654Q46.404 2.492 45.864 2.564Q45.612 2.6 45.27 2.816Q44.928 3.032 44.676 3.482Q44.424 3.932 44.37 4.652Q44.316 5.372 44.604 6.452Q44.856 7.352 45.18 8.396Q45.504 9.44 45.9 10.592Q47.628 10.412 49.068 10.484Q49.86 10.556 50.544 10.772Q51.228 10.988 51.66 11.42Q51.768 11.78 51.624 12.014Q51.48 12.248 51.21 12.41Q50.94 12.572 50.598 12.644Q50.256 12.716 49.932 12.752Q49.212 12.824 48.42 12.914Q47.628 13.004 46.764 13.076Q47.34 14.696 47.826 16.154Q48.312 17.612 48.6 18.584Q48.744 19.124 48.636 19.736Q48.528 20.348 48.348 20.924Q48.06 21.752 47.628 22.256Q47.196 22.76 46.692 22.58Q46.296 22.4 46.188 22.112Q46.08 21.824 46.152 21.32Q46.224 20.744 46.224 20.168Q46.224 19.592 46.17 19.106Q46.116 18.62 46.026 18.242Q45.936 17.864 45.9 17.72L44.388 13.328Q43.812 13.4 43.236 13.454Q42.66 13.508 42.048 13.58ZM89.352 10.808Q88.668 10.448 87.984 10.484Q87.372 10.52 86.706 10.538Q86.04 10.556 85.32 10.628Q85.428 9.008 85.554 7.46Q85.68 5.912 85.824 4.688Q85.824 4.256 85.266 3.914Q84.708 3.572 84.096 3.608Q83.844 3.608 83.628 3.932Q83.412 4.256 83.376 4.688Q83.268 5.984 83.124 7.568Q82.98 9.152 82.872 10.844Q81.072 11.024 79.596 11.276Q78.984 11.456 78.804 11.816Q78.624 12.176 78.624 12.392Q78.624 13.004 79.182 13.22Q79.74 13.436 80.208 13.436Q80.784 13.364 81.414 13.31Q82.044 13.256 82.728 13.184Q82.656 14.876 82.602 16.388Q82.548 17.9 82.62 19.052Q82.692 20.204 83.304 20.96Q83.916 21.716 85.104 21.608Q85.896 21.536 86.922 21.158Q87.948 20.78 88.956 20.276Q89.964 19.772 90.846 19.214Q91.728 18.656 92.268 18.224Q92.736 17.756 92.916 17.18Q93.096 16.604 93.024 16.208Q92.952 15.956 92.646 15.884Q92.34 15.812 91.98 15.992Q91.188 16.388 90.306 16.838Q89.424 17.288 88.506 17.702Q87.588 18.116 86.67 18.458Q85.752 18.8 84.96 18.944Q84.924 18.908 84.924 18.404Q84.924 17.9 84.96 17.09Q84.996 16.28 85.05 15.236Q85.104 14.192 85.176 13.004Q86.04 12.932 86.868 12.896Q87.696 12.86 88.416 12.86Q88.776 12.86 89.37 12.698Q89.964 12.536 90.036 11.924Q90.036 11.168 89.352 10.808ZM7.596 24.056Q7.56 24.452 7.236 24.794Q6.912 25.136 6.516 25.1Q5.904 25.064 5.58 24.632Q5.256 24.2 5.256 23.912Q5.256 22.544 5.184 21.05Q5.112 19.556 5.004 17.972Q4.536 18.044 4.158 17.882Q3.78 17.72 3.636 17.36Q3.384 16.748 3.708 16.28Q4.032 15.812 4.752 15.38Q4.572 14.048 4.41 12.752Q4.248 11.456 4.068 10.232Q4.032 10.016 4.104 9.836Q4.176 9.656 4.284 9.494Q4.392 9.332 4.68 9.188Q5.148 9.008 5.742 9.476Q6.336 9.944 6.552 10.664Q6.66 11.348 6.786 12.23Q6.912 13.112 7.02 14.156Q7.776 13.688 8.442 13.148Q9.108 12.608 9.594 11.996Q10.08 11.384 10.332 10.718Q10.584 10.052 10.476 9.332Q10.404 8.72 9.936 8.234Q9.468 7.748 8.46 7.712Q7.56 7.676 6.678 7.856Q5.796 8.036 4.95 8.324Q4.104 8.612 3.294 9.008Q2.484 9.404 1.728 9.8Q1.224 10.088 0.738 10.034Q0.252 9.98 0.108 9.692Q-0.216 8.972 0.162 8.396Q0.54 7.82 1.332 7.316Q2.016 6.92 2.97 6.506Q3.924 6.092 4.986 5.786Q6.048 5.48 7.146 5.354Q8.244 5.228 9.252 5.39Q10.26 5.552 11.07 6.074Q11.88 6.596 12.384 7.604Q12.996 9.26 12.726 10.646Q12.456 12.032 11.646 13.166Q10.836 14.3 9.666 15.218Q8.496 16.136 7.308 16.856Q7.488 18.8 7.56 20.708Q7.632 22.616 7.596 24.056ZM37.278 8.468Q37.98 8.072 38.628 7.712Q39.096 7.388 39.186 6.992Q39.276 6.596 39.132 6.416Q38.988 6.236 38.628 6.164Q38.268 6.092 37.728 6.164Q36.468 6.38 35.262 7.028Q34.056 7.676 33.102 8.612Q32.148 9.548 31.5 10.7Q30.852 11.852 30.708 13.076Q30.492 12.032 30.276 10.574Q30.06 9.116 29.916 7.784Q29.844 7.388 29.448 7.208Q29.052 7.028 28.62 6.992Q28.224 6.956 27.918 7.1Q27.612 7.244 27.612 7.748Q27.9 10.232 28.296 12.734Q28.692 15.236 29.304 17.792Q29.448 18.44 29.862 19.142Q30.276 19.844 30.96 19.844Q31.5 19.844 31.806 19.178Q32.112 18.512 32.112 17.864Q32.184 16.496 32.436 15.074Q32.688 13.652 33.408 12.284Q33.912 11.312 34.542 10.61Q35.172 9.908 35.874 9.386Q36.576 8.864 37.278 8.468ZM23.94 11.672Q22.536 12.5 20.916 12.95Q19.296 13.4 17.424 13.4Q17.496 14.66 18.144 15.398Q18.792 16.136 19.764 16.28Q20.34 16.352 20.934 16.244Q21.528 16.136 22.05 15.902Q22.572 15.668 23.004 15.38Q23.436 15.092 23.76 14.804Q24.084 14.516 24.444 14.426Q24.804 14.336 24.984 14.408Q25.488 14.588 25.344 15.488Q24.768 16.64 23.688 17.45Q22.608 18.26 21.276 18.476Q20.124 18.692 18.9 18.368Q17.676 18.044 16.704 17.108Q15.876 16.28 15.444 15.164Q15.012 14.048 14.904 12.86Q14.796 11.744 15.102 10.736Q15.408 9.728 16.056 8.954Q16.704 8.18 17.676 7.676Q18.648 7.172 19.944 7.1Q21.492 6.992 22.752 7.676Q24.012 8.36 24.516 9.584Q24.804 10.268 24.678 10.772Q24.552 11.276 23.94 11.672ZM59.832 12.95Q61.452 12.5 62.856 11.672Q63.468 11.276 63.594 10.772Q63.72 10.268 63.432 9.584Q62.928 8.36 61.668 7.676Q60.408 6.992 58.86 7.1Q57.564 7.172 56.592 7.676Q55.62 8.18 54.972 8.954Q54.324 9.728 54.018 10.736Q53.712 11.744 53.82 12.86Q53.928 14.048 54.36 15.164Q54.792 16.28 55.62 17.108Q56.592 18.044 57.816 18.368Q59.04 18.692 60.192 18.476Q61.524 18.26 62.604 17.45Q63.684 16.64 64.26 15.488Q64.404 14.588 63.9 14.408Q63.72 14.336 63.36 14.426Q63 14.516 62.676 14.804Q62.352 15.092 61.92 15.38Q61.488 15.668 60.966 15.902Q60.444 16.136 59.85 16.244Q59.256 16.352 58.68 16.28Q57.708 16.136 57.06 15.398Q56.412 14.66 56.34 13.4Q58.212 13.4 59.832 12.95ZM75.06 10.88Q74.808 11.024 74.448 10.97Q74.088 10.916 73.836 10.52Q73.26 9.764 72.432 9.764Q71.676 9.764 71.082 10.106Q70.488 10.448 70.038 11.006Q69.588 11.564 69.3 12.248Q69.012 12.932 68.904 13.616Q68.724 14.876 69.336 15.74Q69.948 16.604 71.244 16.604Q72.288 16.64 73.602 16.19Q74.916 15.74 76.068 15.02Q76.572 14.804 77.004 14.768Q77.436 14.732 77.724 15.2Q78.084 15.776 77.544 16.37Q77.004 16.964 76.104 17.432Q75.204 17.936 74.214 18.314Q73.224 18.692 72.216 18.854Q71.208 19.016 70.218 18.872Q69.228 18.728 68.364 18.188Q66.996 17.252 66.708 15.524Q66.42 13.796 66.96 11.96Q67.176 11.276 67.572 10.574Q67.968 9.872 68.526 9.296Q69.084 8.72 69.768 8.306Q70.452 7.892 71.28 7.748Q72.612 7.532 73.836 8.018Q75.06 8.504 75.456 9.8Q75.528 10.088 75.456 10.394Q75.384 10.7 75.06 10.88ZM19.8 9.224Q19.44 9.296 19.026 9.476Q18.612 9.656 18.27 9.926Q17.928 10.196 17.658 10.538Q17.388 10.88 17.352 11.312Q17.964 11.312 18.702 11.204Q19.44 11.096 20.142 10.934Q20.844 10.772 21.438 10.556Q22.032 10.34 22.428 10.088Q22.14 9.404 21.366 9.242Q20.592 9.08 19.8 9.224ZM57.942 9.476Q58.356 9.296 58.716 9.224Q59.508 9.08 60.282 9.242Q61.056 9.404 61.344 10.088Q60.948 10.34 60.354 10.556Q59.76 10.772 59.058 10.934Q58.356 11.096 57.618 11.204Q56.88 11.312 56.268 11.312Q56.304 10.88 56.574 10.538Q56.844 10.196 57.186 9.926Q57.528 9.656 57.942 9.476Z" />
    </g>
    <g id="humble-business">
      <path d="M55.674 28.248Q55.656 27.42 55.62 26.844Q55.512 26.268 55.116 25.944Q54.72 25.62 54.216 25.548Q54 25.548 53.694 25.656Q53.388 25.764 53.388 26.484Q53.316 30.66 53.784 34.71Q54.252 38.76 55.116 42.72Q54.9 42.9 54.594 43.098Q54.288 43.296 54.072 43.548Q53.856 43.8 53.784 44.106Q53.712 44.412 53.892 44.844Q54.108 45.132 54.792 45.276Q55.476 45.42 56.196 45.132Q56.7 44.808 57.834 44.052Q58.968 43.296 60.138 42.18Q61.308 41.064 62.19 39.624Q63.072 38.184 63.072 36.492Q63.072 35.7 62.82 34.854Q62.568 34.008 62.028 33.306Q61.488 32.604 60.66 32.208Q59.832 31.812 58.716 31.956Q57.996 32.064 57.294 32.532Q56.592 33 56.052 33.9Q55.908 33 55.836 32.01Q55.764 31.02 55.728 30.048Q55.692 29.076 55.674 28.248ZM97.992 26.844Q98.028 27.42 98.046 28.248Q98.064 29.076 98.1 30.048Q98.136 31.02 98.208 32.01Q98.28 33 98.424 33.9Q98.964 33 99.666 32.532Q100.368 32.064 101.088 31.956Q102.204 31.812 103.032 32.208Q103.86 32.604 104.4 33.306Q104.94 34.008 105.192 34.854Q105.444 35.7 105.444 36.492Q105.444 38.184 104.562 39.624Q103.68 41.064 102.51 42.18Q101.34 43.296 100.206 44.052Q99.072 44.808 98.568 45.132Q97.848 45.42 97.164 45.276Q96.48 45.132 96.264 44.844Q96.084 44.412 96.156 44.106Q96.228 43.8 96.444 43.548Q96.66 43.296 96.966 43.098Q97.272 42.9 97.488 42.72Q96.624 38.76 96.156 34.71Q95.688 30.66 95.76 26.484Q95.76 25.764 96.066 25.656Q96.372 25.548 96.588 25.548Q97.092 25.62 97.488 25.944Q97.884 26.268 97.992 26.844ZM68.616 28.284Q68.796 32.208 69.228 36.402Q69.66 40.596 70.164 44.412Q70.2419 45.554 69.7583 45.8914Q69.5712 46.022 69.3 46.032Q69.084 46.032 68.868 45.87Q68.652 45.708 68.472 45.456Q68.292 45.204 68.13 44.916Q67.968 44.628 67.932 44.412Q67.644 42.576 67.392 40.524Q67.14 38.472 66.942 36.402Q66.744 34.332 66.6 32.352Q66.456 30.372 66.42 28.716Q66.492 27.852 66.672 27.258Q66.852 26.664 67.428 26.7Q68.04 26.736 68.31 27.186Q68.58 27.636 68.616 28.284ZM3.978 31.128Q3.996 30.048 3.996 29.184Q3.996 28.536 3.672 27.978Q3.348 27.42 2.916 27.348Q2.44481 27.2826 2.14493 27.4788Q1.62 27.8224 1.62 28.968Q1.548 31.128 1.548 33.018Q1.548 34.908 1.602 36.708Q1.656 38.508 1.764 40.29Q1.872 42.072 2.052 44.016Q2.088 44.34 2.232 44.79Q2.376 45.24 2.574 45.654Q2.772 46.068 3.006 46.356Q3.24 46.644 3.528 46.644Q3.816 46.644 4.05 46.41Q4.284 46.176 4.428 45.528Q4.572 44.664 4.878 43.26Q5.184 41.856 5.67 40.488Q6.156 39.12 6.822 38.04Q7.488 36.96 8.388 36.78Q8.964 36.672 9.396 37.104Q9.828 37.536 10.134 38.31Q10.44 39.084 10.656 40.056Q10.872 41.028 11.016 41.982Q11.16 42.936 11.268 43.764Q11.376 44.592 11.484 45.024Q11.664 45.564 12.078 45.942Q12.492 46.32 12.78 46.32Q13.176 46.32 13.464 45.96Q13.752 45.6 13.752 45.024Q13.68 44.232 13.572 43.134Q13.464 42.036 13.23 40.83Q12.996 39.624 12.636 38.454Q12.276 37.284 11.754 36.33Q11.232 35.376 10.53 34.8Q9.828 34.224 8.928 34.224Q8.1 34.224 7.398 34.548Q6.696 34.872 6.066 35.412Q5.436 35.952 4.932 36.654Q4.428 37.356 4.068 38.076Q4.032 36.96 4.014 35.736Q3.996 34.512 3.978 33.36Q3.96 32.208 3.978 31.128ZM140.472 30.84Q140.904 30.804 140.976 30.444Q141.048 29.94 140.706 29.58Q140.364 29.22 139.788 29.04Q139.392 28.932 138.78 28.914Q138.168 28.896 137.502 28.968Q136.836 29.04 136.188 29.202Q135.54 29.364 135.072 29.58Q134.784 29.724 134.568 29.904Q134.352 30.084 134.352 30.372Q134.46 31.128 134.964 31.38Q135.468 31.632 135.9 31.488Q136.944 31.2 137.898 31.056Q138.852 30.912 139.752 30.876Q140.04 30.876 140.472 30.84ZM129.456 34.368Q129.384 33.972 129.312 33.612Q129.24 33.252 128.952 33.144Q128.34 32.964 127.656 33.108Q126.972 33.252 126.396 33.558Q125.82 33.864 125.424 34.242Q125.028 34.62 124.992 34.908Q124.884 35.448 125.28 35.952Q125.676 36.456 126.432 36.96Q127.692 37.716 129.06 38.508Q130.428 39.3 131.364 40.128Q132.3 40.956 132.642 41.946Q132.984 42.936 132.48 44.196Q132.084 45.168 131.004 45.78Q129.924 46.392 128.628 46.734Q127.332 47.076 126.036 47.202Q124.74 47.328 123.84 47.328Q123.624 47.328 123.318 47.166Q123.012 47.004 122.742 46.788Q122.472 46.572 122.274 46.338Q122.076 46.104 122.076 45.924Q122.076 45.276 122.652 45.024Q123.228 44.772 123.84 44.772Q124.704 44.772 125.694 44.682Q126.684 44.592 127.584 44.394Q128.484 44.196 129.204 43.872Q129.924 43.548 130.212 43.044Q130.464 42.612 129.906 42.018Q129.348 41.424 128.43 40.776Q127.512 40.128 126.45 39.516Q125.388 38.904 124.632 38.4Q123.876 37.896 123.336 37.194Q122.796 36.492 122.652 35.448Q122.616 34.512 123.048 33.648Q123.48 32.784 124.182 32.118Q124.884 31.452 125.784 31.056Q126.684 30.66 127.584 30.66Q129.132 30.732 130.14 31.506Q131.148 32.28 131.328 33.792Q131.328 34.296 131.166 34.62Q131.004 34.944 130.608 35.016Q130.104 35.088 129.798 34.89Q129.492 34.692 129.456 34.368ZM178.272 34.368Q178.2 33.972 178.128 33.612Q178.056 33.252 177.768 33.144Q177.156 32.964 176.472 33.108Q175.788 33.252 175.212 33.558Q174.636 33.864 174.24 34.242Q173.844 34.62 173.808 34.908Q173.7 35.448 174.096 35.952Q174.492 36.456 175.248 36.96Q176.508 37.716 177.876 38.508Q179.244 39.3 180.18 40.128Q181.116 40.956 181.458 41.946Q181.8 42.936 181.296 44.196Q180.9 45.168 179.82 45.78Q178.74 46.392 177.444 46.734Q176.148 47.076 174.852 47.202Q173.556 47.328 172.656 47.328Q172.44 47.328 172.134 47.166Q171.828 47.004 171.558 46.788Q171.288 46.572 171.09 46.338Q170.892 46.104 170.892 45.924Q170.892 45.276 171.468 45.024Q172.044 44.772 172.656 44.772Q173.52 44.772 174.51 44.682Q175.5 44.592 176.4 44.394Q177.3 44.196 178.02 43.872Q178.74 43.548 179.028 43.044Q179.28 42.612 178.722 42.018Q178.164 41.424 177.246 40.776Q176.328 40.128 175.266 39.516Q174.204 38.904 173.448 38.4Q172.692 37.896 172.152 37.194Q171.612 36.492 171.468 35.448Q171.432 34.512 171.864 33.648Q172.296 32.784 172.998 32.118Q173.7 31.452 174.6 31.056Q175.5 30.66 176.4 30.66Q177.948 30.732 178.956 31.506Q179.964 32.28 180.144 33.792Q180.144 34.296 179.982 34.62Q179.82 34.944 179.424 35.016Q178.92 35.088 178.614 34.89Q178.308 34.692 178.272 34.368ZM190.332 33.612Q190.404 33.972 190.476 34.368Q190.512 34.692 190.818 34.89Q191.124 35.088 191.628 35.016Q192.024 34.944 192.186 34.62Q192.348 34.296 192.348 33.792Q192.168 32.28 191.16 31.506Q190.152 30.732 188.604 30.66Q187.704 30.66 186.804 31.056Q185.904 31.452 185.202 32.118Q184.5 32.784 184.068 33.648Q183.636 34.512 183.672 35.448Q183.816 36.492 184.356 37.194Q184.896 37.896 185.652 38.4Q186.408 38.904 187.47 39.516Q188.532 40.128 189.45 40.776Q190.368 41.424 190.926 42.018Q191.484 42.612 191.232 43.044Q190.944 43.548 190.224 43.872Q189.504 44.196 188.604 44.394Q187.704 44.592 186.714 44.682Q185.724 44.772 184.86 44.772Q184.248 44.772 183.672 45.024Q183.096 45.276 183.096 45.924Q183.096 46.104 183.294 46.338Q183.492 46.572 183.762 46.788Q184.032 47.004 184.338 47.166Q184.644 47.328 184.86 47.328Q185.76 47.328 187.056 47.202Q188.352 47.076 189.648 46.734Q190.944 46.392 192.024 45.78Q193.104 45.168 193.5 44.196Q194.004 42.936 193.662 41.946Q193.32 40.956 192.384 40.128Q191.448 39.3 190.08 38.508Q188.712 37.716 187.452 36.96Q186.696 36.456 186.3 35.952Q185.904 35.448 186.012 34.908Q186.048 34.62 186.444 34.242Q186.84 33.864 187.416 33.558Q187.992 33.252 188.676 33.108Q189.36 32.964 189.972 33.144Q190.26 33.252 190.332 33.612ZM145.944 33.252Q146.052 33.792 146.178 34.458Q146.304 35.124 146.448 35.826Q146.592 36.528 146.7 37.248Q146.808 37.968 146.88 38.616Q147.312 37.68 147.816 36.636Q148.32 35.592 148.914 34.71Q149.508 33.828 150.174 33.252Q150.84 32.676 151.632 32.676Q152.82 32.676 153.63 33.54Q154.44 34.404 154.998 35.682Q155.556 36.96 155.88 38.364Q156.204 39.768 156.42 40.848Q156.636 41.82 155.556 42.288Q155.052 42.54 154.8 42.36Q154.548 42.18 154.512 42Q154.332 41.568 154.062 40.488Q153.792 39.408 153.45 38.292Q153.108 37.176 152.676 36.348Q152.244 35.52 151.704 35.592Q151.056 35.628 150.552 36.564Q150.12 37.32 149.67 38.238Q149.22 39.156 148.788 40.11Q148.356 41.064 147.942 42.018Q147.528 42.972 147.168 43.764Q146.916 44.016 146.538 44.106Q146.16 44.196 145.764 44.052Q145.404 43.944 145.188 43.692Q144.972 43.44 144.972 43.188Q144.648 40.38 144.306 38.076Q143.964 35.772 143.424 33.36Q143.172 32.532 143.334 32.046Q143.496 31.56 144.396 31.668Q145.656 31.884 145.944 33.252ZM78.804 37.95Q80.424 37.5 81.828 36.672Q82.44 36.276 82.566 35.772Q82.692 35.268 82.404 34.584Q81.9 33.36 80.64 32.676Q79.38 31.992 77.832 32.1Q76.536 32.172 75.564 32.676Q74.592 33.18 73.944 33.954Q73.296 34.728 72.99 35.736Q72.684 36.744 72.792 37.86Q72.9 39.048 73.332 40.164Q73.764 41.28 74.592 42.108Q75.564 43.044 76.788 43.368Q78.012 43.692 79.164 43.476Q80.496 43.26 81.576 42.45Q82.656 41.64 83.232 40.488Q83.376 39.588 82.872 39.408Q82.692 39.336 82.332 39.426Q81.972 39.516 81.648 39.804Q81.324 40.092 80.892 40.38Q80.46 40.668 79.938 40.902Q79.416 41.136 78.822 41.244Q78.228 41.352 77.652 41.28Q76.68 41.136 76.032 40.398Q75.384 39.66 75.312 38.4Q77.184 38.4 78.804 37.95ZM164.592 37.95Q166.212 37.5 167.616 36.672Q168.228 36.276 168.354 35.772Q168.48 35.268 168.192 34.584Q167.688 33.36 166.428 32.676Q165.168 31.992 163.62 32.1Q162.324 32.172 161.352 32.676Q160.38 33.18 159.732 33.954Q159.084 34.728 158.778 35.736Q158.472 36.744 158.58 37.86Q158.688 39.048 159.12 40.164Q159.552 41.28 160.38 42.108Q161.352 43.044 162.576 43.368Q163.8 43.692 164.952 43.476Q166.284 43.26 167.364 42.45Q168.444 41.64 169.02 40.488Q169.164 39.588 168.66 39.408Q168.48 39.336 168.12 39.426Q167.76 39.516 167.436 39.804Q167.112 40.092 166.68 40.38Q166.248 40.668 165.726 40.902Q165.204 41.136 164.61 41.244Q164.016 41.352 163.44 41.28Q162.468 41.136 161.82 40.398Q161.172 39.66 161.1 38.4Q162.972 38.4 164.592 37.95ZM33.264 33.504Q33.3 34.08 33.39 34.926Q33.48 35.772 33.588 36.69Q33.696 37.608 33.822 38.508Q33.948 39.408 34.056 40.164L35.028 38.22Q35.604 37.068 36.234 36.006Q36.864 34.944 37.53 34.206Q38.196 33.468 38.736 33.468Q39.312 33.468 39.798 34.026Q40.284 34.584 40.644 35.376Q41.004 36.168 41.274 37.068Q41.544 37.968 41.724 38.652Q41.868 38.184 42.102 37.59Q42.336 36.996 42.606 36.366Q42.876 35.736 43.218 35.124Q43.56 34.512 43.956 34.044Q44.424 33.54 44.964 33.306Q45.504 33.072 45.756 33.072Q46.08 33.072 46.53 33.27Q46.98 33.468 47.448 33.792Q47.916 34.116 48.33 34.566Q48.744 35.016 48.996 35.484Q49.5 36.456 49.806 37.608Q50.112 38.76 50.256 39.804Q50.4 40.848 50.454 41.658Q50.508 42.468 50.544 42.792Q50.544 43.26 50.436 43.494Q50.328 43.728 50.04 43.872Q49.644 44.052 49.356 43.998Q49.068 43.944 48.888 43.764Q48.708 43.584 48.6 43.35Q48.492 43.116 48.456 42.936Q48.348 42.108 48.222 41.244Q48.096 40.38 47.952 39.57Q47.808 38.76 47.61 38.058Q47.412 37.356 47.196 36.816Q47.124 36.672 46.962 36.438Q46.8 36.204 46.602 35.988Q46.404 35.772 46.224 35.628Q46.044 35.484 45.972 35.448Q45.612 35.448 45.216 36.114Q44.82 36.78 44.46 37.716Q44.1 38.652 43.794 39.678Q43.488 40.704 43.344 41.424Q43.344 42.36 42.984 42.81Q42.624 43.26 42.228 43.26Q41.832 43.26 41.382 42.954Q40.932 42.648 40.788 42.252Q40.572 41.676 40.32 40.956Q40.068 40.236 39.798 39.48Q39.528 38.724 39.258 38.004Q38.988 37.284 38.736 36.708Q38.232 37.392 37.746 38.22Q37.26 39.048 36.81 39.912Q36.36 40.776 35.946 41.622Q35.532 42.468 35.172 43.116Q34.92 43.512 34.632 43.818Q34.344 44.124 33.948 44.124Q33.66 44.124 33.336 43.854Q33.012 43.584 32.724 43.188Q32.436 42.792 32.202 42.288Q31.968 41.784 31.86 41.28Q31.572 39.732 31.374 37.878Q31.176 36.024 30.996 34.26Q30.96 33.648 31.158 33.126Q31.356 32.604 31.932 32.424Q32.544 32.316 32.868 32.604Q33.192 32.892 33.264 33.504ZM19.008 36.618Q19.224 35.448 19.44 34.476Q19.584 33.9 19.134 33.36Q18.684 32.82 18.144 32.712Q17.856 32.64 17.64 32.874Q17.424 33.108 17.352 33.396Q17.172 34.08 16.938 35.16Q16.704 36.24 16.542 37.446Q16.38 38.652 16.362 39.876Q16.344 41.1 16.632 42.108Q17.388 44.628 18.828 44.808Q19.8 44.916 20.718 44.466Q21.636 44.016 22.482 43.206Q23.328 42.396 24.066 41.406Q24.804 40.416 25.344 39.444Q25.38 39.948 25.488 40.686Q25.596 41.424 25.722 42.234Q25.848 43.044 26.01 43.782Q26.172 44.52 26.352 45.024Q26.532 45.456 26.874 45.6Q27.216 45.744 27.54 45.672Q27.936 45.564 28.26 45.06Q28.584 44.556 28.476 44.16Q28.26 43.188 28.044 41.964Q27.828 40.74 27.63 39.444Q27.432 38.148 27.288 36.852Q27.144 35.556 27.072 34.476Q27.072 34.188 26.91 33.918Q26.748 33.648 26.55 33.45Q26.352 33.252 26.118 33.144Q25.884 33.036 25.704 33.072Q25.452 33.108 25.074 33.378Q24.696 33.648 24.696 33.936Q24.696 34.44 24.588 34.908Q24.48 35.376 24.336 35.808Q24.084 36.672 23.472 37.806Q22.86 38.94 22.104 39.912Q21.348 40.884 20.556 41.514Q19.764 42.144 19.152 42.036Q18.792 41.676 18.702 40.812Q18.612 39.948 18.702 38.868Q18.792 37.788 19.008 36.618ZM110.628 36.618Q110.844 35.448 111.06 34.476Q111.204 33.9 110.754 33.36Q110.304 32.82 109.764 32.712Q109.476 32.64 109.26 32.874Q109.044 33.108 108.972 33.396Q108.792 34.08 108.558 35.16Q108.324 36.24 108.162 37.446Q108 38.652 107.982 39.876Q107.964 41.1 108.252 42.108Q109.008 44.628 110.448 44.808Q111.42 44.916 112.338 44.466Q113.256 44.016 114.102 43.206Q114.948 42.396 115.686 41.406Q116.424 40.416 116.964 39.444Q117 39.948 117.108 40.686Q117.216 41.424 117.342 42.234Q117.468 43.044 117.63 43.782Q117.792 44.52 117.972 45.024Q118.152 45.456 118.494 45.6Q118.836 45.744 119.16 45.672Q119.556 45.564 119.88 45.06Q120.204 44.556 120.096 44.16Q119.88 43.188 119.664 41.964Q119.448 40.74 119.25 39.444Q119.052 38.148 118.908 36.852Q118.764 35.556 118.692 34.476Q118.692 34.188 118.53 33.918Q118.368 33.648 118.17 33.45Q117.972 33.252 117.738 33.144Q117.504 33.036 117.324 33.072Q117.072 33.108 116.694 33.378Q116.316 33.648 116.316 33.936Q116.316 34.44 116.208 34.908Q116.1 35.376 115.956 35.808Q115.704 36.672 115.092 37.806Q114.48 38.94 113.724 39.912Q112.968 40.884 112.176 41.514Q111.384 42.144 110.772 42.036Q110.412 41.676 110.322 40.812Q110.232 39.948 110.322 38.868Q110.412 37.788 110.628 36.618ZM76.914 34.476Q77.328 34.296 77.688 34.224Q78.48 34.08 79.254 34.242Q80.028 34.404 80.316 35.088Q79.92 35.34 79.326 35.556Q78.732 35.772 78.03 35.934Q77.328 36.096 76.59 36.204Q75.852 36.312 75.24 36.312Q75.276 35.88 75.546 35.538Q75.816 35.196 76.158 34.926Q76.5 34.656 76.914 34.476ZM162.702 34.476Q163.116 34.296 163.476 34.224Q164.268 34.08 165.042 34.242Q165.816 34.404 166.104 35.088Q165.708 35.34 165.114 35.556Q164.52 35.772 163.818 35.934Q163.116 36.096 162.378 36.204Q161.64 36.312 161.028 36.312Q161.064 35.88 161.334 35.538Q161.604 35.196 161.946 34.926Q162.288 34.656 162.702 34.476ZM60.264 34.674Q60.876 35.16 60.876 36.384Q60.876 37.212 60.516 37.95Q60.156 38.688 59.598 39.336Q59.04 39.984 58.392 40.506Q57.744 41.028 57.168 41.424Q56.988 40.596 56.862 39.552Q56.736 38.508 56.664 37.608Q56.628 37.068 56.79 36.492Q56.952 35.916 57.276 35.448Q57.6 34.98 58.032 34.656Q58.464 34.332 59.004 34.26Q59.652 34.188 60.264 34.674ZM103.248 36.384Q103.248 35.16 102.636 34.674Q102.024 34.188 101.376 34.26Q100.836 34.332 100.404 34.656Q99.972 34.98 99.648 35.448Q99.324 35.916 99.162 36.492Q99 37.068 99.036 37.608Q99.108 38.508 99.234 39.552Q99.36 40.596 99.54 41.424Q100.116 41.028 100.764 40.506Q101.412 39.984 101.97 39.336Q102.528 38.688 102.888 37.95Q103.248 37.212 103.248 36.384ZM140.418 43.674Q140.4 43.008 140.148 42.432Q139.932 41.964 139.788 41.226Q139.644 40.488 139.536 39.696Q139.428 38.904 139.392 38.112Q139.356 37.32 139.356 36.672Q139.392 35.844 138.996 35.286Q138.6 34.728 137.952 34.692Q137.556 34.764 137.304 35.196Q137.052 35.628 137.016 36.132Q137.016 36.6 137.034 37.536Q137.052 38.472 137.16 39.552Q137.268 40.632 137.484 41.73Q137.7 42.828 138.096 43.584Q138.384 44.196 138.96 44.556Q139.536 44.916 140.04 44.592Q140.436 44.34 140.418 43.674Z" />
    </g>
    <g id="idea">
      <path d="M16.362 50.692Q16.164 51.232 16.272 51.88L17.172 57.568L16.524 57.712Q14.796 58.144 13.572 58.9Q12.348 59.656 11.52 60.592Q9.576 62.86 10.44 65.632Q10.836 66.892 11.754 67.702Q12.672 68.512 13.86 68.872Q15.048 69.232 16.344 69.178Q17.64 69.124 18.828 68.692L18.972 68.656L19.008 68.872Q19.116 69.34 19.494 69.52Q19.872 69.7 20.304 69.52Q20.7 69.34 20.988 68.962Q21.276 68.584 21.132 67.54Q20.628 63.616 19.998 59.53Q19.368 55.444 18.648 51.304Q18.54 50.728 18.126 50.368Q17.712 50.008 17.172 50.08Q16.56 50.152 16.362 50.692ZM7.02 55.84Q7.452 55.804 7.524 55.444Q7.596 54.94 7.254 54.58Q6.912 54.22 6.336 54.04Q5.94 53.932 5.328 53.914Q4.716 53.896 4.05 53.968Q3.384 54.04 2.736 54.202Q2.088 54.364 1.62 54.58Q1.332 54.724 1.116 54.904Q0.9 55.084 0.9 55.372Q1.008 56.128 1.512 56.38Q2.016 56.632 2.448 56.488Q3.492 56.2 4.446 56.056Q5.4 55.912 6.3 55.876Q6.588 55.876 7.02 55.84ZM44.91 58.954Q44.82 57.82 44.676 56.812Q44.532 55.876 43.848 55.282Q43.164 54.688 41.904 54.724Q41.04 54.76 40.176 55.12Q39.312 55.48 38.484 56.038Q37.656 56.596 36.9 57.28Q36.144 57.964 35.532 58.612Q35.208 59.044 35.244 59.422Q35.28 59.8 35.568 60.088Q35.856 60.376 36.27 60.412Q36.684 60.448 37.008 60.124Q38.052 59.188 39.204 58.36Q40.356 57.532 41.22 57.244Q41.724 57.064 42.066 57.19Q42.408 57.316 42.48 57.856Q42.552 58.324 42.606 58.99Q42.66 59.656 42.696 60.412Q42.732 61.168 42.75 61.906Q42.768 62.644 42.768 63.256Q42.336 62.824 41.832 62.644Q41.328 62.464 40.842 62.446Q40.356 62.428 39.906 62.5Q39.456 62.572 39.204 62.68Q38.196 63.04 37.458 63.688Q36.72 64.336 36.288 65.146Q35.856 65.956 35.748 66.838Q35.64 67.72 35.856 68.548Q36.18 69.772 37.098 70.384Q38.016 70.996 39.168 70.816Q39.78 70.708 40.5 70.42Q41.22 70.132 41.94 69.754Q42.66 69.376 43.308 68.962Q43.956 68.548 44.46 68.188Q45.18 68.584 45.738 68.566Q46.296 68.548 46.512 67.9Q46.692 67.432 46.458 66.82Q46.224 66.208 45.072 65.416Q45.108 64.552 45.108 63.472Q45.108 62.392 45.054 61.24Q45 60.088 44.91 58.954ZM31.752 61.672Q30.348 62.5 28.728 62.95Q27.108 63.4 25.236 63.4Q25.308 64.66 25.956 65.398Q26.604 66.136 27.576 66.28Q28.152 66.352 28.746 66.244Q29.34 66.136 29.862 65.902Q30.384 65.668 30.816 65.38Q31.248 65.092 31.572 64.804Q31.896 64.516 32.256 64.426Q32.616 64.336 32.796 64.408Q33.3 64.588 33.156 65.488Q32.58 66.64 31.5 67.45Q30.42 68.26 29.088 68.476Q27.936 68.692 26.712 68.368Q25.488 68.044 24.516 67.108Q23.688 66.28 23.256 65.164Q22.824 64.048 22.716 62.86Q22.608 61.744 22.914 60.736Q23.22 59.728 23.868 58.954Q24.516 58.18 25.488 57.676Q26.46 57.172 27.756 57.1Q29.304 56.992 30.564 57.676Q31.824 58.36 32.328 59.584Q32.616 60.268 32.49 60.772Q32.364 61.276 31.752 61.672ZM27.612 59.224Q27.252 59.296 26.838 59.476Q26.424 59.656 26.082 59.926Q25.74 60.196 25.47 60.538Q25.2 60.88 25.164 61.312Q25.776 61.312 26.514 61.204Q27.252 61.096 27.954 60.934Q28.656 60.772 29.25 60.556Q29.844 60.34 30.24 60.088Q29.952 59.404 29.178 59.242Q28.404 59.08 27.612 59.224ZM6.966 68.674Q6.948 68.008 6.696 67.432Q6.48 66.964 6.336 66.226Q6.192 65.488 6.084 64.696Q5.976 63.904 5.94 63.112Q5.904 62.32 5.904 61.672Q5.94 60.844 5.544 60.286Q5.148 59.728 4.5 59.692Q4.104 59.764 3.852 60.196Q3.6 60.628 3.564 61.132Q3.564 61.6 3.582 62.536Q3.6 63.472 3.708 64.552Q3.816 65.632 4.032 66.73Q4.248 67.828 4.644 68.584Q4.932 69.196 5.508 69.556Q6.084 69.916 6.588 69.592Q6.984 69.34 6.966 68.674ZM13.428 66.064Q12.852 65.596 12.636 64.732Q12.42 63.94 12.762 63.184Q13.104 62.428 13.752 61.816Q14.4 61.204 15.246 60.754Q16.092 60.304 16.848 60.088L17.568 59.908L18.576 66.244L18.252 66.352Q17.388 66.64 16.488 66.748Q15.588 66.856 14.796 66.694Q14.004 66.532 13.428 66.064ZM39.51 65.002Q40.032 64.66 40.5 64.552Q40.788 64.516 41.13 64.768Q41.472 65.02 41.76 65.362Q42.048 65.704 42.264 66.046Q42.48 66.388 42.48 66.604Q41.832 67.216 40.734 67.738Q39.636 68.26 38.772 68.44Q38.484 68.512 38.25 68.404Q38.016 68.296 37.944 68.08Q37.764 67.504 37.962 66.91Q38.16 66.316 38.574 65.83Q38.988 65.344 39.51 65.002Z" />
    </g>
  </g>
  <path d="M0 92.5C0 41.4137 49.4663 0 110.486 0C171.506 0 220.972 41.4137 220.972 92.5C220.972 143.586 171.506 185 110.486 185C49.4663 185 0 143.586 0 92.5Z" transform="translate(274.4167 182)" id="Ellipse-3" fill="#AEAEB2" stroke="#2C2C2C" stroke-width="3" stroke-dasharray="6 8" />
  <path d="M0 92.5C0 41.4137 49.4663 0 110.486 0C171.506 0 220.972 41.4137 220.972 92.5C220.972 143.586 171.506 185 110.486 185C49.4663 185 0 143.586 0 92.5Z" transform="translate(116.5001 148)" id="Ellipse-23" fill="none" stroke="#2C2C2C" stroke-width="3" stroke-dasharray="6 8" />
  <path d="M0 6.42308C0 2.87571 3.11536 0 6.95834 0C10.8013 0 13.9167 2.87571 13.9167 6.42308C13.9167 9.97045 10.8013 12.8462 6.95834 12.8462C3.11536 12.8462 0 9.97045 0 6.42308Z" transform="translate(200.5 175)" id="Ellipse-7" fill="#000000" stroke="none" />
  <path d="M0 6.42308C0 2.87571 3.11536 0 6.95834 0C10.8013 0 13.9167 2.87571 13.9167 6.42308C13.9167 9.97045 10.8013 12.8462 6.95834 12.8462C3.11536 12.8462 0 9.97045 0 6.42308Z" transform="translate(228.5 208)" id="Ellipse-24" fill="#000000" stroke="none" />
  <path d="M0 6.42308C0 2.87571 3.11536 0 6.95834 0C10.8013 0 13.9167 2.87571 13.9167 6.42308C13.9167 9.97045 10.8013 12.8462 6.95834 12.8462C3.11536 12.8462 0 9.97045 0 6.42308Z" transform="translate(262.5 218)" id="Ellipse-25" fill="#000000" stroke="none" />
  <path d="M0 6.42308C0 2.87571 3.11536 0 6.95834 0C10.8013 0 13.9167 2.87571 13.9167 6.42308C13.9167 9.97045 10.8013 12.8462 6.95834 12.8462C3.11536 12.8462 0 9.97045 0 6.42308Z" transform="translate(200.4999 297.1538)" id="Ellipse-26" fill="#000000" stroke="none" />
  <path d="M0 6.42308C0 2.87571 3.11536 0 6.95834 0C10.8013 0 13.9167 2.87571 13.9167 6.42308C13.9167 9.97045 10.8013 12.8462 6.95834 12.8462C3.11536 12.8462 0 9.97045 0 6.42308Z" transform="translate(154.5 274)" id="Ellipse-27" fill="#000000" stroke="none" />
  <path d="M0 6.42308C0 2.87571 3.11536 0 6.95834 0C10.8013 0 13.9167 2.87571 13.9167 6.42308C13.9167 9.97045 10.8013 12.8462 6.95834 12.8462C3.11536 12.8462 0 9.97045 0 6.42308Z" transform="translate(220.5 274)" id="Ellipse-28" fill="#000000" stroke="none" />
  <path d="M0 6.42308C0 2.87571 3.11536 0 6.95834 0C10.8013 0 13.9167 2.87571 13.9167 6.42308C13.9167 9.97045 10.8013 12.8462 6.95834 12.8462C3.11536 12.8462 0 9.97045 0 6.42308Z" transform="translate(357.5833 219)" id="Ellipse-29" fill="#000000" stroke="none" />
  <path d="M0 6.42308C0 2.87571 3.11536 0 6.95834 0C10.8013 0 13.9167 2.87571 13.9167 6.42308C13.9167 9.97045 10.8013 12.8462 6.95834 12.8462C3.11536 12.8462 0 9.97045 0 6.42308Z" transform="translate(423.5832 216)" id="Ellipse-30" fill="#000000" stroke="none" />
  <path d="M0 6.42308C0 2.87571 3.11536 0 6.95834 0C10.8013 0 13.9167 2.87571 13.9167 6.42308C13.9167 9.97045 10.8013 12.8462 6.95834 12.8462C3.11536 12.8462 0 9.97045 0 6.42308Z" transform="translate(450.5833 274)" id="Ellipse-31" fill="#000000" stroke="none" />
  <path d="M0 6.42308C0 2.87571 3.11536 0 6.95834 0C10.8013 0 13.9167 2.87571 13.9167 6.42308C13.9167 9.97045 10.8013 12.8462 6.95834 12.8462C3.11536 12.8462 0 9.97045 0 6.42308Z" transform="translate(332.4999 310)" id="Ellipse-32" fill="#000000" stroke="none" />
  <path d="M0 6.42308C0 2.87571 3.11536 0 6.95834 0C10.8013 0 13.9167 2.87571 13.9167 6.42308C13.9167 9.97045 10.8013 12.8462 6.95834 12.8462C3.11536 12.8462 0 9.97045 0 6.42308Z" transform="translate(350.5 274)" id="Ellipse-35" fill="#000000" stroke="none" />
  <path d="M0 6.42308C0 2.87571 3.11536 0 6.95834 0C10.8013 0 13.9167 2.87571 13.9167 6.42308C13.9167 9.97045 10.8013 12.8462 6.95834 12.8462C3.11536 12.8462 0 9.97045 0 6.42308Z" transform="translate(368.5834 338)" id="Ellipse-36" fill="#000000" stroke="none" />
  <path d="M0 6.42308C0 2.87571 3.11536 0 6.95834 0C10.8013 0 13.9167 2.87571 13.9167 6.42308C13.9167 9.97045 10.8013 12.8462 6.95834 12.8462C3.11536 12.8462 0 9.97045 0 6.42308Z" transform="translate(246.5 177)" id="Ellipse-37" fill="#000000" stroke="none" />
  <path d="M0 6.42308C0 2.87571 3.11536 0 6.95834 0C10.8013 0 13.9167 2.87571 13.9167 6.42308C13.9167 9.97045 10.8013 12.8462 6.95834 12.8462C3.11536 12.8462 0 9.97045 0 6.42308Z" transform="translate(293.5 232)" id="Ellipse-38" fill="#000000" stroke="none" />
  <path d="M0 6.42308C0 2.87571 3.11536 0 6.95834 0C10.8013 0 13.9167 2.87571 13.9167 6.42308C13.9167 9.97045 10.8013 12.8462 6.95834 12.8462C3.11536 12.8462 0 9.97045 0 6.42308Z" transform="translate(248.5 244.1538)" id="Ellipse-39" fill="#000000" stroke="none" />
  <path d="M0 6.42308C0 2.87571 3.11536 0 6.95834 0C10.8013 0 13.9167 2.87571 13.9167 6.42308C13.9167 9.97045 10.8013 12.8462 6.95834 12.8462C3.11536 12.8462 0 9.97045 0 6.42308Z" transform="translate(288.5833 274)" id="Ellipse-40" fill="#000000" stroke="none" />
  <path d="M0 6.42308C0 2.87571 3.11536 0 6.95834 0C10.8013 0 13.9167 2.87571 13.9167 6.42308C13.9167 9.97045 10.8013 12.8462 6.95834 12.8462C3.11536 12.8462 0 9.97045 0 6.42308Z" transform="translate(200.5 369)" id="Ellipse-41" fill="#000000" stroke="none" />
  <path d="M0 6.42308C0 2.87571 3.11536 0 6.95834 0C10.8013 0 13.9167 2.87571 13.9167 6.42308C13.9167 9.97045 10.8013 12.8462 6.95834 12.8462C3.11536 12.8462 0 9.97045 0 6.42308Z" transform="translate(228.5 402)" id="Ellipse-42" fill="#000000" stroke="none" />
  <path d="M0 6.42308C0 2.87571 3.11536 0 6.95834 0C10.8013 0 13.9167 2.87571 13.9167 6.42308C13.9167 9.97045 10.8013 12.8462 6.95834 12.8462C3.11536 12.8462 0 9.97045 0 6.42308Z" transform="translate(200.5 491.1538)" id="Ellipse-43" fill="#000000" stroke="none" />
  <path d="M0 6.42308C0 2.87571 3.11536 0 6.95834 0C10.8013 0 13.9167 2.87571 13.9167 6.42308C13.9167 9.97045 10.8013 12.8462 6.95834 12.8462C3.11536 12.8462 0 9.97045 0 6.42308Z" transform="translate(154.5 468)" id="Ellipse-44" fill="#000000" stroke="none" />
  <path d="M0 6.42308C0 2.87571 3.11536 0 6.95834 0C10.8013 0 13.9167 2.87571 13.9167 6.42308C13.9167 9.97045 10.8013 12.8462 6.95834 12.8462C3.11536 12.8462 0 9.97045 0 6.42308Z" transform="translate(220.5 468)" id="Ellipse-45" fill="#000000" stroke="none" />
  <path d="M0 6.42308C0 2.87571 3.11536 0 6.95834 0C10.8013 0 13.9167 2.87571 13.9167 6.42308C13.9167 9.97045 10.8013 12.8462 6.95834 12.8462C3.11536 12.8462 0 9.97045 0 6.42308Z" transform="translate(246.5 371)" id="Ellipse-46" fill="#000000" stroke="none" />
  <path d="M0 6.42308C0 2.87571 3.11536 0 6.95834 0C10.8013 0 13.9167 2.87571 13.9167 6.42308C13.9167 9.97045 10.8013 12.8462 6.95834 12.8462C3.11536 12.8462 0 9.97045 0 6.42308Z" transform="translate(293.5 426)" id="Ellipse-47" fill="#000000" stroke="none" />
  <path d="M0 6.42308C0 2.87571 3.11536 0 6.95834 0C10.8013 0 13.9167 2.87571 13.9167 6.42308C13.9167 9.97045 10.8013 12.8462 6.95834 12.8462C3.11536 12.8462 0 9.97045 0 6.42308Z" transform="translate(350.5 135)" id="Ellipse-48" fill="#000000" stroke="none" />
  <path d="M0 6.42308C0 2.87571 3.11536 0 6.95834 0C10.8013 0 13.9167 2.87571 13.9167 6.42308C13.9167 9.97045 10.8013 12.8462 6.95834 12.8462C3.11536 12.8462 0 9.97045 0 6.42308Z" transform="translate(288.5833 468)" id="Ellipse-49" fill="#000000" stroke="none" />
  <path d="M0 6.42308C0 2.87571 3.11536 0 6.95834 0C10.8013 0 13.9167 2.87571 13.9167 6.42308C13.9167 9.97045 10.8013 12.8462 6.95834 12.8462C3.11536 12.8462 0 9.97045 0 6.42308Z" transform="translate(308.5 382)" id="Ellipse-50" fill="#000000" stroke="none" />
  <path d="M0 6.42308C0 2.87571 3.11536 0 6.95834 0C10.8013 0 13.9167 2.87571 13.9167 6.42308C13.9167 9.97045 10.8013 12.8462 6.95834 12.8462C3.11536 12.8462 0 9.97045 0 6.42308Z" transform="translate(523.5833 297)" id="Ellipse-51" fill="#000000" stroke="none" />
  <path d="M0 6.42308C0 2.87571 3.11536 0 6.95834 0C10.8013 0 13.9167 2.87571 13.9167 6.42308C13.9167 9.97045 10.8013 12.8462 6.95834 12.8462C3.11536 12.8462 0 9.97045 0 6.42308Z" transform="translate(308.5 504.1538)" id="Ellipse-52" fill="#000000" stroke="none" />
  <path d="M0 6.42308C0 2.87571 3.11536 0 6.95834 0C10.8013 0 13.9167 2.87571 13.9167 6.42308C13.9167 9.97045 10.8013 12.8462 6.95834 12.8462C3.11536 12.8462 0 9.97045 0 6.42308Z" transform="translate(262.5 481)" id="Ellipse-53" fill="#000000" stroke="none" />
  <path d="M0 6.42308C0 2.87571 3.11536 0 6.95834 0C10.8013 0 13.9167 2.87571 13.9167 6.42308C13.9167 9.97045 10.8013 12.8462 6.95834 12.8462C3.11536 12.8462 0 9.97045 0 6.42308Z" transform="translate(154.5 98)" id="Ellipse-54" fill="#000000" stroke="none" />
  <path d="M0 6.42308C0 2.87571 3.11536 0 6.95834 0C10.8013 0 13.9167 2.87571 13.9167 6.42308C13.9167 9.97045 10.8013 12.8462 6.95834 12.8462C3.11536 12.8462 0 9.97045 0 6.42308Z" transform="translate(354.5 384)" id="Ellipse-55" fill="#000000" stroke="none" />
  <path d="M0 6.42308C0 2.87571 3.11536 0 6.95834 0C10.8013 0 13.9167 2.87571 13.9167 6.42308C13.9167 9.97045 10.8013 12.8462 6.95834 12.8462C3.11536 12.8462 0 9.97045 0 6.42308Z" transform="translate(401.5 439)" id="Ellipse-56" fill="#000000" stroke="none" />
  <path d="M0 6.42308C0 2.87571 3.11536 0 6.95834 0C10.8013 0 13.9167 2.87571 13.9167 6.42308C13.9167 9.97045 10.8013 12.8462 6.95834 12.8462C3.11536 12.8462 0 9.97045 0 6.42308Z" transform="translate(356.5 451.1538)" id="Ellipse-57" fill="#000000" stroke="none" />
  <path d="M0 6.42308C0 2.87571 3.11536 0 6.95834 0C10.8013 0 13.9167 2.87571 13.9167 6.42308C13.9167 9.97045 10.8013 12.8462 6.95834 12.8462C3.11536 12.8462 0 9.97045 0 6.42308Z" transform="translate(396.5833 481)" id="Ellipse-58" fill="#000000" stroke="none" />
  <path d="M0 6.42308C0 2.87571 3.11536 0 6.95834 0C10.8013 0 13.9167 2.87571 13.9167 6.42308C13.9167 9.97045 10.8013 12.8462 6.95834 12.8462C3.11536 12.8462 0 9.97045 0 6.42308Z" transform="translate(75.5 262)" id="Ellipse-59" fill="#000000" stroke="none" />
  <path d="M0 6.42308C0 2.87571 3.11536 0 6.95834 0C10.8013 0 13.9167 2.87571 13.9167 6.42308C13.9167 9.97045 10.8013 12.8462 6.95834 12.8462C3.11536 12.8462 0 9.97045 0 6.42308Z" transform="translate(103.5 295)" id="Ellipse-60" fill="#000000" stroke="none" />
  <path d="M0 6.42308C0 2.87571 3.11536 0 6.95834 0C10.8013 0 13.9167 2.87571 13.9167 6.42308C13.9167 9.97045 10.8013 12.8462 6.95834 12.8462C3.11536 12.8462 0 9.97045 0 6.42308Z" transform="translate(75.5 384.1538)" id="Ellipse-61" fill="#000000" stroke="none" />
  <path d="M0 6.42308C0 2.87571 3.11536 0 6.95834 0C10.8013 0 13.9167 2.87571 13.9167 6.42308C13.9167 9.97045 10.8013 12.8462 6.95834 12.8462C3.11536 12.8462 0 9.97045 0 6.42308Z" transform="translate(29.5 361)" id="Ellipse-62" fill="#000000" stroke="none" />
  <path d="M0 6.42308C0 2.87571 3.11536 0 6.95834 0C10.8013 0 13.9167 2.87571 13.9167 6.42308C13.9167 9.97045 10.8013 12.8462 6.95834 12.8462C3.11536 12.8462 0 9.97045 0 6.42308Z" transform="translate(61.58331 208.1538)" id="Ellipse-63" fill="#000000" stroke="none" />
  <path d="M0 6.42308C0 2.87571 3.11536 0 6.95834 0C10.8013 0 13.9167 2.87571 13.9167 6.42308C13.9167 9.97045 10.8013 12.8462 6.95834 12.8462C3.11536 12.8462 0 9.97045 0 6.42308Z" transform="translate(135.5 251)" id="Ellipse-64" fill="#000000" stroke="none" />
  <path d="M0 6.42308C0 2.87571 3.11536 0 6.95834 0C10.8013 0 13.9167 2.87571 13.9167 6.42308C13.9167 9.97045 10.8013 12.8462 6.95834 12.8462C3.11536 12.8462 0 9.97045 0 6.42308Z" transform="translate(121.5833 402.1538)" id="Ellipse-65" fill="#000000" stroke="none" />
  <path d="M0 6.42308C0 2.87571 3.11536 0 6.95834 0C10.8013 0 13.9167 2.87571 13.9167 6.42308C13.9167 9.97045 10.8013 12.8462 6.95834 12.8462C3.11536 12.8462 0 9.97045 0 6.42308Z" transform="translate(123.5 331.1538)" id="Ellipse-66" fill="#000000" stroke="none" />
  <path d="M0 6.42308C0 2.87571 3.11536 0 6.95834 0C10.8013 0 13.9167 2.87571 13.9167 6.42308C13.9167 9.97045 10.8013 12.8462 6.95834 12.8462C3.11536 12.8462 0 9.97045 0 6.42308Z" transform="translate(163.5833 361)" id="Ellipse-67" fill="#000000" stroke="none" />
  <path d="M0 6.42308C0 2.87571 3.11536 0 6.95834 0C10.8013 0 13.9167 2.87571 13.9167 6.42308C13.9167 9.97045 10.8013 12.8462 6.95834 12.8462C3.11536 12.8462 0 9.97045 0 6.42308Z" transform="translate(430.5 315)" id="Ellipse-68" fill="#000000" stroke="none" />
  <path d="M0 6.42308C0 2.87571 3.11536 0 6.95834 0C10.8013 0 13.9167 2.87571 13.9167 6.42308C13.9167 9.97045 10.8013 12.8462 6.95834 12.8462C3.11536 12.8462 0 9.97045 0 6.42308Z" transform="translate(423.5833 369.1538)" id="Ellipse-69" fill="#000000" stroke="none" />
  <path d="M0 6.42308C0 2.87571 3.11536 0 6.95834 0C10.8013 0 13.9167 2.87571 13.9167 6.42308C13.9167 9.97045 10.8013 12.8462 6.95834 12.8462C3.11536 12.8462 0 9.97045 0 6.42308Z" transform="translate(97.5 147)" id="Ellipse-70" fill="#000000" stroke="none" />
  <path d="M0 6.42308C0 2.87571 3.11536 0 6.95834 0C10.8013 0 13.9167 2.87571 13.9167 6.42308C13.9167 9.97045 10.8013 12.8462 6.95834 12.8462C3.11536 12.8462 0 9.97045 0 6.42308Z" transform="translate(423.5833 147)" id="Ellipse-71" fill="#000000" stroke="none" />
  <path d="M0 6.42308C0 2.87571 3.11536 0 6.95834 0C10.8013 0 13.9167 2.87571 13.9167 6.42308C13.9167 9.97045 10.8013 12.8462 6.95834 12.8462C3.11536 12.8462 0 9.97045 0 6.42308Z" transform="translate(450.5 414)" id="Ellipse-72" fill="#000000" stroke="none" />
  <path d="M0 6.42308C0 2.87571 3.11536 0 6.95834 0C10.8013 0 13.9167 2.87571 13.9167 6.42308C13.9167 9.97045 10.8013 12.8462 6.95834 12.8462C3.11536 12.8462 0 9.97045 0 6.42308Z" transform="translate(476.5 317)" id="Ellipse-73" fill="#000000" stroke="none" />
  <path d="M0 6.42308C0 2.87571 3.11536 0 6.95834 0C10.8013 0 13.9167 2.87571 13.9167 6.42308C13.9167 9.97045 10.8013 12.8462 6.95834 12.8462C3.11536 12.8462 0 9.97045 0 6.42308Z" transform="translate(523.5 372)" id="Ellipse-74" fill="#000000" stroke="none" />
  <path d="M0 6.42308C0 2.87571 3.11536 0 6.95834 0C10.8013 0 13.9167 2.87571 13.9167 6.42308C13.9167 9.97045 10.8013 12.8462 6.95834 12.8462C3.11536 12.8462 0 9.97045 0 6.42308Z" transform="translate(478.5 384.1538)" id="Ellipse-75" fill="#000000" stroke="none" />
  <path d="M0 6.42308C0 2.87571 3.11536 0 6.95834 0C10.8013 0 13.9167 2.87571 13.9167 6.42308C13.9167 9.97045 10.8013 12.8462 6.95834 12.8462C3.11536 12.8462 0 9.97045 0 6.42308Z" transform="translate(518.5833 414)" id="Ellipse-76" fill="#000000" stroke="none" />
  <g id="problems-you-have" transform="translate(375.5 237)">
    <g id="problems">
      <path d="M44.91 3.248Q44.892 2.42 44.856 1.844Q44.748 1.268 44.352 0.943998Q43.956 0.620001 43.452 0.547998Q43.236 0.548 42.93 0.656Q42.624 0.764 42.624 1.484Q42.552 5.66 43.02 9.71Q43.488 13.76 44.352 17.72Q44.136 17.9 43.83 18.098Q43.524 18.296 43.308 18.548Q43.092 18.8 43.02 19.106Q42.948 19.412 43.128 19.844Q43.344 20.132 44.028 20.276Q44.712 20.42 45.432 20.132Q45.936 19.808 47.07 19.052Q48.204 18.296 49.374 17.18Q50.544 16.064 51.426 14.624Q52.308 13.184 52.308 11.492Q52.308 10.7 52.056 9.854Q51.804 9.008 51.264 8.306Q50.724 7.604 49.896 7.208Q49.068 6.812 47.952 6.956Q47.232 7.064 46.53 7.532Q45.828 8 45.288 8.9Q45.144 8 45.072 7.01Q45 6.02 44.964 5.048Q44.928 4.076 44.91 3.248ZM57.852 3.284Q58.032 7.208 58.464 11.402Q58.896 15.596 59.4 19.412Q59.4779 20.5541 58.9943 20.8914Q58.8072 21.022 58.536 21.032Q58.32 21.032 58.104 20.87Q57.888 20.708 57.708 20.456Q57.528 20.204 57.366 19.916Q57.204 19.628 57.168 19.412Q56.88 17.576 56.628 15.524Q56.376 13.472 56.178 11.402Q55.98 9.332 55.836 7.352Q55.692 5.372 55.656 3.716Q55.728 2.852 55.908 2.258Q56.088 1.664 56.664 1.7Q57.276 1.736 57.546 2.186Q57.816 2.636 57.852 3.284ZM7.236 24.794Q7.56 24.452 7.596 24.056Q7.632 22.616 7.56 20.708Q7.488 18.8 7.308 16.856Q8.496 16.136 9.666 15.218Q10.836 14.3 11.646 13.166Q12.456 12.032 12.726 10.646Q12.996 9.26 12.384 7.604Q11.88 6.596 11.07 6.074Q10.26 5.552 9.252 5.39Q8.244 5.228 7.146 5.354Q6.048 5.48 4.986 5.786Q3.924 6.092 2.97 6.506Q2.016 6.92 1.332 7.316Q0.54 7.82 0.162 8.396Q-0.216 8.972 0.108 9.692Q0.252 9.98 0.738 10.034Q1.224 10.088 1.728 9.8Q2.484 9.404 3.294 9.008Q4.104 8.612 4.95 8.324Q5.796 8.036 6.678 7.856Q7.56 7.676 8.46 7.712Q9.468 7.748 9.936 8.234Q10.404 8.72 10.476 9.332Q10.584 10.052 10.332 10.718Q10.08 11.384 9.594 11.996Q9.108 12.608 8.442 13.148Q7.776 13.688 7.02 14.156Q6.912 13.112 6.786 12.23Q6.66 11.348 6.552 10.664Q6.336 9.944 5.742 9.476Q5.148 9.008 4.68 9.188Q4.392 9.332 4.284 9.494Q4.176 9.656 4.104 9.836Q4.032 10.016 4.068 10.232Q4.248 11.456 4.41 12.752Q4.572 14.048 4.752 15.38Q4.032 15.812 3.708 16.28Q3.384 16.748 3.636 17.36Q3.78 17.72 4.158 17.882Q4.536 18.044 5.004 17.972Q5.112 19.556 5.184 21.05Q5.256 22.544 5.256 23.912Q5.256 24.2 5.58 24.632Q5.904 25.064 6.516 25.1Q6.912 25.136 7.236 24.794ZM103.932 8.612Q104.004 8.972 104.076 9.368Q104.112 9.692 104.418 9.89Q104.724 10.088 105.228 10.016Q105.624 9.944 105.786 9.62Q105.948 9.296 105.948 8.792Q105.768 7.28 104.76 6.506Q103.752 5.732 102.204 5.66Q101.304 5.66 100.404 6.056Q99.504 6.452 98.802 7.118Q98.1 7.784 97.668 8.648Q97.236 9.512 97.272 10.448Q97.416 11.492 97.956 12.194Q98.496 12.896 99.252 13.4Q100.008 13.904 101.07 14.516Q102.132 15.128 103.05 15.776Q103.968 16.424 104.526 17.018Q105.084 17.612 104.832 18.044Q104.544 18.548 103.824 18.872Q103.104 19.196 102.204 19.394Q101.304 19.592 100.314 19.682Q99.324 19.772 98.46 19.772Q97.848 19.772 97.272 20.024Q96.696 20.276 96.696 20.924Q96.696 21.104 96.894 21.338Q97.092 21.572 97.362 21.788Q97.632 22.004 97.938 22.166Q98.244 22.328 98.46 22.328Q99.36 22.328 100.656 22.202Q101.952 22.076 103.248 21.734Q104.544 21.392 105.624 20.78Q106.704 20.168 107.1 19.196Q107.604 17.936 107.262 16.946Q106.92 15.956 105.984 15.128Q105.048 14.3 103.68 13.508Q102.312 12.716 101.052 11.96Q100.296 11.456 99.9 10.952Q99.504 10.448 99.612 9.908Q99.648 9.62 100.044 9.242Q100.44 8.864 101.016 8.558Q101.592 8.252 102.276 8.108Q102.96 7.964 103.572 8.144Q103.86 8.252 103.932 8.612ZM24.642 8.468Q25.344 8.072 25.992 7.712Q26.46 7.388 26.55 6.992Q26.64 6.596 26.496 6.416Q26.352 6.236 25.992 6.164Q25.632 6.092 25.092 6.164Q23.832 6.38 22.626 7.028Q21.42 7.676 20.466 8.612Q19.512 9.548 18.864 10.7Q18.216 11.852 18.072 13.076Q17.856 12.032 17.64 10.574Q17.424 9.116 17.28 7.784Q17.208 7.388 16.812 7.208Q16.416 7.028 15.984 6.992Q15.588 6.956 15.282 7.1Q14.976 7.244 14.976 7.748Q15.264 10.232 15.66 12.734Q16.056 15.236 16.668 17.792Q16.812 18.44 17.226 19.142Q17.64 19.844 18.324 19.844Q18.864 19.844 19.17 19.178Q19.476 18.512 19.476 17.864Q19.548 16.496 19.8 15.074Q20.052 13.652 20.772 12.284Q21.276 11.312 21.906 10.61Q22.536 9.908 23.238 9.386Q23.94 8.864 24.642 8.468ZM36.432 7.568Q37.512 7.964 38.25 8.756Q38.988 9.548 39.384 10.538Q39.78 11.528 39.834 12.572Q39.888 13.616 39.6 14.516Q39.204 15.524 38.592 16.496Q37.98 17.468 37.188 18.224Q36.396 18.98 35.388 19.448Q34.38 19.916 33.156 19.916Q31.68 19.916 30.672 19.232Q29.664 18.548 29.088 17.468Q28.512 16.388 28.35 15.02Q28.188 13.652 28.404 12.284Q28.548 11.276 28.89 10.322Q29.232 9.368 29.772 8.63Q30.312 7.892 31.014 7.424Q31.716 6.956 32.616 6.956Q33.12 6.956 33.876 7.154Q34.632 7.352 35.28 7.712Q35.748 7.28 36.432 7.568ZM68.04 12.95Q69.66 12.5 71.064 11.672Q71.676 11.276 71.802 10.772Q71.928 10.268 71.64 9.584Q71.136 8.36 69.876 7.676Q68.616 6.992 67.068 7.1Q65.772 7.172 64.8 7.676Q63.828 8.18 63.18 8.954Q62.532 9.728 62.226 10.736Q61.92 11.744 62.028 12.86Q62.136 14.048 62.568 15.164Q63 16.28 63.828 17.108Q64.8 18.044 66.024 18.368Q67.248 18.692 68.4 18.476Q69.732 18.26 70.812 17.45Q71.892 16.64 72.468 15.488Q72.612 14.588 72.108 14.408Q71.928 14.336 71.568 14.426Q71.208 14.516 70.884 14.804Q70.56 15.092 70.128 15.38Q69.696 15.668 69.174 15.902Q68.652 16.136 68.058 16.244Q67.464 16.352 66.888 16.28Q65.916 16.136 65.268 15.398Q64.62 14.66 64.548 13.4Q66.42 13.4 68.04 12.95ZM77.148 8.504Q77.184 9.08 77.274 9.926Q77.364 10.772 77.472 11.69Q77.58 12.608 77.706 13.508Q77.832 14.408 77.94 15.164L78.912 13.22Q79.488 12.068 80.118 11.006Q80.748 9.944 81.414 9.206Q82.08 8.468 82.62 8.468Q83.196 8.468 83.682 9.026Q84.168 9.584 84.528 10.376Q84.888 11.168 85.158 12.068Q85.428 12.968 85.608 13.652Q85.752 13.184 85.986 12.59Q86.22 11.996 86.49 11.366Q86.76 10.736 87.102 10.124Q87.444 9.512 87.84 9.044Q88.308 8.54 88.848 8.306Q89.388 8.072 89.64 8.072Q89.964 8.072 90.414 8.27Q90.864 8.468 91.332 8.792Q91.8 9.116 92.214 9.566Q92.628 10.016 92.88 10.484Q93.384 11.456 93.69 12.608Q93.996 13.76 94.14 14.804Q94.284 15.848 94.338 16.658Q94.392 17.468 94.428 17.792Q94.428 18.26 94.32 18.494Q94.212 18.728 93.924 18.872Q93.528 19.052 93.24 18.998Q92.952 18.944 92.772 18.764Q92.592 18.584 92.484 18.35Q92.376 18.116 92.34 17.936Q92.232 17.108 92.106 16.244Q91.98 15.38 91.836 14.57Q91.692 13.76 91.494 13.058Q91.296 12.356 91.08 11.816Q91.008 11.672 90.846 11.438Q90.684 11.204 90.486 10.988Q90.288 10.772 90.108 10.628Q89.928 10.484 89.856 10.448Q89.496 10.448 89.1 11.114Q88.704 11.78 88.344 12.716Q87.984 13.652 87.678 14.678Q87.372 15.704 87.228 16.424Q87.228 17.36 86.868 17.81Q86.508 18.26 86.112 18.26Q85.716 18.26 85.266 17.954Q84.816 17.648 84.672 17.252Q84.456 16.676 84.204 15.956Q83.952 15.236 83.682 14.48Q83.412 13.724 83.142 13.004Q82.872 12.284 82.62 11.708Q82.116 12.392 81.63 13.22Q81.144 14.048 80.694 14.912Q80.244 15.776 79.83 16.622Q79.416 17.468 79.056 18.116Q78.804 18.512 78.516 18.818Q78.228 19.124 77.832 19.124Q77.544 19.124 77.22 18.854Q76.896 18.584 76.608 18.188Q76.32 17.792 76.086 17.288Q75.852 16.784 75.744 16.28Q75.456 14.732 75.258 12.878Q75.06 11.024 74.88 9.26Q74.844 8.648 75.042 8.126Q75.24 7.604 75.816 7.424Q76.428 7.316 76.752 7.604Q77.076 7.892 77.148 8.504ZM35.064 10.196Q34.668 9.944 34.146 9.53Q33.624 9.116 33.228 9.116Q32.796 9.116 32.382 9.512Q31.968 9.908 31.662 10.43Q31.356 10.952 31.14 11.492Q30.924 12.032 30.852 12.356Q30.744 12.896 30.708 13.652Q30.672 14.408 30.816 15.146Q30.96 15.884 31.374 16.478Q31.788 17.072 32.616 17.324Q33.12 17.468 33.804 17.306Q34.488 17.144 35.154 16.712Q35.82 16.28 36.414 15.56Q37.008 14.84 37.332 13.904Q37.692 12.86 37.35 11.726Q37.008 10.592 35.964 10.088Q35.712 10.268 35.46 10.268Q35.208 10.268 35.064 10.196ZM66.15 9.476Q66.564 9.296 66.924 9.224Q67.716 9.08 68.49 9.242Q69.264 9.404 69.552 10.088Q69.156 10.34 68.562 10.556Q67.968 10.772 67.266 10.934Q66.564 11.096 65.826 11.204Q65.088 11.312 64.476 11.312Q64.512 10.88 64.782 10.538Q65.052 10.196 65.394 9.926Q65.736 9.656 66.15 9.476ZM49.5 9.674Q50.112 10.16 50.112 11.384Q50.112 12.212 49.752 12.95Q49.392 13.688 48.834 14.336Q48.276 14.984 47.628 15.506Q46.98 16.028 46.404 16.424Q46.224 15.596 46.098 14.552Q45.972 13.508 45.9 12.608Q45.864 12.068 46.026 11.492Q46.188 10.916 46.512 10.448Q46.836 9.98 47.268 9.656Q47.7 9.332 48.24 9.26Q48.888 9.188 49.5 9.674Z" />
    </g>
    <g id="you">
      <path d="M24.372 32.568Q25.452 32.964 26.19 33.756Q26.928 34.548 27.324 35.538Q27.72 36.528 27.774 37.572Q27.828 38.616 27.54 39.516Q27.144 40.524 26.532 41.496Q25.92 42.468 25.128 43.224Q24.336 43.98 23.328 44.448Q22.32 44.916 21.096 44.916Q19.62 44.916 18.612 44.232Q17.604 43.548 17.028 42.468Q16.452 41.388 16.29 40.02Q16.128 38.652 16.344 37.284Q16.488 36.276 16.83 35.322Q17.172 34.368 17.712 33.63Q18.252 32.892 18.954 32.424Q19.656 31.956 20.556 31.956Q21.06 31.956 21.816 32.154Q22.572 32.352 23.22 32.712Q23.688 32.28 24.372 32.568ZM33.3 36.618Q33.516 35.448 33.732 34.476Q33.876 33.9 33.426 33.36Q32.976 32.82 32.436 32.712Q32.148 32.64 31.932 32.874Q31.716 33.108 31.644 33.396Q31.464 34.08 31.23 35.16Q30.996 36.24 30.834 37.446Q30.672 38.652 30.654 39.876Q30.636 41.1 30.924 42.108Q31.68 44.628 33.12 44.808Q34.092 44.916 35.01 44.466Q35.928 44.016 36.774 43.206Q37.62 42.396 38.358 41.406Q39.096 40.416 39.636 39.444Q39.672 39.948 39.78 40.686Q39.888 41.424 40.014 42.234Q40.14 43.044 40.302 43.782Q40.464 44.52 40.644 45.024Q40.824 45.456 41.166 45.6Q41.508 45.744 41.832 45.672Q42.228 45.564 42.552 45.06Q42.876 44.556 42.768 44.16Q42.552 43.188 42.336 41.964Q42.12 40.74 41.922 39.444Q41.724 38.148 41.58 36.852Q41.436 35.556 41.364 34.476Q41.364 34.188 41.202 33.918Q41.04 33.648 40.842 33.45Q40.644 33.252 40.41 33.144Q40.176 33.036 39.996 33.072Q39.744 33.108 39.366 33.378Q38.988 33.648 38.988 33.936Q38.988 34.44 38.88 34.908Q38.772 35.376 38.628 35.808Q38.376 36.672 37.764 37.806Q37.152 38.94 36.396 39.912Q35.64 40.884 34.848 41.514Q34.056 42.144 33.444 42.036Q33.084 41.676 32.994 40.812Q32.904 39.948 32.994 38.868Q33.084 37.788 33.3 36.618ZM12.636 33.792Q12.744 35.736 12.87 37.716Q12.996 39.696 12.924 41.622Q12.852 43.548 12.546 45.384Q12.24 47.22 11.52 48.894Q10.8 50.568 9.594 52.008Q8.388 53.448 6.552 54.6Q6.264 54.78 5.922 54.816Q5.58 54.852 5.256 54.798Q4.932 54.744 4.68 54.618Q4.428 54.492 4.356 54.276Q4.248 53.952 4.464 53.556Q4.68 53.16 5.184 52.728Q6.768 51.54 7.848 50.208Q8.928 48.876 9.576 47.328Q10.224 45.78 10.422 43.962Q10.62 42.144 10.404 39.984Q9.972 40.524 9.396 41.1Q8.82 41.676 8.172 42.126Q7.524 42.576 6.84 42.882Q6.156 43.188 5.544 43.188Q5.04 43.188 4.536 42.972Q4.032 42.756 3.528 42.144Q2.952 41.388 2.502 40.434Q2.052 39.48 1.728 38.58Q1.404 37.68 1.206 36.96Q1.008 36.24 0.972 35.952Q0.9 35.592 0.972 35.268Q1.044 34.944 1.44 34.872Q1.98 34.764 2.448 34.944Q2.916 35.124 3.096 35.52Q3.24 35.916 3.492 36.744Q3.744 37.572 4.104 38.382Q4.464 39.192 4.878 39.804Q5.292 40.416 5.76 40.416Q6.3 40.416 7.038 39.876Q7.776 39.336 8.46 38.472Q9.144 37.608 9.63 36.546Q10.116 35.484 10.116 34.476Q10.116 34.26 10.188 33.972Q10.26 33.684 10.404 33.414Q10.548 33.144 10.746 32.946Q10.944 32.748 11.16 32.712Q11.736 32.64 12.186 33.018Q12.636 33.396 12.636 33.792ZM23.004 35.196Q22.608 34.944 22.086 34.53Q21.564 34.116 21.168 34.116Q20.736 34.116 20.322 34.512Q19.908 34.908 19.602 35.43Q19.296 35.952 19.08 36.492Q18.864 37.032 18.792 37.356Q18.684 37.896 18.648 38.652Q18.612 39.408 18.756 40.146Q18.9 40.884 19.314 41.478Q19.728 42.072 20.556 42.324Q21.06 42.468 21.744 42.306Q22.428 42.144 23.094 41.712Q23.76 41.28 24.354 40.56Q24.948 39.84 25.272 38.904Q25.632 37.86 25.29 36.726Q24.948 35.592 23.904 35.088Q23.652 35.268 23.4 35.268Q23.148 35.268 23.004 35.196Z" />
    </g>
    <g id="have">
      <path d="M3.978 56.128Q3.996 55.048 3.996 54.184Q3.996 53.536 3.672 52.978Q3.348 52.42 2.916 52.348Q2.44481 52.2826 2.14493 52.4788Q1.62 52.8224 1.62 53.968Q1.548 56.128 1.548 58.018Q1.548 59.908 1.602 61.708Q1.656 63.508 1.764 65.29Q1.872 67.072 2.052 69.016Q2.088 69.34 2.232 69.79Q2.376 70.24 2.574 70.654Q2.772 71.068 3.006 71.356Q3.24 71.644 3.528 71.644Q3.816 71.644 4.05 71.41Q4.284 71.176 4.428 70.528Q4.572 69.664 4.878 68.26Q5.184 66.856 5.67 65.488Q6.156 64.12 6.822 63.04Q7.488 61.96 8.388 61.78Q8.964 61.672 9.396 62.104Q9.828 62.536 10.134 63.31Q10.44 64.084 10.656 65.056Q10.872 66.028 11.016 66.982Q11.16 67.936 11.268 68.764Q11.376 69.592 11.484 70.024Q11.664 70.564 12.078 70.942Q12.492 71.32 12.78 71.32Q13.176 71.32 13.464 70.96Q13.752 70.6 13.752 70.024Q13.68 69.232 13.572 68.134Q13.464 67.036 13.23 65.83Q12.996 64.624 12.636 63.454Q12.276 62.284 11.754 61.33Q11.232 60.376 10.53 59.8Q9.828 59.224 8.928 59.224Q8.1 59.224 7.398 59.548Q6.696 59.872 6.066 60.412Q5.436 60.952 4.932 61.654Q4.428 62.356 4.068 63.076Q4.032 61.96 4.014 60.736Q3.996 59.512 3.978 58.36Q3.96 57.208 3.978 56.128ZM25.578 58.954Q25.488 57.82 25.344 56.812Q25.2 55.876 24.516 55.282Q23.832 54.688 22.572 54.724Q21.708 54.76 20.844 55.12Q19.98 55.48 19.152 56.038Q18.324 56.596 17.568 57.28Q16.812 57.964 16.2 58.612Q15.876 59.044 15.912 59.422Q15.948 59.8 16.236 60.088Q16.524 60.376 16.938 60.412Q17.352 60.448 17.676 60.124Q18.72 59.188 19.872 58.36Q21.024 57.532 21.888 57.244Q22.392 57.064 22.734 57.19Q23.076 57.316 23.148 57.856Q23.22 58.324 23.274 58.99Q23.328 59.656 23.364 60.412Q23.4 61.168 23.418 61.906Q23.436 62.644 23.436 63.256Q23.004 62.824 22.5 62.644Q21.996 62.464 21.51 62.446Q21.024 62.428 20.574 62.5Q20.124 62.572 19.872 62.68Q18.864 63.04 18.126 63.688Q17.388 64.336 16.956 65.146Q16.524 65.956 16.416 66.838Q16.308 67.72 16.524 68.548Q16.848 69.772 17.766 70.384Q18.684 70.996 19.836 70.816Q20.448 70.708 21.168 70.42Q21.888 70.132 22.608 69.754Q23.328 69.376 23.976 68.962Q24.624 68.548 25.128 68.188Q25.848 68.584 26.406 68.566Q26.964 68.548 27.18 67.9Q27.36 67.432 27.126 66.82Q26.892 66.208 25.74 65.416Q25.776 64.552 25.776 63.472Q25.776 62.392 25.722 61.24Q25.668 60.088 25.578 58.954ZM41.4 57.064Q40.824 58.036 40.248 58.972Q39.672 59.908 39.006 61.114Q38.34 62.32 37.476 63.904Q36.612 65.488 35.46 67.756Q35.172 68.296 34.884 68.62Q34.596 68.944 34.2 68.944Q33.66 68.944 33.354 68.638Q33.048 68.332 32.832 67.972Q31.644 65.992 30.492 63.58Q29.34 61.168 28.62 58.864Q28.548 58.684 28.638 58.45Q28.728 58.216 28.908 58.144Q29.268 57.964 29.844 58.108Q30.276 58.288 30.708 58.756Q31.14 59.224 31.392 59.728Q31.608 60.232 31.896 60.88Q32.184 61.528 32.526 62.266Q32.868 63.004 33.228 63.724Q33.588 64.444 33.948 65.02Q34.56 63.94 35.262 62.698Q35.964 61.456 36.684 60.178Q37.404 58.9 38.142 57.712Q38.88 56.524 39.6 55.588Q39.78 55.336 40.104 55.3Q40.428 55.264 40.824 55.552Q41.724 56.236 41.4 57.064ZM49.5 62.95Q51.12 62.5 52.524 61.672Q53.136 61.276 53.262 60.772Q53.388 60.268 53.1 59.584Q52.596 58.36 51.336 57.676Q50.076 56.992 48.528 57.1Q47.232 57.172 46.26 57.676Q45.288 58.18 44.64 58.954Q43.992 59.728 43.686 60.736Q43.38 61.744 43.488 62.86Q43.596 64.048 44.028 65.164Q44.46 66.28 45.288 67.108Q46.26 68.044 47.484 68.368Q48.708 68.692 49.86 68.476Q51.192 68.26 52.272 67.45Q53.352 66.64 53.928 65.488Q54.072 64.588 53.568 64.408Q53.388 64.336 53.028 64.426Q52.668 64.516 52.344 64.804Q52.02 65.092 51.588 65.38Q51.156 65.668 50.634 65.902Q50.112 66.136 49.518 66.244Q48.924 66.352 48.348 66.28Q47.376 66.136 46.728 65.398Q46.08 64.66 46.008 63.4Q47.88 63.4 49.5 62.95ZM47.61 59.476Q48.024 59.296 48.384 59.224Q49.176 59.08 49.95 59.242Q50.724 59.404 51.012 60.088Q50.616 60.34 50.022 60.556Q49.428 60.772 48.726 60.934Q48.024 61.096 47.286 61.204Q46.548 61.312 45.936 61.312Q45.972 60.88 46.242 60.538Q46.512 60.196 46.854 59.926Q47.196 59.656 47.61 59.476ZM20.178 65.002Q20.7 64.66 21.168 64.552Q21.456 64.516 21.798 64.768Q22.14 65.02 22.428 65.362Q22.716 65.704 22.932 66.046Q23.148 66.388 23.148 66.604Q22.5 67.216 21.402 67.738Q20.304 68.26 19.44 68.44Q19.152 68.512 18.918 68.404Q18.684 68.296 18.612 68.08Q18.432 67.504 18.63 66.91Q18.828 66.316 19.242 65.83Q19.656 65.344 20.178 65.002Z" />
    </g>
  </g>
  <g id="rising-trends" transform="translate(127.5 200)">
    <g id="rising">
      <path d="M19.944 5.84Q20.376 5.804 20.448 5.444Q20.52 4.94 20.178 4.58Q19.836 4.22 19.26 4.04Q18.864 3.932 18.252 3.914Q17.64 3.896 16.974 3.968Q16.308 4.04 15.66 4.202Q15.012 4.364 14.544 4.58Q14.256 4.724 14.04 4.904Q13.824 5.084 13.824 5.372Q13.932 6.128 14.436 6.38Q14.94 6.632 15.372 6.488Q16.416 6.2 17.37 6.056Q18.324 5.912 19.224 5.876Q19.512 5.876 19.944 5.84ZM40.86 5.84Q41.292 5.804 41.364 5.444Q41.436 4.94 41.094 4.58Q40.752 4.22 40.176 4.04Q39.78 3.932 39.168 3.914Q38.556 3.896 37.89 3.968Q37.224 4.04 36.576 4.202Q35.928 4.364 35.46 4.58Q35.172 4.724 34.956 4.904Q34.74 5.084 34.74 5.372Q34.848 6.128 35.352 6.38Q35.856 6.632 36.288 6.488Q37.332 6.2 38.286 6.056Q39.24 5.912 40.14 5.876Q40.428 5.876 40.86 5.84ZM29.844 9.368Q29.772 8.972 29.7 8.612Q29.628 8.252 29.34 8.144Q28.728 7.964 28.044 8.108Q27.36 8.252 26.784 8.558Q26.208 8.864 25.812 9.242Q25.416 9.62 25.38 9.908Q25.272 10.448 25.668 10.952Q26.064 11.456 26.82 11.96Q28.08 12.716 29.448 13.508Q30.816 14.3 31.752 15.128Q32.688 15.956 33.03 16.946Q33.372 17.936 32.868 19.196Q32.472 20.168 31.392 20.78Q30.312 21.392 29.016 21.734Q27.72 22.076 26.424 22.202Q25.128 22.328 24.228 22.328Q24.012 22.328 23.706 22.166Q23.4 22.004 23.13 21.788Q22.86 21.572 22.662 21.338Q22.464 21.104 22.464 20.924Q22.464 20.276 23.04 20.024Q23.616 19.772 24.228 19.772Q25.092 19.772 26.082 19.682Q27.072 19.592 27.972 19.394Q28.872 19.196 29.592 18.872Q30.312 18.548 30.6 18.044Q30.852 17.612 30.294 17.018Q29.736 16.424 28.818 15.776Q27.9 15.128 26.838 14.516Q25.776 13.904 25.02 13.4Q24.264 12.896 23.724 12.194Q23.184 11.492 23.04 10.448Q23.004 9.512 23.436 8.648Q23.868 7.784 24.57 7.118Q25.272 6.452 26.172 6.056Q27.072 5.66 27.972 5.66Q29.52 5.732 30.528 6.506Q31.536 7.28 31.716 8.792Q31.716 9.296 31.554 9.62Q31.392 9.944 30.996 10.016Q30.492 10.088 30.186 9.89Q29.88 9.692 29.844 9.368ZM10.89 8.468Q11.592 8.072 12.24 7.712Q12.708 7.388 12.798 6.992Q12.888 6.596 12.744 6.416Q12.6 6.236 12.24 6.164Q11.88 6.092 11.34 6.164Q10.08 6.38 8.874 7.028Q7.668 7.676 6.714 8.612Q5.76 9.548 5.112 10.7Q4.464 11.852 4.32 13.076Q4.104 12.032 3.888 10.574Q3.672 9.116 3.528 7.784Q3.456 7.388 3.06 7.208Q2.664 7.028 2.232 6.992Q1.836 6.956 1.53 7.1Q1.224 7.244 1.224 7.748Q1.512 10.232 1.908 12.734Q2.304 15.236 2.916 17.792Q3.06 18.44 3.474 19.142Q3.888 19.844 4.572 19.844Q5.112 19.844 5.418 19.178Q5.724 18.512 5.724 17.864Q5.796 16.496 6.048 15.074Q6.3 13.652 7.02 12.284Q7.524 11.312 8.154 10.61Q8.784 9.908 9.486 9.386Q10.188 8.864 10.89 8.468ZM46.332 8.252Q46.44 8.792 46.566 9.458Q46.692 10.124 46.836 10.826Q46.98 11.528 47.088 12.248Q47.196 12.968 47.268 13.616Q47.7 12.68 48.204 11.636Q48.708 10.592 49.302 9.71Q49.896 8.828 50.562 8.252Q51.228 7.676 52.02 7.676Q53.208 7.676 54.018 8.54Q54.828 9.404 55.386 10.682Q55.944 11.96 56.268 13.364Q56.592 14.768 56.808 15.848Q57.024 16.82 55.944 17.288Q55.44 17.54 55.188 17.36Q54.936 17.18 54.9 17Q54.72 16.568 54.45 15.488Q54.18 14.408 53.838 13.292Q53.496 12.176 53.064 11.348Q52.632 10.52 52.092 10.592Q51.444 10.628 50.94 11.564Q50.508 12.32 50.058 13.238Q49.608 14.156 49.176 15.11Q48.744 16.064 48.33 17.018Q47.916 17.972 47.556 18.764Q47.304 19.016 46.926 19.106Q46.548 19.196 46.152 19.052Q45.792 18.944 45.576 18.692Q45.36 18.44 45.36 18.188Q45.036 15.38 44.694 13.076Q44.352 10.772 43.812 8.36Q43.56 7.532 43.722 7.046Q43.884 6.56 44.784 6.668Q46.044 6.884 46.332 8.252ZM66.402 11.186Q66.132 10.592 65.844 10.196Q66.096 9.944 66.096 9.404Q66.096 8.864 65.7 8.576Q65.484 8.432 65.178 8.36Q64.872 8.288 64.548 8.27Q64.224 8.252 63.918 8.288Q63.612 8.324 63.432 8.36Q61.164 9.296 60.138 10.97Q59.112 12.644 59.04 14.804Q59.04 15.704 59.274 16.532Q59.508 17.36 59.904 17.99Q60.3 18.62 60.822 19.016Q61.344 19.412 61.956 19.448Q62.532 19.484 63.09 19.34Q63.648 19.196 64.116 18.944Q64.584 18.692 64.962 18.404Q65.34 18.116 65.592 17.864Q65.736 18.296 65.934 19.142Q66.132 19.988 66.258 20.924Q66.384 21.86 66.384 22.814Q66.384 23.768 66.132 24.416Q65.808 25.244 65.214 25.856Q64.62 26.468 63.9 26.9Q63.18 27.332 62.37 27.566Q61.56 27.8 60.804 27.872Q60.372 27.944 59.958 28.178Q59.544 28.412 59.58 28.808Q59.58 29.204 60.048 29.582Q60.516 29.96 60.948 29.996Q62.892 29.924 64.44 29.24Q65.988 28.556 67.032 27.404Q68.076 26.252 68.526 24.794Q68.976 23.336 68.76 21.752Q68.58 20.6 68.346 19.34Q68.112 18.08 67.842 16.856Q67.572 15.632 67.302 14.498Q67.032 13.364 66.816 12.392Q66.672 11.78 66.402 11.186ZM19.89 18.674Q19.872 18.008 19.62 17.432Q19.404 16.964 19.26 16.226Q19.116 15.488 19.008 14.696Q18.9 13.904 18.864 13.112Q18.828 12.32 18.828 11.672Q18.864 10.844 18.468 10.286Q18.072 9.728 17.424 9.692Q17.028 9.764 16.776 10.196Q16.524 10.628 16.488 11.132Q16.488 11.6 16.506 12.536Q16.524 13.472 16.632 14.552Q16.74 15.632 16.956 16.73Q17.172 17.828 17.568 18.584Q17.856 19.196 18.432 19.556Q19.008 19.916 19.512 19.592Q19.908 19.34 19.89 18.674ZM40.806 18.674Q40.788 18.008 40.536 17.432Q40.32 16.964 40.176 16.226Q40.032 15.488 39.924 14.696Q39.816 13.904 39.78 13.112Q39.744 12.32 39.744 11.672Q39.78 10.844 39.384 10.286Q38.988 9.728 38.34 9.692Q37.944 9.764 37.692 10.196Q37.44 10.628 37.404 11.132Q37.404 11.6 37.422 12.536Q37.44 13.472 37.548 14.552Q37.656 15.632 37.872 16.73Q38.088 17.828 38.484 18.584Q38.772 19.196 39.348 19.556Q39.924 19.916 40.428 19.592Q40.824 19.34 40.806 18.674ZM61.38 16.01Q61.308 15.524 61.308 15.128Q61.308 14.264 61.578 13.544Q61.848 12.824 62.244 12.23Q62.64 11.636 63.126 11.24Q63.612 10.844 64.044 10.628Q64.116 11.348 64.332 12.248Q64.548 13.148 64.728 13.976Q64.908 14.804 64.746 15.29Q64.584 15.776 64.08 16.172Q63.54 16.604 62.91 16.784Q62.28 16.964 61.848 16.712Q61.452 16.496 61.38 16.01Z" />
    </g>
    <g id="trends">
      <path d="M63.072 26.88Q62.964 26.232 63.162 25.692Q63.36 25.152 63.972 25.08Q64.512 25.008 64.926 25.368Q65.34 25.728 65.448 26.304Q66.168 30.444 66.798 34.53Q67.428 38.616 67.932 42.54Q68.076 43.584 67.788 43.962Q67.5 44.34 67.104 44.52Q66.672 44.7 66.294 44.52Q65.916 44.34 65.808 43.872L65.772 43.656L65.628 43.692Q64.44 44.124 63.144 44.178Q61.848 44.232 60.66 43.872Q59.472 43.512 58.554 42.702Q57.636 41.892 57.24 40.632Q56.376 37.86 58.32 35.592Q59.148 34.656 60.372 33.9Q61.596 33.144 63.324 32.712L63.972 32.568L63.072 26.88ZM11.016 35.808Q10.332 35.448 9.648 35.484Q9.036 35.52 8.37 35.538Q7.704 35.556 6.984 35.628Q7.092 34.008 7.218 32.46Q7.344 30.912 7.488 29.688Q7.488 29.256 6.93 28.914Q6.372 28.572 5.76 28.608Q5.508 28.608 5.292 28.932Q5.076 29.256 5.04 29.688Q4.932 30.984 4.788 32.568Q4.644 34.152 4.536 35.844Q2.736 36.024 1.26 36.276Q0.648 36.456 0.468 36.816Q0.288 37.176 0.288 37.392Q0.288 38.004 0.846 38.22Q1.404 38.436 1.872 38.436Q2.448 38.364 3.078 38.31Q3.708 38.256 4.392 38.184Q4.32 39.876 4.266 41.388Q4.212 42.9 4.284 44.052Q4.356 45.204 4.968 45.96Q5.58 46.716 6.768 46.608Q7.56 46.536 8.586 46.158Q9.612 45.78 10.62 45.276Q11.628 44.772 12.51 44.214Q13.392 43.656 13.932 43.224Q14.4 42.756 14.58 42.18Q14.76 41.604 14.688 41.208Q14.616 40.956 14.31 40.884Q14.004 40.812 13.644 40.992Q12.852 41.388 11.97 41.838Q11.088 42.288 10.17 42.702Q9.252 43.116 8.334 43.458Q7.416 43.8 6.624 43.944Q6.588 43.908 6.588 43.404Q6.588 42.9 6.624 42.09Q6.66 41.28 6.714 40.236Q6.768 39.192 6.84 38.004Q7.704 37.932 8.532 37.896Q9.36 37.86 10.08 37.86Q10.44 37.86 11.034 37.698Q11.628 37.536 11.7 36.924Q11.7 36.168 11.016 35.808ZM76.428 33.612Q76.5 33.972 76.572 34.368Q76.608 34.692 76.914 34.89Q77.22 35.088 77.724 35.016Q78.12 34.944 78.282 34.62Q78.444 34.296 78.444 33.792Q78.264 32.28 77.256 31.506Q76.248 30.732 74.7 30.66Q73.8 30.66 72.9 31.056Q72 31.452 71.298 32.118Q70.596 32.784 70.164 33.648Q69.732 34.512 69.768 35.448Q69.912 36.492 70.452 37.194Q70.992 37.896 71.748 38.4Q72.504 38.904 73.566 39.516Q74.628 40.128 75.546 40.776Q76.464 41.424 77.022 42.018Q77.58 42.612 77.328 43.044Q77.04 43.548 76.32 43.872Q75.6 44.196 74.7 44.394Q73.8 44.592 72.81 44.682Q71.82 44.772 70.956 44.772Q70.344 44.772 69.768 45.024Q69.192 45.276 69.192 45.924Q69.192 46.104 69.39 46.338Q69.588 46.572 69.858 46.788Q70.128 47.004 70.434 47.166Q70.74 47.328 70.956 47.328Q71.856 47.328 73.152 47.202Q74.448 47.076 75.744 46.734Q77.04 46.392 78.12 45.78Q79.2 45.168 79.596 44.196Q80.1 42.936 79.758 41.946Q79.416 40.956 78.48 40.128Q77.544 39.3 76.176 38.508Q74.808 37.716 73.548 36.96Q72.792 36.456 72.396 35.952Q72 35.448 72.108 34.908Q72.144 34.62 72.54 34.242Q72.936 33.864 73.512 33.558Q74.088 33.252 74.772 33.108Q75.456 32.964 76.068 33.144Q76.356 33.252 76.428 33.612ZM25.578 33.468Q26.28 33.072 26.928 32.712Q27.396 32.388 27.486 31.992Q27.576 31.596 27.432 31.416Q27.288 31.236 26.928 31.164Q26.568 31.092 26.028 31.164Q24.768 31.38 23.562 32.028Q22.356 32.676 21.402 33.612Q20.448 34.548 19.8 35.7Q19.152 36.852 19.008 38.076Q18.792 37.032 18.576 35.574Q18.36 34.116 18.216 32.784Q18.144 32.388 17.748 32.208Q17.352 32.028 16.92 31.992Q16.524 31.956 16.218 32.1Q15.912 32.244 15.912 32.748Q16.2 35.232 16.596 37.734Q16.992 40.236 17.604 42.792Q17.748 43.44 18.162 44.142Q18.576 44.844 19.26 44.844Q19.8 44.844 20.106 44.178Q20.412 43.512 20.412 42.864Q20.484 41.496 20.736 40.074Q20.988 38.652 21.708 37.284Q22.212 36.312 22.842 35.61Q23.472 34.908 24.174 34.386Q24.876 33.864 25.578 33.468ZM44.262 34.458Q44.136 33.792 44.028 33.252Q43.74 31.884 42.48 31.668Q41.58 31.56 41.418 32.046Q41.256 32.532 41.508 33.36Q42.048 35.772 42.39 38.076Q42.732 40.38 43.056 43.188Q43.056 43.44 43.272 43.692Q43.488 43.944 43.848 44.052Q44.244 44.196 44.622 44.106Q45 44.016 45.252 43.764Q45.612 42.972 46.026 42.018Q46.44 41.064 46.872 40.11Q47.304 39.156 47.754 38.238Q48.204 37.32 48.636 36.564Q49.14 35.628 49.788 35.592Q50.328 35.52 50.76 36.348Q51.192 37.176 51.534 38.292Q51.876 39.408 52.146 40.488Q52.416 41.568 52.596 42Q52.632 42.18 52.884 42.36Q53.136 42.54 53.64 42.288Q54.72 41.82 54.504 40.848Q54.288 39.768 53.964 38.364Q53.64 36.96 53.082 35.682Q52.524 34.404 51.714 33.54Q50.904 32.676 49.716 32.676Q48.924 32.676 48.258 33.252Q47.592 33.828 46.998 34.71Q46.404 35.592 45.9 36.636Q45.396 37.68 44.964 38.616Q44.892 37.968 44.784 37.248Q44.676 36.528 44.532 35.826Q44.388 35.124 44.262 34.458ZM37.8 36.672Q36.396 37.5 34.776 37.95Q33.156 38.4 31.284 38.4Q31.356 39.66 32.004 40.398Q32.652 41.136 33.624 41.28Q34.2 41.352 34.794 41.244Q35.388 41.136 35.91 40.902Q36.432 40.668 36.864 40.38Q37.296 40.092 37.62 39.804Q37.944 39.516 38.304 39.426Q38.664 39.336 38.844 39.408Q39.348 39.588 39.204 40.488Q38.628 41.64 37.548 42.45Q36.468 43.26 35.136 43.476Q33.984 43.692 32.76 43.368Q31.536 43.044 30.564 42.108Q29.736 41.28 29.304 40.164Q28.872 39.048 28.764 37.86Q28.656 36.744 28.962 35.736Q29.268 34.728 29.916 33.954Q30.564 33.18 31.536 32.676Q32.508 32.172 33.804 32.1Q35.352 31.992 36.612 32.676Q37.872 33.36 38.376 34.584Q38.664 35.268 38.538 35.772Q38.412 36.276 37.8 36.672ZM33.66 34.224Q33.3 34.296 32.886 34.476Q32.472 34.656 32.13 34.926Q31.788 35.196 31.518 35.538Q31.248 35.88 31.212 36.312Q31.824 36.312 32.562 36.204Q33.3 36.096 34.002 35.934Q34.704 35.772 35.298 35.556Q35.892 35.34 36.288 35.088Q36 34.404 35.226 34.242Q34.452 34.08 33.66 34.224ZM59.436 39.732Q59.652 40.596 60.228 41.064Q60.804 41.532 61.596 41.694Q62.388 41.856 63.288 41.748Q64.188 41.64 65.052 41.352L65.376 41.244L64.368 34.908L63.648 35.088Q62.892 35.304 62.046 35.754Q61.2 36.204 60.552 36.816Q59.904 37.428 59.562 38.184Q59.22 38.94 59.436 39.732Z" />
    </g>
  </g>
  <path d="M0 0L44 80" transform="translate(49.5 59)" id="New-shape" fill="none" stroke="#808080" stroke-width="2" />
  <path d="M0 9L14.5 16.5L13.51 0.164642L13.5 0" transform="translate(84 130.5)" id="New-shape-2" fill="none" stroke="#808080" stroke-width="2" />
  <path d="M123.505 0L0 140.687" transform="translate(313.9954 79)" id="New-shape-3" fill="none" stroke="#808080" stroke-width="2" />
  <path d="M0 9L14.5 16.5L13.51 0.164642L13.5 0" transform="matrix(0.4226183 0.9063078 -0.9063078 0.4226183 317.6841 207.4848)" id="New-shape-4" fill="none" stroke="#808080" stroke-width="2" />
</svg>