<?xml version="1.0" encoding="utf-8"?>
<svg width="472px" height="372px" viewBox="0 0 472 372" version="1.1" xmlns:xlink="http://www.w3.org/1999/xlink" xmlns="http://www.w3.org/2000/svg">
  <desc>Created with Lunacy</desc>
  <defs>
    <filter id="filter_1">
      <feColorMatrix in="SourceGraphic" type="matrix" values="0 0 0 0 1 0 0 0 0 1 0 0 0 0 1 0 0 0 1 0" />
    </filter>
    <path d="M0 0L22 0L22 22L0 22L0 0Z" id="path_1" />
    <clipPath id="mask_1">
      <use xlink:href="#path_1" />
    </clipPath>
  </defs>
  <path d="M1.999 0L89.001 0Q89.0992 0 89.1969 0.00962573Q89.2947 0.0192515 89.391 0.0384102Q89.4873 0.057569 89.5813 0.0860763Q89.6752 0.114584 89.766 0.152165Q89.8567 0.189746 89.9433 0.236039Q90.0299 0.282333 90.1116 0.336892Q90.1932 0.391452 90.2691 0.453752Q90.3451 0.516052 90.4145 0.585494Q90.4839 0.654935 90.5462 0.730848Q90.6085 0.806761 90.6631 0.888415Q90.7177 0.970069 90.764 1.05668Q90.8102 1.14329 90.8478 1.23402Q90.8854 1.32474 90.9139 1.41872Q90.9424 1.5127 90.9616 1.60901Q90.9807 1.70533 90.9904 1.80306Q91 1.9008 91 1.999L91 91.8448Q91 91.943 90.9904 92.0407Q90.9807 92.1385 90.9616 92.2348Q90.9424 92.3311 90.9139 92.4251Q90.8854 92.519 90.8478 92.6098Q90.8102 92.7005 90.7639 92.7871Q90.7177 92.8737 90.6631 92.9554Q90.6085 93.037 90.5462 93.1129Q90.4839 93.1889 90.4145 93.2583Q90.3451 93.3277 90.2691 93.39Q90.1932 93.4523 90.1116 93.5069Q90.0299 93.5614 89.9433 93.6077Q89.8567 93.654 89.766 93.6916Q89.6753 93.7292 89.5813 93.7577Q89.4873 93.7862 89.391 93.8054Q89.2947 93.8245 89.1969 93.8342Q89.0992 93.8438 89.001 93.8438L1.999 93.8438Q1.9008 93.8438 1.80306 93.8342Q1.70533 93.8245 1.60901 93.8054Q1.5127 93.7862 1.41872 93.7577Q1.32474 93.7292 1.23402 93.6916Q1.14329 93.654 1.05668 93.6077Q0.970069 93.5614 0.888415 93.5069Q0.806761 93.4523 0.730848 93.39Q0.654935 93.3277 0.585494 93.2583Q0.516052 93.1889 0.453752 93.1129Q0.391452 93.037 0.336892 92.9554Q0.282333 92.8737 0.236039 92.7871Q0.189746 92.7005 0.152165 92.6098Q0.114584 92.519 0.0860763 92.4251Q0.057569 92.3311 0.0384102 92.2348Q0.0192515 92.1385 0.00962573 92.0407Q0 91.943 0 91.8448L0 1.999Q0 1.9008 0.00962573 1.80306Q0.0192515 1.70533 0.0384102 1.60901Q0.057569 1.5127 0.0860763 1.41872Q0.114584 1.32474 0.152165 1.23402Q0.189746 1.14329 0.236039 1.05668Q0.282333 0.970069 0.336892 0.888415Q0.391452 0.806761 0.453752 0.730848Q0.516052 0.654935 0.585494 0.585494Q0.654935 0.516052 0.730848 0.453752Q0.806761 0.391452 0.888415 0.336892Q0.970069 0.282333 1.05668 0.236039Q1.14329 0.189746 1.23402 0.152165Q1.32474 0.114584 1.41872 0.0860763Q1.5127 0.057569 1.60901 0.0384102Q1.70533 0.0192515 1.80306 0.00962573Q1.9008 0 1.999 0L1.999 0Z" transform="translate(193 35.84381)" id="Rectangle-4" fill="#000000" stroke="none" />
  <g id="Browser" fill="#FFFFFF" transform="translate(213 62.84381)">
    <path d="M2.718 14.496Q2.538 14.424 2.349 14.226Q2.16 14.028 2.124 13.884Q2.034 13.524 1.926 13.002Q1.818 12.48 1.71 11.886Q1.602 11.292 1.503 10.671Q1.404 10.05 1.314 9.483Q1.224 8.916 1.17 8.466Q1.116 8.016 1.098 7.746Q1.098 7.458 1.296 7.422Q1.764 7.368 1.962 7.764Q2.052 8.088 2.16 8.502Q2.268 8.916 2.376 9.402Q2.808 9.24 3.15 8.988Q3.492 8.736 3.717 8.439Q3.942 8.142 4.041 7.827Q4.14 7.512 4.068 7.206Q3.978 6.864 3.564 6.702Q3.15 6.54 2.628 6.54Q1.908 6.54 1.341 6.801Q0.774 7.062 0.306 7.44Q0.09 7.602 -0.171 7.539Q-0.432 7.476 -0.522 7.206Q-0.522 6.954 -0.432 6.774Q-0.342 6.594 -0.198 6.45Q0.36 5.874 1.125 5.64Q1.89 5.406 2.736 5.406Q3.42 5.406 4.059 5.622Q4.698 5.838 5.148 6.396Q5.364 6.756 5.373 7.152Q5.382 7.548 5.256 7.926Q5.13 8.304 4.905 8.646Q4.68 8.988 4.446 9.24Q4.896 9.204 5.364 9.321Q5.832 9.438 6.201 9.717Q6.57 9.996 6.804 10.446Q7.038 10.896 7.038 11.526Q7.038 12.246 6.723 12.84Q6.408 13.434 5.895 13.848Q5.382 14.262 4.725 14.496Q4.068 14.73 3.366 14.73Q3.06 14.73 2.88 14.55Q2.79 14.55 2.718 14.496ZM35.46 8.556Q35.496 8.736 35.532 8.934Q35.55 9.096 35.703 9.195Q35.856 9.294 36.108 9.258Q36.306 9.222 36.387 9.06Q36.468 8.898 36.468 8.646Q36.378 7.89 35.874 7.503Q35.37 7.116 34.596 7.08Q34.146 7.08 33.696 7.278Q33.246 7.476 32.895 7.809Q32.544 8.142 32.328 8.574Q32.112 9.006 32.13 9.474Q32.202 9.996 32.472 10.347Q32.742 10.698 33.12 10.95Q33.498 11.202 34.029 11.508Q34.56 11.814 35.019 12.138Q35.478 12.462 35.757 12.759Q36.036 13.056 35.91 13.272Q35.766 13.524 35.406 13.686Q35.046 13.848 34.596 13.947Q34.146 14.046 33.651 14.091Q33.156 14.136 32.724 14.136Q32.418 14.136 32.13 14.262Q31.842 14.388 31.842 14.712Q31.842 14.802 31.941 14.919Q32.04 15.036 32.175 15.144Q32.31 15.252 32.463 15.333Q32.616 15.414 32.724 15.414Q33.174 15.414 33.822 15.351Q34.47 15.288 35.118 15.117Q35.766 14.946 36.306 14.64Q36.846 14.334 37.044 13.848Q37.296 13.218 37.125 12.723Q36.954 12.228 36.486 11.814Q36.018 11.4 35.334 11.004Q34.65 10.608 34.02 10.23Q33.642 9.978 33.444 9.726Q33.246 9.474 33.3 9.204Q33.318 9.06 33.516 8.871Q33.714 8.682 34.002 8.529Q34.29 8.376 34.632 8.304Q34.974 8.232 35.28 8.322Q35.424 8.376 35.46 8.556ZM13.59 8.106Q13.266 8.286 12.915 8.484Q12.564 8.682 12.213 8.943Q11.862 9.204 11.547 9.555Q11.232 9.906 10.98 10.392Q10.62 11.076 10.494 11.787Q10.368 12.498 10.332 13.182Q10.332 13.506 10.179 13.839Q10.026 14.172 9.756 14.172Q9.414 14.172 9.207 13.821Q9 13.47 8.928 13.146Q8.622 11.868 8.424 10.617Q8.226 9.366 8.082 8.124Q8.082 7.872 8.235 7.8Q8.388 7.728 8.586 7.746Q8.802 7.764 9 7.854Q9.198 7.944 9.234 8.142Q9.306 8.808 9.414 9.537Q9.522 10.266 9.63 10.788Q9.702 10.176 10.026 9.6Q10.35 9.024 10.827 8.556Q11.304 8.088 11.907 7.764Q12.51 7.44 13.14 7.332Q13.41 7.296 13.59 7.332Q13.77 7.368 13.842 7.458Q13.914 7.548 13.869 7.746Q13.824 7.944 13.59 8.106ZM49.293 8.484Q49.644 8.286 49.968 8.106Q50.202 7.944 50.247 7.746Q50.292 7.548 50.22 7.458Q50.148 7.368 49.968 7.332Q49.788 7.296 49.518 7.332Q48.888 7.44 48.285 7.764Q47.682 8.088 47.205 8.556Q46.728 9.024 46.404 9.6Q46.08 10.176 46.008 10.788Q45.9 10.266 45.792 9.537Q45.684 8.808 45.612 8.142Q45.576 7.944 45.378 7.854Q45.18 7.764 44.964 7.746Q44.766 7.728 44.613 7.8Q44.46 7.872 44.46 8.124Q44.604 9.366 44.802 10.617Q45 11.868 45.306 13.146Q45.378 13.47 45.585 13.821Q45.792 14.172 46.134 14.172Q46.404 14.172 46.557 13.839Q46.71 13.506 46.71 13.182Q46.746 12.498 46.872 11.787Q46.998 11.076 47.358 10.392Q47.61 9.906 47.925 9.555Q48.24 9.204 48.591 8.943Q48.942 8.682 49.293 8.484ZM19.719 8.628Q19.35 8.232 18.81 8.034Q18.468 7.89 18.234 8.106Q17.91 7.926 17.532 7.827Q17.154 7.728 16.902 7.728Q16.452 7.728 16.101 7.962Q15.75 8.196 15.48 8.565Q15.21 8.934 15.039 9.411Q14.868 9.888 14.796 10.392Q14.688 11.076 14.769 11.76Q14.85 12.444 15.138 12.984Q15.426 13.524 15.93 13.866Q16.434 14.208 17.172 14.208Q17.784 14.208 18.288 13.974Q18.792 13.74 19.188 13.362Q19.584 12.984 19.89 12.498Q20.196 12.012 20.394 11.508Q20.538 11.058 20.511 10.536Q20.484 10.014 20.286 9.519Q20.088 9.024 19.719 8.628ZM42.624 10.086Q41.922 10.5 41.112 10.725Q40.302 10.95 39.366 10.95Q39.402 11.58 39.726 11.949Q40.05 12.318 40.536 12.39Q40.824 12.426 41.121 12.372Q41.418 12.318 41.679 12.201Q41.94 12.084 42.156 11.94Q42.372 11.796 42.534 11.652Q42.696 11.508 42.876 11.463Q43.056 11.418 43.146 11.454Q43.398 11.544 43.326 11.994Q43.038 12.57 42.498 12.975Q41.958 13.38 41.292 13.488Q40.716 13.596 40.104 13.434Q39.492 13.272 39.006 12.804Q38.592 12.39 38.376 11.832Q38.16 11.274 38.106 10.68Q38.052 10.122 38.205 9.618Q38.358 9.114 38.682 8.727Q39.006 8.34 39.492 8.088Q39.978 7.836 40.626 7.8Q41.4 7.746 42.03 8.088Q42.66 8.43 42.912 9.042Q43.056 9.384 42.993 9.636Q42.93 9.888 42.624 10.086ZM28.35 13.902Q28.206 14.1 28.026 14.163Q27.846 14.226 27.702 14.226Q27.45 14.208 27.234 14.055Q27.018 13.902 26.964 13.74Q26.856 13.434 26.73 13.056Q26.604 12.678 26.487 12.291Q26.37 11.904 26.244 11.535Q26.118 11.166 26.01 10.86Q25.65 11.49 25.326 12.129Q25.002 12.768 24.606 13.452Q24.426 13.722 24.192 13.821Q23.958 13.92 23.796 13.902Q23.562 13.884 23.373 13.722Q23.184 13.56 23.076 13.416Q22.878 13.092 22.68 12.579Q22.482 12.066 22.311 11.499Q22.14 10.932 21.996 10.365Q21.852 9.798 21.762 9.348Q21.708 9.042 21.771 8.772Q21.834 8.502 22.086 8.466Q22.392 8.448 22.644 8.673Q22.896 8.898 22.932 9.114Q23.004 9.474 23.103 9.897Q23.202 10.32 23.319 10.752Q23.436 11.184 23.553 11.598Q23.67 12.012 23.796 12.336Q24.066 11.904 24.399 11.337Q24.732 10.77 25.038 10.239Q25.344 9.708 25.596 9.312Q25.848 8.916 25.992 8.826Q26.1 8.754 26.298 8.835Q26.496 8.916 26.586 9.06Q26.982 9.852 27.243 10.797Q27.504 11.742 27.756 12.552Q28.008 12.228 28.296 11.697Q28.584 11.166 28.854 10.572Q29.124 9.978 29.358 9.384Q29.592 8.79 29.736 8.322Q29.88 7.836 30.132 7.854Q30.456 7.89 30.69 8.07Q30.924 8.25 30.87 8.448Q30.474 10.032 29.844 11.355Q29.214 12.678 28.35 13.902ZM17.667 9.015Q17.928 9.222 18.126 9.348Q18.198 9.384 18.324 9.384Q18.45 9.384 18.576 9.294Q19.098 9.546 19.269 10.113Q19.44 10.68 19.26 11.202Q19.098 11.67 18.801 12.03Q18.504 12.39 18.171 12.606Q17.838 12.822 17.496 12.903Q17.154 12.984 16.902 12.912Q16.488 12.786 16.281 12.489Q16.074 12.192 16.002 11.823Q15.93 11.454 15.948 11.076Q15.966 10.698 16.02 10.428Q16.056 10.266 16.164 9.996Q16.272 9.726 16.425 9.465Q16.578 9.204 16.785 9.006Q16.992 8.808 17.208 8.808Q17.406 8.808 17.667 9.015ZM40.554 8.862Q40.374 8.898 40.167 8.988Q39.96 9.078 39.789 9.213Q39.618 9.348 39.483 9.519Q39.348 9.69 39.33 9.906Q39.636 9.906 40.005 9.852Q40.374 9.798 40.725 9.717Q41.076 9.636 41.373 9.528Q41.67 9.42 41.868 9.294Q41.724 8.952 41.337 8.871Q40.95 8.79 40.554 8.862ZM2.646 10.716Q2.79 11.418 2.916 12.174Q3.042 12.93 3.186 13.686L3.258 13.686Q3.654 13.686 4.131 13.542Q4.608 13.398 5.022 13.119Q5.436 12.84 5.706 12.435Q5.976 12.03 5.958 11.526Q5.868 11.076 5.544 10.842Q5.22 10.608 4.761 10.536Q4.302 10.464 3.753 10.527Q3.204 10.59 2.646 10.716Z" />
  </g>
  <path d="M1.999 0L89.001 0Q89.0992 0 89.1969 0.00962573Q89.2947 0.0192515 89.391 0.0384102Q89.4873 0.057569 89.5813 0.0860763Q89.6752 0.114584 89.766 0.152165Q89.8567 0.189746 89.9433 0.236039Q90.0299 0.282333 90.1116 0.336892Q90.1932 0.391452 90.2691 0.453752Q90.3451 0.516052 90.4145 0.585494Q90.4839 0.654935 90.5462 0.730848Q90.6085 0.806761 90.6631 0.888415Q90.7177 0.970069 90.764 1.05668Q90.8102 1.14329 90.8478 1.23402Q90.8854 1.32474 90.9139 1.41872Q90.9424 1.5127 90.9616 1.60901Q90.9807 1.70533 90.9904 1.80306Q91 1.9008 91 1.999L91 57.001Q91 57.0992 90.9904 57.1969Q90.9807 57.2947 90.9616 57.391Q90.9424 57.4873 90.9139 57.5813Q90.8854 57.6753 90.8478 57.766Q90.8102 57.8567 90.7639 57.9433Q90.7177 58.0299 90.6631 58.1116Q90.6085 58.1932 90.5462 58.2691Q90.4839 58.3451 90.4145 58.4145Q90.3451 58.484 90.2691 58.5462Q90.1932 58.6086 90.1116 58.6631Q90.0299 58.7177 89.9433 58.764Q89.8567 58.8103 89.766 58.8478Q89.6753 58.8854 89.5813 58.9139Q89.4873 58.9424 89.391 58.9616Q89.2947 58.9808 89.1969 58.9904Q89.0992 59 89.001 59L1.999 59Q1.9008 59 1.80306 58.9904Q1.70533 58.9808 1.60901 58.9616Q1.5127 58.9424 1.41872 58.9139Q1.32474 58.8854 1.23402 58.8478Q1.14329 58.8103 1.05668 58.764Q0.970069 58.7177 0.888415 58.6631Q0.806761 58.6086 0.730848 58.5462Q0.654935 58.484 0.585494 58.4145Q0.516052 58.3451 0.453752 58.2691Q0.391452 58.1932 0.336892 58.1116Q0.282333 58.0299 0.236039 57.9433Q0.189746 57.8567 0.152165 57.766Q0.114584 57.6753 0.0860763 57.5813Q0.057569 57.4873 0.0384102 57.391Q0.0192515 57.2947 0.00962573 57.1969Q0 57.0992 0 57.001L0 1.999Q0 1.9008 0.00962573 1.80306Q0.0192515 1.70533 0.0384102 1.60901Q0.057569 1.5127 0.0860763 1.41872Q0.114584 1.32474 0.152165 1.23402Q0.189746 1.14329 0.236039 1.05668Q0.282333 0.970069 0.336892 0.888415Q0.391452 0.806761 0.453752 0.730848Q0.516052 0.654935 0.585494 0.585494Q0.654935 0.516052 0.730848 0.453752Q0.806761 0.391452 0.888415 0.336892Q0.970069 0.282333 1.05668 0.236039Q1.14329 0.189746 1.23402 0.152165Q1.32474 0.114584 1.41872 0.0860763Q1.5127 0.057569 1.60901 0.0384102Q1.70533 0.0192515 1.80306 0.00962573Q1.9008 0 1.999 0L1.999 0Z" transform="translate(15 260.8437)" id="Rectangle-7" fill="#000000" stroke="none" />
  <g id="Routes" fill="#FFFFFF" transform="translate(39 279.8437)">
    <path d="M1.917 12.516Q1.944 13.362 1.998 14.028Q1.998 14.1 2.052 14.235Q2.106 14.37 2.187 14.505Q2.268 14.64 2.358 14.739Q2.448 14.838 2.556 14.856Q2.772 14.856 2.916 14.757Q3.06 14.658 3.06 14.406Q3.024 13.722 3.015 13.011Q3.006 12.3 2.988 11.58Q3.474 11.868 4.014 12.201Q4.554 12.534 5.094 12.885Q5.634 13.236 6.129 13.587Q6.624 13.938 7.02 14.262Q7.272 14.442 7.533 14.415Q7.794 14.388 7.902 14.136Q8.082 13.722 7.947 13.515Q7.812 13.308 7.704 13.2Q6.876 12.588 6.057 12.066Q5.238 11.544 4.302 10.968Q5.58 10.176 6.147 9.096Q6.714 8.016 6.336 6.666Q6.12 5.892 5.526 5.379Q4.932 4.866 4.05 4.866Q3.456 4.866 2.754 5.046Q2.052 5.226 1.44 5.586Q0.828 5.946 0.423 6.477Q0.018 7.008 0.018 7.728Q0.018 7.926 0.216 8.115Q0.414 8.304 0.558 8.268Q0.792 8.178 0.918 7.971Q1.044 7.764 0.99 7.494Q1.404 7.044 1.881 6.72Q2.358 6.396 2.853 6.243Q3.348 6.09 3.816 6.108Q4.284 6.126 4.68 6.36Q4.95 6.522 5.085 6.801Q5.22 7.08 5.256 7.395Q5.292 7.71 5.247 8.016Q5.202 8.322 5.112 8.538Q4.878 9.114 4.329 9.564Q3.78 10.014 2.97 10.158Q2.952 9.582 2.961 9.006Q2.97 8.43 2.988 7.854Q2.952 7.512 2.835 7.323Q2.718 7.134 2.394 7.098Q2.286 7.08 2.115 7.179Q1.944 7.278 1.944 7.458Q1.908 8.16 1.899 9.024Q1.89 9.888 1.89 10.779Q1.89 11.67 1.917 12.516ZM28.224 9.654Q27.882 9.474 27.54 9.492Q27.234 9.51 26.901 9.519Q26.568 9.528 26.208 9.564Q26.262 8.754 26.325 7.98Q26.388 7.206 26.46 6.594Q26.46 6.378 26.181 6.207Q25.902 6.036 25.596 6.054Q25.47 6.054 25.362 6.216Q25.254 6.378 25.236 6.594Q25.182 7.242 25.11 8.034Q25.038 8.826 24.984 9.672Q24.084 9.762 23.346 9.888Q23.04 9.978 22.95 10.158Q22.86 10.338 22.86 10.446Q22.86 10.752 23.139 10.86Q23.418 10.968 23.652 10.968Q23.94 10.932 24.255 10.905Q24.57 10.878 24.912 10.842Q24.876 11.688 24.849 12.444Q24.822 13.2 24.858 13.776Q24.894 14.352 25.2 14.73Q25.506 15.108 26.1 15.054Q26.496 15.018 27.009 14.829Q27.522 14.64 28.026 14.388Q28.53 14.136 28.971 13.857Q29.412 13.578 29.682 13.362Q29.916 13.128 30.006 12.84Q30.096 12.552 30.06 12.354Q30.024 12.228 29.871 12.192Q29.718 12.156 29.538 12.246Q29.142 12.444 28.701 12.669Q28.26 12.894 27.801 13.101Q27.342 13.308 26.883 13.479Q26.424 13.65 26.028 13.722Q26.01 13.704 26.01 13.452Q26.01 13.2 26.028 12.795Q26.046 12.39 26.073 11.868Q26.1 11.346 26.136 10.752Q26.568 10.716 26.982 10.698Q27.396 10.68 27.756 10.68Q27.936 10.68 28.233 10.599Q28.53 10.518 28.566 10.212Q28.566 9.834 28.224 9.654ZM40.41 8.556Q40.446 8.736 40.482 8.934Q40.5 9.096 40.653 9.195Q40.806 9.294 41.058 9.258Q41.256 9.222 41.337 9.06Q41.418 8.898 41.418 8.646Q41.328 7.89 40.824 7.503Q40.32 7.116 39.546 7.08Q39.096 7.08 38.646 7.278Q38.196 7.476 37.845 7.809Q37.494 8.142 37.278 8.574Q37.062 9.006 37.08 9.474Q37.152 9.996 37.422 10.347Q37.692 10.698 38.07 10.95Q38.448 11.202 38.979 11.508Q39.51 11.814 39.969 12.138Q40.428 12.462 40.707 12.759Q40.986 13.056 40.86 13.272Q40.716 13.524 40.356 13.686Q39.996 13.848 39.546 13.947Q39.096 14.046 38.601 14.091Q38.106 14.136 37.674 14.136Q37.368 14.136 37.08 14.262Q36.792 14.388 36.792 14.712Q36.792 14.802 36.891 14.919Q36.99 15.036 37.125 15.144Q37.26 15.252 37.413 15.333Q37.566 15.414 37.674 15.414Q38.124 15.414 38.772 15.351Q39.42 15.288 40.068 15.117Q40.716 14.946 41.256 14.64Q41.796 14.334 41.994 13.848Q42.246 13.218 42.075 12.723Q41.904 12.228 41.436 11.814Q40.968 11.4 40.284 11.004Q39.6 10.608 38.97 10.23Q38.592 9.978 38.394 9.726Q38.196 9.474 38.25 9.204Q38.268 9.06 38.466 8.871Q38.664 8.682 38.952 8.529Q39.24 8.376 39.582 8.304Q39.924 8.232 40.23 8.322Q40.374 8.376 40.41 8.556ZM13.851 8.628Q13.482 8.232 12.942 8.034Q12.6 7.89 12.366 8.106Q12.042 7.926 11.664 7.827Q11.286 7.728 11.034 7.728Q10.584 7.728 10.233 7.962Q9.882 8.196 9.612 8.565Q9.342 8.934 9.171 9.411Q9 9.888 8.928 10.392Q8.82 11.076 8.901 11.76Q8.982 12.444 9.27 12.984Q9.558 13.524 10.062 13.866Q10.566 14.208 11.304 14.208Q11.916 14.208 12.42 13.974Q12.924 13.74 13.32 13.362Q13.716 12.984 14.022 12.498Q14.328 12.012 14.526 11.508Q14.67 11.058 14.643 10.536Q14.616 10.014 14.418 9.519Q14.22 9.024 13.851 8.628ZM35.154 10.086Q34.452 10.5 33.642 10.725Q32.832 10.95 31.896 10.95Q31.932 11.58 32.256 11.949Q32.58 12.318 33.066 12.39Q33.354 12.426 33.651 12.372Q33.948 12.318 34.209 12.201Q34.47 12.084 34.686 11.94Q34.902 11.796 35.064 11.652Q35.226 11.508 35.406 11.463Q35.586 11.418 35.676 11.454Q35.928 11.544 35.856 11.994Q35.568 12.57 35.028 12.975Q34.488 13.38 33.822 13.488Q33.246 13.596 32.634 13.434Q32.022 13.272 31.536 12.804Q31.122 12.39 30.906 11.832Q30.69 11.274 30.636 10.68Q30.582 10.122 30.735 9.618Q30.888 9.114 31.212 8.727Q31.536 8.34 32.022 8.088Q32.508 7.836 33.156 7.8Q33.93 7.746 34.56 8.088Q35.19 8.43 35.442 9.042Q35.586 9.384 35.523 9.636Q35.46 9.888 35.154 10.086ZM17.622 8.988Q17.514 9.474 17.406 10.059Q17.298 10.644 17.253 11.184Q17.208 11.724 17.253 12.156Q17.298 12.588 17.478 12.768Q17.784 12.822 18.18 12.507Q18.576 12.192 18.954 11.706Q19.332 11.22 19.638 10.653Q19.944 10.086 20.07 9.654Q20.142 9.438 20.196 9.204Q20.25 8.97 20.25 8.718Q20.25 8.574 20.439 8.439Q20.628 8.304 20.754 8.286Q20.844 8.268 20.961 8.322Q21.078 8.376 21.177 8.475Q21.276 8.574 21.357 8.709Q21.438 8.844 21.438 8.988Q21.474 9.528 21.546 10.176Q21.618 10.824 21.717 11.472Q21.816 12.12 21.924 12.732Q22.032 13.344 22.14 13.83Q22.194 14.028 22.032 14.28Q21.87 14.532 21.672 14.586Q21.51 14.622 21.339 14.55Q21.168 14.478 21.078 14.262Q20.988 14.01 20.907 13.641Q20.826 13.272 20.763 12.867Q20.7 12.462 20.646 12.093Q20.592 11.724 20.574 11.472Q20.304 11.958 19.935 12.453Q19.566 12.948 19.143 13.353Q18.72 13.758 18.261 13.983Q17.802 14.208 17.316 14.154Q16.596 14.064 16.218 12.804Q16.074 12.3 16.083 11.688Q16.092 11.076 16.173 10.473Q16.254 9.87 16.371 9.33Q16.488 8.79 16.578 8.448Q16.614 8.304 16.722 8.187Q16.83 8.07 16.974 8.106Q17.244 8.16 17.469 8.43Q17.694 8.7 17.622 8.988ZM11.799 9.015Q12.06 9.222 12.258 9.348Q12.33 9.384 12.456 9.384Q12.582 9.384 12.708 9.294Q13.23 9.546 13.401 10.113Q13.572 10.68 13.392 11.202Q13.23 11.67 12.933 12.03Q12.636 12.39 12.303 12.606Q11.97 12.822 11.628 12.903Q11.286 12.984 11.034 12.912Q10.62 12.786 10.413 12.489Q10.206 12.192 10.134 11.823Q10.062 11.454 10.08 11.076Q10.098 10.698 10.152 10.428Q10.188 10.266 10.296 9.996Q10.404 9.726 10.557 9.465Q10.71 9.204 10.917 9.006Q11.124 8.808 11.34 8.808Q11.538 8.808 11.799 9.015ZM33.084 8.862Q32.904 8.898 32.697 8.988Q32.49 9.078 32.319 9.213Q32.148 9.348 32.013 9.519Q31.878 9.69 31.86 9.906Q32.166 9.906 32.535 9.852Q32.904 9.798 33.255 9.717Q33.606 9.636 33.903 9.528Q34.2 9.42 34.398 9.294Q34.254 8.952 33.867 8.871Q33.48 8.79 33.084 8.862Z" />
  </g>
  <g id="USER" transform="translate(223 6.843811)">
    <path d="M24.273 12.516Q24.3 13.362 24.354 14.028Q24.354 14.1 24.408 14.235Q24.462 14.37 24.543 14.505Q24.624 14.64 24.714 14.739Q24.804 14.838 24.912 14.856Q25.128 14.856 25.272 14.757Q25.416 14.658 25.416 14.406Q25.38 13.722 25.371 13.011Q25.362 12.3 25.344 11.58Q25.83 11.868 26.37 12.201Q26.91 12.534 27.45 12.885Q27.99 13.236 28.485 13.587Q28.98 13.938 29.376 14.262Q29.628 14.442 29.889 14.415Q30.15 14.388 30.258 14.136Q30.438 13.722 30.303 13.515Q30.168 13.308 30.06 13.2Q29.232 12.588 28.413 12.066Q27.594 11.544 26.658 10.968Q27.936 10.176 28.503 9.096Q29.07 8.016 28.692 6.666Q28.476 5.892 27.882 5.379Q27.288 4.866 26.406 4.866Q25.812 4.866 25.11 5.046Q24.408 5.226 23.796 5.586Q23.184 5.946 22.779 6.477Q22.374 7.008 22.374 7.728Q22.374 7.926 22.572 8.115Q22.77 8.304 22.914 8.268Q23.148 8.178 23.274 7.971Q23.4 7.764 23.346 7.494Q23.76 7.044 24.237 6.72Q24.714 6.396 25.209 6.243Q25.704 6.09 26.172 6.108Q26.64 6.126 27.036 6.36Q27.306 6.522 27.441 6.801Q27.576 7.08 27.612 7.395Q27.648 7.71 27.603 8.016Q27.558 8.322 27.468 8.538Q27.234 9.114 26.685 9.564Q26.136 10.014 25.326 10.158Q25.308 9.582 25.317 9.006Q25.326 8.43 25.344 7.854Q25.308 7.512 25.191 7.323Q25.074 7.134 24.75 7.098Q24.642 7.08 24.471 7.179Q24.3 7.278 24.3 7.458Q24.264 8.16 24.255 9.024Q24.246 9.888 24.246 10.779Q24.246 11.67 24.273 12.516ZM12.987 6.783Q13.176 6.738 13.248 6.648Q13.356 6.504 13.365 6.342Q13.374 6.18 13.284 6.072Q12.87 5.586 12.204 5.253Q11.538 4.92 10.818 4.956Q10.296 4.992 9.864 5.19Q9.432 5.388 9.108 5.703Q8.784 6.018 8.604 6.405Q8.424 6.792 8.424 7.224Q8.424 7.638 8.613 8.07Q8.802 8.502 9.216 8.862Q10.08 9.492 10.917 9.978Q11.754 10.464 12.492 11.022Q12.978 11.364 13.167 11.787Q13.356 12.21 13.266 12.606Q13.194 12.984 12.906 13.281Q12.618 13.578 12.15 13.686Q11.538 13.83 10.98 13.659Q10.422 13.488 10.008 13.11Q9.864 13.02 9.594 13.083Q9.324 13.146 9.216 13.308Q9.144 13.416 9.234 13.668Q9.324 13.92 9.45 14.064Q9.954 14.622 10.683 14.82Q11.412 15.018 12.168 14.874Q13.032 14.712 13.689 14.127Q14.346 13.542 14.472 12.552Q14.472 12.048 14.346 11.652Q14.22 11.256 14.004 10.941Q13.788 10.626 13.5 10.374Q13.212 10.122 12.888 9.906Q12.636 9.744 12.303 9.528Q11.97 9.312 11.601 9.078Q11.232 8.844 10.854 8.601Q10.476 8.358 10.152 8.124Q9.648 7.764 9.531 7.341Q9.414 6.918 9.828 6.468Q10.044 6.234 10.341 6.108Q10.638 5.982 10.908 5.982Q11.124 5.982 11.358 6.054Q11.592 6.126 11.826 6.234Q12.06 6.342 12.258 6.459Q12.456 6.576 12.6 6.684Q12.798 6.828 12.987 6.783ZM20.97 9.852Q21.042 10.032 20.826 10.203Q20.61 10.374 20.142 10.428Q19.332 10.536 18.486 10.653Q17.64 10.77 16.758 10.896Q16.722 11.814 16.758 12.732Q17.172 12.732 17.757 12.651Q18.342 12.57 18.954 12.444Q19.566 12.318 20.133 12.183Q20.7 12.048 21.096 11.958Q21.294 11.904 21.51 11.877Q21.726 11.85 21.897 11.877Q22.068 11.904 22.176 12.012Q22.284 12.12 22.284 12.318Q22.284 12.372 22.158 12.48Q22.032 12.588 21.843 12.705Q21.654 12.822 21.447 12.921Q21.24 13.02 21.078 13.074Q19.962 13.434 18.882 13.695Q17.802 13.956 16.776 13.974Q16.182 13.992 15.876 13.659Q15.57 13.326 15.552 12.696Q15.516 11.814 15.552 10.914Q15.246 10.734 15.246 10.41Q15.282 10.068 15.57 9.942Q15.606 9.42 15.624 8.889Q15.642 8.358 15.678 7.836Q15.48 7.8 15.327 7.638Q15.174 7.476 15.174 7.278Q15.174 7.116 15.246 6.981Q15.318 6.846 15.516 6.774Q15.84 6.702 16.308 6.612Q16.776 6.522 17.271 6.45Q17.766 6.378 18.225 6.324Q18.684 6.27 19.008 6.252Q19.386 6.216 19.737 6.324Q20.088 6.432 20.394 6.738Q20.466 6.99 20.295 7.116Q20.124 7.242 19.854 7.278Q19.584 7.314 19.206 7.359Q18.828 7.404 18.423 7.458Q18.018 7.512 17.613 7.557Q17.208 7.602 16.848 7.656Q16.848 7.692 16.857 7.737Q16.866 7.782 16.866 7.818Q16.83 8.286 16.812 8.754L16.776 9.69Q17.532 9.564 18.324 9.465Q19.116 9.366 19.584 9.33Q19.962 9.294 20.322 9.42Q20.682 9.546 20.97 9.852ZM7.002 8.331Q6.93 7.89 6.858 7.566Q6.768 7.242 6.561 7.062Q6.354 6.882 6.102 7.026Q5.868 7.17 5.814 7.422Q5.76 7.674 5.796 7.836Q5.904 8.448 5.967 9.078Q6.03 9.708 5.976 10.284Q5.922 10.86 5.697 11.346Q5.472 11.832 4.986 12.156Q4.68 12.354 4.257 12.525Q3.834 12.696 3.384 12.768Q2.934 12.84 2.529 12.741Q2.124 12.642 1.89 12.3Q1.782 12.066 1.809 11.643Q1.836 11.22 1.953 10.68Q2.07 10.14 2.232 9.546Q2.394 8.952 2.556 8.376Q2.61 8.196 2.547 8.052Q2.484 7.908 2.394 7.8Q2.304 7.692 2.205 7.629Q2.106 7.566 2.052 7.566Q1.926 7.548 1.836 7.566Q1.602 7.602 1.512 7.836Q1.35 8.358 1.206 8.835Q1.062 9.312 0.945 9.78Q0.828 10.248 0.756 10.761Q0.684 11.274 0.648 11.886Q0.612 12.516 0.9 12.948Q1.188 13.38 1.656 13.65Q2.07 13.884 2.601 13.947Q3.132 14.01 3.681 13.911Q4.23 13.812 4.779 13.587Q5.328 13.362 5.778 13.002Q6.246 12.642 6.57 12.192Q6.894 11.742 7.002 11.202Q7.092 10.734 7.11 10.23Q7.128 9.726 7.101 9.249Q7.074 8.772 7.002 8.331Z" />
  </g>
  <g id="Rails-App" transform="translate(210 221.84378)">
    <path d="M1.917 12.516Q1.944 13.362 1.998 14.028Q1.998 14.1 2.052 14.235Q2.106 14.37 2.187 14.505Q2.268 14.64 2.358 14.739Q2.448 14.838 2.556 14.856Q2.772 14.856 2.916 14.757Q3.06 14.658 3.06 14.406Q3.024 13.722 3.015 13.011Q3.006 12.3 2.988 11.58Q3.474 11.868 4.014 12.201Q4.554 12.534 5.094 12.885Q5.634 13.236 6.129 13.587Q6.624 13.938 7.02 14.262Q7.272 14.442 7.533 14.415Q7.794 14.388 7.902 14.136Q8.082 13.722 7.947 13.515Q7.812 13.308 7.704 13.2Q6.876 12.588 6.057 12.066Q5.238 11.544 4.302 10.968Q5.58 10.176 6.147 9.096Q6.714 8.016 6.336 6.666Q6.12 5.892 5.526 5.379Q4.932 4.866 4.05 4.866Q3.456 4.866 2.754 5.046Q2.052 5.226 1.44 5.586Q0.828 5.946 0.423 6.477Q0.018 7.008 0.018 7.728Q0.018 7.926 0.216 8.115Q0.414 8.304 0.558 8.268Q0.792 8.178 0.918 7.971Q1.044 7.764 0.99 7.494Q1.404 7.044 1.881 6.72Q2.358 6.396 2.853 6.243Q3.348 6.09 3.816 6.108Q4.284 6.126 4.68 6.36Q4.95 6.522 5.085 6.801Q5.22 7.08 5.256 7.395Q5.292 7.71 5.247 8.016Q5.202 8.322 5.112 8.538Q4.878 9.114 4.329 9.564Q3.78 10.014 2.97 10.158Q2.952 9.582 2.961 9.006Q2.97 8.43 2.988 7.854Q2.952 7.512 2.835 7.323Q2.718 7.134 2.394 7.098Q2.286 7.08 2.115 7.179Q1.944 7.278 1.944 7.458Q1.908 8.16 1.899 9.024Q1.89 9.888 1.89 10.779Q1.89 11.67 1.917 12.516ZM21.438 9.951Q21.222 7.854 21.132 5.892Q21.114 5.568 20.979 5.343Q20.844 5.118 20.538 5.1Q20.25 5.082 20.16 5.379Q20.07 5.676 20.034 6.108Q20.052 6.936 20.124 7.926Q20.196 8.916 20.295 9.951Q20.394 10.986 20.52 12.012Q20.646 13.038 20.79 13.956Q20.808 14.064 20.889 14.208Q20.97 14.352 21.06 14.478Q21.15 14.604 21.258 14.685Q21.366 14.766 21.474 14.766Q21.6096 14.761 21.7032 14.6957Q21.9449 14.527 21.906 13.956Q21.654 12.048 21.438 9.951ZM35.082 14.883Q35.226 14.64 35.316 14.334Q35.478 13.668 35.667 13.011Q35.856 12.354 36.054 11.67Q36.918 11.634 37.809 11.526Q38.7 11.418 39.456 11.274Q39.708 11.886 39.987 12.489Q40.266 13.092 40.572 13.686Q40.626 13.794 40.725 13.929Q40.824 14.064 40.95 14.181Q41.076 14.298 41.211 14.37Q41.346 14.442 41.472 14.388Q41.58 14.334 41.616 14.172Q41.652 14.01 41.643 13.821Q41.634 13.632 41.598 13.443Q41.562 13.254 41.544 13.164Q41.292 12.642 41.058 12.093Q40.824 11.544 40.59 10.968Q40.968 10.77 41.112 10.572Q41.256 10.374 41.148 10.104Q41.058 9.888 40.806 9.852Q40.554 9.816 40.356 9.834Q40.302 9.852 40.257 9.861Q40.212 9.87 40.158 9.888Q39.798 8.916 39.465 7.944Q39.132 6.972 38.88 6.054Q38.736 5.73 38.637 5.559Q38.538 5.388 38.466 5.298Q38.394 5.208 38.331 5.19Q38.268 5.172 38.214 5.172Q38.088 5.172 37.962 5.226Q37.836 5.28 37.746 5.352Q37.656 5.316 37.539 5.343Q37.422 5.37 37.332 5.514Q36.792 6.432 36.279 7.557Q35.766 8.682 35.334 9.879Q34.902 11.076 34.578 12.273Q34.254 13.47 34.11 14.55Q34.074 14.856 34.254 15.054Q34.434 15.252 34.776 15.162Q34.938 15.126 35.082 14.883ZM18.288 6.972Q18.252 7.152 18.036 7.17Q17.82 7.188 17.676 7.188Q17.226 7.206 16.749 7.278Q16.272 7.35 15.75 7.494Q15.534 7.566 15.282 7.44Q15.03 7.314 14.976 6.936Q14.976 6.792 15.084 6.702Q15.192 6.612 15.336 6.54Q15.57 6.432 15.894 6.351Q16.218 6.27 16.551 6.234Q16.884 6.198 17.19 6.207Q17.496 6.216 17.694 6.27Q17.982 6.36 18.153 6.54Q18.324 6.72 18.288 6.972ZM13.419 8.727Q13.374 8.16 13.302 7.656Q13.23 7.188 12.888 6.891Q12.546 6.594 11.916 6.612Q11.484 6.63 11.052 6.81Q10.62 6.99 10.206 7.269Q9.792 7.548 9.414 7.89Q9.036 8.232 8.73 8.556Q8.568 8.772 8.586 8.961Q8.604 9.15 8.748 9.294Q8.892 9.438 9.099 9.456Q9.306 9.474 9.468 9.312Q9.99 8.844 10.566 8.43Q11.142 8.016 11.574 7.872Q11.826 7.782 11.997 7.845Q12.168 7.908 12.204 8.178Q12.24 8.412 12.267 8.745Q12.294 9.078 12.312 9.456Q12.33 9.834 12.339 10.203Q12.348 10.572 12.348 10.878Q12.132 10.662 11.88 10.572Q11.628 10.482 11.385 10.473Q11.142 10.464 10.917 10.5Q10.692 10.536 10.566 10.59Q10.062 10.77 9.693 11.094Q9.324 11.418 9.108 11.823Q8.892 12.228 8.838 12.669Q8.784 13.11 8.892 13.524Q9.054 14.136 9.513 14.442Q9.972 14.748 10.548 14.658Q10.854 14.604 11.214 14.46Q11.574 14.316 11.934 14.127Q12.294 13.938 12.618 13.731Q12.942 13.524 13.194 13.344Q13.554 13.542 13.833 13.533Q14.112 13.524 14.22 13.2Q14.31 12.966 14.193 12.66Q14.076 12.354 13.5 11.958Q13.518 11.526 13.518 10.986Q13.518 10.446 13.491 9.87Q13.464 9.294 13.419 8.727ZM36.432 10.482Q37.044 8.628 37.872 6.774Q38.358 8.538 39.006 10.176Q37.638 10.446 36.432 10.482ZM45.864 16.278Q45.846 16.476 45.684 16.647Q45.522 16.818 45.324 16.8Q45.018 16.782 44.856 16.566Q44.694 16.35 44.694 16.206Q44.694 15.522 44.658 14.775Q44.622 14.028 44.568 13.236Q44.334 13.272 44.145 13.191Q43.956 13.11 43.884 12.93Q43.758 12.624 43.92 12.39Q44.082 12.156 44.442 11.94Q44.352 11.274 44.271 10.626Q44.19 9.978 44.1 9.366Q44.082 9.258 44.118 9.168Q44.154 9.078 44.208 8.997Q44.262 8.916 44.406 8.844Q44.64 8.754 44.937 8.988Q45.234 9.222 45.342 9.582Q45.396 9.924 45.459 10.365Q45.522 10.806 45.576 11.328Q45.954 11.094 46.287 10.824Q46.62 10.554 46.863 10.248Q47.106 9.942 47.232 9.609Q47.358 9.276 47.304 8.916Q47.268 8.61 47.034 8.367Q46.8 8.124 46.296 8.106Q45.846 8.088 45.405 8.178Q44.964 8.268 44.541 8.412Q44.118 8.556 43.713 8.754Q43.308 8.952 42.93 9.15Q42.678 9.294 42.435 9.267Q42.192 9.24 42.12 9.096Q41.958 8.736 42.147 8.448Q42.336 8.16 42.732 7.908Q43.074 7.71 43.551 7.503Q44.028 7.296 44.559 7.143Q45.09 6.99 45.639 6.927Q46.188 6.864 46.692 6.945Q47.196 7.026 47.601 7.287Q48.006 7.548 48.258 8.052Q48.564 8.88 48.429 9.573Q48.294 10.266 47.889 10.833Q47.484 11.4 46.899 11.859Q46.314 12.318 45.72 12.678Q45.81 13.65 45.846 14.604Q45.882 15.558 45.864 16.278ZM52.56 16.647Q52.722 16.476 52.74 16.278Q52.758 15.558 52.722 14.604Q52.686 13.65 52.596 12.678Q53.19 12.318 53.775 11.859Q54.36 11.4 54.765 10.833Q55.17 10.266 55.305 9.573Q55.44 8.88 55.134 8.052Q54.882 7.548 54.477 7.287Q54.072 7.026 53.568 6.945Q53.064 6.864 52.515 6.927Q51.966 6.99 51.435 7.143Q50.904 7.296 50.427 7.503Q49.95 7.71 49.608 7.908Q49.212 8.16 49.023 8.448Q48.834 8.736 48.996 9.096Q49.068 9.24 49.311 9.267Q49.554 9.294 49.806 9.15Q50.184 8.952 50.589 8.754Q50.994 8.556 51.417 8.412Q51.84 8.268 52.281 8.178Q52.722 8.088 53.172 8.106Q53.676 8.124 53.91 8.367Q54.144 8.61 54.18 8.916Q54.234 9.276 54.108 9.609Q53.982 9.942 53.739 10.248Q53.496 10.554 53.163 10.824Q52.83 11.094 52.452 11.328Q52.398 10.806 52.335 10.365Q52.272 9.924 52.218 9.582Q52.11 9.222 51.813 8.988Q51.516 8.754 51.282 8.844Q51.138 8.916 51.084 8.997Q51.03 9.078 50.994 9.168Q50.958 9.258 50.976 9.366Q51.066 9.978 51.147 10.626Q51.228 11.274 51.318 11.94Q50.958 12.156 50.796 12.39Q50.634 12.624 50.76 12.93Q50.832 13.11 51.021 13.191Q51.21 13.272 51.444 13.236Q51.498 14.028 51.534 14.775Q51.57 15.522 51.57 16.206Q51.57 16.35 51.732 16.566Q51.894 16.782 52.2 16.8Q52.398 16.818 52.56 16.647ZM26.748 8.934Q26.712 8.736 26.676 8.556Q26.64 8.376 26.496 8.322Q26.19 8.232 25.848 8.304Q25.506 8.376 25.218 8.529Q24.93 8.682 24.732 8.871Q24.534 9.06 24.516 9.204Q24.462 9.474 24.66 9.726Q24.858 9.978 25.236 10.23Q25.866 10.608 26.55 11.004Q27.234 11.4 27.702 11.814Q28.17 12.228 28.341 12.723Q28.512 13.218 28.26 13.848Q28.062 14.334 27.522 14.64Q26.982 14.946 26.334 15.117Q25.686 15.288 25.038 15.351Q24.39 15.414 23.94 15.414Q23.832 15.414 23.679 15.333Q23.526 15.252 23.391 15.144Q23.256 15.036 23.157 14.919Q23.058 14.802 23.058 14.712Q23.058 14.388 23.346 14.262Q23.634 14.136 23.94 14.136Q24.372 14.136 24.867 14.091Q25.362 14.046 25.812 13.947Q26.262 13.848 26.622 13.686Q26.982 13.524 27.126 13.272Q27.252 13.056 26.973 12.759Q26.694 12.462 26.235 12.138Q25.776 11.814 25.245 11.508Q24.714 11.202 24.336 10.95Q23.958 10.698 23.688 10.347Q23.418 9.996 23.346 9.474Q23.328 9.006 23.544 8.574Q23.76 8.142 24.111 7.809Q24.462 7.476 24.912 7.278Q25.362 7.08 25.812 7.08Q26.586 7.116 27.09 7.503Q27.594 7.89 27.684 8.646Q27.684 8.898 27.603 9.06Q27.522 9.222 27.324 9.258Q27.072 9.294 26.919 9.195Q26.766 9.096 26.748 8.934ZM17.874 12.966Q18 13.254 18.009 13.587Q18.018 13.92 17.82 14.046Q17.568 14.208 17.28 14.028Q16.992 13.848 16.848 13.542Q16.65 13.164 16.542 12.615Q16.434 12.066 16.38 11.526Q16.326 10.986 16.317 10.518Q16.308 10.05 16.308 9.816Q16.326 9.564 16.452 9.348Q16.578 9.132 16.776 9.096Q17.1 9.114 17.298 9.393Q17.496 9.672 17.478 10.086Q17.478 10.41 17.496 10.806Q17.514 11.202 17.568 11.598Q17.622 11.994 17.694 12.363Q17.766 12.732 17.874 12.966ZM10.719 11.751Q10.98 11.58 11.214 11.526Q11.358 11.508 11.529 11.634Q11.7 11.76 11.844 11.931Q11.988 12.102 12.096 12.273Q12.204 12.444 12.204 12.552Q11.88 12.858 11.331 13.119Q10.782 13.38 10.35 13.47Q10.206 13.506 10.089 13.452Q9.972 13.398 9.936 13.29Q9.846 13.002 9.945 12.705Q10.044 12.408 10.251 12.165Q10.458 11.922 10.719 11.751Z" />
  </g>
  <path d="M1.999 0L130.001 0Q130.099 0 130.197 0.00962573Q130.295 0.0192515 130.391 0.0384102Q130.487 0.057569 130.581 0.0860763Q130.675 0.114584 130.766 0.152165Q130.857 0.189746 130.943 0.236039Q131.03 0.282333 131.112 0.336892Q131.193 0.391452 131.269 0.453752Q131.345 0.516052 131.414 0.585494Q131.484 0.654935 131.546 0.730848Q131.609 0.806761 131.663 0.888415Q131.718 0.970069 131.764 1.05668Q131.81 1.14329 131.848 1.23402Q131.885 1.32474 131.914 1.41872Q131.942 1.5127 131.962 1.60901Q131.981 1.70533 131.99 1.80306Q132 1.9008 132 1.999L132 142.845Q132 142.943 131.99 143.041Q131.981 143.138 131.962 143.235Q131.942 143.331 131.914 143.425Q131.885 143.519 131.848 143.61Q131.81 143.7 131.764 143.787Q131.718 143.874 131.663 143.955Q131.609 144.037 131.546 144.113Q131.484 144.189 131.415 144.258Q131.345 144.328 131.269 144.39Q131.193 144.452 131.112 144.507Q131.03 144.561 130.943 144.608Q130.857 144.654 130.766 144.692Q130.675 144.729 130.581 144.758Q130.487 144.786 130.391 144.805Q130.295 144.824 130.197 144.834Q130.099 144.844 130.001 144.844L1.999 144.844Q1.9008 144.844 1.80306 144.834Q1.70533 144.824 1.60901 144.805Q1.5127 144.786 1.41872 144.758Q1.32474 144.729 1.23402 144.692Q1.14329 144.654 1.05668 144.608Q0.970069 144.561 0.888415 144.507Q0.806761 144.452 0.730848 144.39Q0.654935 144.328 0.585494 144.258Q0.516052 144.189 0.453752 144.113Q0.391452 144.037 0.336892 143.955Q0.282333 143.874 0.236039 143.787Q0.189746 143.7 0.152165 143.61Q0.114584 143.519 0.0860763 143.425Q0.057569 143.331 0.0384102 143.235Q0.0192515 143.138 0.00962573 143.041Q0 142.943 0 142.845L0 1.999Q0 1.9008 0.00962573 1.80306Q0.0192515 1.70533 0.0384102 1.60901Q0.057569 1.5127 0.0860763 1.41872Q0.114584 1.32474 0.152165 1.23402Q0.189746 1.14329 0.236039 1.05668Q0.282333 0.970069 0.336892 0.888415Q0.391452 0.806761 0.453752 0.730848Q0.516052 0.654935 0.585494 0.585494Q0.654935 0.516052 0.730848 0.453752Q0.806761 0.391452 0.888415 0.336892Q0.970069 0.282333 1.05668 0.236039Q1.14329 0.189746 1.23402 0.152165Q1.32474 0.114584 1.41872 0.0860763Q1.5127 0.057569 1.60901 0.0384102Q1.70533 0.0192515 1.80306 0.00962573Q1.9008 0 1.999 0L1.999 0Z" transform="translate(172 1)" id="Rectangle-5" fill="#FFFFFF" fill-opacity="0" stroke="#000000" stroke-width="2" stroke-dasharray="2 3" />
  <path d="M1.999 0L468.001 0Q468.099 0 468.197 0.00962573Q468.295 0.0192515 468.391 0.0384102Q468.487 0.057569 468.581 0.0860763Q468.675 0.114584 468.766 0.152165Q468.857 0.189746 468.943 0.236039Q469.03 0.282333 469.112 0.336892Q469.193 0.391452 469.269 0.453752Q469.345 0.516052 469.414 0.585494Q469.484 0.654935 469.546 0.730848Q469.609 0.806761 469.663 0.888415Q469.718 0.970069 469.764 1.05668Q469.81 1.14329 469.848 1.23402Q469.885 1.32474 469.914 1.41872Q469.942 1.5127 469.962 1.60901Q469.981 1.70533 469.99 1.80306Q470 1.9008 470 1.999L470 152.001Q470 152.099 469.99 152.197Q469.981 152.295 469.962 152.391Q469.942 152.487 469.914 152.581Q469.885 152.675 469.848 152.766Q469.81 152.857 469.764 152.943Q469.718 153.03 469.663 153.112Q469.609 153.193 469.546 153.269Q469.484 153.345 469.414 153.415Q469.345 153.484 469.269 153.546Q469.193 153.609 469.112 153.663Q469.03 153.718 468.943 153.764Q468.857 153.81 468.766 153.848Q468.675 153.885 468.581 153.914Q468.487 153.942 468.391 153.962Q468.295 153.981 468.197 153.99Q468.099 154 468.001 154L1.999 154Q1.9008 154 1.80306 153.99Q1.70533 153.981 1.60901 153.962Q1.5127 153.942 1.41872 153.914Q1.32474 153.885 1.23402 153.848Q1.14329 153.81 1.05668 153.764Q0.970069 153.718 0.888415 153.663Q0.806761 153.609 0.730848 153.546Q0.654935 153.484 0.585494 153.415Q0.516052 153.345 0.453752 153.269Q0.391452 153.193 0.336892 153.112Q0.282333 153.03 0.236039 152.943Q0.189746 152.857 0.152165 152.766Q0.114584 152.675 0.0860763 152.581Q0.057569 152.487 0.0384102 152.391Q0.0192515 152.295 0.00962573 152.197Q0 152.099 0 152.001L0 1.999Q0 1.9008 0.00962573 1.80306Q0.0192515 1.70533 0.0384102 1.60901Q0.057569 1.5127 0.0860763 1.41872Q0.114584 1.32474 0.152165 1.23402Q0.189746 1.14329 0.236039 1.05668Q0.282333 0.970069 0.336892 0.888415Q0.391452 0.806761 0.453752 0.730848Q0.516052 0.654935 0.585494 0.585494Q0.654935 0.516052 0.730848 0.453752Q0.806761 0.391452 0.888415 0.336892Q0.970069 0.282333 1.05668 0.236039Q1.14329 0.189746 1.23402 0.152165Q1.32474 0.114584 1.41872 0.0860763Q1.5127 0.057569 1.60901 0.0384102Q1.70533 0.0192515 1.80306 0.00962573Q1.9008 0 1.999 0L1.999 0Z" transform="translate(1 217)" id="Rectangle-6" fill="#FFFFFF" fill-opacity="0" stroke="#000000" stroke-width="2" stroke-dasharray="2 3" />
  <g id="firefoxbrowser" transform="translate(255 95.84375)" filter="url(#filter_1)">
    <path d="M0 0L22 0L22 22L0 22L0 0Z" id="Background" fill="none" stroke="none" />
    <g clip-path="url(#mask_1)">
      <path d="M20.3243 7.30536C19.866 6.20261 18.9365 5.01094 18.2068 4.63419C18.8008 5.79836 19.1446 6.96619 19.2757 7.83794L19.2775 7.85627C18.084 4.88077 16.06 3.68086 14.4063 1.06927C14.3238 0.936356 14.2395 0.804356 14.1588 0.665023C14.1169 0.593835 14.0778 0.52106 14.0415 0.44686C13.9732 0.314086 13.9206 0.173806 13.8848 0.0288569C13.8848 0.0146809 13.8741 0.0027734 13.86 0.00135616C13.8537 -0.000452051 13.847 -0.000452058 13.8408 0.00135615L13.8353 0.00318948C13.8323 0.00432534 13.8295 0.00586805 13.827 0.00777283C13.8283 0.00546734 13.8298 0.00331465 13.8316 0.00135614C11.4849 1.37636 10.5114 3.78352 10.2621 5.31527C9.5369 5.35637 8.82654 5.53754 8.17025 5.84877C8.04621 5.90974 7.9884 6.05467 8.03642 6.18427C8.06098 6.25446 8.11381 6.31115 8.18209 6.34058C8.25037 6.37002 8.32786 6.36952 8.39575 6.33919C8.96842 6.06891 9.58638 5.90758 10.2181 5.86344L10.2795 5.85886C10.3668 5.85389 10.4542 5.85114 10.5417 5.85061C11.0539 5.84713 11.564 5.91784 12.056 6.06052L12.1422 6.08802C12.2238 6.11295 12.3048 6.13984 12.3851 6.1687C12.4439 6.19059 12.5022 6.21351 12.5602 6.23745C12.6078 6.25577 12.6546 6.27502 12.7013 6.29519C12.7739 6.32746 12.8457 6.36138 12.9167 6.39694L13.0139 6.44644C13.0832 6.4825 13.1516 6.5201 13.2192 6.55919C13.2628 6.58478 13.3058 6.61106 13.3485 6.63803C14.1132 7.111 14.7477 7.76729 15.1947 8.54744C14.6309 8.15144 13.6217 7.76002 12.65 7.92961C16.4468 9.82711 15.4275 16.3639 10.1658 16.1173C9.69739 16.0978 9.23452 16.0082 8.79267 15.8514C8.68791 15.8126 8.5843 15.7707 8.48196 15.7259C8.42197 15.6989 8.36266 15.6705 8.30407 15.6406C7.01525 14.9742 5.951 13.7156 5.81808 12.1866C5.81808 12.1866 6.30483 10.3707 9.30692 10.3707C9.63142 10.3707 10.5591 9.46502 10.5765 9.20286C10.5719 9.11669 8.73492 8.38611 8.019 7.68119C7.63583 7.30352 7.45433 7.12202 7.29392 6.98452C7.20637 6.91085 7.11487 6.84199 7.01983 6.77827C6.77937 5.93656 6.76924 5.04573 6.9905 4.19877C5.90608 4.69286 5.06275 5.47294 4.4495 6.16227L4.444 6.16227C4.026 5.63244 4.05533 3.88344 4.07917 3.51861C4.07367 3.49569 3.7675 3.67811 3.72625 3.70561C3.35713 3.96919 3.01204 4.2649 2.695 4.58927C2.33423 4.95536 2.00462 5.3509 1.70958 5.77177L1.70958 5.77177C1.03083 6.73291 0.549175 7.81898 0.292418 8.96727C0.289667 8.97919 0.191583 9.40911 0.120083 9.94077C0.107896 10.0231 0.0965887 10.1057 0.0861665 10.1883C0.0567326 10.389 0.0359353 10.5908 0.0238333 10.7933L0.022 10.8244C0.0141795 10.9414 0.00715266 11.0584 0.000917857 11.1755L0 11.2305C0 17.0587 4.72633 21.7841 10.5563 21.7841C15.7768 21.7841 20.1117 17.9937 20.9605 13.0153C20.9788 12.8805 20.9926 12.7449 21.0082 12.6083C21.219 10.7988 20.9853 8.89577 20.3243 7.30444L20.3243 7.30536Z" transform="translate(0.458313 0.10772705)" id="Shape" fill="#000000" stroke="none" />
    </g>
  </g>
  <g id="safari" transform="translate(227 95.84375)" filter="url(#filter_1)">
    <path d="M0 11.5C0 17.8509 5.14913 23 11.5 23C17.8509 23 23 17.8509 23 11.5C23 5.14913 17.8509 0 11.5 0C5.14913 0 0 5.14912 0 11.5ZM22.2813 11.5C22.2813 17.4541 17.4541 22.2813 11.5 22.2813C5.54588 22.2813 0.71875 17.4541 0.71875 11.5C0.71875 5.54588 5.54588 0.71875 11.5 0.71875C17.4541 0.71875 22.2813 5.54588 22.2813 11.5ZM11.7396 1.91667C12.0042 1.91667 12.2187 2.02393 12.2187 2.15625L12.2187 3.11458C12.2187 3.2469 12.0042 3.35417 11.7396 3.35417C11.4749 3.35417 11.2604 3.2469 11.2604 3.11458L11.2604 2.15625C11.2604 2.02393 11.4749 1.91667 11.7396 1.91667ZM7.93155 2.61434C8.07161 2.56504 8.23086 2.62419 8.28758 2.74659L8.69839 3.63496C8.75526 3.75775 8.68758 3.89763 8.54721 3.94738C8.40685 3.99713 8.24695 3.93792 8.19008 3.81513L7.78037 2.92675C7.75296 2.86779 7.7535 2.80172 7.78186 2.74311C7.81022 2.68449 7.86408 2.63816 7.93155 2.61434ZM15.3279 2.67855C15.3935 2.70327 15.4453 2.75031 15.472 2.80927C15.4988 2.86824 15.4982 2.9343 15.4704 2.99288L15.0516 3.87455C15.0168 3.95666 14.9346 4.01517 14.8373 4.02704C14.7401 4.0389 14.6434 4.00222 14.5853 3.93145C14.5272 3.86067 14.517 3.76713 14.5588 3.68767L14.9766 2.806C15.0042 2.74737 15.0568 2.70098 15.1227 2.67707C15.1886 2.65316 15.2625 2.65369 15.3279 2.67855ZM18.2764 4.72362C18.3696 4.81712 18.3696 4.96841 18.2764 5.06191L17.5989 5.74041C17.5777 5.76155 17.5536 5.77792 17.5279 5.78951L18.2764 4.72361L18.2764 4.72362ZM5.78951 17.5279L12.6855 12.6854L17.5279 5.78951C17.4396 5.82932 17.3322 5.81297 17.2596 5.74044C17.1871 5.66789 17.1707 5.5604 17.2105 5.47208L18.2764 4.72361C18.1829 4.63041 18.0316 4.63041 17.9381 4.72362L17.2595 5.40122C17.2384 5.42233 17.2221 5.4464 17.2105 5.47208L10.3146 10.3145L5.47215 17.2104C5.44595 17.2223 5.42184 17.2388 5.40114 17.2596L4.7236 17.9381C4.6574 17.9973 4.62936 18.0882 4.65074 18.1744C4.67211 18.2606 4.73941 18.3279 4.82559 18.3492C4.91177 18.3706 5.00271 18.3426 5.06189 18.2764L5.74039 17.5988C5.76112 17.5782 5.77768 17.5541 5.78951 17.5279ZM5.78951 17.5279L4.72364 18.2764L5.47215 17.2104C5.50285 17.1966 5.53643 17.1892 5.57076 17.1892C5.63441 17.1892 5.69544 17.2145 5.74039 17.2596C5.78545 17.3045 5.81078 17.3656 5.81078 17.4292C5.81078 17.4636 5.80339 17.4972 5.78951 17.5279ZM4.72365 4.72459C4.81715 4.63138 4.96844 4.63138 5.06194 4.72459L5.74044 5.40213C5.83411 5.4958 5.83413 5.64766 5.74047 5.74135C5.64682 5.83503 5.49495 5.83507 5.40125 5.74144L4.72365 5.06288C4.63044 4.96938 4.63044 4.81809 4.72365 4.72459ZM2.67855 7.77444C2.70327 7.70835 2.75031 7.65606 2.80927 7.62911C2.86824 7.60215 2.9343 7.60275 2.99288 7.63077L3.87455 8.05315C3.99101 8.1149 4.04338 8.26935 3.99315 8.40293C3.94291 8.5365 3.80803 8.60147 3.68767 8.55006L2.806 8.12876C2.74737 8.10089 2.70098 8.04787 2.67707 7.9814C2.65316 7.91493 2.65369 7.84047 2.67855 7.77444ZM20.3857 7.93059C20.435 8.07066 20.3758 8.22991 20.2534 8.28664L19.365 8.69746C19.2856 8.73429 19.195 8.71986 19.1274 8.65961C19.0598 8.59937 19.0255 8.50246 19.0373 8.40542C19.0492 8.30837 19.1054 8.22592 19.1849 8.18914L20.0732 7.77941C20.1322 7.752 20.1983 7.75253 20.2569 7.7809C20.3155 7.80926 20.3618 7.86312 20.3857 7.93059ZM12.3414 12.3414L10.6567 10.6567L6.68821 16.3108L12.3414 12.3414ZM1.91667 11.7396C1.91667 11.4749 2.02393 11.2604 2.15625 11.2604L3.11458 11.2604C3.2469 11.2604 3.35417 11.4749 3.35417 11.7396C3.35417 12.0042 3.2469 12.2187 3.11458 12.2187L2.15625 12.2187C2.02393 12.2187 1.91667 12.0042 1.91667 11.7396ZM19.8854 11.2604C19.7531 11.2604 19.6458 11.4749 19.6458 11.7396C19.6458 12.0042 19.7531 12.2187 19.8854 12.2187L20.8437 12.2187C20.9761 12.2187 21.0833 12.0042 21.0833 11.7396C21.0833 11.4749 20.9761 11.2604 20.8437 11.2604L19.8854 11.2604ZM3.94607 14.7803C3.97088 14.7136 3.97135 14.6383 3.94737 14.5712C3.92355 14.504 3.87722 14.4503 3.8186 14.4221C3.75999 14.3938 3.69392 14.3933 3.63496 14.4206L2.74658 14.8298C2.66441 14.8642 2.60523 14.9468 2.59223 15.0454C2.57922 15.144 2.61445 15.2428 2.68412 15.3031C2.75379 15.3635 2.84681 15.3757 2.92675 15.3351L3.81512 14.927C3.87414 14.8998 3.92126 14.8471 3.94607 14.7803ZM19.3123 14.5584C19.1909 14.501 19.0508 14.5643 18.999 14.7L18.998 14.7C18.9731 14.7655 18.9726 14.8394 18.9965 14.9054C19.0204 14.9714 19.0668 15.0241 19.1255 15.0518L20.0071 15.4701C20.0866 15.5119 20.1801 15.5017 20.2509 15.4436C20.3217 15.3854 20.3584 15.2886 20.3465 15.1912C20.3346 15.0938 20.2761 15.0115 20.194 14.9767L19.3123 14.5584ZM17.4292 17.1892C17.3655 17.1892 17.3045 17.2145 17.2596 17.2596C17.2145 17.3045 17.1892 17.3656 17.1892 17.4292C17.1892 17.4929 17.2145 17.5539 17.2596 17.5988L17.9381 18.2764C17.9972 18.3426 18.0882 18.3706 18.1744 18.3492C18.2605 18.3279 18.3278 18.2606 18.3492 18.1744C18.3706 18.0882 18.3425 17.9973 18.2763 17.9381L17.5988 17.2596C17.5539 17.2145 17.4928 17.1892 17.4292 17.1892ZM8.55168 19.3123C8.6095 19.1909 8.5457 19.0508 8.4089 18.999L8.4089 18.998C8.34278 18.9731 8.26822 18.9726 8.20167 18.9965C8.13511 19.0204 8.08202 19.0668 8.05412 19.1255L7.63227 20.0071C7.5808 20.1275 7.64585 20.2624 7.7796 20.3126C7.91335 20.3628 8.068 20.3105 8.12983 20.194L8.55168 19.3123ZM14.7813 19.0539C14.7145 19.0291 14.6393 19.0286 14.5721 19.0526C14.5049 19.0764 14.4513 19.1228 14.423 19.1814C14.3948 19.24 14.3942 19.3061 14.4215 19.365L14.8308 20.2534C14.8651 20.3356 14.9478 20.3948 15.0464 20.4078C15.1449 20.4208 15.2438 20.3855 15.3041 20.3159C15.3644 20.2462 15.3767 20.1532 15.3361 20.0732L14.9279 19.1849C14.9008 19.1259 14.848 19.0787 14.7813 19.0539ZM12.2187 19.8854C12.2187 19.7531 12.0042 19.6458 11.7396 19.6458C11.4749 19.6458 11.2604 19.7531 11.2604 19.8854L11.2604 20.8437C11.2604 20.9761 11.4749 21.0833 11.7396 21.0833C12.0042 21.0833 12.2187 20.9761 12.2187 20.8437L12.2187 19.8854Z" id="Shape" fill="#000000" fill-rule="evenodd" stroke="none" />
  </g>
  <g id="googlechrome" transform="translate(201 97.09375)" filter="url(#filter_1)">
    <path d="M2.07073 4.54942L6.45881 9.13183C6.71811 8.49769 7.10752 7.92497 7.6019 7.45067C8.49748 6.59542 9.8514 6.00417 11.5115 6.11875L20.8734 6.11875C19.0126 2.376 15.1772 0 10.9972 0C7.46528 0.00118717 4.14714 1.69229 2.07073 4.54942ZM9.94858 21.9514L11.8928 15.8262C10.9817 16.0086 10.0256 15.9179 9.11075 15.5677C7.32508 14.8839 6.46433 13.0121 6.29933 12.518L1.86817 4.83906C0.649917 6.65498 0 8.79265 0 10.9789C0 16.6283 4.34317 21.3996 9.94858 21.9514ZM14.8628 7.96583L21.0182 6.42675C21.6652 7.85552 21.9999 9.40589 22 10.9743C22 17.0225 17.0216 22 10.9706 22C10.6938 22 10.4161 21.9899 10.1392 21.9688L14.6355 14.3174C14.9618 13.9727 15.2359 13.5813 15.4431 13.1523C16.0957 11.7717 16.0812 10.1685 15.4036 8.8C15.2532 8.5037 15.0719 8.2241 14.8628 7.96583ZM10.9753 6.985C9.13642 7.00242 7.42042 8.40034 7.05101 10.2043C6.78884 11.5484 7.21413 12.9346 8.18492 13.9003C9.29776 14.9875 11.0633 15.3468 12.5244 14.7501C13.8151 14.2221 14.7886 12.9837 14.9912 11.605C15.2405 9.90367 14.2688 8.09234 12.7041 7.36175C12.1627 7.11013 11.5723 6.98147 10.9753 6.985Z" id="Shape" fill="#000000" fill-rule="evenodd" stroke="none" />
  </g>
  <path d="M1.999 0L89.001 0Q89.0992 0 89.1969 0.00962573Q89.2947 0.0192515 89.391 0.0384102Q89.4873 0.057569 89.5813 0.0860763Q89.6752 0.114584 89.766 0.152165Q89.8567 0.189746 89.9433 0.236039Q90.0299 0.282333 90.1116 0.336892Q90.1932 0.391452 90.2691 0.453752Q90.3451 0.516052 90.4145 0.585494Q90.4839 0.654935 90.5462 0.730848Q90.6085 0.806761 90.6631 0.888415Q90.7177 0.970069 90.764 1.05668Q90.8102 1.14329 90.8478 1.23402Q90.8854 1.32474 90.9139 1.41872Q90.9424 1.5127 90.9616 1.60901Q90.9807 1.70533 90.9904 1.80306Q91 1.9008 91 1.999L91 91.8447Q91 91.943 90.9904 92.0407Q90.9807 92.1384 90.9616 92.2347Q90.9424 92.3311 90.9139 92.425Q90.8854 92.519 90.8478 92.6097Q90.8102 92.7005 90.7639 92.7871Q90.7177 92.8737 90.6631 92.9553Q90.6085 93.037 90.5462 93.1129Q90.4839 93.1888 90.4145 93.2582Q90.3451 93.3277 90.2691 93.39Q90.1932 93.4523 90.1116 93.5068Q90.0299 93.5614 89.9433 93.6077Q89.8567 93.654 89.766 93.6916Q89.6753 93.7292 89.5813 93.7577Q89.4873 93.7862 89.391 93.8053Q89.2947 93.8245 89.1969 93.8341Q89.0992 93.8438 89.001 93.8438L1.999 93.8438Q1.9008 93.8438 1.80306 93.8341Q1.70533 93.8245 1.60901 93.8053Q1.5127 93.7862 1.41872 93.7577Q1.32474 93.7292 1.23402 93.6916Q1.14329 93.654 1.05668 93.6077Q0.970069 93.5614 0.888415 93.5068Q0.806761 93.4523 0.730848 93.39Q0.654935 93.3277 0.585494 93.2582Q0.516052 93.1888 0.453752 93.1129Q0.391452 93.037 0.336892 92.9553Q0.282333 92.8737 0.236039 92.7871Q0.189746 92.7005 0.152165 92.6097Q0.114584 92.519 0.0860763 92.425Q0.057569 92.3311 0.0384102 92.2347Q0.0192515 92.1384 0.00962573 92.0407Q0 91.943 0 91.8447L0 1.999Q0 1.9008 0.00962573 1.80306Q0.0192515 1.70533 0.0384102 1.60901Q0.057569 1.5127 0.0860763 1.41872Q0.114584 1.32474 0.152165 1.23402Q0.189746 1.14329 0.236039 1.05668Q0.282333 0.970069 0.336892 0.888415Q0.391452 0.806761 0.453752 0.730848Q0.516052 0.654935 0.585494 0.585494Q0.654935 0.516052 0.730848 0.453752Q0.806761 0.391452 0.888415 0.336892Q0.970069 0.282333 1.05668 0.236039Q1.14329 0.189746 1.23402 0.152165Q1.32474 0.114584 1.41872 0.0860763Q1.5127 0.057569 1.60901 0.0384102Q1.70533 0.0192515 1.80306 0.00962573Q1.9008 0 1.999 0L1.999 0Z" transform="translate(186 260.99988)" id="Rectangle-8" fill="#000000" stroke="none" />
  <path d="M1.999 0L74.001 0Q74.0992 0 74.1969 0.00962573Q74.2947 0.0192515 74.391 0.0384102Q74.4873 0.057569 74.5813 0.0860763Q74.6752 0.114584 74.766 0.152165Q74.8567 0.189746 74.9433 0.236039Q75.0299 0.282333 75.1116 0.336892Q75.1932 0.391452 75.2692 0.453752Q75.3451 0.516052 75.4145 0.585494Q75.4839 0.654935 75.5462 0.730848Q75.6085 0.806761 75.6631 0.888415Q75.7177 0.970069 75.764 1.05668Q75.8102 1.14329 75.8478 1.23402Q75.8854 1.32474 75.9139 1.41872Q75.9424 1.5127 75.9616 1.60901Q75.9807 1.70533 75.9904 1.80306Q76 1.9008 76 1.999L76 39.001Q76 39.0992 75.9904 39.1969Q75.9807 39.2947 75.9616 39.391Q75.9424 39.4873 75.9139 39.5813Q75.8854 39.6753 75.8478 39.766Q75.8102 39.8567 75.764 39.9433Q75.7177 40.0299 75.6631 40.1116Q75.6085 40.1932 75.5462 40.2691Q75.4839 40.3451 75.4145 40.4145Q75.3451 40.4839 75.2692 40.5462Q75.1932 40.6085 75.1116 40.6631Q75.0299 40.7177 74.9433 40.764Q74.8567 40.8102 74.766 40.8478Q74.6752 40.8854 74.5813 40.9139Q74.4873 40.9424 74.391 40.9616Q74.2947 40.9808 74.1969 40.9904Q74.0992 41 74.001 41L1.999 41Q1.9008 41 1.80306 40.9904Q1.70533 40.9808 1.60901 40.9616Q1.5127 40.9424 1.41872 40.9139Q1.32474 40.8854 1.23402 40.8478Q1.14329 40.8102 1.05668 40.764Q0.970069 40.7177 0.888415 40.6631Q0.806761 40.6085 0.730848 40.5462Q0.654935 40.4839 0.585494 40.4145Q0.516052 40.3451 0.453752 40.2691Q0.391452 40.1932 0.336892 40.1116Q0.282333 40.0299 0.236039 39.9433Q0.189746 39.8567 0.152165 39.766Q0.114584 39.6753 0.0860763 39.5813Q0.057569 39.4873 0.0384102 39.391Q0.0192515 39.2947 0.00962573 39.1969Q0 39.0992 0 39.001L0 1.999Q0 1.9008 0.00962573 1.80306Q0.0192515 1.70533 0.0384102 1.60901Q0.057569 1.5127 0.0860763 1.41872Q0.114584 1.32474 0.152165 1.23402Q0.189746 1.14329 0.236039 1.05668Q0.282333 0.970069 0.336892 0.888415Q0.391452 0.806761 0.453752 0.730848Q0.516052 0.654935 0.585494 0.585494Q0.654935 0.516052 0.730848 0.453752Q0.806761 0.391452 0.888415 0.336892Q0.970069 0.282333 1.05668 0.236039Q1.14329 0.189746 1.23402 0.152165Q1.32474 0.114584 1.41872 0.0860763Q1.5127 0.057569 1.60901 0.0384102Q1.70533 0.0192515 1.80306 0.00962573Q1.9008 0 1.999 0L1.999 0Z" transform="translate(193 309)" id="Rectangle-9" fill="#FFFFFF" fill-opacity="0" stroke="#FFFFFF" stroke-width="2" stroke-dasharray="2 3" />
  <g id="Controller" fill="#FFFFFF" transform="translate(201 273.84375)">
    <path d="M44.424 5.892Q44.514 7.854 44.73 9.951Q44.946 12.048 45.198 13.956Q45.2369 14.527 44.9952 14.6957Q44.9016 14.761 44.766 14.766Q44.658 14.766 44.55 14.685Q44.442 14.604 44.352 14.478Q44.262 14.352 44.181 14.208Q44.1 14.064 44.082 13.956Q43.938 13.038 43.812 12.012Q43.686 10.986 43.587 9.951Q43.488 8.916 43.416 7.926Q43.344 6.936 43.326 6.108Q43.362 5.676 43.452 5.379Q43.542 5.082 43.83 5.1Q44.136 5.118 44.271 5.343Q44.406 5.568 44.424 5.892ZM48.492 9.951Q48.276 7.854 48.186 5.892Q48.168 5.568 48.033 5.343Q47.898 5.118 47.592 5.1Q47.304 5.082 47.214 5.379Q47.124 5.676 47.088 6.108Q47.106 6.936 47.178 7.926Q47.25 8.916 47.349 9.951Q47.448 10.986 47.574 12.012Q47.7 13.038 47.844 13.956Q47.862 14.064 47.943 14.208Q48.024 14.352 48.114 14.478Q48.204 14.604 48.312 14.685Q48.42 14.766 48.528 14.766Q48.6636 14.761 48.7572 14.6957Q48.9989 14.527 48.96 13.956Q48.708 12.048 48.492 9.951ZM26.604 9.654Q26.262 9.474 25.92 9.492Q25.614 9.51 25.281 9.519Q24.948 9.528 24.588 9.564Q24.642 8.754 24.705 7.98Q24.768 7.206 24.84 6.594Q24.84 6.378 24.561 6.207Q24.282 6.036 23.976 6.054Q23.85 6.054 23.742 6.216Q23.634 6.378 23.616 6.594Q23.562 7.242 23.49 8.034Q23.418 8.826 23.364 9.672Q22.464 9.762 21.726 9.888Q21.42 9.978 21.33 10.158Q21.24 10.338 21.24 10.446Q21.24 10.752 21.519 10.86Q21.798 10.968 22.032 10.968Q22.32 10.932 22.635 10.905Q22.95 10.878 23.292 10.842Q23.256 11.688 23.229 12.444Q23.202 13.2 23.238 13.776Q23.274 14.352 23.58 14.73Q23.886 15.108 24.48 15.054Q24.876 15.018 25.389 14.829Q25.902 14.64 26.406 14.388Q26.91 14.136 27.351 13.857Q27.792 13.578 28.062 13.362Q28.296 13.128 28.386 12.84Q28.476 12.552 28.44 12.354Q28.404 12.228 28.251 12.192Q28.098 12.156 27.918 12.246Q27.522 12.444 27.081 12.669Q26.64 12.894 26.181 13.101Q25.722 13.308 25.263 13.479Q24.804 13.65 24.408 13.722Q24.39 13.704 24.39 13.452Q24.39 13.2 24.408 12.795Q24.426 12.39 24.453 11.868Q24.48 11.346 24.516 10.752Q24.948 10.716 25.362 10.698Q25.776 10.68 26.136 10.68Q26.316 10.68 26.613 10.599Q26.91 10.518 26.946 10.212Q26.946 9.834 26.604 9.654ZM4.545 7.953Q4.536 7.818 4.464 7.728Q4.158 7.332 3.537 7.269Q2.916 7.206 2.304 7.512Q1.476 7.926 1.017 8.79Q0.558 9.654 0.594 10.734Q0.612 11.184 0.738 11.607Q0.864 12.03 1.116 12.399Q1.368 12.768 1.755 13.047Q2.142 13.326 2.7 13.47Q3.096 13.578 3.546 13.569Q3.996 13.56 4.428 13.452Q4.86 13.344 5.22 13.164Q5.58 12.984 5.796 12.75Q5.976 12.516 5.886 12.282Q5.85 12.192 5.751 12.138Q5.652 12.084 5.544 12.12Q5.22 12.246 4.86 12.345Q4.5 12.444 4.131 12.489Q3.762 12.534 3.402 12.516Q3.042 12.498 2.754 12.372Q2.286 12.174 1.989 11.733Q1.692 11.292 1.692 10.68Q1.692 10.05 1.926 9.465Q2.16 8.88 2.574 8.574Q2.988 8.268 3.402 8.25Q3.816 8.232 4.194 8.322Q4.41 8.376 4.5 8.178Q4.554 8.088 4.545 7.953ZM34.56 8.106Q34.236 8.286 33.885 8.484Q33.534 8.682 33.183 8.943Q32.832 9.204 32.517 9.555Q32.202 9.906 31.95 10.392Q31.59 11.076 31.464 11.787Q31.338 12.498 31.302 13.182Q31.302 13.506 31.149 13.839Q30.996 14.172 30.726 14.172Q30.384 14.172 30.177 13.821Q29.97 13.47 29.898 13.146Q29.592 11.868 29.394 10.617Q29.196 9.366 29.052 8.124Q29.052 7.872 29.205 7.8Q29.358 7.728 29.556 7.746Q29.772 7.764 29.97 7.854Q30.168 7.944 30.204 8.142Q30.276 8.808 30.384 9.537Q30.492 10.266 30.6 10.788Q30.672 10.176 30.996 9.6Q31.32 9.024 31.797 8.556Q32.274 8.088 32.877 7.764Q33.48 7.44 34.11 7.332Q34.38 7.296 34.56 7.332Q34.74 7.368 34.812 7.458Q34.884 7.548 34.839 7.746Q34.794 7.944 34.56 8.106ZM61.461 8.484Q61.812 8.286 62.136 8.106Q62.37 7.944 62.415 7.746Q62.46 7.548 62.388 7.458Q62.316 7.368 62.136 7.332Q61.956 7.296 61.686 7.332Q61.056 7.44 60.453 7.764Q59.85 8.088 59.373 8.556Q58.896 9.024 58.572 9.6Q58.248 10.176 58.176 10.788Q58.068 10.266 57.96 9.537Q57.852 8.808 57.78 8.142Q57.744 7.944 57.546 7.854Q57.348 7.764 57.132 7.746Q56.934 7.728 56.781 7.8Q56.628 7.872 56.628 8.124Q56.772 9.366 56.97 10.617Q57.168 11.868 57.474 13.146Q57.546 13.47 57.753 13.821Q57.96 14.172 58.302 14.172Q58.572 14.172 58.725 13.839Q58.878 13.506 58.878 13.182Q58.914 12.498 59.04 11.787Q59.166 11.076 59.526 10.392Q59.778 9.906 60.093 9.555Q60.408 9.204 60.759 8.943Q61.11 8.682 61.461 8.484ZM15.354 8.376Q15.408 8.646 15.471 8.979Q15.534 9.312 15.606 9.663Q15.678 10.014 15.732 10.374Q15.786 10.734 15.822 11.058Q16.038 10.59 16.29 10.068Q16.542 9.546 16.839 9.105Q17.136 8.664 17.469 8.376Q17.802 8.088 18.198 8.088Q18.792 8.088 19.197 8.52Q19.602 8.952 19.881 9.591Q20.16 10.23 20.322 10.932Q20.484 11.634 20.592 12.174Q20.7 12.66 20.16 12.894Q19.908 13.02 19.782 12.93Q19.656 12.84 19.638 12.75Q19.548 12.534 19.413 11.994Q19.278 11.454 19.107 10.896Q18.936 10.338 18.72 9.924Q18.504 9.51 18.234 9.546Q17.91 9.564 17.658 10.032Q17.442 10.41 17.217 10.869Q16.992 11.328 16.776 11.805Q16.56 12.282 16.353 12.759Q16.146 13.236 15.966 13.632Q15.84 13.758 15.651 13.803Q15.462 13.848 15.264 13.776Q15.084 13.722 14.976 13.596Q14.868 13.47 14.868 13.344Q14.706 11.94 14.535 10.788Q14.364 9.636 14.094 8.43Q13.968 8.016 14.049 7.773Q14.13 7.53 14.58 7.584Q15.21 7.692 15.354 8.376ZM11.979 8.628Q11.61 8.232 11.07 8.034Q10.728 7.89 10.494 8.106Q10.17 7.926 9.792 7.827Q9.414 7.728 9.162 7.728Q8.712 7.728 8.361 7.962Q8.01 8.196 7.74 8.565Q7.47 8.934 7.299 9.411Q7.128 9.888 7.056 10.392Q6.948 11.076 7.029 11.76Q7.11 12.444 7.398 12.984Q7.686 13.524 8.19 13.866Q8.694 14.208 9.432 14.208Q10.044 14.208 10.548 13.974Q11.052 13.74 11.448 13.362Q11.844 12.984 12.15 12.498Q12.456 12.012 12.654 11.508Q12.798 11.058 12.771 10.536Q12.744 10.014 12.546 9.519Q12.348 9.024 11.979 8.628ZM40.689 8.628Q40.32 8.232 39.78 8.034Q39.438 7.89 39.204 8.106Q38.88 7.926 38.502 7.827Q38.124 7.728 37.872 7.728Q37.422 7.728 37.071 7.962Q36.72 8.196 36.45 8.565Q36.18 8.934 36.009 9.411Q35.838 9.888 35.766 10.392Q35.658 11.076 35.739 11.76Q35.82 12.444 36.108 12.984Q36.396 13.524 36.9 13.866Q37.404 14.208 38.142 14.208Q38.754 14.208 39.258 13.974Q39.762 13.74 40.158 13.362Q40.554 12.984 40.86 12.498Q41.166 12.012 41.364 11.508Q41.508 11.058 41.481 10.536Q41.454 10.014 41.256 9.519Q41.058 9.024 40.689 8.628ZM54.792 10.086Q54.09 10.5 53.28 10.725Q52.47 10.95 51.534 10.95Q51.57 11.58 51.894 11.949Q52.218 12.318 52.704 12.39Q52.992 12.426 53.289 12.372Q53.586 12.318 53.847 12.201Q54.108 12.084 54.324 11.94Q54.54 11.796 54.702 11.652Q54.864 11.508 55.044 11.463Q55.224 11.418 55.314 11.454Q55.566 11.544 55.494 11.994Q55.206 12.57 54.666 12.975Q54.126 13.38 53.46 13.488Q52.884 13.596 52.272 13.434Q51.66 13.272 51.174 12.804Q50.76 12.39 50.544 11.832Q50.328 11.274 50.274 10.68Q50.22 10.122 50.373 9.618Q50.526 9.114 50.85 8.727Q51.174 8.34 51.66 8.088Q52.146 7.836 52.794 7.8Q53.568 7.746 54.198 8.088Q54.828 8.43 55.08 9.042Q55.224 9.384 55.161 9.636Q55.098 9.888 54.792 10.086ZM9.927 9.015Q10.188 9.222 10.386 9.348Q10.458 9.384 10.584 9.384Q10.71 9.384 10.836 9.294Q11.358 9.546 11.529 10.113Q11.7 10.68 11.52 11.202Q11.358 11.67 11.061 12.03Q10.764 12.39 10.431 12.606Q10.098 12.822 9.756 12.903Q9.414 12.984 9.162 12.912Q8.748 12.786 8.541 12.489Q8.334 12.192 8.262 11.823Q8.19 11.454 8.208 11.076Q8.226 10.698 8.28 10.428Q8.316 10.266 8.424 9.996Q8.532 9.726 8.685 9.465Q8.838 9.204 9.045 9.006Q9.252 8.808 9.468 8.808Q9.666 8.808 9.927 9.015ZM38.637 9.015Q38.898 9.222 39.096 9.348Q39.168 9.384 39.294 9.384Q39.42 9.384 39.546 9.294Q40.068 9.546 40.239 10.113Q40.41 10.68 40.23 11.202Q40.068 11.67 39.771 12.03Q39.474 12.39 39.141 12.606Q38.808 12.822 38.466 12.903Q38.124 12.984 37.872 12.912Q37.458 12.786 37.251 12.489Q37.044 12.192 36.972 11.823Q36.9 11.454 36.918 11.076Q36.936 10.698 36.99 10.428Q37.026 10.266 37.134 9.996Q37.242 9.726 37.395 9.465Q37.548 9.204 37.755 9.006Q37.962 8.808 38.178 8.808Q38.376 8.808 38.637 9.015ZM52.722 8.862Q52.542 8.898 52.335 8.988Q52.128 9.078 51.957 9.213Q51.786 9.348 51.651 9.519Q51.516 9.69 51.498 9.906Q51.804 9.906 52.173 9.852Q52.542 9.798 52.893 9.717Q53.244 9.636 53.541 9.528Q53.838 9.42 54.036 9.294Q53.892 8.952 53.505 8.871Q53.118 8.79 52.722 8.862Z" />
  </g>
  <g id="actions" fill="#FFFFFF" transform="translate(209 318.84375)">
    <path d="M18.486 9.654Q18.144 9.474 17.802 9.492Q17.496 9.51 17.163 9.519Q16.83 9.528 16.47 9.564Q16.524 8.754 16.587 7.98Q16.65 7.206 16.722 6.594Q16.722 6.378 16.443 6.207Q16.164 6.036 15.858 6.054Q15.732 6.054 15.624 6.216Q15.516 6.378 15.498 6.594Q15.444 7.242 15.372 8.034Q15.3 8.826 15.246 9.672Q14.346 9.762 13.608 9.888Q13.302 9.978 13.212 10.158Q13.122 10.338 13.122 10.446Q13.122 10.752 13.401 10.86Q13.68 10.968 13.914 10.968Q14.202 10.932 14.517 10.905Q14.832 10.878 15.174 10.842Q15.138 11.688 15.111 12.444Q15.084 13.2 15.12 13.776Q15.156 14.352 15.462 14.73Q15.768 15.108 16.362 15.054Q16.758 15.018 17.271 14.829Q17.784 14.64 18.288 14.388Q18.792 14.136 19.233 13.857Q19.674 13.578 19.944 13.362Q20.178 13.128 20.268 12.84Q20.358 12.552 20.322 12.354Q20.286 12.228 20.133 12.192Q19.98 12.156 19.8 12.246Q19.404 12.444 18.963 12.669Q18.522 12.894 18.063 13.101Q17.604 13.308 17.145 13.479Q16.686 13.65 16.29 13.722Q16.272 13.704 16.272 13.452Q16.272 13.2 16.29 12.795Q16.308 12.39 16.335 11.868Q16.362 11.346 16.398 10.752Q16.83 10.716 17.244 10.698Q17.658 10.68 18.018 10.68Q18.198 10.68 18.495 10.599Q18.792 10.518 18.828 10.212Q18.828 9.834 18.486 9.654ZM24.084 6.972Q24.048 7.152 23.832 7.17Q23.616 7.188 23.472 7.188Q23.022 7.206 22.545 7.278Q22.068 7.35 21.546 7.494Q21.33 7.566 21.078 7.44Q20.826 7.314 20.772 6.936Q20.772 6.792 20.88 6.702Q20.988 6.612 21.132 6.54Q21.366 6.432 21.69 6.351Q22.014 6.27 22.347 6.234Q22.68 6.198 22.986 6.207Q23.292 6.216 23.49 6.27Q23.778 6.36 23.949 6.54Q24.12 6.72 24.084 6.972ZM5.238 7.656Q5.31 8.16 5.355 8.727Q5.4 9.294 5.427 9.87Q5.454 10.446 5.454 10.986Q5.454 11.526 5.436 11.958Q6.012 12.354 6.129 12.66Q6.246 12.966 6.156 13.2Q6.048 13.524 5.769 13.533Q5.49 13.542 5.13 13.344Q4.878 13.524 4.554 13.731Q4.23 13.938 3.87 14.127Q3.51 14.316 3.15 14.46Q2.79 14.604 2.484 14.658Q1.908 14.748 1.449 14.442Q0.99 14.136 0.828 13.524Q0.72 13.11 0.774 12.669Q0.828 12.228 1.044 11.823Q1.26 11.418 1.629 11.094Q1.998 10.77 2.502 10.59Q2.628 10.536 2.853 10.5Q3.078 10.464 3.321 10.473Q3.564 10.482 3.816 10.572Q4.068 10.662 4.284 10.878Q4.284 10.572 4.275 10.203Q4.266 9.834 4.248 9.456Q4.23 9.078 4.203 8.745Q4.176 8.412 4.14 8.178Q4.104 7.908 3.933 7.845Q3.762 7.782 3.51 7.872Q3.078 8.016 2.502 8.43Q1.926 8.844 1.404 9.312Q1.242 9.474 1.035 9.456Q0.828 9.438 0.684 9.294Q0.54 9.15 0.522 8.961Q0.504 8.772 0.666 8.556Q0.972 8.232 1.35 7.89Q1.728 7.548 2.142 7.269Q2.556 6.99 2.988 6.81Q3.42 6.63 3.852 6.612Q4.482 6.594 4.824 6.891Q5.166 7.188 5.238 7.656ZM43.614 8.556Q43.65 8.736 43.686 8.934Q43.704 9.096 43.857 9.195Q44.01 9.294 44.262 9.258Q44.46 9.222 44.541 9.06Q44.622 8.898 44.622 8.646Q44.532 7.89 44.028 7.503Q43.524 7.116 42.75 7.08Q42.3 7.08 41.85 7.278Q41.4 7.476 41.049 7.809Q40.698 8.142 40.482 8.574Q40.266 9.006 40.284 9.474Q40.356 9.996 40.626 10.347Q40.896 10.698 41.274 10.95Q41.652 11.202 42.183 11.508Q42.714 11.814 43.173 12.138Q43.632 12.462 43.911 12.759Q44.19 13.056 44.064 13.272Q43.92 13.524 43.56 13.686Q43.2 13.848 42.75 13.947Q42.3 14.046 41.805 14.091Q41.31 14.136 40.878 14.136Q40.572 14.136 40.284 14.262Q39.996 14.388 39.996 14.712Q39.996 14.802 40.095 14.919Q40.194 15.036 40.329 15.144Q40.464 15.252 40.617 15.333Q40.77 15.414 40.878 15.414Q41.328 15.414 41.976 15.351Q42.624 15.288 43.272 15.117Q43.92 14.946 44.46 14.64Q45 14.334 45.198 13.848Q45.45 13.218 45.279 12.723Q45.108 12.228 44.64 11.814Q44.172 11.4 43.488 11.004Q42.804 10.608 42.174 10.23Q41.796 9.978 41.598 9.726Q41.4 9.474 41.454 9.204Q41.472 9.06 41.67 8.871Q41.868 8.682 42.156 8.529Q42.444 8.376 42.786 8.304Q43.128 8.232 43.434 8.322Q43.578 8.376 43.614 8.556ZM33.84 8.376Q33.894 8.646 33.957 8.979Q34.02 9.312 34.092 9.663Q34.164 10.014 34.218 10.374Q34.272 10.734 34.308 11.058Q34.524 10.59 34.776 10.068Q35.028 9.546 35.325 9.105Q35.622 8.664 35.955 8.376Q36.288 8.088 36.684 8.088Q37.278 8.088 37.683 8.52Q38.088 8.952 38.367 9.591Q38.646 10.23 38.808 10.932Q38.97 11.634 39.078 12.174Q39.186 12.66 38.646 12.894Q38.394 13.02 38.268 12.93Q38.142 12.84 38.124 12.75Q38.034 12.534 37.899 11.994Q37.764 11.454 37.593 10.896Q37.422 10.338 37.206 9.924Q36.99 9.51 36.72 9.546Q36.396 9.564 36.144 10.032Q35.928 10.41 35.703 10.869Q35.478 11.328 35.262 11.805Q35.046 12.282 34.839 12.759Q34.632 13.236 34.452 13.632Q34.326 13.758 34.137 13.803Q33.948 13.848 33.75 13.776Q33.57 13.722 33.462 13.596Q33.354 13.47 33.354 13.344Q33.192 11.94 33.021 10.788Q32.85 9.636 32.58 8.43Q32.454 8.016 32.535 7.773Q32.616 7.53 33.066 7.584Q33.696 7.692 33.84 8.376ZM30.465 8.628Q30.096 8.232 29.556 8.034Q29.214 7.89 28.98 8.106Q28.656 7.926 28.278 7.827Q27.9 7.728 27.648 7.728Q27.198 7.728 26.847 7.962Q26.496 8.196 26.226 8.565Q25.956 8.934 25.785 9.411Q25.614 9.888 25.542 10.392Q25.434 11.076 25.515 11.76Q25.596 12.444 25.884 12.984Q26.172 13.524 26.676 13.866Q27.18 14.208 27.918 14.208Q28.53 14.208 29.034 13.974Q29.538 13.74 29.934 13.362Q30.33 12.984 30.636 12.498Q30.942 12.012 31.14 11.508Q31.284 11.058 31.257 10.536Q31.23 10.014 31.032 9.519Q30.834 9.024 30.465 8.628ZM11.34 9.69Q11.214 9.762 11.034 9.735Q10.854 9.708 10.728 9.51Q10.44 9.132 10.026 9.132Q9.648 9.132 9.351 9.303Q9.054 9.474 8.829 9.753Q8.604 10.032 8.46 10.374Q8.316 10.716 8.262 11.058Q8.172 11.688 8.478 12.12Q8.784 12.552 9.432 12.552Q9.954 12.57 10.611 12.345Q11.268 12.12 11.844 11.76Q12.096 11.652 12.312 11.634Q12.528 11.616 12.672 11.85Q12.852 12.138 12.582 12.435Q12.312 12.732 11.862 12.966Q11.412 13.218 10.917 13.407Q10.422 13.596 9.918 13.677Q9.414 13.758 8.919 13.686Q8.424 13.614 7.992 13.344Q7.308 12.876 7.164 12.012Q7.02 11.148 7.29 10.23Q7.398 9.888 7.596 9.537Q7.794 9.186 8.073 8.898Q8.352 8.61 8.694 8.403Q9.036 8.196 9.45 8.124Q10.116 8.016 10.728 8.259Q11.34 8.502 11.538 9.15Q11.574 9.294 11.538 9.447Q11.502 9.6 11.34 9.69ZM28.413 9.015Q28.674 9.222 28.872 9.348Q28.944 9.384 29.07 9.384Q29.196 9.384 29.322 9.294Q29.844 9.546 30.015 10.113Q30.186 10.68 30.006 11.202Q29.844 11.67 29.547 12.03Q29.25 12.39 28.917 12.606Q28.584 12.822 28.242 12.903Q27.9 12.984 27.648 12.912Q27.234 12.786 27.027 12.489Q26.82 12.192 26.748 11.823Q26.676 11.454 26.694 11.076Q26.712 10.698 26.766 10.428Q26.802 10.266 26.91 9.996Q27.018 9.726 27.171 9.465Q27.324 9.204 27.531 9.006Q27.738 8.808 27.954 8.808Q28.152 8.808 28.413 9.015ZM23.67 12.966Q23.796 13.254 23.805 13.587Q23.814 13.92 23.616 14.046Q23.364 14.208 23.076 14.028Q22.788 13.848 22.644 13.542Q22.446 13.164 22.338 12.615Q22.23 12.066 22.176 11.526Q22.122 10.986 22.113 10.518Q22.104 10.05 22.104 9.816Q22.122 9.564 22.248 9.348Q22.374 9.132 22.572 9.096Q22.896 9.114 23.094 9.393Q23.292 9.672 23.274 10.086Q23.274 10.41 23.292 10.806Q23.31 11.202 23.364 11.598Q23.418 11.994 23.49 12.363Q23.562 12.732 23.67 12.966ZM3.15 11.526Q2.916 11.58 2.655 11.751Q2.394 11.922 2.187 12.165Q1.98 12.408 1.881 12.705Q1.782 13.002 1.872 13.29Q1.908 13.398 2.025 13.452Q2.142 13.506 2.286 13.47Q2.718 13.38 3.267 13.119Q3.816 12.858 4.14 12.552Q4.14 12.444 4.032 12.273Q3.924 12.102 3.78 11.931Q3.636 11.76 3.465 11.634Q3.294 11.508 3.15 11.526Z" />
  </g>
  <path d="M0 0L185.2 43.8795" transform="matrix(-0.6018151 0.7986355 -0.7986355 -0.6018151 231.49994 128.84381)" id="New-shape-6" fill="none" stroke="#000000" stroke-width="2" />
  <path d="M0 12L7 0L14 12" transform="matrix(-0.6819983 -0.7313537 0.7313537 -0.6819983 81.605194 262.23077)" id="New-shape-7" fill="none" stroke="#000000" stroke-width="2" />
  <path d="M0 0L185.2 43.8795" transform="matrix(-0.6018151 0.7986355 -0.7986355 -0.6018151 231.49988 128.84381)" id="New-shape-8" fill="none" stroke="#000000" stroke-width="2" />
  <path d="M0 12L7 0L14 12" transform="matrix(-0.6819983 -0.7313537 0.7313537 -0.6819983 81.605194 262.23077)" id="New-shape-9" fill="none" stroke="#000000" stroke-width="2" />
  <path d="M0 0L70.1224 16.4509" transform="matrix(0.97437006 -0.22495104 0.22495104 0.97437006 103 296.34375)" id="New-shape-10" fill="none" stroke="#000000" stroke-width="2" />
  <path d="M0 12L7 0L14 12" transform="matrix(0.052335974 0.9986295 -0.9986295 0.052335974 185.26733 289.67468)" id="New-shape-11" fill="none" stroke="#000000" stroke-width="2" />
  <path d="M7.999 0C18.684 0 38.5295 0 57.9393 0C77.0644 0 95.7665 0 106.001 0C110.419 0 114 3.58127 114 7.999L114 16.001Q114 16.1974 113.99 16.3935Q113.981 16.5896 113.961 16.785Q113.942 16.9805 113.913 17.1747Q113.885 17.3689 113.846 17.5615Q113.808 17.7541 113.76 17.9446Q113.713 18.1351 113.656 18.323Q113.599 18.5109 113.532 18.6958Q113.466 18.8807 113.391 19.0621Q113.316 19.2435 113.232 19.421Q113.148 19.5985 113.055 19.7717Q112.963 19.9449 112.862 20.1133Q112.761 20.2817 112.652 20.445Q112.543 20.6083 112.426 20.766Q112.309 20.9237 112.184 21.0755Q112.06 21.2273 111.928 21.3728Q111.796 21.5183 111.657 21.6571Q111.518 21.796 111.373 21.9279Q111.227 22.0597 111.076 22.1843Q110.924 22.3089 110.766 22.4259Q110.608 22.5428 110.445 22.6519Q110.282 22.761 110.113 22.862Q109.945 22.9629 109.772 23.0555Q109.599 23.1481 109.421 23.232Q109.243 23.316 109.062 23.3911Q108.881 23.4663 108.696 23.5324Q108.511 23.5986 108.323 23.6556Q108.135 23.7126 107.945 23.7603Q107.754 23.808 107.562 23.8463Q107.369 23.8846 107.175 23.9134Q106.98 23.9422 106.785 23.9615Q106.59 23.9807 106.393 23.9904Q106.197 24 106.001 24L7.999 24Q7.80264 24 7.60651 23.9904Q7.41038 23.9807 7.21496 23.9615Q7.01954 23.9422 6.8253 23.9134Q6.63106 23.8846 6.43847 23.8463Q6.24588 23.808 6.0554 23.7603Q5.86492 23.7126 5.67701 23.6556Q5.4891 23.5986 5.30422 23.5324Q5.11933 23.4663 4.93791 23.3911Q4.7565 23.316 4.57899 23.232Q4.40148 23.1481 4.2283 23.0555Q4.05512 22.9629 3.88669 22.862Q3.71826 22.761 3.55499 22.6519Q3.39172 22.5428 3.234 22.4259Q3.07628 22.3089 2.92449 22.1843Q2.7727 22.0597 2.6272 21.9279Q2.4817 21.796 2.34285 21.6571Q2.204 21.5183 2.07213 21.3728Q1.94026 21.2273 1.81569 21.0755Q1.69112 20.9237 1.57414 20.766Q1.45717 20.6083 1.34807 20.445Q1.23898 20.2817 1.13803 20.1133Q1.03708 19.9449 0.944512 19.7717Q0.851946 19.5985 0.76799 19.421Q0.684033 19.2435 0.608888 19.0621Q0.533742 18.8807 0.467589 18.6958Q0.401436 18.5109 0.344434 18.323Q0.287433 18.1351 0.23972 17.9446Q0.192007 17.7541 0.153699 17.5615Q0.11539 17.3689 0.0865771 17.1747Q0.0577644 16.9805 0.0385174 16.785Q0.0192703 16.5896 0.00963514 16.3935Q0 16.1974 0 16.001L0 7.999C0 3.58127 3.58127 0 7.999 0Z" transform="translate(109 174.84375)" id="Rectangle-11" fill="#000000" stroke="none" />
  <g id="sends-request" fill="#FFFFFF" transform="translate(121.54492 175.82678)">
    <path d="M26.969 4.596Q26.87 4.866 26.924 5.19L27.374 8.034L27.05 8.106Q26.186 8.322 25.574 8.7Q24.962 9.078 24.548 9.546Q23.576 10.68 24.008 12.066Q24.206 12.696 24.665 13.101Q25.124 13.506 25.718 13.686Q26.312 13.866 26.96 13.839Q27.608 13.812 28.202 13.596L28.274 13.578L28.292 13.686Q28.346 13.92 28.535 14.01Q28.724 14.1 28.94 14.01Q29.138 13.92 29.282 13.731Q29.426 13.542 29.354 13.02Q29.102 11.058 28.787 9.015Q28.472 6.972 28.112 4.902Q28.058 4.614 27.851 4.434Q27.644 4.254 27.374 4.29Q27.068 4.326 26.969 4.596ZM86.072 9.654Q85.73 9.474 85.388 9.492Q85.082 9.51 84.749 9.519Q84.416 9.528 84.056 9.564Q84.11 8.754 84.173 7.98Q84.236 7.206 84.308 6.594Q84.308 6.378 84.029 6.207Q83.75 6.036 83.444 6.054Q83.318 6.054 83.21 6.216Q83.102 6.378 83.084 6.594Q83.03 7.242 82.958 8.034Q82.886 8.826 82.832 9.672Q81.932 9.762 81.194 9.888Q80.888 9.978 80.798 10.158Q80.708 10.338 80.708 10.446Q80.708 10.752 80.987 10.86Q81.266 10.968 81.5 10.968Q81.788 10.932 82.103 10.905Q82.418 10.878 82.76 10.842Q82.724 11.688 82.697 12.444Q82.67 13.2 82.706 13.776Q82.742 14.352 83.048 14.73Q83.354 15.108 83.948 15.054Q84.344 15.018 84.857 14.829Q85.37 14.64 85.874 14.388Q86.378 14.136 86.819 13.857Q87.26 13.578 87.53 13.362Q87.764 13.128 87.854 12.84Q87.944 12.552 87.908 12.354Q87.872 12.228 87.719 12.192Q87.566 12.156 87.386 12.246Q86.99 12.444 86.549 12.669Q86.108 12.894 85.649 13.101Q85.19 13.308 84.731 13.479Q84.272 13.65 83.876 13.722Q83.858 13.704 83.858 13.452Q83.858 13.2 83.876 12.795Q83.894 12.39 83.921 11.868Q83.948 11.346 83.984 10.752Q84.416 10.716 84.83 10.698Q85.244 10.68 85.604 10.68Q85.784 10.68 86.081 10.599Q86.378 10.518 86.414 10.212Q86.414 9.834 86.072 9.654ZM7.124 8.556Q7.16 8.736 7.196 8.934Q7.214 9.096 7.367 9.195Q7.52 9.294 7.772 9.258Q7.97 9.222 8.051 9.06Q8.132 8.898 8.132 8.646Q8.042 7.89 7.538 7.503Q7.034 7.116 6.26 7.08Q5.81 7.08 5.36 7.278Q4.91 7.476 4.559 7.809Q4.208 8.142 3.992 8.574Q3.776 9.006 3.794 9.474Q3.866 9.996 4.136 10.347Q4.406 10.698 4.784 10.95Q5.162 11.202 5.693 11.508Q6.224 11.814 6.683 12.138Q7.142 12.462 7.421 12.759Q7.7 13.056 7.574 13.272Q7.43 13.524 7.07 13.686Q6.71 13.848 6.26 13.947Q5.81 14.046 5.315 14.091Q4.82 14.136 4.388 14.136Q4.082 14.136 3.794 14.262Q3.506 14.388 3.506 14.712Q3.506 14.802 3.605 14.919Q3.704 15.036 3.839 15.144Q3.974 15.252 4.127 15.333Q4.28 15.414 4.388 15.414Q4.838 15.414 5.486 15.351Q6.134 15.288 6.782 15.117Q7.43 14.946 7.97 14.64Q8.51 14.334 8.708 13.848Q8.96 13.218 8.789 12.723Q8.618 12.228 8.15 11.814Q7.682 11.4 6.998 11.004Q6.314 10.608 5.684 10.23Q5.306 9.978 5.108 9.726Q4.91 9.474 4.964 9.204Q4.982 9.06 5.18 8.871Q5.378 8.682 5.666 8.529Q5.954 8.376 6.296 8.304Q6.638 8.232 6.944 8.322Q7.088 8.376 7.124 8.556ZM33.674 8.934Q33.638 8.736 33.602 8.556Q33.566 8.376 33.422 8.322Q33.116 8.232 32.774 8.304Q32.432 8.376 32.144 8.529Q31.856 8.682 31.658 8.871Q31.46 9.06 31.442 9.204Q31.388 9.474 31.586 9.726Q31.784 9.978 32.162 10.23Q32.792 10.608 33.476 11.004Q34.16 11.4 34.628 11.814Q35.096 12.228 35.267 12.723Q35.438 13.218 35.186 13.848Q34.988 14.334 34.448 14.64Q33.908 14.946 33.26 15.117Q32.612 15.288 31.964 15.351Q31.316 15.414 30.866 15.414Q30.758 15.414 30.605 15.333Q30.452 15.252 30.317 15.144Q30.182 15.036 30.083 14.919Q29.984 14.802 29.984 14.712Q29.984 14.388 30.272 14.262Q30.56 14.136 30.866 14.136Q31.298 14.136 31.793 14.091Q32.288 14.046 32.738 13.947Q33.188 13.848 33.548 13.686Q33.908 13.524 34.052 13.272Q34.178 13.056 33.899 12.759Q33.62 12.462 33.161 12.138Q32.702 11.814 32.171 11.508Q31.64 11.202 31.262 10.95Q30.884 10.698 30.614 10.347Q30.344 9.996 30.272 9.474Q30.254 9.006 30.47 8.574Q30.686 8.142 31.037 7.809Q31.388 7.476 31.838 7.278Q32.288 7.08 32.738 7.08Q33.512 7.116 34.016 7.503Q34.52 7.89 34.61 8.646Q34.61 8.898 34.529 9.06Q34.448 9.222 34.25 9.258Q33.998 9.294 33.845 9.195Q33.692 9.096 33.674 8.934ZM78.566 8.934Q78.53 8.736 78.494 8.556Q78.458 8.376 78.314 8.322Q78.008 8.232 77.666 8.304Q77.324 8.376 77.036 8.529Q76.748 8.682 76.55 8.871Q76.352 9.06 76.334 9.204Q76.28 9.474 76.478 9.726Q76.676 9.978 77.054 10.23Q77.684 10.608 78.368 11.004Q79.052 11.4 79.52 11.814Q79.988 12.228 80.159 12.723Q80.33 13.218 80.078 13.848Q79.88 14.334 79.34 14.64Q78.8 14.946 78.152 15.117Q77.504 15.288 76.856 15.351Q76.208 15.414 75.758 15.414Q75.65 15.414 75.497 15.333Q75.344 15.252 75.209 15.144Q75.074 15.036 74.975 14.919Q74.876 14.802 74.876 14.712Q74.876 14.388 75.164 14.262Q75.452 14.136 75.758 14.136Q76.19 14.136 76.685 14.091Q77.18 14.046 77.63 13.947Q78.08 13.848 78.44 13.686Q78.8 13.524 78.944 13.272Q79.07 13.056 78.791 12.759Q78.512 12.462 78.053 12.138Q77.594 11.814 77.063 11.508Q76.532 11.202 76.154 10.95Q75.776 10.698 75.506 10.347Q75.236 9.996 75.164 9.474Q75.146 9.006 75.362 8.574Q75.578 8.142 75.929 7.809Q76.28 7.476 76.73 7.278Q77.18 7.08 77.63 7.08Q78.404 7.116 78.908 7.503Q79.412 7.89 79.502 8.646Q79.502 8.898 79.421 9.06Q79.34 9.222 79.142 9.258Q78.89 9.294 78.737 9.195Q78.584 9.096 78.566 8.934ZM46.157 8.484Q46.508 8.286 46.832 8.106Q47.066 7.944 47.111 7.746Q47.156 7.548 47.084 7.458Q47.012 7.368 46.832 7.332Q46.652 7.296 46.382 7.332Q45.752 7.44 45.149 7.764Q44.546 8.088 44.069 8.556Q43.592 9.024 43.268 9.6Q42.944 10.176 42.872 10.788Q42.764 10.266 42.656 9.537Q42.548 8.808 42.476 8.142Q42.44 7.944 42.242 7.854Q42.044 7.764 41.828 7.746Q41.63 7.728 41.477 7.8Q41.324 7.872 41.324 8.124Q41.468 9.366 41.666 10.617Q41.864 11.868 42.17 13.146Q42.242 13.47 42.449 13.821Q42.656 14.172 42.998 14.172Q43.268 14.172 43.421 13.839Q43.574 13.506 43.574 13.182Q43.61 12.498 43.736 11.787Q43.862 11.076 44.222 10.392Q44.474 9.906 44.789 9.555Q45.104 9.204 45.455 8.943Q45.806 8.682 46.157 8.484ZM54.149 12.336Q54.302 12.678 54.572 12.876Q54.932 13.146 55.4 13.191Q55.868 13.236 56.372 13.128Q56.876 13.02 57.38 12.813Q57.884 12.606 58.316 12.408Q58.46 13.398 58.568 14.388Q58.676 15.378 58.766 16.386Q58.856 16.782 58.982 17.034Q59.108 17.286 59.486 17.304Q59.72 17.34 59.837 17.151Q59.954 16.962 59.972 16.764Q59.918 15.918 59.801 14.721Q59.684 13.524 59.531 12.273Q59.378 11.022 59.225 9.861Q59.072 8.7 58.928 7.944Q58.784 7.692 58.586 7.521Q58.388 7.35 58.154 7.368Q57.776 7.386 57.722 7.674Q57.434 7.566 57.074 7.656Q56.282 7.908 55.616 8.538Q54.95 9.168 54.482 9.87Q54.194 10.302 54.077 10.743Q53.96 11.184 53.978 11.589Q53.996 11.994 54.149 12.336ZM17.402 8.376Q17.456 8.646 17.519 8.979Q17.582 9.312 17.654 9.663Q17.726 10.014 17.78 10.374Q17.834 10.734 17.87 11.058Q18.086 10.59 18.338 10.068Q18.59 9.546 18.887 9.105Q19.184 8.664 19.517 8.376Q19.85 8.088 20.246 8.088Q20.84 8.088 21.245 8.52Q21.65 8.952 21.929 9.591Q22.208 10.23 22.37 10.932Q22.532 11.634 22.64 12.174Q22.748 12.66 22.208 12.894Q21.956 13.02 21.83 12.93Q21.704 12.84 21.686 12.75Q21.596 12.534 21.461 11.994Q21.326 11.454 21.155 10.896Q20.984 10.338 20.768 9.924Q20.552 9.51 20.282 9.546Q19.958 9.564 19.706 10.032Q19.49 10.41 19.265 10.869Q19.04 11.328 18.824 11.805Q18.608 12.282 18.401 12.759Q18.194 13.236 18.014 13.632Q17.888 13.758 17.699 13.803Q17.51 13.848 17.312 13.776Q17.132 13.722 17.024 13.596Q16.916 13.47 16.916 13.344Q16.754 11.94 16.583 10.788Q16.412 9.636 16.142 8.43Q16.016 8.016 16.097 7.773Q16.178 7.53 16.628 7.584Q17.258 7.692 17.402 8.376ZM12.776 10.725Q13.586 10.5 14.288 10.086Q14.594 9.888 14.657 9.636Q14.72 9.384 14.576 9.042Q14.324 8.43 13.694 8.088Q13.064 7.746 12.29 7.8Q11.642 7.836 11.156 8.088Q10.67 8.34 10.346 8.727Q10.022 9.114 9.869 9.618Q9.716 10.122 9.77 10.68Q9.824 11.274 10.04 11.832Q10.256 12.39 10.67 12.804Q11.156 13.272 11.768 13.434Q12.38 13.596 12.956 13.488Q13.622 13.38 14.162 12.975Q14.702 12.57 14.99 11.994Q15.062 11.544 14.81 11.454Q14.72 11.418 14.54 11.463Q14.36 11.508 14.198 11.652Q14.036 11.796 13.82 11.94Q13.604 12.084 13.343 12.201Q13.082 12.318 12.785 12.372Q12.488 12.426 12.2 12.39Q11.714 12.318 11.39 11.949Q11.066 11.58 11.03 10.95Q11.966 10.95 12.776 10.725ZM52.268 10.086Q51.566 10.5 50.756 10.725Q49.946 10.95 49.01 10.95Q49.046 11.58 49.37 11.949Q49.694 12.318 50.18 12.39Q50.468 12.426 50.765 12.372Q51.062 12.318 51.323 12.201Q51.584 12.084 51.8 11.94Q52.016 11.796 52.178 11.652Q52.34 11.508 52.52 11.463Q52.7 11.418 52.79 11.454Q53.042 11.544 52.97 11.994Q52.682 12.57 52.142 12.975Q51.602 13.38 50.936 13.488Q50.36 13.596 49.748 13.434Q49.136 13.272 48.65 12.804Q48.236 12.39 48.02 11.832Q47.804 11.274 47.75 10.68Q47.696 10.122 47.849 9.618Q48.002 9.114 48.326 8.727Q48.65 8.34 49.136 8.088Q49.622 7.836 50.27 7.8Q51.044 7.746 51.674 8.088Q52.304 8.43 52.556 9.042Q52.7 9.384 52.637 9.636Q52.574 9.888 52.268 10.086ZM71.726 10.725Q72.536 10.5 73.238 10.086Q73.544 9.888 73.607 9.636Q73.67 9.384 73.526 9.042Q73.274 8.43 72.644 8.088Q72.014 7.746 71.24 7.8Q70.592 7.836 70.106 8.088Q69.62 8.34 69.296 8.727Q68.972 9.114 68.819 9.618Q68.666 10.122 68.72 10.68Q68.774 11.274 68.99 11.832Q69.206 12.39 69.62 12.804Q70.106 13.272 70.718 13.434Q71.33 13.596 71.906 13.488Q72.572 13.38 73.112 12.975Q73.652 12.57 73.94 11.994Q74.012 11.544 73.76 11.454Q73.67 11.418 73.49 11.463Q73.31 11.508 73.148 11.652Q72.986 11.796 72.77 11.94Q72.554 12.084 72.293 12.201Q72.032 12.318 71.735 12.372Q71.438 12.426 71.15 12.39Q70.664 12.318 70.34 11.949Q70.016 11.58 69.98 10.95Q70.916 10.95 71.726 10.725ZM63.05 8.988Q62.942 9.474 62.834 10.059Q62.726 10.644 62.681 11.184Q62.636 11.724 62.681 12.156Q62.726 12.588 62.906 12.768Q63.212 12.822 63.608 12.507Q64.004 12.192 64.382 11.706Q64.76 11.22 65.066 10.653Q65.372 10.086 65.498 9.654Q65.57 9.438 65.624 9.204Q65.678 8.97 65.678 8.718Q65.678 8.574 65.867 8.439Q66.056 8.304 66.182 8.286Q66.272 8.268 66.389 8.322Q66.506 8.376 66.605 8.475Q66.704 8.574 66.785 8.709Q66.866 8.844 66.866 8.988Q66.902 9.528 66.974 10.176Q67.046 10.824 67.145 11.472Q67.244 12.12 67.352 12.732Q67.46 13.344 67.568 13.83Q67.622 14.028 67.46 14.28Q67.298 14.532 67.1 14.586Q66.938 14.622 66.767 14.55Q66.596 14.478 66.506 14.262Q66.416 14.01 66.335 13.641Q66.254 13.272 66.191 12.867Q66.128 12.462 66.074 12.093Q66.02 11.724 66.002 11.472Q65.732 11.958 65.363 12.453Q64.994 12.948 64.571 13.353Q64.148 13.758 63.689 13.983Q63.23 14.208 62.744 14.154Q62.024 14.064 61.646 12.804Q61.502 12.3 61.511 11.688Q61.52 11.076 61.601 10.473Q61.682 9.87 61.799 9.33Q61.916 8.79 62.006 8.448Q62.042 8.304 62.15 8.187Q62.258 8.07 62.402 8.106Q62.672 8.16 62.897 8.43Q63.122 8.7 63.05 8.988ZM55.112 11.913Q55.022 11.76 55.058 11.562Q55.13 11.166 55.382 10.698Q55.634 10.23 56.012 9.825Q56.39 9.42 56.858 9.114Q57.326 8.808 57.812 8.718Q57.902 9.294 57.974 9.87Q58.046 10.446 58.136 11.022Q57.488 11.436 56.831 11.679Q56.174 11.922 55.49 12.012Q55.202 12.066 55.112 11.913ZM11.831 8.988Q12.038 8.898 12.218 8.862Q12.614 8.79 13.001 8.871Q13.388 8.952 13.532 9.294Q13.334 9.42 13.037 9.528Q12.74 9.636 12.389 9.717Q12.038 9.798 11.669 9.852Q11.3 9.906 10.994 9.906Q11.012 9.69 11.147 9.519Q11.282 9.348 11.453 9.213Q11.624 9.078 11.831 8.988ZM50.198 8.862Q50.018 8.898 49.811 8.988Q49.604 9.078 49.433 9.213Q49.262 9.348 49.127 9.519Q48.992 9.69 48.974 9.906Q49.28 9.906 49.649 9.852Q50.018 9.798 50.369 9.717Q50.72 9.636 51.017 9.528Q51.314 9.42 51.512 9.294Q51.368 8.952 50.981 8.871Q50.594 8.79 50.198 8.862ZM70.781 8.988Q70.988 8.898 71.168 8.862Q71.564 8.79 71.951 8.871Q72.338 8.952 72.482 9.294Q72.284 9.42 71.987 9.528Q71.69 9.636 71.339 9.717Q70.988 9.798 70.619 9.852Q70.25 9.906 69.944 9.906Q69.962 9.69 70.097 9.519Q70.232 9.348 70.403 9.213Q70.574 9.078 70.781 8.988ZM25.502 12.282Q25.214 12.048 25.106 11.616Q24.998 11.22 25.169 10.842Q25.34 10.464 25.664 10.158Q25.988 9.852 26.411 9.627Q26.834 9.402 27.212 9.294L27.572 9.204L28.076 12.372L27.914 12.426Q27.482 12.57 27.032 12.624Q26.582 12.678 26.186 12.597Q25.79 12.516 25.502 12.282Z" />
  </g>
</svg>