<?xml version="1.0" encoding="utf-8"?>
<svg width="573px" height="509px" viewbox="0 0 573 509" version="1.1" xmlns:xlink="http://www.w3.org/1999/xlink" xmlns="http://www.w3.org/2000/svg">
  <path d="M0 137.5C0 61.5608 61.5608 0 137.5 0C213.439 0 275 61.5608 275 137.5C275 213.439 213.439 275 137.5 275C61.5608 275 0 213.439 0 137.5Z" transform="translate(2 2)" id="Ellipse" fill="#D3D3D3" fill-opacity="0" fill-rule="evenodd" stroke="#646464" stroke-width="4" stroke-dasharray="6 8" />
  <path d="M0 133.5C0 59.77 59.77 0 133.5 0C207.23 0 267 59.77 267 133.5C267 207.23 207.23 267 133.5 267C59.77 267 0 207.23 0 133.5Z" transform="translate(303.5 240)" id="Ellipse-3" fill="#D3D3D3" fill-opacity="0" fill-rule="evenodd" stroke="#646464" stroke-width="4" stroke-dasharray="6 8" />
  <g id="Jakob-Greenfeld" fill="#3E3E3E" transform="translate(341 348)">
    <path d="M187.686 0.691999Q187.488 1.232 187.596 1.88L188.496 7.568L187.848 7.712Q186.12 8.144 184.896 8.9Q183.672 9.656 182.844 10.592Q180.9 12.86 181.764 15.632Q182.16 16.892 183.078 17.702Q183.996 18.512 185.184 18.872Q186.372 19.232 187.668 19.178Q188.964 19.124 190.152 18.692L190.296 18.656L190.332 18.872Q190.44 19.34 190.818 19.52Q191.196 19.7 191.628 19.52Q192.024 19.34 192.312 18.962Q192.6 18.584 192.456 17.54Q191.952 13.616 191.322 9.53Q190.692 5.444 189.972 1.304Q189.864 0.727999 189.45 0.368Q189.036 0.00799942 188.496 0.079998Q187.884 0.152 187.686 0.691999ZM149.256 13.58Q148.752 13.652 148.086 13.472Q147.42 13.292 147.168 12.572Q147.06 12.212 147.132 11.87Q147.204 11.528 147.888 11.384Q148.536 11.24 149.274 11.114Q150.012 10.988 150.768 10.88L149.436 6.848Q148.824 4.544 149.292 2.888Q149.76 1.232 151.956 0.511999Q152.856 0.224001 153.738 0.295998Q154.62 0.368004 155.412 0.763998Q156.204 1.16 156.852 1.808Q157.5 2.456 157.896 3.32Q158.04 3.716 158.058 4.022Q158.076 4.328 157.824 4.58Q157.464 4.94 157.032 4.886Q156.6 4.832 156.456 4.652Q156.132 4.256 155.754 3.842Q155.376 3.428 154.962 3.122Q154.548 2.816 154.08 2.654Q153.612 2.492 153.072 2.564Q152.82 2.6 152.478 2.816Q152.136 3.032 151.884 3.482Q151.632 3.932 151.578 4.652Q151.524 5.372 151.812 6.452Q152.064 7.352 152.388 8.396Q152.712 9.44 153.108 10.592Q154.836 10.412 156.276 10.484Q157.068 10.556 157.752 10.772Q158.436 10.988 158.868 11.42Q158.976 11.78 158.832 12.014Q158.688 12.248 158.418 12.41Q158.148 12.572 157.806 12.644Q157.464 12.716 157.14 12.752Q156.42 12.824 155.628 12.914Q154.836 13.004 153.972 13.076Q154.548 14.696 155.034 16.154Q155.52 17.612 155.808 18.584Q155.952 19.124 155.844 19.736Q155.736 20.348 155.556 20.924Q155.268 21.752 154.836 22.256Q154.404 22.76 153.9 22.58Q153.504 22.4 153.396 22.112Q153.288 21.824 153.36 21.32Q153.432 20.744 153.432 20.168Q153.432 19.592 153.378 19.106Q153.324 18.62 153.234 18.242Q153.144 17.864 153.108 17.72L151.596 13.328Q151.02 13.4 150.444 13.454Q149.868 13.508 149.256 13.58ZM56.52 1.844Q56.556 2.42 56.574 3.248Q56.592 4.076 56.628 5.048Q56.664 6.02 56.736 7.01Q56.808 8 56.952 8.9Q57.492 8 58.194 7.532Q58.896 7.064 59.616 6.956Q60.732 6.812 61.56 7.208Q62.388 7.604 62.928 8.306Q63.468 9.008 63.72 9.854Q63.972 10.7 63.972 11.492Q63.972 13.184 63.09 14.624Q62.208 16.064 61.038 17.18Q59.868 18.296 58.734 19.052Q57.6 19.808 57.096 20.132Q56.376 20.42 55.692 20.276Q55.008 20.132 54.792 19.844Q54.612 19.412 54.684 19.106Q54.756 18.8 54.972 18.548Q55.188 18.296 55.494 18.098Q55.8 17.9 56.016 17.72Q55.152 13.76 54.684 9.71Q54.216 5.66 54.288 1.484Q54.288 0.764 54.594 0.656Q54.9 0.548 55.116 0.547998Q55.62 0.620001 56.016 0.943998Q56.412 1.268 56.52 1.844ZM177.012 3.284Q177.192 7.208 177.624 11.402Q178.056 15.596 178.56 19.412Q178.638 20.554 178.154 20.8914Q177.967 21.022 177.696 21.032Q177.48 21.032 177.264 20.87Q177.048 20.708 176.868 20.456Q176.688 20.204 176.526 19.916Q176.364 19.628 176.328 19.412Q176.04 17.576 175.788 15.524Q175.536 13.472 175.338 11.402Q175.14 9.332 174.996 7.352Q174.852 5.372 174.816 3.716Q174.888 2.852 175.068 2.258Q175.248 1.664 175.824 1.7Q176.436 1.736 176.706 2.186Q176.976 2.636 177.012 3.284ZM82.242 10.574Q82.512 10.628 82.692 10.628Q83.52 10.52 84.312 10.466Q85.104 10.412 85.896 10.34Q85.896 10.952 85.932 11.582Q85.968 12.212 86.004 12.824Q85.32 13.544 84.078 13.976Q82.836 14.408 81.594 14.444Q80.352 14.48 79.38 14.066Q78.408 13.652 78.3 12.68Q78.156 11.564 78.588 10.25Q79.02 8.936 79.758 7.694Q80.496 6.452 81.36 5.426Q82.224 4.4 82.944 3.896Q83.664 3.428 84.078 3.59Q84.492 3.752 85.104 4.508Q85.5 4.976 86.04 4.58Q86.292 4.328 86.256 4.04Q86.22 3.752 86.04 3.5Q85.788 3.14 85.446 2.762Q85.104 2.384 84.69 2.114Q84.276 1.844 83.79 1.754Q83.304 1.664 82.764 1.808Q81.18 2.456 79.902 3.698Q78.624 4.94 77.688 6.452Q76.752 7.964 76.248 9.584Q75.744 11.204 75.744 12.608Q75.744 14.084 76.662 15.11Q77.58 16.136 79.074 16.55Q80.568 16.964 82.44 16.676Q84.312 16.388 86.256 15.2Q86.544 17.468 87.228 19.232Q87.588 20.168 88.344 20.168Q88.74 20.168 88.938 19.934Q89.136 19.7 89.064 19.412Q88.956 18.62 88.83 17.468Q88.704 16.316 88.596 15.056Q88.488 13.796 88.398 12.554Q88.308 11.312 88.308 10.304L89.694 10.304Q90.36 10.304 90.972 10.34Q91.548 10.376 92.124 10.016Q92.7 9.656 92.7 9.008Q92.7 8.72 92.52 8.504Q92.34 8.288 91.764 8.288Q90.756 8.252 89.604 8.162Q88.452 8.072 87.264 8.018Q86.076 7.964 84.888 8.018Q83.7 8.072 82.62 8.324Q81.828 8.54 81.486 8.954Q81.144 9.368 81.144 9.656Q81.144 9.872 81.324 10.07Q81.504 10.268 81.738 10.394Q81.972 10.52 82.242 10.574ZM35.1 8.36Q35.244 8.324 35.532 8.306Q35.82 8.288 36.09 8.342Q36.36 8.396 36.558 8.522Q36.756 8.648 36.792 8.828Q36.864 9.26 36.666 9.602Q36.468 9.944 35.964 10.196Q34.596 10.844 33.12 11.654Q31.644 12.464 30.6 13.112Q31.248 13.544 32.094 14.084Q32.94 14.624 33.84 15.218Q34.74 15.812 35.64 16.478Q36.54 17.144 37.332 17.792Q37.7982 18.1883 37.7663 18.5393Q37.749 18.7304 37.584 18.908Q37.368 19.16 36.882 19.268Q36.396 19.376 35.964 19.16Q35.172 18.764 34.236 18.206Q33.3 17.648 32.328 17.054Q31.356 16.46 30.438 15.866Q29.52 15.272 28.764 14.768Q28.908 16.028 29.034 17.288Q29.16 18.548 29.268 19.808Q29.484 20.492 29.232 20.924Q28.98 21.356 28.404 21.32Q27.792 21.212 27.504 20.834Q27.216 20.456 27.072 19.844Q26.856 18.368 26.586 16.352Q26.316 14.336 26.028 12.176Q25.74 10.016 25.47 7.964Q25.2 5.912 24.984 4.328Q24.912 3.824 24.894 3.23Q24.876 2.636 25.272 2.456Q25.812 2.24 26.388 2.69Q26.964 3.14 27.252 4.04Q27.54 5.696 27.828 7.64Q28.116 9.584 28.404 11.744Q29.124 11.312 30.078 10.79Q31.032 10.268 31.986 9.782Q32.94 9.296 33.768 8.9Q34.596 8.504 35.1 8.36ZM8.766 18.062Q9.324 17.216 9.432 16.028Q9.684 11.96 8.568 8.918Q7.452 5.876 5.364 3.896Q4.932 3.536 4.536 3.428Q4.14 3.32 3.564 3.716Q3.168 4.112 3.258 4.526Q3.348 4.94 3.708 5.336Q4.86 6.596 5.742 8.216Q6.624 9.836 7.02 11.672Q7.2 12.68 7.308 13.742Q7.416 14.804 7.254 15.704Q7.092 16.604 6.552 17.198Q6.012 17.792 4.932 17.864Q4.248 17.936 3.744 17.792Q3.44133 17.7055 3.37236 17.5282Q3.32648 17.4102 3.384 17.252Q3.492 16.928 3.654 16.496Q3.816 16.064 3.564 15.596Q3.168 15.2 2.736 15.38Q2.304 15.56 1.944 15.776Q1.62 16.064 1.242 16.442Q0.864 16.82 0.864 17.216Q0.828 17.72 1.08 18.134Q1.332 18.548 1.746 18.872Q2.16 19.196 2.646 19.448Q3.132 19.7 3.564 19.808Q4.536 20.096 5.544 19.988Q6.552 19.88 7.38 19.394Q8.208 18.908 8.766 18.062ZM21.51 8.954Q21.42 7.82 21.276 6.812Q21.132 5.876 20.448 5.282Q19.764 4.688 18.504 4.724Q17.64 4.76 16.776 5.12Q15.912 5.48 15.084 6.038Q14.256 6.596 13.5 7.28Q12.744 7.964 12.132 8.612Q11.808 9.044 11.844 9.422Q11.88 9.8 12.168 10.088Q12.456 10.376 12.87 10.412Q13.284 10.448 13.608 10.124Q14.652 9.188 15.804 8.36Q16.956 7.532 17.82 7.244Q18.324 7.064 18.666 7.19Q19.008 7.316 19.08 7.856Q19.152 8.324 19.206 8.99Q19.26 9.656 19.296 10.412Q19.332 11.168 19.35 11.906Q19.368 12.644 19.368 13.256Q18.936 12.824 18.432 12.644Q17.928 12.464 17.442 12.446Q16.956 12.428 16.506 12.5Q16.056 12.572 15.804 12.68Q14.796 13.04 14.058 13.688Q13.32 14.336 12.888 15.146Q12.456 15.956 12.348 16.838Q12.24 17.72 12.456 18.548Q12.78 19.772 13.698 20.384Q14.616 20.996 15.768 20.816Q16.38 20.708 17.1 20.42Q17.82 20.132 18.54 19.754Q19.26 19.376 19.908 18.962Q20.556 18.548 21.06 18.188Q21.78 18.584 22.338 18.566Q22.896 18.548 23.112 17.9Q23.292 17.432 23.058 16.82Q22.824 16.208 21.672 15.416Q21.708 14.552 21.708 13.472Q21.708 12.392 21.654 11.24Q21.6 10.088 21.51 8.954ZM105.3 7.712Q104.652 8.072 103.95 8.468Q103.248 8.864 102.546 9.386Q101.844 9.908 101.214 10.61Q100.584 11.312 100.08 12.284Q99.36 13.652 99.108 15.074Q98.856 16.496 98.784 17.864Q98.784 18.512 98.478 19.178Q98.172 19.844 97.632 19.844Q96.948 19.844 96.534 19.142Q96.12 18.44 95.976 17.792Q95.364 15.236 94.968 12.734Q94.572 10.232 94.284 7.748Q94.284 7.244 94.59 7.1Q94.896 6.956 95.292 6.992Q95.724 7.028 96.12 7.208Q96.516 7.388 96.588 7.784Q96.732 9.116 96.948 10.574Q97.164 12.032 97.38 13.076Q97.524 11.852 98.172 10.7Q98.82 9.548 99.774 8.612Q100.728 7.676 101.934 7.028Q103.14 6.38 104.4 6.164Q104.94 6.092 105.3 6.164Q105.66 6.236 105.804 6.416Q105.948 6.596 105.858 6.992Q105.768 7.388 105.3 7.712ZM135.27 9.458Q135.144 8.792 135.036 8.252Q134.748 6.884 133.488 6.668Q132.588 6.56 132.426 7.046Q132.264 7.532 132.516 8.36Q133.056 10.772 133.398 13.076Q133.74 15.38 134.064 18.188Q134.064 18.44 134.28 18.692Q134.496 18.944 134.856 19.052Q135.252 19.196 135.63 19.106Q136.008 19.016 136.26 18.764Q136.62 17.972 137.034 17.018Q137.448 16.064 137.88 15.11Q138.312 14.156 138.762 13.238Q139.212 12.32 139.644 11.564Q140.148 10.628 140.796 10.592Q141.336 10.52 141.768 11.348Q142.2 12.176 142.542 13.292Q142.884 14.408 143.154 15.488Q143.424 16.568 143.604 17Q143.64 17.18 143.892 17.36Q144.144 17.54 144.648 17.288Q145.728 16.82 145.512 15.848Q145.296 14.768 144.972 13.364Q144.648 11.96 144.09 10.682Q143.532 9.404 142.722 8.54Q141.912 7.676 140.724 7.676Q139.932 7.676 139.266 8.252Q138.6 8.828 138.006 9.71Q137.412 10.592 136.908 11.636Q136.404 12.68 135.972 13.616Q135.9 12.968 135.792 12.248Q135.684 11.528 135.54 10.826Q135.396 10.124 135.27 9.458ZM49.914 8.756Q49.176 7.964 48.096 7.568Q47.412 7.28 46.944 7.712Q46.296 7.352 45.54 7.154Q44.784 6.956 44.28 6.956Q43.38 6.956 42.678 7.424Q41.976 7.892 41.436 8.63Q40.896 9.368 40.554 10.322Q40.212 11.276 40.068 12.284Q39.852 13.652 40.014 15.02Q40.176 16.388 40.752 17.468Q41.328 18.548 42.336 19.232Q43.344 19.916 44.82 19.916Q46.044 19.916 47.052 19.448Q48.06 18.98 48.852 18.224Q49.644 17.468 50.256 16.496Q50.868 15.524 51.264 14.516Q51.552 13.616 51.498 12.572Q51.444 11.528 51.048 10.538Q50.652 9.548 49.914 8.756ZM113.148 12.95Q114.768 12.5 116.172 11.672Q116.784 11.276 116.91 10.772Q117.036 10.268 116.748 9.584Q116.244 8.36 114.984 7.676Q113.724 6.992 112.176 7.1Q110.88 7.172 109.908 7.676Q108.936 8.18 108.288 8.954Q107.64 9.728 107.334 10.736Q107.028 11.744 107.136 12.86Q107.244 14.048 107.676 15.164Q108.108 16.28 108.936 17.108Q109.908 18.044 111.132 18.368Q112.356 18.692 113.508 18.476Q114.84 18.26 115.92 17.45Q117 16.64 117.576 15.488Q117.72 14.588 117.216 14.408Q117.036 14.336 116.676 14.426Q116.316 14.516 115.992 14.804Q115.668 15.092 115.236 15.38Q114.804 15.668 114.282 15.902Q113.76 16.136 113.166 16.244Q112.572 16.352 111.996 16.28Q111.024 16.136 110.376 15.398Q109.728 14.66 109.656 13.4Q111.528 13.4 113.148 12.95ZM128.808 11.672Q127.404 12.5 125.784 12.95Q124.164 13.4 122.292 13.4Q122.364 14.66 123.012 15.398Q123.66 16.136 124.632 16.28Q125.208 16.352 125.802 16.244Q126.396 16.136 126.918 15.902Q127.44 15.668 127.872 15.38Q128.304 15.092 128.628 14.804Q128.952 14.516 129.312 14.426Q129.672 14.336 129.852 14.408Q130.356 14.588 130.212 15.488Q129.636 16.64 128.556 17.45Q127.476 18.26 126.144 18.476Q124.992 18.692 123.768 18.368Q122.544 18.044 121.572 17.108Q120.744 16.28 120.312 15.164Q119.88 14.048 119.772 12.86Q119.664 11.744 119.97 10.736Q120.276 9.728 120.924 8.954Q121.572 8.18 122.544 7.676Q123.516 7.172 124.812 7.1Q126.36 6.992 127.62 7.676Q128.88 8.36 129.384 9.584Q129.672 10.268 129.546 10.772Q129.42 11.276 128.808 11.672ZM167.04 12.95Q168.66 12.5 170.064 11.672Q170.676 11.276 170.802 10.772Q170.928 10.268 170.64 9.584Q170.136 8.36 168.876 7.676Q167.616 6.992 166.068 7.1Q164.772 7.172 163.8 7.676Q162.828 8.18 162.18 8.954Q161.532 9.728 161.226 10.736Q160.92 11.744 161.028 12.86Q161.136 14.048 161.568 15.164Q162 16.28 162.828 17.108Q163.8 18.044 165.024 18.368Q166.248 18.692 167.4 18.476Q168.732 18.26 169.812 17.45Q170.892 16.64 171.468 15.488Q171.612 14.588 171.108 14.408Q170.928 14.336 170.568 14.426Q170.208 14.516 169.884 14.804Q169.56 15.092 169.128 15.38Q168.696 15.668 168.174 15.902Q167.652 16.136 167.058 16.244Q166.464 16.352 165.888 16.28Q164.916 16.136 164.268 15.398Q163.62 14.66 163.548 13.4Q165.42 13.4 167.04 12.95ZM45.81 9.53Q46.332 9.944 46.728 10.196Q46.872 10.268 47.124 10.268Q47.376 10.268 47.628 10.088Q48.672 10.592 49.014 11.726Q49.356 12.86 48.996 13.904Q48.672 14.84 48.078 15.56Q47.484 16.28 46.818 16.712Q46.152 17.144 45.468 17.306Q44.784 17.468 44.28 17.324Q43.452 17.072 43.038 16.478Q42.624 15.884 42.48 15.146Q42.336 14.408 42.372 13.652Q42.408 12.896 42.516 12.356Q42.588 12.032 42.804 11.492Q43.02 10.952 43.326 10.43Q43.632 9.908 44.046 9.512Q44.46 9.116 44.892 9.116Q45.288 9.116 45.81 9.53ZM111.258 9.476Q111.672 9.296 112.032 9.224Q112.824 9.08 113.598 9.242Q114.372 9.404 114.66 10.088Q114.264 10.34 113.67 10.556Q113.076 10.772 112.374 10.934Q111.672 11.096 110.934 11.204Q110.196 11.312 109.584 11.312Q109.62 10.88 109.89 10.538Q110.16 10.196 110.502 9.926Q110.844 9.656 111.258 9.476ZM124.668 9.224Q124.308 9.296 123.894 9.476Q123.48 9.656 123.138 9.926Q122.796 10.196 122.526 10.538Q122.256 10.88 122.22 11.312Q122.832 11.312 123.57 11.204Q124.308 11.096 125.01 10.934Q125.712 10.772 126.306 10.556Q126.9 10.34 127.296 10.088Q127.008 9.404 126.234 9.242Q125.46 9.08 124.668 9.224ZM165.15 9.476Q165.564 9.296 165.924 9.224Q166.716 9.08 167.49 9.242Q168.264 9.404 168.552 10.088Q168.156 10.34 167.562 10.556Q166.968 10.772 166.266 10.934Q165.564 11.096 164.826 11.204Q164.088 11.312 163.476 11.312Q163.512 10.88 163.782 10.538Q164.052 10.196 164.394 9.926Q164.736 9.656 165.15 9.476ZM61.776 11.384Q61.776 10.16 61.164 9.674Q60.552 9.188 59.904 9.26Q59.364 9.332 58.932 9.656Q58.5 9.98 58.176 10.448Q57.852 10.916 57.69 11.492Q57.528 12.068 57.564 12.608Q57.636 13.508 57.762 14.552Q57.888 15.596 58.068 16.424Q58.644 16.028 59.292 15.506Q59.94 14.984 60.498 14.336Q61.056 13.688 61.416 12.95Q61.776 12.212 61.776 11.384ZM184.752 16.064Q184.176 15.596 183.96 14.732Q183.744 13.94 184.086 13.184Q184.428 12.428 185.076 11.816Q185.724 11.204 186.57 10.754Q187.416 10.304 188.172 10.088L188.892 9.908L189.9 16.244L189.576 16.352Q188.712 16.64 187.812 16.748Q186.912 16.856 186.12 16.694Q185.328 16.532 184.752 16.064ZM16.11 15.002Q16.632 14.66 17.1 14.552Q17.388 14.516 17.73 14.768Q18.072 15.02 18.36 15.362Q18.648 15.704 18.864 16.046Q19.08 16.388 19.08 16.604Q18.432 17.216 17.334 17.738Q16.236 18.26 15.372 18.44Q15.084 18.512 14.85 18.404Q14.616 18.296 14.544 18.08Q14.364 17.504 14.562 16.91Q14.76 16.316 15.174 15.83Q15.588 15.344 16.11 15.002Z" />
  </g>
  <g id="teaches-cold-outrech" transform="translate(357 139)">
    <g id="teaches-cold">
      <path d="M145.818 0.691999Q145.62 1.232 145.728 1.88L146.628 7.568L145.98 7.712Q144.252 8.144 143.028 8.9Q141.804 9.656 140.976 10.592Q139.032 12.86 139.896 15.632Q140.292 16.892 141.21 17.702Q142.128 18.512 143.316 18.872Q144.504 19.232 145.8 19.178Q147.096 19.124 148.284 18.692L148.428 18.656L148.464 18.872Q148.572 19.34 148.95 19.52Q149.328 19.7 149.76 19.52Q150.156 19.34 150.444 18.962Q150.732 18.584 150.588 17.54Q150.084 13.616 149.454 9.53Q148.824 5.444 148.104 1.304Q147.996 0.727999 147.582 0.368Q147.168 0.00799942 146.628 0.079998Q146.016 0.152 145.818 0.691999ZM135.144 3.284Q135.324 7.208 135.756 11.402Q136.188 15.596 136.692 19.412Q136.77 20.554 136.286 20.8914Q136.099 21.022 135.828 21.032Q135.612 21.032 135.396 20.87Q135.18 20.708 135 20.456Q134.82 20.204 134.658 19.916Q134.496 19.628 134.46 19.412Q134.172 17.576 133.92 15.524Q133.668 13.472 133.47 11.402Q133.272 9.332 133.128 7.352Q132.984 5.372 132.948 3.716Q133.02 2.852 133.2 2.258Q133.38 1.664 133.956 1.7Q134.568 1.736 134.838 2.186Q135.108 2.636 135.144 3.284ZM57.258 6.128Q57.276 5.048 57.276 4.184Q57.276 3.536 56.952 2.978Q56.628 2.42 56.196 2.348Q55.7248 2.28256 55.4249 2.47884Q54.9 2.82243 54.9 3.968Q54.828 6.128 54.828 8.018Q54.828 9.908 54.882 11.708Q54.936 13.508 55.044 15.29Q55.152 17.072 55.332 19.016Q55.368 19.34 55.512 19.79Q55.656 20.24 55.854 20.654Q56.052 21.068 56.286 21.356Q56.52 21.644 56.808 21.644Q57.096 21.644 57.33 21.41Q57.564 21.176 57.708 20.528Q57.852 19.664 58.158 18.26Q58.464 16.856 58.95 15.488Q59.436 14.12 60.102 13.04Q60.768 11.96 61.668 11.78Q62.244 11.672 62.676 12.104Q63.108 12.536 63.414 13.31Q63.72 14.084 63.936 15.056Q64.152 16.028 64.296 16.982Q64.44 17.936 64.548 18.764Q64.656 19.592 64.764 20.024Q64.944 20.564 65.358 20.942Q65.772 21.32 66.06 21.32Q66.456 21.32 66.744 20.96Q67.032 20.6 67.032 20.024Q66.96 19.232 66.852 18.134Q66.744 17.036 66.51 15.83Q66.276 14.624 65.916 13.454Q65.556 12.284 65.034 11.33Q64.512 10.376 63.81 9.8Q63.108 9.224 62.208 9.224Q61.38 9.224 60.678 9.548Q59.976 9.872 59.346 10.412Q58.716 10.952 58.212 11.654Q57.708 12.356 57.348 13.076Q57.312 11.96 57.294 10.736Q57.276 9.512 57.258 8.36Q57.24 7.208 57.258 6.128ZM9.648 10.484Q10.332 10.448 11.016 10.808Q11.7 11.168 11.7 11.924Q11.628 12.536 11.034 12.698Q10.44 12.86 10.08 12.86Q9.36 12.86 8.532 12.896Q7.704 12.932 6.84 13.004Q6.768 14.192 6.714 15.236Q6.66 16.28 6.624 17.09Q6.588 17.9 6.588 18.404Q6.588 18.908 6.624 18.944Q7.416 18.8 8.334 18.458Q9.252 18.116 10.17 17.702Q11.088 17.288 11.97 16.838Q12.852 16.388 13.644 15.992Q14.004 15.812 14.31 15.884Q14.616 15.956 14.688 16.208Q14.76 16.604 14.58 17.18Q14.4 17.756 13.932 18.224Q13.392 18.656 12.51 19.214Q11.628 19.772 10.62 20.276Q9.612 20.78 8.586 21.158Q7.56 21.536 6.768 21.608Q5.58 21.716 4.968 20.96Q4.356 20.204 4.284 19.052Q4.212 17.9 4.266 16.388Q4.32 14.876 4.392 13.184Q3.708 13.256 3.078 13.31Q2.448 13.364 1.872 13.436Q1.404 13.436 0.846 13.22Q0.288 13.004 0.288 12.392Q0.288 12.176 0.468 11.816Q0.648 11.456 1.26 11.276Q2.736 11.024 4.536 10.844Q4.644 9.152 4.788 7.568Q4.932 5.984 5.04 4.688Q5.076 4.256 5.292 3.932Q5.508 3.608 5.76 3.608Q6.372 3.572 6.93 3.914Q7.488 4.256 7.488 4.688Q7.344 5.912 7.218 7.46Q7.092 9.008 6.984 10.628Q7.704 10.556 8.37 10.538Q9.036 10.52 9.648 10.484ZM38.034 8.954Q37.944 7.82 37.8 6.812Q37.656 5.876 36.972 5.282Q36.288 4.688 35.028 4.724Q34.164 4.76 33.3 5.12Q32.436 5.48 31.608 6.038Q30.78 6.596 30.024 7.28Q29.268 7.964 28.656 8.612Q28.332 9.044 28.368 9.422Q28.404 9.8 28.692 10.088Q28.98 10.376 29.394 10.412Q29.808 10.448 30.132 10.124Q31.176 9.188 32.328 8.36Q33.48 7.532 34.344 7.244Q34.848 7.064 35.19 7.19Q35.532 7.316 35.604 7.856Q35.676 8.324 35.73 8.99Q35.784 9.656 35.82 10.412Q35.856 11.168 35.874 11.906Q35.892 12.644 35.892 13.256Q35.46 12.824 34.956 12.644Q34.452 12.464 33.966 12.446Q33.48 12.428 33.03 12.5Q32.58 12.572 32.328 12.68Q31.32 13.04 30.582 13.688Q29.844 14.336 29.412 15.146Q28.98 15.956 28.872 16.838Q28.764 17.72 28.98 18.548Q29.304 19.772 30.222 20.384Q31.14 20.996 32.292 20.816Q32.904 20.708 33.624 20.42Q34.344 20.132 35.064 19.754Q35.784 19.376 36.432 18.962Q37.08 18.548 37.584 18.188Q38.304 18.584 38.862 18.566Q39.42 18.548 39.636 17.9Q39.816 17.432 39.582 16.82Q39.348 16.208 38.196 15.416Q38.232 14.552 38.232 13.472Q38.232 12.392 38.178 11.24Q38.124 10.088 38.034 8.954ZM88.848 8.612Q88.92 8.972 88.992 9.368Q89.028 9.692 89.334 9.89Q89.64 10.088 90.144 10.016Q90.54 9.944 90.702 9.62Q90.864 9.296 90.864 8.792Q90.684 7.28 89.676 6.506Q88.668 5.732 87.12 5.66Q86.22 5.66 85.32 6.056Q84.42 6.452 83.718 7.118Q83.016 7.784 82.584 8.648Q82.152 9.512 82.188 10.448Q82.332 11.492 82.872 12.194Q83.412 12.896 84.168 13.4Q84.924 13.904 85.986 14.516Q87.048 15.128 87.966 15.776Q88.884 16.424 89.442 17.018Q90 17.612 89.748 18.044Q89.46 18.548 88.74 18.872Q88.02 19.196 87.12 19.394Q86.22 19.592 85.23 19.682Q84.24 19.772 83.376 19.772Q82.764 19.772 82.188 20.024Q81.612 20.276 81.612 20.924Q81.612 21.104 81.81 21.338Q82.008 21.572 82.278 21.788Q82.548 22.004 82.854 22.166Q83.16 22.328 83.376 22.328Q84.276 22.328 85.572 22.202Q86.868 22.076 88.164 21.734Q89.46 21.392 90.54 20.78Q91.62 20.168 92.016 19.196Q92.52 17.936 92.178 16.946Q91.836 15.956 90.9 15.128Q89.964 14.3 88.596 13.508Q87.228 12.716 85.968 11.96Q85.212 11.456 84.816 10.952Q84.42 10.448 84.528 9.908Q84.564 9.62 84.96 9.242Q85.356 8.864 85.932 8.558Q86.508 8.252 87.192 8.108Q87.876 7.964 88.488 8.144Q88.776 8.252 88.848 8.612ZM127.674 8.756Q126.936 7.964 125.856 7.568Q125.172 7.28 124.704 7.712Q124.056 7.352 123.3 7.154Q122.544 6.956 122.04 6.956Q121.14 6.956 120.438 7.424Q119.736 7.892 119.196 8.63Q118.656 9.368 118.314 10.322Q117.972 11.276 117.828 12.284Q117.612 13.652 117.774 15.02Q117.936 16.388 118.512 17.468Q119.088 18.548 120.096 19.232Q121.104 19.916 122.58 19.916Q123.804 19.916 124.812 19.448Q125.82 18.98 126.612 18.224Q127.404 17.468 128.016 16.496Q128.628 15.524 129.024 14.516Q129.312 13.616 129.258 12.572Q129.204 11.528 128.808 10.538Q128.412 9.548 127.674 8.756ZM24.876 11.672Q23.472 12.5 21.852 12.95Q20.232 13.4 18.36 13.4Q18.432 14.66 19.08 15.398Q19.728 16.136 20.7 16.28Q21.276 16.352 21.87 16.244Q22.464 16.136 22.986 15.902Q23.508 15.668 23.94 15.38Q24.372 15.092 24.696 14.804Q25.02 14.516 25.38 14.426Q25.74 14.336 25.92 14.408Q26.424 14.588 26.28 15.488Q25.704 16.64 24.624 17.45Q23.544 18.26 22.212 18.476Q21.06 18.692 19.836 18.368Q18.612 18.044 17.64 17.108Q16.812 16.28 16.38 15.164Q15.948 14.048 15.84 12.86Q15.732 11.744 16.038 10.736Q16.344 9.728 16.992 8.954Q17.64 8.18 18.612 7.676Q19.584 7.172 20.88 7.1Q22.428 6.992 23.688 7.676Q24.948 8.36 25.452 9.584Q25.74 10.268 25.614 10.772Q25.488 11.276 24.876 11.672ZM78.336 11.672Q76.932 12.5 75.312 12.95Q73.692 13.4 71.82 13.4Q71.892 14.66 72.54 15.398Q73.188 16.136 74.16 16.28Q74.736 16.352 75.33 16.244Q75.924 16.136 76.446 15.902Q76.968 15.668 77.4 15.38Q77.832 15.092 78.156 14.804Q78.48 14.516 78.84 14.426Q79.2 14.336 79.38 14.408Q79.884 14.588 79.74 15.488Q79.164 16.64 78.084 17.45Q77.004 18.26 75.672 18.476Q74.52 18.692 73.296 18.368Q72.072 18.044 71.1 17.108Q70.272 16.28 69.84 15.164Q69.408 14.048 69.3 12.86Q69.192 11.744 69.498 10.736Q69.804 9.728 70.452 8.954Q71.1 8.18 72.072 7.676Q73.044 7.172 74.34 7.1Q75.888 6.992 77.148 7.676Q78.408 8.36 78.912 9.584Q79.2 10.268 79.074 10.772Q78.948 11.276 78.336 11.672ZM50.004 10.88Q49.752 11.024 49.392 10.97Q49.032 10.916 48.78 10.52Q48.204 9.764 47.376 9.764Q46.62 9.764 46.026 10.106Q45.432 10.448 44.982 11.006Q44.532 11.564 44.244 12.248Q43.956 12.932 43.848 13.616Q43.668 14.876 44.28 15.74Q44.892 16.604 46.188 16.604Q47.232 16.64 48.546 16.19Q49.86 15.74 51.012 15.02Q51.516 14.804 51.948 14.768Q52.38 14.732 52.668 15.2Q53.028 15.776 52.488 16.37Q51.948 16.964 51.048 17.432Q50.148 17.936 49.158 18.314Q48.168 18.692 47.16 18.854Q46.152 19.016 45.162 18.872Q44.172 18.728 43.308 18.188Q41.94 17.252 41.652 15.524Q41.364 13.796 41.904 11.96Q42.12 11.276 42.516 10.574Q42.912 9.872 43.47 9.296Q44.028 8.72 44.712 8.306Q45.396 7.892 46.224 7.748Q47.556 7.532 48.78 8.018Q50.004 8.504 50.4 9.8Q50.472 10.088 50.4 10.394Q50.328 10.7 50.004 10.88ZM112.824 10.88Q112.572 11.024 112.212 10.97Q111.852 10.916 111.6 10.52Q111.024 9.764 110.196 9.764Q109.44 9.764 108.846 10.106Q108.252 10.448 107.802 11.006Q107.352 11.564 107.064 12.248Q106.776 12.932 106.668 13.616Q106.488 14.876 107.1 15.74Q107.712 16.604 109.008 16.604Q110.052 16.64 111.366 16.19Q112.68 15.74 113.832 15.02Q114.336 14.804 114.768 14.768Q115.2 14.732 115.488 15.2Q115.848 15.776 115.308 16.37Q114.768 16.964 113.868 17.432Q112.968 17.936 111.978 18.314Q110.988 18.692 109.98 18.854Q108.972 19.016 107.982 18.872Q106.992 18.728 106.128 18.188Q104.76 17.252 104.472 15.524Q104.184 13.796 104.724 11.96Q104.94 11.276 105.336 10.574Q105.732 9.872 106.29 9.296Q106.848 8.72 107.532 8.306Q108.216 7.892 109.044 7.748Q110.376 7.532 111.6 8.018Q112.824 8.504 113.22 9.8Q113.292 10.088 113.22 10.394Q113.148 10.7 112.824 10.88ZM123.57 9.53Q124.092 9.944 124.488 10.196Q124.632 10.268 124.884 10.268Q125.136 10.268 125.388 10.088Q126.432 10.592 126.774 11.726Q127.116 12.86 126.756 13.904Q126.432 14.84 125.838 15.56Q125.244 16.28 124.578 16.712Q123.912 17.144 123.228 17.306Q122.544 17.468 122.04 17.324Q121.212 17.072 120.798 16.478Q120.384 15.884 120.24 15.146Q120.096 14.408 120.132 13.652Q120.168 12.896 120.276 12.356Q120.348 12.032 120.564 11.492Q120.78 10.952 121.086 10.43Q121.392 9.908 121.806 9.512Q122.22 9.116 122.652 9.116Q123.048 9.116 123.57 9.53ZM20.736 9.224Q20.376 9.296 19.962 9.476Q19.548 9.656 19.206 9.926Q18.864 10.196 18.594 10.538Q18.324 10.88 18.288 11.312Q18.9 11.312 19.638 11.204Q20.376 11.096 21.078 10.934Q21.78 10.772 22.374 10.556Q22.968 10.34 23.364 10.088Q23.076 9.404 22.302 9.242Q21.528 9.08 20.736 9.224ZM74.196 9.224Q73.836 9.296 73.422 9.476Q73.008 9.656 72.666 9.926Q72.324 10.196 72.054 10.538Q71.784 10.88 71.748 11.312Q72.36 11.312 73.098 11.204Q73.836 11.096 74.538 10.934Q75.24 10.772 75.834 10.556Q76.428 10.34 76.824 10.088Q76.536 9.404 75.762 9.242Q74.988 9.08 74.196 9.224ZM142.884 16.064Q142.308 15.596 142.092 14.732Q141.876 13.94 142.218 13.184Q142.56 12.428 143.208 11.816Q143.856 11.204 144.702 10.754Q145.548 10.304 146.304 10.088L147.024 9.908L148.032 16.244L147.708 16.352Q146.844 16.64 145.944 16.748Q145.044 16.856 144.252 16.694Q143.46 16.532 142.884 16.064ZM32.634 15.002Q33.156 14.66 33.624 14.552Q33.912 14.516 34.254 14.768Q34.596 15.02 34.884 15.362Q35.172 15.704 35.388 16.046Q35.604 16.388 35.604 16.604Q34.956 17.216 33.858 17.738Q32.76 18.26 31.896 18.44Q31.608 18.512 31.374 18.404Q31.14 18.296 31.068 18.08Q30.888 17.504 31.086 16.91Q31.284 16.316 31.698 15.83Q32.112 15.344 32.634 15.002Z" />
    </g>
    <g id="outrech">
      <path d="M86.562 31.128Q86.58 30.048 86.58 29.184Q86.58 28.536 86.256 27.978Q85.932 27.42 85.5 27.348Q85.0288 27.2826 84.7289 27.4788Q84.204 27.8224 84.204 28.968Q84.132 31.128 84.132 33.018Q84.132 34.908 84.186 36.708Q84.24 38.508 84.348 40.29Q84.456 42.072 84.636 44.016Q84.672 44.34 84.816 44.79Q84.96 45.24 85.158 45.654Q85.356 46.068 85.59 46.356Q85.824 46.644 86.112 46.644Q86.4 46.644 86.634 46.41Q86.868 46.176 87.012 45.528Q87.156 44.664 87.462 43.26Q87.768 41.856 88.254 40.488Q88.74 39.12 89.406 38.04Q90.072 36.96 90.972 36.78Q91.548 36.672 91.98 37.104Q92.412 37.536 92.718 38.31Q93.024 39.084 93.24 40.056Q93.456 41.028 93.6 41.982Q93.744 42.936 93.852 43.764Q93.96 44.592 94.068 45.024Q94.248 45.564 94.662 45.942Q95.076 46.32 95.364 46.32Q95.76 46.32 96.048 45.96Q96.336 45.6 96.336 45.024Q96.264 44.232 96.156 43.134Q96.048 42.036 95.814 40.83Q95.58 39.624 95.22 38.454Q94.86 37.284 94.338 36.33Q93.816 35.376 93.114 34.8Q92.412 34.224 91.512 34.224Q90.684 34.224 89.982 34.548Q89.28 34.872 88.65 35.412Q88.02 35.952 87.516 36.654Q87.012 37.356 86.652 38.076Q86.616 36.96 86.598 35.736Q86.58 34.512 86.562 33.36Q86.544 32.208 86.562 31.128ZM40.32 35.808Q39.636 35.448 38.952 35.484Q38.34 35.52 37.674 35.538Q37.008 35.556 36.288 35.628Q36.396 34.008 36.522 32.46Q36.648 30.912 36.792 29.688Q36.792 29.256 36.234 28.914Q35.676 28.572 35.064 28.608Q34.812 28.608 34.596 28.932Q34.38 29.256 34.344 29.688Q34.236 30.984 34.092 32.568Q33.948 34.152 33.84 35.844Q32.04 36.024 30.564 36.276Q29.952 36.456 29.772 36.816Q29.592 37.176 29.592 37.392Q29.592 38.004 30.15 38.22Q30.708 38.436 31.176 38.436Q31.752 38.364 32.382 38.31Q33.012 38.256 33.696 38.184Q33.624 39.876 33.57 41.388Q33.516 42.9 33.588 44.052Q33.66 45.204 34.272 45.96Q34.884 46.716 36.072 46.608Q36.864 46.536 37.89 46.158Q38.916 45.78 39.924 45.276Q40.932 44.772 41.814 44.214Q42.696 43.656 43.236 43.224Q43.704 42.756 43.884 42.18Q44.064 41.604 43.992 41.208Q43.92 40.956 43.614 40.884Q43.308 40.812 42.948 40.992Q42.156 41.388 41.274 41.838Q40.392 42.288 39.474 42.702Q38.556 43.116 37.638 43.458Q36.72 43.8 35.928 43.944Q35.892 43.908 35.892 43.404Q35.892 42.9 35.928 42.09Q35.964 41.28 36.018 40.236Q36.072 39.192 36.144 38.004Q37.008 37.932 37.836 37.896Q38.664 37.86 39.384 37.86Q39.744 37.86 40.338 37.698Q40.932 37.536 41.004 36.924Q41.004 36.168 40.32 35.808ZM56.232 32.712Q55.584 33.072 54.882 33.468Q54.18 33.864 53.478 34.386Q52.776 34.908 52.146 35.61Q51.516 36.312 51.012 37.284Q50.292 38.652 50.04 40.074Q49.788 41.496 49.716 42.864Q49.716 43.512 49.41 44.178Q49.104 44.844 48.564 44.844Q47.88 44.844 47.466 44.142Q47.052 43.44 46.908 42.792Q46.296 40.236 45.9 37.734Q45.504 35.232 45.216 32.748Q45.216 32.244 45.522 32.1Q45.828 31.956 46.224 31.992Q46.656 32.028 47.052 32.208Q47.448 32.388 47.52 32.784Q47.664 34.116 47.88 35.574Q48.096 37.032 48.312 38.076Q48.456 36.852 49.104 35.7Q49.752 34.548 50.706 33.612Q51.66 32.676 52.866 32.028Q54.072 31.38 55.332 31.164Q55.872 31.092 56.232 31.164Q56.592 31.236 56.736 31.416Q56.88 31.596 56.79 31.992Q56.7 32.388 56.232 32.712ZM9.756 32.568Q10.836 32.964 11.574 33.756Q12.312 34.548 12.708 35.538Q13.104 36.528 13.158 37.572Q13.212 38.616 12.924 39.516Q12.528 40.524 11.916 41.496Q11.304 42.468 10.512 43.224Q9.72 43.98 8.712 44.448Q7.704 44.916 6.48 44.916Q5.004 44.916 3.996 44.232Q2.988 43.548 2.412 42.468Q1.836 41.388 1.674 40.02Q1.512 38.652 1.728 37.284Q1.872 36.276 2.214 35.322Q2.556 34.368 3.096 33.63Q3.636 32.892 4.338 32.424Q5.04 31.956 5.94 31.956Q6.444 31.956 7.2 32.154Q7.956 32.352 8.604 32.712Q9.072 32.28 9.756 32.568ZM64.08 37.95Q65.7 37.5 67.104 36.672Q67.716 36.276 67.842 35.772Q67.968 35.268 67.68 34.584Q67.176 33.36 65.916 32.676Q64.656 31.992 63.108 32.1Q61.812 32.172 60.84 32.676Q59.868 33.18 59.22 33.954Q58.572 34.728 58.266 35.736Q57.96 36.744 58.068 37.86Q58.176 39.048 58.608 40.164Q59.04 41.28 59.868 42.108Q60.84 43.044 62.064 43.368Q63.288 43.692 64.44 43.476Q65.772 43.26 66.852 42.45Q67.932 41.64 68.508 40.488Q68.652 39.588 68.148 39.408Q67.968 39.336 67.608 39.426Q67.248 39.516 66.924 39.804Q66.6 40.092 66.168 40.38Q65.736 40.668 65.214 40.902Q64.692 41.136 64.098 41.244Q63.504 41.352 62.928 41.28Q61.956 41.136 61.308 40.398Q60.66 39.66 60.588 38.4Q62.46 38.4 64.08 37.95ZM79.308 35.88Q79.056 36.024 78.696 35.97Q78.336 35.916 78.084 35.52Q77.508 34.764 76.68 34.764Q75.924 34.764 75.33 35.106Q74.736 35.448 74.286 36.006Q73.836 36.564 73.548 37.248Q73.26 37.932 73.152 38.616Q72.972 39.876 73.584 40.74Q74.196 41.604 75.492 41.604Q76.536 41.64 77.85 41.19Q79.164 40.74 80.316 40.02Q80.82 39.804 81.252 39.768Q81.684 39.732 81.972 40.2Q82.332 40.776 81.792 41.37Q81.252 41.964 80.352 42.432Q79.452 42.936 78.462 43.314Q77.472 43.692 76.464 43.854Q75.456 44.016 74.466 43.872Q73.476 43.728 72.612 43.188Q71.244 42.252 70.956 40.524Q70.668 38.796 71.208 36.96Q71.424 36.276 71.82 35.574Q72.216 34.872 72.774 34.296Q73.332 33.72 74.016 33.306Q74.7 32.892 75.528 32.748Q76.86 32.532 78.084 33.018Q79.308 33.504 79.704 34.8Q79.776 35.088 79.704 35.394Q79.632 35.7 79.308 35.88ZM19.116 34.476Q18.9 35.448 18.684 36.618Q18.468 37.788 18.378 38.868Q18.288 39.948 18.378 40.812Q18.468 41.676 18.828 42.036Q19.44 42.144 20.232 41.514Q21.024 40.884 21.78 39.912Q22.536 38.94 23.148 37.806Q23.76 36.672 24.012 35.808Q24.156 35.376 24.264 34.908Q24.372 34.44 24.372 33.936Q24.372 33.648 24.75 33.378Q25.128 33.108 25.38 33.072Q25.56 33.036 25.794 33.144Q26.028 33.252 26.226 33.45Q26.424 33.648 26.586 33.918Q26.748 34.188 26.748 34.476Q26.82 35.556 26.964 36.852Q27.108 38.148 27.306 39.444Q27.504 40.74 27.72 41.964Q27.936 43.188 28.152 44.16Q28.26 44.556 27.936 45.06Q27.612 45.564 27.216 45.672Q26.892 45.744 26.55 45.6Q26.208 45.456 26.028 45.024Q25.848 44.52 25.686 43.782Q25.524 43.044 25.398 42.234Q25.272 41.424 25.164 40.686Q25.056 39.948 25.02 39.444Q24.48 40.416 23.742 41.406Q23.004 42.396 22.158 43.206Q21.312 44.016 20.394 44.466Q19.476 44.916 18.504 44.808Q17.064 44.628 16.308 42.108Q16.02 41.1 16.038 39.876Q16.056 38.652 16.218 37.446Q16.38 36.24 16.614 35.16Q16.848 34.08 17.028 33.396Q17.1 33.108 17.316 32.874Q17.532 32.64 17.82 32.712Q18.36 32.82 18.81 33.36Q19.26 33.9 19.116 34.476ZM8.388 35.196Q7.992 34.944 7.47 34.53Q6.948 34.116 6.552 34.116Q6.12 34.116 5.706 34.512Q5.292 34.908 4.986 35.43Q4.68 35.952 4.464 36.492Q4.248 37.032 4.176 37.356Q4.068 37.896 4.032 38.652Q3.996 39.408 4.14 40.146Q4.284 40.884 4.698 41.478Q5.112 42.072 5.94 42.324Q6.444 42.468 7.128 42.306Q7.812 42.144 8.478 41.712Q9.144 41.28 9.738 40.56Q10.332 39.84 10.656 38.904Q11.016 37.86 10.674 36.726Q10.332 35.592 9.288 35.088Q9.036 35.268 8.784 35.268Q8.532 35.268 8.388 35.196ZM62.19 34.476Q62.604 34.296 62.964 34.224Q63.756 34.08 64.53 34.242Q65.304 34.404 65.592 35.088Q65.196 35.34 64.602 35.556Q64.008 35.772 63.306 35.934Q62.604 36.096 61.866 36.204Q61.128 36.312 60.516 36.312Q60.552 35.88 60.822 35.538Q61.092 35.196 61.434 34.926Q61.776 34.656 62.19 34.476Z" />
    </g>
  </g>
  <g id="uses-what-he-learned-to-reach" transform="translate(54.5 348)">
    <g id="uses-what-he">
      <path d="M86.31 6.128Q86.328 5.048 86.328 4.184Q86.328 3.536 86.004 2.978Q85.68 2.42 85.248 2.348Q84.7768 2.28256 84.4769 2.47884Q83.952 2.82243 83.952 3.968Q83.88 6.128 83.88 8.018Q83.88 9.908 83.934 11.708Q83.988 13.508 84.096 15.29Q84.204 17.072 84.384 19.016Q84.42 19.34 84.564 19.79Q84.708 20.24 84.906 20.654Q85.104 21.068 85.338 21.356Q85.572 21.644 85.86 21.644Q86.148 21.644 86.382 21.41Q86.616 21.176 86.76 20.528Q86.904 19.664 87.21 18.26Q87.516 16.856 88.002 15.488Q88.488 14.12 89.154 13.04Q89.82 11.96 90.72 11.78Q91.296 11.672 91.728 12.104Q92.16 12.536 92.466 13.31Q92.772 14.084 92.988 15.056Q93.204 16.028 93.348 16.982Q93.492 17.936 93.6 18.764Q93.708 19.592 93.816 20.024Q93.996 20.564 94.41 20.942Q94.824 21.32 95.112 21.32Q95.508 21.32 95.796 20.96Q96.084 20.6 96.084 20.024Q96.012 19.232 95.904 18.134Q95.796 17.036 95.562 15.83Q95.328 14.624 94.968 13.454Q94.608 12.284 94.086 11.33Q93.564 10.376 92.862 9.8Q92.16 9.224 91.26 9.224Q90.432 9.224 89.73 9.548Q89.028 9.872 88.398 10.412Q87.768 10.952 87.264 11.654Q86.76 12.356 86.4 13.076Q86.364 11.96 86.346 10.736Q86.328 9.512 86.31 8.36Q86.292 7.208 86.31 6.128ZM138.888 4.184Q138.888 5.048 138.87 6.128Q138.852 7.208 138.87 8.36Q138.888 9.512 138.906 10.736Q138.924 11.96 138.96 13.076Q139.32 12.356 139.824 11.654Q140.328 10.952 140.958 10.412Q141.588 9.872 142.29 9.548Q142.992 9.224 143.82 9.224Q144.72 9.224 145.422 9.8Q146.124 10.376 146.646 11.33Q147.168 12.284 147.528 13.454Q147.888 14.624 148.122 15.83Q148.356 17.036 148.464 18.134Q148.572 19.232 148.644 20.024Q148.644 20.6 148.356 20.96Q148.068 21.32 147.672 21.32Q147.384 21.32 146.97 20.942Q146.556 20.564 146.376 20.024Q146.268 19.592 146.16 18.764Q146.052 17.936 145.908 16.982Q145.764 16.028 145.548 15.056Q145.332 14.084 145.026 13.31Q144.72 12.536 144.288 12.104Q143.856 11.672 143.28 11.78Q142.38 11.96 141.714 13.04Q141.048 14.12 140.562 15.488Q140.076 16.856 139.77 18.26Q139.464 19.664 139.32 20.528Q139.176 21.176 138.942 21.41Q138.708 21.644 138.42 21.644Q138.132 21.644 137.898 21.356Q137.664 21.068 137.466 20.654Q137.268 20.24 137.124 19.79Q136.98 19.34 136.944 19.016Q136.764 17.072 136.656 15.29Q136.548 13.508 136.494 11.708Q136.44 9.908 136.44 8.018Q136.44 6.128 136.512 3.968Q136.512 2.82244 137.037 2.47884Q137.337 2.28256 137.808 2.348Q138.24 2.42 138.564 2.978Q138.888 3.536 138.888 4.184ZM121.14 10.808Q120.456 10.448 119.772 10.484Q119.16 10.52 118.494 10.538Q117.828 10.556 117.108 10.628Q117.216 9.008 117.342 7.46Q117.468 5.912 117.612 4.688Q117.612 4.256 117.054 3.914Q116.496 3.572 115.884 3.608Q115.632 3.608 115.416 3.932Q115.2 4.256 115.164 4.688Q115.056 5.984 114.912 7.568Q114.768 9.152 114.66 10.844Q112.86 11.024 111.384 11.276Q110.772 11.456 110.592 11.816Q110.412 12.176 110.412 12.392Q110.412 13.004 110.97 13.22Q111.528 13.436 111.996 13.436Q112.572 13.364 113.202 13.31Q113.832 13.256 114.516 13.184Q114.444 14.876 114.39 16.388Q114.336 17.9 114.408 19.052Q114.48 20.204 115.092 20.96Q115.704 21.716 116.892 21.608Q117.684 21.536 118.71 21.158Q119.736 20.78 120.744 20.276Q121.752 19.772 122.634 19.214Q123.516 18.656 124.056 18.224Q124.524 17.756 124.704 17.18Q124.884 16.604 124.812 16.208Q124.74 15.956 124.434 15.884Q124.128 15.812 123.768 15.992Q122.976 16.388 122.094 16.838Q121.212 17.288 120.294 17.702Q119.376 18.116 118.458 18.458Q117.54 18.8 116.748 18.944Q116.712 18.908 116.712 18.404Q116.712 17.9 116.748 17.09Q116.784 16.28 116.838 15.236Q116.892 14.192 116.964 13.004Q117.828 12.932 118.656 12.896Q119.484 12.86 120.204 12.86Q120.564 12.86 121.158 12.698Q121.752 12.536 121.824 11.924Q121.824 11.168 121.14 10.808ZM107.676 6.812Q107.82 7.82 107.91 8.954Q108 10.088 108.054 11.24Q108.108 12.392 108.108 13.472Q108.108 14.552 108.072 15.416Q109.224 16.208 109.458 16.82Q109.692 17.432 109.512 17.9Q109.296 18.548 108.738 18.566Q108.18 18.584 107.46 18.188Q106.956 18.548 106.308 18.962Q105.66 19.376 104.94 19.754Q104.22 20.132 103.5 20.42Q102.78 20.708 102.168 20.816Q101.016 20.996 100.098 20.384Q99.18 19.772 98.856 18.548Q98.64 17.72 98.748 16.838Q98.856 15.956 99.288 15.146Q99.72 14.336 100.458 13.688Q101.196 13.04 102.204 12.68Q102.456 12.572 102.906 12.5Q103.356 12.428 103.842 12.446Q104.328 12.464 104.832 12.644Q105.336 12.824 105.768 13.256Q105.768 12.644 105.75 11.906Q105.732 11.168 105.696 10.412Q105.66 9.656 105.606 8.99Q105.552 8.324 105.48 7.856Q105.408 7.316 105.066 7.19Q104.724 7.064 104.22 7.244Q103.356 7.532 102.204 8.36Q101.052 9.188 100.008 10.124Q99.684 10.448 99.27 10.412Q98.856 10.376 98.568 10.088Q98.28 9.8 98.244 9.422Q98.208 9.044 98.532 8.612Q99.144 7.964 99.9 7.28Q100.656 6.596 101.484 6.038Q102.312 5.48 103.176 5.12Q104.04 4.76 104.904 4.724Q106.164 4.688 106.848 5.282Q107.532 5.876 107.676 6.812ZM22.824 8.612Q22.896 8.972 22.968 9.368Q23.004 9.692 23.31 9.89Q23.616 10.088 24.12 10.016Q24.516 9.944 24.678 9.62Q24.84 9.296 24.84 8.792Q24.66 7.28 23.652 6.506Q22.644 5.732 21.096 5.66Q20.196 5.66 19.296 6.056Q18.396 6.452 17.694 7.118Q16.992 7.784 16.56 8.648Q16.128 9.512 16.164 10.448Q16.308 11.492 16.848 12.194Q17.388 12.896 18.144 13.4Q18.9 13.904 19.962 14.516Q21.024 15.128 21.942 15.776Q22.86 16.424 23.418 17.018Q23.976 17.612 23.724 18.044Q23.436 18.548 22.716 18.872Q21.996 19.196 21.096 19.394Q20.196 19.592 19.206 19.682Q18.216 19.772 17.352 19.772Q16.74 19.772 16.164 20.024Q15.588 20.276 15.588 20.924Q15.588 21.104 15.786 21.338Q15.984 21.572 16.254 21.788Q16.524 22.004 16.83 22.166Q17.136 22.328 17.352 22.328Q18.252 22.328 19.548 22.202Q20.844 22.076 22.14 21.734Q23.436 21.392 24.516 20.78Q25.596 20.168 25.992 19.196Q26.496 17.936 26.154 16.946Q25.812 15.956 24.876 15.128Q23.94 14.3 22.572 13.508Q21.204 12.716 19.944 11.96Q19.188 11.456 18.792 10.952Q18.396 10.448 18.504 9.908Q18.54 9.62 18.936 9.242Q19.332 8.864 19.908 8.558Q20.484 8.252 21.168 8.108Q21.852 7.964 22.464 8.144Q22.752 8.252 22.824 8.612ZM47.664 8.612Q47.736 8.972 47.808 9.368Q47.844 9.692 48.15 9.89Q48.456 10.088 48.96 10.016Q49.356 9.944 49.518 9.62Q49.68 9.296 49.68 8.792Q49.5 7.28 48.492 6.506Q47.484 5.732 45.936 5.66Q45.036 5.66 44.136 6.056Q43.236 6.452 42.534 7.118Q41.832 7.784 41.4 8.648Q40.968 9.512 41.004 10.448Q41.148 11.492 41.688 12.194Q42.228 12.896 42.984 13.4Q43.74 13.904 44.802 14.516Q45.864 15.128 46.782 15.776Q47.7 16.424 48.258 17.018Q48.816 17.612 48.564 18.044Q48.276 18.548 47.556 18.872Q46.836 19.196 45.936 19.394Q45.036 19.592 44.046 19.682Q43.056 19.772 42.192 19.772Q41.58 19.772 41.004 20.024Q40.428 20.276 40.428 20.924Q40.428 21.104 40.626 21.338Q40.824 21.572 41.094 21.788Q41.364 22.004 41.67 22.166Q41.976 22.328 42.192 22.328Q43.092 22.328 44.388 22.202Q45.684 22.076 46.98 21.734Q48.276 21.392 49.356 20.78Q50.436 20.168 50.832 19.196Q51.336 17.936 50.994 16.946Q50.652 15.956 49.716 15.128Q48.78 14.3 47.412 13.508Q46.044 12.716 44.784 11.96Q44.028 11.456 43.632 10.952Q43.236 10.448 43.344 9.908Q43.38 9.62 43.776 9.242Q44.172 8.864 44.748 8.558Q45.324 8.252 46.008 8.108Q46.692 7.964 47.304 8.144Q47.592 8.252 47.664 8.612ZM37.152 11.672Q35.748 12.5 34.128 12.95Q32.508 13.4 30.636 13.4Q30.708 14.66 31.356 15.398Q32.004 16.136 32.976 16.28Q33.552 16.352 34.146 16.244Q34.74 16.136 35.262 15.902Q35.784 15.668 36.216 15.38Q36.648 15.092 36.972 14.804Q37.296 14.516 37.656 14.426Q38.016 14.336 38.196 14.408Q38.7 14.588 38.556 15.488Q37.98 16.64 36.9 17.45Q35.82 18.26 34.488 18.476Q33.336 18.692 32.112 18.368Q30.888 18.044 29.916 17.108Q29.088 16.28 28.656 15.164Q28.224 14.048 28.116 12.86Q28.008 11.744 28.314 10.736Q28.62 9.728 29.268 8.954Q29.916 8.18 30.888 7.676Q31.86 7.172 33.156 7.1Q34.704 6.992 35.964 7.676Q37.224 8.36 37.728 9.584Q38.016 10.268 37.89 10.772Q37.764 11.276 37.152 11.672ZM156.924 12.95Q158.544 12.5 159.948 11.672Q160.56 11.276 160.686 10.772Q160.812 10.268 160.524 9.584Q160.02 8.36 158.76 7.676Q157.5 6.992 155.952 7.1Q154.656 7.172 153.684 7.676Q152.712 8.18 152.064 8.954Q151.416 9.728 151.11 10.736Q150.804 11.744 150.912 12.86Q151.02 14.048 151.452 15.164Q151.884 16.28 152.712 17.108Q153.684 18.044 154.908 18.368Q156.132 18.692 157.284 18.476Q158.616 18.26 159.696 17.45Q160.776 16.64 161.352 15.488Q161.496 14.588 160.992 14.408Q160.812 14.336 160.452 14.426Q160.092 14.516 159.768 14.804Q159.444 15.092 159.012 15.38Q158.58 15.668 158.058 15.902Q157.536 16.136 156.942 16.244Q156.348 16.352 155.772 16.28Q154.8 16.136 154.152 15.398Q153.504 14.66 153.432 13.4Q155.304 13.4 156.924 12.95ZM76.176 19.304Q75.888 19.7 75.528 19.826Q75.168 19.952 74.88 19.952Q74.376 19.916 73.944 19.61Q73.512 19.304 73.404 18.98Q73.188 18.368 72.936 17.612Q72.684 16.856 72.45 16.082Q72.216 15.308 71.964 14.57Q71.712 13.832 71.496 13.22Q70.776 14.48 70.128 15.758Q69.48 17.036 68.688 18.404Q68.328 18.944 67.86 19.142Q67.392 19.34 67.068 19.304Q66.6 19.268 66.222 18.944Q65.844 18.62 65.628 18.332Q65.232 17.684 64.836 16.658Q64.44 15.632 64.098 14.498Q63.756 13.364 63.468 12.23Q63.18 11.096 63 10.196Q62.892 9.584 63.018 9.044Q63.144 8.504 63.648 8.432Q64.26 8.396 64.764 8.846Q65.268 9.296 65.34 9.728Q65.484 10.448 65.682 11.294Q65.88 12.14 66.114 13.004Q66.348 13.868 66.582 14.696Q66.816 15.524 67.068 16.172Q67.608 15.308 68.274 14.174Q68.94 13.04 69.552 11.978Q70.164 10.916 70.668 10.124Q71.172 9.332 71.46 9.152Q71.676 9.008 72.072 9.17Q72.468 9.332 72.648 9.62Q73.44 11.204 73.962 13.094Q74.484 14.984 74.988 16.604Q75.492 15.956 76.068 14.894Q76.644 13.832 77.184 12.644Q77.724 11.456 78.192 10.268Q78.66 9.08 78.948 8.144Q79.236 7.172 79.74 7.208Q80.388 7.28 80.856 7.64Q81.324 8 81.216 8.396Q80.424 11.564 79.164 14.21Q77.904 16.856 76.176 19.304ZM4.14 11.618Q4.356 10.448 4.572 9.476Q4.716 8.9 4.266 8.36Q3.816 7.82 3.276 7.712Q2.988 7.64 2.772 7.874Q2.556 8.108 2.484 8.396Q2.304 9.08 2.07 10.16Q1.836 11.24 1.674 12.446Q1.512 13.652 1.494 14.876Q1.476 16.1 1.764 17.108Q2.52 19.628 3.96 19.808Q4.932 19.916 5.85 19.466Q6.768 19.016 7.614 18.206Q8.46 17.396 9.198 16.406Q9.936 15.416 10.476 14.444Q10.512 14.948 10.62 15.686Q10.728 16.424 10.854 17.234Q10.98 18.044 11.142 18.782Q11.304 19.52 11.484 20.024Q11.664 20.456 12.006 20.6Q12.348 20.744 12.672 20.672Q13.068 20.564 13.392 20.06Q13.716 19.556 13.608 19.16Q13.392 18.188 13.176 16.964Q12.96 15.74 12.762 14.444Q12.564 13.148 12.42 11.852Q12.276 10.556 12.204 9.476Q12.204 9.188 12.042 8.918Q11.88 8.648 11.682 8.45Q11.484 8.252 11.25 8.144Q11.016 8.036 10.836 8.072Q10.584 8.108 10.206 8.378Q9.828 8.648 9.828 8.936Q9.828 9.44 9.72 9.908Q9.612 10.376 9.468 10.808Q9.216 11.672 8.604 12.806Q7.992 13.94 7.236 14.912Q6.48 15.884 5.688 16.514Q4.896 17.144 4.284 17.036Q3.924 16.676 3.834 15.812Q3.744 14.948 3.834 13.868Q3.924 12.788 4.14 11.618ZM33.012 9.224Q32.652 9.296 32.238 9.476Q31.824 9.656 31.482 9.926Q31.14 10.196 30.87 10.538Q30.6 10.88 30.564 11.312Q31.176 11.312 31.914 11.204Q32.652 11.096 33.354 10.934Q34.056 10.772 34.65 10.556Q35.244 10.34 35.64 10.088Q35.352 9.404 34.578 9.242Q33.804 9.08 33.012 9.224ZM155.034 9.476Q155.448 9.296 155.808 9.224Q156.6 9.08 157.374 9.242Q158.148 9.404 158.436 10.088Q158.04 10.34 157.446 10.556Q156.852 10.772 156.15 10.934Q155.448 11.096 154.71 11.204Q153.972 11.312 153.36 11.312Q153.396 10.88 153.666 10.538Q153.936 10.196 154.278 9.926Q154.62 9.656 155.034 9.476ZM103.5 14.552Q103.032 14.66 102.51 15.002Q101.988 15.344 101.574 15.83Q101.16 16.316 100.962 16.91Q100.764 17.504 100.944 18.08Q101.016 18.296 101.25 18.404Q101.484 18.512 101.772 18.44Q102.636 18.26 103.734 17.738Q104.832 17.216 105.48 16.604Q105.48 16.388 105.264 16.046Q105.048 15.704 104.76 15.362Q104.472 15.02 104.13 14.768Q103.788 14.516 103.5 14.552Z" />
    </g>
    <g id="learned-to-reach">
      <path d="M81.468 26.88Q81.36 26.232 81.558 25.692Q81.756 25.152 82.368 25.08Q82.908 25.008 83.322 25.368Q83.736 25.728 83.844 26.304Q84.564 30.444 85.194 34.53Q85.824 38.616 86.328 42.54Q86.472 43.584 86.184 43.962Q85.896 44.34 85.5 44.52Q85.068 44.7 84.69 44.52Q84.312 44.34 84.204 43.872L84.168 43.656L84.024 43.692Q82.836 44.124 81.54 44.178Q80.244 44.232 79.056 43.872Q77.868 43.512 76.95 42.702Q76.032 41.892 75.636 40.632Q74.772 37.86 76.716 35.592Q77.544 34.656 78.768 33.9Q79.992 33.144 81.72 32.712L82.368 32.568L81.468 26.88ZM5.112 36.402Q4.68 32.208 4.5 28.284Q4.464 27.636 4.194 27.186Q3.924 26.736 3.312 26.7Q2.736 26.664 2.556 27.258Q2.376 27.852 2.304 28.716Q2.34 30.372 2.484 32.352Q2.628 34.332 2.826 36.402Q3.024 38.472 3.276 40.524Q3.528 42.576 3.816 44.412Q3.852 44.628 4.014 44.916Q4.176 45.204 4.356 45.456Q4.536 45.708 4.752 45.87Q4.968 46.032 5.184 46.032Q5.4552 46.022 5.64232 45.8914Q6.12587 45.554 6.048 44.412Q5.544 40.596 5.112 36.402ZM191.646 31.128Q191.664 30.048 191.664 29.184Q191.664 28.536 191.34 27.978Q191.016 27.42 190.584 27.348Q190.113 27.2826 189.813 27.4788Q189.288 27.8224 189.288 28.968Q189.216 31.128 189.216 33.018Q189.216 34.908 189.27 36.708Q189.324 38.508 189.432 40.29Q189.54 42.072 189.72 44.016Q189.756 44.34 189.9 44.79Q190.044 45.24 190.242 45.654Q190.44 46.068 190.674 46.356Q190.908 46.644 191.196 46.644Q191.484 46.644 191.718 46.41Q191.952 46.176 192.096 45.528Q192.24 44.664 192.546 43.26Q192.852 41.856 193.338 40.488Q193.824 39.12 194.49 38.04Q195.156 36.96 196.056 36.78Q196.632 36.672 197.064 37.104Q197.496 37.536 197.802 38.31Q198.108 39.084 198.324 40.056Q198.54 41.028 198.684 41.982Q198.828 42.936 198.936 43.764Q199.044 44.592 199.152 45.024Q199.332 45.564 199.746 45.942Q200.16 46.32 200.448 46.32Q200.844 46.32 201.132 45.96Q201.42 45.6 201.42 45.024Q201.348 44.232 201.24 43.134Q201.132 42.036 200.898 40.83Q200.664 39.624 200.304 38.454Q199.944 37.284 199.422 36.33Q198.9 35.376 198.198 34.8Q197.496 34.224 196.596 34.224Q195.768 34.224 195.066 34.548Q194.364 34.872 193.734 35.412Q193.104 35.952 192.6 36.654Q192.096 37.356 191.736 38.076Q191.7 36.96 191.682 35.736Q191.664 34.512 191.646 33.36Q191.628 32.208 191.646 31.128ZM107.856 35.808Q107.172 35.448 106.488 35.484Q105.876 35.52 105.21 35.538Q104.544 35.556 103.824 35.628Q103.932 34.008 104.058 32.46Q104.184 30.912 104.328 29.688Q104.328 29.256 103.77 28.914Q103.212 28.572 102.6 28.608Q102.348 28.608 102.132 28.932Q101.916 29.256 101.88 29.688Q101.772 30.984 101.628 32.568Q101.484 34.152 101.376 35.844Q99.576 36.024 98.1 36.276Q97.488 36.456 97.308 36.816Q97.128 37.176 97.128 37.392Q97.128 38.004 97.686 38.22Q98.244 38.436 98.712 38.436Q99.288 38.364 99.918 38.31Q100.548 38.256 101.232 38.184Q101.16 39.876 101.106 41.388Q101.052 42.9 101.124 44.052Q101.196 45.204 101.808 45.96Q102.42 46.716 103.608 46.608Q104.4 46.536 105.426 46.158Q106.452 45.78 107.46 45.276Q108.468 44.772 109.35 44.214Q110.232 43.656 110.772 43.224Q111.24 42.756 111.42 42.18Q111.6 41.604 111.528 41.208Q111.456 40.956 111.15 40.884Q110.844 40.812 110.484 40.992Q109.692 41.388 108.81 41.838Q107.928 42.288 107.01 42.702Q106.092 43.116 105.174 43.458Q104.256 43.8 103.464 43.944Q103.428 43.908 103.428 43.404Q103.428 42.9 103.464 42.09Q103.5 41.28 103.554 40.236Q103.608 39.192 103.68 38.004Q104.544 37.932 105.372 37.896Q106.2 37.86 106.92 37.86Q107.28 37.86 107.874 37.698Q108.468 37.536 108.54 36.924Q108.54 36.168 107.856 35.808ZM30.636 31.812Q30.78 32.82 30.87 33.954Q30.96 35.088 31.014 36.24Q31.068 37.392 31.068 38.472Q31.068 39.552 31.032 40.416Q32.184 41.208 32.418 41.82Q32.652 42.432 32.472 42.9Q32.256 43.548 31.698 43.566Q31.14 43.584 30.42 43.188Q29.916 43.548 29.268 43.962Q28.62 44.376 27.9 44.754Q27.18 45.132 26.46 45.42Q25.74 45.708 25.128 45.816Q23.976 45.996 23.058 45.384Q22.14 44.772 21.816 43.548Q21.6 42.72 21.708 41.838Q21.816 40.956 22.248 40.146Q22.68 39.336 23.418 38.688Q24.156 38.04 25.164 37.68Q25.416 37.572 25.866 37.5Q26.316 37.428 26.802 37.446Q27.288 37.464 27.792 37.644Q28.296 37.824 28.728 38.256Q28.728 37.644 28.71 36.906Q28.692 36.168 28.656 35.412Q28.62 34.656 28.566 33.99Q28.512 33.324 28.44 32.856Q28.368 32.316 28.026 32.19Q27.684 32.064 27.18 32.244Q26.316 32.532 25.164 33.36Q24.012 34.188 22.968 35.124Q22.644 35.448 22.23 35.412Q21.816 35.376 21.528 35.088Q21.24 34.8 21.204 34.422Q21.168 34.044 21.492 33.612Q22.104 32.964 22.86 32.28Q23.616 31.596 24.444 31.038Q25.272 30.48 26.136 30.12Q27 29.76 27.864 29.724Q29.124 29.688 29.808 30.282Q30.492 30.876 30.636 31.812ZM172.422 33.954Q172.332 32.82 172.188 31.812Q172.044 30.876 171.36 30.282Q170.676 29.688 169.416 29.724Q168.552 29.76 167.688 30.12Q166.824 30.48 165.996 31.038Q165.168 31.596 164.412 32.28Q163.656 32.964 163.044 33.612Q162.72 34.044 162.756 34.422Q162.792 34.8 163.08 35.088Q163.368 35.376 163.782 35.412Q164.196 35.448 164.52 35.124Q165.564 34.188 166.716 33.36Q167.868 32.532 168.732 32.244Q169.236 32.064 169.578 32.19Q169.92 32.316 169.992 32.856Q170.064 33.324 170.118 33.99Q170.172 34.656 170.208 35.412Q170.244 36.168 170.262 36.906Q170.28 37.644 170.28 38.256Q169.848 37.824 169.344 37.644Q168.84 37.464 168.354 37.446Q167.868 37.428 167.418 37.5Q166.968 37.572 166.716 37.68Q165.708 38.04 164.97 38.688Q164.232 39.336 163.8 40.146Q163.368 40.956 163.26 41.838Q163.152 42.72 163.368 43.548Q163.692 44.772 164.61 45.384Q165.528 45.996 166.68 45.816Q167.292 45.708 168.012 45.42Q168.732 45.132 169.452 44.754Q170.172 44.376 170.82 43.962Q171.468 43.548 171.972 43.188Q172.692 43.584 173.25 43.566Q173.808 43.548 174.024 42.9Q174.204 42.432 173.97 41.82Q173.736 41.208 172.584 40.416Q172.62 39.552 172.62 38.472Q172.62 37.392 172.566 36.24Q172.512 35.088 172.422 33.954ZM43.974 33.468Q44.676 33.072 45.324 32.712Q45.792 32.388 45.882 31.992Q45.972 31.596 45.828 31.416Q45.684 31.236 45.324 31.164Q44.964 31.092 44.424 31.164Q43.164 31.38 41.958 32.028Q40.752 32.676 39.798 33.612Q38.844 34.548 38.196 35.7Q37.548 36.852 37.404 38.076Q37.188 37.032 36.972 35.574Q36.756 34.116 36.612 32.784Q36.54 32.388 36.144 32.208Q35.748 32.028 35.316 31.992Q34.92 31.956 34.614 32.1Q34.308 32.244 34.308 32.748Q34.596 35.232 34.992 37.734Q35.388 40.236 36 42.792Q36.144 43.44 36.558 44.142Q36.972 44.844 37.656 44.844Q38.196 44.844 38.502 44.178Q38.808 43.512 38.808 42.864Q38.88 41.496 39.132 40.074Q39.384 38.652 40.104 37.284Q40.608 36.312 41.238 35.61Q41.868 34.908 42.57 34.386Q43.272 33.864 43.974 33.468ZM147.042 33.468Q147.744 33.072 148.392 32.712Q148.86 32.388 148.95 31.992Q149.04 31.596 148.896 31.416Q148.752 31.236 148.392 31.164Q148.032 31.092 147.492 31.164Q146.232 31.38 145.026 32.028Q143.82 32.676 142.866 33.612Q141.912 34.548 141.264 35.7Q140.616 36.852 140.472 38.076Q140.256 37.032 140.04 35.574Q139.824 34.116 139.68 32.784Q139.608 32.388 139.212 32.208Q138.816 32.028 138.384 31.992Q137.988 31.956 137.682 32.1Q137.376 32.244 137.376 32.748Q137.664 35.232 138.06 37.734Q138.456 40.236 139.068 42.792Q139.212 43.44 139.626 44.142Q140.04 44.844 140.724 44.844Q141.264 44.844 141.57 44.178Q141.876 43.512 141.876 42.864Q141.948 41.496 142.2 40.074Q142.452 38.652 143.172 37.284Q143.676 36.312 144.306 35.61Q144.936 34.908 145.638 34.386Q146.34 33.864 147.042 33.468ZM49.788 33.252Q49.896 33.792 50.022 34.458Q50.148 35.124 50.292 35.826Q50.436 36.528 50.544 37.248Q50.652 37.968 50.724 38.616Q51.156 37.68 51.66 36.636Q52.164 35.592 52.758 34.71Q53.352 33.828 54.018 33.252Q54.684 32.676 55.476 32.676Q56.664 32.676 57.474 33.54Q58.284 34.404 58.842 35.682Q59.4 36.96 59.724 38.364Q60.048 39.768 60.264 40.848Q60.48 41.82 59.4 42.288Q58.896 42.54 58.644 42.36Q58.392 42.18 58.356 42Q58.176 41.568 57.906 40.488Q57.636 39.408 57.294 38.292Q56.952 37.176 56.52 36.348Q56.088 35.52 55.548 35.592Q54.9 35.628 54.396 36.564Q53.964 37.32 53.514 38.238Q53.064 39.156 52.632 40.11Q52.2 41.064 51.786 42.018Q51.372 42.972 51.012 43.764Q50.76 44.016 50.382 44.106Q50.004 44.196 49.608 44.052Q49.248 43.944 49.032 43.692Q48.816 43.44 48.816 43.188Q48.492 40.38 48.15 38.076Q47.808 35.772 47.268 33.36Q47.016 32.532 47.178 32.046Q47.34 31.56 48.24 31.668Q49.5 31.884 49.788 33.252ZM121.284 32.568Q122.364 32.964 123.102 33.756Q123.84 34.548 124.236 35.538Q124.632 36.528 124.686 37.572Q124.74 38.616 124.452 39.516Q124.056 40.524 123.444 41.496Q122.832 42.468 122.04 43.224Q121.248 43.98 120.24 44.448Q119.232 44.916 118.008 44.916Q116.532 44.916 115.524 44.232Q114.516 43.548 113.94 42.468Q113.364 41.388 113.202 40.02Q113.04 38.652 113.256 37.284Q113.4 36.276 113.742 35.322Q114.084 34.368 114.624 33.63Q115.164 32.892 115.866 32.424Q116.568 31.956 117.468 31.956Q117.972 31.956 118.728 32.154Q119.484 32.352 120.132 32.712Q120.6 32.28 121.284 32.568ZM14.688 37.95Q16.308 37.5 17.712 36.672Q18.324 36.276 18.45 35.772Q18.576 35.268 18.288 34.584Q17.784 33.36 16.524 32.676Q15.264 31.992 13.716 32.1Q12.42 32.172 11.448 32.676Q10.476 33.18 9.828 33.954Q9.18 34.728 8.874 35.736Q8.568 36.744 8.676 37.86Q8.784 39.048 9.216 40.164Q9.648 41.28 10.476 42.108Q11.448 43.044 12.672 43.368Q13.896 43.692 15.048 43.476Q16.38 43.26 17.46 42.45Q18.54 41.64 19.116 40.488Q19.26 39.588 18.756 39.408Q18.576 39.336 18.216 39.426Q17.856 39.516 17.532 39.804Q17.208 40.092 16.776 40.38Q16.344 40.668 15.822 40.902Q15.3 41.136 14.706 41.244Q14.112 41.352 13.536 41.28Q12.564 41.136 11.916 40.398Q11.268 39.66 11.196 38.4Q13.068 38.4 14.688 37.95ZM68.436 37.95Q70.056 37.5 71.46 36.672Q72.072 36.276 72.198 35.772Q72.324 35.268 72.036 34.584Q71.532 33.36 70.272 32.676Q69.012 31.992 67.464 32.1Q66.168 32.172 65.196 32.676Q64.224 33.18 63.576 33.954Q62.928 34.728 62.622 35.736Q62.316 36.744 62.424 37.86Q62.532 39.048 62.964 40.164Q63.396 41.28 64.224 42.108Q65.196 43.044 66.42 43.368Q67.644 43.692 68.796 43.476Q70.128 43.26 71.208 42.45Q72.288 41.64 72.864 40.488Q73.008 39.588 72.504 39.408Q72.324 39.336 71.964 39.426Q71.604 39.516 71.28 39.804Q70.956 40.092 70.524 40.38Q70.092 40.668 69.57 40.902Q69.048 41.136 68.454 41.244Q67.86 41.352 67.284 41.28Q66.312 41.136 65.664 40.398Q65.016 39.66 64.944 38.4Q66.816 38.4 68.436 37.95ZM159.264 36.672Q157.86 37.5 156.24 37.95Q154.62 38.4 152.748 38.4Q152.82 39.66 153.468 40.398Q154.116 41.136 155.088 41.28Q155.664 41.352 156.258 41.244Q156.852 41.136 157.374 40.902Q157.896 40.668 158.328 40.38Q158.76 40.092 159.084 39.804Q159.408 39.516 159.768 39.426Q160.128 39.336 160.308 39.408Q160.812 39.588 160.668 40.488Q160.092 41.64 159.012 42.45Q157.932 43.26 156.6 43.476Q155.448 43.692 154.224 43.368Q153 43.044 152.028 42.108Q151.2 41.28 150.768 40.164Q150.336 39.048 150.228 37.86Q150.12 36.744 150.426 35.736Q150.732 34.728 151.38 33.954Q152.028 33.18 153 32.676Q153.972 32.172 155.268 32.1Q156.816 31.992 158.076 32.676Q159.336 33.36 159.84 34.584Q160.128 35.268 160.002 35.772Q159.876 36.276 159.264 36.672ZM184.392 35.88Q184.14 36.024 183.78 35.97Q183.42 35.916 183.168 35.52Q182.592 34.764 181.764 34.764Q181.008 34.764 180.414 35.106Q179.82 35.448 179.37 36.006Q178.92 36.564 178.632 37.248Q178.344 37.932 178.236 38.616Q178.056 39.876 178.668 40.74Q179.28 41.604 180.576 41.604Q181.62 41.64 182.934 41.19Q184.248 40.74 185.4 40.02Q185.904 39.804 186.336 39.768Q186.768 39.732 187.056 40.2Q187.416 40.776 186.876 41.37Q186.336 41.964 185.436 42.432Q184.536 42.936 183.546 43.314Q182.556 43.692 181.548 43.854Q180.54 44.016 179.55 43.872Q178.56 43.728 177.696 43.188Q176.328 42.252 176.04 40.524Q175.752 38.796 176.292 36.96Q176.508 36.276 176.904 35.574Q177.3 34.872 177.858 34.296Q178.416 33.72 179.1 33.306Q179.784 32.892 180.612 32.748Q181.944 32.532 183.168 33.018Q184.392 33.504 184.788 34.8Q184.86 35.088 184.788 35.394Q184.716 35.7 184.392 35.88ZM119.916 35.196Q119.52 34.944 118.998 34.53Q118.476 34.116 118.08 34.116Q117.648 34.116 117.234 34.512Q116.82 34.908 116.514 35.43Q116.208 35.952 115.992 36.492Q115.776 37.032 115.704 37.356Q115.596 37.896 115.56 38.652Q115.524 39.408 115.668 40.146Q115.812 40.884 116.226 41.478Q116.64 42.072 117.468 42.324Q117.972 42.468 118.656 42.306Q119.34 42.144 120.006 41.712Q120.672 41.28 121.266 40.56Q121.86 39.84 122.184 38.904Q122.544 37.86 122.202 36.726Q121.86 35.592 120.816 35.088Q120.564 35.268 120.312 35.268Q120.06 35.268 119.916 35.196ZM12.798 34.476Q13.212 34.296 13.572 34.224Q14.364 34.08 15.138 34.242Q15.912 34.404 16.2 35.088Q15.804 35.34 15.21 35.556Q14.616 35.772 13.914 35.934Q13.212 36.096 12.474 36.204Q11.736 36.312 11.124 36.312Q11.16 35.88 11.43 35.538Q11.7 35.196 12.042 34.926Q12.384 34.656 12.798 34.476ZM66.546 34.476Q66.96 34.296 67.32 34.224Q68.112 34.08 68.886 34.242Q69.66 34.404 69.948 35.088Q69.552 35.34 68.958 35.556Q68.364 35.772 67.662 35.934Q66.96 36.096 66.222 36.204Q65.484 36.312 64.872 36.312Q64.908 35.88 65.178 35.538Q65.448 35.196 65.79 34.926Q66.132 34.656 66.546 34.476ZM155.124 34.224Q154.764 34.296 154.35 34.476Q153.936 34.656 153.594 34.926Q153.252 35.196 152.982 35.538Q152.712 35.88 152.676 36.312Q153.288 36.312 154.026 36.204Q154.764 36.096 155.466 35.934Q156.168 35.772 156.762 35.556Q157.356 35.34 157.752 35.088Q157.464 34.404 156.69 34.242Q155.916 34.08 155.124 34.224ZM77.832 39.732Q78.048 40.596 78.624 41.064Q79.2 41.532 79.992 41.694Q80.784 41.856 81.684 41.748Q82.584 41.64 83.448 41.352L83.772 41.244L82.764 34.908L82.044 35.088Q81.288 35.304 80.442 35.754Q79.596 36.204 78.948 36.816Q78.3 37.428 77.958 38.184Q77.616 38.94 77.832 39.732ZM26.46 39.552Q25.992 39.66 25.47 40.002Q24.948 40.344 24.534 40.83Q24.12 41.316 23.922 41.91Q23.724 42.504 23.904 43.08Q23.976 43.296 24.21 43.404Q24.444 43.512 24.732 43.44Q25.596 43.26 26.694 42.738Q27.792 42.216 28.44 41.604Q28.44 41.388 28.224 41.046Q28.008 40.704 27.72 40.362Q27.432 40.02 27.09 39.768Q26.748 39.516 26.46 39.552ZM167.022 40.002Q167.544 39.66 168.012 39.552Q168.3 39.516 168.642 39.768Q168.984 40.02 169.272 40.362Q169.56 40.704 169.776 41.046Q169.992 41.388 169.992 41.604Q169.344 42.216 168.246 42.738Q167.148 43.26 166.284 43.44Q165.996 43.512 165.762 43.404Q165.528 43.296 165.456 43.08Q165.276 42.504 165.474 41.91Q165.672 41.316 166.086 40.83Q166.5 40.344 167.022 40.002Z" />
    </g>
    <g id="out">
      <path d="M40.32 60.808Q39.636 60.448 38.952 60.484Q38.34 60.52 37.674 60.538Q37.008 60.556 36.288 60.628Q36.396 59.008 36.522 57.46Q36.648 55.912 36.792 54.688Q36.792 54.256 36.234 53.914Q35.676 53.572 35.064 53.608Q34.812 53.608 34.596 53.932Q34.38 54.256 34.344 54.688Q34.236 55.984 34.092 57.568Q33.948 59.152 33.84 60.844Q32.04 61.024 30.564 61.276Q29.952 61.456 29.772 61.816Q29.592 62.176 29.592 62.392Q29.592 63.004 30.15 63.22Q30.708 63.436 31.176 63.436Q31.752 63.364 32.382 63.31Q33.012 63.256 33.696 63.184Q33.624 64.876 33.57 66.388Q33.516 67.9 33.588 69.052Q33.66 70.204 34.272 70.96Q34.884 71.716 36.072 71.608Q36.864 71.536 37.89 71.158Q38.916 70.78 39.924 70.276Q40.932 69.772 41.814 69.214Q42.696 68.656 43.236 68.224Q43.704 67.756 43.884 67.18Q44.064 66.604 43.992 66.208Q43.92 65.956 43.614 65.884Q43.308 65.812 42.948 65.992Q42.156 66.388 41.274 66.838Q40.392 67.288 39.474 67.702Q38.556 68.116 37.638 68.458Q36.72 68.8 35.928 68.944Q35.892 68.908 35.892 68.404Q35.892 67.9 35.928 67.09Q35.964 66.28 36.018 65.236Q36.072 64.192 36.144 63.004Q37.008 62.932 37.836 62.896Q38.664 62.86 39.384 62.86Q39.744 62.86 40.338 62.698Q40.932 62.536 41.004 61.924Q41.004 61.168 40.32 60.808ZM9.756 57.568Q10.836 57.964 11.574 58.756Q12.312 59.548 12.708 60.538Q13.104 61.528 13.158 62.572Q13.212 63.616 12.924 64.516Q12.528 65.524 11.916 66.496Q11.304 67.468 10.512 68.224Q9.72 68.98 8.712 69.448Q7.704 69.916 6.48 69.916Q5.004 69.916 3.996 69.232Q2.988 68.548 2.412 67.468Q1.836 66.388 1.674 65.02Q1.512 63.652 1.728 62.284Q1.872 61.276 2.214 60.322Q2.556 59.368 3.096 58.63Q3.636 57.892 4.338 57.424Q5.04 56.956 5.94 56.956Q6.444 56.956 7.2 57.154Q7.956 57.352 8.604 57.712Q9.072 57.28 9.756 57.568ZM19.116 59.476Q18.9 60.448 18.684 61.618Q18.468 62.788 18.378 63.868Q18.288 64.948 18.378 65.812Q18.468 66.676 18.828 67.036Q19.44 67.144 20.232 66.514Q21.024 65.884 21.78 64.912Q22.536 63.94 23.148 62.806Q23.76 61.672 24.012 60.808Q24.156 60.376 24.264 59.908Q24.372 59.44 24.372 58.936Q24.372 58.648 24.75 58.378Q25.128 58.108 25.38 58.072Q25.56 58.036 25.794 58.144Q26.028 58.252 26.226 58.45Q26.424 58.648 26.586 58.918Q26.748 59.188 26.748 59.476Q26.82 60.556 26.964 61.852Q27.108 63.148 27.306 64.444Q27.504 65.74 27.72 66.964Q27.936 68.188 28.152 69.16Q28.26 69.556 27.936 70.06Q27.612 70.564 27.216 70.672Q26.892 70.744 26.55 70.6Q26.208 70.456 26.028 70.024Q25.848 69.52 25.686 68.782Q25.524 68.044 25.398 67.234Q25.272 66.424 25.164 65.686Q25.056 64.948 25.02 64.444Q24.48 65.416 23.742 66.406Q23.004 67.396 22.158 68.206Q21.312 69.016 20.394 69.466Q19.476 69.916 18.504 69.808Q17.064 69.628 16.308 67.108Q16.02 66.1 16.038 64.876Q16.056 63.652 16.218 62.446Q16.38 61.24 16.614 60.16Q16.848 59.08 17.028 58.396Q17.1 58.108 17.316 57.874Q17.532 57.64 17.82 57.712Q18.36 57.82 18.81 58.36Q19.26 58.9 19.116 59.476ZM8.388 60.196Q7.992 59.944 7.47 59.53Q6.948 59.116 6.552 59.116Q6.12 59.116 5.706 59.512Q5.292 59.908 4.986 60.43Q4.68 60.952 4.464 61.492Q4.248 62.032 4.176 62.356Q4.068 62.896 4.032 63.652Q3.996 64.408 4.14 65.146Q4.284 65.884 4.698 66.478Q5.112 67.072 5.94 67.324Q6.444 67.468 7.128 67.306Q7.812 67.144 8.478 66.712Q9.144 66.28 9.738 65.56Q10.332 64.84 10.656 63.904Q11.016 62.86 10.674 61.726Q10.332 60.592 9.288 60.088Q9.036 60.268 8.784 60.268Q8.532 60.268 8.388 60.196Z" />
    </g>
  </g>
  <g id="Sam-Parr" fill="#3E3E3E" transform="translate(82.5 114)">
    <path d="M10.908 4.796Q10.764 4.976 10.386 5.066Q10.008 5.156 9.612 4.868Q9.324 4.652 8.928 4.418Q8.532 4.184 8.064 3.968Q7.596 3.752 7.128 3.608Q6.66 3.464 6.228 3.464Q5.688 3.464 5.094 3.716Q4.5 3.968 4.068 4.436Q3.24 5.336 3.474 6.182Q3.708 7.028 4.716 7.748Q5.364 8.216 6.12 8.702Q6.876 9.188 7.614 9.656Q8.352 10.124 9.018 10.556Q9.684 10.988 10.188 11.312Q10.836 11.744 11.412 12.248Q11.988 12.752 12.42 13.382Q12.852 14.012 13.104 14.804Q13.356 15.596 13.356 16.604Q13.104 18.584 11.79 19.754Q10.476 20.924 8.748 21.248Q7.236 21.536 5.778 21.14Q4.32 20.744 3.312 19.628Q3.06 19.34 2.88 18.836Q2.7 18.332 2.844 18.116Q3.06 17.792 3.6 17.666Q4.14 17.54 4.428 17.72Q5.256 18.476 6.372 18.818Q7.488 19.16 8.712 18.872Q9.648 18.656 10.224 18.062Q10.8 17.468 10.944 16.712Q11.124 15.92 10.746 15.074Q10.368 14.228 9.396 13.544Q7.92 12.428 6.246 11.456Q4.572 10.484 2.844 9.224Q2.016 8.504 1.638 7.64Q1.26 6.776 1.26 5.948Q1.26 5.084 1.62 4.31Q1.98 3.536 2.628 2.906Q3.276 2.276 4.14 1.88Q5.004 1.484 6.048 1.412Q7.488 1.34 8.82 2.006Q10.152 2.672 10.98 3.644Q11.16 3.86 11.142 4.184Q11.124 4.508 10.908 4.796ZM67.14 20.204Q67.104 20.6 66.906 20.942Q66.708 21.284 66.312 21.248Q65.7 21.212 65.25 20.78Q64.8 20.348 64.8 20.06Q64.836 16.928 64.602 13.67Q64.368 10.412 63.864 7.172Q63.864 7.028 63.936 6.848Q64.008 6.704 64.116 6.506Q64.224 6.308 64.476 6.128Q64.728 6.02 65.034 6.164Q65.34 6.308 65.628 6.596Q65.916 6.884 66.132 7.244Q66.348 7.604 66.456 7.928Q66.564 8.648 66.672 9.512Q66.78 10.376 66.852 11.312Q67.716 10.844 68.508 10.268Q69.3 9.692 69.894 9.008Q70.488 8.324 70.812 7.586Q71.136 6.848 71.028 6.056Q70.956 5.444 70.488 4.94Q70.02 4.436 69.048 4.184Q66.816 3.68 65.052 4.13Q63.288 4.58 61.668 5.624Q61.2 5.984 60.804 6.056Q60.408 6.128 60.12 6.02Q59.832 5.912 59.688 5.696Q59.544 5.48 59.544 5.264Q59.616 4.436 60.354 3.77Q61.092 3.104 61.92 2.636Q63 2.096 64.584 1.736Q66.168 1.376 67.77 1.466Q69.372 1.556 70.776 2.24Q72.18 2.924 72.936 4.436Q73.62 6.236 73.242 7.676Q72.864 9.116 71.892 10.304Q70.92 11.492 69.588 12.482Q68.256 13.472 67.068 14.3Q67.14 15.884 67.158 17.396Q67.176 18.908 67.14 20.204ZM24.84 6.812Q24.984 7.82 25.074 8.954Q25.164 10.088 25.218 11.24Q25.272 12.392 25.272 13.472Q25.272 14.552 25.236 15.416Q26.388 16.208 26.622 16.82Q26.856 17.432 26.676 17.9Q26.46 18.548 25.902 18.566Q25.344 18.584 24.624 18.188Q24.12 18.548 23.472 18.962Q22.824 19.376 22.104 19.754Q21.384 20.132 20.664 20.42Q19.944 20.708 19.332 20.816Q18.18 20.996 17.262 20.384Q16.344 19.772 16.02 18.548Q15.804 17.72 15.912 16.838Q16.02 15.956 16.452 15.146Q16.884 14.336 17.622 13.688Q18.36 13.04 19.368 12.68Q19.62 12.572 20.07 12.5Q20.52 12.428 21.006 12.446Q21.492 12.464 21.996 12.644Q22.5 12.824 22.932 13.256Q22.932 12.644 22.914 11.906Q22.896 11.168 22.86 10.412Q22.824 9.656 22.77 8.99Q22.716 8.324 22.644 7.856Q22.572 7.316 22.23 7.19Q21.888 7.064 21.384 7.244Q20.52 7.532 19.368 8.36Q18.216 9.188 17.172 10.124Q16.848 10.448 16.434 10.412Q16.02 10.376 15.732 10.088Q15.444 9.8 15.408 9.422Q15.372 9.044 15.696 8.612Q16.308 7.964 17.064 7.28Q17.82 6.596 18.648 6.038Q19.476 5.48 20.34 5.12Q21.204 4.76 22.068 4.724Q23.328 4.688 24.012 5.282Q24.696 5.876 24.84 6.812ZM85.05 8.954Q84.96 7.82 84.816 6.812Q84.672 5.876 83.988 5.282Q83.304 4.688 82.044 4.724Q81.18 4.76 80.316 5.12Q79.452 5.48 78.624 6.038Q77.796 6.596 77.04 7.28Q76.284 7.964 75.672 8.612Q75.348 9.044 75.384 9.422Q75.42 9.8 75.708 10.088Q75.996 10.376 76.41 10.412Q76.824 10.448 77.148 10.124Q78.192 9.188 79.344 8.36Q80.496 7.532 81.36 7.244Q81.864 7.064 82.206 7.19Q82.548 7.316 82.62 7.856Q82.692 8.324 82.746 8.99Q82.8 9.656 82.836 10.412Q82.872 11.168 82.89 11.906Q82.908 12.644 82.908 13.256Q82.476 12.824 81.972 12.644Q81.468 12.464 80.982 12.446Q80.496 12.428 80.046 12.5Q79.596 12.572 79.344 12.68Q78.336 13.04 77.598 13.688Q76.86 14.336 76.428 15.146Q75.996 15.956 75.888 16.838Q75.78 17.72 75.996 18.548Q76.32 19.772 77.238 20.384Q78.156 20.996 79.308 20.816Q79.92 20.708 80.64 20.42Q81.36 20.132 82.08 19.754Q82.8 19.376 83.448 18.962Q84.096 18.548 84.6 18.188Q85.32 18.584 85.878 18.566Q86.436 18.548 86.652 17.9Q86.832 17.432 86.598 16.82Q86.364 16.208 85.212 15.416Q85.248 14.552 85.248 13.472Q85.248 12.392 85.194 11.24Q85.14 10.088 85.05 8.954ZM99.504 7.712Q98.856 8.072 98.154 8.468Q97.452 8.864 96.75 9.386Q96.048 9.908 95.418 10.61Q94.788 11.312 94.284 12.284Q93.564 13.652 93.312 15.074Q93.06 16.496 92.988 17.864Q92.988 18.512 92.682 19.178Q92.376 19.844 91.836 19.844Q91.152 19.844 90.738 19.142Q90.324 18.44 90.18 17.792Q89.568 15.236 89.172 12.734Q88.776 10.232 88.488 7.748Q88.488 7.244 88.794 7.1Q89.1 6.956 89.496 6.992Q89.928 7.028 90.324 7.208Q90.72 7.388 90.792 7.784Q90.936 9.116 91.152 10.574Q91.368 12.032 91.584 13.076Q91.728 11.852 92.376 10.7Q93.024 9.548 93.978 8.612Q94.932 7.676 96.138 7.028Q97.344 6.38 98.604 6.164Q99.144 6.092 99.504 6.164Q99.864 6.236 100.008 6.416Q100.152 6.596 100.062 6.992Q99.972 7.388 99.504 7.712ZM111.078 8.468Q111.78 8.072 112.428 7.712Q112.896 7.388 112.986 6.992Q113.076 6.596 112.932 6.416Q112.788 6.236 112.428 6.164Q112.068 6.092 111.528 6.164Q110.268 6.38 109.062 7.028Q107.856 7.676 106.902 8.612Q105.948 9.548 105.3 10.7Q104.652 11.852 104.508 13.076Q104.292 12.032 104.076 10.574Q103.86 9.116 103.716 7.784Q103.644 7.388 103.248 7.208Q102.852 7.028 102.42 6.992Q102.024 6.956 101.718 7.1Q101.412 7.244 101.412 7.748Q101.7 10.232 102.096 12.734Q102.492 15.236 103.104 17.792Q103.248 18.44 103.662 19.142Q104.076 19.844 104.76 19.844Q105.3 19.844 105.606 19.178Q105.912 18.512 105.912 17.864Q105.984 16.496 106.236 15.074Q106.488 13.652 107.208 12.284Q107.712 11.312 108.342 10.61Q108.972 9.908 109.674 9.386Q110.376 8.864 111.078 8.468ZM31.05 9.926Q30.96 9.08 30.924 8.504Q30.852 7.892 30.528 7.604Q30.204 7.316 29.592 7.424Q29.016 7.604 28.818 8.126Q28.62 8.648 28.656 9.26Q28.836 11.024 29.034 12.878Q29.232 14.732 29.52 16.28Q29.628 16.784 29.862 17.288Q30.096 17.792 30.384 18.188Q30.672 18.584 30.996 18.854Q31.32 19.124 31.608 19.124Q32.004 19.124 32.292 18.818Q32.58 18.512 32.832 18.116Q33.192 17.468 33.606 16.622Q34.02 15.776 34.47 14.912Q34.92 14.048 35.406 13.22Q35.892 12.392 36.396 11.708Q36.648 12.284 36.918 13.004Q37.188 13.724 37.458 14.48Q37.728 15.236 37.98 15.956Q38.232 16.676 38.448 17.252Q38.592 17.648 39.042 17.954Q39.492 18.26 39.888 18.26Q40.284 18.26 40.644 17.81Q41.004 17.36 41.004 16.424Q41.148 15.704 41.454 14.678Q41.76 13.652 42.12 12.716Q42.48 11.78 42.876 11.114Q43.272 10.448 43.632 10.448Q43.704 10.484 43.884 10.628Q44.064 10.772 44.262 10.988Q44.46 11.204 44.622 11.438Q44.784 11.672 44.856 11.816Q45.072 12.356 45.27 13.058Q45.468 13.76 45.612 14.57Q45.756 15.38 45.882 16.244Q46.008 17.108 46.116 17.936Q46.152 18.116 46.26 18.35Q46.368 18.584 46.548 18.764Q46.728 18.944 47.016 18.998Q47.304 19.052 47.7 18.872Q47.988 18.728 48.096 18.494Q48.204 18.26 48.204 17.792Q48.168 17.468 48.114 16.658Q48.06 15.848 47.916 14.804Q47.772 13.76 47.466 12.608Q47.16 11.456 46.656 10.484Q46.404 10.016 45.99 9.566Q45.576 9.116 45.108 8.792Q44.64 8.468 44.19 8.27Q43.74 8.072 43.416 8.072Q43.164 8.072 42.624 8.306Q42.084 8.54 41.616 9.044Q41.22 9.512 40.878 10.124Q40.536 10.736 40.266 11.366Q39.996 11.996 39.762 12.59Q39.528 13.184 39.384 13.652Q39.204 12.968 38.934 12.068Q38.664 11.168 38.304 10.376Q37.944 9.584 37.458 9.026Q36.972 8.468 36.396 8.468Q35.856 8.468 35.19 9.206Q34.524 9.944 33.894 11.006Q33.264 12.068 32.688 13.22L31.716 15.164Q31.608 14.408 31.482 13.508Q31.356 12.608 31.248 11.69Q31.14 10.772 31.05 9.926ZM20.664 14.552Q20.196 14.66 19.674 15.002Q19.152 15.344 18.738 15.83Q18.324 16.316 18.126 16.91Q17.928 17.504 18.108 18.08Q18.18 18.296 18.414 18.404Q18.648 18.512 18.936 18.44Q19.8 18.26 20.898 17.738Q21.996 17.216 22.644 16.604Q22.644 16.388 22.428 16.046Q22.212 15.704 21.924 15.362Q21.636 15.02 21.294 14.768Q20.952 14.516 20.664 14.552ZM79.65 15.002Q80.172 14.66 80.64 14.552Q80.928 14.516 81.27 14.768Q81.612 15.02 81.9 15.362Q82.188 15.704 82.404 16.046Q82.62 16.388 82.62 16.604Q81.972 17.216 80.874 17.738Q79.776 18.26 78.912 18.44Q78.624 18.512 78.39 18.404Q78.156 18.296 78.084 18.08Q77.904 17.504 78.102 16.91Q78.3 16.316 78.714 15.83Q79.128 15.344 79.65 15.002Z" />
  </g>
  <g id="Nobody" fill="#3E3E3E" transform="translate(416 373)">
    <path d="M32.688 7.19Q32.634 6.866 32.733 6.596Q32.832 6.326 33.138 6.29Q33.408 6.254 33.615 6.434Q33.822 6.614 33.876 6.902Q34.236 8.972 34.551 11.015Q34.866 13.058 35.118 15.02Q35.19 15.542 35.046 15.731Q34.902 15.92 34.704 16.01Q34.488 16.1 34.299 16.01Q34.11 15.92 34.056 15.686L34.038 15.578L33.966 15.596Q33.372 15.812 32.724 15.839Q32.076 15.866 31.482 15.686Q30.888 15.506 30.429 15.101Q29.97 14.696 29.772 14.066Q29.34 12.68 30.312 11.546Q30.726 11.078 31.338 10.7Q31.95 10.322 32.814 10.106L33.138 10.034L32.688 7.19ZM17.388 7.172Q17.406 7.46 17.415 7.874Q17.424 8.288 17.442 8.774Q17.46 9.26 17.496 9.755Q17.532 10.25 17.604 10.7Q17.874 10.25 18.225 10.016Q18.576 9.782 18.936 9.728Q19.494 9.656 19.908 9.854Q20.322 10.052 20.592 10.403Q20.862 10.754 20.988 11.177Q21.114 11.6 21.114 11.996Q21.114 12.842 20.673 13.562Q20.232 14.282 19.647 14.84Q19.062 15.398 18.495 15.776Q17.928 16.154 17.676 16.316Q17.316 16.46 16.974 16.388Q16.632 16.316 16.524 16.172Q16.434 15.956 16.47 15.803Q16.506 15.65 16.614 15.524Q16.722 15.398 16.875 15.299Q17.028 15.2 17.136 15.11Q16.704 13.13 16.47 11.105Q16.236 9.08 16.272 6.992Q16.272 6.632 16.425 6.578Q16.578 6.524 16.686 6.524Q16.938 6.56 17.136 6.722Q17.334 6.884 17.388 7.172ZM7.353 12.077Q7.524 10.484 7.65 8.954Q7.65 8.486 7.146 8.45Q6.948 8.432 6.714 8.603Q6.48 8.774 6.498 8.954Q6.354 10.412 6.219 11.744Q6.084 13.076 5.868 14.156Q5.526 13.706 5.139 13.157Q4.752 12.608 4.293 12.05Q3.834 11.492 3.285 10.952Q2.736 10.412 2.088 9.944Q2.07 9.692 1.953 9.521Q1.836 9.35 1.476 9.314Q1.314 9.296 1.143 9.494Q0.972 9.692 0.936 10.124Q0.9 10.52 0.864 11.204Q0.828 11.888 0.801 12.626Q0.774 13.364 0.774 14.039Q0.774 14.714 0.828 15.074Q0.864 15.434 1.08 15.785Q1.296 16.136 1.638 16.136Q1.926 16.136 1.926 15.974Q1.89 14.804 1.926 13.643Q1.962 12.482 2.016 11.294Q2.502 11.726 2.943 12.23Q3.384 12.734 3.789 13.247Q4.194 13.76 4.545 14.255Q4.896 14.75 5.202 15.164Q5.436 15.47 5.787 15.632Q6.138 15.794 6.336 15.758Q6.57 15.704 6.696 15.56Q6.822 15.416 6.894 15.074Q7.182 13.67 7.353 12.077ZM14.085 10.628Q13.716 10.232 13.176 10.034Q12.834 9.89 12.6 10.106Q12.276 9.926 11.898 9.827Q11.52 9.728 11.268 9.728Q10.818 9.728 10.467 9.962Q10.116 10.196 9.846 10.565Q9.576 10.934 9.405 11.411Q9.234 11.888 9.162 12.392Q9.054 13.076 9.135 13.76Q9.216 14.444 9.504 14.984Q9.792 15.524 10.296 15.866Q10.8 16.208 11.538 16.208Q12.15 16.208 12.654 15.974Q13.158 15.74 13.554 15.362Q13.95 14.984 14.256 14.498Q14.562 14.012 14.76 13.508Q14.904 13.058 14.877 12.536Q14.85 12.014 14.652 11.519Q14.454 11.024 14.085 10.628ZM27.423 10.628Q27.054 10.232 26.514 10.034Q26.172 9.89 25.938 10.106Q25.614 9.926 25.236 9.827Q24.858 9.728 24.606 9.728Q24.156 9.728 23.805 9.962Q23.454 10.196 23.184 10.565Q22.914 10.934 22.743 11.411Q22.572 11.888 22.5 12.392Q22.392 13.076 22.473 13.76Q22.554 14.444 22.842 14.984Q23.13 15.524 23.634 15.866Q24.138 16.208 24.876 16.208Q25.488 16.208 25.992 15.974Q26.496 15.74 26.892 15.362Q27.288 14.984 27.594 14.498Q27.9 14.012 28.098 13.508Q28.242 13.058 28.215 12.536Q28.188 12.014 27.99 11.519Q27.792 11.024 27.423 10.628ZM41.769 12.608Q41.706 11.618 41.652 10.646Q41.652 10.448 41.427 10.259Q41.202 10.07 40.914 10.106Q40.806 10.124 40.707 10.223Q40.608 10.322 40.536 10.457Q40.464 10.592 40.428 10.736Q40.392 10.88 40.392 10.988Q40.392 11.492 40.149 12.023Q39.906 12.554 39.564 12.986Q39.222 13.418 38.853 13.688Q38.484 13.958 38.214 13.958Q37.98 13.958 37.773 13.652Q37.566 13.346 37.386 12.941Q37.206 12.536 37.08 12.122Q36.954 11.708 36.882 11.51Q36.792 11.312 36.558 11.222Q36.324 11.132 36.054 11.186Q35.856 11.222 35.82 11.384Q35.784 11.546 35.82 11.726Q35.838 11.87 35.937 12.23Q36.036 12.59 36.198 13.04Q36.36 13.49 36.585 13.967Q36.81 14.444 37.098 14.822Q37.35 15.128 37.602 15.236Q37.854 15.344 38.106 15.344Q38.412 15.344 38.754 15.191Q39.096 15.038 39.42 14.813Q39.744 14.588 40.032 14.3Q40.32 14.012 40.536 13.742Q40.644 14.822 40.545 15.731Q40.446 16.64 40.122 17.414Q39.798 18.188 39.258 18.854Q38.718 19.52 37.926 20.114Q37.674 20.33 37.566 20.528Q37.458 20.726 37.512 20.888Q37.548 20.996 37.674 21.059Q37.8 21.122 37.962 21.149Q38.124 21.176 38.295 21.158Q38.466 21.14 38.61 21.05Q39.528 20.474 40.131 19.754Q40.734 19.034 41.094 18.197Q41.454 17.36 41.607 16.442Q41.76 15.524 41.796 14.561Q41.832 13.598 41.769 12.608ZM12.033 11.015Q12.294 11.222 12.492 11.348Q12.564 11.384 12.69 11.384Q12.816 11.384 12.942 11.294Q13.464 11.546 13.635 12.113Q13.806 12.68 13.626 13.202Q13.464 13.67 13.167 14.03Q12.87 14.39 12.537 14.606Q12.204 14.822 11.862 14.903Q11.52 14.984 11.268 14.912Q10.854 14.786 10.647 14.489Q10.44 14.192 10.368 13.823Q10.296 13.454 10.314 13.076Q10.332 12.698 10.386 12.428Q10.422 12.266 10.53 11.996Q10.638 11.726 10.791 11.465Q10.944 11.204 11.151 11.006Q11.358 10.808 11.574 10.808Q11.772 10.808 12.033 11.015ZM25.371 11.015Q25.632 11.222 25.83 11.348Q25.902 11.384 26.028 11.384Q26.154 11.384 26.28 11.294Q26.802 11.546 26.973 12.113Q27.144 12.68 26.964 13.202Q26.802 13.67 26.505 14.03Q26.208 14.39 25.875 14.606Q25.542 14.822 25.2 14.903Q24.858 14.984 24.606 14.912Q24.192 14.786 23.985 14.489Q23.778 14.192 23.706 13.823Q23.634 13.454 23.652 13.076Q23.67 12.698 23.724 12.428Q23.76 12.266 23.868 11.996Q23.976 11.726 24.129 11.465Q24.282 11.204 24.489 11.006Q24.696 10.808 24.912 10.808Q25.11 10.808 25.371 11.015ZM20.016 11.942Q20.016 11.33 19.71 11.087Q19.404 10.844 19.08 10.88Q18.81 10.916 18.594 11.078Q18.378 11.24 18.216 11.474Q18.054 11.708 17.973 11.996Q17.892 12.284 17.91 12.554Q17.946 13.004 18.009 13.526Q18.072 14.048 18.162 14.462Q18.45 14.264 18.774 14.003Q19.098 13.742 19.377 13.418Q19.656 13.094 19.836 12.725Q20.016 12.356 20.016 11.942ZM30.87 13.616Q30.978 14.048 31.266 14.282Q31.554 14.516 31.95 14.597Q32.346 14.678 32.796 14.624Q33.246 14.57 33.678 14.426L33.84 14.372L33.336 11.204L32.976 11.294Q32.598 11.402 32.175 11.627Q31.752 11.852 31.428 12.158Q31.104 12.464 30.933 12.842Q30.762 13.22 30.87 13.616Z" />
  </g>
  <g id="CEO-of-The-Hustle" fill="#3E3E3E" transform="translate(82.5 139)">
    <path d="M35.154 13.04Q34.902 13.076 34.569 12.986Q34.236 12.896 34.11 12.536Q34.056 12.356 34.092 12.185Q34.128 12.014 34.47 11.942Q34.794 11.87 35.163 11.807Q35.532 11.744 35.91 11.69L35.244 9.674Q34.938 8.522 35.172 7.694Q35.406 6.866 36.504 6.506Q36.954 6.362 37.395 6.398Q37.836 6.434 38.232 6.632Q38.628 6.83 38.952 7.154Q39.276 7.478 39.474 7.91Q39.546 8.108 39.555 8.261Q39.564 8.414 39.438 8.54Q39.258 8.72 39.042 8.693Q38.826 8.666 38.754 8.576Q38.592 8.378 38.403 8.171Q38.214 7.964 38.007 7.811Q37.8 7.658 37.566 7.577Q37.332 7.496 37.062 7.532Q36.936 7.55 36.765 7.658Q36.594 7.766 36.468 7.991Q36.342 8.216 36.315 8.576Q36.288 8.936 36.432 9.476Q36.558 9.926 36.72 10.448Q36.882 10.97 37.08 11.546Q37.944 11.456 38.664 11.492Q39.06 11.528 39.402 11.636Q39.744 11.744 39.96 11.96Q40.014 12.14 39.942 12.257Q39.87 12.374 39.735 12.455Q39.6 12.536 39.429 12.572Q39.258 12.608 39.096 12.626Q38.736 12.662 38.34 12.707Q37.944 12.752 37.512 12.788Q37.8 13.598 38.043 14.327Q38.286 15.056 38.43 15.542Q38.502 15.812 38.448 16.118Q38.394 16.424 38.304 16.712Q38.16 17.126 37.944 17.378Q37.728 17.63 37.476 17.54Q37.278 17.45 37.224 17.306Q37.17 17.162 37.206 16.91Q37.242 16.622 37.242 16.334Q37.242 16.046 37.215 15.803Q37.188 15.56 37.143 15.371Q37.098 15.182 37.08 15.11L36.324 12.914Q36.036 12.95 35.748 12.977Q35.46 13.004 35.154 13.04ZM104.382 7.892Q104.472 9.854 104.688 11.951Q104.904 14.048 105.156 15.956Q105.195 16.527 104.953 16.6957Q104.86 16.761 104.724 16.766Q104.616 16.766 104.508 16.685Q104.4 16.604 104.31 16.478Q104.22 16.352 104.139 16.208Q104.058 16.064 104.04 15.956Q103.896 15.038 103.77 14.012Q103.644 12.986 103.545 11.951Q103.446 10.916 103.374 9.926Q103.302 8.936 103.284 8.108Q103.32 7.676 103.41 7.379Q103.5 7.082 103.788 7.1Q104.094 7.118 104.229 7.343Q104.364 7.568 104.382 7.892ZM56.376 8.342Q56.376 8.774 56.367 9.314Q56.358 9.854 56.367 10.43Q56.376 11.006 56.385 11.618Q56.394 12.23 56.412 12.788Q56.592 12.428 56.844 12.077Q57.096 11.726 57.411 11.456Q57.726 11.186 58.077 11.024Q58.428 10.862 58.842 10.862Q59.292 10.862 59.643 11.15Q59.994 11.438 60.255 11.915Q60.516 12.392 60.696 12.977Q60.876 13.562 60.993 14.165Q61.11 14.768 61.164 15.317Q61.218 15.866 61.254 16.262Q61.254 16.55 61.11 16.73Q60.966 16.91 60.768 16.91Q60.624 16.91 60.417 16.721Q60.21 16.532 60.12 16.262Q60.066 16.046 60.012 15.632Q59.958 15.218 59.886 14.741Q59.814 14.264 59.706 13.778Q59.598 13.292 59.445 12.905Q59.292 12.518 59.076 12.302Q58.86 12.086 58.572 12.14Q58.122 12.23 57.789 12.77Q57.456 13.31 57.213 13.994Q56.97 14.678 56.817 15.38Q56.664 16.082 56.592 16.514Q56.52 16.838 56.403 16.955Q56.286 17.072 56.142 17.072Q55.998 17.072 55.881 16.928Q55.764 16.784 55.665 16.577Q55.566 16.37 55.494 16.145Q55.422 15.92 55.404 15.758Q55.314 14.786 55.26 13.895Q55.206 13.004 55.179 12.104Q55.152 11.204 55.152 10.259Q55.152 9.314 55.188 8.234Q55.188 7.66122 55.4505 7.48942Q55.6004 7.39128 55.836 7.424Q56.052 7.46 56.214 7.739Q56.376 8.018 56.376 8.342ZM50.076 9.44Q51.786 9.062 53.64 9.152Q53.838 9.17 53.91 9.053Q53.982 8.936 54.018 8.756Q54.054 8.612 53.937 8.405Q53.82 8.198 53.64 8.144Q49.95 7.676 46.26 9.476Q45.936 9.692 45.81 10.034Q45.81 10.232 46.035 10.43Q46.26 10.628 46.692 10.466Q48.366 9.818 50.076 9.44ZM100.296 11.654Q99.954 11.474 99.612 11.492Q99.306 11.51 98.973 11.519Q98.64 11.528 98.28 11.564Q98.334 10.754 98.397 9.98Q98.46 9.206 98.532 8.594Q98.532 8.378 98.253 8.207Q97.974 8.036 97.668 8.054Q97.542 8.054 97.434 8.216Q97.326 8.378 97.308 8.594Q97.254 9.242 97.182 10.034Q97.11 10.826 97.056 11.672Q96.156 11.762 95.418 11.888Q95.112 11.978 95.022 12.158Q94.932 12.338 94.932 12.446Q94.932 12.752 95.211 12.86Q95.49 12.968 95.724 12.968Q96.012 12.932 96.327 12.905Q96.642 12.878 96.984 12.842Q96.948 13.688 96.921 14.444Q96.894 15.2 96.93 15.776Q96.966 16.352 97.272 16.73Q97.578 17.108 98.172 17.054Q98.568 17.018 99.081 16.829Q99.594 16.64 100.098 16.388Q100.602 16.136 101.043 15.857Q101.484 15.578 101.754 15.362Q101.988 15.128 102.078 14.84Q102.168 14.552 102.132 14.354Q102.096 14.228 101.943 14.192Q101.79 14.156 101.61 14.246Q101.214 14.444 100.773 14.669Q100.332 14.894 99.873 15.101Q99.414 15.308 98.955 15.479Q98.496 15.65 98.1 15.722Q98.082 15.704 98.082 15.452Q98.082 15.2 98.1 14.795Q98.118 14.39 98.145 13.868Q98.172 13.346 98.208 12.752Q98.64 12.716 99.054 12.698Q99.468 12.68 99.828 12.68Q100.008 12.68 100.305 12.599Q100.602 12.518 100.638 12.212Q100.638 11.834 100.296 11.654ZM12.042 12.203Q12.258 12.032 12.186 11.852Q11.898 11.546 11.538 11.42Q11.178 11.294 10.8 11.33Q10.332 11.366 9.54 11.465Q8.748 11.564 7.992 11.69L8.028 10.754Q8.046 10.286 8.082 9.818Q8.082 9.782 8.073 9.737Q8.064 9.692 8.064 9.656Q8.424 9.602 8.829 9.557Q9.234 9.512 9.639 9.458Q10.044 9.404 10.422 9.359Q10.8 9.314 11.07 9.278Q11.34 9.242 11.511 9.116Q11.682 8.99 11.61 8.738Q11.304 8.432 10.953 8.324Q10.602 8.216 10.224 8.252Q9.9 8.27 9.441 8.324Q8.982 8.378 8.487 8.45Q7.992 8.522 7.524 8.612Q7.056 8.702 6.732 8.774Q6.534 8.846 6.462 8.981Q6.39 9.116 6.39 9.278Q6.39 9.476 6.543 9.638Q6.696 9.8 6.894 9.836Q6.858 10.358 6.84 10.889Q6.822 11.42 6.786 11.942Q6.498 12.068 6.462 12.41Q6.462 12.734 6.768 12.914Q6.732 13.814 6.768 14.696Q6.786 15.326 7.092 15.659Q7.398 15.992 7.992 15.974Q9.018 15.956 10.098 15.695Q11.178 15.434 12.294 15.074Q12.456 15.02 12.663 14.921Q12.87 14.822 13.059 14.705Q13.248 14.588 13.374 14.48Q13.5 14.372 13.5 14.318Q13.5 14.12 13.392 14.012Q13.284 13.904 13.113 13.877Q12.942 13.85 12.726 13.877Q12.51 13.904 12.312 13.958Q11.916 14.048 11.349 14.183Q10.782 14.318 10.17 14.444Q9.558 14.57 8.973 14.651Q8.388 14.732 7.974 14.732Q7.938 13.814 7.974 12.896Q8.856 12.77 9.702 12.653Q10.548 12.536 11.358 12.428Q11.826 12.374 12.042 12.203ZM80.136 9.152Q80.388 10.61 80.514 12.059Q80.64 13.508 80.712 14.948Q80.73 15.11 80.676 15.227Q80.622 15.344 80.541 15.434Q80.46 15.524 80.379 15.578Q80.298 15.632 80.244 15.632Q80.046 15.632 79.857 15.443Q79.668 15.254 79.632 14.948L79.524 13.58Q79.47 12.896 79.398 12.212Q77.508 12.734 75.402 13.13L75.546 13.922Q75.618 14.318 75.708 14.714Q75.726 14.786 75.735 14.948Q75.744 15.11 75.717 15.29Q75.69 15.47 75.609 15.623Q75.528 15.776 75.366 15.848Q75.222 15.866 75.06 15.758Q74.898 15.65 74.844 15.542Q74.628 14.984 74.439 14.21Q74.25 13.436 74.115 12.581Q73.98 11.726 73.926 10.844Q73.872 9.962 73.908 9.152Q73.944 8.882 74.115 8.765Q74.286 8.648 74.43 8.648Q74.592 8.648 74.709 8.756Q74.826 8.864 74.898 9.026Q74.97 9.188 75.006 9.35Q75.042 9.512 75.042 9.62Q75.06 10.196 75.096 10.754Q75.132 11.312 75.222 11.87Q76.14 11.744 77.22 11.519Q78.3 11.294 79.254 11.006Q79.218 10.592 79.164 10.169Q79.11 9.746 79.056 9.332Q79.056 9.026 79.245 8.792Q79.434 8.558 79.632 8.558Q79.776 8.558 79.929 8.702Q80.082 8.846 80.136 9.152ZM20.646 12.518Q20.538 13.022 20.259 13.481Q19.98 13.94 19.62 14.336Q19.26 14.732 18.837 15.02Q18.414 15.308 17.982 15.47Q17.19 15.758 16.407 15.659Q15.624 15.56 15.012 14.948Q14.598 14.444 14.427 13.814Q14.256 13.184 14.265 12.527Q14.274 11.87 14.445 11.258Q14.616 10.646 14.886 10.16Q15.21 9.584 15.66 9.206Q16.11 8.828 16.65 8.756Q16.794 8.72 16.884 8.828Q16.974 8.936 16.974 9.08Q17.154 8.9 17.532 8.81Q17.91 8.72 18.378 8.792Q19.242 8.9 19.746 9.314Q20.25 9.728 20.493 10.277Q20.736 10.826 20.745 11.429Q20.754 12.032 20.646 12.518ZM92.79 10.934Q92.754 10.736 92.718 10.556Q92.682 10.376 92.538 10.322Q92.232 10.232 91.89 10.304Q91.548 10.376 91.26 10.529Q90.972 10.682 90.774 10.871Q90.576 11.06 90.558 11.204Q90.504 11.474 90.702 11.726Q90.9 11.978 91.278 12.23Q91.908 12.608 92.592 13.004Q93.276 13.4 93.744 13.814Q94.212 14.228 94.383 14.723Q94.554 15.218 94.302 15.848Q94.104 16.334 93.564 16.64Q93.024 16.946 92.376 17.117Q91.728 17.288 91.08 17.351Q90.432 17.414 89.982 17.414Q89.874 17.414 89.721 17.333Q89.568 17.252 89.433 17.144Q89.298 17.036 89.199 16.919Q89.1 16.802 89.1 16.712Q89.1 16.388 89.388 16.262Q89.676 16.136 89.982 16.136Q90.414 16.136 90.909 16.091Q91.404 16.046 91.854 15.947Q92.304 15.848 92.664 15.686Q93.024 15.524 93.168 15.272Q93.294 15.056 93.015 14.759Q92.736 14.462 92.277 14.138Q91.818 13.814 91.287 13.508Q90.756 13.202 90.378 12.95Q90 12.698 89.73 12.347Q89.46 11.996 89.388 11.474Q89.37 11.006 89.586 10.574Q89.802 10.142 90.153 9.809Q90.504 9.476 90.954 9.278Q91.404 9.08 91.854 9.08Q92.628 9.116 93.132 9.503Q93.636 9.89 93.726 10.646Q93.726 10.898 93.645 11.06Q93.564 11.222 93.366 11.258Q93.114 11.294 92.961 11.195Q92.808 11.096 92.79 10.934ZM4.545 9.953Q4.536 9.818 4.464 9.728Q4.158 9.332 3.537 9.269Q2.916 9.206 2.304 9.512Q1.476 9.926 1.017 10.79Q0.558 11.654 0.594 12.734Q0.612 13.184 0.738 13.607Q0.864 14.03 1.116 14.399Q1.368 14.768 1.755 15.047Q2.142 15.326 2.7 15.47Q3.096 15.578 3.546 15.569Q3.996 15.56 4.428 15.452Q4.86 15.344 5.22 15.164Q5.58 14.984 5.796 14.75Q5.976 14.516 5.886 14.282Q5.85 14.192 5.751 14.138Q5.652 14.084 5.544 14.12Q5.22 14.246 4.86 14.345Q4.5 14.444 4.131 14.489Q3.762 14.534 3.402 14.516Q3.042 14.498 2.754 14.372Q2.286 14.174 1.989 13.733Q1.692 13.292 1.692 12.68Q1.692 12.05 1.926 11.465Q2.16 10.88 2.574 10.574Q2.988 10.268 3.402 10.25Q3.816 10.232 4.194 10.322Q4.41 10.376 4.5 10.178Q4.554 10.088 4.545 9.953ZM32.301 10.628Q31.932 10.232 31.392 10.034Q31.05 9.89 30.816 10.106Q30.492 9.926 30.114 9.827Q29.736 9.728 29.484 9.728Q29.034 9.728 28.683 9.962Q28.332 10.196 28.062 10.565Q27.792 10.934 27.621 11.411Q27.45 11.888 27.378 12.392Q27.27 13.076 27.351 13.76Q27.432 14.444 27.72 14.984Q28.008 15.524 28.512 15.866Q29.016 16.208 29.754 16.208Q30.366 16.208 30.87 15.974Q31.374 15.74 31.77 15.362Q32.166 14.984 32.472 14.498Q32.778 14.012 32.976 13.508Q33.12 13.058 33.093 12.536Q33.066 12.014 32.868 11.519Q32.67 11.024 32.301 10.628ZM50.949 15.785Q51.084 15.632 51.084 15.434Q51.12 14.156 51.084 12.878Q51.048 11.6 50.904 10.304Q50.904 10.106 50.724 9.899Q50.544 9.692 50.13 9.764Q49.986 9.8 49.923 9.872Q49.86 9.944 49.842 10.043Q49.824 10.142 49.842 10.241Q49.86 10.34 49.86 10.412Q49.95 11.672 49.977 12.923Q50.004 14.174 50.022 15.434Q50.04 15.668 50.148 15.848Q50.256 16.028 50.616 15.974Q50.814 15.938 50.949 15.785ZM65.394 12.725Q66.204 12.5 66.906 12.086Q67.212 11.888 67.275 11.636Q67.338 11.384 67.194 11.042Q66.942 10.43 66.312 10.088Q65.682 9.746 64.908 9.8Q64.26 9.836 63.774 10.088Q63.288 10.34 62.964 10.727Q62.64 11.114 62.487 11.618Q62.334 12.122 62.388 12.68Q62.442 13.274 62.658 13.832Q62.874 14.39 63.288 14.804Q63.774 15.272 64.386 15.434Q64.998 15.596 65.574 15.488Q66.24 15.38 66.78 14.975Q67.32 14.57 67.608 13.994Q67.68 13.544 67.428 13.454Q67.338 13.418 67.158 13.463Q66.978 13.508 66.816 13.652Q66.654 13.796 66.438 13.94Q66.222 14.084 65.961 14.201Q65.7 14.318 65.403 14.372Q65.106 14.426 64.818 14.39Q64.332 14.318 64.008 13.949Q63.684 13.58 63.648 12.95Q64.584 12.95 65.394 12.725ZM109.476 12.725Q110.286 12.5 110.988 12.086Q111.294 11.888 111.357 11.636Q111.42 11.384 111.276 11.042Q111.024 10.43 110.394 10.088Q109.764 9.746 108.99 9.8Q108.342 9.836 107.856 10.088Q107.37 10.34 107.046 10.727Q106.722 11.114 106.569 11.618Q106.416 12.122 106.47 12.68Q106.524 13.274 106.74 13.832Q106.956 14.39 107.37 14.804Q107.856 15.272 108.468 15.434Q109.08 15.596 109.656 15.488Q110.322 15.38 110.862 14.975Q111.402 14.57 111.69 13.994Q111.762 13.544 111.51 13.454Q111.42 13.418 111.24 13.463Q111.06 13.508 110.898 13.652Q110.736 13.796 110.52 13.94Q110.304 14.084 110.043 14.201Q109.782 14.318 109.485 14.372Q109.188 14.426 108.9 14.39Q108.414 14.318 108.09 13.949Q107.766 13.58 107.73 12.95Q108.666 12.95 109.476 12.725ZM16.722 10.034Q16.362 10.196 16.119 10.511Q15.876 10.826 15.723 11.222Q15.57 11.618 15.525 12.077Q15.48 12.536 15.516 12.968Q15.57 13.598 15.894 14.003Q16.218 14.408 16.902 14.408Q17.298 14.408 17.685 14.255Q18.072 14.102 18.396 13.85Q18.72 13.598 18.99 13.247Q19.26 12.896 19.422 12.518Q19.512 12.32 19.566 12.023Q19.62 11.726 19.602 11.411Q19.584 11.096 19.458 10.808Q19.332 10.52 19.062 10.322Q18.684 10.052 18.162 9.998Q17.64 9.944 17.064 10.232Q16.956 10.304 16.821 10.259Q16.686 10.214 16.722 10.034ZM83.376 12.059Q83.484 11.474 83.592 10.988Q83.664 10.7 83.439 10.43Q83.214 10.16 82.944 10.106Q82.8 10.07 82.692 10.187Q82.584 10.304 82.548 10.448Q82.458 10.79 82.341 11.33Q82.224 11.87 82.143 12.473Q82.062 13.076 82.053 13.688Q82.044 14.3 82.188 14.804Q82.566 16.064 83.286 16.154Q83.772 16.208 84.231 15.983Q84.69 15.758 85.113 15.353Q85.536 14.948 85.905 14.453Q86.274 13.958 86.544 13.472Q86.562 13.724 86.616 14.093Q86.67 14.462 86.733 14.867Q86.796 15.272 86.877 15.641Q86.958 16.01 87.048 16.262Q87.138 16.478 87.309 16.55Q87.48 16.622 87.642 16.586Q87.84 16.532 88.002 16.28Q88.164 16.028 88.11 15.83Q88.002 15.344 87.894 14.732Q87.786 14.12 87.687 13.472Q87.588 12.824 87.516 12.176Q87.444 11.528 87.408 10.988Q87.408 10.844 87.327 10.709Q87.246 10.574 87.147 10.475Q87.048 10.376 86.931 10.322Q86.814 10.268 86.724 10.286Q86.598 10.304 86.409 10.439Q86.22 10.574 86.22 10.718Q86.22 10.97 86.166 11.204Q86.112 11.438 86.04 11.654Q85.914 12.086 85.608 12.653Q85.302 13.22 84.924 13.706Q84.546 14.192 84.15 14.507Q83.754 14.822 83.448 14.768Q83.268 14.588 83.223 14.156Q83.178 13.724 83.223 13.184Q83.268 12.644 83.376 12.059ZM30.249 11.015Q30.51 11.222 30.708 11.348Q30.78 11.384 30.906 11.384Q31.032 11.384 31.158 11.294Q31.68 11.546 31.851 12.113Q32.022 12.68 31.842 13.202Q31.68 13.67 31.383 14.03Q31.086 14.39 30.753 14.606Q30.42 14.822 30.078 14.903Q29.736 14.984 29.484 14.912Q29.07 14.786 28.863 14.489Q28.656 14.192 28.584 13.823Q28.512 13.454 28.53 13.076Q28.548 12.698 28.602 12.428Q28.638 12.266 28.746 11.996Q28.854 11.726 29.007 11.465Q29.16 11.204 29.367 11.006Q29.574 10.808 29.79 10.808Q29.988 10.808 30.249 11.015ZM64.449 10.988Q64.656 10.898 64.836 10.862Q65.232 10.79 65.619 10.871Q66.006 10.952 66.15 11.294Q65.952 11.42 65.655 11.528Q65.358 11.636 65.007 11.717Q64.656 11.798 64.287 11.852Q63.918 11.906 63.612 11.906Q63.63 11.69 63.765 11.519Q63.9 11.348 64.071 11.213Q64.242 11.078 64.449 10.988ZM108.531 10.988Q108.738 10.898 108.918 10.862Q109.314 10.79 109.701 10.871Q110.088 10.952 110.232 11.294Q110.034 11.42 109.737 11.528Q109.44 11.636 109.089 11.717Q108.738 11.798 108.369 11.852Q108 11.906 107.694 11.906Q107.712 11.69 107.847 11.519Q107.982 11.348 108.153 11.213Q108.324 11.078 108.531 10.988Z" />
  </g>
  <path d="M0 0.000688751C0 0.000688751 123 -1.49929 183 135.501" transform="translate(231 151.9993)" id="New-shape" fill="none" fill-rule="evenodd" stroke="#060606" stroke-width="4" />
  <path d="M23.5 0L23.5 20.5L0 14" transform="translate(398 276.5)" id="New-shape-2" fill="none" fill-rule="evenodd" stroke="#000000" stroke-width="4" />
  <path d="M0 0.000688751C0 0.000688751 123 -1.49929 183 135.501" transform="matrix(-0.99619466 0.08715588 -0.08715588 -0.99619466 321.99997 359.92316)" id="New-shape-3" fill="none" fill-rule="evenodd" stroke="#060606" stroke-width="4" />
  <path d="M23.5 0L23.5 20.5L0 14" transform="matrix(-0.99619466 0.08715588 -0.08715588 -0.99619466 144.78447 250.4513)" id="New-shape-4" fill="none" fill-rule="evenodd" stroke="#000000" stroke-width="4" />
</svg>