<?xml version="1.0" encoding="utf-8"?>
<svg width="740px" height="493px" viewBox="0 0 740 493" version="1.1" xmlns:xlink="http://www.w3.org/1999/xlink" xmlns="http://www.w3.org/2000/svg">
  <desc>Created with Lunacy</desc>
  <path d="M0 96.999C0 96.999 73.4956 56.5 141.5 34.5C209.504 12.5 583.5 0 583.5 0" transform="translate(78.00003 312.5)" id="New-shape-30" fill="none" stroke="#727272" stroke-width="3" />
  <path d="M0 94.0009C0 94.0009 98.4957 43.501 166.5 21.501C234.504 -0.498998 397.5 0.000944868 397.5 0.000944868" transform="translate(264.5 242.9991)" id="New-shape-35" fill="none" stroke="#727272" stroke-width="3" />
  <path d="M0 70.3793C0 70.3793 89.4956 22 157.5 0" transform="translate(510 179)" id="New-shape-36" fill="none" stroke="#727272" stroke-width="3" />
  <path d="M0 0L1.72296 352L653 353" transform="translate(45 79)" id="New-shape-31" fill="none" stroke="#2C2C2C" stroke-width="3" />
  <path d="M0 29L19 0L34 29" transform="translate(26 49)" id="New-shape-32" fill="none" stroke="#2C2C2C" stroke-width="3" />
  <path d="M0 0L32 17.2174L0 33" transform="translate(700 418)" id="New-shape-33" fill="none" stroke="#2C2C2C" stroke-width="3" />
  <path d="M0 1L27 1" transform="translate(34 407)" id="New-shape-34" fill="none" stroke="#2C2C2C" stroke-width="3" />
  <g id="time" transform="translate(682 452)">
    <path d="M11.016 18.808Q10.332 18.448 9.648 18.484Q9.036 18.52 8.37 18.538Q7.704 18.556 6.984 18.628Q7.092 17.008 7.218 15.46Q7.344 13.912 7.488 12.688Q7.488 12.256 6.93 11.914Q6.372 11.572 5.76 11.608Q5.508 11.608 5.292 11.932Q5.076 12.256 5.04 12.688Q4.932 13.984 4.788 15.568Q4.644 17.152 4.536 18.844Q2.736 19.024 1.26 19.276Q0.648 19.456 0.468 19.816Q0.288 20.176 0.288 20.392Q0.288 21.004 0.846 21.22Q1.404 21.436 1.872 21.436Q2.448 21.364 3.078 21.31Q3.708 21.256 4.392 21.184Q4.32 22.876 4.266 24.388Q4.212 25.9 4.284 27.052Q4.356 28.204 4.968 28.96Q5.58 29.716 6.768 29.608Q7.56 29.536 8.586 29.158Q9.612 28.78 10.62 28.276Q11.628 27.772 12.51 27.214Q13.392 26.656 13.932 26.224Q14.4 25.756 14.58 25.18Q14.76 24.604 14.688 24.208Q14.616 23.956 14.31 23.884Q14.004 23.812 13.644 23.992Q12.852 24.388 11.97 24.838Q11.088 25.288 10.17 25.702Q9.252 26.116 8.334 26.458Q7.416 26.8 6.624 26.944Q6.588 26.908 6.588 26.404Q6.588 25.9 6.624 25.09Q6.66 24.28 6.714 23.236Q6.768 22.192 6.84 21.004Q7.704 20.932 8.532 20.896Q9.36 20.86 10.08 20.86Q10.44 20.86 11.034 20.698Q11.628 20.536 11.7 19.924Q11.7 19.168 11.016 18.808ZM21.708 13.84Q22.14 13.804 22.212 13.444Q22.284 12.94 21.942 12.58Q21.6 12.22 21.024 12.04Q20.628 11.932 20.016 11.914Q19.404 11.896 18.738 11.968Q18.072 12.04 17.424 12.202Q16.776 12.364 16.308 12.58Q16.02 12.724 15.804 12.904Q15.588 13.084 15.588 13.372Q15.696 14.128 16.2 14.38Q16.704 14.632 17.136 14.488Q18.18 14.2 19.134 14.056Q20.088 13.912 20.988 13.876Q21.276 13.876 21.708 13.84ZM52.92 20.95Q54.54 20.5 55.944 19.672Q56.556 19.276 56.682 18.772Q56.808 18.268 56.52 17.584Q56.016 16.36 54.756 15.676Q53.496 14.992 51.948 15.1Q50.652 15.172 49.68 15.676Q48.708 16.18 48.06 16.954Q47.412 17.728 47.106 18.736Q46.8 19.744 46.908 20.86Q47.016 22.048 47.448 23.164Q47.88 24.28 48.708 25.108Q49.68 26.044 50.904 26.368Q52.128 26.692 53.28 26.476Q54.612 26.26 55.692 25.45Q56.772 24.64 57.348 23.488Q57.492 22.588 56.988 22.408Q56.808 22.336 56.448 22.426Q56.088 22.516 55.764 22.804Q55.44 23.092 55.008 23.38Q54.576 23.668 54.054 23.902Q53.532 24.136 52.938 24.244Q52.344 24.352 51.768 24.28Q50.796 24.136 50.148 23.398Q49.5 22.66 49.428 21.4Q51.3 21.4 52.92 20.95ZM27.036 16.504Q27.072 17.08 27.162 17.926Q27.252 18.772 27.36 19.69Q27.468 20.608 27.594 21.508Q27.72 22.408 27.828 23.164L28.8 21.22Q29.376 20.068 30.006 19.006Q30.636 17.944 31.302 17.206Q31.968 16.468 32.508 16.468Q33.084 16.468 33.57 17.026Q34.056 17.584 34.416 18.376Q34.776 19.168 35.046 20.068Q35.316 20.968 35.496 21.652Q35.64 21.184 35.874 20.59Q36.108 19.996 36.378 19.366Q36.648 18.736 36.99 18.124Q37.332 17.512 37.728 17.044Q38.196 16.54 38.736 16.306Q39.276 16.072 39.528 16.072Q39.852 16.072 40.302 16.27Q40.752 16.468 41.22 16.792Q41.688 17.116 42.102 17.566Q42.516 18.016 42.768 18.484Q43.272 19.456 43.578 20.608Q43.884 21.76 44.028 22.804Q44.172 23.848 44.226 24.658Q44.28 25.468 44.316 25.792Q44.316 26.26 44.208 26.494Q44.1 26.728 43.812 26.872Q43.416 27.052 43.128 26.998Q42.84 26.944 42.66 26.764Q42.48 26.584 42.372 26.35Q42.264 26.116 42.228 25.936Q42.12 25.108 41.994 24.244Q41.868 23.38 41.724 22.57Q41.58 21.76 41.382 21.058Q41.184 20.356 40.968 19.816Q40.896 19.672 40.734 19.438Q40.572 19.204 40.374 18.988Q40.176 18.772 39.996 18.628Q39.816 18.484 39.744 18.448Q39.384 18.448 38.988 19.114Q38.592 19.78 38.232 20.716Q37.872 21.652 37.566 22.678Q37.26 23.704 37.116 24.424Q37.116 25.36 36.756 25.81Q36.396 26.26 36 26.26Q35.604 26.26 35.154 25.954Q34.704 25.648 34.56 25.252Q34.344 24.676 34.092 23.956Q33.84 23.236 33.57 22.48Q33.3 21.724 33.03 21.004Q32.76 20.284 32.508 19.708Q32.004 20.392 31.518 21.22Q31.032 22.048 30.582 22.912Q30.132 23.776 29.718 24.622Q29.304 25.468 28.944 26.116Q28.692 26.512 28.404 26.818Q28.116 27.124 27.72 27.124Q27.432 27.124 27.108 26.854Q26.784 26.584 26.496 26.188Q26.208 25.792 25.974 25.288Q25.74 24.784 25.632 24.28Q25.344 22.732 25.146 20.878Q24.948 19.024 24.768 17.26Q24.732 16.648 24.93 16.126Q25.128 15.604 25.704 15.424Q26.316 15.316 26.64 15.604Q26.964 15.892 27.036 16.504ZM51.03 17.476Q51.444 17.296 51.804 17.224Q52.596 17.08 53.37 17.242Q54.144 17.404 54.432 18.088Q54.036 18.34 53.442 18.556Q52.848 18.772 52.146 18.934Q51.444 19.096 50.706 19.204Q49.968 19.312 49.356 19.312Q49.392 18.88 49.662 18.538Q49.932 18.196 50.274 17.926Q50.616 17.656 51.03 17.476ZM21.654 26.674Q21.636 26.008 21.384 25.432Q21.168 24.964 21.024 24.226Q20.88 23.488 20.772 22.696Q20.664 21.904 20.628 21.112Q20.592 20.32 20.592 19.672Q20.628 18.844 20.232 18.286Q19.836 17.728 19.188 17.692Q18.792 17.764 18.54 18.196Q18.288 18.628 18.252 19.132Q18.252 19.6 18.27 20.536Q18.288 21.472 18.396 22.552Q18.504 23.632 18.72 24.73Q18.936 25.828 19.332 26.584Q19.62 27.196 20.196 27.556Q20.772 27.916 21.276 27.592Q21.672 27.34 21.654 26.674Z" />
  </g>
  <g id="profit">
    <path d="M42.786 21.472Q43.452 21.652 43.956 21.58Q44.568 21.508 45.144 21.454Q45.72 21.4 46.296 21.328L47.808 25.72Q47.844 25.864 47.934 26.242Q48.024 26.62 48.078 27.106Q48.132 27.592 48.132 28.168Q48.132 28.744 48.06 29.32Q47.988 29.824 48.096 30.112Q48.204 30.4 48.6 30.58Q49.104 30.76 49.536 30.256Q49.968 29.752 50.256 28.924Q50.436 28.348 50.544 27.736Q50.652 27.124 50.508 26.584Q50.22 25.612 49.734 24.154Q49.248 22.696 48.672 21.076Q49.536 21.004 50.328 20.914Q51.12 20.824 51.84 20.752Q52.164 20.716 52.506 20.644Q52.848 20.572 53.118 20.41Q53.388 20.248 53.532 20.014Q53.676 19.78 53.568 19.42Q53.136 18.988 52.452 18.772Q51.768 18.556 50.976 18.484Q49.536 18.412 47.808 18.592Q47.412 17.44 47.088 16.396Q46.764 15.352 46.512 14.452Q46.224 13.372 46.278 12.652Q46.332 11.932 46.584 11.482Q46.836 11.032 47.178 10.816Q47.52 10.6 47.772 10.564Q48.312 10.492 48.78 10.654Q49.248 10.816 49.662 11.122Q50.076 11.428 50.454 11.842Q50.832 12.256 51.156 12.652Q51.3 12.832 51.732 12.886Q52.164 12.94 52.524 12.58Q52.776 12.328 52.758 12.022Q52.74 11.716 52.596 11.32Q52.2 10.456 51.552 9.808Q50.904 9.16 50.112 8.764Q49.32 8.368 48.438 8.296Q47.556 8.224 46.656 8.512Q44.46 9.232 43.992 10.888Q43.524 12.544 44.136 14.848L45.468 18.88Q44.712 18.988 43.974 19.114Q43.236 19.24 42.588 19.384Q41.904 19.528 41.832 19.87Q41.76 20.212 41.868 20.572Q42.12 21.292 42.786 21.472ZM74.304 18.808Q73.62 18.448 72.936 18.484Q72.324 18.52 71.658 18.538Q70.992 18.556 70.272 18.628Q70.38 17.008 70.506 15.46Q70.632 13.912 70.776 12.688Q70.776 12.256 70.218 11.914Q69.66 11.572 69.048 11.608Q68.796 11.608 68.58 11.932Q68.364 12.256 68.328 12.688Q68.22 13.984 68.076 15.568Q67.932 17.152 67.824 18.844Q66.024 19.024 64.548 19.276Q63.936 19.456 63.756 19.816Q63.576 20.176 63.576 20.392Q63.576 21.004 64.134 21.22Q64.692 21.436 65.16 21.436Q65.736 21.364 66.366 21.31Q66.996 21.256 67.68 21.184Q67.608 22.876 67.554 24.388Q67.5 25.9 67.572 27.052Q67.644 28.204 68.256 28.96Q68.868 29.716 70.056 29.608Q70.848 29.536 71.874 29.158Q72.9 28.78 73.908 28.276Q74.916 27.772 75.798 27.214Q76.68 26.656 77.22 26.224Q77.688 25.756 77.868 25.18Q78.048 24.604 77.976 24.208Q77.904 23.956 77.598 23.884Q77.292 23.812 76.932 23.992Q76.14 24.388 75.258 24.838Q74.376 25.288 73.458 25.702Q72.54 26.116 71.622 26.458Q70.704 26.8 69.912 26.944Q69.876 26.908 69.876 26.404Q69.876 25.9 69.912 25.09Q69.948 24.28 70.002 23.236Q70.056 22.192 70.128 21.004Q70.992 20.932 71.82 20.896Q72.648 20.86 73.368 20.86Q73.728 20.86 74.322 20.698Q74.916 20.536 74.988 19.924Q74.988 19.168 74.304 18.808ZM62.1 13.444Q62.028 13.804 61.596 13.84Q61.164 13.876 60.876 13.876Q59.976 13.912 59.022 14.056Q58.068 14.2 57.024 14.488Q56.592 14.632 56.088 14.38Q55.584 14.128 55.476 13.372Q55.476 13.084 55.692 12.904Q55.908 12.724 56.196 12.58Q56.664 12.364 57.312 12.202Q57.96 12.04 58.626 11.968Q59.292 11.896 59.904 11.914Q60.516 11.932 60.912 12.04Q61.488 12.22 61.83 12.58Q62.172 12.94 62.1 13.444ZM7.236 32.794Q7.56 32.452 7.596 32.056Q7.632 30.616 7.56 28.708Q7.488 26.8 7.308 24.856Q8.496 24.136 9.666 23.218Q10.836 22.3 11.646 21.166Q12.456 20.032 12.726 18.646Q12.996 17.26 12.384 15.604Q11.88 14.596 11.07 14.074Q10.26 13.552 9.252 13.39Q8.244 13.228 7.146 13.354Q6.048 13.48 4.986 13.786Q3.924 14.092 2.97 14.506Q2.016 14.92 1.332 15.316Q0.54 15.82 0.162 16.396Q-0.216 16.972 0.108 17.692Q0.252 17.98 0.738 18.034Q1.224 18.088 1.728 17.8Q2.484 17.404 3.294 17.008Q4.104 16.612 4.95 16.324Q5.796 16.036 6.678 15.856Q7.56 15.676 8.46 15.712Q9.468 15.748 9.936 16.234Q10.404 16.72 10.476 17.332Q10.584 18.052 10.332 18.718Q10.08 19.384 9.594 19.996Q9.108 20.608 8.442 21.148Q7.776 21.688 7.02 22.156Q6.912 21.112 6.786 20.23Q6.66 19.348 6.552 18.664Q6.336 17.944 5.742 17.476Q5.148 17.008 4.68 17.188Q4.392 17.332 4.284 17.494Q4.176 17.656 4.104 17.836Q4.032 18.016 4.068 18.232Q4.248 19.456 4.41 20.752Q4.572 22.048 4.752 23.38Q4.032 23.812 3.708 24.28Q3.384 24.748 3.636 25.36Q3.78 25.72 4.158 25.882Q4.536 26.044 5.004 25.972Q5.112 27.556 5.184 29.05Q5.256 30.544 5.256 31.912Q5.256 32.2 5.58 32.632Q5.904 33.064 6.516 33.1Q6.912 33.136 7.236 32.794ZM24.642 16.468Q25.344 16.072 25.992 15.712Q26.46 15.388 26.55 14.992Q26.64 14.596 26.496 14.416Q26.352 14.236 25.992 14.164Q25.632 14.092 25.092 14.164Q23.832 14.38 22.626 15.028Q21.42 15.676 20.466 16.612Q19.512 17.548 18.864 18.7Q18.216 19.852 18.072 21.076Q17.856 20.032 17.64 18.574Q17.424 17.116 17.28 15.784Q17.208 15.388 16.812 15.208Q16.416 15.028 15.984 14.992Q15.588 14.956 15.282 15.1Q14.976 15.244 14.976 15.748Q15.264 18.232 15.66 20.734Q16.056 23.236 16.668 25.792Q16.812 26.44 17.226 27.142Q17.64 27.844 18.324 27.844Q18.864 27.844 19.17 27.178Q19.476 26.512 19.476 25.864Q19.548 24.496 19.8 23.074Q20.052 21.652 20.772 20.284Q21.276 19.312 21.906 18.61Q22.536 17.908 23.238 17.386Q23.94 16.864 24.642 16.468ZM36.432 15.568Q37.512 15.964 38.25 16.756Q38.988 17.548 39.384 18.538Q39.78 19.528 39.834 20.572Q39.888 21.616 39.6 22.516Q39.204 23.524 38.592 24.496Q37.98 25.468 37.188 26.224Q36.396 26.98 35.388 27.448Q34.38 27.916 33.156 27.916Q31.68 27.916 30.672 27.232Q29.664 26.548 29.088 25.468Q28.512 24.388 28.35 23.02Q28.188 21.652 28.404 20.284Q28.548 19.276 28.89 18.322Q29.232 17.368 29.772 16.63Q30.312 15.892 31.014 15.424Q31.716 14.956 32.616 14.956Q33.12 14.956 33.876 15.154Q34.632 15.352 35.28 15.712Q35.748 15.28 36.432 15.568ZM35.064 18.196Q34.668 17.944 34.146 17.53Q33.624 17.116 33.228 17.116Q32.796 17.116 32.382 17.512Q31.968 17.908 31.662 18.43Q31.356 18.952 31.14 19.492Q30.924 20.032 30.852 20.356Q30.744 20.896 30.708 21.652Q30.672 22.408 30.816 23.146Q30.96 23.884 31.374 24.478Q31.788 25.072 32.616 25.324Q33.12 25.468 33.804 25.306Q34.488 25.144 35.154 24.712Q35.82 24.28 36.414 23.56Q37.008 22.84 37.332 21.904Q37.692 20.86 37.35 19.726Q37.008 18.592 35.964 18.088Q35.712 18.268 35.46 18.268Q35.208 18.268 35.064 18.196ZM61.272 25.432Q61.524 26.008 61.542 26.674Q61.56 27.34 61.164 27.592Q60.66 27.916 60.084 27.556Q59.508 27.196 59.22 26.584Q58.824 25.828 58.608 24.73Q58.392 23.632 58.284 22.552Q58.176 21.472 58.158 20.536Q58.14 19.6 58.14 19.132Q58.176 18.628 58.428 18.196Q58.68 17.764 59.076 17.692Q59.724 17.728 60.12 18.286Q60.516 18.844 60.48 19.672Q60.48 20.32 60.516 21.112Q60.552 21.904 60.66 22.696Q60.768 23.488 60.912 24.226Q61.056 24.964 61.272 25.432Z" />
  </g>
  <g id="0" transform="translate(19 385)">
    <path d="M11.664 17.548Q11.664 18.376 11.394 19.582Q11.124 20.788 10.512 22.012Q9.9 23.236 8.91 24.316Q7.92 25.396 6.48 25.972Q5.58 26.368 4.698 26.386Q3.816 26.404 3.114 26.044Q2.412 25.684 1.944 24.946Q1.476 24.208 1.368 23.02Q1.26 21.616 1.602 20.194Q1.944 18.772 2.682 17.53Q3.42 16.288 4.464 15.316Q5.508 14.344 6.804 13.768Q7.092 13.624 7.362 13.786Q7.632 13.948 7.704 14.452Q9.576 14.632 10.62 15.442Q11.664 16.252 11.664 17.548ZM3.816 22.948Q3.888 23.452 4.104 23.668Q4.32 23.884 4.608 23.956Q4.896 23.992 5.256 23.884Q5.616 23.776 5.958 23.614Q6.3 23.452 6.588 23.254Q6.876 23.056 7.056 22.876Q8.064 21.94 8.676 20.59Q9.288 19.24 9.432 17.62Q9.432 17.404 9.144 17.188Q8.856 16.972 8.406 16.846Q7.956 16.72 7.416 16.648Q6.876 16.576 6.372 16.612Q5.832 17.224 5.328 17.944Q4.824 18.664 4.464 19.474Q4.104 20.284 3.924 21.166Q3.744 22.048 3.816 22.948Z" />
  </g>
  <g id="Stacking-Humble-Businesses" transform="translate(432 77)">
    <g id="Stacking-Humble">
      <path d="M172.962 11.248Q172.944 10.42 172.908 9.844Q172.8 9.268 172.404 8.944Q172.008 8.62 171.504 8.548Q171.288 8.548 170.982 8.656Q170.676 8.764 170.676 9.484Q170.604 13.66 171.072 17.71Q171.54 21.76 172.404 25.72Q172.188 25.9 171.882 26.098Q171.576 26.296 171.36 26.548Q171.144 26.8 171.072 27.106Q171 27.412 171.18 27.844Q171.396 28.132 172.08 28.276Q172.764 28.42 173.484 28.132Q173.988 27.808 175.122 27.052Q176.256 26.296 177.426 25.18Q178.596 24.064 179.478 22.624Q180.36 21.184 180.36 19.492Q180.36 18.7 180.108 17.854Q179.856 17.008 179.316 16.306Q178.776 15.604 177.948 15.208Q177.12 14.812 176.004 14.956Q175.284 15.064 174.582 15.532Q173.88 16 173.34 16.9Q173.196 16 173.124 15.01Q173.052 14.02 173.016 13.048Q172.98 12.076 172.962 11.248ZM10.386 13.066Q10.764 12.976 10.908 12.796Q11.124 12.508 11.142 12.184Q11.16 11.86 10.98 11.644Q10.152 10.672 8.82 10.006Q7.488 9.34 6.048 9.412Q5.004 9.484 4.14 9.88Q3.276 10.276 2.628 10.906Q1.98 11.536 1.62 12.31Q1.26 13.084 1.26 13.948Q1.26 14.776 1.638 15.64Q2.016 16.504 2.844 17.224Q4.572 18.484 6.246 19.456Q7.92 20.428 9.396 21.544Q10.368 22.228 10.746 23.074Q11.124 23.92 10.944 24.712Q10.8 25.468 10.224 26.062Q9.648 26.656 8.712 26.872Q7.488 27.16 6.372 26.818Q5.256 26.476 4.428 25.72Q4.14 25.54 3.6 25.666Q3.06 25.792 2.844 26.116Q2.7 26.332 2.88 26.836Q3.06 27.34 3.312 27.628Q4.32 28.744 5.778 29.14Q7.236 29.536 8.748 29.248Q10.476 28.924 11.79 27.754Q13.104 26.584 13.356 24.604Q13.356 23.596 13.104 22.804Q12.852 22.012 12.42 21.382Q11.988 20.752 11.412 20.248Q10.836 19.744 10.188 19.312Q9.684 18.988 9.018 18.556Q8.352 18.124 7.614 17.656Q6.876 17.188 6.12 16.702Q5.364 16.216 4.716 15.748Q3.708 15.028 3.474 14.182Q3.24 13.336 4.068 12.436Q4.5 11.968 5.094 11.716Q5.688 11.464 6.228 11.464Q6.66 11.464 7.128 11.608Q7.596 11.752 8.064 11.968Q8.532 12.184 8.928 12.418Q9.324 12.652 9.612 12.868Q10.008 13.156 10.386 13.066ZM185.904 11.284Q186.084 15.208 186.516 19.402Q186.948 23.596 187.452 27.412Q187.53 28.554 187.046 28.8914Q186.859 29.022 186.588 29.032Q186.372 29.032 186.156 28.87Q185.94 28.708 185.76 28.456Q185.58 28.204 185.418 27.916Q185.256 27.628 185.22 27.412Q184.932 25.576 184.68 23.524Q184.428 21.472 184.23 19.402Q184.032 17.332 183.888 15.352Q183.744 13.372 183.708 11.716Q183.78 10.852 183.96 10.258Q184.14 9.664 184.716 9.7Q185.328 9.736 185.598 10.186Q185.868 10.636 185.904 11.284ZM66.384 16.36Q66.528 16.324 66.816 16.306Q67.104 16.288 67.374 16.342Q67.644 16.396 67.842 16.522Q68.04 16.648 68.076 16.828Q68.148 17.26 67.95 17.602Q67.752 17.944 67.248 18.196Q65.88 18.844 64.404 19.654Q62.928 20.464 61.884 21.112Q62.532 21.544 63.378 22.084Q64.224 22.624 65.124 23.218Q66.024 23.812 66.924 24.478Q67.824 25.144 68.616 25.792Q69.0822 26.1883 69.0503 26.5393Q69.033 26.7304 68.868 26.908Q68.652 27.16 68.166 27.268Q67.68 27.376 67.248 27.16Q66.456 26.764 65.52 26.206Q64.584 25.648 63.612 25.054Q62.64 24.46 61.722 23.866Q60.804 23.272 60.048 22.768Q60.192 24.028 60.318 25.288Q60.444 26.548 60.552 27.808Q60.768 28.492 60.516 28.924Q60.264 29.356 59.688 29.32Q59.076 29.212 58.788 28.834Q58.5 28.456 58.356 27.844Q58.14 26.368 57.87 24.352Q57.6 22.336 57.312 20.176Q57.024 18.016 56.754 15.964Q56.484 13.912 56.268 12.328Q56.196 11.824 56.178 11.23Q56.16 10.636 56.556 10.456Q57.096 10.24 57.672 10.69Q58.248 11.14 58.536 12.04Q58.824 13.696 59.112 15.64Q59.4 17.584 59.688 19.744Q60.408 19.312 61.362 18.79Q62.316 18.268 63.27 17.782Q64.224 17.296 65.052 16.9Q65.88 16.504 66.384 16.36ZM25.38 18.808Q24.696 18.448 24.012 18.484Q23.4 18.52 22.734 18.538Q22.068 18.556 21.348 18.628Q21.456 17.008 21.582 15.46Q21.708 13.912 21.852 12.688Q21.852 12.256 21.294 11.914Q20.736 11.572 20.124 11.608Q19.872 11.608 19.656 11.932Q19.44 12.256 19.404 12.688Q19.296 13.984 19.152 15.568Q19.008 17.152 18.9 18.844Q17.1 19.024 15.624 19.276Q15.012 19.456 14.832 19.816Q14.652 20.176 14.652 20.392Q14.652 21.004 15.21 21.22Q15.768 21.436 16.236 21.436Q16.812 21.364 17.442 21.31Q18.072 21.256 18.756 21.184Q18.684 22.876 18.63 24.388Q18.576 25.9 18.648 27.052Q18.72 28.204 19.332 28.96Q19.944 29.716 21.132 29.608Q21.924 29.536 22.95 29.158Q23.976 28.78 24.984 28.276Q25.992 27.772 26.874 27.214Q27.756 26.656 28.296 26.224Q28.764 25.756 28.944 25.18Q29.124 24.604 29.052 24.208Q28.98 23.956 28.674 23.884Q28.368 23.812 28.008 23.992Q27.216 24.388 26.334 24.838Q25.452 25.288 24.534 25.702Q23.616 26.116 22.698 26.458Q21.78 26.8 20.988 26.944Q20.952 26.908 20.952 26.404Q20.952 25.9 20.988 25.09Q21.024 24.28 21.078 23.236Q21.132 22.192 21.204 21.004Q22.068 20.932 22.896 20.896Q23.724 20.86 24.444 20.86Q24.804 20.86 25.398 20.698Q25.992 20.536 26.064 19.924Q26.064 19.168 25.38 18.808ZM76.644 13.84Q77.076 13.804 77.148 13.444Q77.22 12.94 76.878 12.58Q76.536 12.22 75.96 12.04Q75.564 11.932 74.952 11.914Q74.34 11.896 73.674 11.968Q73.008 12.04 72.36 12.202Q71.712 12.364 71.244 12.58Q70.956 12.724 70.74 12.904Q70.524 13.084 70.524 13.372Q70.632 14.128 71.136 14.38Q71.64 14.632 72.072 14.488Q73.116 14.2 74.07 14.056Q75.024 13.912 75.924 13.876Q76.212 13.876 76.644 13.84ZM129.816 13.804Q130.32 16.72 130.572 19.618Q130.824 22.516 130.968 25.396Q131.004 25.72 130.896 25.954Q130.788 26.188 130.626 26.368Q130.464 26.548 130.302 26.656Q130.14 26.764 130.032 26.764Q129.636 26.764 129.258 26.386Q128.88 26.008 128.808 25.396L128.592 22.66Q128.484 21.292 128.34 19.924Q124.56 20.968 120.348 21.76L120.636 23.344Q120.78 24.136 120.96 24.928Q120.996 25.072 121.014 25.396Q121.032 25.72 120.978 26.08Q120.924 26.44 120.762 26.746Q120.6 27.052 120.276 27.196Q119.988 27.232 119.664 27.016Q119.34 26.8 119.232 26.584Q118.8 25.468 118.422 23.92Q118.044 22.372 117.774 20.662Q117.504 18.952 117.396 17.188Q117.288 15.424 117.36 13.804Q117.432 13.264 117.774 13.03Q118.116 12.796 118.404 12.796Q118.728 12.796 118.962 13.012Q119.196 13.228 119.34 13.552Q119.484 13.876 119.556 14.2Q119.628 14.524 119.628 14.74Q119.664 15.892 119.736 17.008Q119.808 18.124 119.988 19.24Q121.824 18.988 123.984 18.538Q126.144 18.088 128.052 17.512Q127.98 16.684 127.872 15.838Q127.764 14.992 127.656 14.164Q127.656 13.552 128.034 13.084Q128.412 12.616 128.808 12.616Q129.096 12.616 129.402 12.904Q129.708 13.192 129.816 13.804ZM39.528 14.812Q39.672 15.82 39.762 16.954Q39.852 18.088 39.906 19.24Q39.96 20.392 39.96 21.472Q39.96 22.552 39.924 23.416Q41.076 24.208 41.31 24.82Q41.544 25.432 41.364 25.9Q41.148 26.548 40.59 26.566Q40.032 26.584 39.312 26.188Q38.808 26.548 38.16 26.962Q37.512 27.376 36.792 27.754Q36.072 28.132 35.352 28.42Q34.632 28.708 34.02 28.816Q32.868 28.996 31.95 28.384Q31.032 27.772 30.708 26.548Q30.492 25.72 30.6 24.838Q30.708 23.956 31.14 23.146Q31.572 22.336 32.31 21.688Q33.048 21.04 34.056 20.68Q34.308 20.572 34.758 20.5Q35.208 20.428 35.694 20.446Q36.18 20.464 36.684 20.644Q37.188 20.824 37.62 21.256Q37.62 20.644 37.602 19.906Q37.584 19.168 37.548 18.412Q37.512 17.656 37.458 16.99Q37.404 16.324 37.332 15.856Q37.26 15.316 36.918 15.19Q36.576 15.064 36.072 15.244Q35.208 15.532 34.056 16.36Q32.904 17.188 31.86 18.124Q31.536 18.448 31.122 18.412Q30.708 18.376 30.42 18.088Q30.132 17.8 30.096 17.422Q30.06 17.044 30.384 16.612Q30.996 15.964 31.752 15.28Q32.508 14.596 33.336 14.038Q34.164 13.48 35.028 13.12Q35.892 12.76 36.756 12.724Q38.016 12.688 38.7 13.282Q39.384 13.876 39.528 14.812ZM82.116 16.252Q82.224 16.792 82.35 17.458Q82.476 18.124 82.62 18.826Q82.764 19.528 82.872 20.248Q82.98 20.968 83.052 21.616Q83.484 20.68 83.988 19.636Q84.492 18.592 85.086 17.71Q85.68 16.828 86.346 16.252Q87.012 15.676 87.804 15.676Q88.992 15.676 89.802 16.54Q90.612 17.404 91.17 18.682Q91.728 19.96 92.052 21.364Q92.376 22.768 92.592 23.848Q92.808 24.82 91.728 25.288Q91.224 25.54 90.972 25.36Q90.72 25.18 90.684 25Q90.504 24.568 90.234 23.488Q89.964 22.408 89.622 21.292Q89.28 20.176 88.848 19.348Q88.416 18.52 87.876 18.592Q87.228 18.628 86.724 19.564Q86.292 20.32 85.842 21.238Q85.392 22.156 84.96 23.11Q84.528 24.064 84.114 25.018Q83.7 25.972 83.34 26.764Q83.088 27.016 82.71 27.106Q82.332 27.196 81.936 27.052Q81.576 26.944 81.36 26.692Q81.144 26.44 81.144 26.188Q80.82 23.38 80.478 21.076Q80.136 18.772 79.596 16.36Q79.344 15.532 79.506 15.046Q79.668 14.56 80.568 14.668Q81.828 14.884 82.116 16.252ZM196.092 20.95Q197.712 20.5 199.116 19.672Q199.728 19.276 199.854 18.772Q199.98 18.268 199.692 17.584Q199.188 16.36 197.928 15.676Q196.668 14.992 195.12 15.1Q193.824 15.172 192.852 15.676Q191.88 16.18 191.232 16.954Q190.584 17.728 190.278 18.736Q189.972 19.744 190.08 20.86Q190.188 22.048 190.62 23.164Q191.052 24.28 191.88 25.108Q192.852 26.044 194.076 26.368Q195.3 26.692 196.452 26.476Q197.784 26.26 198.864 25.45Q199.944 24.64 200.52 23.488Q200.664 22.588 200.16 22.408Q199.98 22.336 199.62 22.426Q199.26 22.516 198.936 22.804Q198.612 23.092 198.18 23.38Q197.748 23.668 197.226 23.902Q196.704 24.136 196.11 24.244Q195.516 24.352 194.94 24.28Q193.968 24.136 193.32 23.398Q192.672 22.66 192.6 21.4Q194.472 21.4 196.092 20.95ZM150.552 16.504Q150.588 17.08 150.678 17.926Q150.768 18.772 150.876 19.69Q150.984 20.608 151.11 21.508Q151.236 22.408 151.344 23.164L152.316 21.22Q152.892 20.068 153.522 19.006Q154.152 17.944 154.818 17.206Q155.484 16.468 156.024 16.468Q156.6 16.468 157.086 17.026Q157.572 17.584 157.932 18.376Q158.292 19.168 158.562 20.068Q158.832 20.968 159.012 21.652Q159.156 21.184 159.39 20.59Q159.624 19.996 159.894 19.366Q160.164 18.736 160.506 18.124Q160.848 17.512 161.244 17.044Q161.712 16.54 162.252 16.306Q162.792 16.072 163.044 16.072Q163.368 16.072 163.818 16.27Q164.268 16.468 164.736 16.792Q165.204 17.116 165.618 17.566Q166.032 18.016 166.284 18.484Q166.788 19.456 167.094 20.608Q167.4 21.76 167.544 22.804Q167.688 23.848 167.742 24.658Q167.796 25.468 167.832 25.792Q167.832 26.26 167.724 26.494Q167.616 26.728 167.328 26.872Q166.932 27.052 166.644 26.998Q166.356 26.944 166.176 26.764Q165.996 26.584 165.888 26.35Q165.78 26.116 165.744 25.936Q165.636 25.108 165.51 24.244Q165.384 23.38 165.24 22.57Q165.096 21.76 164.898 21.058Q164.7 20.356 164.484 19.816Q164.412 19.672 164.25 19.438Q164.088 19.204 163.89 18.988Q163.692 18.772 163.512 18.628Q163.332 18.484 163.26 18.448Q162.9 18.448 162.504 19.114Q162.108 19.78 161.748 20.716Q161.388 21.652 161.082 22.678Q160.776 23.704 160.632 24.424Q160.632 25.36 160.272 25.81Q159.912 26.26 159.516 26.26Q159.12 26.26 158.67 25.954Q158.22 25.648 158.076 25.252Q157.86 24.676 157.608 23.956Q157.356 23.236 157.086 22.48Q156.816 21.724 156.546 21.004Q156.276 20.284 156.024 19.708Q155.52 20.392 155.034 21.22Q154.548 22.048 154.098 22.912Q153.648 23.776 153.234 24.622Q152.82 25.468 152.46 26.116Q152.208 26.512 151.92 26.818Q151.632 27.124 151.236 27.124Q150.948 27.124 150.624 26.854Q150.3 26.584 150.012 26.188Q149.724 25.792 149.49 25.288Q149.256 24.784 149.148 24.28Q148.86 22.732 148.662 20.878Q148.464 19.024 148.284 17.26Q148.248 16.648 148.446 16.126Q148.644 15.604 149.22 15.424Q149.832 15.316 150.156 15.604Q150.48 15.892 150.552 16.504ZM51.12 18.97Q51.48 19.024 51.732 18.88Q52.056 18.7 52.128 18.394Q52.2 18.088 52.128 17.8Q51.732 16.504 50.508 16.018Q49.284 15.532 47.952 15.748Q47.124 15.892 46.44 16.306Q45.756 16.72 45.198 17.296Q44.64 17.872 44.244 18.574Q43.848 19.276 43.632 19.96Q43.092 21.796 43.38 23.524Q43.668 25.252 45.036 26.188Q45.9 26.728 46.89 26.872Q47.88 27.016 48.888 26.854Q49.896 26.692 50.886 26.314Q51.876 25.936 52.776 25.432Q53.676 24.964 54.216 24.37Q54.756 23.776 54.396 23.2Q54.108 22.732 53.676 22.768Q53.244 22.804 52.74 23.02Q51.588 23.74 50.274 24.19Q48.96 24.64 47.916 24.604Q46.62 24.604 46.008 23.74Q45.396 22.876 45.576 21.616Q45.684 20.932 45.972 20.248Q46.26 19.564 46.71 19.006Q47.16 18.448 47.754 18.106Q48.348 17.764 49.104 17.764Q49.932 17.764 50.508 18.52Q50.76 18.916 51.12 18.97ZM136.296 19.618Q136.512 18.448 136.728 17.476Q136.872 16.9 136.422 16.36Q135.972 15.82 135.432 15.712Q135.144 15.64 134.928 15.874Q134.712 16.108 134.64 16.396Q134.46 17.08 134.226 18.16Q133.992 19.24 133.83 20.446Q133.668 21.652 133.65 22.876Q133.632 24.1 133.92 25.108Q134.676 27.628 136.116 27.808Q137.088 27.916 138.006 27.466Q138.924 27.016 139.77 26.206Q140.616 25.396 141.354 24.406Q142.092 23.416 142.632 22.444Q142.668 22.948 142.776 23.686Q142.884 24.424 143.01 25.234Q143.136 26.044 143.298 26.782Q143.46 27.52 143.64 28.024Q143.82 28.456 144.162 28.6Q144.504 28.744 144.828 28.672Q145.224 28.564 145.548 28.06Q145.872 27.556 145.764 27.16Q145.548 26.188 145.332 24.964Q145.116 23.74 144.918 22.444Q144.72 21.148 144.576 19.852Q144.432 18.556 144.36 17.476Q144.36 17.188 144.198 16.918Q144.036 16.648 143.838 16.45Q143.64 16.252 143.406 16.144Q143.172 16.036 142.992 16.072Q142.74 16.108 142.362 16.378Q141.984 16.648 141.984 16.936Q141.984 17.44 141.876 17.908Q141.768 18.376 141.624 18.808Q141.372 19.672 140.76 20.806Q140.148 21.94 139.392 22.912Q138.636 23.884 137.844 24.514Q137.052 25.144 136.44 25.036Q136.08 24.676 135.99 23.812Q135.9 22.948 135.99 21.868Q136.08 20.788 136.296 19.618ZM102.186 19.186Q101.916 18.592 101.628 18.196Q101.88 17.944 101.88 17.404Q101.88 16.864 101.484 16.576Q101.268 16.432 100.962 16.36Q100.656 16.288 100.332 16.27Q100.008 16.252 99.702 16.288Q99.396 16.324 99.216 16.36Q96.948 17.296 95.922 18.97Q94.896 20.644 94.824 22.804Q94.824 23.704 95.058 24.532Q95.292 25.36 95.688 25.99Q96.084 26.62 96.606 27.016Q97.128 27.412 97.74 27.448Q98.316 27.484 98.874 27.34Q99.432 27.196 99.9 26.944Q100.368 26.692 100.746 26.404Q101.124 26.116 101.376 25.864Q101.52 26.296 101.718 27.142Q101.916 27.988 102.042 28.924Q102.168 29.86 102.168 30.814Q102.168 31.768 101.916 32.416Q101.592 33.244 100.998 33.856Q100.404 34.468 99.684 34.9Q98.964 35.332 98.154 35.566Q97.344 35.8 96.588 35.872Q96.156 35.944 95.742 36.178Q95.328 36.412 95.364 36.808Q95.364 37.204 95.832 37.582Q96.3 37.96 96.732 37.996Q98.676 37.924 100.224 37.24Q101.772 36.556 102.816 35.404Q103.86 34.252 104.31 32.794Q104.76 31.336 104.544 29.752Q104.364 28.6 104.13 27.34Q103.896 26.08 103.626 24.856Q103.356 23.632 103.086 22.498Q102.816 21.364 102.6 20.392Q102.456 19.78 102.186 19.186ZM194.202 17.476Q194.616 17.296 194.976 17.224Q195.768 17.08 196.542 17.242Q197.316 17.404 197.604 18.088Q197.208 18.34 196.614 18.556Q196.02 18.772 195.318 18.934Q194.616 19.096 193.878 19.204Q193.14 19.312 192.528 19.312Q192.564 18.88 192.834 18.538Q193.104 18.196 193.446 17.926Q193.788 17.656 194.202 17.476ZM177.552 17.674Q178.164 18.16 178.164 19.384Q178.164 20.212 177.804 20.95Q177.444 21.688 176.886 22.336Q176.328 22.984 175.68 23.506Q175.032 24.028 174.456 24.424Q174.276 23.596 174.15 22.552Q174.024 21.508 173.952 20.608Q173.916 20.068 174.078 19.492Q174.24 18.916 174.564 18.448Q174.888 17.98 175.32 17.656Q175.752 17.332 176.292 17.26Q176.94 17.188 177.552 17.674ZM76.59 26.674Q76.572 26.008 76.32 25.432Q76.104 24.964 75.96 24.226Q75.816 23.488 75.708 22.696Q75.6 21.904 75.564 21.112Q75.528 20.32 75.528 19.672Q75.564 18.844 75.168 18.286Q74.772 17.728 74.124 17.692Q73.728 17.764 73.476 18.196Q73.224 18.628 73.188 19.132Q73.188 19.6 73.206 20.536Q73.224 21.472 73.332 22.552Q73.44 23.632 73.656 24.73Q73.872 25.828 74.268 26.584Q74.556 27.196 75.132 27.556Q75.708 27.916 76.212 27.592Q76.608 27.34 76.59 26.674ZM97.164 24.01Q97.092 23.524 97.092 23.128Q97.092 22.264 97.362 21.544Q97.632 20.824 98.028 20.23Q98.424 19.636 98.91 19.24Q99.396 18.844 99.828 18.628Q99.9 19.348 100.116 20.248Q100.332 21.148 100.512 21.976Q100.692 22.804 100.53 23.29Q100.368 23.776 99.864 24.172Q99.324 24.604 98.694 24.784Q98.064 24.964 97.632 24.712Q97.236 24.496 97.164 24.01ZM35.352 22.552Q34.884 22.66 34.362 23.002Q33.84 23.344 33.426 23.83Q33.012 24.316 32.814 24.91Q32.616 25.504 32.796 26.08Q32.868 26.296 33.102 26.404Q33.336 26.512 33.624 26.44Q34.488 26.26 35.586 25.738Q36.684 25.216 37.332 24.604Q37.332 24.388 37.116 24.046Q36.9 23.704 36.612 23.362Q36.324 23.02 35.982 22.768Q35.64 22.516 35.352 22.552Z" />
    </g>
    <g id="Businesses">
      <path d="M4.698 68.952Q5.076 69.348 5.436 69.492Q5.58 69.6 5.76 69.6Q6.12 69.96 6.732 69.96Q8.136 69.96 9.45 69.492Q10.764 69.024 11.79 68.196Q12.816 67.368 13.446 66.18Q14.076 64.992 14.076 63.552Q14.076 62.292 13.608 61.392Q13.14 60.492 12.402 59.934Q11.664 59.376 10.728 59.142Q9.792 58.908 8.892 58.98Q9.36 58.476 9.81 57.792Q10.26 57.108 10.512 56.352Q10.764 55.596 10.746 54.804Q10.728 54.012 10.296 53.292Q9.396 52.176 8.118 51.744Q6.84 51.312 5.472 51.312Q3.78 51.312 2.25 51.78Q0.72 52.248 -0.396 53.4Q-0.684 53.688 -0.864 54.048Q-1.044 54.408 -1.044 54.912Q-0.864 55.452 -0.342 55.578Q0.18 55.704 0.612 55.38Q1.548 54.624 2.682 54.102Q3.816 53.58 5.256 53.58Q6.3 53.58 7.128 53.904Q7.956 54.228 8.136 54.912Q8.28 55.524 8.082 56.154Q7.884 56.784 7.434 57.378Q6.984 57.972 6.3 58.476Q5.616 58.98 4.752 59.304Q4.536 58.332 4.32 57.504Q4.104 56.676 3.924 56.028Q3.528 55.236 2.592 55.344Q2.196 55.416 2.196 55.992Q2.232 56.532 2.34 57.432Q2.448 58.332 2.628 59.466Q2.808 60.6 3.006 61.842Q3.204 63.084 3.42 64.272Q3.636 65.46 3.852 66.504Q4.068 67.548 4.248 68.268Q4.32 68.556 4.698 68.952ZM48.924 54.84Q49.356 54.804 49.428 54.444Q49.5 53.94 49.158 53.58Q48.816 53.22 48.24 53.04Q47.844 52.932 47.232 52.914Q46.62 52.896 45.954 52.968Q45.288 53.04 44.64 53.202Q43.992 53.364 43.524 53.58Q43.236 53.724 43.02 53.904Q42.804 54.084 42.804 54.372Q42.912 55.128 43.416 55.38Q43.92 55.632 44.352 55.488Q45.396 55.2 46.35 55.056Q47.304 54.912 48.204 54.876Q48.492 54.876 48.924 54.84ZM37.908 58.368Q37.836 57.972 37.764 57.612Q37.692 57.252 37.404 57.144Q36.792 56.964 36.108 57.108Q35.424 57.252 34.848 57.558Q34.272 57.864 33.876 58.242Q33.48 58.62 33.444 58.908Q33.336 59.448 33.732 59.952Q34.128 60.456 34.884 60.96Q36.144 61.716 37.512 62.508Q38.88 63.3 39.816 64.128Q40.752 64.956 41.094 65.946Q41.436 66.936 40.932 68.196Q40.536 69.168 39.456 69.78Q38.376 70.392 37.08 70.734Q35.784 71.076 34.488 71.202Q33.192 71.328 32.292 71.328Q32.076 71.328 31.77 71.166Q31.464 71.004 31.194 70.788Q30.924 70.572 30.726 70.338Q30.528 70.104 30.528 69.924Q30.528 69.276 31.104 69.024Q31.68 68.772 32.292 68.772Q33.156 68.772 34.146 68.682Q35.136 68.592 36.036 68.394Q36.936 68.196 37.656 67.872Q38.376 67.548 38.664 67.044Q38.916 66.612 38.358 66.018Q37.8 65.424 36.882 64.776Q35.964 64.128 34.902 63.516Q33.84 62.904 33.084 62.4Q32.328 61.896 31.788 61.194Q31.248 60.492 31.104 59.448Q31.068 58.512 31.5 57.648Q31.932 56.784 32.634 56.118Q33.336 55.452 34.236 55.056Q35.136 54.66 36.036 54.66Q37.584 54.732 38.592 55.506Q39.6 56.28 39.78 57.792Q39.78 58.296 39.618 58.62Q39.456 58.944 39.06 59.016Q38.556 59.088 38.25 58.89Q37.944 58.692 37.908 58.368ZM86.724 58.368Q86.652 57.972 86.58 57.612Q86.508 57.252 86.22 57.144Q85.608 56.964 84.924 57.108Q84.24 57.252 83.664 57.558Q83.088 57.864 82.692 58.242Q82.296 58.62 82.26 58.908Q82.152 59.448 82.548 59.952Q82.944 60.456 83.7 60.96Q84.96 61.716 86.328 62.508Q87.696 63.3 88.632 64.128Q89.568 64.956 89.91 65.946Q90.252 66.936 89.748 68.196Q89.352 69.168 88.272 69.78Q87.192 70.392 85.896 70.734Q84.6 71.076 83.304 71.202Q82.008 71.328 81.108 71.328Q80.892 71.328 80.586 71.166Q80.28 71.004 80.01 70.788Q79.74 70.572 79.542 70.338Q79.344 70.104 79.344 69.924Q79.344 69.276 79.92 69.024Q80.496 68.772 81.108 68.772Q81.972 68.772 82.962 68.682Q83.952 68.592 84.852 68.394Q85.752 68.196 86.472 67.872Q87.192 67.548 87.48 67.044Q87.732 66.612 87.174 66.018Q86.616 65.424 85.698 64.776Q84.78 64.128 83.718 63.516Q82.656 62.904 81.9 62.4Q81.144 61.896 80.604 61.194Q80.064 60.492 79.92 59.448Q79.884 58.512 80.316 57.648Q80.748 56.784 81.45 56.118Q82.152 55.452 83.052 55.056Q83.952 54.66 84.852 54.66Q86.4 54.732 87.408 55.506Q88.416 56.28 88.596 57.792Q88.596 58.296 88.434 58.62Q88.272 58.944 87.876 59.016Q87.372 59.088 87.066 58.89Q86.76 58.692 86.724 58.368ZM98.784 57.612Q98.856 57.972 98.928 58.368Q98.964 58.692 99.27 58.89Q99.576 59.088 100.08 59.016Q100.476 58.944 100.638 58.62Q100.8 58.296 100.8 57.792Q100.62 56.28 99.612 55.506Q98.604 54.732 97.056 54.66Q96.156 54.66 95.256 55.056Q94.356 55.452 93.654 56.118Q92.952 56.784 92.52 57.648Q92.088 58.512 92.124 59.448Q92.268 60.492 92.808 61.194Q93.348 61.896 94.104 62.4Q94.86 62.904 95.922 63.516Q96.984 64.128 97.902 64.776Q98.82 65.424 99.378 66.018Q99.936 66.612 99.684 67.044Q99.396 67.548 98.676 67.872Q97.956 68.196 97.056 68.394Q96.156 68.592 95.166 68.682Q94.176 68.772 93.312 68.772Q92.7 68.772 92.124 69.024Q91.548 69.276 91.548 69.924Q91.548 70.104 91.746 70.338Q91.944 70.572 92.214 70.788Q92.484 71.004 92.79 71.166Q93.096 71.328 93.312 71.328Q94.212 71.328 95.508 71.202Q96.804 71.076 98.1 70.734Q99.396 70.392 100.476 69.78Q101.556 69.168 101.952 68.196Q102.456 66.936 102.114 65.946Q101.772 64.956 100.836 64.128Q99.9 63.3 98.532 62.508Q97.164 61.716 95.904 60.96Q95.148 60.456 94.752 59.952Q94.356 59.448 94.464 58.908Q94.5 58.62 94.896 58.242Q95.292 57.864 95.868 57.558Q96.444 57.252 97.128 57.108Q97.812 56.964 98.424 57.144Q98.712 57.252 98.784 57.612ZM123.624 57.612Q123.696 57.972 123.768 58.368Q123.804 58.692 124.11 58.89Q124.416 59.088 124.92 59.016Q125.316 58.944 125.478 58.62Q125.64 58.296 125.64 57.792Q125.46 56.28 124.452 55.506Q123.444 54.732 121.896 54.66Q120.996 54.66 120.096 55.056Q119.196 55.452 118.494 56.118Q117.792 56.784 117.36 57.648Q116.928 58.512 116.964 59.448Q117.108 60.492 117.648 61.194Q118.188 61.896 118.944 62.4Q119.7 62.904 120.762 63.516Q121.824 64.128 122.742 64.776Q123.66 65.424 124.218 66.018Q124.776 66.612 124.524 67.044Q124.236 67.548 123.516 67.872Q122.796 68.196 121.896 68.394Q120.996 68.592 120.006 68.682Q119.016 68.772 118.152 68.772Q117.54 68.772 116.964 69.024Q116.388 69.276 116.388 69.924Q116.388 70.104 116.586 70.338Q116.784 70.572 117.054 70.788Q117.324 71.004 117.63 71.166Q117.936 71.328 118.152 71.328Q119.052 71.328 120.348 71.202Q121.644 71.076 122.94 70.734Q124.236 70.392 125.316 69.78Q126.396 69.168 126.792 68.196Q127.296 66.936 126.954 65.946Q126.612 64.956 125.676 64.128Q124.74 63.3 123.372 62.508Q122.004 61.716 120.744 60.96Q119.988 60.456 119.592 59.952Q119.196 59.448 119.304 58.908Q119.34 58.62 119.736 58.242Q120.132 57.864 120.708 57.558Q121.284 57.252 121.968 57.108Q122.652 56.964 123.264 57.144Q123.552 57.252 123.624 57.612ZM54.396 57.252Q54.504 57.792 54.63 58.458Q54.756 59.124 54.9 59.826Q55.044 60.528 55.152 61.248Q55.26 61.968 55.332 62.616Q55.764 61.68 56.268 60.636Q56.772 59.592 57.366 58.71Q57.96 57.828 58.626 57.252Q59.292 56.676 60.084 56.676Q61.272 56.676 62.082 57.54Q62.892 58.404 63.45 59.682Q64.008 60.96 64.332 62.364Q64.656 63.768 64.872 64.848Q65.088 65.82 64.008 66.288Q63.504 66.54 63.252 66.36Q63 66.18 62.964 66Q62.784 65.568 62.514 64.488Q62.244 63.408 61.902 62.292Q61.56 61.176 61.128 60.348Q60.696 59.52 60.156 59.592Q59.508 59.628 59.004 60.564Q58.572 61.32 58.122 62.238Q57.672 63.156 57.24 64.11Q56.808 65.064 56.394 66.018Q55.98 66.972 55.62 67.764Q55.368 68.016 54.99 68.106Q54.612 68.196 54.216 68.052Q53.856 67.944 53.64 67.692Q53.424 67.44 53.424 67.188Q53.1 64.38 52.758 62.076Q52.416 59.772 51.876 57.36Q51.624 56.532 51.786 56.046Q51.948 55.56 52.848 55.668Q54.108 55.884 54.396 57.252ZM73.044 61.95Q74.664 61.5 76.068 60.672Q76.68 60.276 76.806 59.772Q76.932 59.268 76.644 58.584Q76.14 57.36 74.88 56.676Q73.62 55.992 72.072 56.1Q70.776 56.172 69.804 56.676Q68.832 57.18 68.184 57.954Q67.536 58.728 67.23 59.736Q66.924 60.744 67.032 61.86Q67.14 63.048 67.572 64.164Q68.004 65.28 68.832 66.108Q69.804 67.044 71.028 67.368Q72.252 67.692 73.404 67.476Q74.736 67.26 75.816 66.45Q76.896 65.64 77.472 64.488Q77.616 63.588 77.112 63.408Q76.932 63.336 76.572 63.426Q76.212 63.516 75.888 63.804Q75.564 64.092 75.132 64.38Q74.7 64.668 74.178 64.902Q73.656 65.136 73.062 65.244Q72.468 65.352 71.892 65.28Q70.92 65.136 70.272 64.398Q69.624 63.66 69.552 62.4Q71.424 62.4 73.044 61.95ZM113.112 60.672Q111.708 61.5 110.088 61.95Q108.468 62.4 106.596 62.4Q106.668 63.66 107.316 64.398Q107.964 65.136 108.936 65.28Q109.512 65.352 110.106 65.244Q110.7 65.136 111.222 64.902Q111.744 64.668 112.176 64.38Q112.608 64.092 112.932 63.804Q113.256 63.516 113.616 63.426Q113.976 63.336 114.156 63.408Q114.66 63.588 114.516 64.488Q113.94 65.64 112.86 66.45Q111.78 67.26 110.448 67.476Q109.296 67.692 108.072 67.368Q106.848 67.044 105.876 66.108Q105.048 65.28 104.616 64.164Q104.184 63.048 104.076 61.86Q103.968 60.744 104.274 59.736Q104.58 58.728 105.228 57.954Q105.876 57.18 106.848 56.676Q107.82 56.172 109.116 56.1Q110.664 55.992 111.924 56.676Q113.184 57.36 113.688 58.584Q113.976 59.268 113.85 59.772Q113.724 60.276 113.112 60.672ZM19.08 60.618Q19.296 59.448 19.512 58.476Q19.656 57.9 19.206 57.36Q18.756 56.82 18.216 56.712Q17.928 56.64 17.712 56.874Q17.496 57.108 17.424 57.396Q17.244 58.08 17.01 59.16Q16.776 60.24 16.614 61.446Q16.452 62.652 16.434 63.876Q16.416 65.1 16.704 66.108Q17.46 68.628 18.9 68.808Q19.872 68.916 20.79 68.466Q21.708 68.016 22.554 67.206Q23.4 66.396 24.138 65.406Q24.876 64.416 25.416 63.444Q25.452 63.948 25.56 64.686Q25.668 65.424 25.794 66.234Q25.92 67.044 26.082 67.782Q26.244 68.52 26.424 69.024Q26.604 69.456 26.946 69.6Q27.288 69.744 27.612 69.672Q28.008 69.564 28.332 69.06Q28.656 68.556 28.548 68.16Q28.332 67.188 28.116 65.964Q27.9 64.74 27.702 63.444Q27.504 62.148 27.36 60.852Q27.216 59.556 27.144 58.476Q27.144 58.188 26.982 57.918Q26.82 57.648 26.622 57.45Q26.424 57.252 26.19 57.144Q25.956 57.036 25.776 57.072Q25.524 57.108 25.146 57.378Q24.768 57.648 24.768 57.936Q24.768 58.44 24.66 58.908Q24.552 59.376 24.408 59.808Q24.156 60.672 23.544 61.806Q22.932 62.94 22.176 63.912Q21.42 64.884 20.628 65.514Q19.836 66.144 19.224 66.036Q18.864 65.676 18.774 64.812Q18.684 63.948 18.774 62.868Q18.864 61.788 19.08 60.618ZM71.154 58.476Q71.568 58.296 71.928 58.224Q72.72 58.08 73.494 58.242Q74.268 58.404 74.556 59.088Q74.16 59.34 73.566 59.556Q72.972 59.772 72.27 59.934Q71.568 60.096 70.83 60.204Q70.092 60.312 69.48 60.312Q69.516 59.88 69.786 59.538Q70.056 59.196 70.398 58.926Q70.74 58.656 71.154 58.476ZM108.972 58.224Q108.612 58.296 108.198 58.476Q107.784 58.656 107.442 58.926Q107.1 59.196 106.83 59.538Q106.56 59.88 106.524 60.312Q107.136 60.312 107.874 60.204Q108.612 60.096 109.314 59.934Q110.016 59.772 110.61 59.556Q111.204 59.34 111.6 59.088Q111.312 58.404 110.538 58.242Q109.764 58.08 108.972 58.224ZM48.87 67.674Q48.852 67.008 48.6 66.432Q48.384 65.964 48.24 65.226Q48.096 64.488 47.988 63.696Q47.88 62.904 47.844 62.112Q47.808 61.32 47.808 60.672Q47.844 59.844 47.448 59.286Q47.052 58.728 46.404 58.692Q46.008 58.764 45.756 59.196Q45.504 59.628 45.468 60.132Q45.468 60.6 45.486 61.536Q45.504 62.472 45.612 63.552Q45.72 64.632 45.936 65.73Q46.152 66.828 46.548 67.584Q46.836 68.196 47.412 68.556Q47.988 68.916 48.492 68.592Q48.888 68.34 48.87 67.674ZM5.832 64.848Q5.58 63.336 5.292 61.932Q6.408 61.68 7.506 61.554Q8.604 61.428 9.522 61.572Q10.44 61.716 11.088 62.184Q11.736 62.652 11.916 63.552Q11.952 64.56 11.412 65.37Q10.872 66.18 10.044 66.738Q9.216 67.296 8.262 67.584Q7.308 67.872 6.516 67.872L6.372 67.872Q6.084 66.36 5.832 64.848Z" />
    </g>
  </g>
</svg>