<?xml version="1.0" encoding="utf-8"?>
<svg width="1545px" height="491px" viewBox="0 0 1545 491" version="1.1" xmlns:xlink="http://www.w3.org/1999/xlink" xmlns="http://www.w3.org/2000/svg">
  <desc>Created with Lunacy</desc>
  <path d="M0 306.5C0 306.5 465 309 502 306C507.669 305.54 585 294 604 0" transform="translate(79.00009 95)" id="New-shape" fill="none" stroke="#727272" stroke-width="3" stroke-dasharray="6 8" />
  <path d="M0 0L1.72296 352L653 353" transform="translate(46 72)" id="New-shape-2" fill="none" stroke="#2C2C2C" stroke-width="3" />
  <path d="M0 29L19 0L34 29" transform="translate(27 42)" id="New-shape-3" fill="none" stroke="#2C2C2C" stroke-width="3" />
  <path d="M0 0L32 17.2174L0 33" transform="translate(701 411)" id="New-shape-4" fill="none" stroke="#2C2C2C" stroke-width="3" />
  <path d="M0 1L27 1" transform="translate(35 400)" id="New-shape-5" fill="none" stroke="#2C2C2C" stroke-width="3" />
  <g id="time" transform="translate(685 445)">
    <path d="M11.016 18.808Q10.332 18.448 9.648 18.484Q9.036 18.52 8.37 18.538Q7.704 18.556 6.984 18.628Q7.092 17.008 7.218 15.46Q7.344 13.912 7.488 12.688Q7.488 12.256 6.93 11.914Q6.372 11.572 5.76 11.608Q5.508 11.608 5.292 11.932Q5.076 12.256 5.04 12.688Q4.932 13.984 4.788 15.568Q4.644 17.152 4.536 18.844Q2.736 19.024 1.26 19.276Q0.648 19.456 0.468 19.816Q0.288 20.176 0.288 20.392Q0.288 21.004 0.846 21.22Q1.404 21.436 1.872 21.436Q2.448 21.364 3.078 21.31Q3.708 21.256 4.392 21.184Q4.32 22.876 4.266 24.388Q4.212 25.9 4.284 27.052Q4.356 28.204 4.968 28.96Q5.58 29.716 6.768 29.608Q7.56 29.536 8.586 29.158Q9.612 28.78 10.62 28.276Q11.628 27.772 12.51 27.214Q13.392 26.656 13.932 26.224Q14.4 25.756 14.58 25.18Q14.76 24.604 14.688 24.208Q14.616 23.956 14.31 23.884Q14.004 23.812 13.644 23.992Q12.852 24.388 11.97 24.838Q11.088 25.288 10.17 25.702Q9.252 26.116 8.334 26.458Q7.416 26.8 6.624 26.944Q6.588 26.908 6.588 26.404Q6.588 25.9 6.624 25.09Q6.66 24.28 6.714 23.236Q6.768 22.192 6.84 21.004Q7.704 20.932 8.532 20.896Q9.36 20.86 10.08 20.86Q10.44 20.86 11.034 20.698Q11.628 20.536 11.7 19.924Q11.7 19.168 11.016 18.808ZM21.708 13.84Q22.14 13.804 22.212 13.444Q22.284 12.94 21.942 12.58Q21.6 12.22 21.024 12.04Q20.628 11.932 20.016 11.914Q19.404 11.896 18.738 11.968Q18.072 12.04 17.424 12.202Q16.776 12.364 16.308 12.58Q16.02 12.724 15.804 12.904Q15.588 13.084 15.588 13.372Q15.696 14.128 16.2 14.38Q16.704 14.632 17.136 14.488Q18.18 14.2 19.134 14.056Q20.088 13.912 20.988 13.876Q21.276 13.876 21.708 13.84ZM52.92 20.95Q54.54 20.5 55.944 19.672Q56.556 19.276 56.682 18.772Q56.808 18.268 56.52 17.584Q56.016 16.36 54.756 15.676Q53.496 14.992 51.948 15.1Q50.652 15.172 49.68 15.676Q48.708 16.18 48.06 16.954Q47.412 17.728 47.106 18.736Q46.8 19.744 46.908 20.86Q47.016 22.048 47.448 23.164Q47.88 24.28 48.708 25.108Q49.68 26.044 50.904 26.368Q52.128 26.692 53.28 26.476Q54.612 26.26 55.692 25.45Q56.772 24.64 57.348 23.488Q57.492 22.588 56.988 22.408Q56.808 22.336 56.448 22.426Q56.088 22.516 55.764 22.804Q55.44 23.092 55.008 23.38Q54.576 23.668 54.054 23.902Q53.532 24.136 52.938 24.244Q52.344 24.352 51.768 24.28Q50.796 24.136 50.148 23.398Q49.5 22.66 49.428 21.4Q51.3 21.4 52.92 20.95ZM27.036 16.504Q27.072 17.08 27.162 17.926Q27.252 18.772 27.36 19.69Q27.468 20.608 27.594 21.508Q27.72 22.408 27.828 23.164L28.8 21.22Q29.376 20.068 30.006 19.006Q30.636 17.944 31.302 17.206Q31.968 16.468 32.508 16.468Q33.084 16.468 33.57 17.026Q34.056 17.584 34.416 18.376Q34.776 19.168 35.046 20.068Q35.316 20.968 35.496 21.652Q35.64 21.184 35.874 20.59Q36.108 19.996 36.378 19.366Q36.648 18.736 36.99 18.124Q37.332 17.512 37.728 17.044Q38.196 16.54 38.736 16.306Q39.276 16.072 39.528 16.072Q39.852 16.072 40.302 16.27Q40.752 16.468 41.22 16.792Q41.688 17.116 42.102 17.566Q42.516 18.016 42.768 18.484Q43.272 19.456 43.578 20.608Q43.884 21.76 44.028 22.804Q44.172 23.848 44.226 24.658Q44.28 25.468 44.316 25.792Q44.316 26.26 44.208 26.494Q44.1 26.728 43.812 26.872Q43.416 27.052 43.128 26.998Q42.84 26.944 42.66 26.764Q42.48 26.584 42.372 26.35Q42.264 26.116 42.228 25.936Q42.12 25.108 41.994 24.244Q41.868 23.38 41.724 22.57Q41.58 21.76 41.382 21.058Q41.184 20.356 40.968 19.816Q40.896 19.672 40.734 19.438Q40.572 19.204 40.374 18.988Q40.176 18.772 39.996 18.628Q39.816 18.484 39.744 18.448Q39.384 18.448 38.988 19.114Q38.592 19.78 38.232 20.716Q37.872 21.652 37.566 22.678Q37.26 23.704 37.116 24.424Q37.116 25.36 36.756 25.81Q36.396 26.26 36 26.26Q35.604 26.26 35.154 25.954Q34.704 25.648 34.56 25.252Q34.344 24.676 34.092 23.956Q33.84 23.236 33.57 22.48Q33.3 21.724 33.03 21.004Q32.76 20.284 32.508 19.708Q32.004 20.392 31.518 21.22Q31.032 22.048 30.582 22.912Q30.132 23.776 29.718 24.622Q29.304 25.468 28.944 26.116Q28.692 26.512 28.404 26.818Q28.116 27.124 27.72 27.124Q27.432 27.124 27.108 26.854Q26.784 26.584 26.496 26.188Q26.208 25.792 25.974 25.288Q25.74 24.784 25.632 24.28Q25.344 22.732 25.146 20.878Q24.948 19.024 24.768 17.26Q24.732 16.648 24.93 16.126Q25.128 15.604 25.704 15.424Q26.316 15.316 26.64 15.604Q26.964 15.892 27.036 16.504ZM51.03 17.476Q51.444 17.296 51.804 17.224Q52.596 17.08 53.37 17.242Q54.144 17.404 54.432 18.088Q54.036 18.34 53.442 18.556Q52.848 18.772 52.146 18.934Q51.444 19.096 50.706 19.204Q49.968 19.312 49.356 19.312Q49.392 18.88 49.662 18.538Q49.932 18.196 50.274 17.926Q50.616 17.656 51.03 17.476ZM21.654 26.674Q21.636 26.008 21.384 25.432Q21.168 24.964 21.024 24.226Q20.88 23.488 20.772 22.696Q20.664 21.904 20.628 21.112Q20.592 20.32 20.592 19.672Q20.628 18.844 20.232 18.286Q19.836 17.728 19.188 17.692Q18.792 17.764 18.54 18.196Q18.288 18.628 18.252 19.132Q18.252 19.6 18.27 20.536Q18.288 21.472 18.396 22.552Q18.504 23.632 18.72 24.73Q18.936 25.828 19.332 26.584Q19.62 27.196 20.196 27.556Q20.772 27.916 21.276 27.592Q21.672 27.34 21.654 26.674Z" />
  </g>
  <g id="profit">
    <path d="M42.786 21.472Q43.452 21.652 43.956 21.58Q44.568 21.508 45.144 21.454Q45.72 21.4 46.296 21.328L47.808 25.72Q47.844 25.864 47.934 26.242Q48.024 26.62 48.078 27.106Q48.132 27.592 48.132 28.168Q48.132 28.744 48.06 29.32Q47.988 29.824 48.096 30.112Q48.204 30.4 48.6 30.58Q49.104 30.76 49.536 30.256Q49.968 29.752 50.256 28.924Q50.436 28.348 50.544 27.736Q50.652 27.124 50.508 26.584Q50.22 25.612 49.734 24.154Q49.248 22.696 48.672 21.076Q49.536 21.004 50.328 20.914Q51.12 20.824 51.84 20.752Q52.164 20.716 52.506 20.644Q52.848 20.572 53.118 20.41Q53.388 20.248 53.532 20.014Q53.676 19.78 53.568 19.42Q53.136 18.988 52.452 18.772Q51.768 18.556 50.976 18.484Q49.536 18.412 47.808 18.592Q47.412 17.44 47.088 16.396Q46.764 15.352 46.512 14.452Q46.224 13.372 46.278 12.652Q46.332 11.932 46.584 11.482Q46.836 11.032 47.178 10.816Q47.52 10.6 47.772 10.564Q48.312 10.492 48.78 10.654Q49.248 10.816 49.662 11.122Q50.076 11.428 50.454 11.842Q50.832 12.256 51.156 12.652Q51.3 12.832 51.732 12.886Q52.164 12.94 52.524 12.58Q52.776 12.328 52.758 12.022Q52.74 11.716 52.596 11.32Q52.2 10.456 51.552 9.808Q50.904 9.16 50.112 8.764Q49.32 8.368 48.438 8.296Q47.556 8.224 46.656 8.512Q44.46 9.232 43.992 10.888Q43.524 12.544 44.136 14.848L45.468 18.88Q44.712 18.988 43.974 19.114Q43.236 19.24 42.588 19.384Q41.904 19.528 41.832 19.87Q41.76 20.212 41.868 20.572Q42.12 21.292 42.786 21.472ZM74.304 18.808Q73.62 18.448 72.936 18.484Q72.324 18.52 71.658 18.538Q70.992 18.556 70.272 18.628Q70.38 17.008 70.506 15.46Q70.632 13.912 70.776 12.688Q70.776 12.256 70.218 11.914Q69.66 11.572 69.048 11.608Q68.796 11.608 68.58 11.932Q68.364 12.256 68.328 12.688Q68.22 13.984 68.076 15.568Q67.932 17.152 67.824 18.844Q66.024 19.024 64.548 19.276Q63.936 19.456 63.756 19.816Q63.576 20.176 63.576 20.392Q63.576 21.004 64.134 21.22Q64.692 21.436 65.16 21.436Q65.736 21.364 66.366 21.31Q66.996 21.256 67.68 21.184Q67.608 22.876 67.554 24.388Q67.5 25.9 67.572 27.052Q67.644 28.204 68.256 28.96Q68.868 29.716 70.056 29.608Q70.848 29.536 71.874 29.158Q72.9 28.78 73.908 28.276Q74.916 27.772 75.798 27.214Q76.68 26.656 77.22 26.224Q77.688 25.756 77.868 25.18Q78.048 24.604 77.976 24.208Q77.904 23.956 77.598 23.884Q77.292 23.812 76.932 23.992Q76.14 24.388 75.258 24.838Q74.376 25.288 73.458 25.702Q72.54 26.116 71.622 26.458Q70.704 26.8 69.912 26.944Q69.876 26.908 69.876 26.404Q69.876 25.9 69.912 25.09Q69.948 24.28 70.002 23.236Q70.056 22.192 70.128 21.004Q70.992 20.932 71.82 20.896Q72.648 20.86 73.368 20.86Q73.728 20.86 74.322 20.698Q74.916 20.536 74.988 19.924Q74.988 19.168 74.304 18.808ZM62.1 13.444Q62.028 13.804 61.596 13.84Q61.164 13.876 60.876 13.876Q59.976 13.912 59.022 14.056Q58.068 14.2 57.024 14.488Q56.592 14.632 56.088 14.38Q55.584 14.128 55.476 13.372Q55.476 13.084 55.692 12.904Q55.908 12.724 56.196 12.58Q56.664 12.364 57.312 12.202Q57.96 12.04 58.626 11.968Q59.292 11.896 59.904 11.914Q60.516 11.932 60.912 12.04Q61.488 12.22 61.83 12.58Q62.172 12.94 62.1 13.444ZM7.236 32.794Q7.56 32.452 7.596 32.056Q7.632 30.616 7.56 28.708Q7.488 26.8 7.308 24.856Q8.496 24.136 9.666 23.218Q10.836 22.3 11.646 21.166Q12.456 20.032 12.726 18.646Q12.996 17.26 12.384 15.604Q11.88 14.596 11.07 14.074Q10.26 13.552 9.252 13.39Q8.244 13.228 7.146 13.354Q6.048 13.48 4.986 13.786Q3.924 14.092 2.97 14.506Q2.016 14.92 1.332 15.316Q0.54 15.82 0.162 16.396Q-0.216 16.972 0.108 17.692Q0.252 17.98 0.738 18.034Q1.224 18.088 1.728 17.8Q2.484 17.404 3.294 17.008Q4.104 16.612 4.95 16.324Q5.796 16.036 6.678 15.856Q7.56 15.676 8.46 15.712Q9.468 15.748 9.936 16.234Q10.404 16.72 10.476 17.332Q10.584 18.052 10.332 18.718Q10.08 19.384 9.594 19.996Q9.108 20.608 8.442 21.148Q7.776 21.688 7.02 22.156Q6.912 21.112 6.786 20.23Q6.66 19.348 6.552 18.664Q6.336 17.944 5.742 17.476Q5.148 17.008 4.68 17.188Q4.392 17.332 4.284 17.494Q4.176 17.656 4.104 17.836Q4.032 18.016 4.068 18.232Q4.248 19.456 4.41 20.752Q4.572 22.048 4.752 23.38Q4.032 23.812 3.708 24.28Q3.384 24.748 3.636 25.36Q3.78 25.72 4.158 25.882Q4.536 26.044 5.004 25.972Q5.112 27.556 5.184 29.05Q5.256 30.544 5.256 31.912Q5.256 32.2 5.58 32.632Q5.904 33.064 6.516 33.1Q6.912 33.136 7.236 32.794ZM24.642 16.468Q25.344 16.072 25.992 15.712Q26.46 15.388 26.55 14.992Q26.64 14.596 26.496 14.416Q26.352 14.236 25.992 14.164Q25.632 14.092 25.092 14.164Q23.832 14.38 22.626 15.028Q21.42 15.676 20.466 16.612Q19.512 17.548 18.864 18.7Q18.216 19.852 18.072 21.076Q17.856 20.032 17.64 18.574Q17.424 17.116 17.28 15.784Q17.208 15.388 16.812 15.208Q16.416 15.028 15.984 14.992Q15.588 14.956 15.282 15.1Q14.976 15.244 14.976 15.748Q15.264 18.232 15.66 20.734Q16.056 23.236 16.668 25.792Q16.812 26.44 17.226 27.142Q17.64 27.844 18.324 27.844Q18.864 27.844 19.17 27.178Q19.476 26.512 19.476 25.864Q19.548 24.496 19.8 23.074Q20.052 21.652 20.772 20.284Q21.276 19.312 21.906 18.61Q22.536 17.908 23.238 17.386Q23.94 16.864 24.642 16.468ZM36.432 15.568Q37.512 15.964 38.25 16.756Q38.988 17.548 39.384 18.538Q39.78 19.528 39.834 20.572Q39.888 21.616 39.6 22.516Q39.204 23.524 38.592 24.496Q37.98 25.468 37.188 26.224Q36.396 26.98 35.388 27.448Q34.38 27.916 33.156 27.916Q31.68 27.916 30.672 27.232Q29.664 26.548 29.088 25.468Q28.512 24.388 28.35 23.02Q28.188 21.652 28.404 20.284Q28.548 19.276 28.89 18.322Q29.232 17.368 29.772 16.63Q30.312 15.892 31.014 15.424Q31.716 14.956 32.616 14.956Q33.12 14.956 33.876 15.154Q34.632 15.352 35.28 15.712Q35.748 15.28 36.432 15.568ZM35.064 18.196Q34.668 17.944 34.146 17.53Q33.624 17.116 33.228 17.116Q32.796 17.116 32.382 17.512Q31.968 17.908 31.662 18.43Q31.356 18.952 31.14 19.492Q30.924 20.032 30.852 20.356Q30.744 20.896 30.708 21.652Q30.672 22.408 30.816 23.146Q30.96 23.884 31.374 24.478Q31.788 25.072 32.616 25.324Q33.12 25.468 33.804 25.306Q34.488 25.144 35.154 24.712Q35.82 24.28 36.414 23.56Q37.008 22.84 37.332 21.904Q37.692 20.86 37.35 19.726Q37.008 18.592 35.964 18.088Q35.712 18.268 35.46 18.268Q35.208 18.268 35.064 18.196ZM61.272 25.432Q61.524 26.008 61.542 26.674Q61.56 27.34 61.164 27.592Q60.66 27.916 60.084 27.556Q59.508 27.196 59.22 26.584Q58.824 25.828 58.608 24.73Q58.392 23.632 58.284 22.552Q58.176 21.472 58.158 20.536Q58.14 19.6 58.14 19.132Q58.176 18.628 58.428 18.196Q58.68 17.764 59.076 17.692Q59.724 17.728 60.12 18.286Q60.516 18.844 60.48 19.672Q60.48 20.32 60.516 21.112Q60.552 21.904 60.66 22.696Q60.768 23.488 60.912 24.226Q61.056 24.964 61.272 25.432Z" />
  </g>
  <g id="0" transform="translate(17 379)">
    <path d="M11.664 17.548Q11.664 18.376 11.394 19.582Q11.124 20.788 10.512 22.012Q9.9 23.236 8.91 24.316Q7.92 25.396 6.48 25.972Q5.58 26.368 4.698 26.386Q3.816 26.404 3.114 26.044Q2.412 25.684 1.944 24.946Q1.476 24.208 1.368 23.02Q1.26 21.616 1.602 20.194Q1.944 18.772 2.682 17.53Q3.42 16.288 4.464 15.316Q5.508 14.344 6.804 13.768Q7.092 13.624 7.362 13.786Q7.632 13.948 7.704 14.452Q9.576 14.632 10.62 15.442Q11.664 16.252 11.664 17.548ZM3.816 22.948Q3.888 23.452 4.104 23.668Q4.32 23.884 4.608 23.956Q4.896 23.992 5.256 23.884Q5.616 23.776 5.958 23.614Q6.3 23.452 6.588 23.254Q6.876 23.056 7.056 22.876Q8.064 21.94 8.676 20.59Q9.288 19.24 9.432 17.62Q9.432 17.404 9.144 17.188Q8.856 16.972 8.406 16.846Q7.956 16.72 7.416 16.648Q6.876 16.576 6.372 16.612Q5.832 17.224 5.328 17.944Q4.824 18.664 4.464 19.474Q4.104 20.284 3.924 21.166Q3.744 22.048 3.816 22.948Z" />
  </g>
  <path d="M0 232.499C0 232.499 528 12 602.004 0" transform="translate(873.9965 171.5)" id="New-shape-12" fill="none" stroke="#727272" stroke-width="3" stroke-dasharray="6 8" />
  <path d="M0 0L1.72296 352L653 353" transform="translate(848 77)" id="New-shape-13" fill="none" stroke="#2C2C2C" stroke-width="3" />
  <path d="M0 29L19 0L34 29" transform="translate(829 47)" id="New-shape-14" fill="none" stroke="#2C2C2C" stroke-width="3" />
  <path d="M0 0L32 17.2174L0 33" transform="translate(1503 416)" id="New-shape-15" fill="none" stroke="#2C2C2C" stroke-width="3" />
  <path d="M0 1L27 1" transform="translate(837 405)" id="New-shape-16" fill="none" stroke="#2C2C2C" stroke-width="3" />
  <g id="time" transform="translate(1487 450)">
    <path d="M11.016 18.808Q10.332 18.448 9.648 18.484Q9.036 18.52 8.37 18.538Q7.704 18.556 6.984 18.628Q7.092 17.008 7.218 15.46Q7.344 13.912 7.488 12.688Q7.488 12.256 6.93 11.914Q6.372 11.572 5.76 11.608Q5.508 11.608 5.292 11.932Q5.076 12.256 5.04 12.688Q4.932 13.984 4.788 15.568Q4.644 17.152 4.536 18.844Q2.736 19.024 1.26 19.276Q0.648 19.456 0.468 19.816Q0.288 20.176 0.288 20.392Q0.288 21.004 0.846 21.22Q1.404 21.436 1.872 21.436Q2.448 21.364 3.078 21.31Q3.708 21.256 4.392 21.184Q4.32 22.876 4.266 24.388Q4.212 25.9 4.284 27.052Q4.356 28.204 4.968 28.96Q5.58 29.716 6.768 29.608Q7.56 29.536 8.586 29.158Q9.612 28.78 10.62 28.276Q11.628 27.772 12.51 27.214Q13.392 26.656 13.932 26.224Q14.4 25.756 14.58 25.18Q14.76 24.604 14.688 24.208Q14.616 23.956 14.31 23.884Q14.004 23.812 13.644 23.992Q12.852 24.388 11.97 24.838Q11.088 25.288 10.17 25.702Q9.252 26.116 8.334 26.458Q7.416 26.8 6.624 26.944Q6.588 26.908 6.588 26.404Q6.588 25.9 6.624 25.09Q6.66 24.28 6.714 23.236Q6.768 22.192 6.84 21.004Q7.704 20.932 8.532 20.896Q9.36 20.86 10.08 20.86Q10.44 20.86 11.034 20.698Q11.628 20.536 11.7 19.924Q11.7 19.168 11.016 18.808ZM21.708 13.84Q22.14 13.804 22.212 13.444Q22.284 12.94 21.942 12.58Q21.6 12.22 21.024 12.04Q20.628 11.932 20.016 11.914Q19.404 11.896 18.738 11.968Q18.072 12.04 17.424 12.202Q16.776 12.364 16.308 12.58Q16.02 12.724 15.804 12.904Q15.588 13.084 15.588 13.372Q15.696 14.128 16.2 14.38Q16.704 14.632 17.136 14.488Q18.18 14.2 19.134 14.056Q20.088 13.912 20.988 13.876Q21.276 13.876 21.708 13.84ZM52.92 20.95Q54.54 20.5 55.944 19.672Q56.556 19.276 56.682 18.772Q56.808 18.268 56.52 17.584Q56.016 16.36 54.756 15.676Q53.496 14.992 51.948 15.1Q50.652 15.172 49.68 15.676Q48.708 16.18 48.06 16.954Q47.412 17.728 47.106 18.736Q46.8 19.744 46.908 20.86Q47.016 22.048 47.448 23.164Q47.88 24.28 48.708 25.108Q49.68 26.044 50.904 26.368Q52.128 26.692 53.28 26.476Q54.612 26.26 55.692 25.45Q56.772 24.64 57.348 23.488Q57.492 22.588 56.988 22.408Q56.808 22.336 56.448 22.426Q56.088 22.516 55.764 22.804Q55.44 23.092 55.008 23.38Q54.576 23.668 54.054 23.902Q53.532 24.136 52.938 24.244Q52.344 24.352 51.768 24.28Q50.796 24.136 50.148 23.398Q49.5 22.66 49.428 21.4Q51.3 21.4 52.92 20.95ZM27.036 16.504Q27.072 17.08 27.162 17.926Q27.252 18.772 27.36 19.69Q27.468 20.608 27.594 21.508Q27.72 22.408 27.828 23.164L28.8 21.22Q29.376 20.068 30.006 19.006Q30.636 17.944 31.302 17.206Q31.968 16.468 32.508 16.468Q33.084 16.468 33.57 17.026Q34.056 17.584 34.416 18.376Q34.776 19.168 35.046 20.068Q35.316 20.968 35.496 21.652Q35.64 21.184 35.874 20.59Q36.108 19.996 36.378 19.366Q36.648 18.736 36.99 18.124Q37.332 17.512 37.728 17.044Q38.196 16.54 38.736 16.306Q39.276 16.072 39.528 16.072Q39.852 16.072 40.302 16.27Q40.752 16.468 41.22 16.792Q41.688 17.116 42.102 17.566Q42.516 18.016 42.768 18.484Q43.272 19.456 43.578 20.608Q43.884 21.76 44.028 22.804Q44.172 23.848 44.226 24.658Q44.28 25.468 44.316 25.792Q44.316 26.26 44.208 26.494Q44.1 26.728 43.812 26.872Q43.416 27.052 43.128 26.998Q42.84 26.944 42.66 26.764Q42.48 26.584 42.372 26.35Q42.264 26.116 42.228 25.936Q42.12 25.108 41.994 24.244Q41.868 23.38 41.724 22.57Q41.58 21.76 41.382 21.058Q41.184 20.356 40.968 19.816Q40.896 19.672 40.734 19.438Q40.572 19.204 40.374 18.988Q40.176 18.772 39.996 18.628Q39.816 18.484 39.744 18.448Q39.384 18.448 38.988 19.114Q38.592 19.78 38.232 20.716Q37.872 21.652 37.566 22.678Q37.26 23.704 37.116 24.424Q37.116 25.36 36.756 25.81Q36.396 26.26 36 26.26Q35.604 26.26 35.154 25.954Q34.704 25.648 34.56 25.252Q34.344 24.676 34.092 23.956Q33.84 23.236 33.57 22.48Q33.3 21.724 33.03 21.004Q32.76 20.284 32.508 19.708Q32.004 20.392 31.518 21.22Q31.032 22.048 30.582 22.912Q30.132 23.776 29.718 24.622Q29.304 25.468 28.944 26.116Q28.692 26.512 28.404 26.818Q28.116 27.124 27.72 27.124Q27.432 27.124 27.108 26.854Q26.784 26.584 26.496 26.188Q26.208 25.792 25.974 25.288Q25.74 24.784 25.632 24.28Q25.344 22.732 25.146 20.878Q24.948 19.024 24.768 17.26Q24.732 16.648 24.93 16.126Q25.128 15.604 25.704 15.424Q26.316 15.316 26.64 15.604Q26.964 15.892 27.036 16.504ZM51.03 17.476Q51.444 17.296 51.804 17.224Q52.596 17.08 53.37 17.242Q54.144 17.404 54.432 18.088Q54.036 18.34 53.442 18.556Q52.848 18.772 52.146 18.934Q51.444 19.096 50.706 19.204Q49.968 19.312 49.356 19.312Q49.392 18.88 49.662 18.538Q49.932 18.196 50.274 17.926Q50.616 17.656 51.03 17.476ZM21.654 26.674Q21.636 26.008 21.384 25.432Q21.168 24.964 21.024 24.226Q20.88 23.488 20.772 22.696Q20.664 21.904 20.628 21.112Q20.592 20.32 20.592 19.672Q20.628 18.844 20.232 18.286Q19.836 17.728 19.188 17.692Q18.792 17.764 18.54 18.196Q18.288 18.628 18.252 19.132Q18.252 19.6 18.27 20.536Q18.288 21.472 18.396 22.552Q18.504 23.632 18.72 24.73Q18.936 25.828 19.332 26.584Q19.62 27.196 20.196 27.556Q20.772 27.916 21.276 27.592Q21.672 27.34 21.654 26.674Z" />
  </g>
  <g id="profit" transform="translate(802 5)">
    <path d="M42.786 21.472Q43.452 21.652 43.956 21.58Q44.568 21.508 45.144 21.454Q45.72 21.4 46.296 21.328L47.808 25.72Q47.844 25.864 47.934 26.242Q48.024 26.62 48.078 27.106Q48.132 27.592 48.132 28.168Q48.132 28.744 48.06 29.32Q47.988 29.824 48.096 30.112Q48.204 30.4 48.6 30.58Q49.104 30.76 49.536 30.256Q49.968 29.752 50.256 28.924Q50.436 28.348 50.544 27.736Q50.652 27.124 50.508 26.584Q50.22 25.612 49.734 24.154Q49.248 22.696 48.672 21.076Q49.536 21.004 50.328 20.914Q51.12 20.824 51.84 20.752Q52.164 20.716 52.506 20.644Q52.848 20.572 53.118 20.41Q53.388 20.248 53.532 20.014Q53.676 19.78 53.568 19.42Q53.136 18.988 52.452 18.772Q51.768 18.556 50.976 18.484Q49.536 18.412 47.808 18.592Q47.412 17.44 47.088 16.396Q46.764 15.352 46.512 14.452Q46.224 13.372 46.278 12.652Q46.332 11.932 46.584 11.482Q46.836 11.032 47.178 10.816Q47.52 10.6 47.772 10.564Q48.312 10.492 48.78 10.654Q49.248 10.816 49.662 11.122Q50.076 11.428 50.454 11.842Q50.832 12.256 51.156 12.652Q51.3 12.832 51.732 12.886Q52.164 12.94 52.524 12.58Q52.776 12.328 52.758 12.022Q52.74 11.716 52.596 11.32Q52.2 10.456 51.552 9.808Q50.904 9.16 50.112 8.764Q49.32 8.368 48.438 8.296Q47.556 8.224 46.656 8.512Q44.46 9.232 43.992 10.888Q43.524 12.544 44.136 14.848L45.468 18.88Q44.712 18.988 43.974 19.114Q43.236 19.24 42.588 19.384Q41.904 19.528 41.832 19.87Q41.76 20.212 41.868 20.572Q42.12 21.292 42.786 21.472ZM74.304 18.808Q73.62 18.448 72.936 18.484Q72.324 18.52 71.658 18.538Q70.992 18.556 70.272 18.628Q70.38 17.008 70.506 15.46Q70.632 13.912 70.776 12.688Q70.776 12.256 70.218 11.914Q69.66 11.572 69.048 11.608Q68.796 11.608 68.58 11.932Q68.364 12.256 68.328 12.688Q68.22 13.984 68.076 15.568Q67.932 17.152 67.824 18.844Q66.024 19.024 64.548 19.276Q63.936 19.456 63.756 19.816Q63.576 20.176 63.576 20.392Q63.576 21.004 64.134 21.22Q64.692 21.436 65.16 21.436Q65.736 21.364 66.366 21.31Q66.996 21.256 67.68 21.184Q67.608 22.876 67.554 24.388Q67.5 25.9 67.572 27.052Q67.644 28.204 68.256 28.96Q68.868 29.716 70.056 29.608Q70.848 29.536 71.874 29.158Q72.9 28.78 73.908 28.276Q74.916 27.772 75.798 27.214Q76.68 26.656 77.22 26.224Q77.688 25.756 77.868 25.18Q78.048 24.604 77.976 24.208Q77.904 23.956 77.598 23.884Q77.292 23.812 76.932 23.992Q76.14 24.388 75.258 24.838Q74.376 25.288 73.458 25.702Q72.54 26.116 71.622 26.458Q70.704 26.8 69.912 26.944Q69.876 26.908 69.876 26.404Q69.876 25.9 69.912 25.09Q69.948 24.28 70.002 23.236Q70.056 22.192 70.128 21.004Q70.992 20.932 71.82 20.896Q72.648 20.86 73.368 20.86Q73.728 20.86 74.322 20.698Q74.916 20.536 74.988 19.924Q74.988 19.168 74.304 18.808ZM62.1 13.444Q62.028 13.804 61.596 13.84Q61.164 13.876 60.876 13.876Q59.976 13.912 59.022 14.056Q58.068 14.2 57.024 14.488Q56.592 14.632 56.088 14.38Q55.584 14.128 55.476 13.372Q55.476 13.084 55.692 12.904Q55.908 12.724 56.196 12.58Q56.664 12.364 57.312 12.202Q57.96 12.04 58.626 11.968Q59.292 11.896 59.904 11.914Q60.516 11.932 60.912 12.04Q61.488 12.22 61.83 12.58Q62.172 12.94 62.1 13.444ZM7.236 32.794Q7.56 32.452 7.596 32.056Q7.632 30.616 7.56 28.708Q7.488 26.8 7.308 24.856Q8.496 24.136 9.666 23.218Q10.836 22.3 11.646 21.166Q12.456 20.032 12.726 18.646Q12.996 17.26 12.384 15.604Q11.88 14.596 11.07 14.074Q10.26 13.552 9.252 13.39Q8.244 13.228 7.146 13.354Q6.048 13.48 4.986 13.786Q3.924 14.092 2.97 14.506Q2.016 14.92 1.332 15.316Q0.54 15.82 0.162 16.396Q-0.216 16.972 0.108 17.692Q0.252 17.98 0.738 18.034Q1.224 18.088 1.728 17.8Q2.484 17.404 3.294 17.008Q4.104 16.612 4.95 16.324Q5.796 16.036 6.678 15.856Q7.56 15.676 8.46 15.712Q9.468 15.748 9.936 16.234Q10.404 16.72 10.476 17.332Q10.584 18.052 10.332 18.718Q10.08 19.384 9.594 19.996Q9.108 20.608 8.442 21.148Q7.776 21.688 7.02 22.156Q6.912 21.112 6.786 20.23Q6.66 19.348 6.552 18.664Q6.336 17.944 5.742 17.476Q5.148 17.008 4.68 17.188Q4.392 17.332 4.284 17.494Q4.176 17.656 4.104 17.836Q4.032 18.016 4.068 18.232Q4.248 19.456 4.41 20.752Q4.572 22.048 4.752 23.38Q4.032 23.812 3.708 24.28Q3.384 24.748 3.636 25.36Q3.78 25.72 4.158 25.882Q4.536 26.044 5.004 25.972Q5.112 27.556 5.184 29.05Q5.256 30.544 5.256 31.912Q5.256 32.2 5.58 32.632Q5.904 33.064 6.516 33.1Q6.912 33.136 7.236 32.794ZM24.642 16.468Q25.344 16.072 25.992 15.712Q26.46 15.388 26.55 14.992Q26.64 14.596 26.496 14.416Q26.352 14.236 25.992 14.164Q25.632 14.092 25.092 14.164Q23.832 14.38 22.626 15.028Q21.42 15.676 20.466 16.612Q19.512 17.548 18.864 18.7Q18.216 19.852 18.072 21.076Q17.856 20.032 17.64 18.574Q17.424 17.116 17.28 15.784Q17.208 15.388 16.812 15.208Q16.416 15.028 15.984 14.992Q15.588 14.956 15.282 15.1Q14.976 15.244 14.976 15.748Q15.264 18.232 15.66 20.734Q16.056 23.236 16.668 25.792Q16.812 26.44 17.226 27.142Q17.64 27.844 18.324 27.844Q18.864 27.844 19.17 27.178Q19.476 26.512 19.476 25.864Q19.548 24.496 19.8 23.074Q20.052 21.652 20.772 20.284Q21.276 19.312 21.906 18.61Q22.536 17.908 23.238 17.386Q23.94 16.864 24.642 16.468ZM36.432 15.568Q37.512 15.964 38.25 16.756Q38.988 17.548 39.384 18.538Q39.78 19.528 39.834 20.572Q39.888 21.616 39.6 22.516Q39.204 23.524 38.592 24.496Q37.98 25.468 37.188 26.224Q36.396 26.98 35.388 27.448Q34.38 27.916 33.156 27.916Q31.68 27.916 30.672 27.232Q29.664 26.548 29.088 25.468Q28.512 24.388 28.35 23.02Q28.188 21.652 28.404 20.284Q28.548 19.276 28.89 18.322Q29.232 17.368 29.772 16.63Q30.312 15.892 31.014 15.424Q31.716 14.956 32.616 14.956Q33.12 14.956 33.876 15.154Q34.632 15.352 35.28 15.712Q35.748 15.28 36.432 15.568ZM35.064 18.196Q34.668 17.944 34.146 17.53Q33.624 17.116 33.228 17.116Q32.796 17.116 32.382 17.512Q31.968 17.908 31.662 18.43Q31.356 18.952 31.14 19.492Q30.924 20.032 30.852 20.356Q30.744 20.896 30.708 21.652Q30.672 22.408 30.816 23.146Q30.96 23.884 31.374 24.478Q31.788 25.072 32.616 25.324Q33.12 25.468 33.804 25.306Q34.488 25.144 35.154 24.712Q35.82 24.28 36.414 23.56Q37.008 22.84 37.332 21.904Q37.692 20.86 37.35 19.726Q37.008 18.592 35.964 18.088Q35.712 18.268 35.46 18.268Q35.208 18.268 35.064 18.196ZM61.272 25.432Q61.524 26.008 61.542 26.674Q61.56 27.34 61.164 27.592Q60.66 27.916 60.084 27.556Q59.508 27.196 59.22 26.584Q58.824 25.828 58.608 24.73Q58.392 23.632 58.284 22.552Q58.176 21.472 58.158 20.536Q58.14 19.6 58.14 19.132Q58.176 18.628 58.428 18.196Q58.68 17.764 59.076 17.692Q59.724 17.728 60.12 18.286Q60.516 18.844 60.48 19.672Q60.48 20.32 60.516 21.112Q60.552 21.904 60.66 22.696Q60.768 23.488 60.912 24.226Q61.056 24.964 61.272 25.432Z" />
  </g>
  <g id="0" transform="translate(819 384)">
    <path d="M11.664 17.548Q11.664 18.376 11.394 19.582Q11.124 20.788 10.512 22.012Q9.9 23.236 8.91 24.316Q7.92 25.396 6.48 25.972Q5.58 26.368 4.698 26.386Q3.816 26.404 3.114 26.044Q2.412 25.684 1.944 24.946Q1.476 24.208 1.368 23.02Q1.26 21.616 1.602 20.194Q1.944 18.772 2.682 17.53Q3.42 16.288 4.464 15.316Q5.508 14.344 6.804 13.768Q7.092 13.624 7.362 13.786Q7.632 13.948 7.704 14.452Q9.576 14.632 10.62 15.442Q11.664 16.252 11.664 17.548ZM3.816 22.948Q3.888 23.452 4.104 23.668Q4.32 23.884 4.608 23.956Q4.896 23.992 5.256 23.884Q5.616 23.776 5.958 23.614Q6.3 23.452 6.588 23.254Q6.876 23.056 7.056 22.876Q8.064 21.94 8.676 20.59Q9.288 19.24 9.432 17.62Q9.432 17.404 9.144 17.188Q8.856 16.972 8.406 16.846Q7.956 16.72 7.416 16.648Q6.876 16.576 6.372 16.612Q5.832 17.224 5.328 17.944Q4.824 18.664 4.464 19.474Q4.104 20.284 3.924 21.166Q3.744 22.048 3.816 22.948Z" />
  </g>
  <g id="The-Startup-Plan" transform="translate(472 93)">
    <g id="The-Startup">
      <path d="M65.718 13.066Q66.096 12.976 66.24 12.796Q66.456 12.508 66.474 12.184Q66.492 11.86 66.312 11.644Q65.484 10.672 64.152 10.006Q62.82 9.34 61.38 9.412Q60.336 9.484 59.472 9.88Q58.608 10.276 57.96 10.906Q57.312 11.536 56.952 12.31Q56.592 13.084 56.592 13.948Q56.592 14.776 56.97 15.64Q57.348 16.504 58.176 17.224Q59.904 18.484 61.578 19.456Q63.252 20.428 64.728 21.544Q65.7 22.228 66.078 23.074Q66.456 23.92 66.276 24.712Q66.132 25.468 65.556 26.062Q64.98 26.656 64.044 26.872Q62.82 27.16 61.704 26.818Q60.588 26.476 59.76 25.72Q59.472 25.54 58.932 25.666Q58.392 25.792 58.176 26.116Q58.032 26.332 58.212 26.836Q58.392 27.34 58.644 27.628Q59.652 28.744 61.11 29.14Q62.568 29.536 64.08 29.248Q65.808 28.924 67.122 27.754Q68.436 26.584 68.688 24.604Q68.688 23.596 68.436 22.804Q68.184 22.012 67.752 21.382Q67.32 20.752 66.744 20.248Q66.168 19.744 65.52 19.312Q65.016 18.988 64.35 18.556Q63.684 18.124 62.946 17.656Q62.208 17.188 61.452 16.702Q60.696 16.216 60.048 15.748Q59.04 15.028 58.806 14.182Q58.572 13.336 59.4 12.436Q59.832 11.968 60.426 11.716Q61.02 11.464 61.56 11.464Q61.992 11.464 62.46 11.608Q62.928 11.752 63.396 11.968Q63.864 12.184 64.26 12.418Q64.656 12.652 64.944 12.868Q65.34 13.156 65.718 13.066ZM21.726 14.128Q21.744 13.048 21.744 12.184Q21.744 11.536 21.42 10.978Q21.096 10.42 20.664 10.348Q20.1928 10.2826 19.8929 10.4788Q19.368 10.8224 19.368 11.968Q19.296 14.128 19.296 16.018Q19.296 17.908 19.35 19.708Q19.404 21.508 19.512 23.29Q19.62 25.072 19.8 27.016Q19.836 27.34 19.98 27.79Q20.124 28.24 20.322 28.654Q20.52 29.068 20.754 29.356Q20.988 29.644 21.276 29.644Q21.564 29.644 21.798 29.41Q22.032 29.176 22.176 28.528Q22.32 27.664 22.626 26.26Q22.932 24.856 23.418 23.488Q23.904 22.12 24.57 21.04Q25.236 19.96 26.136 19.78Q26.712 19.672 27.144 20.104Q27.576 20.536 27.882 21.31Q28.188 22.084 28.404 23.056Q28.62 24.028 28.764 24.982Q28.908 25.936 29.016 26.764Q29.124 27.592 29.232 28.024Q29.412 28.564 29.826 28.942Q30.24 29.32 30.528 29.32Q30.924 29.32 31.212 28.96Q31.5 28.6 31.5 28.024Q31.428 27.232 31.32 26.134Q31.212 25.036 30.978 23.83Q30.744 22.624 30.384 21.454Q30.024 20.284 29.502 19.33Q28.98 18.376 28.278 17.8Q27.576 17.224 26.676 17.224Q25.848 17.224 25.146 17.548Q24.444 17.872 23.814 18.412Q23.184 18.952 22.68 19.654Q22.176 20.356 21.816 21.076Q21.78 19.96 21.762 18.736Q21.744 17.512 21.726 16.36Q21.708 15.208 21.726 14.128ZM9.144 14.38Q12.564 13.624 16.272 13.804Q16.668 13.84 16.812 13.606Q16.956 13.372 17.028 13.012Q17.1 12.724 16.866 12.31Q16.632 11.896 16.272 11.788Q8.892 10.852 1.512 14.452Q0.864 14.884 0.612 15.568Q0.612 15.964 1.062 16.36Q1.512 16.756 2.376 16.432Q5.724 15.136 9.144 14.38ZM79.344 18.484Q80.028 18.448 80.712 18.808Q81.396 19.168 81.396 19.924Q81.324 20.536 80.73 20.698Q80.136 20.86 79.776 20.86Q79.056 20.86 78.228 20.896Q77.4 20.932 76.536 21.004Q76.464 22.192 76.41 23.236Q76.356 24.28 76.32 25.09Q76.284 25.9 76.284 26.404Q76.284 26.908 76.32 26.944Q77.112 26.8 78.03 26.458Q78.948 26.116 79.866 25.702Q80.784 25.288 81.666 24.838Q82.548 24.388 83.34 23.992Q83.7 23.812 84.006 23.884Q84.312 23.956 84.384 24.208Q84.456 24.604 84.276 25.18Q84.096 25.756 83.628 26.224Q83.088 26.656 82.206 27.214Q81.324 27.772 80.316 28.276Q79.308 28.78 78.282 29.158Q77.256 29.536 76.464 29.608Q75.276 29.716 74.664 28.96Q74.052 28.204 73.98 27.052Q73.908 25.9 73.962 24.388Q74.016 22.876 74.088 21.184Q73.404 21.256 72.774 21.31Q72.144 21.364 71.568 21.436Q71.1 21.436 70.542 21.22Q69.984 21.004 69.984 20.392Q69.984 20.176 70.164 19.816Q70.344 19.456 70.956 19.276Q72.432 19.024 74.232 18.844Q74.34 17.152 74.484 15.568Q74.628 13.984 74.736 12.688Q74.772 12.256 74.988 11.932Q75.204 11.608 75.456 11.608Q76.068 11.572 76.626 11.914Q77.184 12.256 77.184 12.688Q77.04 13.912 76.914 15.46Q76.788 17.008 76.68 18.628Q77.4 18.556 78.066 18.538Q78.732 18.52 79.344 18.484ZM121.248 18.808Q120.564 18.448 119.88 18.484Q119.268 18.52 118.602 18.538Q117.936 18.556 117.216 18.628Q117.324 17.008 117.45 15.46Q117.576 13.912 117.72 12.688Q117.72 12.256 117.162 11.914Q116.604 11.572 115.992 11.608Q115.74 11.608 115.524 11.932Q115.308 12.256 115.272 12.688Q115.164 13.984 115.02 15.568Q114.876 17.152 114.768 18.844Q112.968 19.024 111.492 19.276Q110.88 19.456 110.7 19.816Q110.52 20.176 110.52 20.392Q110.52 21.004 111.078 21.22Q111.636 21.436 112.104 21.436Q112.68 21.364 113.31 21.31Q113.94 21.256 114.624 21.184Q114.552 22.876 114.498 24.388Q114.444 25.9 114.516 27.052Q114.588 28.204 115.2 28.96Q115.812 29.716 117 29.608Q117.792 29.536 118.818 29.158Q119.844 28.78 120.852 28.276Q121.86 27.772 122.742 27.214Q123.624 26.656 124.164 26.224Q124.632 25.756 124.812 25.18Q124.992 24.604 124.92 24.208Q124.848 23.956 124.542 23.884Q124.236 23.812 123.876 23.992Q123.084 24.388 122.202 24.838Q121.32 25.288 120.402 25.702Q119.484 26.116 118.566 26.458Q117.648 26.8 116.856 26.944Q116.82 26.908 116.82 26.404Q116.82 25.9 116.856 25.09Q116.892 24.28 116.946 23.236Q117 22.192 117.072 21.004Q117.936 20.932 118.764 20.896Q119.592 20.86 120.312 20.86Q120.672 20.86 121.266 20.698Q121.86 20.536 121.932 19.924Q121.932 19.168 121.248 18.808ZM95.094 16.954Q95.004 15.82 94.86 14.812Q94.716 13.876 94.032 13.282Q93.348 12.688 92.088 12.724Q91.224 12.76 90.36 13.12Q89.496 13.48 88.668 14.038Q87.84 14.596 87.084 15.28Q86.328 15.964 85.716 16.612Q85.392 17.044 85.428 17.422Q85.464 17.8 85.752 18.088Q86.04 18.376 86.454 18.412Q86.868 18.448 87.192 18.124Q88.236 17.188 89.388 16.36Q90.54 15.532 91.404 15.244Q91.908 15.064 92.25 15.19Q92.592 15.316 92.664 15.856Q92.736 16.324 92.79 16.99Q92.844 17.656 92.88 18.412Q92.916 19.168 92.934 19.906Q92.952 20.644 92.952 21.256Q92.52 20.824 92.016 20.644Q91.512 20.464 91.026 20.446Q90.54 20.428 90.09 20.5Q89.64 20.572 89.388 20.68Q88.38 21.04 87.642 21.688Q86.904 22.336 86.472 23.146Q86.04 23.956 85.932 24.838Q85.824 25.72 86.04 26.548Q86.364 27.772 87.282 28.384Q88.2 28.996 89.352 28.816Q89.964 28.708 90.684 28.42Q91.404 28.132 92.124 27.754Q92.844 27.376 93.492 26.962Q94.14 26.548 94.644 26.188Q95.364 26.584 95.922 26.566Q96.48 26.548 96.696 25.9Q96.876 25.432 96.642 24.82Q96.408 24.208 95.256 23.416Q95.292 22.552 95.292 21.472Q95.292 20.392 95.238 19.24Q95.184 18.088 95.094 16.954ZM146.916 32.794Q147.24 32.452 147.276 32.056Q147.312 30.616 147.24 28.708Q147.168 26.8 146.988 24.856Q148.176 24.136 149.346 23.218Q150.516 22.3 151.326 21.166Q152.136 20.032 152.406 18.646Q152.676 17.26 152.064 15.604Q151.56 14.596 150.75 14.074Q149.94 13.552 148.932 13.39Q147.924 13.228 146.826 13.354Q145.728 13.48 144.666 13.786Q143.604 14.092 142.65 14.506Q141.696 14.92 141.012 15.316Q140.22 15.82 139.842 16.396Q139.464 16.972 139.788 17.692Q139.932 17.98 140.418 18.034Q140.904 18.088 141.408 17.8Q142.164 17.404 142.974 17.008Q143.784 16.612 144.63 16.324Q145.476 16.036 146.358 15.856Q147.24 15.676 148.14 15.712Q149.148 15.748 149.616 16.234Q150.084 16.72 150.156 17.332Q150.264 18.052 150.012 18.718Q149.76 19.384 149.274 19.996Q148.788 20.608 148.122 21.148Q147.456 21.688 146.7 22.156Q146.592 21.112 146.466 20.23Q146.34 19.348 146.232 18.664Q146.016 17.944 145.422 17.476Q144.828 17.008 144.36 17.188Q144.072 17.332 143.964 17.494Q143.856 17.656 143.784 17.836Q143.712 18.016 143.748 18.232Q143.928 19.456 144.09 20.752Q144.252 22.048 144.432 23.38Q143.712 23.812 143.388 24.28Q143.064 24.748 143.316 25.36Q143.46 25.72 143.838 25.882Q144.216 26.044 144.684 25.972Q144.792 27.556 144.864 29.05Q144.936 30.544 144.936 31.912Q144.936 32.2 145.26 32.632Q145.584 33.064 146.196 33.1Q146.592 33.136 146.916 32.794ZM109.548 15.712Q108.9 16.072 108.198 16.468Q107.496 16.864 106.794 17.386Q106.092 17.908 105.462 18.61Q104.832 19.312 104.328 20.284Q103.608 21.652 103.356 23.074Q103.104 24.496 103.032 25.864Q103.032 26.512 102.726 27.178Q102.42 27.844 101.88 27.844Q101.196 27.844 100.782 27.142Q100.368 26.44 100.224 25.792Q99.612 23.236 99.216 20.734Q98.82 18.232 98.532 15.748Q98.532 15.244 98.838 15.1Q99.144 14.956 99.54 14.992Q99.972 15.028 100.368 15.208Q100.764 15.388 100.836 15.784Q100.98 17.116 101.196 18.574Q101.412 20.032 101.628 21.076Q101.772 19.852 102.42 18.7Q103.068 17.548 104.022 16.612Q104.976 15.676 106.182 15.028Q107.388 14.38 108.648 14.164Q109.188 14.092 109.548 14.164Q109.908 14.236 110.052 14.416Q110.196 14.596 110.106 14.992Q110.016 15.388 109.548 15.712ZM10.89 27.07Q11.16 26.764 11.16 26.368Q11.232 23.812 11.16 21.256Q11.088 18.7 10.8 16.108Q10.8 15.712 10.44 15.298Q10.08 14.884 9.252 15.028Q8.964 15.1 8.838 15.244Q8.712 15.388 8.676 15.586Q8.64 15.784 8.676 15.982Q8.712 16.18 8.712 16.324Q8.892 18.844 8.946 21.346Q9 23.848 9.036 26.368Q9.072 26.836 9.288 27.196Q9.504 27.556 10.224 27.448Q10.62 27.376 10.89 27.07ZM42.804 19.672Q41.4 20.5 39.78 20.95Q38.16 21.4 36.288 21.4Q36.36 22.66 37.008 23.398Q37.656 24.136 38.628 24.28Q39.204 24.352 39.798 24.244Q40.392 24.136 40.914 23.902Q41.436 23.668 41.868 23.38Q42.3 23.092 42.624 22.804Q42.948 22.516 43.308 22.426Q43.668 22.336 43.848 22.408Q44.352 22.588 44.208 23.488Q43.632 24.64 42.552 25.45Q41.472 26.26 40.14 26.476Q38.988 26.692 37.764 26.368Q36.54 26.044 35.568 25.108Q34.74 24.28 34.308 23.164Q33.876 22.048 33.768 20.86Q33.66 19.744 33.966 18.736Q34.272 17.728 34.92 16.954Q35.568 16.18 36.54 15.676Q37.512 15.172 38.808 15.1Q40.356 14.992 41.616 15.676Q42.876 16.36 43.38 17.584Q43.668 18.268 43.542 18.772Q43.416 19.276 42.804 19.672ZM129.492 17.476Q129.276 18.448 129.06 19.618Q128.844 20.788 128.754 21.868Q128.664 22.948 128.754 23.812Q128.844 24.676 129.204 25.036Q129.816 25.144 130.608 24.514Q131.4 23.884 132.156 22.912Q132.912 21.94 133.524 20.806Q134.136 19.672 134.388 18.808Q134.532 18.376 134.64 17.908Q134.748 17.44 134.748 16.936Q134.748 16.648 135.126 16.378Q135.504 16.108 135.756 16.072Q135.936 16.036 136.17 16.144Q136.404 16.252 136.602 16.45Q136.8 16.648 136.962 16.918Q137.124 17.188 137.124 17.476Q137.196 18.556 137.34 19.852Q137.484 21.148 137.682 22.444Q137.88 23.74 138.096 24.964Q138.312 26.188 138.528 27.16Q138.636 27.556 138.312 28.06Q137.988 28.564 137.592 28.672Q137.268 28.744 136.926 28.6Q136.584 28.456 136.404 28.024Q136.224 27.52 136.062 26.782Q135.9 26.044 135.774 25.234Q135.648 24.424 135.54 23.686Q135.432 22.948 135.396 22.444Q134.856 23.416 134.118 24.406Q133.38 25.396 132.534 26.206Q131.688 27.016 130.77 27.466Q129.852 27.916 128.88 27.808Q127.44 27.628 126.684 25.108Q126.396 24.1 126.414 22.876Q126.432 21.652 126.594 20.446Q126.756 19.24 126.99 18.16Q127.224 17.08 127.404 16.396Q127.476 16.108 127.692 15.874Q127.908 15.64 128.196 15.712Q128.736 15.82 129.186 16.36Q129.636 16.9 129.492 17.476ZM38.664 17.224Q38.304 17.296 37.89 17.476Q37.476 17.656 37.134 17.926Q36.792 18.196 36.522 18.538Q36.252 18.88 36.216 19.312Q36.828 19.312 37.566 19.204Q38.304 19.096 39.006 18.934Q39.708 18.772 40.302 18.556Q40.896 18.34 41.292 18.088Q41.004 17.404 40.23 17.242Q39.456 17.08 38.664 17.224ZM89.694 23.002Q90.216 22.66 90.684 22.552Q90.972 22.516 91.314 22.768Q91.656 23.02 91.944 23.362Q92.232 23.704 92.448 24.046Q92.664 24.388 92.664 24.604Q92.016 25.216 90.918 25.738Q89.82 26.26 88.956 26.44Q88.668 26.512 88.434 26.404Q88.2 26.296 88.128 26.08Q87.948 25.504 88.146 24.91Q88.344 24.316 88.758 23.83Q89.172 23.344 89.694 23.002Z" />
    </g>
    <g id="Plan">
      <path d="M7.182 69.942Q7.38 69.6 7.416 69.204Q7.452 67.908 7.434 66.396Q7.416 64.884 7.344 63.3Q8.532 62.472 9.864 61.482Q11.196 60.492 12.168 59.304Q13.14 58.116 13.518 56.676Q13.896 55.236 13.212 53.436Q12.456 51.924 11.052 51.24Q9.648 50.556 8.046 50.466Q6.444 50.376 4.86 50.736Q3.276 51.096 2.196 51.636Q1.368 52.104 0.63 52.77Q-0.108 53.436 -0.18 54.264Q-0.18 54.48 -0.036 54.696Q0.108 54.912 0.396 55.02Q0.684 55.128 1.08 55.056Q1.476 54.984 1.944 54.624Q3.564 53.58 5.328 53.13Q7.092 52.68 9.324 53.184Q10.296 53.436 10.764 53.94Q11.232 54.444 11.304 55.056Q11.412 55.848 11.088 56.586Q10.764 57.324 10.17 58.008Q9.576 58.692 8.784 59.268Q7.992 59.844 7.128 60.312Q7.056 59.376 6.948 58.512Q6.84 57.648 6.732 56.928Q6.624 56.604 6.408 56.244Q6.192 55.884 5.904 55.596Q5.616 55.308 5.31 55.164Q5.004 55.02 4.752 55.128Q4.5 55.308 4.392 55.506Q4.284 55.704 4.212 55.848Q4.14 56.028 4.14 56.172Q4.644 59.412 4.878 62.67Q5.112 65.928 5.076 69.06Q5.076 69.348 5.526 69.78Q5.976 70.212 6.588 70.248Q6.984 70.284 7.182 69.942ZM19.728 60.402Q19.296 56.208 19.116 52.284Q19.08 51.636 18.81 51.186Q18.54 50.736 17.928 50.7Q17.352 50.664 17.172 51.258Q16.992 51.852 16.92 52.716Q16.956 54.372 17.1 56.352Q17.244 58.332 17.442 60.402Q17.64 62.472 17.892 64.524Q18.144 66.576 18.432 68.412Q18.468 68.628 18.63 68.916Q18.792 69.204 18.972 69.456Q19.152 69.708 19.368 69.87Q19.584 70.032 19.8 70.032Q20.0712 70.022 20.2583 69.8914Q20.7419 69.5541 20.664 68.412Q20.16 64.596 19.728 60.402ZM32.616 55.812Q32.76 56.82 32.85 57.954Q32.94 59.088 32.994 60.24Q33.048 61.392 33.048 62.472Q33.048 63.552 33.012 64.416Q34.164 65.208 34.398 65.82Q34.632 66.432 34.452 66.9Q34.236 67.548 33.678 67.566Q33.12 67.584 32.4 67.188Q31.896 67.548 31.248 67.962Q30.6 68.376 29.88 68.754Q29.16 69.132 28.44 69.42Q27.72 69.708 27.108 69.816Q25.956 69.996 25.038 69.384Q24.12 68.772 23.796 67.548Q23.58 66.72 23.688 65.838Q23.796 64.956 24.228 64.146Q24.66 63.336 25.398 62.688Q26.136 62.04 27.144 61.68Q27.396 61.572 27.846 61.5Q28.296 61.428 28.782 61.446Q29.268 61.464 29.772 61.644Q30.276 61.824 30.708 62.256Q30.708 61.644 30.69 60.906Q30.672 60.168 30.636 59.412Q30.6 58.656 30.546 57.99Q30.492 57.324 30.42 56.856Q30.348 56.316 30.006 56.19Q29.664 56.064 29.16 56.244Q28.296 56.532 27.144 57.36Q25.992 58.188 24.948 59.124Q24.624 59.448 24.21 59.412Q23.796 59.376 23.508 59.088Q23.22 58.8 23.184 58.422Q23.148 58.044 23.472 57.612Q24.084 56.964 24.84 56.28Q25.596 55.596 26.424 55.038Q27.252 54.48 28.116 54.12Q28.98 53.76 29.844 53.724Q31.104 53.688 31.788 54.282Q32.472 54.876 32.616 55.812ZM39.078 58.458Q38.952 57.792 38.844 57.252Q38.556 55.884 37.296 55.668Q36.396 55.56 36.234 56.046Q36.072 56.532 36.324 57.36Q36.864 59.772 37.206 62.076Q37.548 64.38 37.872 67.188Q37.872 67.44 38.088 67.692Q38.304 67.944 38.664 68.052Q39.06 68.196 39.438 68.106Q39.816 68.016 40.068 67.764Q40.428 66.972 40.842 66.018Q41.256 65.064 41.688 64.11Q42.12 63.156 42.57 62.238Q43.02 61.32 43.452 60.564Q43.956 59.628 44.604 59.592Q45.144 59.52 45.576 60.348Q46.008 61.176 46.35 62.292Q46.692 63.408 46.962 64.488Q47.232 65.568 47.412 66Q47.448 66.18 47.7 66.36Q47.952 66.54 48.456 66.288Q49.536 65.82 49.32 64.848Q49.104 63.768 48.78 62.364Q48.456 60.96 47.898 59.682Q47.34 58.404 46.53 57.54Q45.72 56.676 44.532 56.676Q43.74 56.676 43.074 57.252Q42.408 57.828 41.814 58.71Q41.22 59.592 40.716 60.636Q40.212 61.68 39.78 62.616Q39.708 61.968 39.6 61.248Q39.492 60.528 39.348 59.826Q39.204 59.124 39.078 58.458ZM28.44 63.552Q27.972 63.66 27.45 64.002Q26.928 64.344 26.514 64.83Q26.1 65.316 25.902 65.91Q25.704 66.504 25.884 67.08Q25.956 67.296 26.19 67.404Q26.424 67.512 26.712 67.44Q27.576 67.26 28.674 66.738Q29.772 66.216 30.42 65.604Q30.42 65.388 30.204 65.046Q29.988 64.704 29.7 64.362Q29.412 64.02 29.07 63.768Q28.728 63.516 28.44 63.552Z" />
    </g>
  </g>
  <g id="The-Humble-Business-Plan" transform="translate(1184 88)">
    <g id="The-Humble">
      <path d="M112.41 11.248Q112.392 10.42 112.356 9.844Q112.248 9.268 111.852 8.944Q111.456 8.62 110.952 8.548Q110.736 8.548 110.43 8.656Q110.124 8.764 110.124 9.484Q110.052 13.66 110.52 17.71Q110.988 21.76 111.852 25.72Q111.636 25.9 111.33 26.098Q111.024 26.296 110.808 26.548Q110.592 26.8 110.52 27.106Q110.448 27.412 110.628 27.844Q110.844 28.132 111.528 28.276Q112.212 28.42 112.932 28.132Q113.436 27.808 114.57 27.052Q115.704 26.296 116.874 25.18Q118.044 24.064 118.926 22.624Q119.808 21.184 119.808 19.492Q119.808 18.7 119.556 17.854Q119.304 17.008 118.764 16.306Q118.224 15.604 117.396 15.208Q116.568 14.812 115.452 14.956Q114.732 15.064 114.03 15.532Q113.328 16 112.788 16.9Q112.644 16 112.572 15.01Q112.5 14.02 112.464 13.048Q112.428 12.076 112.41 11.248ZM125.352 11.284Q125.532 15.208 125.964 19.402Q126.396 23.596 126.9 27.412Q126.978 28.554 126.494 28.8914Q126.307 29.022 126.036 29.032Q125.82 29.032 125.604 28.87Q125.388 28.708 125.208 28.456Q125.028 28.204 124.866 27.916Q124.704 27.628 124.668 27.412Q124.38 25.576 124.128 23.524Q123.876 21.472 123.678 19.402Q123.48 17.332 123.336 15.352Q123.192 13.372 123.156 11.716Q123.228 10.852 123.408 10.258Q123.588 9.664 124.164 9.7Q124.776 9.736 125.046 10.186Q125.316 10.636 125.352 11.284ZM21.744 12.184Q21.744 13.048 21.726 14.128Q21.708 15.208 21.726 16.36Q21.744 17.512 21.762 18.736Q21.78 19.96 21.816 21.076Q22.176 20.356 22.68 19.654Q23.184 18.952 23.814 18.412Q24.444 17.872 25.146 17.548Q25.848 17.224 26.676 17.224Q27.576 17.224 28.278 17.8Q28.98 18.376 29.502 19.33Q30.024 20.284 30.384 21.454Q30.744 22.624 30.978 23.83Q31.212 25.036 31.32 26.134Q31.428 27.232 31.5 28.024Q31.5 28.6 31.212 28.96Q30.924 29.32 30.528 29.32Q30.24 29.32 29.826 28.942Q29.412 28.564 29.232 28.024Q29.124 27.592 29.016 26.764Q28.908 25.936 28.764 24.982Q28.62 24.028 28.404 23.056Q28.188 22.084 27.882 21.31Q27.576 20.536 27.144 20.104Q26.712 19.672 26.136 19.78Q25.236 19.96 24.57 21.04Q23.904 22.12 23.418 23.488Q22.932 24.856 22.626 26.26Q22.32 27.664 22.176 28.528Q22.032 29.176 21.798 29.41Q21.564 29.644 21.276 29.644Q20.988 29.644 20.754 29.356Q20.52 29.068 20.322 28.654Q20.124 28.24 19.98 27.79Q19.836 27.34 19.8 27.016Q19.62 25.072 19.512 23.29Q19.404 21.508 19.35 19.708Q19.296 17.908 19.296 16.018Q19.296 14.128 19.368 11.968Q19.368 10.8224 19.8929 10.4788Q20.1928 10.2826 20.664 10.348Q21.096 10.42 21.42 10.978Q21.744 11.536 21.744 12.184ZM16.272 13.804Q12.564 13.624 9.144 14.38Q5.724 15.136 2.376 16.432Q1.512 16.756 1.062 16.36Q0.612 15.964 0.612 15.568Q0.864 14.884 1.512 14.452Q8.892 10.852 16.272 11.788Q16.632 11.896 16.866 12.31Q17.1 12.724 17.028 13.012Q16.956 13.372 16.812 13.606Q16.668 13.84 16.272 13.804ZM69.264 13.804Q69.768 16.72 70.02 19.618Q70.272 22.516 70.416 25.396Q70.452 25.72 70.344 25.954Q70.236 26.188 70.074 26.368Q69.912 26.548 69.75 26.656Q69.588 26.764 69.48 26.764Q69.084 26.764 68.706 26.386Q68.328 26.008 68.256 25.396L68.04 22.66Q67.932 21.292 67.788 19.924Q64.008 20.968 59.796 21.76L60.084 23.344Q60.228 24.136 60.408 24.928Q60.444 25.072 60.462 25.396Q60.48 25.72 60.426 26.08Q60.372 26.44 60.21 26.746Q60.048 27.052 59.724 27.196Q59.436 27.232 59.112 27.016Q58.788 26.8 58.68 26.584Q58.248 25.468 57.87 23.92Q57.492 22.372 57.222 20.662Q56.952 18.952 56.844 17.188Q56.736 15.424 56.808 13.804Q56.88 13.264 57.222 13.03Q57.564 12.796 57.852 12.796Q58.176 12.796 58.41 13.012Q58.644 13.228 58.788 13.552Q58.932 13.876 59.004 14.2Q59.076 14.524 59.076 14.74Q59.112 15.892 59.184 17.008Q59.256 18.124 59.436 19.24Q61.272 18.988 63.432 18.538Q65.592 18.088 67.5 17.512Q67.428 16.684 67.32 15.838Q67.212 14.992 67.104 14.164Q67.104 13.552 67.482 13.084Q67.86 12.616 68.256 12.616Q68.544 12.616 68.85 12.904Q69.156 13.192 69.264 13.804ZM11.16 26.368Q11.16 26.764 10.89 27.07Q10.62 27.376 10.224 27.448Q9.504 27.556 9.288 27.196Q9.072 26.836 9.036 26.368Q9 23.848 8.946 21.346Q8.892 18.844 8.712 16.324Q8.712 16.18 8.676 15.982Q8.64 15.784 8.676 15.586Q8.712 15.388 8.838 15.244Q8.964 15.1 9.252 15.028Q10.08 14.884 10.44 15.298Q10.8 15.712 10.8 16.108Q11.088 18.7 11.16 21.256Q11.232 23.812 11.16 26.368ZM39.78 20.95Q41.4 20.5 42.804 19.672Q43.416 19.276 43.542 18.772Q43.668 18.268 43.38 17.584Q42.876 16.36 41.616 15.676Q40.356 14.992 38.808 15.1Q37.512 15.172 36.54 15.676Q35.568 16.18 34.92 16.954Q34.272 17.728 33.966 18.736Q33.66 19.744 33.768 20.86Q33.876 22.048 34.308 23.164Q34.74 24.28 35.568 25.108Q36.54 26.044 37.764 26.368Q38.988 26.692 40.14 26.476Q41.472 26.26 42.552 25.45Q43.632 24.64 44.208 23.488Q44.352 22.588 43.848 22.408Q43.668 22.336 43.308 22.426Q42.948 22.516 42.624 22.804Q42.3 23.092 41.868 23.38Q41.436 23.668 40.914 23.902Q40.392 24.136 39.798 24.244Q39.204 24.352 38.628 24.28Q37.656 24.136 37.008 23.398Q36.36 22.66 36.288 21.4Q38.16 21.4 39.78 20.95ZM135.54 20.95Q137.16 20.5 138.564 19.672Q139.176 19.276 139.302 18.772Q139.428 18.268 139.14 17.584Q138.636 16.36 137.376 15.676Q136.116 14.992 134.568 15.1Q133.272 15.172 132.3 15.676Q131.328 16.18 130.68 16.954Q130.032 17.728 129.726 18.736Q129.42 19.744 129.528 20.86Q129.636 22.048 130.068 23.164Q130.5 24.28 131.328 25.108Q132.3 26.044 133.524 26.368Q134.748 26.692 135.9 26.476Q137.232 26.26 138.312 25.45Q139.392 24.64 139.968 23.488Q140.112 22.588 139.608 22.408Q139.428 22.336 139.068 22.426Q138.708 22.516 138.384 22.804Q138.06 23.092 137.628 23.38Q137.196 23.668 136.674 23.902Q136.152 24.136 135.558 24.244Q134.964 24.352 134.388 24.28Q133.416 24.136 132.768 23.398Q132.12 22.66 132.048 21.4Q133.92 21.4 135.54 20.95ZM90 16.504Q90.036 17.08 90.126 17.926Q90.216 18.772 90.324 19.69Q90.432 20.608 90.558 21.508Q90.684 22.408 90.792 23.164L91.764 21.22Q92.34 20.068 92.97 19.006Q93.6 17.944 94.266 17.206Q94.932 16.468 95.472 16.468Q96.048 16.468 96.534 17.026Q97.02 17.584 97.38 18.376Q97.74 19.168 98.01 20.068Q98.28 20.968 98.46 21.652Q98.604 21.184 98.838 20.59Q99.072 19.996 99.342 19.366Q99.612 18.736 99.954 18.124Q100.296 17.512 100.692 17.044Q101.16 16.54 101.7 16.306Q102.24 16.072 102.492 16.072Q102.816 16.072 103.266 16.27Q103.716 16.468 104.184 16.792Q104.652 17.116 105.066 17.566Q105.48 18.016 105.732 18.484Q106.236 19.456 106.542 20.608Q106.848 21.76 106.992 22.804Q107.136 23.848 107.19 24.658Q107.244 25.468 107.28 25.792Q107.28 26.26 107.172 26.494Q107.064 26.728 106.776 26.872Q106.38 27.052 106.092 26.998Q105.804 26.944 105.624 26.764Q105.444 26.584 105.336 26.35Q105.228 26.116 105.192 25.936Q105.084 25.108 104.958 24.244Q104.832 23.38 104.688 22.57Q104.544 21.76 104.346 21.058Q104.148 20.356 103.932 19.816Q103.86 19.672 103.698 19.438Q103.536 19.204 103.338 18.988Q103.14 18.772 102.96 18.628Q102.78 18.484 102.708 18.448Q102.348 18.448 101.952 19.114Q101.556 19.78 101.196 20.716Q100.836 21.652 100.53 22.678Q100.224 23.704 100.08 24.424Q100.08 25.36 99.72 25.81Q99.36 26.26 98.964 26.26Q98.568 26.26 98.118 25.954Q97.668 25.648 97.524 25.252Q97.308 24.676 97.056 23.956Q96.804 23.236 96.534 22.48Q96.264 21.724 95.994 21.004Q95.724 20.284 95.472 19.708Q94.968 20.392 94.482 21.22Q93.996 22.048 93.546 22.912Q93.096 23.776 92.682 24.622Q92.268 25.468 91.908 26.116Q91.656 26.512 91.368 26.818Q91.08 27.124 90.684 27.124Q90.396 27.124 90.072 26.854Q89.748 26.584 89.46 26.188Q89.172 25.792 88.938 25.288Q88.704 24.784 88.596 24.28Q88.308 22.732 88.11 20.878Q87.912 19.024 87.732 17.26Q87.696 16.648 87.894 16.126Q88.092 15.604 88.668 15.424Q89.28 15.316 89.604 15.604Q89.928 15.892 90 16.504ZM75.744 19.618Q75.96 18.448 76.176 17.476Q76.32 16.9 75.87 16.36Q75.42 15.82 74.88 15.712Q74.592 15.64 74.376 15.874Q74.16 16.108 74.088 16.396Q73.908 17.08 73.674 18.16Q73.44 19.24 73.278 20.446Q73.116 21.652 73.098 22.876Q73.08 24.1 73.368 25.108Q74.124 27.628 75.564 27.808Q76.536 27.916 77.454 27.466Q78.372 27.016 79.218 26.206Q80.064 25.396 80.802 24.406Q81.54 23.416 82.08 22.444Q82.116 22.948 82.224 23.686Q82.332 24.424 82.458 25.234Q82.584 26.044 82.746 26.782Q82.908 27.52 83.088 28.024Q83.268 28.456 83.61 28.6Q83.952 28.744 84.276 28.672Q84.672 28.564 84.996 28.06Q85.32 27.556 85.212 27.16Q84.996 26.188 84.78 24.964Q84.564 23.74 84.366 22.444Q84.168 21.148 84.024 19.852Q83.88 18.556 83.808 17.476Q83.808 17.188 83.646 16.918Q83.484 16.648 83.286 16.45Q83.088 16.252 82.854 16.144Q82.62 16.036 82.44 16.072Q82.188 16.108 81.81 16.378Q81.432 16.648 81.432 16.936Q81.432 17.44 81.324 17.908Q81.216 18.376 81.072 18.808Q80.82 19.672 80.208 20.806Q79.596 21.94 78.84 22.912Q78.084 23.884 77.292 24.514Q76.5 25.144 75.888 25.036Q75.528 24.676 75.438 23.812Q75.348 22.948 75.438 21.868Q75.528 20.788 75.744 19.618ZM37.89 17.476Q38.304 17.296 38.664 17.224Q39.456 17.08 40.23 17.242Q41.004 17.404 41.292 18.088Q40.896 18.34 40.302 18.556Q39.708 18.772 39.006 18.934Q38.304 19.096 37.566 19.204Q36.828 19.312 36.216 19.312Q36.252 18.88 36.522 18.538Q36.792 18.196 37.134 17.926Q37.476 17.656 37.89 17.476ZM133.65 17.476Q134.064 17.296 134.424 17.224Q135.216 17.08 135.99 17.242Q136.764 17.404 137.052 18.088Q136.656 18.34 136.062 18.556Q135.468 18.772 134.766 18.934Q134.064 19.096 133.326 19.204Q132.588 19.312 131.976 19.312Q132.012 18.88 132.282 18.538Q132.552 18.196 132.894 17.926Q133.236 17.656 133.65 17.476ZM117 17.674Q117.612 18.16 117.612 19.384Q117.612 20.212 117.252 20.95Q116.892 21.688 116.334 22.336Q115.776 22.984 115.128 23.506Q114.48 24.028 113.904 24.424Q113.724 23.596 113.598 22.552Q113.472 21.508 113.4 20.608Q113.364 20.068 113.526 19.492Q113.688 18.916 114.012 18.448Q114.336 17.98 114.768 17.656Q115.2 17.332 115.74 17.26Q116.388 17.188 117 17.674Z" />
    </g>
    <g id="Business-Plan">
      <path d="M120.42 69.204Q120.384 69.6 120.186 69.942Q119.988 70.284 119.592 70.248Q118.98 70.212 118.53 69.78Q118.08 69.348 118.08 69.06Q118.116 65.928 117.882 62.67Q117.648 59.412 117.144 56.172Q117.144 56.028 117.216 55.848Q117.288 55.704 117.396 55.506Q117.504 55.308 117.756 55.128Q118.008 55.02 118.314 55.164Q118.62 55.308 118.908 55.596Q119.196 55.884 119.412 56.244Q119.628 56.604 119.736 56.928Q119.844 57.648 119.952 58.512Q120.06 59.376 120.132 60.312Q120.996 59.844 121.788 59.268Q122.58 58.692 123.174 58.008Q123.768 57.324 124.092 56.586Q124.416 55.848 124.308 55.056Q124.236 54.444 123.768 53.94Q123.3 53.436 122.328 53.184Q120.096 52.68 118.332 53.13Q116.568 53.58 114.948 54.624Q114.48 54.984 114.084 55.056Q113.688 55.128 113.4 55.02Q113.112 54.912 112.968 54.696Q112.824 54.48 112.824 54.264Q112.896 53.436 113.634 52.77Q114.372 52.104 115.2 51.636Q116.28 51.096 117.864 50.736Q119.448 50.376 121.05 50.466Q122.652 50.556 124.056 51.24Q125.46 51.924 126.216 53.436Q126.9 55.236 126.522 56.676Q126.144 58.116 125.172 59.304Q124.2 60.492 122.868 61.482Q121.536 62.472 120.348 63.3Q120.42 64.884 120.438 66.396Q120.456 67.908 120.42 69.204ZM132.732 60.402Q132.3 56.208 132.12 52.284Q132.084 51.636 131.814 51.186Q131.544 50.736 130.932 50.7Q130.356 50.664 130.176 51.258Q129.996 51.852 129.924 52.716Q129.96 54.372 130.104 56.352Q130.248 58.332 130.446 60.402Q130.644 62.472 130.896 64.524Q131.148 66.576 131.436 68.412Q131.472 68.628 131.634 68.916Q131.796 69.204 131.976 69.456Q132.156 69.708 132.372 69.87Q132.588 70.032 132.804 70.032Q133.075 70.022 133.262 69.8914Q133.746 69.554 133.668 68.412Q133.164 64.596 132.732 60.402ZM4.698 68.952Q5.076 69.348 5.436 69.492Q5.58 69.6 5.76 69.6Q6.12 69.96 6.732 69.96Q8.136 69.96 9.45 69.492Q10.764 69.024 11.79 68.196Q12.816 67.368 13.446 66.18Q14.076 64.992 14.076 63.552Q14.076 62.292 13.608 61.392Q13.14 60.492 12.402 59.934Q11.664 59.376 10.728 59.142Q9.792 58.908 8.892 58.98Q9.36 58.476 9.81 57.792Q10.26 57.108 10.512 56.352Q10.764 55.596 10.746 54.804Q10.728 54.012 10.296 53.292Q9.396 52.176 8.118 51.744Q6.84 51.312 5.472 51.312Q3.78 51.312 2.25 51.78Q0.72 52.248 -0.396 53.4Q-0.684 53.688 -0.864 54.048Q-1.044 54.408 -1.044 54.912Q-0.864 55.452 -0.342 55.578Q0.18 55.704 0.612 55.38Q1.548 54.624 2.682 54.102Q3.816 53.58 5.256 53.58Q6.3 53.58 7.128 53.904Q7.956 54.228 8.136 54.912Q8.28 55.524 8.082 56.154Q7.884 56.784 7.434 57.378Q6.984 57.972 6.3 58.476Q5.616 58.98 4.752 59.304Q4.536 58.332 4.32 57.504Q4.104 56.676 3.924 56.028Q3.528 55.236 2.592 55.344Q2.196 55.416 2.196 55.992Q2.232 56.532 2.34 57.432Q2.448 58.332 2.628 59.466Q2.808 60.6 3.006 61.842Q3.204 63.084 3.42 64.272Q3.636 65.46 3.852 66.504Q4.068 67.548 4.248 68.268Q4.32 68.556 4.698 68.952ZM48.924 54.84Q49.356 54.804 49.428 54.444Q49.5 53.94 49.158 53.58Q48.816 53.22 48.24 53.04Q47.844 52.932 47.232 52.914Q46.62 52.896 45.954 52.968Q45.288 53.04 44.64 53.202Q43.992 53.364 43.524 53.58Q43.236 53.724 43.02 53.904Q42.804 54.084 42.804 54.372Q42.912 55.128 43.416 55.38Q43.92 55.632 44.352 55.488Q45.396 55.2 46.35 55.056Q47.304 54.912 48.204 54.876Q48.492 54.876 48.924 54.84ZM145.62 55.812Q145.764 56.82 145.854 57.954Q145.944 59.088 145.998 60.24Q146.052 61.392 146.052 62.472Q146.052 63.552 146.016 64.416Q147.168 65.208 147.402 65.82Q147.636 66.432 147.456 66.9Q147.24 67.548 146.682 67.566Q146.124 67.584 145.404 67.188Q144.9 67.548 144.252 67.962Q143.604 68.376 142.884 68.754Q142.164 69.132 141.444 69.42Q140.724 69.708 140.112 69.816Q138.96 69.996 138.042 69.384Q137.124 68.772 136.8 67.548Q136.584 66.72 136.692 65.838Q136.8 64.956 137.232 64.146Q137.664 63.336 138.402 62.688Q139.14 62.04 140.148 61.68Q140.4 61.572 140.85 61.5Q141.3 61.428 141.786 61.446Q142.272 61.464 142.776 61.644Q143.28 61.824 143.712 62.256Q143.712 61.644 143.694 60.906Q143.676 60.168 143.64 59.412Q143.604 58.656 143.55 57.99Q143.496 57.324 143.424 56.856Q143.352 56.316 143.01 56.19Q142.668 56.064 142.164 56.244Q141.3 56.532 140.148 57.36Q138.996 58.188 137.952 59.124Q137.628 59.448 137.214 59.412Q136.8 59.376 136.512 59.088Q136.224 58.8 136.188 58.422Q136.152 58.044 136.476 57.612Q137.088 56.964 137.844 56.28Q138.6 55.596 139.428 55.038Q140.256 54.48 141.12 54.12Q141.984 53.76 142.848 53.724Q144.108 53.688 144.792 54.282Q145.476 54.876 145.62 55.812ZM37.908 58.368Q37.836 57.972 37.764 57.612Q37.692 57.252 37.404 57.144Q36.792 56.964 36.108 57.108Q35.424 57.252 34.848 57.558Q34.272 57.864 33.876 58.242Q33.48 58.62 33.444 58.908Q33.336 59.448 33.732 59.952Q34.128 60.456 34.884 60.96Q36.144 61.716 37.512 62.508Q38.88 63.3 39.816 64.128Q40.752 64.956 41.094 65.946Q41.436 66.936 40.932 68.196Q40.536 69.168 39.456 69.78Q38.376 70.392 37.08 70.734Q35.784 71.076 34.488 71.202Q33.192 71.328 32.292 71.328Q32.076 71.328 31.77 71.166Q31.464 71.004 31.194 70.788Q30.924 70.572 30.726 70.338Q30.528 70.104 30.528 69.924Q30.528 69.276 31.104 69.024Q31.68 68.772 32.292 68.772Q33.156 68.772 34.146 68.682Q35.136 68.592 36.036 68.394Q36.936 68.196 37.656 67.872Q38.376 67.548 38.664 67.044Q38.916 66.612 38.358 66.018Q37.8 65.424 36.882 64.776Q35.964 64.128 34.902 63.516Q33.84 62.904 33.084 62.4Q32.328 61.896 31.788 61.194Q31.248 60.492 31.104 59.448Q31.068 58.512 31.5 57.648Q31.932 56.784 32.634 56.118Q33.336 55.452 34.236 55.056Q35.136 54.66 36.036 54.66Q37.584 54.732 38.592 55.506Q39.6 56.28 39.78 57.792Q39.78 58.296 39.618 58.62Q39.456 58.944 39.06 59.016Q38.556 59.088 38.25 58.89Q37.944 58.692 37.908 58.368ZM86.724 58.368Q86.652 57.972 86.58 57.612Q86.508 57.252 86.22 57.144Q85.608 56.964 84.924 57.108Q84.24 57.252 83.664 57.558Q83.088 57.864 82.692 58.242Q82.296 58.62 82.26 58.908Q82.152 59.448 82.548 59.952Q82.944 60.456 83.7 60.96Q84.96 61.716 86.328 62.508Q87.696 63.3 88.632 64.128Q89.568 64.956 89.91 65.946Q90.252 66.936 89.748 68.196Q89.352 69.168 88.272 69.78Q87.192 70.392 85.896 70.734Q84.6 71.076 83.304 71.202Q82.008 71.328 81.108 71.328Q80.892 71.328 80.586 71.166Q80.28 71.004 80.01 70.788Q79.74 70.572 79.542 70.338Q79.344 70.104 79.344 69.924Q79.344 69.276 79.92 69.024Q80.496 68.772 81.108 68.772Q81.972 68.772 82.962 68.682Q83.952 68.592 84.852 68.394Q85.752 68.196 86.472 67.872Q87.192 67.548 87.48 67.044Q87.732 66.612 87.174 66.018Q86.616 65.424 85.698 64.776Q84.78 64.128 83.718 63.516Q82.656 62.904 81.9 62.4Q81.144 61.896 80.604 61.194Q80.064 60.492 79.92 59.448Q79.884 58.512 80.316 57.648Q80.748 56.784 81.45 56.118Q82.152 55.452 83.052 55.056Q83.952 54.66 84.852 54.66Q86.4 54.732 87.408 55.506Q88.416 56.28 88.596 57.792Q88.596 58.296 88.434 58.62Q88.272 58.944 87.876 59.016Q87.372 59.088 87.066 58.89Q86.76 58.692 86.724 58.368ZM98.784 57.612Q98.856 57.972 98.928 58.368Q98.964 58.692 99.27 58.89Q99.576 59.088 100.08 59.016Q100.476 58.944 100.638 58.62Q100.8 58.296 100.8 57.792Q100.62 56.28 99.612 55.506Q98.604 54.732 97.056 54.66Q96.156 54.66 95.256 55.056Q94.356 55.452 93.654 56.118Q92.952 56.784 92.52 57.648Q92.088 58.512 92.124 59.448Q92.268 60.492 92.808 61.194Q93.348 61.896 94.104 62.4Q94.86 62.904 95.922 63.516Q96.984 64.128 97.902 64.776Q98.82 65.424 99.378 66.018Q99.936 66.612 99.684 67.044Q99.396 67.548 98.676 67.872Q97.956 68.196 97.056 68.394Q96.156 68.592 95.166 68.682Q94.176 68.772 93.312 68.772Q92.7 68.772 92.124 69.024Q91.548 69.276 91.548 69.924Q91.548 70.104 91.746 70.338Q91.944 70.572 92.214 70.788Q92.484 71.004 92.79 71.166Q93.096 71.328 93.312 71.328Q94.212 71.328 95.508 71.202Q96.804 71.076 98.1 70.734Q99.396 70.392 100.476 69.78Q101.556 69.168 101.952 68.196Q102.456 66.936 102.114 65.946Q101.772 64.956 100.836 64.128Q99.9 63.3 98.532 62.508Q97.164 61.716 95.904 60.96Q95.148 60.456 94.752 59.952Q94.356 59.448 94.464 58.908Q94.5 58.62 94.896 58.242Q95.292 57.864 95.868 57.558Q96.444 57.252 97.128 57.108Q97.812 56.964 98.424 57.144Q98.712 57.252 98.784 57.612ZM54.396 57.252Q54.504 57.792 54.63 58.458Q54.756 59.124 54.9 59.826Q55.044 60.528 55.152 61.248Q55.26 61.968 55.332 62.616Q55.764 61.68 56.268 60.636Q56.772 59.592 57.366 58.71Q57.96 57.828 58.626 57.252Q59.292 56.676 60.084 56.676Q61.272 56.676 62.082 57.54Q62.892 58.404 63.45 59.682Q64.008 60.96 64.332 62.364Q64.656 63.768 64.872 64.848Q65.088 65.82 64.008 66.288Q63.504 66.54 63.252 66.36Q63 66.18 62.964 66Q62.784 65.568 62.514 64.488Q62.244 63.408 61.902 62.292Q61.56 61.176 61.128 60.348Q60.696 59.52 60.156 59.592Q59.508 59.628 59.004 60.564Q58.572 61.32 58.122 62.238Q57.672 63.156 57.24 64.11Q56.808 65.064 56.394 66.018Q55.98 66.972 55.62 67.764Q55.368 68.016 54.99 68.106Q54.612 68.196 54.216 68.052Q53.856 67.944 53.64 67.692Q53.424 67.44 53.424 67.188Q53.1 64.38 52.758 62.076Q52.416 59.772 51.876 57.36Q51.624 56.532 51.786 56.046Q51.948 55.56 52.848 55.668Q54.108 55.884 54.396 57.252ZM152.082 58.458Q151.956 57.792 151.848 57.252Q151.56 55.884 150.3 55.668Q149.4 55.56 149.238 56.046Q149.076 56.532 149.328 57.36Q149.868 59.772 150.21 62.076Q150.552 64.38 150.876 67.188Q150.876 67.44 151.092 67.692Q151.308 67.944 151.668 68.052Q152.064 68.196 152.442 68.106Q152.82 68.016 153.072 67.764Q153.432 66.972 153.846 66.018Q154.26 65.064 154.692 64.11Q155.124 63.156 155.574 62.238Q156.024 61.32 156.456 60.564Q156.96 59.628 157.608 59.592Q158.148 59.52 158.58 60.348Q159.012 61.176 159.354 62.292Q159.696 63.408 159.966 64.488Q160.236 65.568 160.416 66Q160.452 66.18 160.704 66.36Q160.956 66.54 161.46 66.288Q162.54 65.82 162.324 64.848Q162.108 63.768 161.784 62.364Q161.46 60.96 160.902 59.682Q160.344 58.404 159.534 57.54Q158.724 56.676 157.536 56.676Q156.744 56.676 156.078 57.252Q155.412 57.828 154.818 58.71Q154.224 59.592 153.72 60.636Q153.216 61.68 152.784 62.616Q152.712 61.968 152.604 61.248Q152.496 60.528 152.352 59.826Q152.208 59.124 152.082 58.458ZM73.044 61.95Q74.664 61.5 76.068 60.672Q76.68 60.276 76.806 59.772Q76.932 59.268 76.644 58.584Q76.14 57.36 74.88 56.676Q73.62 55.992 72.072 56.1Q70.776 56.172 69.804 56.676Q68.832 57.18 68.184 57.954Q67.536 58.728 67.23 59.736Q66.924 60.744 67.032 61.86Q67.14 63.048 67.572 64.164Q68.004 65.28 68.832 66.108Q69.804 67.044 71.028 67.368Q72.252 67.692 73.404 67.476Q74.736 67.26 75.816 66.45Q76.896 65.64 77.472 64.488Q77.616 63.588 77.112 63.408Q76.932 63.336 76.572 63.426Q76.212 63.516 75.888 63.804Q75.564 64.092 75.132 64.38Q74.7 64.668 74.178 64.902Q73.656 65.136 73.062 65.244Q72.468 65.352 71.892 65.28Q70.92 65.136 70.272 64.398Q69.624 63.66 69.552 62.4Q71.424 62.4 73.044 61.95ZM19.08 60.618Q19.296 59.448 19.512 58.476Q19.656 57.9 19.206 57.36Q18.756 56.82 18.216 56.712Q17.928 56.64 17.712 56.874Q17.496 57.108 17.424 57.396Q17.244 58.08 17.01 59.16Q16.776 60.24 16.614 61.446Q16.452 62.652 16.434 63.876Q16.416 65.1 16.704 66.108Q17.46 68.628 18.9 68.808Q19.872 68.916 20.79 68.466Q21.708 68.016 22.554 67.206Q23.4 66.396 24.138 65.406Q24.876 64.416 25.416 63.444Q25.452 63.948 25.56 64.686Q25.668 65.424 25.794 66.234Q25.92 67.044 26.082 67.782Q26.244 68.52 26.424 69.024Q26.604 69.456 26.946 69.6Q27.288 69.744 27.612 69.672Q28.008 69.564 28.332 69.06Q28.656 68.556 28.548 68.16Q28.332 67.188 28.116 65.964Q27.9 64.74 27.702 63.444Q27.504 62.148 27.36 60.852Q27.216 59.556 27.144 58.476Q27.144 58.188 26.982 57.918Q26.82 57.648 26.622 57.45Q26.424 57.252 26.19 57.144Q25.956 57.036 25.776 57.072Q25.524 57.108 25.146 57.378Q24.768 57.648 24.768 57.936Q24.768 58.44 24.66 58.908Q24.552 59.376 24.408 59.808Q24.156 60.672 23.544 61.806Q22.932 62.94 22.176 63.912Q21.42 64.884 20.628 65.514Q19.836 66.144 19.224 66.036Q18.864 65.676 18.774 64.812Q18.684 63.948 18.774 62.868Q18.864 61.788 19.08 60.618ZM71.154 58.476Q71.568 58.296 71.928 58.224Q72.72 58.08 73.494 58.242Q74.268 58.404 74.556 59.088Q74.16 59.34 73.566 59.556Q72.972 59.772 72.27 59.934Q71.568 60.096 70.83 60.204Q70.092 60.312 69.48 60.312Q69.516 59.88 69.786 59.538Q70.056 59.196 70.398 58.926Q70.74 58.656 71.154 58.476ZM48.87 67.674Q48.852 67.008 48.6 66.432Q48.384 65.964 48.24 65.226Q48.096 64.488 47.988 63.696Q47.88 62.904 47.844 62.112Q47.808 61.32 47.808 60.672Q47.844 59.844 47.448 59.286Q47.052 58.728 46.404 58.692Q46.008 58.764 45.756 59.196Q45.504 59.628 45.468 60.132Q45.468 60.6 45.486 61.536Q45.504 62.472 45.612 63.552Q45.72 64.632 45.936 65.73Q46.152 66.828 46.548 67.584Q46.836 68.196 47.412 68.556Q47.988 68.916 48.492 68.592Q48.888 68.34 48.87 67.674ZM5.832 64.848Q5.58 63.336 5.292 61.932Q6.408 61.68 7.506 61.554Q8.604 61.428 9.522 61.572Q10.44 61.716 11.088 62.184Q11.736 62.652 11.916 63.552Q11.952 64.56 11.412 65.37Q10.872 66.18 10.044 66.738Q9.216 67.296 8.262 67.584Q7.308 67.872 6.516 67.872L6.372 67.872Q6.084 66.36 5.832 64.848ZM141.444 63.552Q140.976 63.66 140.454 64.002Q139.932 64.344 139.518 64.83Q139.104 65.316 138.906 65.91Q138.708 66.504 138.888 67.08Q138.96 67.296 139.194 67.404Q139.428 67.512 139.716 67.44Q140.58 67.26 141.678 66.738Q142.776 66.216 143.424 65.604Q143.424 65.388 143.208 65.046Q142.992 64.704 142.704 64.362Q142.416 64.02 142.074 63.768Q141.732 63.516 141.444 63.552Z" />
    </g>
  </g>
</svg>